<?xml version="1.0" encoding="UTF-8"?>
<svg width="233px" height="45px" viewBox="0 0 233 45" version="1.1" xmlns="http://www.w3.org/2000/svg" xmlns:xlink="http://www.w3.org/1999/xlink">
    <title>Logo Copy 4</title>
    <g id="Logo-Copy-4" stroke="none" stroke-width="1" fill="none" fill-rule="evenodd">
        <g id="RingCentral-Frontier-SideBySide-FullColor-Plus-Copy-3" transform="translate(0.232104, 7.881417)" fill="#FFFFFF">
            <polygon id="Path" fill-rule="nonzero" points="233 7.59457221 230.253625 7.59457221 230.253625 25.1204706 233 25.1204706"></polygon>
            <path d="M223.361413,13.4696921 C220.826223,13.4696921 218.860356,14.7000134 218.528494,17.2116517 L221.228155,17.2116517 C221.418903,16.264532 222.117661,15.6958904 223.361413,15.6958904 C224.805644,15.6958904 225.469367,16.5245715 225.469367,17.8268123 L225.469367,18.4187135 L222.697689,18.4187135 C220.144009,18.4187135 218.256971,19.5561913 218.256971,21.8774714 C218.256971,24.1988489 219.795603,25.4059106 222.022288,25.4059106 C223.751667,25.4059106 224.889339,24.670073 225.504402,23.4861734 L225.62216,23.4861734 L225.62216,25.1111279 L228.22742,25.1111279 L228.22742,17.9149844 C228.215742,15.1387326 226.794868,13.4696921 223.361413,13.4696921 Z M222.804742,23.2981509 C221.739086,23.2981509 221.075363,22.7758337 221.075363,21.9054023 C221.075363,20.9095253 221.7858,20.3895437 223.064586,20.3895437 L225.455742,20.3895437 L225.469367,20.554404 C225.469367,22.276776 224.473782,23.2981509 222.804742,23.2981509 L222.804742,23.2981509 Z" id="Shape"></path>
            <path d="M213.389017,25.1203733 L213.389017,19.2242323 C213.389017,17.4716911 214.479976,16.3574728 216.207409,16.3574728 L217.288636,16.3574728 L217.288636,13.7528937 L216.175293,13.7528937 C214.872176,13.7528937 213.925251,14.2497131 213.333545,15.3639314 L213.238171,15.3639314 L213.238171,13.7528937 L210.657241,13.7528937 L210.657241,25.1273804 L213.389017,25.1203733 Z" id="Path"></path>
            <path d="M208.914237,22.611168 L208.914237,25.1204706 L207.042771,25.1204706 C204.41318,25.1204706 202.968949,23.9018278 202.968949,21.2717508 L202.968949,16.0093586 L201.097483,16.0093586 L201.097483,13.7530883 L202.968949,13.7530883 L202.968949,10.7353853 L205.71727,10.7353853 L205.71727,13.7530883 L208.914237,13.7530883 L208.914237,16.0093586 L205.71727,16.0093586 L205.71727,20.9538059 C205.71727,21.9960074 206.332334,22.611168 207.374632,22.611168 L208.914237,22.611168 Z" id="Path"></path>
            <path d="M192.098289,25.1203733 L192.098289,18.5371521 C192.098289,16.9261144 193.093874,15.8722345 194.702576,15.8722345 C196.242181,15.8722345 197.165749,16.7613514 197.165749,18.5023115 L197.165749,25.1203733 L199.916016,25.1203733 L199.916016,18.0635922 C199.916016,15.1967354 198.523365,13.4696921 195.677724,13.4696921 C193.946399,13.4696921 192.622845,14.2497131 192.031138,15.315174 L191.933818,15.315174 L191.933818,13.7528937 L189.358727,13.7528937 L189.358727,25.1273804 L192.098289,25.1203733 Z" id="Path"></path>
            <path d="M182.000351,23.1565501 C180.270972,23.1565501 179.109943,21.99591 179.064202,20.171352 L187.471689,20.171352 L187.460011,19.2823324 C187.460011,15.4706916 184.996838,13.4790348 181.988672,13.4790348 C178.739153,13.4790348 176.364541,15.8003149 176.364541,19.4470954 C176.364541,23.0938759 178.566896,25.4152534 181.988672,25.4152534 C184.853778,25.4152534 186.724271,23.8993948 187.270237,21.6732938 L184.604638,21.6732938 C184.309758,22.5274727 183.585696,23.1565501 182.000351,23.1565501 Z M181.988672,15.7538932 C183.788122,15.7538932 184.853778,16.7729325 184.924821,18.193612 L179.052524,18.193612 C179.312368,16.7497703 180.187277,15.7538932 181.988672,15.7538932 L181.988672,15.7538932 Z" id="Shape"></path>
            <path d="M168.144882,25.4290728 C172.24206,25.4290728 174.563145,23.1565501 175.108138,19.7813901 L172.322836,19.7813901 C171.910198,21.3204109 170.788097,22.7409931 168.144882,22.7409931 C165.421864,22.7409931 163.241893,20.8839301 163.241893,16.8193542 C163.241893,12.7547783 165.421864,10.9023866 168.144882,10.9023866 C170.867899,10.9023866 171.958858,12.3229688 172.322836,13.8388274 L175.108138,13.8388274 C174.658519,10.4635701 172.371496,8.26763834 168.144882,8.26763834 C163.597111,8.26763834 160.305744,11.440859 160.305744,16.8565305 C160.305744,22.2721046 163.597111,25.4453253 168.144882,25.4453253 L168.144882,25.4290728 Z" id="Path"></path>
            <path d="M155.841669,13.752991 L155.841669,15.3128383 L155.71126,15.3128383 C155.096197,14.2242152 153.81741,13.4674537 151.997523,13.4674537 C149.332898,13.4674537 146.930063,15.5752134 146.930063,19.2939135 C146.930063,23.0127109 149.297862,25.1436328 151.997523,25.1436328 C153.750259,25.1436328 154.782826,24.4309574 155.575012,23.2238956 L155.699581,23.2238956 L155.699581,25.6195284 C155.699581,26.8985097 154.990118,27.4905082 153.829088,27.4905082 L148.25751,27.4905082 L148.25751,29.9371366 L153.775562,29.9371366 C156.830442,29.9371366 158.464447,28.2310171 158.464447,25.4360799 L158.464447,13.752991 L155.841669,13.752991 Z M152.751754,22.6574924 C150.927002,22.6574924 149.766945,21.5223502 149.766945,19.2962492 C149.766945,17.0701482 150.916296,15.9326703 152.751754,15.9326703 C154.527847,15.9326703 155.71126,17.0678125 155.71126,19.2962492 C155.71126,21.5246859 154.539525,22.6574924 152.751754,22.6574924 Z" id="Shape"></path>
            <path d="M137.438429,25.1203733 L137.438429,18.5371521 C137.438429,16.9261144 138.434014,15.8722345 140.045636,15.8722345 C141.584268,15.8722345 142.507836,16.7613514 142.507836,18.5023115 L142.507836,25.1203733 L145.25421,25.1203733 L145.25421,18.0635922 C145.25421,15.1967354 143.861559,13.4696921 141.015918,13.4696921 C139.286539,13.4696921 137.94936,14.2497131 137.35668,15.315174 L137.26228,15.315174 L137.26228,13.7528937 L134.692055,13.7528937 L134.692055,25.1273804 L137.438429,25.1203733 Z" id="Path"></path>
            <polygon id="Path" fill-rule="nonzero" points="132.370969 13.7528937 129.624595 13.7528937 129.624595 25.1203733 132.370969 25.1203733"></polygon>
            <path d="M124.840336,17.2813329 L124.840336,17.1699013 C126.521055,16.7055869 127.658728,15.5774518 127.658728,13.042554 C127.658728,10.4380722 125.715245,8.54159455 122.115372,8.54159455 L116.005614,8.54159455 L116.005614,25.1203733 L118.847362,25.1203733 L118.847362,18.5371521 L122.30612,18.5371521 C123.916768,18.5371521 124.722579,19.3425736 124.722579,20.9536113 L124.722579,25.1319544 L127.563354,25.1319544 L127.563354,20.9536113 C127.563354,18.6090717 126.567769,17.661952 124.840336,17.2813329 Z M121.96258,15.9789947 L118.847362,15.9789947 L118.847362,11.1043259 L121.96258,11.1043259 C123.501211,11.1043259 124.684624,11.7449845 124.684624,13.5439474 C124.684624,15.3430076 123.489533,15.9789947 121.96258,15.9789947 L121.96258,15.9789947 Z" id="Shape"></path>
            <path d="M130.996809,11.9283356 C131.357867,11.9288222 131.711139,11.8221593 132.010885,11.6217772 C132.311604,11.4214923 132.546146,11.1365389 132.68434,10.8031201 C132.822535,10.469604 132.858543,10.1025124 132.788473,9.74846167 C132.718402,9.39431366 132.544199,9.06897242 132.28922,8.81360435 C132.034242,8.55833361 131.708219,8.38451983 131.353974,8.31415737 C131.000702,8.24389222 130.632832,8.28019264 130.299997,8.41858188 C129.966189,8.55697113 129.681041,8.79122072 129.480561,9.09155069 C129.281055,9.39197798 129.174003,9.74505547 129.174003,10.1061132 C129.171083,10.4675602 129.277162,10.8216109 129.476668,11.1224275 C129.677148,11.4233414 129.963269,11.6571044 130.29805,11.7937419 C130.518967,11.8857094 130.757401,11.9315472 130.996809,11.9283356 L130.996809,11.9283356 Z" id="Path"></path>
            <path d="M128.902479,5.05023432 C128.237783,5.32866726 127.633425,5.73478422 127.12444,6.24571499 L128.412959,7.53403908 C128.75066,7.19439177 129.152592,6.92462033 129.594426,6.74010133 C130.036259,6.55558233 130.510208,6.45991663 130.989023,6.45865147 C131.467838,6.45738631 131.942761,6.55042437 132.385567,6.73260768 C132.828374,6.91469367 133.231279,7.18232407 133.570927,7.5201223 L134.859445,6.23179821 C134.094509,5.46832167 133.120334,4.94863209 132.060518,4.73832325 C130.999729,4.52801442 129.900984,4.6366237 128.902479,5.05023432 L128.902479,5.05023432 Z" id="Path"></path>
            <polygon id="Path" fill-rule="nonzero" points="0 8.0853577 0 25.0966272 3.23774393 25.0966272 3.23774393 17.9459322 11.0578069 17.9459322 11.0578069 15.2065647 3.23774393 15.2065647 3.23774393 10.9249649 11.5059662 10.9249649 11.5059662 8.0853577"></polygon>
            <path d="M20.222445,16.3301258 C19.7978372,16.1796689 19.4498204,16.082446 19.0016611,16.082446 C17.182261,16.082446 15.7137973,17.9017488 15.7137973,20.5143081 L15.7137973,25.0967245 L12.6265103,25.0967245 L12.6265103,13.5140701 L15.6902458,13.5140701 L15.6902458,15.4071415 L15.7403657,15.4071415 C16.4362048,14.0389176 17.4329577,13.2398219 18.9278925,13.2398219 C19.4763888,13.2398219 19.8508767,13.3637104 20.222445,13.5140701 L20.222445,16.3301258 Z" id="Path" fill-rule="nonzero"></path>
            <path d="M80.4117436,16.3301258 C79.9874277,16.1796689 79.6399948,16.082446 79.1913489,16.082446 C77.3719488,16.082446 75.9034851,17.9017488 75.9034851,20.5143081 L75.9034851,25.0967245 L72.8161982,25.0967245 L72.8161982,13.5140701 L75.8799337,13.5140701 L75.8799337,15.4071415 L75.9300535,15.4071415 C76.6259899,14.0389176 77.6226455,13.2398219 79.1176776,13.2398219 C79.6662713,13.2398219 80.0409538,13.3637104 80.4117436,13.5140701 L80.4117436,16.3301258 L80.4117436,16.3301258 Z" id="Path" fill-rule="nonzero"></path>
            <path d="M33.146755,19.317173 C33.146755,22.3543401 30.7317556,25.3679558 26.7480528,25.3679558 C22.8615727,25.3679558 20.4230219,22.5283486 20.4230219,19.3407245 C20.4230219,15.7049412 23.460189,13.2398219 26.6241642,13.2398219 C30.905764,13.2398219 33.146755,16.3536773 33.146755,19.317173 Z M23.7314202,19.2936216 C23.7314202,21.3606041 25.2765722,22.6315079 26.8453729,22.6315079 C28.6382046,22.6315079 29.8324201,20.9390133 29.8324201,19.3437414 C29.8324201,17.6511495 28.5879874,15.9821045 26.8689244,15.9821045 C25.0790123,15.9791894 23.7314202,17.4004528 23.7314202,19.2936216 Z" id="Shape" fill-rule="nonzero"></path>
            <path d="M44.9741696,25.0967245 L41.8868827,25.0967245 L41.8868827,18.3706373 C41.8868827,17.1764218 41.5388658,16.2298861 40.1942907,16.2298861 C38.3276903,16.2298861 37.2307949,18.1730774 37.2307949,20.3905169 L37.2307949,25.0967245 L34.1434106,25.0967245 L34.1434106,13.5140701 L37.2278753,13.5140701 L37.2307949,15.3333729 C37.7290741,14.587414 38.6520583,13.2398219 40.8931467,13.2398219 C43.682634,13.2398219 44.9770893,15.1565422 44.9770893,17.5478928 L44.9770893,25.0967245 L44.9741696,25.0967245 Z" id="Path" fill-rule="nonzero"></path>
            <polygon id="Path" fill-rule="nonzero" points="55.3331206 25.0966272 58.4234245 25.0966272 58.4234245 13.5139728 55.3331206 13.5139728"></polygon>
            <path d="M71.2975173,19.7152124 L62.7314954,19.7152124 C62.9054065,20.2872602 63.0558634,20.7119654 63.4539028,21.2102445 C64.1999591,22.1066604 65.2968544,22.5283486 66.267039,22.5283486 C67.9596309,22.5283486 69.5046856,21.6585011 70.849358,20.6116283 L70.849358,23.7757009 C69.8290536,24.3240999 67.9094137,25.3709727 65.7686625,25.3709727 C62.0827593,25.3709727 59.5173029,22.554917 59.5173029,19.3437414 C59.5173029,16.1059975 62.1063108,13.2427415 65.5445342,13.2427415 C69.0329748,13.2427415 71.2975173,15.7344292 71.2975173,19.2434044 L71.2975173,19.7152124 L71.2975173,19.7152124 Z M67.9596309,17.5980127 C67.7590541,16.2800059 66.6149585,15.5575012 65.6183029,15.5575012 C65.3676062,15.5575012 63.6514627,15.6312698 63.0027266,17.5980127 L67.9596309,17.5980127 Z" id="Shape" fill-rule="nonzero"></path>
            <path d="M50.4441458,10.0522952 L50.4441458,13.5377189 L53.6817924,13.5377189 L53.6817924,15.8524785 L50.5443855,15.8524785 L50.5443855,20.9066057 C50.5443855,22.2011582 51.2403219,22.525429 52.0394176,22.525429 C52.6615853,22.525429 53.2100816,22.3278691 53.6817924,22.1273896 L53.6817924,24.866757 C52.7589054,25.1144368 51.8123697,25.2648937 50.8658339,25.2648937 C48.7751053,25.2648937 47.4540816,24.1944695 47.4540816,21.9504615 L47.4540816,15.8553981 L45.5374586,15.8553981 L45.5374586,13.5406385 L47.4570012,13.5406385 L47.4570012,10.0405194 L50.4441458,10.0405194" id="Path" fill-rule="nonzero"></path>
            <path d="M53.2718799,6.51081507 C53.2718799,7.32470345 52.6113681,7.98521527 51.8004966,7.98521527 C50.9866082,7.98521527 50.329016,7.32470345 50.329016,6.51081507 C50.329016,5.69692669 50.9866082,5.03943178 51.8004966,5.03943178 C52.6113681,5.03943178 53.2718799,5.69692669 53.2718799,6.51081507 Z" id="Path" fill-rule="nonzero"></path>
            <path d="M47.881609,3.68298359 C47.881609,4.3670469 47.3272734,4.92147977 46.6401932,4.92147977 C45.9560326,4.92147977 45.401697,4.3670469 45.401697,3.68298359 C45.401697,2.99882297 45.9560326,2.44156782 46.6401932,2.44156782 C47.3272734,2.44156782 47.881609,2.99882297 47.881609,3.68298359 Z" id="Path" fill-rule="nonzero"></path>
            <path d="M42.7301617,1.899008 C42.7301617,2.54180757 42.2111534,3.0608159 41.5683538,3.0608159 C40.9255543,3.0608159 40.4065459,2.54180757 40.4065459,1.899008 C40.4065459,1.25611112 40.9255543,0.737200104 41.5683538,0.737200104 C42.2082338,0.737200104 42.7301617,1.25611112 42.7301617,1.899008 Z" id="Path" fill-rule="nonzero"></path>
            <path d="M37.2249557,1.00843135 C37.2249557,1.56578382 36.7737795,2.01696002 36.2164271,2.01696002 C35.6591719,2.01696002 35.2079957,1.56578382 35.2079957,1.00843135 C35.2079957,0.451176195 35.6591719,0 36.2164271,0 C36.7737795,0 37.2249557,0.451176195 37.2249557,1.00843135 Z" id="Path" fill-rule="nonzero"></path>
            <path d="M31.6458837,1.00843135 C31.6458837,1.47731981 31.2654593,1.86066387 30.7936512,1.86066387 C30.3218432,1.86066387 29.941516,1.48023942 29.941516,1.00843135 C29.941516,0.536720603 30.3218432,0.156296154 30.7936512,0.156296154 C31.2625397,0.156296154 31.6458837,0.536720603 31.6458837,1.00843135 Z" id="Path" fill-rule="nonzero"></path>
            <path d="M26.2379006,1.70436771 C26.2379006,2.12011937 25.9016595,2.45928008 25.4829882,2.45928008 C25.0642196,2.45928008 24.7280758,2.12011937 24.7280758,1.70436771 C24.7280758,1.28861605 25.0642196,0.949455341 25.4829882,0.949455341 C25.8987399,0.949455341 26.2379006,1.28861605 26.2379006,1.70436771 Z" id="Path" fill-rule="nonzero"></path>
            <path d="M20.9272375,3.64171985 C20.9272375,3.93066336 20.6942531,4.16364779 20.4053096,4.16364779 C20.1162688,4.16364779 19.8833816,3.93066336 19.8833816,3.64171985 C19.8833816,3.35267902 20.1162688,3.11979191 20.4053096,3.11979191 C20.6942531,3.11979191 20.9272375,3.35267902 20.9272375,3.64171985 Z" id="Path" fill-rule="nonzero"></path>
            <path d="M16.5453006,6.57271068 C16.5453006,6.75255831 16.4008776,6.89999833 16.218013,6.89999833 C16.0381654,6.89999833 15.8907253,6.75255831 15.8907253,6.57271068 C15.8907253,6.39286305 16.0381654,6.24542303 16.218013,6.24542303 C16.4008776,6.24542303 16.5453006,6.39286305 16.5453006,6.57271068 Z" id="Path" fill-rule="nonzero"></path>
            <path d="M13.9209656,9.82816687 C13.9209656,9.96373384 13.8118697,10.0728297 13.6763028,10.0728297 C13.5406385,10.0728297 13.4315426,9.96373384 13.4315426,9.82816687 C13.4315426,9.69250259 13.5406385,9.58340671 13.6763028,9.58340671 C13.8118697,9.58340671 13.9209656,9.69250259 13.9209656,9.82816687 Z" id="Path" fill-rule="nonzero"></path>
            <path d="M58.4794809,10.4532542 C58.4794809,11.3556066 57.7363443,12.0750944 56.8340892,12.0750944 C55.8874561,12.0750944 55.1886002,11.3084063 55.1886002,10.4297027 C55.1886002,9.45951816 55.999569,8.78431099 56.7662571,8.78431099 C57.3323683,8.78723059 58.4794809,9.25903866 58.4794809,10.4532542 Z" id="Path" fill-rule="nonzero"></path>
            <path d="M81.0452977,14.0800891 C81.0452977,13.9590696 81.0750361,13.8466123 81.1345129,13.742926 C81.1939897,13.6392397 81.2754949,13.5576899 81.38013,13.4983809 C81.4847651,13.4384454 81.5982115,13.4084777 81.719368,13.4084777 C81.8405244,13.4084777 81.9539708,13.4384454 82.0575045,13.4983809 C82.1621396,13.5576899 82.2436448,13.6392397 82.3020202,13.742926 C82.3614969,13.8466123 82.3912353,13.9590696 82.3912353,14.0800891 C82.3912353,14.1981849 82.3636998,14.3087627 82.3064258,14.4119269 C82.2491519,14.5149867 82.1687481,14.5979984 82.0630116,14.6609619 C81.9594779,14.723299 81.8449301,14.7544153 81.719368,14.7544153 C81.5949073,14.7544153 81.4803594,14.7236123 81.3746229,14.6617973 C81.2710892,14.5994602 81.189584,14.5167618 81.1323101,14.413702 C81.0750361,14.3105378 81.0452977,14.1994379 81.0452977,14.0800891 Z M81.1554399,14.0800891 C81.1554399,14.1832533 81.1796712,14.278795 81.2303366,14.3669231 C81.281002,14.4544247 81.3503916,14.5230268 81.4363025,14.5728338 C81.5233148,14.6225364 81.6180371,14.6473877 81.719368,14.6473877 C81.8206988,14.6473877 81.9154211,14.6222232 82.0024334,14.5718941 C82.0905471,14.5209385 82.1588353,14.4520231 82.2072979,14.365148 C82.2579633,14.2781685 82.2821946,14.1832533 82.2821946,14.0800891 C82.2821946,13.9776558 82.2579633,13.8831583 82.2072979,13.7969097 C82.1588353,13.7099301 82.0905471,13.6416413 82.0024334,13.5919387 C81.9154211,13.5415052 81.8206988,13.5163407 81.719368,13.5163407 C81.6180371,13.5163407 81.5233148,13.5412964 81.4363025,13.590999 C81.3492902,13.6401795 81.2799006,13.7084683 81.2303366,13.7959699 C81.1796712,13.8834715 81.1554399,13.9781779 81.1554399,14.0800891 Z M81.5794874,14.1475426 L81.5794874,14.4513966 L81.4462153,14.4513966 L81.4462153,13.688107 L81.7083537,13.688107 C81.8041774,13.688107 81.8790741,13.7078418 81.9330438,13.7474159 C81.9859121,13.7863635 82.0134476,13.8433753 82.0134476,13.9182424 C82.0134476,13.991961 81.972695,14.0483463 81.8922912,14.0872939 C81.9693907,14.1172616 82.0079405,14.1784501 82.0079405,14.2707549 L82.0079405,14.3255739 C82.0079405,14.377156 82.0134476,14.4142241 82.0244618,14.4370915 L82.0244618,14.4513966 L81.8867841,14.4513966 C81.8779727,14.4298867 81.873567,14.3914612 81.873567,14.3363289 C81.873567,14.2805701 81.8724656,14.2476787 81.8713642,14.2374458 C81.86035,14.1799119 81.8195974,14.1499442 81.7469035,14.1475426 L81.5794874,14.1475426 Z M81.5794874,14.0324749 L81.7281793,14.0324749 C81.7733376,14.0312219 81.8096846,14.0207801 81.8372201,14.0009409 C81.8658571,13.981206 81.8790741,13.9551017 81.8790741,13.9227324 C81.8790741,13.8789816 81.8669585,13.8481785 81.8427272,13.8301143 C81.8173945,13.8115281 81.7744391,13.8023394 81.7105566,13.8023394 L81.5794874,13.8023394 L81.5794874,14.0324749 Z" id="Shape" fill-rule="nonzero"></path>
            <rect id="Rectangle" fill-rule="nonzero" x="97.7094263" y="8.17489224" width="1.26516189" height="16.9337053"></rect>
            <polygon id="Rectangle" fill-rule="nonzero" transform="translate(98.293347, 16.593085) rotate(90.000000) translate(-98.293347, -16.593085) " points="97.6607662 8.12623216 98.9259281 8.12623216 98.9259281 25.0599375 97.6607662 25.0599375"></polygon>
        </g>
    </g>
</svg>