<?xml version="1.0" encoding="UTF-8"?>
<svg width="60px" height="60px" viewBox="0 0 60 60" version="1.1" xmlns="http://www.w3.org/2000/svg" xmlns:xlink="http://www.w3.org/1999/xlink">
    <title>Icon Artwork</title>
    <defs>
        <linearGradient x1="50%" y1="2.04081633%" x2="50%" y2="100%" id="linearGradient-1">
            <stop stop-color="#E60000" offset="0%"></stop>
            <stop stop-color="#E40000" offset="51.6225363%"></stop>
            <stop stop-color="#D00000" offset="79.5918367%"></stop>
            <stop stop-color="#BE0000" offset="92.8571429%"></stop>
            <stop stop-color="#B20000" offset="100%"></stop>
        </linearGradient>
    </defs>
    <g id="Icon-Artwork" stroke="none" stroke-width="1" fill="none" fill-rule="evenodd">
        <rect id="Rectangle-2" fill="url(#linearGradient-1)" x="0" y="0" width="60" height="60"></rect>
        <g id="Ring_central_iOS" transform="translate(8.000000, 10.000000)" fill="#FFFFFF">
            <path d="M44.9949846,15.7437507 L44.9949846,15.9713997 C45.0257071,14.8793124 44.9151882,13.7878079 44.6660645,12.7229253 C43.5191789,7.35890572 39.6508969,2.94288747 34.4136921,1.01885 C29.1764873,-0.905187461 23.2987016,-0.069666887 18.8353944,3.23328734 C27.4001449,4.61078509 33.6844466,11.8665104 33.6785667,20.3709084 C33.6785667,25.31524 31.3134745,30.111216 28.0060001,33.1601778 C31.8381804,34.9506756 35.3283882,36.5442185 35.3283882,36.5442185 L34.1484526,30.3900221 C40.4247005,28.2000185 44.71404,22.4939501 44.9871531,15.9713997 M35.743454,17.8309595 C35.2155343,17.8309595 34.739597,17.5193589 34.5375709,17.0414567 C34.3355448,16.5635544 34.4472154,16.0134652 34.820511,15.6476946 C35.1938066,15.2819241 35.755213,15.1725045 36.2429472,15.3704581 C36.7306814,15.5684117 37.0486925,16.0347549 37.0486925,16.5520325 C37.0486925,16.891225 36.9111767,17.2165251 36.666397,17.4563704 C36.4216173,17.6962158 36.0896248,17.8309595 35.743454,17.8309595 L35.743454,17.8309595 Z M39.9933106,17.8309595 C39.4653909,17.8309595 38.9894536,17.5193589 38.7874275,17.0414567 C38.5854013,16.5635544 38.697072,16.0134652 39.0703676,15.6476946 C39.4436632,15.2819241 40.0050696,15.1725045 40.4928038,15.3704581 C40.980538,15.5684117 41.2985491,16.0347549 41.2985491,16.5520325 C41.2985491,16.891225 41.1610333,17.2165251 40.9162536,17.4563704 C40.6714739,17.6962158 40.3394814,17.8309595 39.9933106,17.8309595 L39.9933106,17.8309595 Z" id="Shape" fill-rule="nonzero"></path>
            <path d="M17.7833721,5.09540497 C9.72500347,4.18298319 2.25126906,9.34237732 0.41598958,17.0847488 C-1.4192899,24.8271202 2.96854469,32.6860065 10.6123918,35.3471429 L9.46117139,41 C9.46117139,41 19.615927,36.395863 24.1007265,34.0656581 C28.4106241,31.8403252 31.9138875,26.3486129 31.9138875,20.6318095 C31.9190406,12.6864176 25.8392939,6.0017764 17.7833721,5.09540497 Z M26.1864976,24.5862516 C26.1864976,25.3280292 25.640908,25.647761 24.9726258,25.2922193 L20.6575073,22.9901508 L20.6575073,24.5913673 C20.6575087,25.3390813 20.0396605,25.9456191 19.276565,25.9470299 L8.22641576,25.9470299 C7.46433819,25.9456223 6.84690995,25.3406404 6.84547342,24.5939252 L6.84547342,16.4599498 C6.84690399,15.712817 7.46391611,15.1071 8.22641576,15.1042872 L19.276565,15.1042872 C20.0390646,15.1071 20.6560767,15.712817 20.6575073,16.4599498 L20.6575073,18.0611663 L24.9726258,15.7590978 C25.640908,15.4009983 26.1864976,15.7181722 26.1864976,16.4650655 L26.1864976,24.5862516 Z" id="Shape"></path>
        </g>
    </g>
</svg>