<?xml version="1.0" encoding="UTF-8"?>
<svg xmlns="http://www.w3.org/2000/svg" xmlns:xlink="http://www.w3.org/1999/xlink" width="386px" height="60px" viewBox="0 0 448 67" version="1.1">
    <g>
        <path style=" stroke:none;fill-rule:evenodd;fill:rgb(59.215686%,59.215686%,59.215686%);fill-opacity:1;" d="M 235.0625 0.171875 L 235.0625 64.945312 L 233.351562 64.945312 L 233.351562 0.171875 Z M 235.0625 0.171875 "/>
        <path style=" stroke:none;fill-rule:nonzero;fill:rgb(100%,47.843137%,0%);fill-opacity:1;" d="M 447.976562 18.539062 L 443.824219 18.539062 L 443.824219 45.109375 L 447.976562 45.109375 Z M 447.976562 18.539062 "/>
        <path style=" stroke:none;fill-rule:evenodd;fill:rgb(100%,47.843137%,0%);fill-opacity:1;" d="M 433.394531 27.445312 C 429.558594 27.445312 426.585938 29.3125 426.082031 33.121094 L 430.167969 33.121094 C 430.457031 31.683594 431.511719 30.820312 433.394531 30.820312 C 435.578125 30.820312 436.585938 32.078125 436.585938 34.050781 L 436.585938 34.949219 L 432.390625 34.949219 C 428.527344 34.949219 425.671875 36.675781 425.671875 40.195312 C 425.671875 43.714844 428 45.542969 431.371094 45.542969 C 433.984375 45.542969 435.707031 44.429688 436.636719 42.632812 L 436.816406 42.632812 L 436.816406 45.097656 L 440.757812 45.097656 L 440.757812 34.1875 C 440.738281 29.976562 438.589844 27.445312 433.394531 27.445312 Z M 432.550781 42.347656 C 430.941406 42.347656 429.9375 41.554688 429.9375 40.234375 C 429.9375 38.726562 431.011719 37.9375 432.945312 37.9375 L 436.5625 37.9375 L 436.585938 38.1875 C 436.585938 40.800781 435.078125 42.347656 432.550781 42.347656 Z M 432.550781 42.347656 "/>
        <path style=" stroke:none;fill-rule:evenodd;fill:rgb(100%,47.843137%,0%);fill-opacity:1;" d="M 418.308594 45.109375 L 418.308594 36.171875 C 418.308594 33.511719 419.957031 31.824219 422.570312 31.824219 L 424.207031 31.824219 L 424.207031 27.875 L 422.523438 27.875 C 420.550781 27.875 419.121094 28.628906 418.222656 30.316406 L 418.078125 30.316406 L 418.078125 27.875 L 414.175781 27.875 L 414.175781 45.121094 Z M 418.308594 45.109375 "/>
        <path style=" stroke:none;fill-rule:evenodd;fill:rgb(100%,47.843137%,0%);fill-opacity:1;" d="M 411.535156 41.308594 L 411.535156 45.113281 L 408.707031 45.113281 C 404.726562 45.113281 402.542969 43.265625 402.542969 39.277344 L 402.542969 31.296875 L 399.710938 31.296875 L 399.710938 27.878906 L 402.542969 27.878906 L 402.542969 23.300781 L 406.699219 23.300781 L 406.699219 27.878906 L 411.535156 27.878906 L 411.535156 31.296875 L 406.699219 31.296875 L 406.699219 38.796875 C 406.699219 40.375 407.628906 41.308594 409.207031 41.308594 Z M 411.535156 41.308594 "/>
        <path style=" stroke:none;fill-rule:evenodd;fill:rgb(100%,47.843137%,0%);fill-opacity:1;" d="M 386.09375 45.109375 L 386.09375 35.128906 C 386.09375 32.6875 387.601562 31.089844 390.035156 31.089844 C 392.363281 31.089844 393.761719 32.4375 393.761719 35.078125 L 393.761719 45.109375 L 397.921875 45.109375 L 397.921875 34.410156 C 397.921875 30.066406 395.816406 27.445312 391.511719 27.445312 C 388.890625 27.445312 386.890625 28.628906 385.992188 30.246094 L 385.847656 30.246094 L 385.847656 27.875 L 381.949219 27.875 L 381.949219 45.121094 Z M 386.09375 45.109375 "/>
        <path style=" stroke:none;fill-rule:evenodd;fill:rgb(100%,47.843137%,0%);fill-opacity:1;" d="M 370.816406 42.136719 C 368.203125 42.136719 366.445312 40.375 366.375 37.609375 L 379.09375 37.609375 L 379.078125 36.261719 C 379.078125 30.480469 375.351562 27.460938 370.800781 27.460938 C 365.882812 27.460938 362.289062 30.980469 362.289062 36.511719 C 362.289062 42.039062 365.625 45.558594 370.800781 45.558594 C 375.136719 45.558594 377.964844 43.261719 378.789062 39.886719 L 374.757812 39.886719 C 374.3125 41.179688 373.214844 42.136719 370.816406 42.136719 Z M 370.800781 30.910156 C 373.523438 30.910156 375.136719 32.457031 375.242188 34.609375 L 366.359375 34.609375 C 366.75 32.421875 368.074219 30.910156 370.800781 30.910156 Z M 370.800781 30.910156 "/>
        <path style=" stroke:none;fill-rule:evenodd;fill:rgb(100%,47.843137%,0%);fill-opacity:1;" d="M 349.855469 45.578125 C 356.054688 45.578125 359.566406 42.128906 360.390625 37.011719 L 356.175781 37.011719 C 355.550781 39.347656 353.855469 41.5 349.855469 41.5 C 345.734375 41.5 342.4375 38.683594 342.4375 32.523438 C 342.4375 26.359375 345.734375 23.550781 349.855469 23.550781 C 353.976562 23.550781 355.625 25.707031 356.175781 28.003906 L 360.390625 28.003906 C 359.710938 22.886719 356.25 19.558594 349.855469 19.558594 C 342.976562 19.558594 337.992188 24.367188 337.992188 32.578125 C 337.992188 40.789062 342.976562 45.601562 349.855469 45.601562 Z M 349.855469 45.578125 "/>
        <path style=" stroke:none;fill-rule:evenodd;fill:rgb(2.352941%,51.764706%,73.72549%);fill-opacity:1;" d="M 331.242188 27.882812 L 331.242188 30.246094 L 331.042969 30.246094 C 330.113281 28.597656 328.179688 27.449219 325.425781 27.449219 C 321.394531 27.449219 317.757812 30.644531 317.757812 36.28125 C 317.757812 41.921875 321.339844 45.152344 325.425781 45.152344 C 328.078125 45.152344 329.640625 44.070312 330.835938 42.242188 L 331.027344 42.242188 L 331.027344 45.875 C 331.027344 47.8125 329.953125 48.710938 328.195312 48.710938 L 319.769531 48.710938 L 319.769531 52.417969 L 328.117188 52.417969 C 332.738281 52.417969 335.210938 49.832031 335.210938 45.59375 L 335.210938 27.882812 Z M 326.566406 41.382812 C 323.804688 41.382812 322.050781 39.660156 322.050781 36.285156 C 322.050781 32.910156 323.789062 31.1875 326.566406 31.1875 C 329.253906 31.1875 331.042969 32.90625 331.042969 36.285156 C 331.042969 39.664062 329.269531 41.382812 326.566406 41.382812 Z M 326.566406 41.382812 "/>
        <path style=" stroke:none;fill-rule:evenodd;fill:rgb(2.352941%,51.764706%,73.72549%);fill-opacity:1;" d="M 303.398438 45.113281 L 303.398438 35.132812 C 303.398438 32.691406 304.90625 31.09375 307.339844 31.09375 C 309.671875 31.09375 311.066406 32.441406 311.066406 35.082031 L 311.066406 45.113281 L 315.222656 45.113281 L 315.222656 34.414062 C 315.222656 30.070312 313.117188 27.449219 308.808594 27.449219 C 306.191406 27.449219 304.167969 28.632812 303.277344 30.25 L 303.128906 30.25 L 303.128906 27.878906 L 299.242188 27.878906 L 299.242188 45.125 Z M 303.398438 45.113281 "/>
        <path style=" stroke:none;fill-rule:nonzero;fill:rgb(2.352941%,51.764706%,73.72549%);fill-opacity:1;" d="M 295.730469 27.878906 L 291.578125 27.878906 L 291.578125 45.113281 L 295.730469 45.113281 Z M 295.730469 27.878906 "/>
        <path style=" stroke:none;fill-rule:evenodd;fill:rgb(2.352941%,51.764706%,73.72549%);fill-opacity:1;" d="M 284.339844 33.226562 L 284.339844 33.054688 C 286.878906 32.351562 288.601562 30.640625 288.601562 26.796875 C 288.601562 22.851562 285.660156 19.972656 280.214844 19.972656 L 270.972656 19.972656 L 270.972656 45.109375 L 275.269531 45.109375 L 275.269531 35.128906 L 280.503906 35.128906 C 282.941406 35.128906 284.160156 36.351562 284.160156 38.792969 L 284.160156 45.128906 L 288.457031 45.128906 L 288.457031 38.792969 C 288.457031 35.238281 286.949219 33.800781 284.339844 33.226562 Z M 279.984375 31.25 L 275.269531 31.25 L 275.269531 23.859375 L 279.984375 23.859375 C 282.3125 23.859375 284.101562 24.832031 284.101562 27.558594 C 284.101562 30.285156 282.292969 31.25 279.984375 31.25 Z M 279.984375 31.25 "/>
        <path style=" stroke:none;fill-rule:evenodd;fill:rgb(100%,47.843137%,0%);fill-opacity:1;" d="M 293.652344 25.113281 C 294.199219 25.113281 294.734375 24.953125 295.1875 24.648438 C 295.640625 24.34375 295.996094 23.914062 296.203125 23.40625 C 296.414062 22.902344 296.46875 22.34375 296.363281 21.808594 C 296.257812 21.269531 295.996094 20.777344 295.609375 20.390625 C 295.222656 20.003906 294.730469 19.738281 294.195312 19.632812 C 293.65625 19.527344 293.101562 19.582031 292.597656 19.792969 C 292.09375 20 291.660156 20.355469 291.359375 20.8125 C 291.054688 21.265625 290.894531 21.804688 290.894531 22.351562 C 290.890625 22.898438 291.050781 23.433594 291.355469 23.890625 C 291.65625 24.347656 292.089844 24.703125 292.59375 24.910156 C 292.929688 25.046875 293.289062 25.117188 293.652344 25.113281 Z M 293.652344 25.113281 "/>
        <path style=" stroke:none;fill-rule:evenodd;fill:rgb(100%,47.843137%,0%);fill-opacity:1;" d="M 290.484375 14.683594 C 289.476562 15.105469 288.5625 15.71875 287.792969 16.496094 L 289.742188 18.449219 C 290.253906 17.933594 290.863281 17.523438 291.53125 17.246094 C 292.199219 16.964844 292.914062 16.820312 293.640625 16.816406 C 294.363281 16.816406 295.082031 16.957031 295.753906 17.234375 C 296.421875 17.507812 297.03125 17.914062 297.546875 18.425781 L 299.496094 16.472656 C 298.339844 15.316406 296.863281 14.527344 295.261719 14.210938 C 293.65625 13.890625 291.996094 14.054688 290.484375 14.683594 Z M 290.484375 14.683594 "/>
        <path style=" stroke:none;fill-rule:evenodd;fill:rgb(90.196078%,0%,0%);fill-opacity:1;" d="M 67.324219 33.460938 C 67.324219 51.941406 52.253906 66.921875 33.664062 66.921875 C 15.070312 66.921875 0 51.941406 0 33.460938 C 0 14.980469 15.070312 0 33.664062 0 C 52.253906 0 67.324219 14.980469 67.324219 33.460938 "/>
        <path style=" stroke:none;fill-rule:evenodd;fill:rgb(95.686275%,95.686275%,95.686275%);fill-opacity:1;" d="M 33.929688 52.121094 C 24.679688 52.148438 15.058594 44.304688 15.015625 31.703125 C 14.988281 23.371094 19.511719 15.351562 25.292969 10.59375 C 30.929688 5.953125 38.65625 2.972656 45.660156 2.949219 C 46.5625 2.949219 47.503906 3.023438 48.082031 3.214844 C 41.957031 4.480469 37.082031 10.144531 37.105469 16.574219 C 37.105469 16.785156 37.125 17.015625 37.144531 17.121094 C 47.394531 19.601562 52.046875 25.75 52.074219 34.253906 C 52.105469 42.761719 45.347656 52.082031 33.929688 52.121094 "/>
        <path style=" stroke:none;fill-rule:evenodd;fill:rgb(90.196078%,0%,0%);fill-opacity:1;" d="M 85.84375 29.933594 L 79.347656 14.53125 L 83.59375 14.53125 L 87.644531 24.753906 L 91.566406 14.53125 L 95.613281 14.53125 L 89.316406 29.933594 Z M 106.917969 22.152344 C 106.917969 21.511719 106.84375 20.902344 106.691406 20.324219 C 106.5625 19.789062 106.332031 19.285156 106.019531 18.835938 C 105.730469 18.429688 105.355469 18.089844 104.925781 17.839844 C 104.496094 17.59375 103.992188 17.46875 103.414062 17.46875 C 102.835938 17.46875 102.332031 17.59375 101.902344 17.839844 C 101.472656 18.085938 101.109375 18.417969 100.808594 18.832031 C 100.496094 19.285156 100.265625 19.789062 100.132812 20.324219 C 99.980469 20.921875 99.90625 21.535156 99.910156 22.152344 C 99.910156 22.8125 99.984375 23.429688 100.132812 23.996094 C 100.285156 24.5625 100.503906 25.058594 100.792969 25.488281 C 101.082031 25.914062 101.449219 26.25 101.886719 26.496094 C 102.328125 26.742188 102.835938 26.867188 103.414062 26.867188 C 103.992188 26.867188 104.496094 26.742188 104.925781 26.496094 C 105.355469 26.25 105.71875 25.914062 106.019531 25.488281 C 106.316406 25.058594 106.542969 24.5625 106.691406 23.996094 C 106.839844 23.429688 106.917969 22.816406 106.917969 22.152344 Z M 110.839844 22.167969 C 110.839844 23.167969 110.683594 24.15625 110.371094 25.125 C 110.0625 26.09375 109.601562 26.960938 108.992188 27.726562 C 108.363281 28.507812 107.574219 29.140625 106.675781 29.582031 C 105.742188 30.050781 104.65625 30.285156 103.414062 30.285156 C 102.171875 30.285156 101.082031 30.050781 100.152344 29.582031 C 99.253906 29.140625 98.464844 28.507812 97.835938 27.726562 C 97.21875 26.953125 96.753906 26.070312 96.453125 25.125 C 96.144531 24.167969 95.988281 23.171875 95.988281 22.167969 C 95.988281 21.167969 96.144531 20.1875 96.453125 19.226562 C 96.753906 18.292969 97.222656 17.421875 97.835938 16.65625 C 98.464844 15.886719 99.253906 15.265625 100.152344 14.835938 C 101.082031 14.375 102.171875 14.148438 103.414062 14.148438 C 104.65625 14.148438 105.738281 14.375 106.660156 14.835938 C 107.554688 15.269531 108.34375 15.890625 108.976562 16.65625 C 109.59375 17.414062 110.0625 18.269531 110.371094 19.226562 C 110.683594 20.1875 110.839844 21.164062 110.839844 22.167969 Z M 122.8125 17.917969 C 122.046875 17.621094 121.332031 17.46875 120.671875 17.46875 C 119.988281 17.46875 119.402344 17.597656 118.910156 17.855469 C 118.429688 18.101562 118.015625 18.460938 117.695312 18.898438 C 117.371094 19.34375 117.128906 19.84375 116.976562 20.371094 C 116.816406 20.917969 116.738281 21.476562 116.738281 22.054688 C 116.738281 22.695312 116.804688 23.3125 116.945312 23.898438 C 117.085938 24.488281 117.296875 25 117.582031 25.4375 C 117.871094 25.875 118.234375 26.230469 118.671875 26.496094 C 119.109375 26.761719 119.625 26.894531 120.222656 26.894531 C 120.710938 26.894531 121.214844 26.761719 121.726562 26.496094 C 122.238281 26.230469 122.597656 25.914062 122.8125 25.550781 Z M 123.136719 29.933594 L 122.972656 28.75 C 122.609375 29.15625 122.128906 29.511719 121.53125 29.820312 C 120.933594 30.128906 120.226562 30.285156 119.414062 30.285156 C 118.347656 30.285156 117.40625 30.0625 116.597656 29.613281 C 115.792969 29.171875 115.09375 28.5625 114.546875 27.824219 C 113.972656 27.042969 113.542969 26.167969 113.28125 25.234375 C 112.988281 24.238281 112.84375 23.207031 112.847656 22.167969 C 112.847656 21.167969 112.996094 20.1875 113.296875 19.226562 C 113.582031 18.292969 114.042969 17.417969 114.65625 16.65625 C 115.28125 15.890625 116.0625 15.265625 116.949219 14.835938 C 117.867188 14.375 118.945312 14.148438 120.183594 14.148438 C 120.996094 14.148438 121.871094 14.296875 122.8125 14.589844 L 122.8125 8.617188 L 126.800781 8.617188 L 126.800781 29.933594 Z M 138.019531 22.710938 C 137.578125 22.734375 137.132812 22.769531 136.695312 22.824219 C 136.242188 22.875 135.808594 22.945312 135.398438 23.03125 C 134.535156 23.199219 133.9375 23.492188 133.605469 23.910156 C 133.269531 24.324219 133.101562 24.777344 133.101562 25.265625 C 133.101562 25.777344 133.292969 26.1875 133.667969 26.496094 C 134.046875 26.808594 134.582031 26.960938 135.269531 26.960938 C 135.789062 26.960938 136.289062 26.855469 136.773438 26.640625 C 137.230469 26.449219 137.652344 26.175781 138.023438 25.84375 Z M 138.34375 29.917969 L 138.179688 28.769531 C 137.75 29.242188 137.203125 29.613281 136.535156 29.882812 C 135.835938 30.15625 135.09375 30.292969 134.34375 30.285156 C 133.675781 30.285156 133.035156 30.171875 132.421875 29.949219 C 131.824219 29.734375 131.273438 29.410156 130.792969 28.988281 C 130.3125 28.5625 129.921875 28.039062 129.648438 27.457031 C 129.359375 26.847656 129.214844 26.164062 129.214844 25.394531 C 129.214844 24.628906 129.363281 23.953125 129.664062 23.367188 C 129.964844 22.78125 130.375 22.285156 130.890625 21.878906 C 131.429688 21.464844 132.027344 21.128906 132.664062 20.890625 C 133.34375 20.632812 134.046875 20.4375 134.761719 20.316406 C 135.277344 20.207031 135.84375 20.128906 136.457031 20.074219 C 137.070312 20.023438 137.582031 19.972656 137.988281 19.929688 L 137.988281 19.707031 C 137.988281 18.855469 137.765625 18.25 137.328125 17.886719 C 136.886719 17.523438 136.277344 17.34375 135.5 17.34375 C 135.046875 17.34375 134.617188 17.398438 134.210938 17.503906 C 133.800781 17.609375 133.433594 17.742188 133.109375 17.902344 C 132.785156 18.0625 132.5 18.222656 132.253906 18.378906 C 132.007812 18.539062 131.808594 18.683594 131.65625 18.8125 L 130.339844 16.03125 C 130.585938 15.832031 130.847656 15.648438 131.125 15.488281 C 131.535156 15.246094 131.96875 15.039062 132.410156 14.867188 C 132.914062 14.664062 133.484375 14.492188 134.117188 14.355469 C 134.785156 14.210938 135.472656 14.144531 136.15625 14.148438 C 137.011719 14.148438 137.796875 14.257812 138.503906 14.484375 C 139.210938 14.707031 139.820312 15.058594 140.335938 15.535156 C 140.851562 16.015625 141.253906 16.621094 141.539062 17.355469 C 141.832031 18.089844 141.976562 18.976562 141.976562 20.019531 L 141.976562 29.917969 Z M 154.292969 12.132812 C 154.046875 12.027344 153.792969 11.9375 153.535156 11.863281 C 153.160156 11.746094 152.664062 11.6875 152.039062 11.6875 C 151.484375 11.6875 151.019531 11.851562 150.640625 12.183594 C 150.269531 12.511719 150.078125 13.050781 150.078125 13.796875 L 150.078125 14.53125 L 153.425781 14.53125 L 153.425781 17.726562 L 150.113281 17.726562 L 150.113281 29.933594 L 146.125 29.933594 L 146.125 17.726562 L 144.070312 17.726562 L 144.070312 14.53125 L 146.125 14.53125 L 146.125 13.699219 C 146.125 12.699219 146.253906 11.851562 146.511719 11.160156 C 146.769531 10.46875 147.128906 9.902344 147.589844 9.464844 C 148.050781 9.027344 148.605469 8.699219 149.214844 8.507812 C 149.867188 8.300781 150.550781 8.199219 151.238281 8.203125 C 152.203125 8.203125 153 8.292969 153.632812 8.476562 C 154.265625 8.65625 154.632812 8.777344 154.742188 8.84375 Z M 165.15625 22.152344 C 165.15625 21.511719 165.082031 20.902344 164.933594 20.324219 C 164.800781 19.789062 164.574219 19.285156 164.257812 18.835938 C 163.96875 18.429688 163.59375 18.089844 163.164062 17.839844 C 162.734375 17.59375 162.230469 17.46875 161.652344 17.46875 C 161.074219 17.46875 160.570312 17.59375 160.140625 17.839844 C 159.710938 18.085938 159.347656 18.417969 159.050781 18.832031 C 158.734375 19.285156 158.503906 19.789062 158.375 20.324219 C 158.222656 20.921875 158.144531 21.535156 158.148438 22.152344 C 158.148438 22.8125 158.222656 23.429688 158.375 23.996094 C 158.523438 24.5625 158.742188 25.058594 159.035156 25.488281 C 159.324219 25.914062 159.6875 26.25 160.125 26.496094 C 160.566406 26.742188 161.074219 26.867188 161.652344 26.867188 C 162.230469 26.867188 162.734375 26.742188 163.164062 26.496094 C 163.59375 26.25 163.957031 25.914062 164.257812 25.488281 C 164.558594 25.058594 164.78125 24.5625 164.929688 23.996094 C 165.082031 23.429688 165.15625 22.816406 165.15625 22.152344 Z M 169.078125 22.167969 C 169.078125 23.167969 168.921875 24.15625 168.613281 25.125 C 168.300781 26.09375 167.839844 26.960938 167.230469 27.726562 C 166.601562 28.507812 165.8125 29.140625 164.914062 29.582031 C 163.984375 30.050781 162.894531 30.285156 161.652344 30.285156 C 160.410156 30.285156 159.324219 30.050781 158.390625 29.582031 C 157.492188 29.140625 156.703125 28.507812 156.074219 27.726562 C 155.460938 26.953125 154.992188 26.070312 154.695312 25.125 C 154.382812 24.167969 154.226562 23.171875 154.226562 22.167969 C 154.226562 21.167969 154.382812 20.1875 154.695312 19.226562 C 154.992188 18.292969 155.460938 17.421875 156.074219 16.65625 C 156.703125 15.886719 157.496094 15.265625 158.390625 14.835938 C 159.324219 14.375 160.410156 14.148438 161.652344 14.148438 C 162.894531 14.148438 163.976562 14.375 164.902344 14.835938 C 165.792969 15.269531 166.582031 15.890625 167.214844 16.65625 C 167.835938 17.414062 168.300781 18.269531 168.613281 19.226562 C 168.921875 20.1875 169.078125 21.164062 169.078125 22.167969 Z M 181.453125 29.933594 L 181.453125 21.144531 C 181.453125 19.972656 181.207031 19.070312 180.710938 18.429688 C 180.222656 17.789062 179.535156 17.46875 178.65625 17.46875 C 178.035156 17.46875 177.460938 17.628906 176.933594 17.949219 C 176.410156 18.269531 175.957031 18.621094 175.566406 19.003906 L 175.566406 29.933594 L 171.585938 29.933594 L 171.585938 14.53125 L 175.214844 14.53125 L 175.410156 15.746094 C 176.035156 15.230469 176.746094 14.832031 177.515625 14.5625 C 178.273438 14.289062 179.070312 14.148438 179.878906 14.148438 C 180.691406 14.148438 181.441406 14.269531 182.128906 14.515625 C 182.8125 14.757812 183.402344 15.148438 183.894531 15.679688 C 184.386719 16.214844 184.765625 16.90625 185.035156 17.757812 C 185.304688 18.609375 185.441406 19.632812 185.441406 20.828125 L 185.441406 29.933594 Z M 197.839844 20.378906 C 197.808594 19.898438 197.695312 19.429688 197.5 18.988281 C 197.339844 18.625 197.109375 18.300781 196.824219 18.027344 C 196.566406 17.792969 196.273438 17.609375 195.949219 17.484375 C 195.644531 17.371094 195.320312 17.3125 194.996094 17.3125 C 194.304688 17.3125 193.648438 17.566406 193.023438 18.078125 C 192.398438 18.589844 192.03125 19.355469 191.925781 20.378906 Z M 191.828125 23.222656 C 191.914062 24.519531 192.324219 25.460938 193.054688 26.035156 C 193.789062 26.609375 194.734375 26.894531 195.894531 26.894531 C 196.84375 26.902344 197.785156 26.726562 198.671875 26.386719 C 199.035156 26.238281 199.347656 26.085938 199.605469 25.9375 C 199.816406 25.824219 200.011719 25.683594 200.1875 25.523438 L 201.246094 28.75 C 200.644531 29.160156 199.984375 29.476562 199.285156 29.695312 C 198.792969 29.851562 198.214844 29.992188 197.550781 30.109375 C 196.886719 30.222656 196.15625 30.285156 195.363281 30.285156 C 194.386719 30.289062 193.414062 30.125 192.488281 29.804688 C 191.589844 29.492188 190.773438 28.984375 190.09375 28.320312 C 189.40625 27.648438 188.859375 26.8125 188.453125 25.808594 C 188.046875 24.808594 187.84375 23.617188 187.84375 22.230469 C 187.84375 20.933594 188.03125 19.78125 188.40625 18.78125 C 188.777344 17.78125 189.292969 16.9375 189.949219 16.257812 C 190.59375 15.582031 191.371094 15.050781 192.230469 14.691406 C 193.113281 14.324219 194.058594 14.140625 195.011719 14.148438 C 195.996094 14.148438 196.90625 14.308594 197.742188 14.625 C 198.574219 14.941406 199.316406 15.453125 199.914062 16.113281 C 200.523438 16.785156 201.007812 17.652344 201.359375 18.71875 C 201.714844 19.78125 201.890625 21.050781 201.890625 22.519531 L 201.890625 23.222656 Z M 90.054688 58.050781 C 91.125 57.605469 92.054688 56.765625 92.832031 55.523438 C 93.613281 54.28125 94.003906 52.773438 94.003906 50.992188 C 94.003906 49.730469 93.785156 48.476562 93.363281 47.285156 C 92.957031 46.101562 92.195312 45.078125 91.179688 44.351562 C 90.148438 43.609375 88.957031 43.234375 87.605469 43.234375 C 87.0625 43.234375 86.507812 43.296875 85.933594 43.421875 C 85.363281 43.546875 84.773438 43.753906 84.171875 44.042969 L 84.171875 37.683594 L 81.890625 37.683594 L 81.890625 57.601562 C 82.476562 57.871094 83.195312 58.125 84.046875 58.363281 C 84.898438 58.601562 85.867188 58.71875 86.949219 58.71875 C 87.949219 58.71875 88.984375 58.496094 90.054688 58.050781 Z M 85.355469 56.671875 C 84.949219 56.578125 84.550781 56.441406 84.171875 56.269531 L 84.171875 46.121094 C 84.640625 45.792969 85.164062 45.546875 85.714844 45.394531 C 86.226562 45.257812 86.71875 45.191406 87.199219 45.191406 C 87.84375 45.191406 88.519531 45.371094 89.226562 45.734375 C 89.933594 46.09375 90.539062 46.722656 91.039062 47.609375 C 91.539062 48.5 91.789062 49.609375 91.789062 50.933594 C 91.789062 52.730469 91.328125 54.164062 90.414062 55.230469 C 89.5 56.292969 88.238281 56.828125 86.636719 56.828125 C 86.21875 56.828125 85.792969 56.773438 85.355469 56.671875 Z M 104.835938 58.316406 C 105.507812 58.042969 106.136719 57.679688 106.707031 57.230469 L 106.863281 58.378906 L 108.988281 58.378906 L 108.988281 43.578125 L 106.644531 43.578125 L 106.644531 55.152344 C 106.1875 55.609375 105.601562 55.996094 104.882812 56.316406 C 104.203125 56.628906 103.460938 56.792969 102.714844 56.796875 C 101.589844 56.796875 100.742188 56.503906 100.167969 55.914062 C 99.59375 55.324219 99.308594 54.375 99.308594 53.074219 L 99.308594 43.578125 L 97.03125 43.578125 L 97.03125 52.949219 C 97.03125 54.894531 97.445312 56.339844 98.28125 57.292969 C 99.113281 58.246094 100.464844 58.722656 102.339844 58.722656 C 103.335938 58.722656 104.167969 58.585938 104.835938 58.316406 Z M 119.210938 58.316406 C 119.988281 58.046875 120.671875 57.558594 121.175781 56.90625 C 121.707031 56.234375 121.972656 55.367188 121.972656 54.3125 C 121.972656 53.113281 121.625 52.179688 120.925781 51.507812 C 120.230469 50.835938 119.226562 50.261719 117.914062 49.785156 C 115.625 48.957031 114.480469 48.066406 114.480469 47.117188 C 114.480469 46.617188 114.671875 46.164062 115.058594 45.75 C 115.441406 45.335938 116.074219 45.128906 116.945312 45.128906 C 117.714844 45.128906 118.414062 45.261719 119.039062 45.53125 C 119.660156 45.800781 120.234375 46.179688 120.722656 46.648438 L 121.691406 44.941406 C 121.191406 44.46875 120.546875 44.058594 119.757812 43.714844 C 118.964844 43.375 118.015625 43.203125 116.914062 43.203125 C 115.519531 43.203125 114.402344 43.582031 113.558594 44.339844 C 112.71875 45.09375 112.296875 46.070312 112.296875 47.269531 C 112.296875 48.304688 112.585938 49.136719 113.167969 49.765625 C 113.753906 50.398438 114.75 50.972656 116.167969 51.488281 C 118.621094 52.441406 119.851562 53.433594 119.851562 54.46875 C 119.851562 55.277344 119.605469 55.863281 119.117188 56.238281 C 118.628906 56.609375 117.902344 56.796875 116.945312 56.796875 C 116.007812 56.796875 115.195312 56.613281 114.496094 56.253906 C 113.878906 55.941406 113.296875 55.5625 112.761719 55.121094 L 111.953125 57.042969 C 112.117188 57.210938 112.429688 57.425781 112.886719 57.695312 C 113.347656 57.964844 113.917969 58.203125 114.605469 58.410156 C 115.292969 58.617188 116.074219 58.71875 116.945312 58.71875 C 117.71875 58.710938 118.484375 58.574219 119.210938 58.316406 Z M 124.65625 58.378906 L 126.964844 58.378906 L 126.964844 43.578125 L 124.65625 43.578125 Z M 126.871094 40.582031 C 127.164062 40.324219 127.308594 39.949219 127.308594 39.449219 C 127.308594 38.976562 127.164062 38.601562 126.871094 38.332031 C 126.585938 38.066406 126.203125 37.921875 125.8125 37.929688 C 125.394531 37.929688 125.035156 38.0625 124.734375 38.335938 C 124.433594 38.601562 124.28125 38.976562 124.28125 39.449219 C 124.28125 39.949219 124.433594 40.324219 124.734375 40.582031 C 125.035156 40.84375 125.394531 40.972656 125.8125 40.972656 C 126.226562 40.972656 126.582031 40.84375 126.871094 40.582031 Z M 133.019531 58.378906 L 133.019531 46.773438 C 133.542969 46.359375 134.15625 45.984375 134.863281 45.640625 C 135.554688 45.304688 136.3125 45.128906 137.082031 45.128906 C 138.285156 45.128906 139.15625 45.480469 139.6875 46.183594 C 140.21875 46.886719 140.480469 47.859375 140.480469 49.101562 L 140.480469 58.378906 L 142.761719 58.378906 L 142.761719 49.164062 C 142.761719 47.175781 142.367188 45.6875 141.574219 44.695312 C 140.785156 43.699219 139.410156 43.203125 137.457031 43.203125 C 136.601562 43.203125 135.789062 43.351562 135.019531 43.640625 C 134.289062 43.90625 133.605469 44.285156 132.992188 44.757812 L 132.835938 43.578125 L 130.742188 43.578125 L 130.742188 58.378906 Z M 155.605469 58.253906 C 156.554688 57.941406 157.253906 57.558594 157.714844 57.105469 L 157.121094 55.152344 C 156.558594 55.628906 155.921875 56.019531 155.214844 56.328125 C 154.507812 56.640625 153.695312 56.796875 152.78125 56.796875 C 151.242188 56.796875 150.066406 56.269531 149.253906 55.210938 C 148.441406 54.15625 148.035156 52.699219 148.035156 50.835938 L 158.339844 50.835938 C 158.339844 49.71875 158.15625 48.550781 157.792969 47.332031 C 157.453125 46.148438 156.75 45.105469 155.777344 44.351562 C 154.800781 43.585938 153.570312 43.203125 152.09375 43.203125 C 151.117188 43.203125 150.140625 43.445312 149.160156 43.917969 C 148.179688 44.394531 147.375 45.253906 146.742188 46.492188 C 146.105469 47.734375 145.789062 49.203125 145.789062 50.902344 C 145.789062 53.445312 146.414062 55.382812 147.664062 56.71875 C 148.910156 58.050781 150.59375 58.71875 152.71875 58.71875 C 153.699219 58.71875 154.660156 58.5625 155.605469 58.253906 Z M 149.660156 45.984375 C 150.347656 45.394531 151.15625 45.097656 152.09375 45.097656 C 152.511719 45.097656 153.011719 45.21875 153.59375 45.453125 C 154.175781 45.691406 154.671875 46.121094 155.078125 46.742188 C 155.484375 47.363281 155.703125 48.097656 155.746094 48.945312 L 148.253906 48.945312 C 148.503906 47.558594 148.972656 46.570312 149.660156 45.984375 Z M 167.6875 58.316406 C 168.464844 58.046875 169.148438 57.558594 169.652344 56.90625 C 170.183594 56.234375 170.449219 55.367188 170.449219 54.3125 C 170.449219 53.113281 170.101562 52.179688 169.402344 51.507812 C 168.707031 50.835938 167.703125 50.261719 166.390625 49.785156 C 164.101562 48.957031 162.957031 48.066406 162.957031 47.117188 C 162.957031 46.617188 163.148438 46.164062 163.535156 45.75 C 163.917969 45.335938 164.550781 45.128906 165.421875 45.128906 C 166.195312 45.128906 166.890625 45.261719 167.515625 45.53125 C 168.136719 45.800781 168.699219 46.171875 169.199219 46.648438 L 170.167969 44.941406 C 169.667969 44.46875 169.023438 44.058594 168.234375 43.714844 C 167.441406 43.375 166.496094 43.203125 165.394531 43.203125 C 163.996094 43.203125 162.878906 43.582031 162.035156 44.339844 C 161.195312 45.09375 160.773438 46.070312 160.773438 47.269531 C 160.773438 48.304688 161.0625 49.136719 161.644531 49.765625 C 162.226562 50.398438 163.226562 50.972656 164.644531 51.488281 C 167.097656 52.441406 168.328125 53.433594 168.328125 54.46875 C 168.328125 55.277344 168.082031 55.863281 167.59375 56.238281 C 167.101562 56.609375 166.378906 56.796875 165.421875 56.796875 C 164.488281 56.796875 163.667969 56.613281 162.972656 56.253906 C 162.355469 55.941406 161.773438 55.5625 161.238281 55.121094 L 160.429688 57.042969 C 160.59375 57.210938 160.90625 57.425781 161.363281 57.695312 C 161.824219 57.964844 162.394531 58.203125 163.082031 58.410156 C 163.769531 58.617188 164.550781 58.71875 165.421875 58.71875 C 166.152344 58.71875 166.90625 58.585938 167.6875 58.316406 Z M 179.578125 58.316406 C 180.359375 58.046875 181.042969 57.558594 181.542969 56.90625 C 182.074219 56.234375 182.34375 55.367188 182.34375 54.3125 C 182.34375 53.113281 181.992188 52.179688 181.296875 51.507812 C 180.597656 50.835938 179.59375 50.261719 178.285156 49.785156 C 175.992188 48.957031 174.851562 48.066406 174.851562 47.117188 C 174.851562 46.617188 175.042969 46.164062 175.429688 45.75 C 175.8125 45.335938 176.441406 45.128906 177.316406 45.128906 C 178.085938 45.128906 178.78125 45.261719 179.410156 45.53125 C 180.03125 45.800781 180.59375 46.171875 181.09375 46.648438 L 182.0625 44.941406 C 181.5625 44.46875 180.917969 44.058594 180.125 43.714844 C 179.332031 43.375 178.386719 43.203125 177.285156 43.203125 C 175.890625 43.203125 174.769531 43.582031 173.929688 44.339844 C 173.085938 45.09375 172.664062 46.070312 172.664062 47.269531 C 172.664062 48.304688 172.957031 49.136719 173.539062 49.765625 C 174.121094 50.398438 175.121094 50.972656 176.535156 51.488281 C 178.992188 52.441406 180.222656 53.433594 180.222656 54.46875 C 180.222656 55.277344 179.972656 55.863281 179.484375 56.238281 C 178.996094 56.609375 178.273438 56.796875 177.316406 56.796875 C 176.378906 56.796875 175.5625 56.613281 174.867188 56.253906 C 174.246094 55.941406 173.664062 55.5625 173.132812 55.121094 L 172.324219 57.042969 C 172.488281 57.210938 172.800781 57.425781 173.257812 57.695312 C 173.714844 57.964844 174.289062 58.203125 174.976562 58.410156 C 175.664062 58.617188 176.441406 58.71875 177.316406 58.71875 C 178.085938 58.710938 178.851562 58.574219 179.578125 58.316406 Z M 179.578125 58.316406 "/>
    </g>
</svg>
