<?xml version="1.0" encoding="UTF-8"?>
<svg width="232px" height="50px" viewBox="0 0 199 30" version="1.1" xmlns="http://www.w3.org/2000/svg" xmlns:xlink="http://www.w3.org/1999/xlink">
    <title>199x30</title>
    <g id="Page-1" stroke="none" stroke-width="1" fill="none" fill-rule="evenodd">
        <g id="199x30" fill="#FFFFFF" fill-rule="nonzero">
            <polygon id="Path" points="104.419418 0.0768163034 104.419418 29.1130878 103.659838 29.1130878 103.659838 0.0768163034"></polygon>
            <polygon id="Path" points="199 8.30990459 197.154222 8.30990459 197.154222 20.2216896 199 20.2216896"></polygon>
            <path d="M192.522305,12.3037747 C190.818567,12.3037747 189.496899,13.1399886 189.274342,14.8470603 L191.088218,14.8470603 C191.216587,14.2033461 191.686007,13.8168103 192.522305,13.8168103 C193.492288,13.8168103 193.93892,14.3800218 193.93892,15.2651673 L193.93892,15.6674502 L192.075671,15.6674502 C190.359781,15.6674502 189.091283,16.4405217 189.091283,18.018236 C189.091283,19.5959503 190.125831,20.416417 191.622203,20.416417 C192.784359,20.416417 193.548497,19.9162711 193.962468,19.1116283 L194.041464,19.1116283 L194.041464,20.2160053 L195.792295,20.2160053 L195.792295,15.3250833 C195.7847,13.4381097 194.829908,12.3037747 192.522305,12.3037747 Z M192.147832,18.9838073 C191.431548,18.9838073 190.985675,18.6288427 190.985675,18.0372094 C190.985675,17.3603877 191.462691,17.0069595 192.322535,17.0069595 L193.929046,17.0069595 L193.93892,17.1189566 C193.93892,18.2896253 193.269731,18.9838073 192.147832,18.9838073 L192.147832,18.9838073 Z" id="Shape"></path>
            <path d="M185.819774,20.2218433 L185.819774,16.2144536 C185.819774,15.0232751 186.553528,14.2659507 187.714165,14.2659507 L188.441083,14.2659507 L188.441083,12.4957367 L187.692137,12.4957367 C186.817102,12.4957367 186.180574,12.8334178 185.782554,13.5906654 L185.718749,13.5906654 L185.718749,12.4957367 L183.983869,12.4957367 L183.983869,20.2266058 L185.819774,20.2218433 Z" id="Path"></path>
            <path d="M182.811838,18.5176906 L182.811838,20.2232259 L181.554734,20.2232259 C179.787192,20.2232259 178.816449,19.3949241 178.816449,17.6073497 L178.816449,14.0306648 L177.559345,14.0306648 L177.559345,12.4971195 L178.816449,12.4971195 L178.816449,10.4460678 L180.663746,10.4460678 L180.663746,12.4971195 L182.811838,12.4971195 L182.811838,14.0306648 L180.663746,14.0306648 L180.663746,17.3911908 C180.663746,18.0995836 181.076958,18.5176906 181.77729,18.5176906 L182.811838,18.5176906 Z" id="Path"></path>
            <path d="M171.510812,20.2223042 L171.510812,15.7479529 C171.510812,14.6530242 172.180001,13.9367193 173.260883,13.9367193 C174.295431,13.9367193 174.916767,14.5409504 174.916767,15.7242937 L174.916767,20.2223042 L176.764824,20.2223042 L176.764824,15.4260957 C176.764824,13.4775929 175.829022,12.3037747 173.916401,12.3037747 C172.752724,12.3037747 171.863257,12.8338787 171.465237,13.5580188 L171.399913,13.5580188 L171.399913,12.4962745 L169.669591,12.4962745 L169.669591,20.2270667 L171.510812,20.2223042 Z" id="Path"></path>
            <path d="M164.723967,18.8884792 C163.561811,18.8884792 162.781722,18.0995836 162.750579,16.8595505 L168.401093,16.8595505 L168.393496,16.2552427 C168.393496,13.6646387 166.738372,12.3109185 164.716372,12.3109185 C162.53258,12.3109185 160.935943,13.8887097 160.935943,16.3672397 C160.935943,18.8458466 162.417124,20.4235609 164.716372,20.4235609 C166.641906,20.4235609 167.899011,19.3933109 168.265888,17.8802753 L166.474798,17.8802753 C166.276548,18.4609239 165.789658,18.8884792 164.723967,18.8884792 Z M164.716372,13.8571384 C165.925622,13.8571384 166.641906,14.5497074 166.68976,15.5152786 L162.742983,15.5152786 C162.917687,14.5339601 163.505602,13.8571384 164.716372,13.8571384 L164.716372,13.8571384 Z" id="Shape"></path>
            <path d="M155.41152,20.4310119 C158.165757,20.4310119 159.725933,18.8864052 160.09205,16.592386 L158.219687,16.592386 C157.94244,17.63846 157.188937,18.6040313 155.41152,18.6040313 C153.581693,18.6040313 152.117224,17.3417984 152.117224,14.5792045 C152.117224,11.8166874 153.581693,10.5576039 155.41152,10.5576039 C157.242108,10.5576039 157.975102,11.5231753 158.219687,12.5534252 L160.09205,12.5534252 C159.789737,10.2594061 158.253108,8.766957 155.41152,8.766957 C152.355731,8.766957 150.143076,10.92363 150.143076,14.6044768 C150.143076,18.2853237 152.355731,20.4420734 155.41152,20.4420734 L155.41152,20.4310119 Z" id="Path"></path>
            <path d="M147.143496,12.4988862 L147.143496,13.5590942 L147.056144,13.5590942 C146.642933,12.8191301 145.783088,12.3047733 144.560165,12.3047733 C142.769076,12.3047733 141.15421,13.7373831 141.15421,16.2648446 C141.15421,18.792383 142.74553,20.2407399 144.560165,20.2407399 C145.738274,20.2407399 146.432529,19.7563411 146.964235,18.9359512 L147.048548,18.9359512 L147.048548,20.5641333 C147.048548,21.4335315 146.570773,21.8358145 145.790684,21.8358145 L142.046716,21.8358145 L142.046716,23.4987171 L145.754984,23.4987171 C147.808127,23.4987171 148.90648,22.3391098 148.90648,20.4395385 L148.90648,12.4988862 L147.143496,12.4988862 Z M145.066805,18.5510286 C143.840843,18.5510286 143.060755,17.7794933 143.060755,16.2664577 C143.060755,14.7534221 143.833247,13.9803506 145.066805,13.9803506 C146.260864,13.9803506 147.056144,14.7518859 147.056144,16.2664577 C147.056144,17.7811065 146.26846,18.5510286 145.066805,18.5510286 Z" id="Shape"></path>
            <path d="M134.77526,20.2243014 L134.77526,15.7498732 C134.77526,14.6549446 135.44445,13.9386398 136.526851,13.9386398 C137.561398,13.9386398 138.181974,14.5429476 138.181974,15.726214 L138.181974,20.2243014 L140.027753,20.2243014 L140.027753,15.4280162 C140.027753,13.4795133 139.091952,12.3056951 137.17933,12.3056951 C136.016413,12.3056951 135.117831,12.8357991 134.72057,13.5600159 L134.656006,13.5600159 L134.656006,12.4981948 L132.929482,12.4981948 L132.929482,20.2289871 L134.77526,20.2243014 Z" id="Path"></path>
            <polygon id="Path" points="131.368545 12.4969658 129.523526 12.4969658 129.523526 20.2230723 131.368545 20.2230723"></polygon>
            <path d="M126.308225,14.894225 L126.308225,14.8184849 C127.43772,14.5029267 128.201857,13.736154 128.201857,12.0133352 C128.201857,10.2431211 126.89614,8.95407969 124.476879,8.95407969 L120.370591,8.95407969 L120.370591,20.2222274 L122.280174,20.2222274 L122.280174,15.7477992 L124.604488,15.7477992 C125.687649,15.7477992 126.22847,16.2952635 126.22847,17.3901922 L126.22847,20.2300625 L128.138052,20.2300625 L128.138052,17.3901922 C128.138052,15.7966539 127.468863,15.1529397 126.308225,14.894225 Z M124.373576,14.0091564 L122.280174,14.0091564 L122.280174,10.6959488 L124.373576,10.6959488 C125.408123,10.6959488 126.203403,11.1313392 126.203403,12.3540889 C126.203403,13.5768386 125.400528,14.0091564 124.373576,14.0091564 L124.373576,14.0091564 Z" id="Shape"></path>
            <path d="M130.445655,11.2577007 C130.688721,11.258008 130.92571,11.1854942 131.127758,11.0493771 C131.329806,10.9132599 131.48704,10.719608 131.579708,10.4929253 C131.673136,10.2662427 131.697443,10.0168226 131.650349,9.77608269 C131.602496,9.53541969 131.48628,9.31426774 131.314615,9.1407414 C131.14295,8.96721514 130.924191,8.84907283 130.686443,8.80129354 C130.447934,8.75351434 130.201831,8.77817211 129.976995,8.87227114 C129.752919,8.96629337 129.561505,9.12545511 129.427059,9.32963083 C129.292613,9.53380654 129.220454,9.77377826 129.221214,10.0192039 C129.218934,10.26486 129.289575,10.505523 129.42478,10.710006 C129.559226,10.9144889 129.7514,11.0734203 129.976236,11.1662134 C130.125113,11.2287413 130.284625,11.2598516 130.445655,11.2577007 L130.445655,11.2577007 Z" id="Path"></path>
            <path d="M129.038155,6.58192377 C128.591522,6.77115884 128.185147,7.04721083 127.843336,7.39444778 L128.709257,8.27011415 C128.936371,8.03920665 129.206022,7.85584797 129.503017,7.73048501 C129.800013,7.60504525 130.118277,7.54004394 130.440339,7.53916824 C130.762401,7.53829254 131.081424,7.60155014 131.379179,7.72533837 C131.676934,7.8490882 131.947345,8.03098738 132.175978,8.26058902 L133.041899,7.3849841 C132.527664,6.8660798 131.872906,6.5128666 131.160421,6.36993594 C130.447934,6.22700527 129.709623,6.30077123 129.038155,6.58192377 L129.038155,6.58192377 Z" id="Path"></path>
            <path d="M14.953921,0 C17.2446892,0 19.4151253,0.516756313 21.3557265,1.44039685 C21.3567391,1.44088242 21.3580619,1.44132741 21.3593804,1.44177382 C26.4127088,3.84888293 29.9067786,9.01531989 29.9067786,15.0002305 C29.9073863,23.2844787 23.2122991,30 14.953921,30 C6.69502639,30 0,23.283941 0,15.0002305 C0,6.71548294 6.69502639,0 14.953921,0 Z M20.2828281,1.32254973 C17.1715898,1.3331797 13.7398088,2.66803398 11.2353987,4.74855971 C8.66703199,6.88142754 6.65822476,10.4772549 6.67022406,14.2122567 C6.6890561,19.8601957 10.9639249,23.37804 15.0718837,23.3642182 C20.1446606,23.3473905 23.1457599,19.1690864 23.1332298,15.3561168 C23.1204659,11.5425327 21.0538015,8.78708271 16.5003493,7.67499347 C16.4909305,7.62709899 16.4821193,7.52518781 16.4821193,7.42995959 C16.4727765,4.54807884 18.6380343,2.00812708 21.3593804,1.44177382 C21.3580142,1.44148587 21.3568704,1.44094129 21.3557265,1.44039685 C21.098488,1.35456063 20.6816741,1.32149397 20.2828281,1.32254973 Z" id="Combined-Shape"></path>
            <path d="M38.1335581,13.4182145 L35.2480669,6.51397275 L37.1335716,6.51397275 L38.93256,11.0971563 L40.6748839,6.51397275 L42.4739483,6.51397275 L39.6754289,13.4182145 L38.1335581,13.4182145 Z M47.4949219,9.93048197 C47.4949219,9.64311506 47.4613484,9.36965169 47.3947334,9.11132109 C47.3367774,8.87165657 47.2351456,8.6450508 47.0951551,8.44302591 C46.9668621,8.26081947 46.8011978,8.10887834 46.6094799,7.99749581 C46.4189013,7.88726552 46.195357,7.83157425 45.9381633,7.83157425 C45.6815774,7.83157425 45.4574254,7.88726552 45.2669228,7.99695811 C45.0764202,8.10718839 44.9144778,8.25590327 44.7817792,8.44248821 C44.6414849,8.64435943 44.5397012,8.87104209 44.4816693,9.11070651 C44.4136869,9.37848549 44.3800376,9.6540228 44.3814048,9.93048197 C44.3814048,10.2272972 44.4144465,10.5029113 44.4816693,10.7568634 C44.5477527,11.0108157 44.6457385,11.2335807 44.7746392,11.4251586 C44.9029322,11.6167365 45.0647986,11.7682168 45.2597827,11.8779094 C45.4552226,11.9881397 45.6815774,12.0432933 45.9381633,12.0432933 C46.195357,12.0432933 46.4189013,11.9876019 46.6094799,11.8779094 C46.7999825,11.7682168 46.9618489,11.6167365 47.0951551,11.4251586 C47.2283854,11.2335807 47.3280422,11.0108157 47.3947334,10.7568634 C47.4608168,10.5029113 47.4949219,10.2278349 47.4949219,9.93048197 Z M49.2372457,9.93716486 C49.2372457,10.3865358 49.1678202,10.8281483 49.0296526,11.2625402 C48.8919408,11.696932 48.6870822,12.0861563 48.4156084,12.4297522 C48.1371465,12.7794165 47.7862207,13.0630195 47.3875173,13.2606658 C46.9734704,13.4706027 46.489922,13.57584 45.9381633,13.57584 C45.385873,13.57584 44.9029322,13.4706027 44.4888094,13.2606658 C44.090182,13.0630195 43.7392561,12.7794165 43.4607183,12.4297522 C43.1871177,12.0819315 42.9790688,11.6863315 42.84675,11.2625402 C42.7095699,10.8344472 42.6396886,10.3871503 42.6396886,9.93716486 C42.6396886,9.48886946 42.7085065,9.04948457 42.84675,8.61954806 C42.9792207,8.20028883 43.1874215,7.80937457 43.4607183,7.46680033 C43.7399398,7.12140695 44.0909415,6.84247438 44.4888094,6.64985175 C44.9029322,6.44491558 45.3864047,6.34189059 45.9381633,6.34189059 C46.4905297,6.34189059 46.9712676,6.44491558 47.3809089,6.64985175 C47.7771817,6.8449248 48.1276517,7.12325053 48.4090001,7.46624726 C48.6843477,7.80591787 48.8919408,8.19022599 49.0296526,8.61954806 C49.1672885,9.04948457 49.2372457,9.48833169 49.2372457,9.93716486 Z M54.5555947,8.03313822 C54.2146954,7.89894148 53.8975709,7.83157425 53.6040693,7.83157425 C53.3011489,7.83157425 53.040689,7.88949317 52.822082,8.00417877 C52.6086401,8.11533085 52.4239103,8.27526079 52.2824007,8.47144767 C52.1387642,8.67132171 52.030676,8.89500849 51.9630733,9.13244537 C51.8919767,9.37748691 51.8567322,9.62805917 51.8567322,9.88700434 C51.8567322,10.1743713 51.8875711,10.4500623 51.949249,10.7140004 C52.0109269,10.9774009 52.1051147,11.2073865 52.2328761,11.4039575 C52.3611691,11.5999908 52.521972,11.758154 52.7163486,11.8779094 C52.9101933,11.997588 53.1403459,12.0571969 53.4046796,12.0571969 C53.622755,12.0571969 53.8452358,11.997588 54.072654,11.8779094 C54.3000721,11.758154 54.4608752,11.6167365 54.5555947,11.4541181 L54.5555947,8.03313822 Z M54.6987755,13.4182145 L54.6271472,12.8881105 C54.4652807,13.0696256 54.2521426,13.2300165 53.9867455,13.3681308 C53.7208167,13.5067828 53.4074141,13.57584 53.0467657,13.57584 C52.5726361,13.57584 52.1546393,13.4755957 51.7945227,13.2751071 C51.4369884,13.0776144 51.1260166,12.8040743 50.8831789,12.4732298 C50.6287957,12.1234119 50.438369,11.7303467 50.320938,11.3126239 C50.1917336,10.8658647 50.1270173,10.4025903 50.1286968,9.93716486 C50.1286968,9.48886946 50.1948479,9.04948457 50.3280781,8.61954806 C50.4556875,8.20005838 50.6608499,7.80891368 50.9327795,7.46680033 C51.2093425,7.12279731 51.5567742,6.84398765 51.9509201,6.64985175 C52.3584346,6.44491558 52.8375015,6.34189059 53.3881967,6.34189059 C53.7493769,6.34189059 54.1375981,6.4087201 54.5555947,6.54069687 L54.5555947,3.86375229 L56.3265547,3.86375229 L56.3265547,13.4182145 L54.6987755,13.4182145 Z M61.3112204,10.1810542 C61.1142614,10.1911171 60.9177581,10.207786 60.7219385,10.2312147 C60.5209537,10.2551044 60.3293118,10.2862915 60.1470886,10.3241616 C59.7638047,10.4004393 59.4978759,10.5318708 59.3491501,10.7184557 C59.2005004,10.9044261 59.1266692,11.1071423 59.1266692,11.3266043 C59.1266692,11.5559755 59.2103749,11.7397951 59.378318,11.8784471 C59.5457294,12.0170991 59.783098,12.0861563 60.0898163,12.0861563 C60.3194373,12.0861563 60.5424498,12.0383002 60.7577907,11.9430489 C60.9609783,11.8559402 61.1482146,11.7348789 61.3117521,11.5849349 L61.3112204,10.1810542 Z M61.4544012,13.4115315 L61.3827728,12.8964066 C61.1916626,13.1080334 60.9477616,13.2751071 60.6520572,13.3954003 C60.3416169,13.5183819 60.0106681,13.5796808 59.6773645,13.57584 C59.3811285,13.57584 59.0969697,13.5256794 58.8243565,13.425512 C58.5587316,13.3291085 58.3133114,13.1833126 58.1007809,12.9955755 C57.8865795,12.8039975 57.7134713,12.570171 57.5919385,12.3083836 C57.4631138,12.0360726 57.3992332,11.7281191 57.3992332,11.3839087 C57.3992332,11.0403128 57.4653166,10.7373523 57.5996862,10.4745663 C57.7335242,10.2122413 57.9146839,9.99001397 58.1443049,9.80849889 C58.3834965,9.62152989 58.6491215,9.47189323 58.9322928,9.36465874 C59.2339978,9.24866726 59.5459573,9.16232657 59.8640692,9.10686574 C60.0930825,9.05893286 60.3441995,9.02329046 60.6162809,8.99932406 C60.8888181,8.97543437 61.1157046,8.9536956 61.2973961,8.93472214 L61.2973961,8.83447791 C61.2973961,8.45247423 61.1988786,8.18070087 61.002831,8.01808238 C60.8067835,7.85554071 60.5363732,7.77419305 60.1922076,7.77419305 C59.9906911,7.77419305 59.7995809,7.79869721 59.6184212,7.84663011 C59.436198,7.89394847 59.2731922,7.95348051 59.1300114,8.02476533 C58.9862989,8.09720238 58.859601,8.1684872 58.7500696,8.23977201 C58.6399306,8.31159453 58.5512117,8.37619641 58.4840649,8.4335776 L57.8987328,7.18724555 C58.008568,7.09658017 58.1255432,7.01501744 58.2483673,6.94332549 C58.4311981,6.83536894 58.6221565,6.74208416 58.8194193,6.66433148 C59.0435712,6.57355856 59.2957517,6.49726537 59.5765683,6.43489115 C59.8747033,6.37104976 60.178763,6.33987033 60.4835064,6.34189059 C60.8635242,6.34189059 61.2114876,6.39201272 61.5259536,6.49224931 C61.8398119,6.59249359 62.1112857,6.75008834 62.3398432,6.96448818 C62.5684008,7.17944877 62.74675,7.45120677 62.875119,7.78033829 C63.0039437,8.10887834 63.0678244,8.50762779 63.0678244,8.97481989 L63.0678244,13.4115315 L61.4544012,13.4115315 Z M68.5392287,5.43973821 C68.4300771,5.39173618 68.3178112,5.35100091 68.2033426,5.31777819 C68.0365388,5.2654284 67.8156531,5.23925735 67.539242,5.23925735 C67.2914671,5.23925735 67.0849374,5.31332289 66.9181337,5.46090089 C66.7517858,5.60903197 66.6680801,5.85071669 66.6680801,6.18429583 L66.6680801,6.51397275 L68.1538179,6.51397275 L68.1538179,7.94625985 L66.6824362,7.94625985 L66.6824362,13.4182145 L64.9120079,13.4182145 L64.9120079,7.94625985 L63.9979297,7.94625985 L63.9979297,6.51397275 L64.9120079,6.51397275 L64.9120079,6.14140972 C64.9120079,5.69256118 64.9687484,5.31332289 65.0826854,5.002581 C65.19723,4.69239987 65.3569697,4.43956922 65.5618282,4.24354365 C65.7672945,4.0472646 66.0138542,3.90032416 66.2832011,3.81363015 C66.5739681,3.72067567 66.8774962,3.67481679 67.1823915,3.67775115 C67.6108704,3.67775115 67.9654422,3.71840193 68.2463347,3.79915042 C68.5271513,3.88045966 68.6912206,3.93559017 68.7386183,3.96398888 L68.5392287,5.43973821 Z M73.3652941,9.93048197 C73.3652941,9.64311506 73.3322523,9.36965169 73.2661689,9.11132109 C73.2080611,8.87165657 73.1062774,8.644974 72.966059,8.44302591 C72.837842,8.26081947 72.6721777,8.10887834 72.4803838,7.99749581 C72.2898812,7.88726552 72.0663369,7.83157425 71.8091432,7.83157425 C71.5519495,7.83157425 71.3284052,7.88726552 71.1379027,7.99695811 C70.9473241,8.10718839 70.7854577,8.25590327 70.6527591,8.44248821 C70.5123888,8.64435943 70.4106051,8.87096529 70.3526492,9.11070651 C70.2845908,9.37848549 70.2509415,9.6540228 70.2523847,9.93048197 C70.2523847,10.2272972 70.2854264,10.5029113 70.3526492,10.7568634 C70.4187326,11.0108157 70.5167184,11.2335807 70.6455431,11.4251586 C70.773912,11.6167365 70.9357785,11.7682168 71.1306866,11.8779094 C71.3262025,11.9881397 71.5519495,12.0432933 71.8091432,12.0432933 C72.0663369,12.0432933 72.2898812,11.9876019 72.4803838,11.8779094 C72.6709623,11.7682168 72.8328287,11.6167365 72.966059,11.4251586 C73.0993652,11.2335807 73.1990221,11.0108157 73.2656373,10.7568634 C73.3317206,10.5029113 73.3659018,10.2278349 73.3659018,9.93048197 L73.3652941,9.93048197 Z M75.107618,9.93716486 C75.107618,10.3865358 75.0388,10.8281483 74.9005565,11.2625402 C74.7629206,11.696932 74.5580621,12.0861563 74.2865882,12.4297522 C74.0081263,12.7794165 73.6571246,13.0630195 73.2584972,13.2606658 C72.8443743,13.4706027 72.3609019,13.57584 71.8091432,13.57584 C71.2568529,13.57584 70.773912,13.4706027 70.3597893,13.2606658 C69.9610859,13.0630195 69.61016,12.7794165 69.3316981,12.4297522 C69.0580976,12.0819315 68.8499727,11.6863315 68.7176539,11.2625402 C68.5804738,10.8344472 68.5106685,10.3871503 68.5105925,9.93716486 C68.5105925,9.48886946 68.5794864,9.04948457 68.7176539,8.61954806 C68.8502006,8.20028883 69.0584014,7.80937457 69.3316981,7.46680033 C69.6108437,7.12138391 69.9618454,6.84244365 70.3597893,6.64985175 C70.773912,6.44491558 71.2573845,6.34189059 71.8091432,6.34189059 C72.3614336,6.34189059 72.8421715,6.44491558 73.2518888,6.64985175 C73.6480856,6.8449248 73.9986316,7.12325053 74.2799799,7.46624726 C74.5553275,7.80591787 74.7629206,8.19022599 74.9005565,8.61954806 C75.0382683,9.04948457 75.107618,9.48833169 75.107618,9.93716486 Z M80.6043162,13.4182145 L80.6043162,9.4788066 C80.6043162,8.95423329 80.4949368,8.5482632 80.2754183,8.26151081 C80.0574189,7.97521931 79.7528275,7.83157425 79.3616439,7.83157425 C79.0859164,7.83157425 78.8314573,7.90339678 78.5975067,8.04650413 C78.3650754,8.18961147 78.1630272,8.34723694 77.9906026,8.51984145 L77.9906026,13.4182145 L76.2207819,13.4182145 L76.2207819,6.51397275 L77.8341292,6.51397275 L77.9199617,7.0580495 C78.1987274,6.82746463 78.5147126,6.64820789 78.8550042,6.52844479 C79.191498,6.40610837 79.5469813,6.34301209 79.9047434,6.34189059 C80.2663033,6.34189059 80.5997588,6.39758185 80.9043502,6.50672904 C81.208182,6.61643699 81.4702371,6.79073912 81.6897556,7.02964311 C81.9085145,7.26799404 82.0771412,7.57873593 82.1963952,7.96077799 C82.3156492,8.34278164 82.375656,8.80106314 82.375656,9.336237 L82.375656,13.4182145 L80.6043162,13.4182145 Z M87.8841281,9.13521069 C87.8704554,8.92012723 87.8195638,8.70911494 87.7337313,8.51208309 C87.6623306,8.34992549 87.5597873,8.20374553 87.4321777,8.08214654 C87.3190007,7.97683244 87.1875929,7.89425573 87.0440325,7.83879492 C86.9088274,7.78717488 86.7652669,7.76051989 86.6209464,7.76028944 C86.3140764,7.76028944 86.0223982,7.87497503 85.7451515,8.10388533 C85.4671453,8.33333333 85.3045952,8.67692923 85.2567417,9.13521069 L87.8841281,9.13521069 Z M85.2134457,10.4105022 C85.2521843,10.9924567 85.4337238,11.4128681 85.7588239,11.6707379 C86.0839244,11.9285308 86.5039713,12.0571969 87.0197262,12.0571969 C87.4412931,12.0593477 87.8598209,11.981764 88.2532834,11.8283634 C88.4150738,11.7615339 88.5540771,11.6947043 88.668774,11.6278749 C88.7622019,11.5765621 88.8487943,11.5139574 88.9270305,11.4412899 L89.39797,12.8886482 C89.1298381,13.0722374 88.8366408,13.2146534 88.5267326,13.3112873 C88.3079732,13.3825721 88.0504758,13.4444086 87.7557585,13.4973345 C87.4610421,13.5491082 87.1367013,13.5759245 86.7842568,13.5759245 C86.3497772,13.577914 85.9175758,13.5052465 85.5066435,13.3609101 C85.1078641,13.2212595 84.7447851,12.9938086 84.4432319,12.6948426 C84.1378809,12.3941097 83.895575,12.0193268 83.7147951,11.5699559 C83.5332555,11.1216604 83.4428655,10.5870243 83.4428655,9.96612437 C83.4428655,9.38363211 83.5264193,8.8678926 83.6927672,8.41905947 C83.8591152,7.9702263 84.0877487,7.59321565 84.3786676,7.28748214 C84.6650291,6.98508243 85.0098784,6.74613234 85.3919469,6.58581063 C85.7838898,6.42214745 86.2039377,6.33922509 86.6277828,6.34176886 C87.0653006,6.34176886 87.4701566,6.41372847 87.841591,6.55685118 C88.2099872,6.69849903 88.5404044,6.92677943 88.8047381,7.22288796 C89.0766682,7.52360541 89.2908694,7.91345961 89.4481026,8.39063772 C89.6053357,8.8678926 89.6835719,9.43594354 89.6835719,10.0947135 L89.6835719,10.4099645 L85.2134457,10.4105022 Z M40.004175,26.0233365 C40.4799757,25.8240003 40.8918198,25.4463751 41.2382641,24.8900769 C41.5851642,24.3337789 41.7580445,23.6571108 41.7580445,22.859151 C41.7578926,22.2926365 41.6617297,21.7304235 41.4738858,21.196786 C41.2938654,20.6671429 40.954637,20.2077092 40.5035986,19.882549 C40.0460278,19.549016 39.516297,19.3819422 38.9154694,19.3819422 C38.6748346,19.3819422 38.4275914,19.4097495 38.1737399,19.4654407 C37.9193567,19.5211319 37.6583651,19.6136179 37.3901575,19.743897 L37.3901575,16.8921202 L36.3780176,16.8921202 L36.3780176,25.8217726 C36.6368064,25.9426035 36.9562096,26.0556759 37.335088,26.1625263 C37.7139664,26.2694535 38.1434326,26.3229171 38.6247783,26.3229171 C39.0686007,26.3229171 39.5278426,26.2226729 40.004175,26.0238742 L40.004175,26.0233365 Z M37.9171539,25.405202 C37.7358422,25.363107 37.5593159,25.3024995 37.3901575,25.2242246 L37.3901575,20.6755926 C37.5993458,20.5284909 37.8314733,20.4179533 38.0768176,20.3486657 C38.3026406,20.2885191 38.5229187,20.2584843 38.7354491,20.2584843 C39.0218106,20.2584843 39.3224522,20.3397551 39.6369182,20.5012982 C39.9507766,20.6638399 40.2189082,20.9445238 40.4408574,21.3432733 C40.6628065,21.7420227 40.774009,22.2381742 40.774009,22.8318047 C40.774009,23.6387519 40.5702897,24.2803153 40.1638386,24.7581079 C39.7569319,25.2353628 39.1974254,25.4742591 38.4854714,25.4742591 C38.3004378,25.4742591 38.1109987,25.4508303 37.9171539,25.405202 Z M46.5698298,26.1419397 C46.8682686,26.0198031 47.1483257,25.8559555 47.4018733,25.6552365 L47.471223,26.1698238 L48.4140133,26.1698238 L48.4140133,19.5356501 L47.3743006,19.5356501 L47.3743006,24.7241554 C47.1705814,24.9279471 46.9095898,25.1017038 46.5907182,25.2453489 C46.2882536,25.3855371 45.9597354,25.4591265 45.6270395,25.4614309 C45.1276159,25.4614309 44.751472,25.3289241 44.4965571,25.0649091 C44.2420979,24.8004333 44.115476,24.3761043 44.115476,23.7919221 L44.115476,19.5356501 L43.1028044,19.5356501 L43.1028044,23.7362308 C43.1028044,24.6077031 43.2878379,25.2564871 43.6578292,25.6836583 C44.0273647,26.1102149 44.6287239,26.3235316 45.4607676,26.3235316 C45.9040582,26.3235316 46.2741254,26.2627706 46.5698298,26.1424774 L46.5698298,26.1419397 Z M52.9553123,26.1419397 C53.3014527,26.0218771 53.6052846,25.8019542 53.8292846,25.5093638 C54.0643746,25.2080933 54.182793,24.8204821 54.182793,24.3476825 C54.182793,23.8097433 54.0275349,23.3904073 53.7180062,23.0891367 C53.4080218,22.7884039 52.9619206,22.5305342 52.3799306,22.3172943 C51.3628535,21.9463521 50.8545428,21.5470649 50.8545428,21.1210459 C50.8545428,20.8983577 50.9399196,20.6944893 51.1105971,20.5085188 C51.2813506,20.3230862 51.5621672,20.2300625 51.9498567,20.2300625 C52.2918195,20.2300625 52.6012722,20.2907468 52.8788226,20.4110399 C53.1559173,20.5317939 53.409541,20.7014794 53.6276922,20.9122613 L54.0572345,20.1471017 C53.835893,19.933785 53.5489997,19.75058 53.1982259,19.5974097 C52.8457809,19.4443164 52.4255814,19.3680386 51.9360323,19.3680386 C51.3165951,19.3680386 50.81983,19.5372633 50.4454332,19.8758661 C50.0709604,20.2144689 49.883724,20.6521639 49.883724,21.1901031 C49.883724,21.6539921 50.0131564,22.0271619 50.2719452,22.309459 C50.530734,22.5929084 50.9745564,22.8502404 51.6034883,23.0818393 C52.693789,23.5084727 53.239471,23.9533883 53.239471,24.4172774 C53.239471,24.7792322 53.1304713,25.0432472 52.9134594,25.2103209 C52.6965235,25.3773179 52.3749175,25.4608932 51.9498567,25.4608932 C51.5335311,25.4608932 51.1712115,25.3790079 50.8611512,25.2170039 C50.5862592,25.0781214 50.3279262,24.907975 50.0913172,24.7096373 L49.7312004,25.5717381 C49.8049556,25.6457882 49.9437308,25.7431903 50.1469184,25.8640979 C50.3507136,25.9843911 50.6050968,26.0912415 50.910144,26.1837274 C51.2146595,26.276751 51.5616355,26.3229171 51.9498567,26.3229171 C52.292579,26.3194605 52.632415,26.2583153 52.9553123,26.1419397 L52.9553123,26.1419397 Z M55.3749533,26.1698238 L56.4008416,26.1698238 L56.4008416,19.5344979 L55.3749533,19.5344979 L55.3749533,26.1698238 Z M56.3590647,18.1929914 C56.4889529,18.0766158 56.5534412,17.9078521 56.5534412,17.685087 C56.5534412,17.4717703 56.4889529,17.3047733 56.3590647,17.1838657 C56.2311516,17.0643407 56.062373,16.9995852 55.8882013,17.0035028 C55.7031677,17.0035028 55.5435041,17.0635725 55.4091344,17.1844802 C55.2752965,17.3047733 55.2086813,17.4717703 55.2086813,17.685087 C55.2086813,17.9078521 55.2752965,18.0766158 55.4091344,18.1929914 C55.5435041,18.3088292 55.7031677,18.3667481 55.8882013,18.3667481 C56.0727032,18.3667481 56.2296324,18.3088292 56.3590647,18.1929914 Z M59.0903614,26.1698238 L59.0903614,20.9674149 C59.3216534,20.7825199 59.5947222,20.6132184 59.9086566,20.4605859 C60.2153748,20.3087985 60.5523244,20.2299857 60.8937555,20.2300625 C61.429563,20.2300625 61.8155813,20.3882257 62.0512788,20.7033999 C62.2875081,21.018574 62.4047872,21.4546558 62.4047872,22.0109539 L62.4047872,26.1698238 L63.4169271,26.1698238 L63.4169271,22.0388379 C63.4169271,21.1483923 63.2413124,20.4806348 62.8905384,20.0357193 C62.5386252,19.5901891 61.9290625,19.3680386 61.0601033,19.3680386 C60.6806934,19.3680386 60.3205006,19.4331782 59.9780062,19.5629196 C59.6543492,19.6828287 59.3505933,19.8518229 59.0771447,20.064141 L59.0077191,19.5350355 L58.0787532,19.5350355 L58.0787532,26.1698238 L59.0903614,26.1698238 Z M69.1229657,26.1141325 C69.5436969,25.974866 69.8553524,25.8033369 70.0590716,25.5995452 L69.7958773,24.7235409 C69.5464313,24.9368577 69.2639436,25.112842 68.9500853,25.2514941 C68.6356193,25.3906838 68.2749709,25.4608932 67.8679881,25.4608932 C67.1840626,25.4608932 66.6620034,25.2242246 66.301355,24.7508872 C65.9406307,24.2780876 65.7606103,23.6243106 65.7606103,22.7894793 L70.3366221,22.7894793 C70.3366221,22.2888725 70.2551191,21.7648369 70.0943161,21.2179871 C69.9439953,20.68796 69.6305168,20.2202301 69.1995312,19.882549 C68.76452,19.5394909 68.2192937,19.3680386 67.5629409,19.3680386 C67.1284613,19.3680386 66.6945135,19.474889 66.2595022,19.6882058 C65.8244909,19.9015225 65.4671087,20.2857538 65.1856844,20.8420519 C64.902665,21.3989645 64.7616871,22.0571968 64.7616871,22.8179011 C64.7616871,23.9583813 65.0397691,24.8277027 65.5942623,25.4252508 C66.1488314,26.0238742 66.8971694,26.3229171 67.8404913,26.3229171 C68.2755026,26.3229171 68.7028421,26.2533223 69.1229657,26.1141325 L69.1229657,26.1141325 Z M66.4814514,20.6132184 C66.7870302,20.3486657 67.147147,20.2166967 67.5629409,20.2166967 C67.7485062,20.2166967 67.9698477,20.2701603 68.2292442,20.3765498 C68.488033,20.4828625 68.7072477,20.6755926 68.8877998,20.9539721 C69.0684278,21.2324284 69.1670213,21.5610453 69.1851752,21.941359 L65.8575326,21.941359 C65.9687351,21.3204591 66.1768599,20.8771566 66.4814514,20.6132184 L66.4814514,20.6132184 Z M74.4892441,26.1419397 C74.8353086,26.0220307 75.1389126,25.802031 75.3626089,25.5093638 C75.5988382,25.2080933 75.7166489,24.8204821 75.7166489,24.3476825 C75.7166489,23.8097433 75.5613908,23.3904073 75.2519381,23.0891367 C74.9424094,22.7884039 74.4963842,22.5305342 73.9137865,22.3172943 C72.8972411,21.9463521 72.3883987,21.5470649 72.3883987,21.1210459 C72.3883987,20.8983577 72.4737754,20.6944893 72.6450607,20.5085188 C72.8157381,20.3230862 73.096023,20.2300625 73.4842443,20.2300625 C73.8262071,20.2300625 74.1357358,20.2907468 74.4132102,20.4110399 C74.6902289,20.5318707 74.9396748,20.6984068 75.1621557,20.9122613 L75.5916981,20.1471017 C75.3697489,19.933785 75.0833873,19.75058 74.7320817,19.5974097 C74.3802444,19.4443164 73.9600449,19.3680386 73.4704958,19.3680386 C72.850451,19.3680386 72.3542935,19.5372633 71.9798207,19.8758661 C71.6054239,20.2144689 71.4181876,20.6521639 71.4181876,21.1901031 C71.4181876,21.6539921 71.547544,22.0271619 71.8058011,22.309459 C72.0646658,22.5929084 72.5090199,22.8502404 73.1373442,23.0818393 C74.2276449,23.5084727 74.7739346,23.9533883 74.7739346,24.4172774 C74.7739346,24.7792322 74.6649349,25.0432472 74.447923,25.2103209 C74.2304553,25.3773179 73.909381,25.4608932 73.4842443,25.4608932 C73.0679946,25.4608932 72.7050674,25.3790079 72.3956147,25.2170039 C72.1206468,25.0781214 71.8623897,24.907975 71.6257807,24.7096373 L71.2656639,25.5717381 C71.3388874,25.6457882 71.4781943,25.7431903 71.6813819,25.8640979 C71.8851012,25.9843911 72.1389527,26.0912415 72.4440759,26.1837274 C72.7491231,26.276751 73.096023,26.3229171 73.4842443,26.3229171 C73.8075214,26.3229171 74.1428758,26.2622329 74.4892441,26.1419397 L74.4892441,26.1419397 Z M79.7725765,26.1419397 C80.1181853,26.0221075 80.4220171,25.8021846 80.6453335,25.5093638 C80.8815628,25.2080933 81.0000573,24.8204821 81.0000573,24.3476825 C81.0000573,23.8097433 80.8443434,23.3904073 80.5351945,23.0891367 C80.225286,22.7884039 79.7794127,22.5305342 79.1968151,22.3172943 C78.1797379,21.9463521 77.6715791,21.5470649 77.6715791,21.1210459 C77.6715791,20.8983577 77.756652,20.6944893 77.9283171,20.5085188 C78.0992225,20.3230862 78.3787478,20.2300625 78.766893,20.2300625 C79.1087038,20.2300625 79.4186124,20.2907468 79.6966185,20.4110399 C79.9731055,20.5318707 80.2230072,20.6984068 80.4455641,20.9122613 L80.8747266,20.1471017 C80.6529293,19.933785 80.3665678,19.75058 80.0148824,19.5974097 C79.663197,19.4443164 79.2431495,19.3680386 78.7532206,19.3680386 C78.1334035,19.3680386 77.6366385,19.5372633 77.2621657,19.8758661 C76.8876929,20.2144689 76.7008363,20.6521639 76.7008363,21.1901031 C76.7008363,21.6539921 76.8307244,22.0271619 77.0889815,22.309459 C77.3479981,22.5929084 77.7915927,22.8502404 78.4197651,23.0818393 C79.5112811,23.5084727 80.0574189,23.9533883 80.0574189,24.4172774 C80.0574189,24.7792322 79.9480394,25.0432472 79.7307996,25.2103209 C79.5135598,25.3773179 79.1922577,25.4608932 78.7676526,25.4608932 C78.3514029,25.4608932 77.9883239,25.3790079 77.6784153,25.2170039 C77.4034475,25.0781982 77.1451904,24.907975 76.9089612,24.7096373 L76.5489203,25.5717381 C76.62184,25.6457882 76.7616027,25.7431903 76.9644105,25.8640979 C77.1672182,25.9843911 77.422437,26.0912415 77.7270285,26.1837274 C78.0323795,26.276751 78.3787478,26.3229171 78.766893,26.3229171 C79.1094635,26.3195373 79.4497552,26.2583921 79.7725765,26.1419397 L79.7725765,26.1419397 Z" id="Shape"></path>
        </g>
    </g>
</svg>