<?xml version="1.0" encoding="UTF-8"?>
<svg width="60px" height="60px" viewBox="0 0 60 60" version="1.1" xmlns="http://www.w3.org/2000/svg" xmlns:xlink="http://www.w3.org/1999/xlink">
    <title>vodafone</title>
    <g id="vodafone" stroke="none" stroke-width="1" fill="none" fill-rule="evenodd">
        <g id="Group-17">
            <path d="M60,30.0005085 C60,46.5691525 46.5682896,60 30.0005044,60 C13.4315087,60 0,46.5678814 0,30.0005085 C0,13.4309746 13.4315087,0 30.0005044,0 C46.5682896,0 59.9987391,13.4320932 59.9987391,30.0005085" id="Path" fill="#E60000"></path>
            <path d="M29.8616949,45.7747476 C21.7226316,45.8020616 13.2528814,38.9098859 13.215665,27.8443999 C13.1917648,20.5268737 17.1718879,13.4820062 22.2605022,9.3033165 C27.2225251,5.22718506 34.0220547,2.61194881 40.1862608,2.59117487 C40.9807264,2.58903632 41.8108059,2.65451124 42.3193635,2.82471117 C36.9274576,3.93429817 32.6373435,8.91054168 32.6560221,14.5566766 C32.6560221,14.7432639 32.6734556,14.9429263 32.6918852,15.036743 C41.7136769,17.2155462 45.8085368,22.614027 45.8335212,30.0855898 C45.8585956,37.5558077 39.9125562,45.7420408 29.8629402,45.7747476" id="Path" fill="#F4F4F4"></path>
        </g>
    </g>
</svg>