<svg width="256" height="36" viewBox="0 0 2386 358" fill="none" xmlns="http://www.w3.org/2000/svg">
<path fill-rule="evenodd" clip-rule="evenodd" d="M1378.16 357.745V0.983398H1391.26V357.745H1378.16Z" fill="black"/>
<path d="M1695.62 214.331C1695.62 232.437 1688.69 247.251 1675.63 257.362C1664.23 266.18 1648.24 271 1630.72 271C1606.15 271 1581.93 261.712 1567.59 246.663L1567 246.075L1594.63 218.093L1595.22 218.799C1604.5 229.027 1618.73 235.964 1630.72 235.964C1639.07 235.964 1652.94 233.73 1652.94 218.681C1652.94 206.689 1641.07 202.809 1619.44 195.873L1618.97 195.755C1597.57 188.818 1575.58 177.649 1575.58 146.963C1575.58 110.164 1608.5 93.7041 1641.19 93.7041C1661.17 93.7041 1681.87 101.464 1696.56 114.514L1697.27 115.102L1670.23 143.671L1669.52 142.966C1662.35 134.501 1650.71 128.858 1640.48 128.858C1635.19 128.858 1618.03 130.033 1618.03 144.73C1618.03 155.076 1627.08 158.485 1643.07 163.423C1665.29 170.36 1695.62 180.118 1695.62 214.331ZM2134.16 111.457C2134.16 114.396 2133.57 117.101 2132.4 119.57C2131.22 122.039 2129.69 124.272 2127.81 126.036C2125.93 127.917 2123.58 129.328 2120.99 130.386C2118.29 131.444 2115.58 132.032 2112.64 132.032C2106.53 132.032 2101.47 130.033 2097.36 126.036C2093.24 122.039 2091.25 117.218 2091.25 111.575C2091.25 108.871 2091.83 106.167 2092.89 103.698C2093.95 101.229 2095.48 98.9948 2097.48 97.2312C2099.48 95.3501 2101.71 93.9393 2104.3 92.7636C2106.88 91.5879 2109.7 91 2112.76 91C2115.7 91 2118.4 91.5878 2121.11 92.646C2123.81 93.7041 2126.05 95.115 2127.93 96.9961C2129.81 98.8772 2131.34 100.993 2132.51 103.462C2133.57 105.814 2134.16 108.518 2134.16 111.457ZM2380.59 180.471C2383.53 188.466 2385.05 197.519 2385.05 207.747C2385.05 209.393 2385.05 210.922 2385.05 212.568C2385.05 214.214 2384.94 215.624 2384.82 217.153H2298.29C2298.64 220.562 2299.58 223.502 2301.23 226.206C2302.87 228.91 2305.11 231.261 2307.69 233.26C2310.28 235.259 2313.34 236.787 2316.51 237.963C2319.8 239.138 2323.21 239.609 2326.74 239.609C2332.97 239.609 2338.26 238.433 2342.49 236.082C2346.84 233.73 2350.37 230.791 2353.07 227.146L2380.35 244.429C2374.71 252.541 2367.42 258.89 2358.25 263.24C2349.08 267.59 2338.38 269.824 2326.27 269.824C2317.33 269.824 2308.87 268.413 2300.87 265.592C2292.88 262.77 2285.94 258.773 2279.95 253.364C2273.95 248.074 2269.25 241.372 2265.84 233.613C2262.43 225.735 2260.66 216.8 2260.66 206.807C2260.66 197.048 2262.31 188.231 2265.72 180.353C2269.13 172.476 2273.6 165.775 2279.36 160.249C2285.12 154.723 2291.94 150.491 2299.7 147.434C2307.57 144.377 2316.04 142.848 2325.09 142.848C2333.91 142.848 2341.91 144.377 2349.31 147.316C2356.6 150.255 2362.95 154.488 2368.24 160.131C2373.53 165.657 2377.65 172.476 2380.59 180.471ZM2348.84 192.698C2348.84 186.467 2346.84 181.176 2342.96 176.709C2339.08 172.241 2333.21 170.007 2325.33 170.007C2321.45 170.007 2318.04 170.595 2314.75 171.771C2311.57 172.946 2308.75 174.592 2306.4 176.709C2304.05 178.825 2302.05 181.176 2300.64 183.998C2299.23 186.82 2298.4 189.759 2298.29 192.698H2348.84ZM2228.92 181.882C2225.75 178.825 2221.98 176.238 2217.63 174.24C2213.28 172.123 2208.82 171.183 2204 171.183C2200.35 171.183 2196.94 171.888 2193.77 173.299C2190.71 174.71 2189.06 177.179 2189.06 180.706C2189.06 184.116 2190.83 186.467 2194.24 187.878C2197.65 189.289 2203.17 190.935 2210.93 192.698C2215.4 193.639 2219.87 195.05 2224.45 196.813C2229.04 198.577 2233.15 200.928 2236.8 203.75C2240.44 206.572 2243.38 210.099 2245.62 214.331C2247.85 218.446 2249.02 223.384 2249.02 229.145C2249.02 236.67 2247.5 243.018 2244.44 248.191C2241.38 253.364 2237.5 257.597 2232.56 260.771C2227.74 263.946 2222.22 266.297 2216.11 267.708C2209.99 269.119 2204 269.824 2197.88 269.824C2188.12 269.824 2178.6 268.296 2169.31 265.121C2160.02 262.065 2152.15 257.479 2145.92 251.366L2167.9 228.087C2171.43 231.967 2175.78 235.141 2180.83 237.61C2185.89 240.197 2191.42 241.49 2197.18 241.49C2200.35 241.49 2203.53 240.784 2206.58 239.256C2209.64 237.728 2211.28 235.024 2211.28 231.261C2211.28 227.617 2209.4 224.912 2205.52 223.149C2201.64 221.385 2195.65 219.504 2187.54 217.623C2183.42 216.683 2179.19 215.389 2175.07 213.743C2170.96 212.097 2167.2 209.981 2163.9 207.277C2160.61 204.573 2157.91 201.163 2155.91 197.166C2153.79 193.169 2152.85 188.348 2152.85 182.822C2152.85 175.651 2154.38 169.537 2157.44 164.481C2160.49 159.426 2164.37 155.311 2169.19 152.137C2174.02 148.962 2179.31 146.611 2185.07 145.082C2190.95 143.554 2196.71 142.848 2202.47 142.848C2211.4 142.848 2220.1 144.259 2228.69 147.081C2237.27 149.903 2244.44 154.018 2250.32 159.661L2228.92 181.882ZM2093.13 265.944V146.728H2132.4V265.944H2093.13V265.944ZM2074.67 179.06C2072.9 178.59 2071.14 178.237 2069.5 178.12C2067.85 178.002 2066.2 177.884 2064.56 177.884C2059.27 177.884 2054.8 178.825 2051.27 180.706C2047.63 182.587 2044.81 184.939 2042.69 187.643C2040.57 190.347 2038.93 193.286 2037.99 196.46C2037.05 199.635 2036.58 202.457 2036.58 204.808V265.944H1997.31V146.846H2035.16V164.129H2035.63C2038.69 158.015 2042.92 153.077 2048.57 149.197C2054.21 145.317 2060.68 143.436 2067.97 143.436C2069.61 143.436 2071.14 143.554 2072.67 143.671C2074.2 143.789 2075.37 144.024 2076.43 144.377L2074.67 179.06ZM1935.47 265.944V200.811C1935.47 197.401 1935.23 194.227 1934.64 191.287C1934.05 188.231 1933.11 185.526 1931.94 183.293C1930.64 180.941 1928.88 179.178 1926.53 177.767C1924.18 176.356 1921.36 175.768 1917.83 175.768C1914.3 175.768 1911.25 176.474 1908.66 177.767C1906.07 179.178 1903.84 181.059 1902.08 183.41C1900.31 185.762 1899.02 188.583 1898.08 191.64C1897.25 194.697 1896.78 197.989 1896.78 201.398V266.062H1857.28V146.728H1895.37V163.306H1895.84C1897.25 160.719 1899.14 158.25 1901.49 155.781C1903.84 153.312 1906.54 151.196 1909.6 149.432C1912.66 147.669 1916.07 146.258 1919.83 145.082C1923.47 144.024 1927.35 143.436 1931.59 143.436C1939.58 143.436 1946.4 144.847 1951.92 147.786C1957.57 150.608 1962.04 154.37 1965.45 158.956C1968.86 163.541 1971.32 168.714 1972.85 174.592C1974.38 180.471 1975.09 186.467 1975.09 192.346V266.062H1935.47V265.944ZM1794.62 265.944V249.367H1794.15C1792.73 252.071 1790.85 254.658 1788.5 257.009C1786.15 259.361 1783.45 261.477 1780.39 263.24C1777.33 265.004 1773.81 266.415 1770.04 267.59C1766.28 268.649 1762.28 269.236 1758.17 269.236C1750.17 269.236 1743.47 267.826 1737.95 264.886C1732.42 262.065 1727.95 258.302 1724.54 253.717C1721.13 249.132 1718.67 243.959 1717.14 238.198C1715.61 232.319 1714.9 226.441 1714.9 220.327V146.611H1754.41V211.274C1754.41 214.684 1754.64 217.858 1755.11 220.798C1755.58 223.854 1756.52 226.558 1757.82 228.91C1759.23 231.261 1760.99 233.142 1763.22 234.553C1765.46 235.964 1768.4 236.552 1772.04 236.552C1778.86 236.552 1784.15 233.965 1787.68 228.91C1791.32 223.854 1793.09 217.858 1793.09 210.922V146.493H1832.36V265.709H1794.62V265.944Z" fill="#E6023C"/>
<path d="M1202.16 87.4224H1173.94V267.507H1202.16V87.4224Z" fill="#FF7A00"/>
<path fill-rule="evenodd" clip-rule="evenodd" d="M1103.12 147.792C1077.07 147.792 1056.87 160.433 1053.46 186.242H1081.2C1083.16 176.51 1090.34 170.666 1103.12 170.666C1117.96 170.666 1124.78 179.181 1124.78 192.563V198.645H1096.3C1070.06 198.645 1050.67 210.332 1050.67 234.185C1050.67 258.037 1066.48 270.44 1089.36 270.44C1107.13 270.44 1118.82 262.879 1125.14 250.714H1126.35V267.411H1153.12V193.469C1153 164.942 1138.4 147.792 1103.12 147.792ZM1097.4 248.782C1086.45 248.782 1079.63 243.416 1079.63 234.471C1079.63 224.238 1086.93 218.895 1100.07 218.895H1124.64L1124.78 220.589C1124.78 238.287 1114.55 248.782 1097.4 248.782V248.782Z" fill="#FF7A00"/>
<path fill-rule="evenodd" clip-rule="evenodd" d="M1000.65 267.508V206.923C1000.65 188.914 1011.86 177.465 1029.61 177.465H1040.72V150.703H1029.28C1015.89 150.703 1006.16 155.807 1000.08 167.256H999.102V150.703H972.578V267.579L1000.65 267.508Z" fill="#FF7A00"/>
<path fill-rule="evenodd" clip-rule="evenodd" d="M954.665 241.724V267.508H935.44C908.416 267.508 893.579 254.986 893.579 227.961V173.888H874.354V150.703H893.579V119.695H921.821V150.703H954.665V173.888H921.821V224.693C921.821 235.403 928.141 241.724 938.851 241.724H954.665Z" fill="#FF7A00"/>
<path fill-rule="evenodd" clip-rule="evenodd" d="M781.879 267.507V199.861C781.879 183.308 792.111 172.479 808.641 172.479C824.455 172.479 833.948 181.614 833.948 199.504V267.507H862.213V194.995C862.213 165.538 847.902 147.792 818.659 147.792C800.865 147.792 787.269 155.806 781.187 166.754H780.185V150.702H753.733V267.578L781.879 267.507Z" fill="#FF7A00"/>
<path fill-rule="evenodd" clip-rule="evenodd" d="M678.121 247.328C660.351 247.328 648.425 235.402 647.948 216.654H734.341L734.222 207.519C734.222 168.353 708.914 147.888 678.002 147.888C644.608 147.888 620.208 171.74 620.208 209.212C620.208 246.684 642.843 270.537 678.002 270.537C707.436 270.537 726.66 254.961 732.266 232.087H704.883C701.854 240.864 694.412 247.328 678.121 247.328ZM678.002 171.263C696.487 171.263 707.435 181.734 708.175 196.332H647.829C650.5 181.496 659.492 171.263 678.002 171.263V171.263Z" fill="#FF7A00"/>
<path fill-rule="evenodd" clip-rule="evenodd" d="M535.747 270.68C577.846 270.68 601.698 247.328 607.304 212.647H578.681C574.435 228.461 562.914 243.059 535.747 243.059C507.768 243.059 485.37 223.977 485.37 182.211C485.37 140.446 507.768 121.412 535.747 121.412C563.725 121.412 574.936 136.009 578.681 151.585H607.304C602.676 116.904 579.182 94.3394 535.747 94.3394C489.02 94.3394 455.197 126.945 455.197 182.593C455.197 238.24 489.02 270.847 535.747 270.847V270.68Z" fill="#FF7A00"/>
<path fill-rule="evenodd" clip-rule="evenodd" d="M409.33 150.702V166.731H407.994C401.673 155.544 388.531 147.768 369.83 147.768C342.448 147.768 317.761 169.426 317.761 207.637C317.761 245.849 342.09 267.745 369.83 267.745C387.839 267.745 398.453 260.423 406.587 248.019H407.875V272.635C407.875 285.778 400.576 291.86 388.65 291.86H331.404V317H388.101C419.491 317 436.283 299.469 436.283 270.751V150.702H409.33ZM377.582 242.199C358.834 242.199 346.908 230.536 346.908 207.661C346.908 184.787 358.715 173.099 377.582 173.099C395.829 173.099 407.994 184.763 407.994 207.661C407.994 230.559 395.949 242.199 377.582 242.199Z" fill="#0684BC"/>
<path fill-rule="evenodd" clip-rule="evenodd" d="M220.229 267.506V199.861C220.229 183.308 230.462 172.479 247.015 172.479C262.829 172.479 272.322 181.614 272.322 199.503V267.506H300.54V194.995C300.54 165.538 286.228 147.792 256.985 147.792C239.215 147.792 225.477 155.806 219.394 166.754H218.416V150.701H192.012V267.578L220.229 267.506Z" fill="#0684BC"/>
<path d="M168.159 150.703H139.942V267.507H168.159V150.703Z" fill="#0684BC"/>
<path fill-rule="evenodd" clip-rule="evenodd" d="M90.7819 186.958V185.813C108.051 181.042 119.739 169.45 119.739 143.403C119.739 116.641 99.7743 97.1538 62.7793 97.1538H0V267.507H29.1952V199.862H64.7352C81.2887 199.862 89.5655 208.139 89.5655 224.692V267.626H118.761V224.692C118.761 200.601 108.528 190.87 90.7819 186.958ZM61.2051 173.577H29.1952V123.487H61.2051C77.0191 123.487 89.1838 130.07 89.1838 148.556C89.1838 167.041 76.8999 173.577 61.2051 173.577V173.577Z" fill="#0684BC"/>
<path fill-rule="evenodd" clip-rule="evenodd" d="M154.039 131.953C157.749 131.958 161.377 130.862 164.463 128.804C167.55 126.745 169.957 123.818 171.379 120.391C172.801 116.964 173.174 113.193 172.451 109.554C171.729 105.915 169.943 102.572 167.319 99.9486C164.696 97.3252 161.353 95.5392 157.714 94.8165C154.075 94.0939 150.304 94.4672 146.877 95.8891C143.45 97.3111 140.523 99.7177 138.464 102.804C136.406 105.891 135.31 109.519 135.315 113.229C135.283 116.943 136.366 120.581 138.424 123.672C140.482 126.764 143.421 129.167 146.859 130.57C149.133 131.515 151.576 131.986 154.039 131.953V131.953Z" fill="#FF7A00"/>
<path fill-rule="evenodd" clip-rule="evenodd" d="M132.524 61.2789C125.689 64.1398 119.482 68.3132 114.253 73.5628L127.491 86.8009C130.961 83.3109 135.085 80.5388 139.627 78.6428C144.169 76.7468 149.04 75.764 153.961 75.7508C158.883 75.7375 163.759 76.6939 168.311 78.5653C172.863 80.4367 177.002 83.1866 180.491 86.6578L193.729 73.4197C185.868 65.5748 175.859 60.2349 164.966 58.074C154.073 55.9132 142.784 57.0284 132.524 61.2789V61.2789Z" fill="#FF7A00"/>
</svg>
