<svg xmlns="http://www.w3.org/2000/svg" width="200" height="30" viewBox="0 0 200 30">
  <g fill="#FFF">
    <polygon points="115.567 30 115.567 0 116.666 0 116.666 30"/>
    <path d="M142.187875 17.940596C142.187875 19.4628224 141.606643 20.7080978 140.511204 21.5590193 139.555822 22.3005653 138.214286 22.7049537 136.745698 22.7049537 134.684874 22.7049537 132.654062 21.9242733 131.451581 20.658929L131.402561 20.6097602 133.719488 18.2566813 133.768507 18.3158845C134.546819 19.175837 135.740296 19.7598421 136.745698 19.7598421 137.445978 19.7598421 138.608443 19.5711944 138.608443 18.3058501 138.608443 17.2973877 137.613045 16.971268 135.79932 16.3882664L135.760304 16.3782319C133.965586 15.7952303 132.121849 14.8560056 132.121849 12.2751447 132.121849 9.18152323 134.881953 7.79676891 137.623049 7.79676891 139.298719 7.79676891 141.034414 8.45001171 142.266907 9.54677727L142.32593 9.59594608 140.059024 11.9981938 139.999 11.9389905C139.397759 11.2275479 138.421369 10.7529184 137.564026 10.7529184 137.119848 10.7529184 135.681273 10.8522594 135.681273 12.0875004 135.681273 12.9574874 136.440576 13.2444727 137.781112 13.659899 139.643858 14.2429006 142.187875 15.0637188 142.187875 17.940596zM178.961585 9.28989531C178.961585 9.53674282 178.912565 9.76452487 178.814526 9.97223802 178.715486 10.1799512 178.587435 10.3675954 178.429372 10.5161053 178.271309 10.6736462 178.07423 10.7930562 177.857143 10.8813593 177.631052 10.970666 177.403962 11.0198348 177.156863 11.0198348 176.644658 11.0198348 176.220488 10.8522594 175.876351 10.5161053 175.530212 10.1799512 175.363145 9.77455932 175.363145 9.29992976 175.363145 9.07214771 175.412165 8.8453691 175.5012 8.63765595 175.590236 8.4299428 175.718287 8.24229856 175.886355 8.09378867 176.053421 7.93524434 176.240496 7.81683781 176.457583 7.71850018 176.67467 7.61915911 176.910764 7.5699903 177.166867 7.5699903 177.413966 7.5699903 177.640056 7.61915911 177.867147 7.70846573 178.094238 7.79676891 178.281313 7.91617888 178.439376 8.07371977 178.597439 8.23226411 178.72549 8.4098739 178.823529 8.61758705 178.912565 8.81526575 178.961585 9.0430478 178.961585 9.28989531zM199.626851 15.0928187C199.872949 15.7651269 200 16.5267418 200 17.3866943L200 17.7920862C200 17.9305616 199.990996 18.0489681 199.980992 18.1774091L192.72509 18.1774091C192.754102 18.4643944 192.833133 18.7112419 192.971188 18.939024 193.109244 19.1658026 193.297319 19.3634813 193.513405 19.5320601 193.730492 19.6996354 193.986595 19.8280764 194.252701 19.9274175 194.528812 20.0257551 194.814926 20.0658929 195.111044 20.0658929 195.633253 20.0658929 196.076431 19.9665518 196.431573 19.7688731 196.796719 19.5711944 197.091837 19.3243469 197.318928 19.0182962L199.605842 20.4712847C199.133653 21.1536275 198.522409 21.6874603 197.753101 22.0527143 196.983794 22.4189718 196.086435 22.606616 195.071028 22.606616 194.321729 22.606616 193.612445 22.4882095 192.941176 22.250393 192.270908 22.01358 191.689676 21.6774258 191.187475 21.2228652 190.684274 20.7773355 190.290116 20.2144028 190.004002 19.5621634 189.717887 18.8988862 189.569828 18.1483092 189.569828 17.3074221 189.569828 16.486604 189.707883 15.7460615 189.993998 15.0827842 190.280112 14.4205104 190.654262 13.8575777 191.137455 13.3929826 191.620648 12.9283875 192.192877 12.5721644 192.843137 12.3152825 193.503401 12.0584005 194.213685 11.9299595 194.971989 11.9299595 195.712285 11.9299595 196.382553 12.0584005 197.003802 12.305248 197.615046 12.5520955 198.147259 12.9083186 198.590436 13.3829481 199.034614 13.8475432 199.379752 14.4205104 199.626851 15.0928187zM196.963786 16.12135C196.963786 15.5975516 196.796719 15.1520219 196.470588 14.7767335 196.145458 14.401445 195.653261 14.2127973 194.992997 14.2127973 194.666867 14.2127973 194.380752 14.2629695 194.105642 14.3613072 193.838535 14.4606482 193.602441 14.5991237 193.405362 14.7767335 193.208283 14.9543432 193.040216 15.1520219 192.922169 15.3898384 192.804122 15.6266515 192.734094 15.8745025 192.72509 16.12135L196.963786 16.12135zM186.907763 15.2122287C186.641657 14.9543432 186.32553 14.7375991 185.961385 14.5690203 185.596238 14.3914105 185.222089 14.3121383 184.817927 14.3121383 184.511805 14.3121383 184.226691 14.3713416 183.960584 14.4897481 183.703481 14.6091581 183.565426 14.8158678 183.565426 15.1128876 183.565426 15.3998729 183.713485 15.5975516 183.9996 15.7159581 184.285714 15.8343647 184.7489 15.9728401 185.39916 16.12135 185.77431 16.2006221 186.14946 16.3190287 186.533613 16.4675385 186.904762 16.6100278 187.253902 16.806703 187.569028 17.0505402 187.87415 17.2883567 188.120248 17.584373 188.308323 17.940596 188.495398 18.2867846 188.593437 18.7012075 188.593437 19.1858715 188.593437 19.8190454 188.466387 20.3528782 188.209284 20.78737 187.953181 21.2228652 187.627051 21.5780848 187.212885 21.8450012 186.808723 22.1119176 186.346539 22.3095963 185.833333 22.4290063 185.320128 22.5474128 184.817927 22.606616 184.304722 22.606616 183.486395 22.606616 182.688075 22.4781751 181.909764 22.2112587 181.130452 21.9543767 180.470188 21.5680503 179.947979 21.0542864L181.790716 19.0965649C182.086835 19.423688 182.451981 19.6906044 182.87515 19.8973141 183.29932 20.1150617 183.763505 20.2244372 184.246699 20.2244372 184.511805 20.2244372 184.778912 20.1642305 185.035014 20.0357895 185.291116 19.9073486 185.429172 19.68057 185.429172 19.3634813 185.429172 19.0574305 185.271108 18.8296485 184.945978 18.682142 184.620848 18.5336321 184.117647 18.3750878 183.438375 18.2175469 183.081232 18.1352644 182.732093 18.0268923 182.391957 17.8904238 182.047819 17.7519484 181.732693 17.5743386 181.455582 17.34756 181.179472 17.1197779 180.953381 16.8327926 180.785314 16.4966385 180.608243 16.1604843 180.529212 15.7550925 180.529212 15.2904974 180.529212 14.6874268 180.657263 14.1736629 180.914366 13.7482022 181.169468 13.3237449 181.494598 12.9775563 181.89876 12.7106399 182.303922 12.4437235 182.748099 12.2460448 183.231293 12.1176038 183.707483 11.9921731 184.197679 11.9289561 184.689876 11.9299478 185.439176 11.9299478 186.168467 12.0483661 186.888756 12.2851791 187.608043 12.5229956 188.209284 12.8691842 188.702481 13.3428103L186.907763 15.2122287zM175.521208 22.2804964L175.521208 12.2560792 178.814526 12.2560792 178.814526 22.2804964 175.521208 22.2804964zM173.973589 14.9744121C173.82453 14.9352778 173.677471 14.9051744 173.539416 14.89514 173.401361 14.8851055 173.263305 14.8750711 173.12525 14.8750711 172.682073 14.8750711 172.306923 14.9543432 172.010804 15.1128876 171.705682 15.2714319 171.469588 15.4691106 171.291517 15.6958892 171.113445 15.9236713 170.976391 16.1705188 170.897359 16.4374352 170.818327 16.7043516 170.779312 16.9421681 170.779312 17.1398468L170.779312 22.2804964 167.485994 22.2804964 167.485994 12.2661137 170.660264 12.2661137 170.660264 13.7191023 170.69928 13.7191023C170.956383 13.2043349 171.310524 12.789912 171.784714 12.4637924 172.257903 12.1366692 172.80012 11.9791283 173.411365 11.9791283 173.548419 11.9791283 173.677471 11.9891628 173.805522 11.9981938 173.933573 12.0082283 174.031613 12.0282972 174.120648 12.0584005L173.973589 14.9744121zM162.30092 22.2804964L162.30092 16.8036927C162.30092 16.5167074 162.279912 16.2497909 162.230892 16.0029434 162.181873 15.7460615 162.102841 15.5182794 162.004802 15.3306352 161.895758 15.1329565 161.747699 14.9844466 161.55062 14.8660401 161.353541 14.7466301 161.117447 14.6974613 160.821329 14.6974613 160.52521 14.6974613 160.269108 14.7566645 160.052021 14.8660401 159.834934 14.9844466 159.647859 15.1429909 159.5008 15.3406696 159.351741 15.5383483 159.243697 15.7751614 159.164666 16.0320433 159.092637 16.2999632 159.055622 16.5759106 159.055622 16.8528615L159.055622 22.2905308 155.743297 22.2905308 155.743297 12.2560792 158.937575 12.2560792 158.937575 13.6498645 158.977591 13.6498645C159.095638 13.4321169 159.253701 13.2244038 159.45078 13.0166906 159.647859 12.8089775 159.87495 12.6313677 160.131052 12.4828578 160.388155 12.3343479 160.673269 12.2159414 160.989396 12.1176038 161.294518 12.0282972 161.619648 11.9791283 161.97479 11.9791283 162.645058 11.9791283 163.217287 12.0975349 163.679472 12.3443824 164.153661 12.5821989 164.528812 12.8982841 164.814926 13.2836071 165.10004 13.6699334 165.307123 14.1044252 165.435174 14.5991237 165.563225 15.0928187 165.623249 15.5975516 165.623249 16.0912466L165.623249 22.2905308 162.30092 22.2905308 162.30092 22.2804964zM150.489196 22.2804964L150.489196 20.886711 150.45018 20.886711C150.32513 21.1235241 150.165066 21.3402683 149.97599 21.5289159 149.77391 21.7326153 149.544818 21.9092217 149.295718 22.0527143 149.039616 22.2012242 148.744498 22.3196307 148.428371 22.4189718 148.104242 22.5102853 147.769108 22.5564438 147.432973 22.5574472 146.761705 22.5574472 146.20048 22.4390407 145.737295 22.1911898 145.273109 21.9543767 144.89896 21.637288 144.612845 21.2519651 144.326731 20.8666421 144.120648 20.4311469 143.992597 19.9474864 143.863545 19.4527879 143.804522 18.9590929 143.804522 18.4443255L143.804522 12.2460448 147.117847 12.2460448 147.117847 17.6837141C147.117847 17.969696 147.136855 18.2366124 147.17587 18.4844633 147.215886 18.7413453 147.294918 18.9681239 147.403962 19.1658026 147.522009 19.3634813 147.669068 19.5220256 147.856142 19.6404322 148.044218 19.7598421 148.290316 19.8090109 148.595438 19.8090109 149.167667 19.8090109 149.611845 19.5912633 149.906963 19.1658026 150.213085 18.7413453 150.361144 18.2366124 150.361144 17.6536107L150.361144 12.2360103 153.654462 12.2360103 153.654462 22.2604275 150.489196 22.2604275 150.489196 22.2804964zM100.808323 7.26895675L98.4413766 7.26895675 98.4413766 22.4119477 100.808323 22.4119477 100.808323 7.26895675zM92.5030012 12.3453858C90.3181273 12.3453858 88.6244498 13.4080343 88.3383353 15.5784861L90.6652661 15.5784861C90.8293317 14.7596749 91.4315726 14.2689902 92.5030012 14.2689902 93.747499 14.2689902 94.3197279 14.9844466 94.3197279 16.1103121L94.3197279 16.6210657 91.9307723 16.6210657C89.7308924 16.6210657 88.1052421 17.6044419 88.1052421 19.6093254 88.1052421 21.6152122 89.4307723 22.6587952 91.3495398 22.6587952 92.8391357 22.6587952 93.8195278 22.022611 94.3497399 21.0001003L94.4507803 21.0001003 94.4507803 22.4039201 96.6956783 22.4039201 96.6956783 16.1855705C96.6856743 13.7873365 95.4611845 12.3453858 92.5030012 12.3453858zM92.0238095 20.8375422C91.1054422 20.8375422 90.5332133 20.3859919 90.5332133 19.633408 90.5332133 18.7734555 91.1454582 18.3239121 92.2468988 18.3239121L94.3077231 18.3239121 94.3197279 18.4664013C94.3197279 19.9545105 93.4613846 20.8375422 92.0238095 20.8375422zM83.9105642 22.4119477L83.9105642 17.3174566C83.9105642 15.8032579 84.84994 14.8399505 86.3385354 14.8399505L87.2709084 14.8399505 87.2709084 12.5902264 86.3115246 12.5902264C85.1880752 12.5902264 84.3727491 13.0186975 83.862545 13.9820049L83.7805122 13.9820049 83.7805122 12.5902264 81.5566226 12.5902264 81.5566226 22.4179684 83.9105642 22.4119477zM80.0540216 20.2435027L80.0540216 22.4119477 78.442377 22.4119477C76.1764706 22.4119477 74.9319728 21.3593337 74.9319728 19.0865304L74.9319728 14.5399204 73.3193277 14.5399204 73.3193277 12.5902264 74.9319728 12.5902264 74.9319728 9.98227247 77.29992 9.98227247 77.29992 12.5902264 80.0540216 12.5902264 80.0540216 14.5399204 77.29992 14.5399204 77.29992 18.8115864C77.29992 19.7126802 77.8301321 20.2435027 78.7284914 20.2435027L80.0540216 20.2435027zM65.5652261 22.4119477L65.5652261 16.7234171C65.5652261 15.3316386 66.4235694 14.4215139 67.8091236 14.4215139 69.1356543 14.4215139 69.9309724 15.1891494 69.9309724 16.6933137L69.9309724 22.4119477 72.3019208 22.4119477 72.3019208 16.3140114C72.3019208 13.8375088 71.1014406 12.3453858 68.6494598 12.3453858 67.1568627 12.3453858 66.017407 13.0186975 65.5072029 13.9398602L65.4231693 13.9398602 65.4231693 12.5902264 63.2052821 12.5902264 63.2052821 22.4179684 65.5652261 22.4119477zM56.8647459 20.7151219C55.3741497 20.7151219 54.3737495 19.7116768 54.3337335 18.1352644L61.5786315 18.1352644 61.5686275 17.3676289C61.5686275 14.0743218 59.4467787 12.3534134 56.8547419 12.3534134 54.0546218 12.3534134 52.0078031 14.3593003 52.0078031 17.5101181 52.0078031 20.6609359 53.9065626 22.6668228 56.8547419 22.6668228 59.3227291 22.6668228 60.9343737 21.3563234 61.4045618 19.4337224L59.1086435 19.4337224C58.8545418 20.1712546 58.2302921 20.7151219 56.8647459 20.7151219zM56.8547419 14.3191625C58.4043617 14.3191625 59.3227291 15.1991839 59.3847539 16.4263973L54.3247299 16.4263973C54.5478191 15.179115 55.3021208 14.3191625 56.8547419 14.3191625zM44.9259704 22.6788641C48.4553822 22.6788641 50.4561825 20.7151219 50.9263705 17.7991103L48.5254102 17.7991103C48.1692677 19.1286751 47.2038816 20.3558886 44.9259704 20.3558886 42.5790316 20.3558886 40.7012805 18.7513797 40.7012805 15.2393217 40.7012805 11.7272636 42.5790316 10.1267686 44.9259704 10.1267686 47.2719088 10.1267686 48.2112845 11.353982 48.5254102 12.6644814L50.9263705 12.6644814C50.5382153 9.7474663 48.567427 7.85095495 44.9259704 7.85095495 41.007403 7.85095495 38.1712685 10.5923671 38.1712685 15.2714319 38.1712685 19.9504967 41.007403 22.6929123 44.9259704 22.6929123L44.9259704 22.6788641zM34.3247299 12.5902264L34.3247299 13.9378533 34.2126851 13.9378533C33.682473 12.9966217 32.5810324 12.3433789 31.012405 12.3433789 28.7164866 12.3433789 26.6456583 14.1646319 26.6456583 17.3776633 26.6456583 20.5906947 28.6864746 22.4320166 31.012405 22.4320166 32.5230092 22.4320166 33.4123649 21.8159013 34.0946379 20.7733217L34.2026811 20.7733217 34.2026811 22.8434291C34.2026811 23.9482222 33.5904362 24.4599793 32.5910364 24.4599793L27.790116 24.4599793 27.790116 26.5732348 32.545018 26.5732348C35.1770708 26.5732348 36.5846339 25.0991738 36.5846339 22.6848848L36.5846339 12.5902264 34.3247299 12.5902264zM31.6626651 20.2836405C30.090036 20.2836405 29.0906363 19.3032746 29.0906363 17.3796702 29.0906363 15.4560658 30.080032 14.473693 31.6626651 14.473693 33.1922769 14.473693 34.2126851 15.4540589 34.2126851 17.3796702 34.2126851 19.3052815 33.2022809 20.2836405 31.6626651 20.2836405zM18.467387 22.4119477L18.467387 16.7234171C18.467387 15.3316386 19.3257303 14.4215139 20.7132853 14.4215139 22.0398159 14.4215139 22.8361345 15.1891494 22.8361345 16.6933137L22.8361345 22.4119477 25.2020808 22.4119477 25.2020808 16.3140114C25.2020808 13.8375088 24.0016006 12.3453858 21.5496198 12.3453858 20.060024 12.3453858 18.907563 13.0186975 18.3973589 13.9398602L18.3153261 13.9398602 18.3153261 12.5902264 16.1014406 12.5902264 16.1014406 22.4179684 18.467387 22.4119477z"/>
    <polygon points="14.101 12.59 11.735 12.59 11.735 22.412 14.101 22.412"/>
    <path d="M7.61304522,15.6386928 L7.61304522,15.5423621 C9.06062425,15.140984 10.0410164,14.1666388 10.0410164,11.976118 C10.0410164,9.72539051 8.36634654,8.08676456 5.26410564,8.08676456 L0,8.08676456 L0,22.4119477 L2.44797919,22.4119477 L2.44797919,16.7234171 L5.42817127,16.7234171 C6.81672669,16.7234171 7.5110044,17.419808 7.5110044,18.8115864 L7.5110044,22.4219821 L9.95898359,22.4219821 L9.95898359,18.8115864 C9.95898359,16.7856307 9.10064026,15.9678229 7.61204482,15.6386928 L7.61304522,15.6386928 Z M5.13205282,14.5138308 L2.44797919,14.5138308 L2.44797919,10.301368 L5.13205282,10.301368 C6.45858343,10.301368 7.4789916,10.8552698 7.4789916,12.4096063 C7.4789916,13.9639429 6.44857943,14.5138308 5.13205282,14.5138308 Z M12.9171669,11.0138141 C13.5534214,11.0138141 14.1276511,10.630498 14.3707483,10.0414757 C14.6148459,9.45144998 14.4807923,8.77312105 14.0306122,8.32257417 C13.697479,7.98842693 13.2332933,7.82185504 12.7641056,7.86801351 C12.2959184,7.91417199 11.8727491,8.16904706 11.6106443,8.56239756 C11.4385754,8.82228986 11.3465386,9.12733719 11.3465386,9.43840519 C11.3415366,10.0775998 11.7246899,10.6555842 12.314926,10.8974145 C12.5060024,10.9766866 12.710084,11.015821 12.9171669,11.0138141 Z M11.112445,5.0704084 C10.5402161,5.31123524 10.0190076,5.66244105 9.58083233,6.10295347 L10.6912765,7.2167776 C11.2785114,6.62374151 12.0768307,6.28959427 12.9101641,6.28758738 C13.7444978,6.28558049 14.5438175,6.61471051 15.135054,7.20473626 L16.2454982,6.09091213 C14.8969588,4.74228183 12.8721489,4.33990032 11.112445,5.0704084 Z"/>
  </g>
</svg>
