<?xml version="1.0" encoding="UTF-8"?>
<svg width="241px" height="33px" viewBox="0 0 241 33" version="1.1" xmlns="http://www.w3.org/2000/svg" xmlns:xlink="http://www.w3.org/1999/xlink">
    <title>spectrum_business-gsp-logo-secondary copy 7</title>
    <g id="Page-1" stroke="none" stroke-width="1" fill="none" fill-rule="evenodd">
        <g id="spectrum_business-gsp-logo-secondary-copy-7">
            <polygon id="Path" fill="#222222" points="110.943597 9.61650797e-08 110.943597 33 109.846232 33 109.846232 0"></polygon>
            <polygon id="Path" fill="#FF7A00" fill-rule="nonzero" points="241 7.49976707 238.333403 7.49976707 238.333403 24.5575 241 24.5575"></polygon>
            <path d="M231.641672,13.2190301 C229.180282,13.2190301 227.270867,14.4164901 226.949339,16.86102 L229.569847,16.86102 C229.755301,15.93922 230.433473,15.3857001 231.641672,15.3857001 C233.044104,15.3857001 233.688257,16.19222 233.688257,17.45975 L233.688257,18.03582 L230.997518,18.03582 C228.517474,18.03582 226.684874,19.14286 226.684874,21.40215 C226.684874,23.66144 228.179485,24.83635 230.341294,24.83635 C232.020263,24.83635 233.124212,24.12014 233.722276,22.96789 L233.837499,22.96789 L233.837499,24.54936 L236.365828,24.54936 L236.365828,17.54555 C236.354854,14.8434001 234.975466,13.2190301 231.641672,13.2190301 Z M231.100671,22.78485 C230.065856,22.78485 229.421702,22.27654 229.421702,21.42932 C229.421702,20.46011 230.110848,19.954 231.353065,19.954 L233.675089,19.954 L233.688257,20.11438 C233.688257,21.79078 232.721479,22.78485 231.100671,22.78485 Z" id="Shape" fill="#FF7A00"></path>
            <path d="M221.958523,24.55772 L221.958523,18.81902 C221.958523,17.11325 223.018578,16.02887 224.695351,16.02887 L225.74553,16.02887 L225.74553,13.4939201 L224.663528,13.4939201 C223.399363,13.4939201 222.479772,13.9773701 221.904752,15.0618601 L221.812574,15.0618601 L221.812574,13.4939201 L219.306192,13.4939201 L219.306192,24.56443 L221.958523,24.55772 Z" id="Path" fill="#FF7A00"></path>
            <path d="M217.612958,22.11737 L217.612958,24.5597 L215.796819,24.5597 C213.243251,24.5597 211.840818,23.37357 211.840818,20.81376 L211.840818,15.6919401 L210.024679,15.6919401 L210.024679,13.4959001 L211.840818,13.4959001 L211.840818,10.5588231 L214.50961,10.5588231 L214.50961,13.4959001 L217.612958,13.4959001 L217.612958,15.6919401 L214.50961,15.6919401 L214.50961,20.50422 C214.50961,21.51864 215.106576,22.11737 216.118347,22.11737 L217.612958,22.11737 Z" id="Path" fill="#FF7A00"></path>
            <path d="M201.286362,24.55838 L201.286362,18.1511 C201.286362,16.58316 202.253141,15.5574101 203.815788,15.5574101 C205.309302,15.5574101 206.206947,16.42267 206.206947,18.11722 L206.206947,24.55838 L208.877933,24.55838 L208.877933,17.6902 C208.877933,14.8999401 207.524882,13.2190301 204.761717,13.2190301 C203.080554,13.2190301 201.79554,13.9781401 201.221618,15.0151101 L201.126147,15.0151101 L201.126147,13.4946901 L198.62635,13.4946901 L198.62635,24.5652 L201.286362,24.55838 Z" id="Path" fill="#FF7A00"></path>
            <path d="M191.481406,22.64834 C189.802438,22.64834 188.675444,21.51864 188.630452,19.74291 L196.794847,19.74291 L196.782776,18.87754 C196.782776,15.1677901 194.391618,13.2293701 191.470433,13.2293701 C188.315508,13.2293701 186.009945,15.4886601 186.009945,19.03803 C186.009945,22.58729 188.148709,24.84669 191.470433,24.84669 C194.252253,24.84669 196.068392,23.37137 196.598419,21.2047 L194.010832,21.2047 C193.72442,22.03608 193.021009,22.64834 191.481406,22.64834 Z M191.470433,15.4434501 C193.217438,15.4434501 194.252253,16.43532 194.321387,17.81791 L188.619478,17.81791 C188.871872,16.41266 189.721233,15.4434501 191.470433,15.4434501 Z" id="Shape" fill="#FF7A00"></path>
            <path d="M178.028809,24.85714 C182.006757,24.85714 184.260745,22.64537 184.789675,19.36033 L182.085767,19.36033 C181.684132,20.8582 180.595546,22.2409 178.028809,22.2409 C175.38416,22.2409 173.26844,20.43349 173.26844,16.47745 C173.26844,12.5214101 175.38416,10.7184881 178.028809,10.7184881 C180.672361,10.7184881 181.731319,12.1012101 182.085767,13.5765301 L184.789675,13.5765301 C184.352923,10.2914791 182.132954,8.15417907 178.028809,8.15417907 C173.613013,8.15417907 170.417486,11.2426601 170.417486,16.51353 C170.417486,21.78451 173.613013,24.87298 178.028809,24.87298 L178.028809,24.85714 Z" id="Path" fill="#FF7A00"></path>
            <path d="M166.082894,13.4984301 L166.082894,15.0166501 L165.956697,15.0166501 C165.359731,13.9570201 164.117514,13.2205701 162.350756,13.2205701 C159.76317,13.2205701 157.430172,15.2719601 157.430172,18.8914 C157.430172,22.51073 159.729151,24.58478 162.350756,24.58478 C164.052769,24.58478 165.055761,23.89123 165.823916,22.71632 L165.945724,22.71632 L165.945724,25.04799 C165.945724,26.29286 165.255481,26.86893 164.129585,26.86893 L158.719575,26.86893 L158.719575,29.25021 L164.076911,29.25021 C167.043089,29.25021 168.629878,27.58965 168.629878,24.86946 L168.629878,13.4984301 L166.082894,13.4984301 Z M163.083796,22.16511 C161.311551,22.16511 160.184558,21.06027 160.184558,18.8936 C160.184558,16.72693 161.300578,15.6198901 163.083796,15.6198901 C164.807756,15.6198901 165.956697,16.72473 165.956697,18.8936 C165.956697,21.06258 164.81873,22.16511 163.083796,22.16511 Z" id="Shape" fill="#0684BC"></path>
            <path d="M148.214501,24.56124 L148.214501,18.15385 C148.214501,16.58591 149.181279,15.5601601 150.745024,15.5601601 C152.239635,15.5601601 153.13728,16.42553 153.13728,18.11997 L153.13728,24.56124 L155.802779,24.56124 L155.802779,17.69295 C155.802779,14.9026901 154.450826,13.2217801 151.687661,13.2217801 C150.008692,13.2217801 148.71051,13.9808901 148.13549,15.0179701 L148.043312,15.0179701 L148.043312,13.4974401 L145.547904,13.4974401 L145.547904,24.56795 L148.214501,24.56124 Z" id="Path" fill="#0684BC"></path>
            <polygon id="Path" fill="#0684BC" fill-rule="nonzero" points="143.293916 13.4956801 140.627319 13.4956801 140.627319 24.55937 143.293916 24.55937"></polygon>
            <path d="M135.982174,16.92856 L135.982174,16.8201 C137.613955,16.36822 138.719002,15.2702001 138.719002,12.8031201 C138.719002,10.2681481 136.831534,8.42230407 133.336427,8.42230407 L127.404072,8.42230407 L127.404072,24.55827 L130.162847,24.55827 L130.162847,18.15088 L133.520784,18.15088 C135.085626,18.15088 135.86695,18.93485 135.86695,20.50279 L135.86695,24.56949 L138.625726,24.56949 L138.625726,20.50279 C138.625726,18.22084 137.658947,17.29904 135.982174,16.92856 Z M133.187185,15.6611401 L130.162847,15.6611401 L130.162847,10.9165761 L133.187185,10.9165761 C134.681796,10.9165761 135.831835,11.5401001 135.831835,13.2910801 C135.831835,15.0420601 134.670822,15.6611401 133.187185,15.6611401 Z" id="Shape" fill="#0684BC"></path>
            <path d="M141.95952,11.7210501 C142.310677,11.7214901 142.653055,11.6176501 142.944954,11.4227301 C143.236853,11.2278101 143.464008,10.9504341 143.597886,10.6258571 C143.732862,10.3012801 143.767978,9.94403307 143.699941,9.59935907 C143.631905,9.25467407 143.46291,8.93805007 143.214906,8.68956007 C142.966901,8.44107007 142.65086,8.27189007 142.307385,8.20344807 C141.962813,8.13499507 141.607266,8.17036007 141.283544,8.30504407 C140.958724,8.43972807 140.682188,8.66769207 140.487954,8.96006107 C140.29372,9.25244107 140.190568,9.59609207 140.190568,9.94749807 C140.187276,10.2992671 140.289331,10.6438531 140.484662,10.9366731 C140.678896,11.2294601 140.956529,11.4570501 141.281349,11.5900401 C141.496432,11.6795801 141.726879,11.7241301 141.95952,11.7210501 Z" id="Path" fill="#FF7A00"></path>
            <path d="M139.926103,5.02529508 C139.280853,5.29629108 138.693762,5.69158708 138.199948,6.18884208 L139.450944,7.44275407 C139.779056,7.11218208 140.168621,6.84960108 140.597691,6.67000408 C141.02676,6.49041808 141.487654,6.39733608 141.951839,6.39608208 C142.417122,6.39481708 142.878015,6.48541308 143.308182,6.66266708 C143.738349,6.83993208 144.129011,7.10040108 144.459318,7.42919107 L145.710314,6.17527908 C144.967398,5.43220708 144.021469,4.92640508 142.992141,4.72172808 C141.962813,4.51706208 140.896174,4.62269508 139.926103,5.02529508 Z" id="Path" fill="#FF7A00"></path>
            <path d="M1.71206491,18.94695 C2.68267324,19.7791 4.13749386,20.19402 6.07653775,20.1918287 C7.96154738,20.1918287 9.41744341,19.79098 10.4442588,18.98919 C11.4797543,18.13977 11.9974911,16.93934 11.9974911,15.3879001 C12.0126347,14.6995201 11.8507734,14.0189501 11.5272702,13.4116401 C11.1915863,12.8203901 10.6897613,12.3410101 10.084334,12.0334501 C9.72635165,11.8532701 9.35167833,11.7085101 8.96565826,11.6012601 C8.44036063,11.4386801 5.83011347,10.7236141 5.56422194,10.6553591 C4.11155216,10.3010711 3.1874282,9.81351807 3.18094278,8.95218507 C3.2555197,7.28476107 4.80221171,7.14824008 5.66149237,7.14824008 C6.40206009,7.10870608 7.13620822,7.30434107 7.75942372,7.70729307 C8.01777636,7.89081707 8.22754864,8.13477507 8.37051335,8.41799207 C8.51347805,8.70120907 8.58531157,9.01510507 8.57979182,9.33246607 L11.4980803,9.33246607 C11.4927032,8.67762507 11.3528989,8.03090207 11.0873366,7.43256807 C10.8217743,6.83424508 10.4362261,6.29711508 9.95463648,5.85460708 C9.01429347,5.05502808 7.67296234,4.65523308 5.9306321,4.65523308 C4.0758878,4.65523308 2.66430336,5.04093708 1.69585683,5.81235608 C1.2144538,6.21275608 0.832382047,6.71974608 0.57973681,7.29336307 C0.327091573,7.86699107 0.210776374,8.49158207 0.239950919,9.11794407 C0.239950919,10.9186331 1.09597899,11.9782301 1.86121876,12.4625601 C2.77875852,12.9346801 3.76287541,13.2635801 4.77951821,13.4376001 L5.93710655,13.6911501 C7.9442529,14.1786701 9.09535582,14.7995101 9.05969146,15.7974301 C9.06707673,16.06484 9.00849939,16.32994 8.88914997,16.56919 C8.76980056,16.80844 8.59336622,17.01447 8.37550636,17.16902 C7.76236466,17.51409 7.06407842,17.67755 6.36188556,17.64037 C5.53469185,17.68646 4.71322639,17.47768 4.00778533,17.0423 C3.46736601,16.69778 3.14310563,16.09641 3.03502616,15.2383001 L0,15.2383001 C0.0843063797,16.87004 0.654995196,18.09973 1.71206491,18.92748" id="Path" fill="#002A4E" fill-rule="nonzero"></path>
            <path d="M20.4276682,14.3024201 C20.4276682,13.1810801 20.2234485,10.8083251 17.9309434,10.8083251 C15.75849,10.8083251 15.5249707,13.1225601 15.5249707,14.3024201 C15.5249707,17.28628 17.2143641,17.66325 18.0185131,17.66325 C20.0970321,17.66325 20.4276682,15.4530201 20.4276682,14.3024201 Z M15.5249707,22.75328 C15.5262876,22.94622 15.4893064,23.1374 15.4163316,23.31582 C15.3432471,23.49424 15.2355956,23.65638 15.0995224,23.79278 C14.9634491,23.92918 14.8018072,24.03709 14.6237049,24.11024 C14.4457123,24.1835 14.2549903,24.22046 14.0626222,24.2192788 L12.6001639,24.2192788 L12.6001639,13.4898501 C12.7688289,10.6327981 13.8063875,8.35432407 18.1319807,8.20155607 C20.0061703,8.22430407 21.3745844,8.97187507 22.1656748,9.91122007 C23.0282036,11.0325601 23.3946138,12.4237301 23.3946138,14.1788901 C23.3946138,15.99048 22.9623617,17.45634 22.0976382,18.57658 C21.7143286,19.09171 21.2140399,19.50784 20.6383622,19.79043 C20.0625748,20.07313 19.4279687,20.21415 18.7869978,20.20183 C17.6156705,20.24187 16.4645346,19.88965 15.5152042,19.20072 C15.5152042,19.29818 15.5152042,22.74679 15.5152042,22.74679" id="Shape" fill="#002A4E" fill-rule="nonzero"></path>
            <path d="M29.4227687,17.63366 C28.683474,17.59461 27.2697387,17.44842 27.152979,14.9716601 L34.5719343,14.9716601 L34.5719343,14.0778001 C34.520029,12.2120901 34.0758156,10.8274431 33.20363,9.77758107 C32.2589085,8.74831107 30.9316455,8.23367607 29.2217315,8.23367607 C27.5982897,8.23367607 26.3294066,8.76239107 25.4149724,9.81984307 C24.5005382,10.8772841 24.0574222,12.3074601 24.0855148,14.1102501 C24.0855148,16.02799 24.542677,17.50144 25.4571112,18.53071 C26.3715455,19.55998 27.6404286,20.08875 29.2638703,20.11691 C30.4536334,20.16696 31.6268262,19.82442 32.6037005,19.14187 C33.5156108,18.47439 34.1559233,17.4988 34.4065614,16.39528 L31.8287414,16.39528 C31.4493823,17.47119 30.4798604,17.69537 29.4357176,17.64345 L29.4227687,17.63366 Z M29.3093012,10.7331841 C31.1478264,10.7104251 31.4331413,12.2771001 31.4915211,13.0507301 L27.1140226,13.0507301 C27.1140226,13.0507301 27.0751759,10.7754351 29.2963523,10.7331841" id="Shape" fill="#002A4E" fill-rule="nonzero"></path>
            <path d="M42.7366588,16.38868 L45.5511805,16.38868 C45.5511805,16.38868 44.7859879,20.11999 40.5317234,20.11999 C36.2774589,20.11999 35.2399004,16.70064 35.2399004,14.4644501 C35.2399004,12.2281501 35.6386828,8.38304507 40.372825,8.24652407 C44.7438491,8.18152507 45.4636107,11.9779001 45.4636107,11.9779001 L42.4772417,11.9779001 C42.4772417,11.9779001 42.1886348,10.6940351 40.405307,10.7362861 C38.6218694,10.7785481 38.1549406,12.4557401 38.1549406,14.0516201 C38.1549406,15.6475001 38.5505407,17.62706 40.5317234,17.62706 C42.4156796,17.68547 42.5810525,16.65191 42.7464254,16.38538" id="Path" fill="#002A4E" fill-rule="nonzero"></path>
            <path d="M49.1797274,11.5394401 L50.9404495,11.5394401 L50.9404495,8.53290907 L49.1830195,8.53290907 L49.1830195,6.60221108 C49.1948711,6.41133908 49.1667785,6.22010408 49.1007172,6.04071608 C49.0345461,5.86132808 48.9319424,5.69773608 48.7991613,5.56039008 C48.6663801,5.42304408 48.506494,5.31496908 48.3297085,5.24306208 C48.1530328,5.17115508 47.9631886,5.13702208 47.7724666,5.14280808 L46.2323149,5.14280808 L46.2323149,17.75741 C46.2323149,19.07378 46.7413825,19.86039 47.8535619,19.86039 L49.1927861,19.86039 L49.1797274,11.5394401 Z" id="Path" fill="#002A4E" fill-rule="nonzero"></path>
            <path d="M54.0759504,19.88657 L54.0759504,14.0067401 C54.0759504,13.1486301 54.2736956,12.5213001 54.6757701,12.1215601 C55.0778446,11.7217101 55.6874308,11.5201901 56.5142953,11.5201901 L57.4871094,11.5201901 L57.4871094,8.47466407 C56.5861727,8.45700907 55.6868822,8.55753807 54.8119531,8.77368807 C54.1232468,8.96320707 53.4772281,9.28317507 52.9085736,9.71630007 C52.3148991,10.2024451 51.8513722,10.8291041 51.5596926,11.5397701 C51.2069995,12.4337401 51.0393221,13.3903001 51.066866,14.3512601 L51.066866,19.87689 L54.0759504,19.88657 Z" id="Path" fill="#002A4E" fill-rule="nonzero"></path>
            <path d="M58.3462364,8.49019607 L61.3423719,8.49019607 L61.3423719,15.7840101 C61.3423719,15.7840101 61.2353789,17.75686 63.3106057,17.75686 C63.5690352,17.77677 63.8286717,17.74256 64.0730549,17.65632 C64.3175478,17.57019 64.5414103,17.4339 64.7304863,17.25636 C64.9195622,17.07871 65.0697915,16.86355 65.1714075,16.62463 C65.2730235,16.38571 65.324051,16.1282 65.3209783,15.86849 L65.3209783,9.91384907 C65.3209783,9.91384907 65.4247891,8.49669707 66.7217647,8.49669707 L68.2749751,8.49669707 L68.2749751,15.2704201 C68.2555517,15.6409001 68.667283,20.12637 63.3106057,20.1069632 C58.0058338,20.1069632 58.3819008,15.5564201 58.3462364,15.3028701 L58.3462364,8.49019607 Z" id="Path" fill="#002A4E" fill-rule="nonzero"></path>
            <path d="M79.095652,19.92166 L76.125524,19.92166 L76.125524,12.5921401 C76.125524,11.7470101 75.7785372,10.6094231 74.1053848,10.6094231 C72.4322325,10.6094231 72.1274942,11.9095901 72.1274942,12.5921401 L72.1274942,19.92166 L69.1151177,19.92166 L69.1151177,13.1934001 C69.1151177,11.2432101 69.6923317,10.0471031 70.6423205,9.27027207 C71.5924191,8.49344107 72.7856937,8.24967007 74.0178151,8.19441707 C74.6723933,8.19255807 75.3249962,8.26452007 75.9634432,8.40893907 C76.5977201,8.55406207 77.1881025,8.84942307 77.6852088,9.27027207 C78.1276663,8.89246607 78.6497926,8.62019407 79.2124116,8.47394907 C79.8074029,8.30160107 80.4221467,8.20762807 81.04128,8.19441707 C84.7118561,8.17491407 86.1871535,9.85859607 86.3070955,10.4014021 L86.3070955,19.92166 L84.6080454,19.92166 C84.4151286,19.92474 84.2236384,19.88888 84.0447679,19.81628 C83.8660072,19.74379 83.7035972,19.63588 83.5671947,19.49915 C83.4307922,19.36242 83.3231407,19.19962 83.2507147,19.02032 C83.1782886,18.84113 83.1426242,18.64907 83.1456968,18.45569 L83.1456968,12.6051201 C83.1456968,11.7730801 82.8602722,10.6224141 81.1222656,10.6224141 C79.384259,10.6224141 79.1022362,11.9225701 79.1022362,12.6051201 L79.095652,19.92166 Z" id="Path" fill="#002A4E" fill-rule="nonzero"></path>
            <polygon id="Path" fill="#0099D8" fill-rule="nonzero" points="87.1340698 10.3955391 87.1340698 19.90923 93.3857579 15.1540401"></polygon>
            <path d="M41.8032402,24.54056 C42.0390639,24.8721 42.1618591,25.27107 42.1534093,25.67818 C42.1721743,26.07616 42.0491597,26.46776 41.8065323,26.78335 C41.6478533,26.9621 41.4548268,27.10686 41.2390849,27.20905 C41.5910098,27.32301 41.8946507,27.55192 42.101504,27.85915 C42.3008952,28.18882 42.4011944,28.5692 42.390111,28.95453 C42.3982315,29.37605 42.2857516,29.79119 42.0658396,30.15067 C41.9277911,30.37804 41.7484817,30.57758 41.5373487,30.73895 C41.2873689,30.92661 40.997884,31.05443 40.6910608,31.11273 C40.3442935,31.1839 39.9911614,31.21877 39.6372612,31.21679 L36.2584745,31.21679 L36.2584745,23.74097 L39.8836197,23.74097 C40.785105,23.75395 41.4249785,24.02048 41.8032402,24.54056 Z M37.750013,25.04436 L37.750013,26.69227 L39.5593483,26.69227 C39.8351161,26.70448 40.108799,26.64035 40.3505485,26.50703 C40.4545787,26.43575 40.5376492,26.33785 40.5912006,26.22356 C40.6448617,26.10927 40.6670285,25.98266 40.6553964,25.85693 C40.6710888,25.71404 40.6403625,25.56983 40.5679365,25.44575 C40.4956201,25.32167 40.3852252,25.22421 40.2533219,25.16789 C39.9673486,25.08209 39.6696335,25.0426 39.3713697,25.05085 L37.750013,25.04436 Z M37.750013,27.93395 L37.750013,29.92957 L39.5593483,29.92957 C39.8178875,29.94134 40.075878,29.8958 40.3148841,29.79636 C40.480257,29.70781 40.6152329,29.57152 40.7025831,29.40531 C40.7898236,29.23899 40.8253783,29.05023 40.8045283,28.86356 C40.8183551,28.69702 40.7802766,28.53037 40.6954503,28.38649 C40.6106239,28.24272 40.4833296,28.12887 40.3311251,28.06067 C40.0935456,27.96871 39.8399445,27.92559 39.5853559,27.93395 L37.750013,27.93395 Z" id="Shape" fill="#002A4E" fill-rule="nonzero"></path>
            <path d="M43.3461353,23.74097 L44.9317179,23.74097 L44.9317179,28.33699 C44.9074662,28.72177 44.9694673,29.10721 45.1133318,29.46482 C45.3014202,29.88414 45.7099692,30.09215 46.3454532,30.09215 C46.981047,30.09215 47.3831215,29.88414 47.5712099,29.46482 C47.7133186,29.10677 47.7753198,28.72166 47.752714,28.33699 L47.752714,23.74097 L49.3384064,23.74097 L49.3384064,28.34018 C49.3716566,28.98115 49.2445817,29.62025 48.9687042,30.1994 C48.5126393,31.01197 47.6381491,31.41831 46.3454532,31.41831 C45.0484776,31.41831 44.1761822,31.01197 43.7125455,30.1994 C43.4397405,29.61926 43.3139825,28.98071 43.3461353,28.34018 L43.3461353,23.74097 Z" id="Path" fill="#002A4E" fill-rule="nonzero"></path>
            <path d="M51.6896206,28.9157 C51.7132139,29.19213 51.8106599,29.45712 51.9717531,29.68273 C52.2311702,29.9915 52.6753835,30.14429 53.3012107,30.14429 C53.611765,30.15309 53.9216609,30.11129 54.2188273,30.02076 C54.4125122,29.97467 54.5844693,29.86335 54.7060574,29.70539 C54.8276454,29.54743 54.8914023,29.3524 54.8867934,29.15297 C54.8884394,29.03725 54.8592495,28.92329 54.8021865,28.82275 C54.7452333,28.72221 54.662492,28.63872 54.562522,28.58086 C54.2370436,28.41025 53.8869842,28.29178 53.5249635,28.22985 L52.7175223,28.0511 C52.142942,27.95639 51.5888825,27.76279 51.0800343,27.47899 C50.8253359,27.29606 50.6219942,27.05043 50.489652,26.76575 C50.3573098,26.48107 50.3004663,26.16702 50.3244986,25.85385 C50.3181338,25.53837 50.3806836,25.22531 50.5078682,24.93678 C50.6350528,24.64814 50.8236899,24.39085 51.060611,24.18317 C51.5534376,23.74108 52.2766011,23.51679 53.2330644,23.51679 C53.9620439,23.49699 54.6774161,23.71743 55.2694445,24.14412 C55.5504797,24.35609 55.777305,24.63197 55.9311556,24.94899 C56.0850062,25.26601 56.1616022,25.61515 56.1546888,25.96759 L54.6565662,25.96759 C54.6573344,25.76475 54.6011493,25.56576 54.4944854,25.39339 C54.3879313,25.22091 54.2350683,25.08209 54.0534544,24.99255 C53.7617748,24.85912 53.4433195,24.79455 53.1228889,24.80401 C52.7819376,24.78938 52.444059,24.87408 52.1500749,25.04777 C52.033864,25.11872 51.9385029,25.21926 51.8736487,25.33916 C51.8086847,25.45906 51.7765319,25.59403 51.7804824,25.73032 C51.777739,25.8544 51.8104404,25.97661 51.8748558,26.08254 C51.9391614,26.18847 52.0324374,26.27383 52.1436004,26.32839 C52.4611779,26.46974 52.7942281,26.57336 53.1358378,26.63716 L54.4328135,26.96221 C54.8984254,27.04977 55.340444,27.23468 55.7298989,27.50495 C55.9537613,27.68854 56.1310955,27.92273 56.2471967,28.18827 C56.3632979,28.45381 56.4149838,28.74322 56.3978649,29.03263 C56.4028031,29.35845 56.3342178,29.68119 56.1971569,29.97676 C56.0602057,30.27222 55.8582906,30.53281 55.6066648,30.73906 C55.0770765,31.19193 54.3311975,31.41732 53.3692474,31.41512 C52.5434802,31.46275 51.7260531,31.22779 51.0508444,30.74885 C50.7744182,30.53215 50.5534089,30.25253 50.4061425,29.9332 C50.2589859,29.61387 50.1898519,29.26385 50.2045566,28.9124 L51.6896206,28.9157 Z" id="Path" fill="#002A4E" fill-rule="nonzero"></path>
            <polygon id="Path" fill="#002A4E" fill-rule="nonzero" points="58.7614793 31.22669 57.211561 31.22669 57.211561 23.75087 58.7614793 23.75087"></polygon>
            <polygon id="Path" fill="#002A4E" fill-rule="nonzero" points="59.9871262 23.74097 61.6084829 23.74097 64.5754286 28.94155 64.5754286 23.74097 66.0280106 23.74097 66.0280106 31.21679 64.4684355 31.21679 61.426869 25.90566 61.426869 31.21679 59.9871262 31.21679"></polygon>
            <polygon id="Path" fill="#002A4E" fill-rule="nonzero" points="72.779329 25.06405 68.8266204 25.06405 68.8266204 26.65344 72.4550577 26.65344 72.4550577 27.95353 68.8266204 27.95353 68.8266204 29.88095 72.9576508 29.88095 72.9576508 31.22669 67.3027097 31.22669 67.3027097 23.75087 72.779329 23.75087"></polygon>
            <path d="M74.9842644,28.9157 C75.0062117,29.19246 75.1038772,29.45789 75.266397,29.68273 C75.525814,29.9915 75.9700274,30.14429 76.5958546,30.14429 C76.9062991,30.15309 77.216195,30.11129 77.5134712,30.02076 C77.7064977,29.97401 77.8777963,29.86247 77.998726,29.70451 C78.1196556,29.54666 78.1829735,29.35196 78.1781451,29.15297 C78.1797912,29.03725 78.1506013,28.92329 78.0935383,28.82275 C78.0365851,28.72221 77.9538437,28.63872 77.8539835,28.58086 C77.5285051,28.41025 77.1783359,28.29178 76.8163152,28.22985 L76.0088741,28.0511 C75.4333062,27.95617 74.878259,27.76268 74.3682037,27.47899 C74.1143832,27.29551 73.9118097,27.04966 73.7801259,26.76498 C73.6483323,26.48041 73.591818,26.16669 73.6159601,25.85385 C73.6094856,25.53837 73.6721451,25.22531 73.79922,24.93678 C73.9264046,24.64814 74.1150416,24.39085 74.3519627,24.18317 C74.8447893,23.74108 75.5679528,23.51679 76.5245259,23.51679 C77.2533957,23.49699 77.9687679,23.71743 78.5607963,24.14412 C78.8417217,24.35675 79.0681081,24.63329 79.2215197,24.95097 C79.3748216,25.26854 79.4506495,25.61812 79.4427485,25.97089 L77.9447356,25.97089 C77.9455038,25.76794 77.8893187,25.56906 77.7826548,25.39658 C77.6759909,25.22421 77.5232377,25.08528 77.3416238,24.99574 C77.0498345,24.86231 76.7314889,24.79785 76.4109486,24.8072 C76.0701071,24.79268 75.7322284,24.87727 75.4382443,25.05096 C75.3220334,25.12202 75.2266723,25.22256 75.1617083,25.34246 C75.0968541,25.46225 75.0647013,25.59722 75.0685421,25.73362 C75.0659084,25.85759 75.0986099,25.9798 75.1630252,26.08584 C75.2273308,26.19177 75.3206068,26.27713 75.4317699,26.33169 C75.7493473,26.47293 76.0823975,26.57655 76.4240072,26.64046 L77.7209829,26.9654 C78.1865948,27.05296 78.6285037,27.23798 79.0179585,27.50825 C79.2419307,27.69184 79.4192649,27.92592 79.5353661,28.19157 C79.6514673,28.45711 79.7030435,28.74652 79.6859246,29.03593 C79.6909725,29.36175 79.6223872,29.68449 79.4853263,29.97995 C79.3483751,30.27541 79.14646,30.53611 78.8948342,30.74236 C78.3673309,31.19523 77.6215616,31.42062 76.6574168,31.41842 C75.8315399,31.46649 75.014003,31.23153 74.3390138,30.75204 C74.0624779,30.53545 73.8414686,30.25583 73.6943119,29.9365 C73.5471553,29.61706 73.4780213,29.26715 73.492726,28.9157 L74.9842644,28.9157 Z" id="Path" fill="#002A4E" fill-rule="nonzero"></path>
            <path d="M81.7124285,28.9157 C81.7353634,29.19279 81.8341262,29.45822 81.9977433,29.68273 C82.2539781,29.9915 82.6981914,30.14429 83.327201,30.14429 C83.6367676,30.15331 83.9455661,30.11162 84.2416352,30.02076 C84.4353201,29.97467 84.6072772,29.86335 84.7288653,29.70539 C84.8504533,29.54743 84.9142102,29.3524 84.9096013,29.15297 C84.9112473,29.03725 84.8820574,28.92329 84.8249944,28.82275 C84.7680412,28.72221 84.6852999,28.63872 84.5853299,28.58086 C84.2600709,28.4097 83.9099018,28.29123 83.5477713,28.22985 L82.7403302,28.0511 C82.1658597,27.95573 81.6120196,27.76224 81.1028422,27.47899 C80.8485828,27.29562 80.64568,27.04988 80.5133378,26.76531 C80.3811053,26.48074 80.3239326,26.16691 80.3473064,25.85385 C80.3409417,25.53804 80.4038207,25.22476 80.531554,24.93601 C80.6592873,24.64737 80.8488022,24.3903 81.0866012,24.18317 C81.5795376,23.74108 82.3025913,23.51679 83.2558723,23.51679 C83.9858394,23.4971 84.7021993,23.71743 85.2954348,24.14412 C85.5753726,24.35719 85.80132,24.63329 85.9550609,24.94998 C86.1088017,25.26678 86.1861659,25.61537 86.1806791,25.96759 L84.6793741,25.96759 C84.6809104,25.76453 84.6250545,25.56532 84.5182809,25.39273 C84.411617,25.22014 84.2583152,25.08143 84.0762623,24.99255 C83.7846924,24.85879 83.4662371,24.79422 83.1456968,24.80401 C82.8047455,24.78938 82.4668669,24.87408 82.1728828,25.04777 C82.0566718,25.11872 81.9613108,25.21926 81.8964566,25.33916 C81.8314926,25.45906 81.7993398,25.59403 81.8032903,25.73032 C81.8007663,25.85473 81.8340165,25.97716 81.8989805,26.0832 C81.9639445,26.18924 82.0578789,26.27427 82.1697004,26.32839 C82.4872779,26.46974 82.8202184,26.57336 83.1618281,26.63716 L84.4589135,26.96221 C84.9248546,27.04845 85.3670927,27.23358 85.7558891,27.50495 C85.9798613,27.68854 86.1570857,27.92273 86.2732967,28.18827 C86.3893979,28.45381 86.4409741,28.74322 86.4238552,29.03263 C86.4295615,29.35856 86.3613054,29.68152 86.2242445,29.9772 C86.0871836,30.27277 85.8849392,30.53336 85.632655,30.73906 C85.1030667,31.19193 84.3583948,31.41732 83.3985297,31.41512 C82.571775,31.46319 81.7531407,31.22823 81.0769444,30.74885 C80.8008474,30.53204 80.580277,30.25231 80.4336691,29.93287 C80.2870611,29.61354 80.2184758,29.26363 80.2338389,28.9124 L81.7124285,28.9157 Z" id="Path" fill="#002A4E" fill-rule="nonzero"></path>
            <g id="Group" transform="translate(0.109736, 4.613774)" fill-rule="nonzero">
                <path d="M1.71035302,14.277406 C2.6799847,15.108676 4.1333568,15.523266 6.07045834,15.5210747 C7.95356953,15.5210747 9.40801705,15.120556 10.4338009,14.319646 C11.468232,13.471106 11.9854201,12.271776 11.9854201,10.721876 C12.0006734,10.034266 11.8388121,9.35435597 11.5157479,8.74759597 C11.1803931,8.15689598 10.679062,7.67817598 10.0742493,7.37083598 C9.71661802,7.19087598 9.34231781,7.04622598 8.95668181,6.93897598 C8.43191092,6.77661598 5.82427549,6.06229798 5.55864733,5.99410898 C4.10743704,5.64018398 3.18423487,5.15311498 3.17776042,4.29263999 C3.25226053,2.62688799 4.79740526,2.49049899 5.65582997,2.49049899 C6.39565148,2.45100899 7.12906437,2.64645699 7.75165438,3.04900199 C8.00975462,3.23233899 8.21930743,3.47605499 8.36212948,3.75898599 C8.50495153,4.04191699 8.57670822,4.35550499 8.57119945,4.67254699 L11.486558,4.67254699 C11.4811809,4.01835499 11.3414863,3.37229199 11.0762532,2.77455199 C10.8109433,2.17682299 10.4257792,1.640232 9.94467241,1.198175 C9.00527313,0.399387999 7.66528078,0 5.92469536,0 C4.0718056,0 2.66163676,0.385318999 1.69415592,1.155957 C1.2132467,1.555961 0.831549147,2.06243399 0.579156304,2.63548999 C0.326763461,3.20853499 0.21056568,3.83249899 0.239710596,4.45823399 C0.239710596,6.25711898 1.09488491,7.31572598 1.85935324,7.79950598 C2.77597121,8.27118598 3.75911145,8.59964597 4.7747337,8.77366597 L5.93116981,9.02688597 C7.93629701,9.51396597 9.08625867,10.134146 9.05062723,11.130966 C9.05800152,11.398156 8.99949002,11.663036 8.88025034,11.902066 C8.76102164,12.141096 8.58476288,12.346906 8.36712249,12.501236 C7.75459532,12.845976 7.05700041,13.009216 6.35552084,12.972146 C5.52915016,13.018126 4.70850772,12.809676 4.00377994,12.374626 C3.46389833,12.030436 3.13996717,11.429726 3.03198646,10.572496 L0,10.572496 C0.0842216632,12.202586 0.654338972,13.431066 1.71035302,14.257936" id="Path" fill="#003057"></path>
                <path d="M20.4075864,9.63694597 C20.4075864,8.51670598 20.2034765,6.14628298 17.9132758,6.14628298 C15.7429074,6.14628298 15.5097174,8.45818598 15.5097174,9.63694597 C15.5097174,12.617726 17.1973549,12.994366 18.0007358,12.994366 C20.0771698,12.994366 20.4075864,10.786336 20.4075864,9.63694597 Z M15.5097174,18.0793359 C15.5110342,18.2719459 15.4741627,18.4630159 15.401188,18.6412159 C15.3282132,18.8195259 15.2206714,18.9814459 15.0847079,19.1177359 C14.9487444,19.2539159 14.7872123,19.3618259 14.6094392,19.4348659 C14.4315563,19.5080159 14.2410537,19.5450859 14.0487954,19.5438 L12.5878734,19.5438 L12.5878734,8.82514597 C12.756319,5.97094298 13.7928899,3.69473499 18.1140936,3.54212099 C19.9864177,3.56485799 21.3534052,4.31168099 22.1438372,5.25007998 C23.0054882,6.37033098 23.3715691,7.76012598 23.3715691,9.51352597 C23.3715691,11.323246 22.9396463,12.787676 22.0758006,13.906816 C21.69293,14.421396 21.19319,14.837086 20.6179513,15.119456 C20.0428223,15.401826 19.4087648,15.542626 18.7684524,15.530306 C17.5983321,15.570346 16.4482936,15.218456 15.5000606,14.530296 C15.5000606,14.627646 15.5000606,18.0728459 15.5000606,18.0728459" id="Shape" fill="#003057"></path>
                <path d="M29.3934691,12.965326 C28.6549425,12.926386 27.2426338,12.780306 27.1259839,10.305966 L34.5375868,10.305966 L34.5375868,9.41309597 C34.4856814,7.54925598 34.041907,6.16595098 33.1705993,5.11714499 C32.2268654,4.08889799 30.9009193,3.57477999 29.1926513,3.57477999 C27.5708556,3.57477999 26.3031796,4.10297799 25.389733,5.15936298 C24.4762864,6.21574798 24.0334997,7.64451598 24.0615922,9.44554597 C24.0615922,11.361306 24.5184253,12.833326 25.4318718,13.861606 C26.3453184,14.889776 27.6129944,15.417996 29.2347901,15.446156 C30.4233461,15.496096 31.5954416,15.153996 32.5713283,14.471996 C33.4822509,13.805176 34.121905,12.830686 34.3723236,11.728266 L31.7971373,11.728266 C31.4181074,12.802966 30.4495731,13.027036 29.4065277,12.975116 L29.3934691,12.965326 Z M29.2801113,6.07179098 C31.1168808,6.04906498 31.4018664,7.61415598 31.4602462,8.38701598 L27.0871372,8.38701598 C27.0871372,8.38701598 27.0482904,6.11399798 29.2671624,6.07179098" id="Shape" fill="#003057"></path>
                <path d="M42.6940811,11.721666 L45.5058593,11.721666 C45.5058593,11.721666 44.7413251,15.449346 40.4913404,15.449346 C36.2414654,15.449346 35.2047847,12.033406 35.2047847,9.79941597 C35.2047847,7.56542598 35.6032379,3.72411599 40.3326614,3.58774899 C44.699296,3.52280499 45.4183993,7.31539598 45.4183993,7.31539598 L42.4349932,7.31539598 C42.4349932,7.31539598 42.1467154,6.03279598 40.3650337,6.07501398 C38.5834617,6.11722098 38.1169718,7.79268598 38.1169718,9.38702597 C38.1169718,10.981366 38.5121329,12.958836 40.4913404,12.958836 C42.373431,13.017246 42.5385844,11.984676 42.7038476,11.718476" id="Path" fill="#003057"></path>
                <path d="M49.1306752,6.87715598 L50.8895318,6.87715598 L50.8895318,3.87362799 L49.1338576,3.87362799 L49.1338576,1.94486599 C49.1457091,1.75419199 49.1176166,1.563144 49.0516649,1.383932 C48.9856036,1.204731 48.8829999,1.041293 48.7504383,0.904089997 C48.6177668,0.766875998 48.4581002,0.658910998 48.2814245,0.587080998 C48.1048585,0.515250998 47.9152338,0.481139999 47.7247312,0.486925999 L46.1861158,0.486925999 L46.1861158,13.088856 C46.1861158,14.403906 46.6946348,15.189746 47.8057168,15.189746 L49.1436241,15.189746 L49.1306752,6.87715598 Z" id="Path" fill="#003057"></path>
                <path d="M54.0218503,15.215486 L54.0218503,9.34159597 C54.0218503,8.48436598 54.2194857,7.85758598 54.6211213,7.45828598 C55.0228666,7.05887598 55.6317944,6.85757598 56.4578908,6.85757598 L57.4296075,6.85757598 L57.4296075,3.81501999 C56.5296585,3.79737599 55.6312458,3.89780599 54.7571946,4.11374699 C54.0692565,4.30306799 53.4237864,4.62272799 52.8557903,5.05541299 C52.2626645,5.54107398 51.7995765,6.16709498 51.5082261,6.87704598 C51.1558623,7.77013598 50.9882946,8.72570597 51.0158385,9.68578597 L51.0158385,15.205806 L54.0218503,15.215486 Z" id="Path" fill="#003057"></path>
                <path d="M58.2880761,3.83140999 L61.2812487,3.83140999 L61.2812487,11.117876 C61.2812487,11.117876 61.1742556,13.088856 63.2475073,13.088856 C63.5056075,13.108656 63.7650246,13.074446 64.0091883,12.988426 C64.253352,12.902296 64.4771047,12.766226 64.6659612,12.588796 C64.8548177,12.411366 65.0048275,12.196426 65.1063338,11.957726 C65.2079497,11.719026 65.2588675,11.461736 65.2557949,11.202246 L65.2557949,5.25363298 C65.2557949,5.25363298 65.3594958,3.83791099 66.6551547,3.83791099 L68.2068287,3.83791099 L68.2068287,10.604836 C68.1874053,10.974986 68.5988075,15.455946 63.2475073,15.4365392 C57.9480027,15.4365392 58.3237404,10.890616 58.2880761,10.637286 L58.2880761,3.83140999 Z" id="Path" fill="#003057"></path>
                <path d="M79.0164222,15.251236 L76.0491474,15.251236 L76.0491474,7.92908598 C76.0491474,7.08483598 75.7025995,5.94832698 74.0310932,5.94832698 C72.3595869,5.94832698 72.0550681,7.24719598 72.0550681,7.92908598 L72.0550681,15.251236 L69.0457642,15.251236 L69.0457642,8.52979598 C69.0457642,6.58147598 69.6224295,5.38657898 70.5715405,4.61052899 C71.5206514,3.83446799 72.712719,3.59093899 73.9436332,3.53574099 C74.5974433,3.53388199 75.2493878,3.60577799 75.8871763,3.75004299 C76.5209046,3.89502299 77.1107382,4.19008699 77.6072959,4.61052899 C78.0493145,4.23308599 78.5710018,3.96108899 79.1329624,3.81499799 C79.7272952,3.64281499 80.3414904,3.54894099 80.9599653,3.53574099 C84.6268103,3.51625999 86.1007909,5.19824798 86.2206232,5.74051498 L86.2206232,15.251236 L84.5232191,15.251236 C84.3305218,15.254316 84.1391413,15.218566 83.9604903,15.145966 C83.7818393,15.073476 83.6196488,14.965786 83.483356,14.829166 C83.3470633,14.692546 83.2396313,14.529856 83.1672052,14.350776 C83.0948888,14.171806 83.0592245,13.979966 83.0622971,13.786806 L83.0622971,7.94206598 C83.0622971,7.11079598 82.7772017,5.96130698 81.0409508,5.96130698 C79.3047,5.96130698 79.0228967,7.26017598 79.0228967,7.94206598 L79.0164222,15.251236 Z" id="Path" fill="#003057"></path>
                <polygon id="Path" fill="#0099D8" points="87.0467195 5.73395898 87.0467195 15.238146 93.2921527 10.487686"></polygon>
                <path d="M41.7609916,19.8655159 C41.9965959,20.1967259 42.1192813,20.5952559 42.1109413,21.0020359 C42.1295965,21.3995759 42.0066916,21.7908459 41.7642837,22.1059959 C41.6058242,22.2845259 41.4130172,22.4292859 41.197385,22.5313659 C41.5489807,22.6452159 41.8524021,22.8737959 42.059036,23.1808059 C42.2582077,23.5101459 42.3583971,23.8900859 42.3473137,24.2750859 C42.3554342,24.6961659 42.2430641,25.1108659 42.0234813,25.4700159 C41.8854328,25.6971659 41.7063429,25.8964859 41.4954293,26.0577459 C41.2456691,26.2450759 40.9565134,26.3728959 40.6499096,26.4310859 C40.3035812,26.5021459 39.9507784,26.5370159 39.5972074,26.5350359 L36.2218225,26.5350359 L36.2218225,19.0666959 L39.8433464,19.0666959 C40.7439538,19.0796759 41.3831689,19.3459859 41.7609916,19.8655159 Z M37.7119344,20.3687659 L37.7119344,22.0151359 L39.5194042,22.0151359 C39.7948428,22.0272359 40.0683062,21.9632159 40.3098362,21.8300059 C40.4137567,21.7587259 40.4967175,21.6610459 40.5502689,21.5468659 C40.6038203,21.4326859 40.6258773,21.3061859 40.614355,21.1805659 C40.6299376,21.0377859 40.5993211,20.8937959 40.5270047,20.7698259 C40.4546884,20.6458559 40.3445129,20.5485059 40.2126097,20.4921859 C39.9270753,20.4064959 39.6295797,20.3670059 39.3315354,20.3752559 L37.7119344,20.3687659 Z M37.7119344,23.2554959 L37.7119344,25.2491359 L39.5194042,25.2491359 C39.7777239,25.2607959 40.0353852,25.2153659 40.2741719,25.1160359 C40.4393253,25.0275959 40.5743012,24.8915259 40.6614319,24.7253159 C40.7486725,24.5592159 40.7841173,24.3706759 40.7633772,24.1841159 C40.7770942,24.0177959 40.7390156,23.8512559 40.6542991,23.7075959 C40.5695825,23.5639359 40.4423979,23.4501959 40.2904129,23.3821059 C40.0530528,23.2901459 39.7996712,23.2471359 39.545302,23.2554959 L37.7119344,23.2554959 Z" id="Shape" fill="#003057"></path>
                <path d="M43.3030089,19.0666959 L44.8870552,19.0666959 L44.8870552,23.6580959 C44.8628034,24.0425459 44.9248045,24.4275459 45.0684496,24.7848259 C45.2563185,25.2037059 45.6645383,25.4114959 46.2993639,25.4114959 C46.9342993,25.4114959 47.3359348,25.2037059 47.5239134,24.7848259 C47.6659125,24.4271059 47.7278039,24.0424359 47.7053079,23.6580959 L47.7053079,19.0666959 L49.2892445,19.0666959 L49.2892445,23.6613959 C49.3224946,24.3015959 49.1955295,24.9400359 48.9199811,25.5186359 C48.4643552,26.3304359 47.5908527,26.7363359 46.2993639,26.7363359 C45.0037051,26.7363359 44.1322876,26.3304359 43.6690898,25.5186359 C43.3966141,24.9391559 43.2708561,24.3012659 43.3030089,23.6613959 L43.3030089,19.0666959 Z" id="Path" fill="#003057"></path>
                <path d="M51.6379347,24.2359259 C51.6614183,24.5120259 51.7587546,24.7767959 51.919738,25.0021859 C52.1788259,25.3106259 52.6226003,25.4633059 53.2478788,25.4633059 C53.5581039,25.4719959 53.8676705,25.4304159 54.1645078,25.3398859 C54.3579732,25.2937959 54.5298206,25.1825859 54.6512989,25.0248459 C54.7727772,24.8669959 54.8365341,24.6721859 54.8318154,24.4729759 C54.8334614,24.3573659 54.8042715,24.2435159 54.7473183,24.1430859 C54.690365,24.0426559 54.6077335,23.9591659 54.5078733,23.9014159 C54.1828338,23.7309159 53.8329938,23.6126659 53.4713023,23.5507359 L52.6647391,23.3722059 C52.0907075,23.2774959 51.5373063,23.0842259 51.0288971,22.8006459 C50.7745279,22.6179359 50.5714057,22.3725259 50.4391732,22.0880659 C50.3069407,21.8037159 50.2500972,21.4899959 50.2741295,21.1771559 C50.2677648,20.8620059 50.3303146,20.5492759 50.4572797,20.2609659 C50.5843546,19.9726559 50.7727721,19.7156959 51.0094738,19.5081259 C51.5018614,19.0664759 52.2242568,18.8425159 53.1798422,18.8425159 C53.9080536,18.8227159 54.6226576,19.0428259 55.2141373,19.4691859 C55.4948433,19.6809359 55.7214492,19.9564859 55.87519,20.2731759 C56.0289308,20.5898659 56.1054172,20.9386759 56.098394,21.2907859 L54.6019174,21.2907859 C54.6025758,21.0881659 54.5465005,20.8893959 54.4399464,20.7171359 C54.3333922,20.5448759 54.1807488,20.4061659 53.9993543,20.3166259 C53.7078942,20.1834159 53.3898778,20.1189559 53.0696667,20.1283059 C52.7290447,20.1137859 52.3916049,20.1983759 52.0978403,20.3718459 C51.9818489,20.4427959 51.8864878,20.5432259 51.8216336,20.6630159 C51.7567793,20.7826959 51.7247362,20.9175559 51.728577,21.0537359 C51.7259433,21.1777059 51.7586448,21.2996959 51.8229504,21.4056259 C51.8871463,21.5114459 51.9803125,21.5966959 52.0913659,21.6512559 C52.4087238,21.7923859 52.7413351,21.8958959 53.0826156,21.9596959 L54.3783842,22.2844159 C54.8434475,22.3718659 55.2850271,22.5565559 55.674043,22.8266059 C55.8977957,23.0099759 56.0749104,23.2439459 56.1909019,23.5092659 C56.3068934,23.7744759 56.3584695,24.0636659 56.3413506,24.3527459 C56.3462888,24.6782359 56.2778132,25.0006459 56.1409718,25.2958859 C56.0041304,25.5911259 55.8024347,25.8514959 55.5510284,26.0575259 C55.021879,26.5099559 54.2768779,26.7350159 53.3158057,26.7329259 C52.4909165,26.7804459 51.6742575,26.5457059 50.9997072,26.0672059 C50.7235005,25.8508359 50.5027106,25.5714359 50.3557735,25.2524359 C50.2087266,24.9333259 50.1395926,24.5837459 50.1542973,24.2326259 L51.6379347,24.2359259 Z" id="Path" fill="#003057"></path>
                <polygon id="Path" fill="#003057" points="58.7026605 26.5448259 57.1542786 26.5448259 57.1542786 19.0764859 58.7026605 19.0764859"></polygon>
                <polygon id="Path" fill="#003057" points="59.9272101 19.0666959 61.546811 19.0666959 64.5107938 24.2621059 64.5107938 19.0666959 65.9619492 19.0666959 65.9619492 26.5350359 64.4039104 26.5350359 61.3654166 21.2292959 61.3654166 26.5350359 59.9272101 26.5350359"></polygon>
                <polygon id="Path" fill="#003057" points="72.7062445 20.3883459 68.7574864 20.3883459 68.7574864 21.9761959 72.3823024 21.9761959 72.3823024 23.2749659 68.7574864 23.2749659 68.7574864 25.2005159 72.8843468 25.2005159 72.8843468 26.5448259 67.2350023 26.5448259 67.2350023 19.0764859 72.7062445 19.0764859"></polygon>
                <path d="M74.9089852,24.2359259 C74.9308228,24.5124659 75.0283785,24.7775659 75.1907885,25.0021859 C75.4498764,25.3106259 75.8936508,25.4633059 76.5189293,25.4633059 C76.8290447,25.4719959 77.138721,25.4304159 77.4355583,25.3398859 C77.628475,25.2932459 77.7995542,25.1817059 77.9203741,25.0239659 C78.041194,24.8662259 78.1045119,24.6717459 78.0996835,24.4729759 C78.1012199,24.3573659 78.0721397,24.2435159 78.0151864,24.1430859 C77.9582332,24.0426559 77.8756016,23.9591659 77.7757414,23.9014159 C77.4505922,23.7309159 77.100862,23.6126659 76.7391705,23.5507359 L75.9326072,23.3722059 C75.3574782,23.2773859 74.8030895,23.0841159 74.2934732,22.8006459 C74.0398721,22.6173859 73.837518,22.3717559 73.705944,22.0874059 C73.5743699,21.8030559 73.5178556,21.4896659 73.5419977,21.1771559 C73.5355232,20.8620059 73.598073,20.5492759 73.7251479,20.2609659 C73.852113,19.9726559 74.0406403,19.7156959 74.2772322,19.5081259 C74.7696198,19.0664759 75.4920152,18.8425159 76.4476006,18.8425159 C77.175812,18.8227159 77.890416,19.0428259 78.4818958,19.4691859 C78.762492,19.6815959 78.9887686,19.9578059 79.1419608,20.2751559 C79.2951529,20.5923959 79.3708711,20.9416459 79.3629701,21.2939759 L77.8663837,21.2939759 C77.8671519,21.0913559 77.8110766,20.8925859 77.7045224,20.7203259 C77.5979683,20.5480659 77.4453248,20.4093559 77.2639304,20.3199259 C76.9724703,20.1866059 76.6544539,20.1221459 76.3342428,20.1316059 C75.9936207,20.1169759 75.6560713,20.2015659 75.3624164,20.3751459 C75.2464249,20.4460959 75.1510639,20.5464159 75.0862096,20.6662059 C75.0213554,20.7859959 74.9893123,20.9207459 74.9931531,21.0570359 C74.9904097,21.1808959 75.0232209,21.3029959 75.0874167,21.4088159 C75.1517223,21.5147459 75.2448886,21.5999959 75.3559419,21.6544459 C75.6732999,21.7955759 76.0059112,21.8991959 76.3471917,21.9628859 L77.6429602,22.2876059 C78.1080235,22.3750559 78.5496032,22.5598559 78.9386191,22.8299059 C79.1623718,23.0132759 79.3394865,23.2471359 79.4554779,23.5124559 C79.5714694,23.7777759 79.6230456,24.0668559 79.6059267,24.3560459 C79.6108648,24.6815359 79.5423893,25.0039459 79.4055478,25.2991859 C79.2685967,25.5943159 79.0670108,25.8546859 78.8154947,26.0607159 C78.2886498,26.5131459 77.543539,26.7383159 76.5803818,26.7361159 C75.7553828,26.7841859 74.938614,26.5494459 74.2642833,26.0705059 C73.9880765,25.8540259 73.7672867,25.5747359 73.6202398,25.2556259 C73.4731929,24.9366259 73.4041686,24.5870459 73.4188733,24.2359259 L74.9089852,24.2359259 Z" id="Path" fill="#003057"></path>
                <path d="M81.630565,24.2359259 C81.6535,24.5127959 81.7521531,24.7778959 81.9156604,25.0021859 C82.171566,25.3106259 82.6153403,25.4633059 83.2438013,25.4633059 C83.552929,25.4723259 83.861508,25.4306359 84.1572478,25.3398859 C84.3507133,25.2937959 84.5225606,25.1825859 84.6440389,25.0248459 C84.7654075,24.8669959 84.8291644,24.6721859 84.8245555,24.4729759 C84.8260918,24.3573659 84.7970116,24.2435159 84.7400584,24.1430859 C84.6831051,24.0426559 84.6004736,23.9591659 84.5006133,23.9014159 C84.1756836,23.7304759 83.8258436,23.6121159 83.4640424,23.5507359 L82.6574792,23.3722059 C82.0835573,23.2769459 81.5302659,23.0836759 81.0216372,22.8006459 C80.7675972,22.6174959 80.5648042,22.3719759 80.4326814,22.0877359 C80.3005587,21.8033859 80.243386,21.4898859 80.2668696,21.1771559 C80.2603951,20.8616759 80.3232742,20.5486159 80.4508977,20.2603059 C80.5785212,19.9718859 80.7678167,19.7150359 81.0053962,19.5081259 C81.4977839,19.0664759 82.2201792,18.8425159 83.1724725,18.8425159 C83.9017813,18.8227159 84.617373,19.0428259 85.2100598,19.4691859 C85.4895586,19.6820359 85.7152866,19.9578059 85.8689177,20.2742759 C86.0225488,20.5906359 86.0998033,20.9388959 86.0943165,21.2907859 L84.5945478,21.2907859 C84.5960841,21.0879459 84.5402282,20.8888459 84.4336741,20.7164759 C84.3270102,20.5441059 84.1739278,20.4055059 83.9920944,20.3166259 C83.700744,20.1830859 83.3826179,20.1186259 83.0624068,20.1283059 C82.7217847,20.1137859 82.3842353,20.1983759 82.0905804,20.3718459 C81.9744792,20.4427959 81.8792279,20.5432259 81.8143737,20.6630159 C81.7495194,20.7826959 81.7173666,20.9175559 81.7213171,21.0537359 C81.7189029,21.1780359 81.7520433,21.3003559 81.8170073,21.4062859 C81.8818616,21.5121059 81.9756863,21.5971359 82.0872883,21.6512559 C82.4046463,21.7923859 82.7372576,21.8958959 83.0785381,21.9596959 L84.3743066,22.2844159 C84.8398088,22.3705459 85.2814982,22.5554559 85.6699654,22.8266059 C85.8937182,23.0099759 86.0708329,23.2439459 86.1868243,23.5092659 C86.3028158,23.7744759 86.354392,24.0636659 86.3372731,24.3527459 C86.3429794,24.6783459 86.274833,25.0009759 86.1378819,25.2963259 C86.0009307,25.5916759 85.7989058,25.8519359 85.5469508,26.0575259 C85.0178014,26.5099559 84.2738977,26.7350159 83.3150202,26.7329259 C82.4890336,26.7808859 81.6711675,26.5461459 80.9957394,26.0672059 C80.7198619,25.8506159 80.499511,25.5712159 80.3530127,25.2521059 C80.2066243,24.9329959 80.1381487,24.5835259 80.1535118,24.2326259 L81.630565,24.2359259 Z" id="Path" fill="#003057"></path>
                <path d="M88.381225,20.8395659 C88.2176079,21.0024759 88.0094378,21.1129159 87.7830514,21.1569159 C87.556665,21.2009159 87.3223776,21.1764959 87.1099277,21.0867359 C86.8973681,20.9968659 86.7163029,20.8458359 86.5897767,20.6526759 C86.4631408,20.4595159 86.3966405,20.2329159 86.3987255,20.0018059 C86.3955432,19.8419759 86.4264888,19.6833559 86.4896971,19.5366159 C86.5527955,19.3897659 86.6466203,19.2583159 86.7648065,19.1510659 C86.9789024,18.9421759 87.2660828,18.8255759 87.5648952,18.8263422 C87.7964393,18.8273359 88.0224964,18.8971859 88.2144256,19.0270959 C88.406245,19.1568959 88.5553769,19.3410359 88.6428368,19.5558659 C88.7302968,19.7708059 88.7520247,20.0069759 88.7054964,20.2343459 C88.6589681,20.4616059 88.5460493,20.6700559 88.381225,20.8330759 L88.381225,20.8395659 Z M86.8814564,19.3264059 C86.703354,19.5084559 86.6036035,19.7533159 86.6036035,20.0082959 C86.6036035,20.2632759 86.703354,20.5080259 86.8814564,20.6901859 C86.9703429,20.7804959 87.0762386,20.8522159 87.1929983,20.9011659 C87.3097579,20.9501159 87.435077,20.9753059 87.5617129,20.9753059 C87.6882391,20.9753059 87.8135581,20.9501159 87.9303178,20.9011659 C88.0470774,20.8522159 88.1529731,20.7804959 88.2419694,20.6901859 C88.332941,20.6005359 88.4048184,20.4932859 88.4533219,20.3749259 C88.5017157,20.2565659 88.525748,20.1296259 88.5237727,20.0018059 C88.5246506,19.8759659 88.5001794,19.7512259 88.4517856,19.6351759 C88.4033918,19.5191259 88.3319534,19.4140759 88.2419694,19.3264059 C88.153851,19.2338959 88.048065,19.1604159 87.9308665,19.1100359 C87.8136679,19.0597659 87.6875807,19.0339159 87.5600668,19.0339159 C87.432553,19.0339159 87.3064658,19.0597659 87.1892672,19.1100359 C87.0720686,19.1604159 86.9661729,19.2338959 86.8781643,19.3264059 L86.8814564,19.3264059 Z M87.0563763,20.6512459 L87.0563763,19.3523659 L87.6815451,19.3523659 C87.770322,19.3586359 87.8572333,19.3817359 87.9374507,19.4205659 C87.9926481,19.4498259 88.0382985,19.4945959 88.0688052,19.5493759 C88.0992022,19.6040459 88.1132485,19.6665259 88.1090785,19.7290059 C88.1128096,19.7727859 88.1064449,19.8168959 88.0907525,19.8579259 C88.0750602,19.8989559 88.0503695,19.9359159 88.0184362,19.9660559 C87.9541306,20.0162159 87.8762177,20.0456959 87.7949029,20.0505359 C87.8607448,20.0613159 87.9230752,20.0880459 87.9762974,20.1284159 C88.0177778,20.1632859 88.0499306,20.2079459 88.0696831,20.2584359 C88.0895454,20.3089259 88.0963491,20.3635959 88.0896552,20.4173859 L88.0896552,20.5343159 C88.0896552,20.5343159 88.0896552,20.5570859 88.0896552,20.5700659 L88.0896552,20.6090059 L88.0896552,20.6446459 L87.765713,20.6446459 C87.754081,20.5857959 87.7465092,20.5260659 87.7431073,20.4661159 C87.7432171,20.4124359 87.7366329,20.3589759 87.723684,20.3069459 C87.7156732,20.2853859 87.7031632,20.2658059 87.6869222,20.2496359 C87.670791,20.2333559 87.6512579,20.2208159 87.6297495,20.2127859 C87.5918904,20.2010159 87.5527145,20.1944159 87.5130996,20.1933159 L87.4385885,20.1933159 L87.3673696,20.1933159 L87.3673696,20.6512459 L87.0563763,20.6512459 Z M87.6717786,19.6120759 C87.6078022,19.5926059 87.5410824,19.5838059 87.4742529,19.5861159 L87.3932674,19.5861159 L87.3932674,19.9595659 L87.5260485,19.9595659 C87.5907931,19.9633059 87.6550986,19.9474659 87.7107351,19.9141359 C87.7330116,19.8951059 87.7505694,19.8711259 87.7618723,19.8440659 C87.7730654,19.8168959 87.7777841,19.7875259 87.7754796,19.7582659 C87.7736141,19.7281259 87.7627502,19.6993059 87.7442047,19.6755459 C87.725769,19.6517859 87.7005296,19.6341859 87.6717786,19.6251659 L87.6717786,19.6120759 Z" id="Shape" fill="#003057"></path>
            </g>
        </g>
    </g>
</svg>