<svg width="2197" height="300" viewBox="0 0 2197 300" fill="none" xmlns="http://www.w3.org/2000/svg">
<path fill-rule="evenodd" clip-rule="evenodd" d="M1011 0L1011 300L1001 300L1001 -8.74228e-07L1011 0Z" fill="white"/>
<path d="M2196.17 68.1797H2171.87V223.25H2196.17V68.1797Z" fill="white"/>
<path fill-rule="evenodd" clip-rule="evenodd" d="M2110.89 120.173C2088.46 120.173 2071.07 131.059 2068.13 153.282H2092.01C2093.7 144.902 2099.88 139.87 2110.89 139.87C2123.67 139.87 2129.54 147.202 2129.54 158.725V163.962H2105.02C2082.42 163.962 2065.72 174.026 2065.72 194.565C2065.72 215.104 2079.34 225.785 2099.04 225.785C2114.34 225.785 2124.4 219.274 2129.85 208.799H2130.9V223.176H2153.94V159.505C2153.84 134.94 2141.27 120.173 2110.89 120.173ZM2105.96 207.135C2096.53 207.135 2090.66 202.514 2090.66 194.812C2090.66 186.001 2096.94 181.4 2108.26 181.4H2129.42L2129.54 182.858C2129.54 198.098 2120.73 207.135 2105.96 207.135Z" fill="white"/>
<path fill-rule="evenodd" clip-rule="evenodd" d="M2022.65 223.252V171.082C2022.65 155.575 2032.31 145.717 2047.59 145.717H2057.16V122.672H2047.3C2035.78 122.672 2027.4 127.067 2022.16 136.926H2021.32V122.672H1998.48V223.313L2022.65 223.252Z" fill="white"/>
<path fill-rule="evenodd" clip-rule="evenodd" d="M1983.05 201.067V223.27H1966.5C1943.23 223.27 1930.45 212.487 1930.45 189.216V142.654H1913.9V122.69H1930.45V95.9893H1954.77V122.69H1983.05V142.654H1954.77V186.402C1954.77 195.624 1960.21 201.067 1969.43 201.067H1983.05Z" fill="white"/>
<path fill-rule="evenodd" clip-rule="evenodd" d="M1834.27 223.258V165.01C1834.27 150.756 1843.08 141.431 1857.32 141.431C1870.93 141.431 1879.11 149.297 1879.11 164.702V223.258H1903.45V160.82C1903.45 135.454 1891.12 120.173 1865.94 120.173C1850.62 120.173 1838.91 127.074 1833.68 136.501H1832.81V122.679H1810.03V223.32L1834.27 223.258Z" fill="white"/>
<path fill-rule="evenodd" clip-rule="evenodd" d="M1744.92 205.894C1729.62 205.894 1719.35 195.624 1718.94 179.481H1793.34L1793.23 171.614C1793.23 137.889 1771.44 120.267 1744.82 120.267C1716.07 120.267 1695.06 140.806 1695.06 173.073C1695.06 205.339 1714.55 225.879 1744.82 225.879C1770.17 225.879 1786.72 212.467 1791.55 192.77H1767.97C1765.36 200.328 1758.95 205.894 1744.92 205.894ZM1744.82 140.395C1760.74 140.395 1770.17 149.412 1770.8 161.981H1718.84C1721.14 149.206 1728.88 140.395 1744.82 140.395Z" fill="white"/>
<path fill-rule="evenodd" clip-rule="evenodd" d="M1622.33 225.974C1658.58 225.974 1679.12 205.867 1683.94 176.003H1659.3C1655.64 189.62 1645.72 202.19 1622.33 202.19C1598.23 202.19 1578.95 185.759 1578.95 149.795C1578.95 113.831 1598.23 97.4408 1622.33 97.4408C1646.42 97.4408 1656.07 110.011 1659.3 123.423H1683.94C1679.96 93.5589 1659.73 74.1289 1622.33 74.1289C1582.09 74.1289 1552.97 102.206 1552.97 150.123C1552.97 198.041 1582.09 226.118 1622.33 226.118V225.974Z" fill="white"/>
<path fill-rule="evenodd" clip-rule="evenodd" d="M1513.47 122.713V136.515H1512.32C1506.88 126.882 1495.56 120.187 1479.46 120.187C1455.88 120.187 1434.62 138.836 1434.62 171.74C1434.62 204.643 1455.57 223.498 1479.46 223.498C1494.97 223.498 1504.11 217.193 1511.11 206.512H1512.22V227.709C1512.22 239.026 1505.93 244.263 1495.67 244.263H1446.37V265.911H1495.19C1522.22 265.911 1536.68 250.815 1536.68 226.086V122.713H1513.47ZM1486.14 201.501C1469.99 201.501 1459.72 191.457 1459.72 171.76C1459.72 152.063 1469.89 141.999 1486.14 141.999C1501.85 141.999 1512.32 152.043 1512.32 171.76C1512.32 191.478 1501.95 201.501 1486.14 201.501Z" fill="white"/>
<path fill-rule="evenodd" clip-rule="evenodd" d="M1350.64 223.284V165.035C1350.64 150.781 1359.45 141.456 1373.7 141.456C1387.32 141.456 1395.5 149.323 1395.5 164.727V223.284H1419.79V160.845C1419.79 135.479 1407.47 120.198 1382.29 120.198C1366.99 120.198 1355.16 127.099 1349.92 136.527H1349.08V122.704H1326.34V223.345L1350.64 223.284Z" fill="white"/>
<path d="M1305.8 122.688H1281.5V223.267H1305.8V122.688Z" fill="white"/>
<path fill-rule="evenodd" clip-rule="evenodd" d="M1239.17 153.896V152.91C1254.04 148.802 1264.11 138.82 1264.11 116.392C1264.11 93.3468 1246.91 76.5664 1215.06 76.5664H1161V223.257H1186.14V165.008H1216.74C1231 165.008 1238.12 172.135 1238.12 186.389V223.359H1263.26V186.389C1263.26 165.644 1254.45 157.264 1239.17 153.896ZM1213.7 142.374H1186.14V99.2416H1213.7C1227.32 99.2416 1237.8 104.91 1237.8 120.828C1237.8 136.746 1227.22 142.374 1213.7 142.374Z" fill="white"/>
<path fill-rule="evenodd" clip-rule="evenodd" d="M1293.64 106.555C1296.84 106.559 1299.96 105.615 1302.62 103.843C1305.28 102.071 1307.35 99.5494 1308.57 96.5987C1309.8 93.648 1310.12 90.4003 1309.5 87.2669C1308.88 84.1334 1307.34 81.255 1305.08 78.996C1302.82 76.737 1299.94 75.199 1296.81 74.5768C1293.67 73.9545 1290.43 74.276 1287.48 75.5004C1284.52 76.7248 1282 78.7972 1280.23 81.4551C1278.46 84.1131 1277.52 87.2372 1277.52 90.4318C1277.49 93.6297 1278.42 96.7623 1280.2 99.4243C1281.97 102.086 1284.5 104.155 1287.46 105.364C1289.42 106.178 1291.52 106.583 1293.64 106.555Z" fill="white"/>
<path fill-rule="evenodd" clip-rule="evenodd" d="M1275.11 45.6845C1269.23 48.1481 1263.88 51.7417 1259.38 56.2622L1270.78 67.6614C1273.77 64.6562 1277.32 62.2691 1281.23 60.6364C1285.14 59.0038 1289.34 58.1576 1293.57 58.1462C1297.81 58.1347 1302.01 58.9583 1305.93 60.5697C1309.85 62.1812 1313.41 64.5491 1316.42 67.5381L1327.82 56.1389C1321.05 49.3837 1312.43 44.7855 1303.05 42.9248C1293.67 41.0642 1283.95 42.0245 1275.11 45.6845Z" fill="white"/>
<path d="M15.6016 172.245C24.4465 179.81 37.7039 183.582 55.3739 183.562C72.5515 183.562 85.8187 179.918 95.1758 172.629C104.612 164.907 109.33 153.994 109.33 139.89C109.468 133.632 107.993 127.445 105.045 121.924C101.986 116.549 97.413 112.191 91.8959 109.395C88.6337 107.757 85.2194 106.441 81.7017 105.466C76.9148 103.988 53.1283 97.4874 50.7053 96.8669C37.4675 93.6461 29.0462 89.2138 28.9871 81.3835C29.6667 66.2251 43.7613 64.984 51.5917 64.984C58.3403 64.6246 65.0304 66.4031 70.7096 70.0663C73.0639 71.7347 74.9755 73.9525 76.2783 76.5272C77.5811 79.1019 78.2357 81.9555 78.1854 84.8406H104.779C104.73 78.8875 103.456 73.0082 101.036 67.5688C98.616 62.1295 95.1026 57.2465 90.714 53.2237C82.1449 45.9548 69.9217 42.3203 54.0443 42.3203C37.1425 42.3203 24.2791 45.8267 15.4539 52.8396C11.067 56.4796 7.58528 61.0886 5.28299 66.3033C2.9807 71.5181 1.92075 77.1962 2.18661 82.8904C2.18661 99.2603 9.98737 108.893 16.9608 113.296C25.3221 117.588 34.2901 120.578 43.5545 122.16L54.1033 124.465C72.3939 128.897 82.8836 134.541 82.5586 143.613C82.6259 146.044 82.0921 148.454 81.0045 150.629C79.9169 152.804 78.3091 154.677 76.3238 156.082C70.7364 159.219 64.3731 160.705 57.9742 160.367C50.4362 160.786 42.9504 158.888 36.5219 154.93C31.5972 151.798 28.6423 146.331 27.6574 138.53H0C0.768262 153.364 5.9688 164.543 15.6016 172.068" fill="#002A4E"/>
<path d="M186.153 130.022C186.153 119.828 184.291 98.2575 163.4 98.2575C143.603 98.2575 141.475 119.296 141.475 130.022C141.475 157.148 156.87 160.575 164.198 160.575C183.139 160.575 186.153 140.482 186.153 130.022ZM141.475 206.848C141.487 208.602 141.15 210.34 140.485 211.962C139.819 213.584 138.838 215.058 137.598 216.298C136.359 217.538 134.885 218.519 133.263 219.184C131.641 219.85 129.902 220.186 128.149 220.175H114.823V122.635C116.359 96.6618 125.815 75.9484 165.232 74.5596C182.311 74.7664 194.781 81.5625 201.991 90.102C209.851 100.296 213.19 112.943 213.19 128.899C213.19 145.368 209.25 158.694 201.37 168.878C197.877 173.561 193.319 177.344 188.072 179.913C182.825 182.483 177.042 183.765 171.201 183.653C160.528 184.017 150.037 180.815 141.387 174.552C141.387 175.438 141.387 206.789 141.387 206.789" fill="#002A4E"/>
<path d="M268.122 160.306C261.385 159.951 248.502 158.622 247.438 136.106H315.045V127.98C314.572 111.019 310.524 98.4313 302.576 88.8871C293.967 79.5301 281.872 74.8516 266.29 74.8516C251.496 74.8516 239.933 79.6581 231.6 89.2713C223.267 98.8844 219.229 111.886 219.485 128.275C219.485 145.709 223.651 159.104 231.984 168.461C240.317 177.818 251.88 182.625 266.674 182.881C277.516 183.336 288.207 180.222 297.109 174.017C305.419 167.949 311.254 159.08 313.538 149.048H290.047C286.59 158.829 277.755 160.867 268.24 160.395L268.122 160.306ZM267.088 97.5744C283.842 97.3675 286.442 111.61 286.974 118.643H247.083C247.083 118.643 246.729 97.9585 266.97 97.5744" fill="#002A4E"/>
<path d="M389.448 148.988H415.096C415.096 148.988 408.123 182.909 369.355 182.909C330.588 182.909 321.132 151.824 321.132 131.495C321.132 111.165 324.767 76.2095 367.907 74.9684C407.739 74.3775 414.299 108.89 414.299 108.89H387.084C387.084 108.89 384.455 97.2185 368.203 97.6026C351.951 97.9868 347.696 113.234 347.696 127.742C347.696 142.25 351.301 160.246 369.355 160.246C386.523 160.777 388.03 151.381 389.537 148.958" fill="#002A4E"/>
<path d="M448.163 104.904H464.208V77.5719H448.192V60.0201C448.3 58.2849 448.044 56.5464 447.442 54.9156C446.84 53.2848 445.904 51.7976 444.694 50.549C443.484 49.3004 442.028 48.3179 440.417 47.6642C438.806 47.0105 437.076 46.7002 435.339 46.7528H421.303V161.431C421.303 173.398 425.942 180.549 436.077 180.549H448.281L448.163 104.904Z" fill="#002A4E"/>
<path d="M492.78 180.787V127.334C492.78 119.533 494.582 113.83 498.246 110.196C501.91 106.561 507.465 104.729 515 104.729H523.865V77.0424C515.655 76.8819 507.46 77.7958 499.487 79.7608C493.211 81.4837 487.324 84.3925 482.142 88.33C476.732 92.7495 472.508 98.4464 469.85 104.907C466.636 113.034 465.108 121.73 465.359 130.466V180.699L492.78 180.787Z" fill="#002A4E"/>
<path d="M531.694 77.1836H558.997V143.491C558.997 143.491 558.022 161.426 576.933 161.426C579.287 161.607 581.654 161.296 583.881 160.512C586.109 159.729 588.149 158.49 589.872 156.876C591.595 155.261 592.963 153.305 593.89 151.133C594.816 148.961 595.28 146.62 595.253 144.259V90.1259C595.253 90.1259 596.198 77.2427 608.018 77.2427H622.172V138.822C621.994 142.19 625.747 182.967 576.933 182.79C528.591 182.79 532.019 141.422 531.694 139.117V77.1836Z" fill="#002A4E"/>
<path d="M720.779 181.106H693.712V114.474C693.712 106.791 690.551 96.4493 675.303 96.4493C660.056 96.4493 657.279 108.269 657.279 114.474V181.106H629.828V119.94C629.828 102.211 635.088 91.3373 643.746 84.2752C652.403 77.2131 663.277 74.997 674.506 74.4947C680.47 74.4778 686.417 75.132 692.235 76.4449C698.015 77.7642 703.395 80.4493 707.925 84.2752C711.957 80.8406 716.715 78.3654 721.842 77.0359C727.264 75.4691 732.866 74.6148 738.508 74.4947C771.957 74.3174 785.401 89.6236 786.495 94.5582V181.106H771.011C769.253 181.134 767.508 180.808 765.878 180.148C764.249 179.489 762.769 178.508 761.526 177.265C760.283 176.022 759.302 174.542 758.642 172.912C757.982 171.283 757.657 169.537 757.685 167.779V114.592C757.685 107.028 755.084 96.5674 739.246 96.5674C723.408 96.5674 720.838 108.387 720.838 114.592L720.779 181.106Z" fill="#002A4E"/>
<path d="M794.031 94.5049V180.993L851 137.764L794.031 94.5049Z" fill="#0099D8"/>
<path d="M380.942 223.096C383.091 226.11 384.21 229.737 384.133 233.438C384.303 237.056 383.183 240.616 380.971 243.485C379.526 245.11 377.767 246.426 375.8 247.355C379.007 248.391 381.775 250.472 383.66 253.265C385.477 256.262 386.39 259.72 386.29 263.223C386.364 267.055 385.339 270.829 383.335 274.097C382.077 276.164 380.443 277.978 378.519 279.445C376.241 281.151 373.603 282.313 370.807 282.843C367.647 283.49 364.429 283.807 361.203 283.789H330.414V215.827H363.449C371.664 215.945 377.494 218.368 380.942 223.096ZM344.006 227.676V242.657H360.494C363.006 242.768 365.501 242.185 367.704 240.973C368.652 240.325 369.409 239.435 369.897 238.396C370.386 237.357 370.587 236.206 370.482 235.063C370.624 233.764 370.345 232.453 369.685 231.325C369.025 230.197 368.02 229.311 366.818 228.799C364.212 228.019 361.499 227.66 358.78 227.735L344.006 227.676ZM344.006 253.945V272.087H360.494C362.85 272.194 365.201 271.78 367.379 270.876C368.886 270.071 370.116 268.832 370.912 267.321C371.707 265.809 372.031 264.093 371.841 262.396C371.967 260.882 371.619 259.367 370.846 258.059C370.074 256.752 368.914 255.717 367.527 255.097C365.362 254.261 363.05 253.869 360.731 253.945H344.006Z" fill="#002A4E"/>
<path d="M395.002 215.827H409.451V257.609C409.23 261.107 409.795 264.611 411.106 267.862C412.82 271.674 416.543 273.565 422.334 273.565C428.126 273.565 431.79 271.674 433.504 267.862C434.799 264.607 435.364 261.106 435.159 257.609V215.827H449.608V257.638C449.911 263.465 448.753 269.275 446.239 274.54C442.083 281.927 434.115 285.621 422.334 285.621C410.515 285.621 402.567 281.927 398.341 274.54C395.856 269.266 394.709 263.461 395.002 257.638V215.827Z" fill="#002A4E"/>
<path d="M471.034 262.87C471.249 265.383 472.137 267.792 473.605 269.843C475.969 272.65 480.017 274.039 485.72 274.039C488.55 274.119 491.374 273.739 494.082 272.916C495.847 272.497 497.414 271.485 498.522 270.049C499.63 268.613 500.211 266.84 500.169 265.027C500.184 263.975 499.918 262.939 499.398 262.025C498.879 261.111 498.125 260.352 497.214 259.826C494.248 258.275 491.058 257.198 487.759 256.635L480.401 255.01C475.165 254.149 470.116 252.389 465.479 249.809C463.158 248.146 461.305 245.913 460.099 243.325C458.893 240.737 458.375 237.882 458.594 235.035C458.536 232.167 459.106 229.321 460.265 226.698C461.424 224.074 463.143 221.735 465.302 219.847C469.793 215.828 476.383 213.789 485.099 213.789C491.742 213.609 498.261 215.613 503.656 219.492C506.217 221.419 508.284 223.927 509.686 226.809C511.088 229.691 511.786 232.865 511.723 236.069H498.071C498.078 234.225 497.566 232.416 496.594 230.849C495.623 229.281 494.23 228.019 492.575 227.205C489.917 225.992 487.015 225.405 484.095 225.491C480.988 225.358 477.909 226.128 475.23 227.707C474.171 228.352 473.302 229.266 472.711 230.356C472.119 231.446 471.826 232.673 471.862 233.912C471.837 235.04 472.135 236.151 472.722 237.114C473.308 238.077 474.158 238.853 475.171 239.349C478.065 240.634 481.1 241.576 484.213 242.156L496.032 245.111C500.275 245.907 504.303 247.588 507.852 250.045C509.892 251.714 511.508 253.843 512.566 256.257C513.624 258.671 514.095 261.302 513.939 263.933C513.984 266.895 513.359 269.829 512.11 272.516C510.862 275.202 509.022 277.571 506.729 279.446C501.903 283.563 495.106 285.612 486.34 285.592C478.815 286.025 471.366 283.889 465.213 279.535C462.694 277.565 460.68 275.023 459.338 272.12C457.997 269.217 457.367 266.035 457.501 262.84L471.034 262.87Z" fill="#002A4E"/>
<path d="M535.477 283.879H521.353V215.917H535.477V283.879Z" fill="#002A4E"/>
<path d="M546.647 215.827H561.422L588.459 263.105V215.827H601.696V283.789H587.484L559.767 235.506V283.789H546.647V215.827Z" fill="#002A4E"/>
<path d="M663.219 227.855H627.199V242.304H660.264V254.123H627.199V271.645H664.844V283.879H613.311V215.917H663.219V227.855Z" fill="#002A4E"/>
<path d="M683.312 262.87C683.512 265.386 684.402 267.799 685.883 269.843C688.247 272.65 692.295 274.039 697.998 274.039C700.828 274.119 703.652 273.739 706.36 272.916C708.119 272.491 709.68 271.477 710.782 270.041C711.884 268.606 712.461 266.836 712.418 265.027C712.432 263.975 712.166 262.939 711.647 262.025C711.127 261.111 710.373 260.352 709.463 259.826C706.497 258.275 703.306 257.198 700.007 256.635L692.65 255.01C687.404 254.147 682.346 252.388 677.698 249.809C675.385 248.141 673.539 245.906 672.339 243.318C671.138 240.731 670.623 237.879 670.843 235.035C670.785 232.167 671.355 229.321 672.514 226.698C673.672 224.074 675.391 221.735 677.55 219.847C682.042 215.828 688.631 213.789 697.348 213.789C703.991 213.609 710.509 215.613 715.904 219.492C718.464 221.425 720.527 223.939 721.925 226.827C723.322 229.714 724.013 232.892 723.941 236.099H710.29C710.297 234.254 709.785 232.446 708.813 230.878C707.841 229.311 706.449 228.048 704.794 227.234C702.136 226.021 699.234 225.435 696.314 225.52C693.207 225.388 690.128 226.157 687.449 227.736C686.39 228.382 685.521 229.296 684.93 230.386C684.338 231.475 684.045 232.702 684.081 233.942C684.056 235.069 684.354 236.18 684.941 237.144C685.527 238.107 686.377 238.883 687.39 239.379C690.284 240.663 693.319 241.605 696.432 242.186L708.251 245.14C712.494 245.936 716.522 247.618 720.071 250.075C722.111 251.744 723.727 253.872 724.785 256.287C725.843 258.701 726.314 261.332 726.158 263.963C726.203 266.925 725.578 269.859 724.329 272.545C723.081 275.231 721.241 277.601 718.948 279.476C714.141 283.593 707.345 285.642 698.559 285.622C691.033 286.059 683.583 283.923 677.432 279.564C674.912 277.595 672.898 275.053 671.557 272.15C670.216 269.246 669.586 266.065 669.72 262.87H683.312Z" fill="#002A4E"/>
<path d="M744.624 262.87C744.832 265.389 745.732 267.802 747.224 269.843C749.558 272.65 753.606 274.039 759.339 274.039C762.159 274.121 764.974 273.742 767.671 272.916C769.436 272.497 771.004 271.485 772.112 270.049C773.219 268.613 773.801 266.84 773.758 265.027C773.773 263.975 773.507 262.939 772.988 262.025C772.468 261.111 771.714 260.352 770.804 259.826C767.84 258.27 764.649 257.193 761.348 256.635L753.991 255.01C748.755 254.143 743.708 252.384 739.069 249.809C736.752 248.142 734.902 245.908 733.697 243.321C732.491 240.734 731.97 237.881 732.184 235.035C732.125 232.164 732.698 229.316 733.862 226.691C735.027 224.067 736.754 221.73 738.921 219.847C743.412 215.828 750.002 213.789 758.689 213.789C765.341 213.61 771.869 215.613 777.275 219.492C779.825 221.429 781.884 223.939 783.285 226.818C784.687 229.698 785.391 232.867 785.342 236.069H771.661C771.674 234.223 771.165 232.412 770.193 230.843C769.22 229.274 767.824 228.013 766.165 227.205C763.507 225.989 760.605 225.402 757.684 225.491C754.577 225.358 751.499 226.128 748.82 227.707C747.761 228.352 746.892 229.266 746.3 230.356C745.709 231.446 745.416 232.673 745.451 233.912C745.429 235.043 745.732 236.156 746.324 237.12C746.916 238.084 747.772 238.857 748.79 239.349C751.684 240.634 754.719 241.576 757.832 242.156L769.651 245.111C773.897 245.895 777.927 247.578 781.471 250.045C783.511 251.714 785.127 253.843 786.185 256.257C787.243 258.671 787.714 261.302 787.558 263.933C787.61 266.896 786.987 269.832 785.738 272.52C784.489 275.207 782.646 277.576 780.348 279.446C775.522 283.563 768.735 285.612 759.989 285.592C752.454 286.029 744.994 283.893 738.832 279.535C736.316 277.564 734.306 275.021 732.97 272.117C731.634 269.214 731.01 266.033 731.15 262.84L744.624 262.87Z" fill="#002A4E"/>
<g clip-path="url(#clip0_1720_5814)">
<path d="M16.586 171.738C25.422 179.295 38.6662 183.064 56.3185 183.044C73.4788 183.044 86.7328 179.403 96.0805 172.122C105.507 164.408 110.22 153.505 110.22 139.415C110.359 133.164 108.884 126.983 105.94 121.467C102.884 116.097 98.3155 111.745 92.804 108.951C89.545 107.315 86.1341 106 82.6199 105.025C77.8378 103.549 54.0751 97.0552 51.6545 96.4353C38.43 93.2178 30.0171 88.7899 29.9581 80.9674C30.637 65.8242 44.7175 64.5843 52.5401 64.5843C59.2819 64.2253 65.9653 66.0021 71.6388 69.6616C73.9908 71.3283 75.9004 73.5439 77.2019 76.116C78.5034 78.6881 79.1573 81.5389 79.1071 84.4211H105.674C105.625 78.4739 104.352 72.6006 101.935 67.1666C99.5173 61.7327 96.0074 56.8546 91.6232 52.8359C83.0627 45.5742 70.8517 41.9434 54.9902 41.9434C38.1053 41.9434 25.2548 45.4463 16.4384 52.4521C12.056 56.0885 8.57769 60.6928 6.2777 65.9024C3.97771 71.1119 2.91883 76.7843 3.18442 82.4728C3.18442 98.8263 10.9774 108.45 17.9438 112.848C26.2967 117.136 35.2558 120.122 44.5109 121.704L55.0492 124.006C73.3214 128.434 83.8007 134.072 83.476 143.134C83.5432 145.563 83.01 147.971 81.9234 150.144C80.8369 152.317 79.2307 154.188 77.2474 155.591C71.6656 158.725 65.3086 160.209 58.9162 159.872C51.3857 160.29 43.9074 158.395 37.4854 154.44C32.5656 151.311 29.6137 145.85 28.6297 138.057H1C1.76749 152.876 6.96282 164.044 16.586 171.561" fill="white"/>
<path d="M186.969 129.552C186.969 119.368 185.109 97.8187 164.239 97.8187C144.461 97.8187 142.336 118.836 142.336 129.552C142.336 156.65 157.715 160.074 165.036 160.074C183.958 160.074 186.969 140.001 186.969 129.552ZM142.336 206.301C142.348 208.052 142.012 209.789 141.347 211.409C140.682 213.03 139.702 214.502 138.463 215.741C137.224 216.979 135.752 217.96 134.132 218.624C132.511 219.289 130.775 219.626 129.023 219.614H115.71V122.172C117.245 96.2247 126.691 75.5319 166.069 74.1445C183.131 74.3512 195.588 81.1405 202.791 89.6714C210.643 99.8555 213.979 112.49 213.979 128.43C213.979 144.882 210.043 158.195 202.171 168.369C198.682 173.047 194.128 176.826 188.886 179.393C183.645 181.96 177.867 183.24 172.032 183.128C161.369 183.492 150.889 180.293 142.248 174.037C142.248 174.922 142.248 206.242 142.248 206.242" fill="white"/>
<path d="M268.856 159.81C262.126 159.456 249.255 158.128 248.193 135.634H315.732V127.517C315.26 110.573 311.216 97.9975 303.275 88.4629C294.675 79.1152 282.592 74.4414 267.026 74.4414C252.247 74.4414 240.695 79.2432 232.371 88.8467C224.046 98.4502 220.012 111.439 220.268 127.812C220.268 145.228 224.43 158.61 232.754 167.958C241.079 177.305 252.63 182.107 267.41 182.363C278.24 182.817 288.921 179.707 297.814 173.507C306.115 167.445 311.945 158.586 314.227 148.564H290.759C287.305 158.334 278.479 160.371 268.974 159.899L268.856 159.81ZM267.823 97.1415C284.56 96.9349 287.158 111.163 287.689 118.189H247.838C247.838 118.189 247.484 97.5252 267.705 97.1415" fill="white"/>
<path d="M390.06 148.504H415.683C415.683 148.504 408.716 182.392 369.987 182.392C331.259 182.392 321.812 151.338 321.812 131.029C321.812 110.72 325.443 75.799 368.541 74.5593C408.333 73.9689 414.886 108.447 414.886 108.447H387.699C387.699 108.447 385.072 96.787 368.836 97.1708C352.601 97.5545 348.35 112.786 348.35 127.28C348.35 141.774 351.951 159.751 369.987 159.751C387.138 160.282 388.643 150.895 390.149 148.475" fill="white"/>
<path d="M448.715 104.463H464.743V77.1582H448.744V59.624C448.852 57.8906 448.596 56.1538 447.995 54.5246C447.393 52.8955 446.458 51.4097 445.25 50.1624C444.041 48.915 442.586 47.9335 440.976 47.2805C439.367 46.6275 437.639 46.3174 435.903 46.37H421.882V160.933C421.882 172.888 426.516 180.032 436.641 180.032H448.833L448.715 104.463Z" fill="white"/>
<path d="M493.287 180.266V126.867C493.287 119.074 495.088 113.376 498.748 109.746C502.409 106.115 507.958 104.285 515.486 104.285H524.341V76.6254C516.14 76.465 507.953 77.378 499.988 79.3411C493.719 81.0622 487.837 83.9682 482.661 87.9017C477.256 92.3168 473.036 98.0079 470.381 104.462C467.17 112.581 465.643 121.268 465.894 129.996V180.178L493.287 180.266Z" fill="white"/>
<path d="M532.164 76.7744H559.44V143.015C559.44 143.015 558.465 160.933 577.358 160.933C579.71 161.113 582.074 160.802 584.299 160.02C586.524 159.237 588.563 158 590.284 156.387C592.005 154.774 593.372 152.82 594.297 150.65C595.223 148.48 595.687 146.141 595.659 143.782V89.7037C595.659 89.7037 596.604 76.8335 608.411 76.8335H622.551V138.351C622.374 141.716 626.123 182.452 577.358 182.275C529.065 182.275 532.489 140.949 532.164 138.646V76.7744Z" fill="white"/>
<path d="M721.056 180.591H694.016V114.026C694.016 106.351 690.858 96.0191 675.626 96.0191C660.394 96.0191 657.619 107.827 657.619 114.026V180.591H630.196V119.487C630.196 101.775 635.451 90.9123 644.1 83.8573C652.749 76.8022 663.612 74.5883 674.829 74.0865C680.787 74.0696 686.728 74.7232 692.54 76.0347C698.315 77.3527 703.69 80.0351 708.215 83.8573C712.243 80.426 716.997 77.9533 722.118 76.6252C727.534 75.0599 733.131 74.2065 738.767 74.0865C772.182 73.9094 785.614 89.2002 786.706 94.1299V180.591H771.238C769.482 180.619 767.738 180.294 766.11 179.634C764.482 178.975 763.004 177.996 761.762 176.754C760.52 175.512 759.541 174.033 758.881 172.405C758.222 170.778 757.897 169.034 757.925 167.278V114.144C757.925 106.587 755.327 96.1371 739.505 96.1371C723.683 96.1371 721.115 107.945 721.115 114.144L721.056 180.591Z" fill="white"/>
<path d="M794.234 94.0703V180.472L851.146 137.286L794.234 94.0703Z" fill="white"/>
<path d="M381.558 222.539C383.705 225.55 384.823 229.173 384.746 232.871C384.916 236.485 383.797 240.042 381.587 242.907C380.143 244.53 378.386 245.846 376.422 246.774C379.625 247.809 382.39 249.887 384.274 252.678C386.089 255.672 387.001 259.126 386.901 262.626C386.975 266.454 385.95 270.224 383.949 273.489C382.692 275.554 381.06 277.366 379.137 278.832C376.861 280.535 374.226 281.697 371.433 282.226C368.276 282.872 365.061 283.189 361.839 283.171H331.081V215.277H364.083C372.289 215.395 378.114 217.816 381.558 222.539ZM344.659 227.114V242.081H361.131C363.641 242.191 366.132 241.609 368.333 240.398C369.28 239.75 370.037 238.862 370.524 237.824C371.012 236.786 371.214 235.636 371.108 234.494C371.251 233.196 370.972 231.887 370.313 230.76C369.653 229.633 368.649 228.748 367.448 228.236C364.845 227.457 362.135 227.098 359.419 227.173L344.659 227.114ZM344.659 253.357V271.481H361.131C363.484 271.587 365.833 271.174 368.009 270.271C369.514 269.467 370.743 268.23 371.538 266.719C372.332 265.209 372.656 263.495 372.466 261.799C372.592 260.287 372.245 258.773 371.473 257.467C370.701 256.161 369.542 255.127 368.156 254.508C365.993 253.672 363.684 253.281 361.367 253.357H344.659Z" fill="white"/>
<path d="M395.61 215.277H410.045V257.017C409.824 260.512 410.388 264.012 411.698 267.26C413.41 271.068 417.129 272.957 422.915 272.957C428.701 272.957 432.361 271.068 434.073 267.26C435.367 264.008 435.931 260.511 435.726 257.017V215.277H450.161V257.047C450.463 262.867 449.307 268.671 446.796 273.931C442.643 281.311 434.683 285.001 422.915 285.001C411.107 285.001 403.167 281.311 398.946 273.931C396.462 268.663 395.317 262.864 395.61 257.047V215.277Z" fill="white"/>
<path d="M471.562 262.27C471.777 264.78 472.664 267.187 474.13 269.236C476.492 272.04 480.536 273.428 486.233 273.428C489.06 273.507 491.881 273.129 494.587 272.306C496.35 271.887 497.916 270.876 499.022 269.442C500.129 268.007 500.71 266.236 500.668 264.425C500.682 263.374 500.417 262.339 499.898 261.426C499.379 260.513 498.626 259.754 497.716 259.229C494.753 257.679 491.566 256.604 488.27 256.041L480.92 254.418C475.688 253.557 470.645 251.8 466.013 249.222C463.694 247.561 461.843 245.33 460.638 242.744C459.433 240.159 458.916 237.307 459.135 234.463C459.077 231.598 459.646 228.755 460.804 226.134C461.961 223.513 463.679 221.177 465.836 219.29C470.322 215.275 476.905 213.239 485.613 213.239C492.249 213.059 498.761 215.06 504.151 218.936C506.71 220.861 508.774 223.366 510.175 226.245C511.576 229.124 512.274 232.295 512.21 235.496H498.572C498.579 233.654 498.068 231.847 497.097 230.281C496.126 228.715 494.735 227.454 493.082 226.64C490.426 225.429 487.527 224.843 484.61 224.928C481.506 224.796 478.43 225.565 475.754 227.142C474.696 227.787 473.828 228.7 473.237 229.789C472.646 230.877 472.353 232.103 472.389 233.341C472.364 234.468 472.662 235.577 473.248 236.54C473.834 237.502 474.683 238.277 475.695 238.773C478.586 240.056 481.618 240.997 484.728 241.577L496.535 244.529C500.774 245.324 504.797 247.003 508.343 249.458C510.381 251.125 511.995 253.252 513.053 255.664C514.11 258.075 514.58 260.704 514.424 263.332C514.469 266.291 513.845 269.222 512.597 271.906C511.35 274.59 509.512 276.957 507.221 278.83C502.4 282.943 495.61 284.989 486.853 284.97C479.335 285.402 471.894 283.268 465.747 278.918C463.23 276.951 461.218 274.411 459.878 271.511C458.538 268.61 457.909 265.432 458.042 262.24L471.562 262.27Z" fill="white"/>
<path d="M535.943 283.26H521.833V215.366H535.943V283.26Z" fill="white"/>
<path d="M547.101 215.277H561.86L588.87 262.508V215.277H602.094V283.171H587.896L560.207 234.937V283.171H547.101V215.277Z" fill="white"/>
<path d="M663.553 227.292H627.569V241.727H660.601V253.534H627.569V271.039H665.176V283.26H613.695V215.366H663.553V227.292Z" fill="white"/>
<path d="M683.626 262.27C683.826 264.784 684.714 267.194 686.194 269.236C688.556 272.04 692.6 273.428 698.297 273.428C701.124 273.507 703.945 273.129 706.651 272.306C708.408 271.882 709.967 270.868 711.068 269.434C712.169 268 712.746 266.232 712.702 264.425C712.717 263.374 712.451 262.339 711.932 261.426C711.413 260.513 710.66 259.754 709.75 259.229C706.788 257.679 703.6 256.604 700.304 256.041L692.954 254.418C687.714 253.556 682.661 251.799 678.018 249.222C675.706 247.556 673.863 245.323 672.664 242.738C671.464 240.153 670.95 237.304 671.169 234.463C671.111 231.598 671.681 228.755 672.838 226.134C673.996 223.513 675.713 221.177 677.87 219.29C682.357 215.275 688.94 213.239 697.648 213.239C704.284 213.059 710.796 215.06 716.185 218.936C718.743 220.867 720.804 223.378 722.2 226.263C723.596 229.147 724.287 232.322 724.215 235.525H710.577C710.584 233.683 710.072 231.876 709.102 230.31C708.131 228.744 706.739 227.483 705.086 226.67C702.431 225.458 699.532 224.872 696.614 224.958C693.511 224.825 690.435 225.594 687.759 227.172C686.701 227.817 685.833 228.729 685.242 229.818C684.651 230.907 684.358 232.132 684.394 233.371C684.369 234.497 684.667 235.607 685.253 236.569C685.839 237.532 686.688 238.307 687.7 238.802C690.591 240.085 693.623 241.027 696.733 241.606L708.54 244.558C712.779 245.353 716.802 247.033 720.348 249.488C722.386 251.155 724 253.281 725.057 255.693C726.114 258.105 726.584 260.733 726.429 263.362C726.474 266.321 725.849 269.252 724.602 271.936C723.355 274.619 721.517 276.986 719.226 278.859C714.424 282.972 707.635 285.019 698.858 284.999C691.34 285.436 683.897 283.302 677.752 278.948C675.235 276.98 673.223 274.441 671.883 271.54C670.543 268.64 669.914 265.462 670.047 262.27H683.626Z" fill="white"/>
<path d="M744.878 262.27C745.086 264.787 745.985 267.197 747.475 269.236C749.807 272.04 753.852 273.428 759.578 273.428C762.396 273.51 765.207 273.131 767.902 272.306C769.665 271.887 771.231 270.876 772.338 269.442C773.445 268.007 774.026 266.236 773.983 264.425C773.998 263.374 773.732 262.339 773.213 261.426C772.694 260.513 771.941 259.754 771.031 259.229C768.071 257.675 764.883 256.599 761.585 256.041L754.235 254.418C749.005 253.552 743.963 251.795 739.328 249.222C737.014 247.557 735.166 245.325 733.962 242.741C732.757 240.156 732.237 237.306 732.45 234.463C732.392 231.595 732.964 228.749 734.127 226.128C735.29 223.506 737.015 221.171 739.181 219.29C743.667 215.275 750.25 213.239 758.929 213.239C765.574 213.059 772.095 215.06 777.496 218.936C780.044 220.871 782.101 223.378 783.501 226.255C784.901 229.131 785.604 232.297 785.555 235.496H771.888C771.901 233.652 771.393 231.842 770.421 230.275C769.45 228.708 768.055 227.448 766.397 226.64C763.742 225.426 760.843 224.84 757.925 224.928C754.821 224.796 751.746 225.565 749.069 227.142C748.012 227.787 747.143 228.7 746.553 229.789C745.962 230.877 745.669 232.103 745.704 233.341C745.682 234.471 745.985 235.583 746.576 236.546C747.167 237.508 748.022 238.281 749.04 238.773C751.931 240.056 754.963 240.997 758.073 241.577L769.88 244.529C774.122 245.312 778.148 246.993 781.688 249.458C783.726 251.125 785.341 253.252 786.398 255.664C787.455 258.075 787.925 260.704 787.769 263.332C787.821 266.292 787.199 269.225 785.951 271.91C784.704 274.595 782.862 276.961 780.566 278.83C775.745 282.943 768.965 284.989 760.228 284.97C752.7 285.406 745.248 283.272 739.092 278.918C736.578 276.949 734.571 274.409 733.236 271.508C731.901 268.607 731.278 265.43 731.417 262.24L744.878 262.27Z" fill="white"/>
<path d="M806.395 231.394C804.904 232.875 803.007 233.879 800.944 234.279C798.881 234.679 796.746 234.457 794.81 233.641C792.873 232.824 791.223 231.451 790.07 229.695C788.916 227.939 788.31 225.879 788.329 223.778C788.3 222.325 788.582 220.883 789.158 219.549C789.733 218.214 790.588 217.019 791.665 216.044C793.616 214.145 796.233 213.085 798.956 213.092C801.066 213.101 803.126 213.736 804.875 214.917C806.623 216.097 807.982 217.771 808.779 219.724C809.576 221.678 809.774 223.825 809.35 225.892C808.926 227.958 807.897 229.853 806.395 231.335V231.394ZM792.728 217.638C791.105 219.293 790.196 221.519 790.196 223.837C790.196 226.155 791.105 228.38 792.728 230.036C793.538 230.857 794.503 231.509 795.567 231.954C796.631 232.399 797.773 232.628 798.927 232.628C800.08 232.628 801.222 232.399 802.286 231.954C803.35 231.509 804.315 230.857 805.126 230.036C805.955 229.221 806.61 228.246 807.052 227.17C807.493 226.094 807.712 224.94 807.694 223.778C807.702 222.634 807.479 221.5 807.038 220.445C806.597 219.39 805.946 218.435 805.126 217.638C804.323 216.797 803.359 216.129 802.291 215.671C801.223 215.214 800.074 214.979 798.912 214.979C797.75 214.979 796.601 215.214 795.533 215.671C794.465 216.129 793.5 216.797 792.698 217.638H792.728ZM794.322 229.682V217.874H800.019C800.828 217.931 801.62 218.141 802.351 218.494C802.854 218.76 803.27 219.167 803.548 219.665C803.825 220.162 803.953 220.73 803.915 221.298C803.949 221.696 803.891 222.097 803.748 222.47C803.605 222.843 803.38 223.179 803.089 223.453C802.503 223.909 801.793 224.177 801.052 224.221C801.652 224.319 802.22 224.562 802.705 224.929C803.083 225.246 803.376 225.652 803.556 226.111C803.737 226.57 803.799 227.067 803.738 227.556V228.619C803.738 228.619 803.738 228.826 803.738 228.944V229.298V229.622H800.786C800.68 229.087 800.611 228.544 800.58 227.999C800.581 227.511 800.521 227.025 800.403 226.552C800.33 226.356 800.216 226.178 800.068 226.031C799.921 225.883 799.743 225.769 799.547 225.696C799.202 225.589 798.845 225.529 798.484 225.519H797.805H797.156V229.682H794.322ZM799.93 220.235C799.347 220.058 798.739 219.978 798.13 219.999H797.392V223.394H798.602C799.192 223.428 799.778 223.284 800.285 222.981C800.488 222.808 800.648 222.59 800.751 222.344C800.853 222.097 800.896 221.83 800.875 221.564C800.858 221.29 800.759 221.028 800.59 220.812C800.422 220.596 800.192 220.436 799.93 220.354V220.235Z" fill="white"/>
</g>
<defs>
<clipPath id="clip0_1720_5814">
<rect width="850.146" height="243" fill="white" transform="translate(1 42)"/>
</clipPath>
</defs>
</svg>
