<svg xmlns="http://www.w3.org/2000/svg" width="184" height="36" viewBox="0 0 184 36"><path fill="#4B286D" d="M105 10.513v-3.6H92.1v18.6H105v-3.8h-7.7v-4.1h6.4v-3.6h-6.4v-3.5h7.7M127.8 21.812h-8.1V6.913h-5.3v18.6h13.4v-3.701M170.5 14.013c-3.6-.8-4.8-.9-4.8-2.3 0-1.3 1.8-1.7 2.8-1.7 1.7 0 3.6.4 5.6 1.4l1.4-3.4c-2-1.1-4.6-1.6-7.1-1.6-4.9 0-8.2 2-8.4 5.9-.1 3.6 2.7 4.9 5.4 5.4 2.6.5 5.199 1 5.199 2.5.101 1.399-1.199 2-3.6 2-2.2 0-4.3-.7-6.4-1.601l-1.199 3.7c2.399 1 4.899 1.601 7.399 1.601 3.5 0 6.101-.5 7.9-2.301 1.3-1.199 1.7-2.699 1.7-4.1.101-2.899-1.799-4.599-5.899-5.499M84.6 10.513v-3.6H68.3v3.6h5.5v15h5.3v-15h5.5M145.9 6.913v11.8c0 .899 0 1.2-.101 1.5-.2 1.1-1.3 1.8-3 1.8-1.3 0-2.2-.4-2.7-1.1-.199-.4-.3-1-.3-2v-12h-5.5v12.9c0 1.8.2 2.601 1 3.601 1.3 1.699 3.9 2.5 7.5 2.5H143c4.8 0 7.2-1.9 7.9-3.601.399-.8.399-1.2.399-2.899v-12.5H145.9M70.8 1.812L40 7.913v2.1h.1c20.4-4.9 30.7-7.9 30.8-7.9.1-.1.1-.1.1-.2s-.1-.2-.2-.101"/><path fill="#71BF45" d="M44.9 3.513c.5-.3.6-.1.5.2-.2.6-1.3 3.9-9 10.3-2 1.7-3.5 2.6-6.4 4.3 4.7-6.7 11.7-12.8 14.9-14.8m.8-2.3c-1.5.1-4.3 2.3-5.8 3.6-6 5.2-10.5 10.1-13.8 15.101-6.8 3.699-15.5 7.399-24.2 10.399l-.2.101L0 34.812l1-.399c5.5-2.101 14.7-6 23-10.4-.5 1.3-.7 2.4-.7 3.5 0 .8.1 1.5.4 2.2.5 1.3 1.6 2.3 3 2.899 2.1.801 5 .9 8.4-.1 8.5-2.6 18.5-10.5 20.7-12l.1-.1c.1-.101.1-.2.1-.2 0-.101-.1-.101-.2 0l-.1.1c-2.3 1.4-13.8 8.2-21.2 10.2-3.8 1-6.7.5-7.7-1.1-.4-.5-.6-1.2-.6-1.9 0-1.5.7-3.4 2.1-5.5 1.2-.7 2.4-1.4 3.5-2.1 7.2-4.101 15.6-12 15.9-16.8v-.1c0-.4-.2-.8-.5-1.2-.6-.5-1-.699-1.5-.599z"/><path fill="#4B286D" d="M39.9 7.913l-32.5 7-1.2 3.399L40 10.013v-2.1h-.1"/><g fill="#4B286D"><path d="M177.5 6.913h.6l1 2.7 1-2.7h.601v3.3h-.4v-2.8l-1 2.7H179l-1-2.7v2.7h-.4v-3.2h-.1zM181.3 6.913h1.101c1 0 1.6.5 1.6 1.6s-.5 1.7-1.6 1.7H181.3v-3.3zm.4 2.899h.7c.3 0 1.1-.1 1.1-1.3 0-.8-.3-1.2-1.1-1.2h-.7v2.5z"/></g></svg>