<svg xmlns="http://www.w3.org/2000/svg" width="32" height="32" viewBox="0 0 24 24"><g fill="#c00"><path d="M7.293.172l-.824 1.773c-.407.875-1.735 3.746-2.953 6.375a3479.089 3479.089 0 00-2.864 6.188L0 15.914l.008 1.117.015 1.11.418-.899c.73-1.594 3.586-7.75 5.778-12.484C7.39 2.23 8.363.125 8.375.078 8.398.008 8.352 0 7.891 0h-.512zm2.016.164c-.082.187-.82 1.777-1.637 3.531-5.59 12.07-6.598 14.242-7.106 15.32L0 20.395l.008 1.101.015 1.098.797-1.696.797-1.703 7.672-.015 7.676-.008-.211-.453a5.556 5.556 0 00-.227-.469c-.004-.012-3.254-.016-7.215-.016-4.316 0-7.203-.02-7.203-.043 0-.023.348-.785.77-1.699.422-.91 1.973-4.262 3.45-7.445C10.128.844 10.5.047 10.5.023 10.5.008 10.266 0 9.98 0h-.515zm2.363-.309c0 .02 1.406 3.051 3.121 6.743 1.723 3.687 3.832 8.214 4.687 10.058.86 1.844 1.957 4.203 2.442 5.25l.887 1.899.53.015c.419.008.524 0 .505-.047a358.14 358.14 0 00-1.664-3.578c-.899-1.937-2.617-5.625-3.82-8.203-1.2-2.578-2.962-6.367-3.919-8.414L12.707.023l-.52-.015c-.28-.004-.515 0-.515.02zm1.894.098c.032.078 1.196 2.57 2.582 5.547 1.387 2.976 2.95 6.332 3.47 7.453.523 1.121 1.663 3.566 2.53 5.438.872 1.87 1.645 3.523 1.715 3.68l.133.28-.012-1.171-.007-1.172-1.825-3.89a6493.46 6493.46 0 01-6.91-14.83L14.562 0h-1.066zm0 0"/><path d="M11.016.934c-.047.093-7.485 16.191-7.532 16.308-.02.04 1.254.055 6.286.055 3.468 0 6.308-.008 6.308-.02 0-.007-.098-.218-.215-.468l-.21-.45h-5.344c-5.184 0-5.344-.004-5.317-.09.04-.117 6.028-13.097 6.067-13.136.02-.02.246.433.511 1.008.266.57 2.446 5.273 4.852 10.445L20.785 24h1.059l-.114-.25c-.058-.129-2.261-4.883-4.902-10.555-2.633-5.672-5-10.765-5.258-11.32a36.674 36.674 0 00-.484-1.023c-.008-.008-.04.03-.07.082zm0 0"/><path d="M1.242 21.992C.777 23 .382 23.867.367 23.914c-.035.086-.008.086.504.078l.543-.015.64-1.415.641-1.417 7.621-.012 7.621-.016-.214-.484-.215-.477H2.086zm0 0"/></g></svg>