<?xml version="1.0" encoding="UTF-8"?>
<svg width="114px" height="28px" viewBox="0 0 114 28" version="1.1" xmlns="http://www.w3.org/2000/svg" xmlns:xlink="http://www.w3.org/1999/xlink">
    <!-- Generator: Sketch 55.2 (78181) - https://sketchapp.com -->
    <title>Group 11</title>
    <desc>Created with Sketch.</desc>
    <g id="VxD" stroke="none" stroke-width="1" fill="none" fill-rule="evenodd">
        <g id="att_welcome" transform="translate(-323.000000, -596.000000)">
            <g id="Group-11" transform="translate(323.000000, 595.000000)">
                <g id="label_rc" transform="translate(0.000000, 11.500000)">
                    <path d="M5.48796356,8.92576972 L4.68568727,13.6384224 L0.280550603,13.6384224 L2.61355036,0.114942748 L8.95793154,0.114942748 C9.93739769,0.114942748 10.7692056,0.174408397 11.4484334,0.293339695 C12.1276612,0.412270992 12.6789185,0.59562341 13.1071273,0.838441476 C13.5353361,1.08125954 13.8454184,1.38354326 14.037374,1.75024809 C14.2342517,2.11199746 14.3277685,2.54312341 14.3277685,3.04858142 C14.3277685,3.31122137 14.2933149,3.61846056 14.2342517,3.97029898 C14.0964373,4.74830789 13.796199,5.43711832 13.3286146,6.04664122 C12.8610303,6.65120865 12.221178,7.06251272 11.399214,7.27559796 C11.6748426,7.37470738 11.9209397,7.47877226 12.137505,7.58779262 C12.3540704,7.69185751 12.5411042,7.83061069 12.6986063,7.98918575 C12.8511864,8.15271628 12.9742349,8.35093511 13.0628298,8.58879771 C13.1514248,8.82666031 13.1957222,9.13389949 13.1957222,9.5055598 C13.1957222,9.89704198 13.1514248,10.3430344 13.0628298,10.8584033 C12.9742349,11.3341285 12.9053278,11.7305662 12.8561083,12.0427608 C12.8068889,12.3549555 12.7822792,12.5977735 12.7822792,12.7761705 C12.7822792,13.0734987 12.8954839,13.2271183 13.1169712,13.2271183 L13.0628298,13.6384224 L8.60355183,13.6384224 C8.57894213,13.5145356 8.56417631,13.370827 8.56417631,13.2072964 C8.56417631,12.9942112 8.57894213,12.7216603 8.60847377,12.3896438 C8.63800542,12.0625827 8.69214676,11.6859669 8.76597587,11.2746628 C8.83980497,10.8584033 8.8791805,10.5115204 8.8791805,10.2241031 C8.8791805,9.74837786 8.73152229,9.41636132 8.4411278,9.21814249 C8.15073332,9.02487913 7.60931987,8.93072519 6.82673135,8.93072519 L5.48796356,8.93072519 L5.48796356,8.92576972 Z M6.00968924,5.95744275 L7.74221226,5.95744275 C8.42636198,5.95744275 8.95793154,5.8632888 9.34676484,5.67498092 C9.73559813,5.48667303 9.96200739,5.15465649 10.0358365,4.6789313 C10.0506023,4.61451018 10.0555243,4.5253117 10.0555243,4.39646947 C10.0555243,4.00994275 9.91278798,3.72748092 9.62731544,3.5441285 C9.3418429,3.36077608 8.96777542,3.27157761 8.50511303,3.27157761 L6.45266388,3.27157761 L6.00968924,5.95744275 Z" id="Shape" fill="#0984BD"></path>
                    <path d="M20.5097257,3.79685751 L24.0535228,3.79685751 L23.7926599,5.33800891 C24.3389953,4.73839695 24.8951746,4.28744911 25.4513539,3.97525445 C26.0124551,3.66801527 26.6670731,3.51439567 27.4102861,3.51439567 C28.5029569,3.51439567 29.3052332,3.77208015 29.817115,4.28249364 C30.3289968,4.79290712 30.5800158,5.54118321 30.5800158,6.51741094 C30.5800158,6.90393766 30.5406402,7.31028626 30.4668111,7.73645674 L29.4578133,13.6334669 L25.5744024,13.6334669 L26.4701955,8.43022265 C26.509571,8.20227099 26.5292588,7.98918575 26.5292588,7.77114504 C26.5292588,7.43417303 26.4505078,7.1517112 26.2930057,6.92375954 C26.1355036,6.69580789 25.850031,6.58678753 25.4267442,6.58678753 C24.8311894,6.58678753 24.3931367,6.76518448 24.1224299,7.12197837 C23.8468013,7.47877226 23.6597675,7.97927481 23.5613287,8.61357506 L22.7049111,13.6285115 L18.8264221,13.6285115 L20.5097257,3.79685751 Z" id="Path" fill="#0984BD"></path>
                    <path d="M34.2025639,13.9654835 L34.2025639,14.0199936 C34.2025639,14.1587468 34.2567052,14.2826336 34.3699099,14.3966094 C34.5077242,14.5601399 34.773509,14.6394275 35.1721862,14.6394275 C35.7332874,14.6394275 36.1516523,14.4957188 36.4420468,14.2083015 C36.7275193,13.9208842 36.9342408,13.4253372 37.0572893,12.7216603 L37.2049475,11.9139186 C36.8800995,12.2013359 36.4814223,12.4540649 36.0039941,12.6671501 C35.5265659,12.8802354 34.9310111,12.9892557 34.2222517,12.9892557 C33.6365408,12.9892557 33.124659,12.8951018 32.6816843,12.7067939 C32.2436316,12.518486 31.8695641,12.2608015 31.5742477,11.9386959 C31.2740094,11.6116349 31.052522,11.2251081 30.8999419,10.7741603 C30.7522837,10.3232125 30.6784546,9.84253181 30.6784546,9.32716285 C30.6784546,9.16363232 30.6882984,9.00010178 30.7079862,8.84152672 C30.727674,8.67799618 30.7473617,8.50951018 30.7719714,8.3360687 C30.8704102,7.73645674 31.0476001,7.13684478 31.303541,6.53227735 C31.55456,5.93266539 31.8990958,5.39747455 32.3273046,4.92670483 C32.7555134,4.45593511 33.2723172,4.07436387 33.8777158,3.78199109 C34.4831145,3.48961832 35.186952,3.3409542 35.9941502,3.3409542 C36.5946269,3.3409542 37.1261965,3.48466285 37.5888589,3.76712468 C38.0564432,4.05454198 38.4255888,4.43115776 38.7012174,4.90688295 L38.903017,3.61846056 L42.3188436,3.61846056 L40.9554661,11.5472137 C40.8274957,12.2855789 40.6699936,12.9743893 40.4780379,13.613645 C40.2860822,14.2529008 39.976,14.8079135 39.5527131,15.2836387 C39.1294262,15.7593639 38.5535592,16.1310242 37.8201901,16.4035751 C37.086821,16.6711705 36.1171987,16.8049682 34.9064014,16.8049682 C34.0598276,16.8049682 33.3461463,16.7306361 32.7604354,16.581972 C32.1747245,16.4283524 31.7022182,16.2301336 31.3429165,15.9823601 C30.9786929,15.729631 30.7178301,15.4422137 30.5504841,15.1151527 C30.3831381,14.7930471 30.2994652,14.4511196 30.2994652,14.0992812 L30.2994652,13.9704389 L34.2025639,13.9704389 L34.2025639,13.9654835 Z M36.5158759,6.11106234 C36.2304033,6.11106234 35.9793844,6.16557252 35.767741,6.27954835 C35.5560975,6.39352417 35.3789077,6.55209924 35.2263275,6.75031807 C35.0786693,6.9485369 34.9556208,7.19135496 34.8621039,7.46390585 C34.768587,7.74141221 34.6947579,8.03874046 34.6455385,8.35093511 C34.6307727,8.44013359 34.6209288,8.52437659 34.6160069,8.59870865 C34.606163,8.67304071 34.606163,8.75232824 34.606163,8.82666031 C34.606163,9.21814249 34.7046018,9.5551145 34.8965575,9.83757634 C35.0885132,10.1249936 35.4035174,10.2687023 35.8415701,10.2835687 L35.9350869,10.2835687 C36.2107156,10.2835687 36.4518907,10.2241031 36.673378,10.1101272 C36.8899434,10.0011069 37.0769771,9.84748728 37.2344792,9.65917939 C37.3870593,9.4708715 37.5199517,9.25283079 37.6183905,9.00505725 C37.7168294,8.75728372 37.7955804,8.50455471 37.8447998,8.24191476 C37.8792534,8.03874046 37.8989411,7.83061069 37.8989411,7.61752545 C37.8989411,7.2012659 37.7955804,6.84942748 37.5987028,6.55209924 C37.4018252,6.25477099 37.0523674,6.10610687 36.5552514,6.10610687 L36.5158759,6.10610687 L36.5158759,6.11106234 Z" id="Shape" fill="#0984BD"></path>
                    <path d="M51.4195115,5.4569402 C51.4195115,5.41234097 51.4244334,5.36774173 51.4293553,5.33305344 C51.4342773,5.29836514 51.4391992,5.25872137 51.4391992,5.20916667 C51.4391992,4.61451018 51.2718532,4.15860687 50.9371613,3.84145674 C50.6024693,3.51935115 50.1299631,3.36077608 49.5196425,3.36077608 C48.7764295,3.36077608 48.1464211,3.66801527 47.6296173,4.29240458 C47.1128136,4.91679389 46.74859,5.84842239 46.5369466,7.08729008 C46.4926491,7.32515267 46.4532736,7.55310433 46.4335858,7.77114504 C46.4089761,7.98918575 46.3991322,8.20227099 46.3991322,8.40048982 C46.3991322,8.70772901 46.4286639,8.99514631 46.4926491,9.25283079 C46.5566343,9.51051527 46.669839,9.74342239 46.827341,9.93668575 C46.9848431,10.1299491 47.1964866,10.2835687 47.4524275,10.3975445 C47.7132903,10.5115204 48.0381384,10.5660305 48.4417375,10.5660305 C49.1111214,10.5660305 49.6476129,10.3579008 50.056134,9.94659669 C50.4597331,9.53529262 50.7599714,9.01992366 50.9470052,8.40048982 L54.9534647,8.40048982 C54.7172115,9.22805344 54.3775976,9.97137405 53.9395449,10.6205407 C53.5014922,11.2697074 52.9748446,11.8247201 52.3694459,12.2806234 C51.7640473,12.7365267 51.0897414,13.0834097 50.3416065,13.3262277 C49.5934716,13.5690458 48.8010392,13.6879771 47.9692312,13.6879771 C47.0537503,13.6879771 46.2416301,13.5690458 45.5328707,13.3311832 C44.8290332,13.0933206 44.2285565,12.7513931 43.7412844,12.3004453 C43.2540123,11.8494975 42.8799448,11.3043957 42.6289259,10.655229 C42.372985,10.0110178 42.2499365,9.27760814 42.2499365,8.45995547 C42.2499365,8.22704835 42.2597803,7.97927481 42.2843901,7.72159033 C42.3089998,7.46886132 42.3434533,7.20622137 42.3877508,6.93367048 C42.5649407,5.90293257 42.8848668,4.97625954 43.3573731,4.14374046 C43.8298793,3.31617684 44.4008244,2.6125 45.0702083,2.03270992 C45.7395922,1.45291985 46.4877272,1.00692748 47.3195351,0.689777354 C48.151343,0.377582697 49.0077607,0.219007634 49.888788,0.219007634 C51.7345156,0.219007634 53.1175809,0.625356234 54.0281399,1.44300891 C54.9386988,2.26066158 55.3964393,3.41528626 55.3964393,4.90688295 L55.3964393,5.17447837 C55.3964393,5.25872137 55.3865954,5.34791985 55.3767515,5.44207379 L51.4195115,5.44207379 L51.4195115,5.4569402 Z" id="Path" fill="#F6881F"></path>
                    <path d="M59.4275085,9.37671756 C59.4176646,9.43618321 59.4078207,9.50060433 59.4028988,9.56502545 C59.3930549,9.62944656 59.3930549,9.68891221 59.3930549,9.75333333 C59.3930549,10.2290585 59.5456351,10.6056743 59.8606393,10.8881361 C60.1707215,11.170598 60.5595548,11.3093511 61.0172952,11.3093511 C61.3273775,11.3093511 61.6276159,11.2399746 61.9130884,11.0962659 C62.1985609,10.9525573 62.4348141,10.739472 62.6218478,10.4470992 L66.3379128,10.4470992 C66.0622842,11.0615776 65.7079045,11.5719911 65.2649298,11.9882506 C64.8219552,12.3995547 64.3346831,12.7365267 63.7981916,12.9942112 C63.2617001,13.2469402 62.7005989,13.4302926 62.109966,13.539313 C61.5193332,13.6433779 60.9385442,13.697888 60.3675991,13.697888 C59.6686836,13.697888 59.0288313,13.6086896 58.4480424,13.4352481 C57.8623314,13.2618066 57.3602935,12.9991667 56.9370066,12.6473282 C56.5137198,12.3004453 56.1839498,11.8693193 55.9476966,11.3589059 C55.7114435,10.8534478 55.5933169,10.2687023 55.5933169,9.60466921 C55.5933169,9.44113868 55.6031608,9.27265267 55.6228486,9.10416667 C55.6376144,8.93568066 55.6622241,8.76719466 55.6868338,8.58879771 C55.8246481,7.78601145 56.0904329,7.05755725 56.4891101,6.40343511 C56.8877872,5.74435751 57.3750593,5.18934478 57.9509264,4.73344148 C58.5317153,4.27753817 59.1764895,3.92074427 59.8901709,3.67297074 C60.6087742,3.42024173 61.3569091,3.29635496 62.1394977,3.29635496 C62.9220862,3.29635496 63.6160798,3.41033079 64.2214785,3.63332697 C64.8219552,3.85632316 65.333837,4.17347328 65.742358,4.57486641 C66.1508791,4.97625954 66.4658833,5.46685115 66.6726048,6.04168575 C66.8842482,6.61652036 66.987609,7.25082061 66.987609,7.93963104 C66.987609,8.36580153 66.9383896,8.84648219 66.8399508,9.3866285 L59.4275085,9.3866285 L59.4275085,9.37671756 Z M63.2912317,7.38461832 C63.3010756,7.3201972 63.3109195,7.23099873 63.3109195,7.10215649 C63.3109195,6.70076336 63.1731051,6.36379135 62.9023984,6.08628499 C62.6267698,5.80877863 62.2871559,5.67498092 61.8737129,5.67498092 C61.288002,5.67498092 60.8154957,5.82860051 60.456194,6.13583969 C60.0968924,6.44307888 59.8655612,6.85933842 59.7671224,7.38461832 L63.2912317,7.38461832 L63.2912317,7.38461832 Z" id="Shape" fill="#F6881F"></path>
                    <path d="M68.2427038,3.85136768 L71.7865009,3.85136768 L71.525638,5.39251908 C72.0719734,4.79290712 72.6281527,4.34195929 73.1892539,4.02976463 C73.7503551,3.72252545 74.4000512,3.56890585 75.1481862,3.56890585 C76.2457789,3.56890585 77.0431332,3.82659033 77.555015,4.34195929 C78.0668968,4.85237277 78.3179158,5.60064885 78.3179158,6.57687659 C78.3179158,6.96340331 78.2785403,7.36975191 78.2047112,7.79592239 L77.2006353,13.6929326 L73.3172243,13.6929326 L74.2130175,8.4896883 C74.2474711,8.26173664 74.2671588,8.0486514 74.2671588,7.83061069 C74.2671588,7.49363868 74.1884078,7.21117684 74.0309057,6.98322519 C73.8734036,6.75527354 73.5879311,6.64625318 73.1646442,6.64625318 C72.5690894,6.64625318 72.1310367,6.82465013 71.855408,7.18144402 C71.5847013,7.53823791 71.3976676,8.03874046 71.2943068,8.67304071 L70.4378892,13.6879771 L66.5544782,13.6879771 L68.2427038,3.85136768 Z" id="Path" fill="#F6881F"></path>
                    <path d="M84.3768244,13.623556 C83.9387717,13.6483333 83.5400946,13.6681552 83.170949,13.6780662 C82.8067254,13.6929326 82.4671115,13.6929326 82.1570293,13.6929326 C81.5713184,13.6929326 81.0791244,13.6631997 80.6853691,13.6086896 C80.2866919,13.5541794 79.9716878,13.4501145 79.7305127,13.3064059 C79.4942595,13.1626972 79.3269136,12.9694338 79.2284748,12.7315712 C79.130036,12.4986641 79.0808165,12.1963804 79.0808165,11.8296756 C79.0808165,11.6066794 79.0955824,11.3489949 79.125114,11.0665331 C79.1546457,10.7840712 79.1989431,10.4718766 79.2629283,10.1349046 L79.9716878,6.02186387 L78.5886225,6.02186387 L78.96269,3.76712468 L80.3998966,3.76712468 L80.94131,0.704643766 L84.7656577,0.704643766 L84.2242443,3.76712468 L86.0896597,3.76712468 L85.7155922,6.02186387 L83.8501768,6.02186387 L83.2349343,9.60466921 C83.2103246,9.71864504 83.1906368,9.81775445 83.175871,9.9119084 C83.1611051,10.0060623 83.1561832,10.0903053 83.1561832,10.1695929 C83.1561832,10.4074555 83.2300123,10.5759415 83.3825925,10.6800064 C83.5351726,10.7791158 83.8108013,10.8286705 84.2242443,10.8286705 L84.8394868,10.8286705 L84.3768244,13.623556 Z" id="Path" fill="#F6881F"></path>
                    <path d="M86.891936,3.85136768 L90.4209672,3.85136768 L90.0862753,5.84346692 L90.1256508,5.84346692 C90.9082393,4.32709288 92.0402856,3.56890585 93.5217897,3.56890585 C93.6103846,3.56890585 93.6940576,3.57386132 93.7728087,3.58872774 C93.8515597,3.60359415 93.9401546,3.61350509 94.0238276,3.6283715 L93.329834,7.53823791 C93.2067855,7.51346056 93.0788151,7.48868321 92.9508446,7.46390585 C92.8179522,7.4391285 92.6850598,7.42921756 92.5472455,7.42921756 C91.7498912,7.42921756 91.1198828,7.6423028 90.6522984,8.06847328 C90.1847141,8.49464377 89.859866,9.24291985 89.6728323,10.3033906 L89.0920433,13.7028435 L85.2086324,13.7028435 L86.891936,3.85136768 Z" id="Path" fill="#F6881F"></path>
                    <path d="M99.2115528,13.7177099 L99.1869431,12.3648664 C98.5520128,12.8901463 97.9269264,13.2419847 97.3116838,13.4253372 C96.6964413,13.6037341 96.0221354,13.697888 95.2887663,13.697888 C94.8802453,13.697888 94.48649,13.6532888 94.1124226,13.5591349 C93.7383551,13.4649809 93.413507,13.3163168 93.1428003,13.1131425 C92.8671716,12.9149237 92.6506063,12.6671501 92.4881822,12.3698219 C92.3257582,12.0774491 92.2470071,11.7206552 92.2470071,11.3093511 C92.2470071,11.1359097 92.2666949,10.9426463 92.3060704,10.7295611 C92.4291189,9.99119593 92.6998257,9.41140585 93.1181906,8.99019084 C93.5365555,8.56897583 94.0189057,8.25678117 94.575085,8.04369593 C95.1263423,7.83061069 95.7120532,7.68194656 96.3272957,7.60265903 C96.9425383,7.5233715 97.5134834,7.44903944 98.0450529,7.37966285 C98.5717006,7.31028626 99.0245191,7.21613232 99.3887427,7.09720102 C99.7529663,6.97826972 99.9646097,6.76022901 100.013829,6.44803435 C100.013829,6.423257 100.018751,6.40343511 100.023673,6.38361323 C100.028595,6.36379135 100.033517,6.34396947 100.033517,6.31919211 C100.033517,6.16557252 99.9892194,6.04664122 99.9006245,5.96239822 C99.8120295,5.87815522 99.7086688,5.80877863 99.5905422,5.76417939 C99.4724157,5.71958015 99.3493672,5.68984733 99.2115528,5.67002545 C99.0737385,5.65020356 98.9605339,5.64029262 98.8768609,5.64029262 C98.7390465,5.64029262 98.5963103,5.65020356 98.4388082,5.67002545 C98.2813061,5.68984733 98.1336479,5.73444656 98.0007555,5.80382316 C97.8629411,5.87319975 97.7398926,5.96735369 97.6168441,6.09619593 C97.4987176,6.2200827 97.4150446,6.3885687 97.3658252,6.60660941 L93.6349943,6.60660941 C93.7235893,6.07637405 93.8958572,5.61551527 94.15672,5.2042112 C94.4175829,4.7978626 94.7867284,4.45097964 95.2641566,4.17347328 C95.7465068,3.89101145 96.3322177,3.67297074 97.0262113,3.52430662 C97.7251268,3.37068702 98.5569347,3.30131043 99.526557,3.30131043 C100.412506,3.30131043 101.136032,3.36077608 101.697133,3.47970738 C102.263156,3.59863868 102.711052,3.77208015 103.030979,3.99507634 C103.355827,4.21807252 103.577314,4.49062341 103.705284,4.80281807 C103.828333,5.11501272 103.892318,5.46685115 103.892318,5.85833333 C103.892318,6.09619593 103.877552,6.33901399 103.843099,6.58678753 C103.813567,6.83951654 103.76927,7.10215649 103.72005,7.37470738 L102.937462,11.9783397 C102.903008,12.1914249 102.88332,12.3648664 102.88332,12.5036196 C102.88332,12.6423728 102.90793,12.7662595 102.957149,12.8703244 C103.006369,12.9743893 103.099886,13.0982761 103.2377,13.2370293 L103.222934,13.7276209 L99.2115528,13.7276209 L99.2115528,13.7177099 Z M97.4199665,11.4778372 C97.7546585,11.4778372 98.0499749,11.4183715 98.3059158,11.2944847 C98.5618567,11.170598 98.7735001,10.9971565 98.945768,10.7741603 C99.1229579,10.5561196 99.2558503,10.2984351 99.359211,10.0060623 C99.4576498,9.71368957 99.526557,9.39653944 99.5659325,9.05956743 C99.2164748,9.20823155 98.867017,9.31725191 98.5126373,9.39158397 C98.1582576,9.46096056 97.8284876,9.53529262 97.5233273,9.61458015 C97.218167,9.69386768 96.9573041,9.81279898 96.7407387,9.9614631 C96.5192514,10.1101272 96.386359,10.3430344 96.3371396,10.655229 L96.3371396,10.7692048 C96.3371396,10.9822901 96.4257345,11.1557316 96.6078463,11.2845738 C96.7850362,11.413416 97.0606649,11.4778372 97.4199665,11.4778372 L97.4199665,11.4778372 Z" id="Shape" fill="#F6881F"></path>
                    <polygon id="Path" fill="#F6881F" points="103.892318 13.697888 106.225318 0.169452926 110.108729 0.169452926 107.775729 13.697888"></polygon>
                    <polygon id="Path" fill="#0984BD" points="13.7863551 13.6384224 15.9716966 5.65020356 18.7870465 5.65020356 17.6500783 13.6384224"></polygon>
                    <path d="M20.1996434,2.0872201 C20.1996434,2.0872201 20.1996434,2.0872201 20.1897996,2.07235369 C20.1799557,2.05748728 20.1602679,2.02775445 20.1356582,1.98811069 C20.0815169,1.91377863 19.988,1.80475827 19.8551076,1.6808715 C19.5844009,1.44300891 19.1414262,1.16550254 18.4277449,1.03170483 C18.0782871,0.967283715 17.7731268,0.967283715 17.512264,0.992061069 C16.8871775,1.05648219 16.5032662,1.31416667 16.3703738,1.41823155 C16.3260763,1.45291985 16.3162325,1.45787532 16.3162325,1.45787532 C16.1390426,1.64122774 15.8486481,1.63627226 15.6665363,1.45787532 C15.4893465,1.27947837 15.4893465,0.987105598 15.6665363,0.803753181 C15.7108338,0.759153944 16.2965447,0.189274809 17.4138252,0.0703435115 C17.758361,0.0356552163 18.1521162,0.040610687 18.585247,0.119898219 C20.3620675,0.437048346 20.982232,1.58671756 21.0117636,1.66104962 C21.1249682,1.88900127 21.0363733,2.16650763 20.809964,2.28048346 C20.7607446,2.30526081 20.7066033,2.32012723 20.652462,2.3250827 C20.4752721,2.35481552 20.2882384,2.26066158 20.1996434,2.0872201" id="Path" fill="#F6881F"></path>
                    <path d="M19.0577533,3.1377799 C19.0577533,3.1377799 19.0577533,3.1377799 19.0282216,3.09318066 C18.99869,3.0535369 18.9494706,2.99407125 18.8756415,2.92965013 C18.7279833,2.80080789 18.4868082,2.6471883 18.0782871,2.56790076 C17.8764876,2.53321247 17.7091416,2.528257 17.5664053,2.54312341 C17.2169475,2.5778117 17.0102261,2.72152036 16.9413189,2.77603053 C16.9216311,2.79089695 16.9216311,2.79585242 16.9216311,2.79585242 C16.7739729,2.94451654 16.5327978,2.94451654 16.3802177,2.79585242 C16.2325595,2.6471883 16.2325595,2.40437023 16.3802177,2.25075064 C16.4146713,2.21110687 16.7887387,1.85431298 17.4876543,1.77998092 C17.6992977,1.76015903 17.9453947,1.7651145 18.2111795,1.80971374 L18.2111795,1.80971374 C19.3136942,2.00793257 19.7123713,2.72647583 19.736981,2.78594148 C19.8304979,2.97424936 19.7566688,3.20715649 19.5647131,3.30131043 C19.5204157,3.32113232 19.4761182,3.33599873 19.4318207,3.3409542 C19.2890845,3.36077608 19.1315824,3.28148855 19.0577533,3.1377799" id="Path" fill="#F6881F"></path>
                    <path d="M18.7329052,4.07931934 C18.7279833,4.55504453 18.2850086,4.93166031 17.7386732,4.93166031 C17.1874159,4.92670483 16.7493632,4.54017812 16.7493632,4.0694084 C16.7493632,3.59368321 17.1972598,3.21211196 17.7485171,3.21706743 C18.2948525,3.2220229 18.7378271,3.60854962 18.7329052,4.07931934" id="Path" fill="#F6881F"></path>
                    <path d="M112.180866,0.189274809 C111.206322,0.189274809 110.418811,0.987105598 110.418811,1.96333333 C110.418811,2.94451654 111.211244,3.74234733 112.180866,3.74234733 C113.15541,3.74234733 113.942943,2.94451654 113.942943,1.96333333 C113.947842,0.987105598 113.15541,0.189274809 112.180866,0.189274809 L112.180866,0.189274809 Z M112.180866,3.4251972 C111.383511,3.4251972 110.733815,2.77107506 110.733815,1.9682888 C110.733815,1.16550254 111.383511,0.511380407 112.180866,0.511380407 C112.97822,0.511380407 113.627916,1.16550254 113.627916,1.9682888 C113.627916,2.77107506 112.97822,3.4251972 112.180866,3.4251972 L112.180866,3.4251972 Z M112.997908,2.54807888 C112.983142,2.47374682 112.97822,2.38454835 112.97822,2.28543893 C112.97822,2.2061514 112.968376,2.14173028 112.948689,2.0872201 C112.929001,2.03270992 112.904391,1.98811069 112.869937,1.95342239 C112.855172,1.93855598 112.840406,1.92368957 112.82564,1.91377863 C112.840406,1.90386768 112.855172,1.88900127 112.865016,1.87413486 C112.904391,1.83449109 112.938845,1.78493639 112.963454,1.72051527 C112.992986,1.65609415 113.00283,1.57680662 113.00283,1.48265267 C113.00283,1.31416667 112.948689,1.17541349 112.835484,1.08125954 C112.727201,0.987105598 112.569699,0.937550891 112.358056,0.937550891 L111.545935,0.937550891 C111.501638,0.937550891 111.467184,0.972239186 111.467184,1.01683842 L111.467184,2.73638677 C111.467184,2.78098601 111.501638,2.8156743 111.545935,2.8156743 L111.846174,2.8156743 C111.890471,2.8156743 111.924925,2.78098601 111.924925,2.73638677 L111.924925,2.10704198 L112.284227,2.10704198 C112.34329,2.10704198 112.387587,2.11695293 112.422041,2.12686387 C112.451573,2.13677481 112.47126,2.15659669 112.490948,2.18137405 C112.510636,2.21110687 112.525402,2.24579517 112.530324,2.2903944 C112.540167,2.34490458 112.545089,2.4093257 112.545089,2.47870229 C112.545089,2.52330153 112.550011,2.56790076 112.550011,2.61745547 C112.554933,2.67692112 112.574621,2.72647583 112.599231,2.77603053 C112.613997,2.80080789 112.638606,2.8156743 112.668138,2.8156743 L112.988064,2.8156743 C113.017596,2.8156743 113.047127,2.79585242 113.061893,2.76611959 C113.076659,2.73638677 113.066815,2.70169847 113.047127,2.68187659 C113.037283,2.67196565 113.012674,2.63727735 112.997908,2.54807888 L112.997908,2.54807888 Z M111.924925,1.34885496 L112.333446,1.34885496 C112.3679,1.34885496 112.397431,1.34885496 112.431885,1.3587659 C112.456494,1.36372137 112.476182,1.37363232 112.49587,1.38354326 C112.510636,1.3934542 112.525402,1.41327608 112.535246,1.43309796 C112.545089,1.45787532 112.550011,1.49256361 112.550011,1.53220738 C112.550011,1.60158397 112.535246,1.65113868 112.500792,1.6808715 C112.466338,1.71060433 112.412197,1.73042621 112.338368,1.73042621 L111.929847,1.73042621 L111.929847,1.34885496 L111.924925,1.34885496 Z" id="Shape" fill="#F6881F" fill-rule="nonzero"></path>
                </g>
                <text id="Powered-by" font-family="Roboto-Regular, Roboto" font-size="8" font-weight="normal" letter-spacing="-0.2" fill="#9F9F9F">
                    <tspan x="0.25" y="8">Powered by</tspan>
                </text>
            </g>
        </g>
    </g>
</svg>