<?xml version="1.0" encoding="UTF-8"?>
<svg width="250px" height="40px" viewBox="0 0 250 40" version="1.1" xmlns="http://www.w3.org/2000/svg" xmlns:xlink="http://www.w3.org/1999/xlink">
    <!-- Generator: Sketch 64 (93537) - https://sketch.com -->
    <title>office-cloud-ringcentral</title>
    <desc>Created with Sketch.</desc>
    <defs>
        <polygon id="path-1" points="0.0348325359 0.244556391 76.0968995 0.244556391 76.0968995 16.1360301 0.0348325359 16.1360301"></polygon>
    </defs>
    <g id="Page-1" stroke="none" stroke-width="1" fill="none" fill-rule="evenodd">
        <g id="Artboard" transform="translate(-55.000000, -49.000000)">
            <g id="office-cloud-ringcentral" transform="translate(55.000000, 49.000000)">
                <g id="Group-4">
                    <g id="Clip-2"></g>
                    <polyline id="Fill-1" fill="#DA291C" points="63.7923062 11.622 68.9852568 11.622 69.8287847 13.7209624 62.8169952 13.7209624 61.6982903 16.1360301 58.6005167 16.1360301 66.282252 0.244556391 68.4238724 0.244556391 76.0968995 16.1360301 73.0072536 16.1360301 67.3521914 3.86305263 63.7923062 11.622"></polyline>
                    <polyline id="Fill-3" fill="#DA291C" points="5.19004785 11.622 10.3841595 11.622 11.2247847 13.7209624 4.21473684 13.7209624 3.09487081 16.1360301 0 16.1360301 7.67883254 0.244556391 9.81871132 0.244556391 17.4940606 16.1360301 14.3986093 16.1360301 8.74877193 3.86305263 5.19004785 11.622"></polyline>
                </g>
                <polyline id="Fill-5" fill="#DA291C" points="33.6594797 10.9728208 38.8587077 10.9728208 39.6997679 12.9971366 32.6818272 12.9971366 31.5623512 15.3263158 28.4631579 15.3263158 36.1483667 0 38.2937385 0 45.9789474 15.3263158 42.8791728 15.3263158 37.2213433 3.48980951 33.6594797 10.9728208"></polyline>
                <polyline id="Fill-6" fill="#DA291C" points="14.2315789 0 21.9111988 15.3263158 24.0613528 15.3263158 31.7473684 0 28.6523793 0 22.9856943 12.0576595 17.3236609 0 14.2315789 0"></polyline>
                <polyline id="Fill-7" fill="#DA291C" points="50.7016436 21.8947368 61.3052632 0 58.2112332 0 52.3154905 12.7557269 46.8881528 0 43.7894737 0 50.7806796 15.917197 47.7331415 21.8947368 50.7016436 21.8947368"></polyline>
                <path d="M78.8210526,8.25529798 L78.8210526,8.21052632 C78.8210526,3.71962989 82.1856746,0 86.7781472,0 C89.6203941,0 91.3257422,1.04288131 92.962278,2.54004577 L92.120973,3.40145259 C90.7339565,2.06367526 89.1428966,1.06556562 86.7554092,1.06556562 C82.9360278,1.06556562 80.0489033,4.17271913 80.0489033,8.1651577 L80.0489033,8.21052632 C80.0489033,12.2250522 82.9815037,15.3548901 86.7781472,15.3548901 C89.0746827,15.3548901 90.6430046,14.470202 92.2574008,12.8823003 L93.0526316,13.6535668 C91.3706198,15.3095214 89.5521801,16.4210526 86.7332696,16.4210526 C82.1856746,16.4210526 78.8210526,12.8148443 78.8210526,8.25529798" id="Fill-8" fill="#575759"></path>
                <polyline id="Fill-9" fill="#575759" points="95.2421053 0 96.3482929 0 96.3482929 14.2752499 105.094737 14.2752499 105.094737 15.3263158 95.2421053 15.3263158 95.2421053 0"></polyline>
                <path d="M121.420219,8.25529798 L121.420219,8.21052632 C121.420219,4.28673764 118.679564,1.06556562 114.917747,1.06556562 C111.154784,1.06556562 108.458204,4.24136902 108.458204,8.1651577 L108.458204,8.21052632 C108.458204,12.133718 111.198859,15.3548901 114.961249,15.3548901 C118.723639,15.3548901 121.420219,12.1796836 121.420219,8.25529798 Z M107.284211,8.25529798 L107.284211,8.21052632 C107.284211,3.8778231 110.350561,0 114.961249,0 C119.571365,0 122.594213,3.83305144 122.594213,8.1651577 C122.615964,8.18784201 122.615964,8.18784201 122.594213,8.21052632 C122.594213,12.5426326 119.527862,16.4210526 114.917747,16.4210526 C110.307059,16.4210526 107.284211,12.5874042 107.284211,8.25529798 L107.284211,8.25529798 Z" id="Fill-10" fill="#575759"></path>
                <path d="M124.8,8.81624828 L124.8,0 L125.989713,0 L125.989713,8.70902364 C125.989713,12.2650239 128.026984,14.3130713 131.414202,14.3130713 C134.664679,14.3130713 136.747129,12.4590495 136.747129,8.81624828 L136.747129,0 L137.936842,0 L137.936842,8.68746525 C137.936842,13.020135 135.259235,15.3263158 131.368421,15.3263158 C127.523389,15.3263158 124.8,13.0411261 124.8,8.81624828" id="Fill-11" fill="#575759"></path>
                <path d="M147.374971,14.2752499 C151.608957,14.2752499 154.279985,11.3634977 154.279985,7.70666419 L154.279985,7.66344602 C154.279985,4.02850974 151.608957,1.05106591 147.374971,1.05106591 L143.445005,1.05106591 L143.445005,14.2752499 L147.374971,14.2752499 Z M142.315789,0 L147.374971,0 C152.151849,0 155.452632,3.30647817 155.452632,7.6196516 L155.452632,7.66344602 C155.452632,11.9760432 152.151849,15.3263158 147.374971,15.3263158 L142.315789,15.3263158 L142.315789,0 L142.315789,0 Z" id="Fill-12" fill="#575759"></path>
                <path d="M178.346579,8.25529798 L178.346579,8.21052632 C178.346579,4.28673764 175.606599,1.06556562 171.843777,1.06556562 C168.081528,1.06556562 165.385049,4.24136902 165.385049,8.1651577 L165.385049,8.21052632 C165.385049,12.133718 168.125029,15.3548901 171.887278,15.3548901 C175.6501,15.3548901 178.346579,12.1796836 178.346579,8.25529798 Z M164.210526,8.25529798 L164.210526,8.21052632 C164.210526,3.8778231 167.277335,0 171.887278,0 C176.497794,0 179.520529,3.83305144 179.520529,8.1651577 C179.54228,8.18784201 179.54228,8.18784201 179.520529,8.21052632 C179.520529,12.5426326 176.454293,16.4210526 171.843777,16.4210526 C167.233834,16.4210526 164.210526,12.5874042 164.210526,8.25529798 L164.210526,8.25529798 Z" id="Fill-13" fill="#575759"></path>
                <polyline id="Fill-14" fill="#575759" points="182.821053 0 193.768421 0 193.768421 1.05106591 183.975345 1.05106591 183.975345 7.33498792 192.769008 7.33498792 192.769008 8.38547759 183.975345 8.38547759 183.975345 15.3263158 182.821053 15.3263158 182.821053 0"></polyline>
                <polyline id="Fill-15" fill="#575759" points="195.957895 0 206.905263 0 206.905263 1.05106591 197.11271 1.05106591 197.11271 7.33498792 205.905904 7.33498792 205.905904 8.38547759 197.11271 8.38547759 197.11271 15.3263158 195.957895 15.3263158 195.957895 0"></polyline>
                <polygon id="Fill-16" fill="#575759" points="210.189474 15.3263158 211.284211 15.3263158 211.284211 0 210.189474 0"></polygon>
                <path d="M214.568421,8.25529798 L214.568421,8.21052632 C214.568421,3.71962989 217.933043,0 222.525516,0 C225.367762,0 227.072512,1.04288131 228.709646,2.54004577 L227.868341,3.40145259 C226.481325,2.06367526 224.890265,1.06556562 222.502778,1.06556562 C218.683396,1.06556562 215.796272,4.17271913 215.796272,8.1651577 L215.796272,8.21052632 C215.796272,12.2250522 218.728872,15.3548901 222.525516,15.3548901 C224.822051,15.3548901 226.390373,14.470202 228.004769,12.8823003 L228.8,13.6535668 C227.117988,15.3095214 225.299549,16.4210526 222.480638,16.4210526 C217.933043,16.4210526 214.568421,12.8148443 214.568421,8.25529798" id="Fill-17" fill="#575759"></path>
                <polyline id="Fill-18" fill="#575759" points="230.989474 0 241.82801 0 241.82801 1.05106591 232.121328 1.05106591 232.121328 7.07222144 240.848521 7.07222144 240.848521 8.12328735 232.121328 8.12328735 232.121328 14.2752499 241.936842 14.2752499 241.936842 15.3263158 230.989474 15.3263158 230.989474 0"></polyline>
                <polyline id="Fill-19" fill="#575759" points="245.210485 0.225174728 244.221053 0.225174728 244.221053 7.10542736e-15 246.410526 7.10542736e-15 246.410526 0.225174728 245.421094 0.225174728 245.421094 3.28421053 245.210485 3.28421053 245.210485 0.225174728"></polyline>
                <polyline id="Fill-20" fill="#575759" points="246.410526 7.10542736e-15 246.653971 7.10542736e-15 248.052303 1.94244134 249.450636 7.10542736e-15 249.694737 7.10542736e-15 249.694737 3.28421053 249.435543 3.28421053 249.435543 0.431172488 248.057553 2.32226904 248.037211 2.32226904 246.659221 0.431172488 246.659221 3.28421053 246.410526 3.28421053 246.410526 7.10542736e-15"></polyline>
                <path d="M138.203002,33.5440343 L138.203002,33.5237677 C138.203002,32.2624701 137.32245,31.4553827 136.295039,31.4553827 C135.288176,31.4553827 134.334497,32.29287 134.334497,33.5130384 L134.334497,33.533901 C134.334497,34.774932 135.288176,35.6022861 136.295039,35.6022861 C137.342998,35.6022861 138.203002,34.836924 138.203002,33.5440343 Z M134.365319,35.1778797 L134.365319,36.2019389 L133.557895,36.2019389 L133.557895,28.6526316 L134.365319,28.6526316 L134.365319,31.9310516 C134.805897,31.2902695 135.44531,30.7418793 136.441898,30.7418793 C137.741876,30.7418793 139.031579,31.7552091 139.031579,33.5130384 L139.031579,33.533901 C139.031579,35.281597 137.75215,36.3157895 136.441898,36.3157895 C135.435035,36.3157895 134.785349,35.7781286 134.365319,35.1778797 L134.365319,35.1778797 Z" id="Fill-21" fill="#575759"></path>
                <path d="M140.357641,37.1594365 L140.63075,36.5698486 C140.893564,36.6956719 141.135184,36.7535729 141.481566,36.7535729 C141.964805,36.7535729 142.269403,36.5219689 142.595196,35.8171358 L140.126316,30.8421053 L141.019521,30.8421053 L142.994262,35.0054086 L144.738284,30.8421053 L145.6,30.8421053 L143.320055,36.0003034 C142.858011,37.0336132 142.332382,37.4105263 141.513055,37.4105263 C141.061305,37.4105263 140.725218,37.3236748 140.357641,37.1594365" id="Fill-22" fill="#575759"></path>
                <g id="Group-17-Copy-4" transform="translate(150.000000, 25.000000)">
                    <path d="M4.75989568,5.64818023 L6.20127907,5.64818023 C6.76936093,5.64818023 7.21338793,5.56883791 7.53369535,5.41263977 C7.85456158,5.25553744 8.04623193,4.97919558 8.10792408,4.58157977 C8.11854139,4.52925 8.12312359,4.45149 8.12312359,4.34581326 C8.12312359,4.02222767 8.00488031,3.78578302 7.76671733,3.63263651 C7.52944843,3.48197651 7.21886423,3.40579884 6.83630585,3.40579884 L5.13127794,3.40579884 L4.75989568,5.64818023 Z M4.32548014,8.12451977 L3.65848967,12.0595374 L-1.11761138e-05,12.0595374 L1.93815047,0.772356977 L7.20925277,0.772356977 C8.02421499,0.772356977 8.71489882,0.821974186 9.27817495,0.920530465 C9.84189813,1.02044302 10.3009011,1.17200721 10.6580897,1.37578814 C11.0147195,1.57900395 11.2724407,1.83183698 11.4321474,2.13598256 C11.593754,2.43899791 11.6738867,2.79852488 11.6738867,3.21738907 C11.6741102,3.43597605 11.6476228,3.69355605 11.5952069,3.98572116 C11.4819928,4.63345744 11.2322067,5.21078023 10.8435014,5.71893279 C10.4568079,6.22516395 9.92147206,6.5670593 9.2400644,6.7439407 C9.46682775,6.82870814 9.67157416,6.91551 9.85173311,7.00389419 C10.033345,7.09329558 10.1880224,7.20462349 10.3178888,7.34092953 C10.4464141,7.4773486 10.5474462,7.64394488 10.6194204,7.84286581 C10.6921769,8.04246488 10.7280522,8.29755837 10.7280522,8.61029372 C10.7280522,8.93557465 10.6921769,9.31047279 10.6194204,9.73826581 C10.5474462,10.1366728 10.4905598,10.4667007 10.4488729,10.7271063 C10.4070742,10.9885291 10.3871807,11.1929881 10.3871807,11.3394663 C10.3871807,11.5899258 10.4797189,11.7153816 10.6652424,11.7153816 L10.6194204,12.0595374 L6.91431513,12.0595374 C6.89319227,11.9548779 6.88279849,11.8351863 6.88279849,11.7002365 C6.88279849,11.5208686 6.89654511,11.2951612 6.92169136,11.0163328 C6.9471729,10.7412342 6.99187736,10.4289509 7.05356951,10.0846821 C7.11582046,9.73826581 7.14744886,9.44745698 7.14744886,9.20694349 C7.14744886,8.80955372 7.02507042,8.5304993 6.78266051,8.36661558 C6.53935651,8.20555744 6.09231196,8.12451977 5.44152686,8.12451977 L4.32548014,8.12451977 Z" id="Fill-1" fill="#067BBD"></path>
                    <path d="M16.8098474,3.84472465 L19.7553122,3.84472465 L19.5376015,5.13036419 C19.9925811,4.62876698 20.4528135,4.25149535 20.917628,3.99380233 C21.3831132,3.73791767 21.9252665,3.60963628 22.5456525,3.60963628 C23.4548294,3.60963628 24.1218199,3.82460651 24.5450593,4.25239953 C24.9691928,4.67985349 25.1805331,5.30306372 25.1805331,6.11852651 C25.1805331,6.44199907 25.1500223,6.78106884 25.0886655,7.13664 L24.2510157,12.059594 L21.0257011,12.059594 L21.7703655,7.71746651 C21.8008763,7.52894372 21.8180875,7.34686326 21.8180875,7.16907767 C21.8180875,6.88572837 21.7514779,6.65075302 21.6225055,6.46336047 C21.4938685,6.2744986 21.253135,6.18046326 20.9020932,6.18046326 C20.4067679,6.18046326 20.0432089,6.32954093 19.8167808,6.62713116 C19.5893469,6.92483442 19.4336637,7.34087302 19.3519663,7.87400372 L18.6382596,12.059594 L15.4139508,12.059594 L16.8098474,3.84472465 Z" id="Fill-4" fill="#067BBD"></path>
                    <path d="M30.1194031,5.72974912 C29.8825812,5.72974912 29.6753761,5.77665377 29.4997993,5.87170633 C29.3241108,5.96641981 29.1739039,6.09797888 29.049849,6.26638353 C28.9259059,6.43343191 28.8250973,6.63291795 28.7479822,6.86371144 C28.6706435,7.09586121 28.6095101,7.34225191 28.5699467,7.60310958 C28.5589941,7.67736586 28.5512826,7.74698819 28.5465886,7.80813377 C28.540777,7.87199191 28.5388771,7.93573702 28.5388771,7.99722167 C28.5389888,8.32351981 28.6191216,8.60404353 28.7782694,8.84060121 C28.9390937,9.07828912 29.1993854,9.20125842 29.5622738,9.21120447 L29.639389,9.21120447 C29.8671582,9.21120447 30.0702282,9.16249144 30.2521753,9.06755191 C30.432446,8.97555098 30.5874587,8.84817377 30.7168781,8.69163656 C30.8457387,8.53374307 30.9520236,8.35245377 31.0348386,8.1475426 C31.1168712,7.94308353 31.1802398,7.73071284 31.2209209,7.50997842 C31.2506493,7.34225191 31.2677488,7.16808307 31.2677488,6.98928028 C31.2677488,6.64275098 31.1834809,6.34629098 31.0181862,6.10012633 C30.853562,5.85373563 30.5643242,5.72974912 30.1513668,5.72974912 L30.1194031,5.72974912 Z M28.197335,12.2836287 L28.197335,12.3298552 C28.197335,12.4453649 28.2442747,12.5488942 28.3373717,12.6441728 C28.450474,12.7800268 28.6728787,12.8470496 29.0041387,12.8470496 C29.4687297,12.8470496 29.8193244,12.727358 30.058158,12.4876356 C30.2950916,12.2476873 30.4659744,11.8351524 30.5698005,11.2476575 L30.6936318,10.5739259 C30.4243992,10.8134221 30.0920216,11.0240975 29.6938167,11.201431 C29.2962823,11.3786514 28.8025216,11.4680528 28.2130934,11.4680528 C27.7279383,11.4680528 27.3008989,11.3880324 26.9337636,11.2327384 C26.5676341,11.0768793 26.260291,10.8620221 26.0120695,10.5911054 C25.7639598,10.3187193 25.5777657,9.99502074 25.4532638,9.61797516 C25.3302148,9.2414947 25.2676286,8.84060121 25.2676286,8.41054772 C25.2676286,8.275824 25.2762342,8.13963098 25.2914337,8.003664 C25.3059626,7.86781005 25.3236209,7.72709609 25.3456378,7.58061795 C25.4276705,7.0783426 25.5748599,6.57753656 25.7869826,6.07526121 C25.9978758,5.573664 26.282755,5.12677005 26.6398318,4.73446633 C26.9959028,4.3426147 27.4247303,4.02434121 27.9265378,3.77772447 C28.42801,3.53269005 29.0135266,3.41039888 29.6855463,3.41039888 C30.1826599,3.41039888 30.6245634,3.52941237 31.0105864,3.76743935 C31.3983975,4.00569237 31.7062995,4.32407888 31.9342922,4.718304 L32.1050632,3.64503516 L34.9415609,3.64503516 L33.8105382,10.2616426 C33.7055945,10.87615 33.5739398,11.4517775 33.414792,11.9852473 C33.2539677,12.5175868 32.9975877,12.9830166 32.6467694,13.3804063 C32.2957277,13.7779091 31.8148195,14.0889491 31.2052743,14.3144305 C30.595282,14.5370863 29.7889254,14.6505617 28.786875,14.6505617 C28.084121,14.6505617 27.4901106,14.5879468 27.0036143,14.462378 C26.5181239,14.336357 26.1249483,14.1699868 25.8255402,13.9615719 C25.525238,13.7516877 25.3059626,13.5121914 25.16682,13.2386752 C25.0276774,12.9680975 24.9573797,12.6862175 24.9573797,12.3913398 L24.9573797,12.2836287 L28.197335,12.2836287 Z" id="Fill-6" fill="#067BBD"></path>
                    <path d="M42.5001231,5.18163153 C42.5001231,5.14218642 42.5031406,5.10816642 42.5078346,5.07685898 C42.5133109,5.04882921 42.5161049,5.01413107 42.5161049,4.97434688 C42.5161049,4.47941805 42.3762918,4.09909479 42.0974477,3.83292502 C41.8187154,3.56607712 41.4255398,3.43259665 40.9180324,3.43259665 C40.3017815,3.43259665 39.7782923,3.69164595 39.3492413,4.2104227 C38.919408,4.73032967 38.6155295,5.50883386 38.4399527,6.54480502 C38.4009481,6.74349991 38.372002,6.93428316 38.352779,7.11602456 C38.3317679,7.29878316 38.3234976,7.47453433 38.3234976,7.64237386 C38.3234976,7.90017991 38.3496497,8.13752874 38.4034068,8.3540813 C38.4564934,8.57052084 38.550261,8.76164316 38.6819156,8.92507479 C38.8134584,9.08726316 38.9871353,9.21690084 39.2022754,9.30991898 C39.4176392,9.40485851 39.6913422,9.45063293 40.0229375,9.45063293 C40.5802903,9.45063293 41.0271113,9.27838549 41.365077,8.93219526 C41.7021486,8.58702223 41.9486936,8.15798595 42.1046004,7.64237386 L45.4322883,7.64237386 C45.2360357,8.3346413 44.9557388,8.95253944 44.5890505,9.4966334 C44.2232563,10.0400492 43.7879467,10.5025404 43.2845745,10.8824115 C42.7813141,11.2622827 42.2199379,11.5543348 41.5992166,11.7564204 C40.978607,11.958506 40.3214515,12.0595487 39.6270795,12.0595487 C38.8647568,12.0595487 38.1907254,11.9617836 37.6039794,11.7635408 C37.0176805,11.5656371 36.5220198,11.2796883 36.1158799,10.9037729 C35.7107457,10.5284227 35.4023968,10.0702264 35.1929564,9.53280084 C34.9823984,8.99311479 34.8779017,8.3847106 34.8779017,7.70114595 C34.8779017,7.50482456 34.8870662,7.29878316 34.9072949,7.08652549 C34.9260708,6.87449386 34.955464,6.6550027 34.9949157,6.42680874 C35.1421051,5.56817107 35.4095495,4.79271851 35.8011605,4.09909479 C36.192548,3.40716642 36.6664152,2.81967153 37.2236563,2.33570595 C37.7804503,1.85083619 38.4034068,1.47819851 39.0923025,1.21530642 C39.7814217,0.954561767 40.4925578,0.82379386 41.2253756,0.82379386 C42.7600795,0.82379386 43.9060782,1.16421991 44.6634834,1.84665433 C45.4196593,2.52829758 45.7985296,3.492612 45.7985296,4.73665898 L45.7985296,4.95897572 C45.7985296,5.02927619 45.7928297,5.10240223 45.7838888,5.18163153 L42.5001231,5.18163153 Z" id="Fill-8" fill="#FF8802"></path>
                    <path d="M52.3665304,6.79237116 C52.3763654,6.73925023 52.3816182,6.6622814 52.3816182,6.55739581 C52.3816182,6.22262093 52.2671748,5.93972372 52.041082,5.71085163 C51.8137599,5.48118837 51.5294395,5.36635674 51.1875622,5.36635674 C50.7025189,5.36635674 50.3101255,5.49362093 50.0101586,5.7496186 C49.7101917,6.00663349 49.5187449,6.35338884 49.4364887,6.79237116 L52.3665304,6.79237116 Z M49.1567506,8.45494326 C49.1471391,8.5056907 49.1394276,8.55881163 49.1342866,8.61023721 C49.1285868,8.66234093 49.1270221,8.71512279 49.1270221,8.76824372 C49.1270221,9.1666507 49.2552121,9.48096837 49.5134921,9.71628279 C49.772778,9.95216233 50.0928619,10.0681242 50.4745261,10.0681242 C50.7331414,10.0681242 50.9828158,10.0079958 51.2190788,9.8893214 C51.456683,9.76827349 51.6523768,9.59026186 51.8070542,9.34816605 L54.8930027,9.34816605 C54.665457,9.8601614 54.36929,10.2878414 54.0021547,10.6342577 C53.6339017,10.9775093 53.2295499,11.2573549 52.7842936,11.4735684 C52.3399313,11.6861651 51.8722109,11.8385205 51.3819148,11.9272437 C50.8897188,12.0156279 50.4083635,12.059594 49.9320376,12.059594 C49.3535619,12.059594 48.8209083,11.9862419 48.3356415,11.8393116 C47.8498158,11.6945288 47.4309351,11.4743595 47.0803404,11.1815163 C46.728181,10.8902553 46.4545898,10.5317456 46.2586725,10.1074563 C46.0620847,9.68384512 45.9639584,9.19694093 45.9639584,8.64222279 C45.9639584,8.5056907 45.972564,8.36667209 45.9872047,8.22595814 C46.0011748,8.08479209 46.0205095,7.94306093 46.0410736,7.79533953 C46.1548464,7.12725907 46.3771393,6.51738558 46.708064,5.96944884 C47.0382064,5.42139907 47.4438994,4.95574326 47.9248075,4.57406372 C48.4051569,4.19181907 48.9423927,3.89773256 49.5362914,3.68762233 C50.1314194,3.47864233 50.7542643,3.375 51.4044906,3.375 C52.0558345,3.375 52.6322984,3.46892233 53.1338824,3.65676698 C53.6339017,3.84472465 54.0569176,4.1059214 54.3976774,4.44013116 C54.73799,4.77558419 54.9969406,5.18314605 55.171735,5.66439907 C55.3480941,6.14395674 55.4359383,6.67234047 55.4359383,7.24751581 C55.4359383,7.60286093 55.3941397,8.00477163 55.3118835,8.45494326 L49.1567506,8.45494326 Z" id="Fill-10" fill="#FF8802"></path>
                    <path d="M56.4815085,3.84472465 L59.4258556,3.84472465 L59.208592,5.13036419 C59.6642422,4.62876698 60.1239157,4.25149535 60.5892891,3.99380233 C61.0541037,3.73791767 61.5965922,3.60963628 62.2160842,3.60963628 C63.1260434,3.60963628 63.7921398,3.82460651 64.2166086,4.25239953 C64.6406303,4.67985349 64.8526412,5.30306372 64.8526412,6.11852651 C64.8526412,6.44199907 64.820007,6.78106884 64.7586501,7.13664 L63.9229003,12.059594 L60.6968033,12.059594 L61.4414678,7.71746651 C61.4729844,7.52894372 61.4885192,7.34686326 61.4885192,7.16907767 C61.4885192,6.88572837 61.4233625,6.65075302 61.2940548,6.46336047 C61.1647472,6.2744986 60.9249078,6.18046326 60.5743131,6.18046326 C60.078876,6.18046326 59.7154288,6.32954093 59.487436,6.62713116 C59.2608962,6.92483442 59.10566,7.34087302 59.0225097,7.87400372 L58.3099207,12.059594 L55.0853883,12.059594 L56.4815085,3.84472465 Z" id="Fill-12" fill="#FF8802"></path>
                    <path d="M69.884977,11.9972955 C69.5219768,12.0177527 69.1889286,12.0349323 68.8833737,12.0456695 C68.5798304,12.0556155 68.2979689,12.0595713 68.0394653,12.0595713 C67.5534162,12.0595713 67.1453762,12.0362886 66.8150103,11.989723 C66.4839738,11.9433834 66.2203293,11.8589551 66.0238532,11.7390374 C65.8268183,11.6192327 65.6882345,11.4580616 65.6044137,11.2604969 C65.522828,11.0644016 65.4809176,10.8113425 65.4809176,10.5090053 C65.4809176,10.3210476 65.4948878,10.1095811 65.5201458,9.87313647 C65.5460744,9.63861321 65.5838496,9.3785467 65.6359303,9.09655367 L66.2260291,5.66528065 L65.0780187,5.66528065 L65.3883794,3.78265228 L66.5817648,3.78265228 L67.0321622,1.22663135 L70.2090843,1.22663135 L69.7603633,3.78265228 L71.3100433,3.78265228 L70.9992356,5.66528065 L69.4485498,5.66528065 L68.9385837,8.65610205 C68.9174608,8.75092856 68.9024848,8.83513088 68.8915323,8.91277786 C68.8808032,8.99257228 68.8756622,9.06321181 68.8756622,9.12593972 C68.8756622,9.32565181 68.9385837,9.46681786 69.0617445,9.5520374 C69.1869169,9.63556158 69.4190448,9.67658902 69.7603633,9.67658902 L70.2712235,9.67658902 L69.884977,11.9972955 Z" id="Fill-14" fill="#FF8802"></path>
                    <path d="M71.9744968,3.84472465 L74.9058796,3.84472465 L74.6255827,5.5066186 L74.658217,5.5066186 C75.308108,4.2420014 76.2476839,3.60963628 77.4788446,3.60963628 C77.5512658,3.60963628 77.6205577,3.61528744 77.6888437,3.62500744 C77.7545593,3.63585767 77.8253041,3.64716 77.8982841,3.65676698 L77.3231613,6.91805302 C77.2207881,6.89691767 77.1137209,6.87600837 77.0067655,6.85430791 C76.8971278,6.83543302 76.7860373,6.82345256 76.6721527,6.82345256 C76.010862,6.82345256 75.4875964,7.00225535 75.0992264,7.35658326 C74.7114153,7.71192837 74.4399475,8.33525163 74.2853818,9.22191907 L73.8044736,12.059594 L70.5793825,12.059594 L71.9744968,3.84472465 Z" id="Fill-16" fill="#FF8802"></path>
                    <path d="M80.7220969,10.208906 C80.9997116,10.208906 81.2468154,10.1581585 81.4593851,10.0544032 C81.6698313,9.94974363 81.8482021,9.80620409 81.9924857,9.62118502 C82.138334,9.43887851 82.2499834,9.22492549 82.3338043,8.97898688 C82.4165075,8.73372642 82.4733939,8.47015619 82.5044635,8.18725898 C82.2153375,8.31282781 81.9227468,8.40426363 81.6289268,8.46280967 C81.3347715,8.51988642 81.0601743,8.58261433 80.8069236,8.6505413 C80.5540081,8.71880735 80.3357386,8.81476409 80.155915,8.94101107 C79.9744149,9.06522363 79.8631008,9.25770223 79.822308,9.52070735 L79.822308,9.61406456 C79.822308,9.7930934 79.8961821,9.93674595 80.0472831,10.0458134 C80.1967078,10.1560111 80.4220182,10.208906 80.7220969,10.208906 L80.7220969,10.208906 Z M82.2133258,12.0778585 L82.1942146,10.9471739 C81.6683784,11.3849129 81.1485774,11.6809208 80.6351467,11.8318069 C80.1252924,11.983145 79.5643633,12.0595487 78.9541475,12.0595487 C78.6133878,12.0595487 78.2865982,12.0207818 77.9778022,11.9434739 C77.668112,11.8652618 77.3987677,11.7426315 77.171222,11.5736618 C76.9426705,11.4076306 76.7627351,11.2024934 76.6282864,10.9540683 C76.4943966,10.7101641 76.4271164,10.4138171 76.4271164,10.068192 C76.4271164,9.92284409 76.4415336,9.76076874 76.4741678,9.58354828 C76.5770998,8.96587619 76.802075,8.48315386 77.1479757,8.13210363 C77.4943235,7.7825227 77.8982282,7.51951758 78.3580136,7.34218409 C78.8160107,7.16281619 79.3031775,7.04075107 79.8151553,6.97191991 C80.3259037,6.90399293 80.8022296,6.84194316 81.2406686,6.7843013 C81.6802251,6.7259813 82.0535073,6.6496906 82.3560447,6.54921293 C82.6605938,6.44930037 82.8353882,6.2695934 82.8761811,6.0081706 C82.8761811,5.9877134 82.8793104,5.96940363 82.8840043,5.95380642 C82.8886983,5.93798316 82.8917159,5.91956037 82.8917159,5.89921619 C82.8922747,5.77274316 82.8550582,5.67407386 82.782637,5.60106084 C82.7102158,5.52883898 82.624942,5.47266642 82.5265922,5.43548177 C82.4294718,5.39908828 82.3245281,5.37377107 82.2101964,5.35715665 C82.0959766,5.34189851 82.0023207,5.33364781 81.9309054,5.33364781 C81.8162384,5.33364781 81.6957599,5.34189851 81.5664523,5.35715665 C81.4377035,5.37377107 81.3156603,5.41061665 81.2018875,5.46837153 C81.0881146,5.52544828 80.9826121,5.60659898 80.8843741,5.71080642 C80.786136,5.81603107 80.7162853,5.95697107 80.6749337,6.13464363 L77.574568,6.13464363 C77.6474362,5.69396595 77.790714,5.30527898 78.0084247,4.96575712 C78.2255766,4.6264613 78.5342609,4.33757386 78.9309011,4.10327665 C79.3295531,3.8683013 79.8166082,3.68757712 80.3963132,3.56291247 C80.9738947,3.43598735 81.6683784,3.37506781 82.4733939,3.37506781 C83.2071058,3.37506781 83.8100571,3.42468502 84.2785598,3.52403247 C84.749633,3.62281479 85.1188918,3.76691944 85.3876773,3.95532921 C85.6565746,4.14215665 85.8427687,4.36797712 85.9461478,4.62872177 C86.0490798,4.88946642 86.1012722,5.18321386 86.1012722,5.50792967 C86.1012722,5.70481619 86.0884197,5.9095013 86.0624911,6.11735107 C86.0356684,6.32678316 86.0025871,6.5461613 85.9616826,6.77718084 L85.3096681,10.6180501 C85.2807219,10.7952706 85.2636225,10.9419748 85.2636225,11.0554501 C85.2636225,11.1720901 85.2842983,11.273585 85.3256499,11.3619692 C85.3671133,11.4508055 85.4456814,11.5534306 85.5583366,11.6689404 L85.5464899,12.0778585 L82.2133258,12.0778585 Z" id="Fill-18" fill="#FF8802"></path>
                    <polygon id="Fill-20" fill="#FF8802" points="86.101261 12.0595487 88.0383051 0.772368279 91.2644021 0.772368279 89.327358 12.0595487"></polygon>
                    <polygon id="Fill-22" fill="#067BBD" points="11.2228299 12.0595487 13.0389484 5.39162874 15.3754268 5.39162874 14.4327216 12.0595487"></polygon>
                    <path d="M16.5505281,2.41598637 C16.5497457,2.41598637 16.5505281,2.41598637 16.5437106,2.40457102 C16.5358874,2.39089521 16.5202408,2.36546498 16.4983356,2.33438358 C16.4517312,2.27165567 16.3757336,2.18112405 16.2643078,2.08042033 C16.0384385,1.88195149 15.671862,1.64867149 15.0779633,1.53903893 C14.7858197,1.48637009 14.5346924,1.48331847 14.3182111,1.50581009 C13.7978512,1.56096544 13.4805614,1.77311009 13.3683532,1.86183335 C13.3305779,1.88952405 13.3257722,1.8956273 13.3257722,1.8956273 L13.3257722,1.89619242 C13.1776887,2.04662637 12.9359493,2.04560916 12.7879776,1.89472312 C12.638553,1.74508033 12.638553,1.50038498 12.7879776,1.35108126 C12.8250823,1.31378358 13.311355,0.838407767 14.2394195,0.740303581 C14.5247457,0.709787302 14.8506412,0.715664512 15.212859,0.781331023 C16.6883295,1.0465966 17.205113,2.00661614 17.2301475,2.06832684 L17.2301475,2.06821381 C17.325368,2.25854498 17.250041,2.49024265 17.0611647,2.5872166 C17.019366,2.60733474 16.9751086,2.62089753 16.9299571,2.62575753 C16.7775149,2.6411287 16.6232846,2.56370777 16.5505281,2.41598637" id="Fill-24" fill="#FF8802"></path>
                    <path d="M15.6032295,3.29318247 C15.600659,3.29453874 15.6032295,3.29114805 15.5799832,3.25825828 C15.5553957,3.22638572 15.5160558,3.17688153 15.4536931,3.1222913 C15.3324322,3.01412805 15.1291387,2.8841513 14.7921789,2.8209713 C14.6266607,2.790342 14.4859534,2.78932479 14.3673748,2.80175735 C14.0780252,2.83283874 13.9058013,2.94947874 13.8475738,2.99468805 C13.8308096,3.00779874 13.8314802,3.00892898 13.8314802,3.00892898 C13.7079841,3.13404572 13.5064788,3.13528898 13.3822004,3.00892898 C13.2575867,2.88369921 13.2575867,2.68037037 13.3822004,2.55457549 C13.4129347,2.52292898 13.7207249,2.22556479 14.3012122,2.16328898 C14.4786889,2.14464014 14.6809766,2.14950014 14.903493,2.18894526 L14.903493,2.18883223 C15.8184814,2.35429828 16.1496297,2.95332153 16.1707525,3.00452107 C16.2494324,3.16207549 16.1865109,3.3560234 16.0295982,3.4348006 C15.9941699,3.4532234 15.9568417,3.46475177 15.91929,3.4678034 C15.7923293,3.4819313 15.6632452,3.41547363 15.6032295,3.29318247" id="Fill-26" fill="#FF8802"></path>
                    <path d="M15.3323987,4.08070591 C15.3290459,4.47640033 14.9598988,4.79388265 14.5042487,4.7921873 C14.047928,4.78970079 13.6807926,4.46724544 13.6825808,4.07415056 C13.6838102,3.677778 14.0539631,3.35973056 14.5103955,3.3604087 C14.9658222,3.36346033 15.3345222,3.68761102 15.3323987,4.08070591" id="Fill-28" fill="#FF8802"></path>
                    <path d="M93.4355004,2.89590364 L93.6266783,2.89590364 C93.8496927,2.89590364 94.0302584,2.82145476 94.0302584,2.6407636 C94.0302584,2.48124162 93.9134451,2.37492006 93.6585148,2.37492006 C93.5523929,2.37492006 93.4779492,2.38554429 93.4355004,2.39616852 L93.4355004,2.89590364 Z M93.4248882,3.88474965 L93.0213081,3.88474965 L93.0213081,2.14102848 C93.1805702,2.10907652 93.4036638,2.08782806 93.6905098,2.08782806 C94.0196462,2.08782806 94.1683753,2.14102848 94.2958008,2.21539808 C94.3913105,2.28984695 94.4657543,2.42812048 94.4657543,2.59818741 C94.4657543,2.78958207 94.3170252,2.93847983 94.1046229,3.0022252 L94.1046229,3.02347365 C94.2745764,3.0872983 94.3701654,3.21486832 94.4233055,3.44883918 C94.4763665,3.71460344 94.5082031,3.820925 94.5506518,3.88474965 L94.1152351,3.88474965 C94.0621742,3.820925 94.0302584,3.6614823 93.9771974,3.45946341 C93.9452816,3.26806874 93.8391597,3.18299563 93.6160661,3.18299563 L93.4248882,3.18299563 L93.4248882,3.88474965 Z M92.3521855,2.97035251 C92.3521855,3.74655541 92.9257191,4.36323631 93.711655,4.36323631 C94.4763665,4.36323631 95.0392087,3.74655541 95.0392087,2.98097674 C95.0392087,2.20477385 94.4763665,1.57746871 93.7010428,1.57746871 C92.9257191,1.57746871 92.3521855,2.20477385 92.3521855,2.97035251 L92.3521855,2.97035251 Z M93.7010428,4.73532213 C92.7027047,4.73532213 91.9061566,3.95919853 91.9061566,2.97035251 C91.9061566,2.00275496 92.7027047,1.22663135 93.7010428,1.22663135 C94.7099931,1.22663135 95.4853168,2.00275496 95.4853168,2.97035251 C95.4853168,3.95919853 94.7099931,4.73532213 93.7010428,4.73532213 Z" id="Fill-30" fill="#FF8802"></path>
                </g>
            </g>
        </g>
    </g>
</svg>