<?xml version="1.0" encoding="UTF-8"?>
<svg width="1280px" height="800px" viewBox="0 0 1280 800" version="1.1" xmlns="http://www.w3.org/2000/svg" xmlns:xlink="http://www.w3.org/1999/xlink">
    <title>theme_thumbnail_rcDark</title>
    <g id="theme_thumbnail_rcDark" stroke="none" stroke-width="1" fill="none" fill-rule="evenodd">
        <g id="Group-44" transform="translate(-1.000000, 0.000000)">
            <g id="Loading-Placeholder">
                <g id="_/Divider" transform="translate(0.000000, 63.000000)" fill="#E0E0E0" fill-rule="nonzero">
                    <rect id="Rectangle" x="0" y="0" width="1280" height="1"></rect>
                </g>
                <g id="Group-3" transform="translate(0.000000, 64.000000)" fill="#282A32">
                    <rect id="overlay" x="0" y="0" width="73" height="736"></rect>
                </g>
                <rect id="header-bg-copy-4" fill="#30323A" fill-rule="nonzero" x="1" y="0" width="1280" height="64"></rect>
                <path d="M51,744 C53.209139,744 55,745.790861 55,748 L55,776 C55,778.209139 53.209139,780 51,780 L23,780 C20.790861,780 19,778.209139 19,776 L19,748 C19,745.790861 20.790861,744 23,744 L51,744 Z M51,678 C53.209139,678 55,679.790861 55,682 L55,710 C55,712.209139 53.209139,714 51,714 L23,714 C20.790861,714 19,712.209139 19,710 L19,682 C19,679.790861 20.790861,678 23,678 L51,678 Z M51,612 C53.209139,612 55,613.790861 55,616 L55,644 C55,646.209139 53.209139,648 51,648 L23,648 C20.790861,648 19,646.209139 19,644 L19,616 C19,613.790861 20.790861,612 23,612 L51,612 Z M49,302 C51.209139,302 53,303.790861 53,306 L53,334 C53,336.209139 51.209139,338 49,338 L21,338 C18.790861,338 17,336.209139 17,334 L17,306 C17,303.790861 18.790861,302 21,302 L49,302 Z M49,236 C51.209139,236 53,237.790861 53,240 L53,268 C53,270.209139 51.209139,272 49,272 L21,272 C18.790861,272 17,270.209139 17,268 L17,240 C17,237.790861 18.790861,236 21,236 L49,236 Z M49,170 C51.209139,170 53,171.790861 53,174 L53,202 C53,204.209139 51.209139,206 49,206 L21,206 C18.790861,206 17,204.209139 17,202 L17,174 C17,171.790861 18.790861,170 21,170 L49,170 Z M49,104 C51.209139,104 53,105.790861 53,108 L53,136 C53,138.209139 51.209139,140 49,140 L21,140 C18.790861,140 17,138.209139 17,136 L17,108 C17,105.790861 18.790861,104 21,104 L49,104 Z" id="Combined-Shape" fill="#72747E" fill-rule="nonzero"></path>
                <circle id="Oval" fill="#FF8800" cx="53" cy="104" r="10"></circle>
                <rect id="Rectangle-2-Copy-11" fill-opacity="0.32" fill="#90929A" fill-rule="nonzero" x="1233" y="16" width="32" height="32" rx="16"></rect>
                <rect id="Rectangle-2-Copy-31" fill-opacity="0.32" fill="#90929A" fill-rule="nonzero" x="323" y="16" width="32" height="32" rx="16"></rect>
                <rect id="Rectangle-2-Copy-20" fill-opacity="0.32" fill="#90929A" fill-rule="nonzero" x="1185" y="16" width="32" height="32" rx="16"></rect>
                <rect id="Rectangle-2-Copy-32" fill-opacity="0.32" fill="#90929A" fill-rule="nonzero" x="263" y="16" width="32" height="32" rx="16"></rect>
                <rect id="Rectangle-2-Copy-9" fill-opacity="0.32" fill="#90929A" fill-rule="nonzero" x="73" y="16" width="160" height="32" rx="16"></rect>
                <rect id="Rectangle-2-Copy-10" fill-opacity="0.32" fill="#90929A" fill-rule="nonzero" x="377" y="16" width="640" height="32" rx="16"></rect>
                <circle id="Oval" fill="#CACACA" fill-rule="nonzero" cx="37" cy="32" r="20"></circle>
                <g id="Group-4" transform="translate(72.000000, 64.000000)">
                    <rect id="overlay" fill="#282A32" x="0" y="0" width="257" height="736"></rect>
                    <g id="_/Divider" transform="translate(256.000000, 368.500000) rotate(-270.000000) translate(-256.000000, -368.500000) translate(-112.000000, 368.000000)"></g>
                </g>
                <g id="Group-43" transform="translate(96.000000, 94.000000)" fill="#1E2027" fill-rule="nonzero">
                    <path d="M4,0 L206,0 C208.209139,-4.05812251e-16 210,1.790861 210,4 L210,32 C210,34.209139 208.209139,36 206,36 L4,36 C1.790861,36 2.705415e-16,34.209139 0,32 L0,4 C-2.705415e-16,1.790861 1.790861,4.05812251e-16 4,0 Z" id="Rectangle-2-Copy-14"></path>
                </g>
                <path d="M100,146 L302,146 C304.209139,146 306,147.790861 306,150 L306,178 C306,180.209139 304.209139,182 302,182 L100,182 C97.790861,182 96,180.209139 96,178 L96,150 C96,147.790861 97.790861,146 100,146 Z" id="Rectangle-2-Copy-34" fill="#1E2027" fill-rule="nonzero"></path>
                <g id="Group-6" transform="translate(96.000000, 276.000000)" fill="#72747E" fill-rule="nonzero">
                    <path d="M206,274 C208.209139,274 210,275.790861 210,278 L210,294 C210,296.209139 208.209139,298 206,298 L4,298 C1.790861,298 2.705415e-16,296.209139 0,294 L0,278 C-2.705415e-16,275.790861 1.790861,274 4,274 L206,274 Z M206,226 C208.209139,226 210,227.790861 210,230 L210,246 C210,248.209139 208.209139,250 206,250 L4,250 C1.790861,250 2.705415e-16,248.209139 0,246 L0,230 C-2.705415e-16,227.790861 1.790861,226 4,226 L206,226 Z M206,178 C208.209139,178 210,179.790861 210,182 L210,198 C210,200.209139 208.209139,202 206,202 L4,202 C1.790861,202 2.705415e-16,200.209139 0,198 L0,182 C-2.705415e-16,179.790861 1.790861,178 4,178 L206,178 Z M206,130 C208.209139,130 210,131.790861 210,134 L210,150 C210,152.209139 208.209139,154 206,154 L4,154 C1.790861,154 2.705415e-16,152.209139 0,150 L0,134 C-2.705415e-16,131.790861 1.790861,130 4,130 L206,130 Z M206,48 C208.209139,48 210,49.790861 210,52 L210,68 C210,70.209139 208.209139,72 206,72 L4,72 C1.790861,72 2.705415e-16,70.209139 0,68 L0,52 C-2.705415e-16,49.790861 1.790861,48 4,48 L206,48 Z M206,0 C208.209139,-4.05812251e-16 210,1.790861 210,4 L210,20 C210,22.209139 208.209139,24 206,24 L4,24 C1.790861,24 2.705415e-16,22.209139 0,20 L0,4 C-2.705415e-16,1.790861 1.790861,4.05812251e-16 4,0 L206,0 Z" id="Combined-Shape"></path>
                </g>
                <path d="M100,228 L302,228 C304.209139,228 306,229.790861 306,232 L306,248 C306,250.209139 304.209139,252 302,252 L100,252 C97.790861,252 96,250.209139 96,248 L96,232 C96,229.790861 97.790861,228 100,228 Z" id="Rectangle-2-Copy-13" fill="#356AFD" fill-rule="nonzero"></path>
                <g id="Group-5" transform="translate(73.000000, 64.000000)">
                    <rect id="overlay" fill="#1E2027" x="255" y="0" width="670" height="736"></rect>
                    <rect id="Rectangle" fill="#44464E" fill-rule="nonzero" x="0" y="0" width="1" height="736"></rect>
                    <rect id="Rectangle-Copy-6" fill="#30323A" fill-rule="nonzero" x="344" y="73" width="528" height="118" rx="4"></rect>
                    <path d="M312,494 C320.836556,494 328,501.163444 328,510 C328,518.836556 320.836556,526 312,526 C303.163444,526 296,518.836556 296,510 C296,501.163444 303.163444,494 312,494 Z M642,496 C643.104569,496 644,496.895431 644,498 L644,522 C644,523.104569 643.104569,524 642,524 L346,524 C344.895431,524 344,523.104569 344,522 L344,498 C344,496.895431 344.895431,496 346,496 L642,496 Z M542,391 C543.104569,391 544,391.895431 544,393 L544,417 C544,418.104569 543.104569,419 542,419 L346,419 C344.895431,419 344,418.104569 344,417 L344,393 C344,391.895431 344.895431,391 346,391 L542,391 Z M835,355 C836.104569,355 837,355.895431 837,357 L837,381 C837,382.104569 836.104569,383 835,383 L346,383 C344.895431,383 344,382.104569 344,381 L344,357 C344,355.895431 344.895431,355 346,355 L835,355 Z M312,317 C320.836556,317 328,324.163444 328,333 C328,341.836556 320.836556,349 312,349 C303.163444,349 296,341.836556 296,333 C296,324.163444 303.163444,317 312,317 Z M742,319 C743.104569,319 744,319.895431 744,321 L744,345 C744,346.104569 743.104569,347 742,347 L346,347 C344.895431,347 344,346.104569 344,345 L344,321 C344,319.895431 344.895431,319 346,319 L742,319 Z M542,221 C543.104569,221 544,221.895431 544,223 L544,247 C544,248.104569 543.104569,249 542,249 L346,249 C344.895431,249 344,248.104569 344,247 L344,223 C344,221.895431 344.895431,221 346,221 L542,221 Z M709,143 C711.209139,143 713,144.790861 713,147 L713,167 C713,169.209139 711.209139,171 709,171 L369,171 C366.790861,171 365,169.209139 365,167 L365,147 C365,144.790861 366.790861,143 369,143 L709,143 Z M848,93 C850.209139,93 852,94.790861 852,97 L852,117 C852,119.209139 850.209139,121 848,121 L369,121 C366.790861,121 365,119.209139 365,117 L365,97 C365,94.790861 366.790861,93 369,93 L848,93 Z M312,73 C323.045695,73 332,81.954305 332,93 C332,104.045695 323.045695,113 312,113 C300.954305,113 292,104.045695 292,93 C292,81.954305 300.954305,73 312,73 Z" id="Combined-Shape" fill="#44464E"></path>
                </g>
                <rect id="overlay" fill="#1E2027" x="998" y="64" width="283" height="736"></rect>
                <path d="M1034,254 C1045.04569,254 1054,262.954305 1054,274 C1054,285.045695 1045.04569,294 1034,294 C1022.95431,294 1014,285.045695 1014,274 C1014,262.954305 1022.95431,254 1034,254 Z M1086,254 C1097.04569,254 1106,262.954305 1106,274 C1106,285.045695 1097.04569,294 1086,294 C1074.95431,294 1066,285.045695 1066,274 C1066,262.954305 1074.95431,254 1086,254 Z M1138,254 C1149.04569,254 1158,262.954305 1158,274 C1158,285.045695 1149.04569,294 1138,294 C1126.95431,294 1118,285.045695 1118,274 C1118,262.954305 1126.95431,254 1138,254 Z M1034,206 C1045.04569,206 1054,214.954305 1054,226 C1054,237.045695 1045.04569,246 1034,246 C1022.95431,246 1014,237.045695 1014,226 C1014,214.954305 1022.95431,206 1034,206 Z M1086,206 C1097.04569,206 1106,214.954305 1106,226 C1106,237.045695 1097.04569,246 1086,246 C1074.95431,246 1066,237.045695 1066,226 C1066,214.954305 1074.95431,206 1086,206 Z M1138,206 C1149.04569,206 1158,214.954305 1158,226 C1158,237.045695 1149.04569,246 1138,246 C1126.95431,246 1118,237.045695 1118,226 C1118,214.954305 1126.95431,206 1138,206 Z M1190,206 C1201.04569,206 1210,214.954305 1210,226 C1210,237.045695 1201.04569,246 1190,246 C1178.95431,246 1170,237.045695 1170,226 C1170,214.954305 1178.95431,206 1190,206 Z M1252,142 C1254.20914,142 1256,143.790861 1256,146 L1256,170 C1256,172.209139 1254.20914,174 1252,174 L1018,174 C1015.79086,174 1014,172.209139 1014,170 L1014,146 C1014,143.790861 1015.79086,142 1018,142 L1252,142 Z M1175,94 C1177.20914,94 1179,95.790861 1179,98 L1179,122 C1179,124.209139 1177.20914,126 1175,126 L1018,126 C1015.79086,126 1014,124.209139 1014,122 L1014,98 C1014,95.790861 1015.79086,94 1018,94 L1175,94 Z" id="Combined-Shape" fill="#44464E" fill-rule="nonzero"></path>
                <path d="M1058,640 C1060.20914,640 1062,641.790861 1062,644 L1062,684 C1062,686.209139 1060.20914,688 1058,688 L1018,688 C1015.79086,688 1014,686.209139 1014,684 L1014,644 C1014,641.790861 1015.79086,640 1018,640 L1058,640 Z M1058,532 C1060.20914,532 1062,533.790861 1062,536 L1062,576 C1062,578.209139 1060.20914,580 1058,580 L1018,580 C1015.79086,580 1014,578.209139 1014,576 L1014,536 C1014,533.790861 1015.79086,532 1018,532 L1058,532 Z M1058,424 C1060.20914,424 1062,425.790861 1062,428 L1062,468 C1062,470.209139 1060.20914,472 1058,472 L1018,472 C1015.79086,472 1014,470.209139 1014,468 L1014,428 C1014,425.790861 1015.79086,424 1018,424 L1058,424 Z" id="Combined-Shape" fill="#44464E" fill-rule="nonzero"></path>
                <rect id="Rectangle" fill="#383A43" x="998" y="63" width="1" height="738"></rect>
                <path d="M1138,670 C1140.20914,670 1142,671.790861 1142,674 L1142,684 C1142,686.209139 1140.20914,688 1138,688 L1078,688 C1075.79086,688 1074,686.209139 1074,684 L1074,674 C1074,671.790861 1075.79086,670 1078,670 L1138,670 Z M1252,640 C1254.20914,640 1256,641.790861 1256,644 L1256,660 C1256,662.209139 1254.20914,664 1252,664 L1078,664 C1075.79086,664 1074,662.209139 1074,660 L1074,644 C1074,641.790861 1075.79086,640 1078,640 L1252,640 Z M1138,562 C1140.20914,562 1142,563.790861 1142,566 L1142,576 C1142,578.209139 1140.20914,580 1138,580 L1078,580 C1075.79086,580 1074,578.209139 1074,576 L1074,566 C1074,563.790861 1075.79086,562 1078,562 L1138,562 Z M1252,532 C1254.20914,532 1256,533.790861 1256,536 L1256,552 C1256,554.209139 1254.20914,556 1252,556 L1078,556 C1075.79086,556 1074,554.209139 1074,552 L1074,536 C1074,533.790861 1075.79086,532 1078,532 L1252,532 Z M1138,454 C1140.20914,454 1142,455.790861 1142,458 L1142,468 C1142,470.209139 1140.20914,472 1138,472 L1078,472 C1075.79086,472 1074,470.209139 1074,468 L1074,458 C1074,455.790861 1075.79086,454 1078,454 L1138,454 Z M1252,424 C1254.20914,424 1256,425.790861 1256,428 L1256,444 C1256,446.209139 1254.20914,448 1252,448 L1078,448 C1075.79086,448 1074,446.209139 1074,444 L1074,428 C1074,425.790861 1075.79086,424 1078,424 L1252,424 Z" id="Combined-Shape" fill="#30323A" fill-rule="nonzero"></path>
                <rect id="Rectangle-2-Copy-23" fill="#44464E" fill-rule="nonzero" x="365" y="738" width="597" height="40" rx="4"></rect>
            </g>
            <rect id="Rectangle" fill="#60646F" x="329" y="713" width="669" height="1"></rect>
        </g>
    </g>
</svg>