<?xml version="1.0" encoding="utf-8"?>
<!-- Generator: Adobe Illustrator 26.0.1, SVG Export Plug-In . SVG Version: 6.00 Build 0)  -->
<svg version="1.1" id="Layer_1" xmlns="http://www.w3.org/2000/svg" xmlns:xlink="http://www.w3.org/1999/xlink" x="0px" y="0px"
	 viewBox="0 0 336.5 300" style="enable-background:new 0 0 336.5 300;" xml:space="preserve">
<style type="text/css">
	.st0{fill:#FFFFFF;}
</style>
<g>
	<path class="st0" d="M162.7,151.4c-9,6.6-12.7,12.3-12.7,18.1c0,9,7.4,14.4,18.1,14.4c6.6,0,11.1-2.1,14.8-5.3h0L162.7,151.4z"/>
	<path class="st0" d="M176.2,115.3c0-4.9-3.3-7.8-8.6-7.8c-4.9,0-8.6,3.3-8.6,7.8c0,4.1,1.2,6.6,7.4,14.4
		C173.7,124.8,176.2,119.8,176.2,115.3z"/>
	<path class="st0" d="M55.1,34.5v231h231v-231H55.1z M117.9,198.6L117.9,198.6l-20.9,0v-88.2H80.2V93.6h37.8V198.6z M198.4,198.6
		l-4.5-6.2c-7.8,6.2-14.8,8.2-25.4,8.2c-21.3,0-36.1-10.7-37.3-30c-0.8-11.5,7-23.4,21.8-32c-9.4-11.9-11.5-16-11.5-23.8
		c0-13.1,11.1-22.6,26.7-22.6c14.8,0,25,9.8,25,23c0,9.8-4.1,16.8-16.4,27.1l18.1,24.6c1.2-1.2,2.9-9.4,2.5-16.4
		c0-0.8-0.4-3.3-0.4-5.7h0l0,0v0H214c0,2.1,0.4,5.3,0.4,6.2c0,13.5-2.1,21.7-8.6,30l13.5,17.6H198.4z M252.5,198.6L252.5,198.6
		l-20.9,0v-88.2h-16.8V93.6h37.8V198.6z"/>
</g>
</svg>
