<svg width="263.28767123287673" height="40" viewBox="0 0 961 146" fill="none" xmlns="http://www.w3.org/2000/svg">
<g clip-path="url(#clip0_9101_119720)">
<path fill-rule="evenodd" clip-rule="evenodd" d="M174.671 18.1439C174.671 18.1441 174.672 18.1441 174.673 18.1441C175.436 19.6787 177.059 20.4791 178.653 20.3242C179.132 20.2726 179.597 20.1324 180.04 19.9184C182.021 18.9114 182.821 16.5099 181.822 14.5253C181.549 13.8871 176.126 3.90507 160.614 1.14211C156.804 0.45967 153.373 0.404337 150.374 0.72158C140.613 1.73971 135.501 6.68647 135.11 7.06643C133.542 8.61944 133.542 11.1684 135.11 12.7215C136.666 14.2929 139.208 14.3077 140.765 12.7362C140.765 12.7362 140.813 12.6661 141.222 12.3821C142.391 11.4562 145.726 9.25024 151.204 8.67846C153.469 8.44606 156.11 8.47189 159.183 9.02153C165.432 10.1688 169.287 12.5887 171.663 14.6507C172.832 15.7021 173.632 16.639 174.119 17.2957C174.355 17.6166 174.518 17.8785 174.595 18.026C174.634 18.0851 174.651 18.1146 174.66 18.1293C174.667 18.1408 174.668 18.1434 174.671 18.1439ZM926.183 1.53342L905.828 118.884H939.743L960.106 1.53342H926.183ZM447.474 46.2858C447.43 46.6141 447.389 46.9719 447.389 47.374H481.924C482.009 46.5514 482.075 45.7915 482.075 45.0648V42.7482C482.075 29.815 478.088 19.785 470.142 12.6987C462.178 5.60499 450.122 2.06737 433.991 2.06737C426.285 2.06737 418.811 3.42856 411.559 6.13619C404.318 8.86964 397.774 12.7466 391.916 17.7856C386.054 22.8172 381.071 28.926 376.961 36.1193C372.841 43.3347 370.033 51.3949 368.48 60.3219C368.071 62.6939 367.761 64.9773 367.558 67.1832C367.344 69.3855 367.248 71.525 367.248 73.5686C367.248 80.6771 368.348 87.0072 370.561 92.6143C372.76 98.2066 376.013 102.965 380.266 106.868C384.538 110.775 389.75 113.748 395.915 115.802C402.082 117.861 409.172 118.886 417.185 118.886C424.485 118.886 431.39 117.835 437.923 115.729C444.442 113.633 450.355 110.59 455.641 106.647C460.934 102.696 465.516 97.882 469.364 92.238C473.207 86.583 476.162 80.157 478.22 72.96H443.239C441.597 78.3199 439.004 82.7871 435.463 86.3727C431.903 89.9657 427.207 91.7584 421.349 91.7584C417.86 91.7584 414.982 91.2826 412.721 90.294C410.46 89.3275 408.634 87.9847 407.25 86.2952C405.863 84.5947 404.882 82.6101 404.318 80.3598C403.757 78.1096 403.48 75.6418 403.48 72.96C403.48 71.2115 403.565 69.3855 403.783 67.4857C403.986 65.6007 404.296 63.6124 404.698 61.5466C406.546 50.7788 409.748 42.6818 414.263 37.2776C418.771 31.8808 424.271 29.199 430.76 29.199C436.101 29.199 440.233 30.5786 443.161 33.3526C446.09 36.1193 447.562 40.0737 447.562 45.2197C447.562 45.6329 447.533 45.9907 447.474 46.2858ZM551.122 64.1202C551.225 63.5743 551.284 62.7701 551.284 61.6782C551.284 58.1922 550.082 55.2559 547.71 52.8766C545.312 50.4899 542.324 49.2984 538.735 49.2984C533.637 49.2984 529.513 50.6153 526.355 53.2824C523.197 55.9531 521.191 59.5534 520.32 64.1202H551.122ZM517.383 81.4099C517.28 81.9374 517.199 82.4871 517.147 83.0257C517.081 83.5642 517.066 84.1102 517.066 84.6635C517.066 88.8061 518.42 92.0781 521.131 94.5202C523.857 96.9733 527.222 98.1795 531.228 98.1795C533.954 98.1795 536.577 97.5561 539.059 96.324C541.56 95.0661 543.619 93.2143 545.245 90.6948H577.693C575.299 96.0178 572.178 100.463 568.323 104.06C564.453 107.634 560.204 110.545 555.523 112.791C550.845 114.997 545.932 116.587 540.775 117.509C535.595 118.424 530.542 118.889 525.536 118.889C519.449 118.889 513.85 118.125 508.751 116.598C503.639 115.082 499.238 112.802 495.553 109.755C491.849 106.727 488.975 103.005 486.913 98.589C484.848 94.1808 483.804 89.1233 483.804 83.354C483.804 81.9374 483.903 80.4877 484.058 79.0232C484.202 77.5624 484.405 76.0869 484.623 74.5486C485.818 67.6025 488.157 61.265 491.639 55.5657C495.11 49.8664 499.371 45.0266 504.421 41.0611C509.478 37.0882 515.126 34.0265 521.371 31.8426C527.631 29.6699 534.171 28.5891 541.011 28.5891C547.861 28.5891 553.918 29.5703 559.193 31.5217C564.453 33.4694 568.902 36.1955 572.488 39.6741C576.059 43.149 578.788 47.3949 580.625 52.3933C582.477 57.377 583.399 62.8734 583.399 68.853C583.399 72.5493 582.96 76.7251 582.097 81.4099H517.383ZM625.346 33.4743H594.392L579.714 118.886H613.622L621.115 75.3651C621.989 69.8244 623.616 65.4937 625.999 62.4024C628.393 59.3112 632.218 57.7655 637.43 57.7655C641.116 57.7655 643.635 58.7394 644.993 60.6982C646.354 62.6496 647.036 65.0916 647.036 68.0316C647.036 69.8908 646.874 71.7758 646.553 73.7383L638.714 118.886H672.637L681.416 67.6996C682.069 64.0034 682.409 60.4842 682.409 57.1163C682.409 48.6393 680.177 42.1579 675.721 37.7165C671.257 33.2678 664.256 31.0286 654.687 31.0286C648.172 31.0286 642.473 32.3677 637.582 35.02C632.694 37.7055 627.858 41.6267 623.066 46.8465L625.346 33.4743ZM735.326 118.243C731.508 118.442 728.003 118.623 724.79 118.733C721.6 118.848 718.634 118.885 715.911 118.885C710.802 118.885 706.516 118.638 703.045 118.158C699.562 117.678 696.788 116.793 694.723 115.55C692.657 114.311 691.192 112.632 690.314 110.574C689.447 108.534 689.02 105.911 689.02 102.764C689.02 100.813 689.16 98.6071 689.429 96.154C689.702 93.7119 690.093 91.008 690.643 88.079L696.847 52.4077H684.774L688.046 32.8309H700.588L705.324 6.2563H738.727L734.009 32.8309H750.303L747.034 52.4077H730.737L725.37 83.4975C725.148 84.4861 724.993 85.3603 724.875 86.1645C724.761 86.9982 724.706 87.7249 724.706 88.3815C724.706 90.4583 725.37 91.9302 726.664 92.8155C727.985 93.6787 730.42 94.1066 734.009 94.1066H739.384L735.326 118.243ZM788.103 33.4743H757.286L742.626 118.886H776.531L781.585 89.3828C783.211 80.1717 786.066 73.6793 790.143 69.9867C794.223 66.3016 799.726 64.4461 806.68 64.4461C807.879 64.4461 809.048 64.5641 810.199 64.767C810.424 64.8118 810.649 64.8563 810.873 64.9007L811.294 64.9838C812.052 65.1335 812.801 65.2814 813.526 65.431L819.572 31.5229C818.856 31.4325 818.146 31.3192 817.486 31.2138L817.367 31.1946C816.658 31.0876 815.924 31.0286 815.164 31.0286C802.22 31.0286 792.334 37.6059 785.506 50.753H785.163L788.103 33.4743ZM849.266 99.6416C852.184 99.6416 854.777 99.1215 857.005 98.0333C859.23 96.9488 861.104 95.4511 862.616 93.5329C864.155 91.6368 865.328 89.4124 866.206 86.8486C867.083 84.3033 867.674 81.5699 868.006 78.6299C864.97 79.9283 861.886 80.8764 858.798 81.4924C855.711 82.0826 852.815 82.7356 850.159 83.4438C847.499 84.1484 845.194 85.1481 843.312 86.4576C841.398 87.7561 840.232 89.7518 839.801 92.4926V93.4591C839.801 95.3257 840.579 96.8123 842.165 97.9447C843.737 99.0957 846.112 99.6416 849.266 99.6416ZM864.94 119.071L864.741 107.325C859.215 111.87 853.745 114.95 848.352 116.522C842.988 118.086 837.093 118.882 830.671 118.882C827.093 118.882 823.658 118.48 820.408 117.68C817.151 116.865 814.322 115.588 811.935 113.832C809.534 112.099 807.63 109.97 806.217 107.388C804.819 104.854 804.104 101.77 804.104 98.1768C804.104 96.6607 804.255 94.9823 804.602 93.1415C805.682 86.7155 808.051 81.6987 811.684 78.0504C815.325 74.4169 819.571 71.676 824.407 69.8316C829.217 67.9761 834.352 66.7071 839.723 65.9878C842.032 65.6867 844.272 65.3959 846.442 65.114C849.325 64.7398 852.084 64.3815 854.719 64.0364C859.333 63.4277 863.258 62.6383 866.449 61.5907C869.644 60.5504 871.488 58.6875 871.909 55.9688C871.909 55.7549 871.949 55.5631 871.997 55.4008C872.045 55.2348 872.071 55.054 872.071 54.8364C872.082 53.5231 871.687 52.4902 870.931 51.7377C870.171 50.9852 869.271 50.406 868.234 50.0113C867.213 49.6351 866.11 49.3768 864.907 49.1998C863.716 49.0375 862.723 48.9563 861.971 48.9563C860.761 48.9563 859.499 49.0375 858.145 49.1998C856.788 49.3768 855.497 49.7568 854.305 50.3581C853.11 50.9557 852.007 51.793 850.971 52.8776C849.941 53.9732 849.196 55.434 848.765 57.2858H816.166C816.93 52.7005 818.45 48.6649 820.737 45.131C823.016 41.6007 826.259 38.6017 830.427 36.167C834.622 33.7213 839.742 31.8437 845.828 30.5452C851.915 29.2209 859.215 28.5938 867.674 28.5938C875.395 28.5938 881.732 29.1065 886.653 30.1468C891.607 31.1649 895.499 32.6663 898.314 34.6287C901.143 36.5691 903.105 38.9152 904.186 41.6265C905.267 44.3415 905.828 47.3922 905.828 50.7675C905.828 52.8185 905.684 54.9433 905.415 57.105C905.138 59.2851 904.776 61.5612 904.352 63.9589L897.495 103.895C897.196 105.739 897.019 107.263 897.019 108.447C897.019 109.66 897.225 110.712 897.668 111.63C898.1 112.552 898.93 113.622 900.11 114.821L899.988 119.071H864.94ZM164.706 27.26C164.697 27.2664 164.695 27.2639 164.678 27.2315C164.655 27.1885 164.603 27.0928 164.467 26.8948L164.46 26.8863C164.197 26.5576 163.786 26.0415 163.139 25.482C161.858 24.3606 159.719 23.0105 156.185 22.3502C154.444 22.0366 152.957 22.0218 151.718 22.1546C148.671 22.4756 146.863 23.6892 146.247 24.1614C146.074 24.2942 146.085 24.3126 146.085 24.3126C144.786 25.6074 142.669 25.6185 141.356 24.3126C140.05 23.0031 140.05 20.8931 141.356 19.5798C141.68 19.2515 144.919 16.1566 151.017 15.5147C152.883 15.3266 155.008 15.3708 157.358 15.784V15.7803C166.979 17.4956 170.461 23.7298 170.682 24.261C171.509 25.8915 170.848 27.913 169.192 28.7356C168.827 28.9274 168.432 29.0454 168.034 29.0823C166.698 29.2225 165.341 28.529 164.706 27.26ZM153.155 42.8444C157.943 42.8592 161.831 39.5613 161.857 35.4482C161.886 31.361 158.013 27.9893 153.225 27.9635C148.422 27.9525 144.523 31.2577 144.516 35.3781C144.493 39.4654 148.359 42.8223 153.155 42.8444Z" fill="white"/>
<path fill-rule="evenodd" clip-rule="evenodd" d="M65.8562 51.7422H50.7097L54.6088 28.4359H72.5367C76.5539 28.4359 79.8296 29.2253 82.3159 30.7931C84.8243 32.3793 86.0601 34.8435 86.0601 38.2077C86.0601 39.307 86.0158 40.1149 85.9015 40.6534C85.2559 44.796 83.2381 47.6697 79.8628 49.3001C76.4986 50.9195 71.8321 51.7422 65.8562 51.7422ZM39.1268 118.404L46.143 77.4942H57.8736C64.7128 77.4942 69.4124 78.3353 71.9688 80.01C74.5215 81.718 75.8089 84.6137 75.8089 88.7453C75.8089 91.25 75.4769 94.2712 74.8203 97.8715C74.171 101.453 73.6988 104.692 73.4332 107.551C73.1713 110.458 73.0238 112.804 73.0238 114.667C73.0238 116.069 73.1308 117.319 73.3595 118.404H112.314L112.793 114.826C110.846 114.826 109.868 113.516 109.868 110.919C109.868 109.388 110.078 107.271 110.525 104.552C110.953 101.841 111.55 98.4101 112.314 94.2712C113.077 89.8224 113.457 85.9233 113.457 82.5443C113.457 79.2907 113.077 76.631 112.314 74.569C111.55 72.4958 110.495 70.7584 109.141 69.3455C107.777 67.9327 106.15 66.767 104.239 65.8448C102.347 64.9189 100.196 64.0225 97.8093 63.1409C104.973 61.3075 110.599 57.744 114.667 52.48C118.751 47.2013 121.381 41.1958 122.576 34.4599C123.119 31.4203 123.403 28.7422 123.403 26.4735C123.403 22.1244 122.558 18.3839 120.854 15.2262C119.179 12.0648 116.464 9.44204 112.716 7.32832C108.964 5.21091 104.128 3.63946 98.2077 2.59182C92.2907 1.57 85.0237 1.05725 76.4581 1.05725H21.0366L0.659302 118.404H39.1268ZM137.751 49.0837L118.657 118.405H152.406L162.315 49.0837H137.751ZM177.394 32.9932H208.366L206.079 46.3654C210.859 41.1456 215.699 37.2281 220.583 34.5389C225.482 31.8903 231.189 30.5475 237.707 30.5475C247.257 30.5475 254.274 32.7867 258.73 37.2354C263.19 41.6768 265.41 48.1582 265.41 56.6352C265.41 60.0031 265.082 63.5223 264.44 67.2185L255.639 118.405H221.723L229.555 73.2572C229.879 71.2947 230.053 69.4097 230.053 67.5505C230.053 64.6105 229.355 62.1685 228.002 60.2171C226.648 58.2583 224.117 57.2844 220.425 57.2844C215.216 57.2844 211.387 58.8301 209.015 61.9213C206.617 65.0163 204.983 69.3433 204.127 74.884L196.624 118.405H162.727L177.394 32.9932ZM310.705 54.5485C312.553 53.5599 314.726 53.0767 317.22 53.0767H317.559C321.897 53.0767 324.933 54.3604 326.667 56.9315C328.404 59.4879 329.29 62.5607 329.29 66.1721C329.29 68.0276 329.113 69.8315 328.803 71.5837C328.371 73.8745 327.703 76.0878 326.84 78.2163C325.977 80.3448 324.856 82.2298 323.505 83.8713C322.144 85.4944 320.51 86.8224 318.614 87.7704C316.699 88.7664 314.567 89.2718 312.17 89.2718H311.365C307.544 89.1685 304.814 87.8922 303.117 85.4133C301.45 82.9565 300.609 80.0423 300.598 76.6448C300.598 76.0067 300.616 75.3463 300.686 74.686C300.73 74.0479 300.808 73.3248 300.926 72.5502C301.346 69.8315 301.985 67.2788 302.804 64.8626C303.608 62.4611 304.666 60.388 305.972 58.6542C307.289 56.9057 308.861 55.5371 310.705 54.5485ZM297.012 121.693V121.21H262.949V122.335C262.949 125.397 263.691 128.333 265.14 131.144C266.612 133.985 268.91 136.478 272.075 138.662C275.226 140.827 279.361 142.554 284.463 143.867C289.575 145.169 295.813 145.815 303.202 145.815C313.748 145.815 322.222 144.642 328.64 142.325C335.044 139.986 340.102 136.751 343.791 132.616C347.483 128.484 350.176 123.645 351.873 118.111C353.544 112.563 354.927 106.584 356.027 100.191L367.923 31.3972H338.091L336.306 42.5634C333.908 38.454 330.669 35.1488 326.589 32.6736C322.532 30.1947 317.887 28.9626 312.66 28.9626C305.589 28.9626 299.436 30.2352 294.164 32.7806C288.893 35.3443 284.381 38.6458 280.637 42.7331C276.878 46.8093 273.883 51.4499 271.673 56.666C269.445 61.8894 267.888 67.0981 267.025 72.3178C266.793 73.8376 266.612 75.2984 266.461 76.7113C266.299 78.1241 266.21 79.548 266.21 80.9461C266.21 85.4133 266.867 89.5854 268.165 93.4993C269.467 97.4168 271.422 100.781 274.041 103.618C276.646 106.432 279.877 108.668 283.725 110.284C287.58 111.903 292.076 112.737 297.174 112.737C303.375 112.737 308.566 111.807 312.749 109.959C316.932 108.122 320.425 105.931 323.262 103.437L321.952 110.446C320.868 116.551 319.064 120.837 316.574 123.335C314.066 125.828 310.38 127.068 305.496 127.068C302.01 127.068 299.675 126.374 298.48 124.965C297.499 123.973 297.012 122.896 297.012 121.693Z" fill="white"/>
</g>
<defs>
<clipPath id="clip0_9101_119720">
<rect width="961" height="146" fill="white"/>
</clipPath>
</defs>
</svg>
