<?xml version="1.0" encoding="UTF-8"?>
<svg width="50px" height="50px" viewBox="0 0 50 50" version="1.1" xmlns="http://www.w3.org/2000/svg" xmlns:xlink="http://www.w3.org/1999/xlink">
    <!-- Generator: Sketch 61.2 (89653) - https://sketch.com -->
    <title>phone_icon</title>
    <desc>Created with Sketch.</desc>
    <g id="phone_icon" stroke="none" stroke-width="1" fill="none" fill-rule="evenodd">
        <g id="Group-18-Copy-3">
            <rect id="Rectangle" fill="#FF8800" x="0" y="0" width="50" height="50" rx="7.69230769"></rect>
            <circle id="Oval-Copy" stroke="#0684BD" stroke-width="1.34615385" fill="#FFFFFF" cx="25.5" cy="25.5" r="20.8269231"></circle>
            <path d="M19.7405437,28.9378846 C14.6517255,22.5063318 14.0621745,17.1467009 16.0790865,15.3181384 C16.6065941,14.8452273 18.0029016,14.1200954 18.6545173,14.0255261 C19.3681978,13.8994266 20.0818571,14.2462166 20.4542241,14.9398181 C21.1679046,16.4215906 22.0367257,17.8718543 22.9365791,19.2905662 C23.3399573,19.9211072 23.2468814,20.7092997 22.7193738,21.2452498 C22.4090715,21.5605311 21.198937,22.2226024 20.9817317,22.4117625 C20.9817317,22.4117625 20.8886347,22.5063534 20.8886347,22.6955135 C20.8576023,23.1053641 20.919667,24.2403466 22.6883415,26.5103114 C24.6121565,28.9063759 25.7602475,29.0640058 26.0705286,29.0640058 C26.1946368,29.0640058 26.2877339,29.0324755 26.2877339,29.0324755 C26.5049392,28.8433153 26.6911121,28.6226249 26.877285,28.4019345 C27.1565549,28.0866532 27.4047926,27.7713935 27.7771384,27.5191727 C28.3977218,27.1093222 29.2355105,27.2038915 29.7009534,27.7083329 C30.8800768,28.9063759 32.152276,30.0413368 33.3624105,31.1132802 C33.9519616,31.6177217 34.1691668,32.4058925 33.8588857,33.0679638 C33.6416805,33.6669746 32.6487512,34.8965478 32.0591789,35.369459 C31.5627037,35.8108399 30.8800556,36 30.1043316,36 C27.1255226,35.9999784 23.2468602,33.3516933 19.7405437,28.9378846 Z" id="Shape-Copy" fill="#0684BD" fill-rule="nonzero"></path>
        </g>
    </g>
</svg>