<?xml version="1.0" encoding="UTF-8"?>
<svg width="300px" height="55px" viewBox="0 0 300 55" version="1.1" xmlns="http://www.w3.org/2000/svg" xmlns:xlink="http://www.w3.org/1999/xlink">
    <title>frontier_business-gsp-logo-secondary-white_red_bg copy 5</title>
    <g id="New-logo-resize" stroke="none" stroke-width="1" fill="none" fill-rule="evenodd">
        <g id="frontier_business-gsp-logo-secondary-white_red_bg-copy-5">
            <rect id="Rectangle" fill="#ED0033" fill-rule="nonzero" x="0" y="0" width="300" height="54.8985304"></rect>
            <polygon id="Path" fill="#FFFFFF" points="157.977607 39.5731281 157.977607 8.08257523 159.027292 8.08257523 159.027292 39.5731281"></polygon>
            <polygon id="Path" fill="#FFFFFF" fill-rule="nonzero" points="283.43282 15.2393282 280.882085 15.2393282 280.882085 31.516795 283.43282 31.516795"></polygon>
            <path d="M274.481106,20.6969559 C272.126662,20.6969559 270.30126,21.8396431 269.992652,24.1723583 L272.4993,24.1723583 C272.676697,23.2927222 273.325402,22.7645206 274.481106,22.7645206 C275.822603,22.7645206 276.438768,23.5341498 276.438768,24.7437019 L276.438768,25.293422 L273.864941,25.293422 C271.492652,25.293422 269.739678,26.3498251 269.739678,28.5057733 C269.739678,30.6617215 271.169349,31.7828901 273.237229,31.7828901 C274.843247,31.7828901 275.89923,31.0994402 276.471309,29.999895 L276.581526,29.999895 L276.581526,31.5090273 L279,31.5090273 L279,24.8255773 C278.989503,22.2470259 277.670049,20.6969559 274.481106,20.6969559 Z M273.963611,29.8252274 C272.973758,29.8252274 272.357593,29.3401679 272.357593,28.5317005 C272.357593,27.606823 273.016795,27.1238628 274.205038,27.1238628 L276.426172,27.1238628 L276.438768,27.2769069 C276.438768,28.876627 275.513996,29.8252274 273.963611,29.8252274 L273.963611,29.8252274 Z" id="Shape" fill="#FFFFFF"></path>
            <path d="M265.218684,31.5170049 L265.218684,26.0407978 C265.218684,24.4130511 266.23268,23.3782715 267.836599,23.3782715 L268.841148,23.3782715 L268.841148,20.9592722 L267.806158,20.9592722 C266.596921,20.9592722 265.717285,21.4206088 265.16725,22.4554934 L265.079076,22.4554934 L265.079076,20.9592722 L262.681596,20.9592722 L262.681596,31.523408 L265.218684,31.5170049 Z" id="Path" fill="#FFFFFF"></path>
            <path d="M261.061931,29.1882785 L261.061931,31.5188943 L259.324703,31.5188943 C256.882085,31.5188943 255.540588,30.3870189 255.540588,27.9442967 L255.540588,23.056753 L253.803359,23.056753 L253.803359,20.9611617 L255.540588,20.9611617 L255.540588,18.1583975 L258.093422,18.1583975 L258.093422,20.9611617 L261.061931,20.9611617 L261.061931,23.056753 L258.093422,23.056753 L258.093422,27.6489153 C258.093422,28.6169349 258.664451,29.1882785 259.63226,29.1882785 L261.061931,29.1882785 Z" id="Path" fill="#FFFFFF"></path>
            <path d="M245.444717,31.5176347 L245.444717,25.403429 C245.444717,23.9072078 246.369489,22.9283765 247.864241,22.9283765 C249.292862,22.9283765 250.151505,23.7540588 250.151505,25.3710987 L250.151505,31.5176347 L252.706438,31.5176347 L252.706438,24.9636109 C252.706438,22.3009797 251.412176,20.6969559 248.769069,20.6969559 C247.160952,20.6969559 245.93177,21.4213436 245.382785,22.4108817 L245.291463,22.4108817 L245.291463,20.960007 L242.90028,20.960007 L242.90028,31.5241428 L245.444717,31.5176347 Z" id="Path" fill="#FFFFFF"></path>
            <path d="M236.06578,29.6949615 C234.459762,29.6949615 233.381735,28.6169349 233.338698,26.9224283 L241.148355,26.9224283 L241.136809,26.096641 C241.136809,22.556578 238.849545,20.706823 236.055283,20.706823 C233.037439,20.706823 230.83205,22.8627712 230.83205,26.2497901 C230.83205,29.636704 232.877887,31.7927572 236.055283,31.7927572 C238.716235,31.7927572 240.453464,30.3849195 240.960462,28.3173548 L238.485304,28.3173548 C238.211337,29.1107068 237.538488,29.6949615 236.06578,29.6949615 Z M236.055283,22.8196291 C237.726382,22.8196291 238.716235,23.7661302 238.782365,25.0854794 L233.328202,25.0854794 C233.569629,23.7445066 234.382085,22.8196291 236.055283,22.8196291 L236.055283,22.8196291 Z" id="Shape" fill="#FFFFFF"></path>
            <path d="M223.197691,31.8027292 C227.002799,31.8027292 229.158852,29.6921274 229.664801,26.5573478 L227.078376,26.5573478 C226.694192,27.986704 225.652904,29.3061582 223.197691,29.3061582 C220.66795,29.3061582 218.644157,27.5814206 218.644157,23.8063331 C218.644157,20.0312456 220.66795,18.3108118 223.197691,18.3108118 C225.726382,18.3108118 226.739328,19.6302659 227.078376,21.0381036 L229.664801,21.0381036 C229.247026,17.903324 227.123513,15.8637859 223.197691,15.8637859 C218.973758,15.8637859 215.917075,18.8109867 215.917075,23.8407628 C215.917075,28.8706438 218.973758,31.8178446 223.197691,31.8178446 L223.197691,31.8027292 Z" id="Path" fill="#FFFFFF"></path>
            <path d="M211.770819,20.9635759 L211.770819,22.4123513 L211.650105,22.4123513 C211.079076,21.4011896 209.890833,20.6984255 208.20084,20.6984255 C205.725682,20.6984255 203.494052,22.6559832 203.494052,26.109867 C203.494052,29.5636459 205.693142,31.5428272 208.20084,31.5428272 C209.828901,31.5428272 210.788314,30.8810007 211.523093,29.7598321 L211.639608,29.7598321 L211.639608,31.9848495 C211.639608,33.1727782 210.979356,33.7224983 209.902379,33.7224983 L204.727432,33.7224983 L204.727432,35.9948565 L209.851994,35.9948565 C212.689293,35.9948565 214.207138,34.4102519 214.207138,31.8144857 L214.207138,20.9635759 L211.770819,20.9635759 Z M208.902029,29.2338348 C207.206788,29.2338348 206.128761,28.1795311 206.128761,26.1119664 C206.128761,24.0444017 207.196291,22.9879986 208.902029,22.9879986 C210.551085,22.9879986 211.650105,24.0423023 211.650105,26.1119664 C211.650105,28.1817355 210.561582,29.2338348 208.902029,29.2338348 Z" id="Shape" fill="#FFFFFF"></path>
            <path d="M194.678796,31.5203639 L194.678796,25.4060532 C194.678796,23.9098321 195.603569,22.9310007 197.09937,22.9310007 C198.529041,22.9310007 199.387684,23.756788 199.387684,25.3737229 L199.387684,31.5203639 L201.937369,31.5203639 L201.937369,24.9662351 C201.937369,22.3036039 200.644157,20.6995801 198.00105,20.6995801 C196.395031,20.6995801 195.153254,21.4239678 194.603219,22.4136109 L194.515045,22.4136109 L194.515045,20.9626312 L192.128062,20.9626312 L192.128062,31.526767 L194.678796,31.5203639 Z" id="Path" fill="#FFFFFF"></path>
            <polygon id="Path" fill="#FFFFFF" fill-rule="nonzero" points="189.972008 20.9609517 187.421274 20.9609517 187.421274 31.5185794 189.972008 31.5185794"></polygon>
            <path d="M182.977957,24.236809 L182.977957,24.13331 C184.538838,23.7020994 185.595871,22.6543037 185.595871,20.30007 C185.595871,17.8810707 183.790413,16.1195941 180.447166,16.1195941 L174.772568,16.1195941 L174.772568,31.5175297 L177.411477,31.5175297 L177.411477,25.403219 L180.623513,25.403219 C182.120364,25.403219 182.86774,26.1513296 182.86774,27.6475507 L182.86774,31.5282365 L185.506648,31.5282365 L185.506648,27.6475507 C185.506648,25.469979 184.581875,24.5903429 182.977957,24.236809 Z M180.304409,23.0273618 L177.411477,23.0273618 L177.411477,18.49986 L180.304409,18.49986 C181.73408,18.49986 182.83415,19.0948216 182.83415,20.7657103 C182.83415,22.436599 181.723583,23.0273618 180.304409,23.0273618 L180.304409,23.0273618 Z" id="Shape" fill="#FFFFFF"></path>
            <path d="M188.695591,19.2674948 C189.031491,19.2679146 189.358992,19.1688244 189.638209,18.9828202 C189.917425,18.796816 190.13471,18.5320854 190.262771,18.2224283 C190.391882,17.9126662 190.425472,17.5717285 190.360392,17.2428621 C190.295311,16.9138908 190.13366,16.6117915 189.896431,16.3746676 C189.659202,16.1375437 189.356893,15.9761022 189.028341,15.9108118 C188.69874,15.8455213 188.358642,15.8792162 188.048985,16.0076977 C187.738279,16.1362841 187.473758,16.3537789 187.287964,16.6327852 C187.102169,16.9117915 187.003499,17.2397131 187.003499,17.5750875 C187.00035,17.9107768 187.097971,18.2395381 187.284815,18.5189643 C187.470609,18.7983905 187.736179,19.0155703 188.046886,19.1424773 C188.252624,19.2279216 188.473058,19.2704339 188.695591,19.2674948 L188.695591,19.2674948 Z" id="Path" fill="#FFFFFF"></path>
            <path d="M186.750525,12.8780616 C186.13331,13.136599 185.571728,13.5138558 185.09937,13.9883135 L186.296011,15.1848495 C186.609867,14.8694192 186.982505,14.6188593 187.392932,14.4474458 C187.803359,14.2761372 188.244227,14.1873338 188.688244,14.1860742 C189.13331,14.1849195 189.574178,14.2713086 189.985654,14.4405178 C190.397131,14.6096221 190.770819,14.8581875 191.086774,15.1719384 L192.283415,13.9754024 C191.572778,13.2663401 190.66795,12.7836949 189.683345,12.5883485 C188.69874,12.3930021 187.678446,12.4937719 186.750525,12.8780616 L186.750525,12.8780616 Z" id="Path" fill="#FFFFFF"></path>
            <path d="M82.3539888,31.6622813 L84.2441568,31.6622813 L84.2441568,18.8902379 L82.3539888,18.8902379 L82.3539888,31.6622813 Z M108.6676,29.8361442 L109.425472,29.8361442 L109.425472,31.6622814 L108.46711,31.6622814 C108.207838,31.6622814 107.952764,31.5939468 107.728132,31.4638908 C107.502449,31.3339398 107.316655,31.1469909 107.186494,30.9219384 L104.451959,26.1857593 L100.040553,26.1857593 L100.040553,31.6622814 L98.1515395,31.6622814 L98.1515395,18.8902379 L98.1576277,18.8902379 L98.1515395,18.8840448 L105.846046,18.8840448 C107.744927,18.8840448 109.389783,20.3019594 109.558782,22.1930721 C109.643807,23.1114416 109.379286,24.0282365 108.816655,24.7591323 C108.254024,25.489923 107.435269,25.9805458 106.525192,26.1321204 L108.6676,29.8361442 Z M105.926872,24.3605668 C106.403429,24.3493352 106.856893,24.1519944 107.189643,23.8108467 C107.522393,23.4696991 107.709237,23.0117215 107.709237,22.5349545 C107.709237,22.0580826 107.522393,21.6002099 107.189643,21.2590623 C106.856893,20.9179146 106.403429,20.7205738 105.926872,20.7092372 L100.040553,20.7092372 L100.040553,24.3605668 L105.926872,24.3605668 Z M96.4139958,20.7092372 L96.4139958,18.8840448 L86.1981456,18.8902379 L86.1981456,31.6622813 L96.4139958,31.6622813 L96.4139958,29.8371938 L88.0893632,29.8371938 L88.0893632,26.1857593 L95.9086774,26.1857593 L95.9086774,24.3605668 L88.0893632,24.3605668 L88.0893632,20.7092372 L96.4139958,20.7092372 Z M53.4946816,25.2731631 C53.4946816,28.9483205 50.486809,31.9283765 46.7776417,31.9283765 C43.0685794,31.9283765 40.0606018,28.9483205 40.0606018,25.2731631 C40.0606018,21.5981106 43.0685794,18.623198 46.7776417,18.623198 C50.486809,18.623198 53.4946816,21.5970609 53.4946816,25.2731631 Z M51.6386284,25.2731631 C51.6451365,24.3103919 51.3656053,23.3673548 50.8355143,22.5637159 C50.3053184,21.759972 49.5484955,21.1318404 48.6608817,20.7587824 C47.773268,20.3858293 46.7948565,20.2848495 45.8497201,20.4686494 C44.9046886,20.6525542 44.0354444,21.1128411 43.3523093,21.7913576 C42.6691742,22.4697691 42.2030091,23.3358642 42.0127012,24.2796361 C41.8224983,25.2235129 41.91676,26.2025542 42.2837299,27.0926872 C42.6505948,27.9828202 43.2735829,28.7439468 44.0736529,29.2796011 C44.8737229,29.8151505 45.8148705,30.1011069 46.7776417,30.1011069 C48.0623513,30.1049685 49.2959412,29.5986004 50.2074878,28.693352 C51.1189293,27.7879986 51.6336949,26.5578726 51.6386284,25.2731631 Z M25.3902029,20.7092372 L25.3902029,18.8840448 L15.0104969,18.8902379 L15.0104969,31.6622813 L16.9006648,31.6622813 L16.9006648,26.1857593 L24.3941568,26.1857593 L24.3941568,24.3605668 L16.9006648,24.3605668 L16.9006648,20.7092372 L25.3902029,20.7092372 Z M37.8611966,29.8361442 L38.9202239,29.8361442 L38.9202239,31.6622814 L37.6611267,31.6622814 C37.4014346,31.6622814 37.1462561,31.5939468 36.9214136,31.4638908 C36.696571,31.3339398 36.510042,31.1469909 36.3804059,30.9219384 L33.6457663,26.1857593 L29.2344647,26.1857593 L29.2344647,31.6622814 L27.3453464,31.6622814 L27.3453464,18.8902379 L27.3515395,18.8902379 L27.3453464,18.8840448 L35.039853,18.8840448 C36.9383135,18.8840448 38.5840098,20.3019594 38.7520644,22.1930721 C38.8381386,23.1114416 38.573198,24.0282365 38.0105668,24.7591323 C37.4478307,25.489923 36.6292862,25.9805458 35.7194192,26.1321204 L37.8611966,29.8361442 Z M35.1182645,24.3605668 C35.5949265,24.3493352 36.0482855,24.1519944 36.3814556,23.8108467 C36.7146256,23.4696991 36.9010497,23.0117215 36.9010497,22.5349545 C36.9010497,22.0580826 36.7146256,21.6002099 36.3814556,21.2590623 C36.0482855,20.9179146 35.5949265,20.7205738 35.1182645,20.7092372 L29.2344647,20.7092372 L29.2344647,24.3605668 L35.1182645,24.3605668 Z M65.493422,18.8953814 L65.493422,29.140098 L59.9353394,19.4006998 C59.846536,19.2471309 59.7188943,19.1195941 59.5653254,19.0308957 C59.4116515,18.9421973 59.2372988,18.8954864 59.059902,18.8953814 L55.2343247,18.8953814 L55.2343247,31.6622813 L57.123338,31.6622813 L57.123338,20.7154304 L58.5917425,20.7154304 L64.4848845,30.9240378 C64.6147306,31.1487754 64.8014696,31.3354094 65.0263121,31.4651505 C65.2510497,31.5948915 65.5060182,31.663331 65.7656053,31.663331 L67.3855843,31.663331 L67.3855843,18.8902379 L65.493422,18.8953814 Z M80.6587474,18.8891882 L69.076732,18.8953814 L69.076732,20.7092372 L73.9231281,20.7092372 L73.9231281,31.6622813 L75.8122463,31.6622813 L75.8122463,20.7092372 L80.6587474,20.7092372 L80.6587474,18.8891882 Z" id="Shape" fill="#FFFFFF" fill-rule="nonzero"></path>
            <path d="M113.449965,29.8362491 C113.353394,29.8362491 113.259972,29.7977257 113.190693,29.7290763 C113.122463,29.6604269 113.083625,29.5673198 113.083625,29.4702239 L113.083625,26.5479006 C113.083625,26.4508048 113.122463,26.3576977 113.190693,26.2890483 C113.259972,26.2203989 113.353394,26.1817705 113.449965,26.1817705 L120.03359,26.1817705 C120.131211,26.1817705 120.224633,26.2203989 120.292862,26.2890483 C120.361092,26.3576977 120.39993,26.4508048 120.39993,26.5479006 L120.39993,29.4702239 C120.39993,29.5673198 120.361092,29.6604269 120.292862,29.7290763 C120.224633,29.7977257 120.131211,29.8362491 120.03359,29.8362491 L113.449965,29.8362491 Z M113.449965,24.3545845 L125.508747,24.3545845 C125.555983,24.3546886 125.604269,24.3453464 125.648355,24.3270819 C125.692442,24.3088174 125.73338,24.2818404 125.76697,24.2479356 C125.80056,24.2140308 125.827852,24.1737229 125.845696,24.1294262 C125.864591,24.0850245 125.874038,24.0374738 125.873067,23.9895031 L125.873067,21.0671798 C125.873067,20.9702939 125.835199,20.8773968 125.76697,20.8087474 C125.697691,20.740098 125.605318,20.7014696 125.508747,20.7011538 L113.448915,20.7011538 C113.40063,20.7010497 113.353394,20.7103919 113.309307,20.7287614 C113.264171,20.7471309 113.224283,20.7741078 113.189643,20.8081176 C113.156053,20.8421274 113.129811,20.8825402 113.110917,20.9270469 C113.093072,20.9715535 113.083625,21.0191043 113.083625,21.0671798 L113.083625,23.9854094 C113.083625,24.033485 113.093072,24.0810357 113.110917,24.1254374 C113.129811,24.169839 113.156053,24.210147 113.190693,24.2441568 C113.224283,24.2780616 113.264171,24.3049335 113.309307,24.323198 C113.353394,24.3414626 113.40063,24.3506998 113.448915,24.3504899 L113.449965,24.3545845 Z M127.69839,15.220391 L113.449965,15.220391 C113.401679,15.2196991 113.354444,15.2284115 113.310357,15.2461512 C113.26627,15.2637859 113.225332,15.290133 113.190693,15.3236179 C113.123513,15.3928971 113.086774,15.4858992 113.087802,15.5824703 L113.087802,18.5088873 C113.087802,18.6057733 113.126662,18.6986704 113.195941,18.7671099 C113.264171,18.8354444 113.357593,18.8738628 113.454164,18.8738628 L127.702589,18.8738628 C129.773618,18.8736529 131.802659,19.460007 133.554584,20.5653254 C135.305458,21.6705388 136.708887,23.2493702 137.60007,25.1189643 C138.491253,26.9885584 138.8345,29.0722883 138.589923,31.1290413 C138.346396,33.1856893 137.524493,35.1310707 136.219734,36.739923 C134.914976,38.3487754 133.181945,39.5551784 131.220084,40.2195241 C129.258223,40.8837649 127.148355,40.9787614 125.135059,40.493387 C123.121763,40.0080126 121.286914,38.9622113 119.843597,37.4770119 C118.40028,35.9919174 117.406228,34.1282015 116.979006,32.1017845 C116.952764,31.9777117 116.885584,31.8662351 116.786914,31.7861442 C116.689293,31.7061582 116.56648,31.6624913 116.439468,31.6624913 L113.616865,31.6624913 C113.564381,31.6625962 113.512946,31.6741428 113.464661,31.6961861 C113.417425,31.7183345 113.374388,31.7503499 113.340798,31.7903429 C113.306158,31.830021 113.280966,31.8768369 113.26627,31.9274318 C113.251575,31.9780266 113.248425,32.0311407 113.255773,32.083205 C113.686144,34.8447166 114.89853,37.4251575 116.749125,39.5186494 C118.60077,41.6121414 121.013996,43.1309307 123.702239,43.8951015 C126.390483,44.6592722 129.241428,44.636704 131.917075,43.830021 C134.592722,43.023338 136.980756,41.4664451 138.79881,39.3438768 C140.616865,37.2212036 141.788314,34.6219734 142.173548,31.8539538 C142.559832,29.0860392 142.144157,26.2655353 140.975857,23.726662 C139.807558,21.1877887 137.935969,19.0371938 135.582575,17.5295311 C133.229181,16.0219734 130.493702,15.220391 127.69839,15.220391 L127.69839,15.220391 Z M139.248076,18.1480056 L139.248076,18.9172148 C139.248076,18.9189993 139.249125,18.9205738 139.250175,18.9216235 C139.251225,18.9227782 139.253324,18.923408 139.255423,18.923408 L139.391882,18.923408 C139.393982,18.923408 139.395031,18.9227782 139.396081,18.9216235 C139.397131,18.9204689 139.398181,18.9188943 139.398181,18.9172148 L139.398181,18.1480056 L139.692092,18.1480056 C139.694192,18.1480056 139.695241,18.1473758 139.697341,18.1462211 C139.69839,18.1450665 139.69944,18.143492 139.69944,18.1418125 L139.69944,18.0191043 C139.69944,18.0191043 139.69944,18.0129111 139.692092,18.0129111 L138.957313,18.0129111 C138.957313,18.0129111 138.949965,18.0129111 138.949965,18.0191043 L138.949965,18.1418125 C138.949965,18.143492 138.951015,18.1450665 138.952064,18.1462211 C138.953114,18.1473758 138.955213,18.1480056 138.957313,18.1480056 L139.248076,18.1480056 Z M139.969209,18.923408 C139.971309,18.923408 139.972358,18.9227782 139.974458,18.9216235 C139.975507,18.9204689 139.975507,18.9188943 139.975507,18.9172148 L139.975507,18.2572778 L140.292512,18.6625612 C140.292512,18.6625612 140.292512,18.6625612 140.30091,18.6625612 L140.320854,18.6625612 C140.320854,18.6625612 140.327152,18.6625612 140.328202,18.6625612 L140.637859,18.2603219 L140.637859,18.9172148 C140.637859,18.9188943 140.638908,18.9204689 140.639958,18.9216235 C140.641008,18.9227782 140.642057,18.923408 140.644157,18.923408 L140.783765,18.923408 C140.784815,18.9224633 140.784815,18.9214136 140.784815,18.9203639 C140.784815,18.9192092 140.784815,18.9181596 140.783765,18.9172148 L140.783765,18.0191043 L140.783765,18.0129111 L140.654654,18.0129111 C140.654654,18.0129111 140.648355,18.0129111 140.647306,18.0129111 L140.306158,18.4573478 L139.963961,18.0129111 C139.962911,18.0122813 139.961861,18.0119664 139.959762,18.0119664 C139.958712,18.0119664 139.957663,18.0122813 139.956613,18.0129111 L139.827502,18.0129111 C139.826452,18.0127012 139.825402,18.0127012 139.824353,18.0129111 C139.824353,18.013226 139.823303,18.0136459 139.822253,18.0142757 C139.822253,18.0149055 139.821204,18.0156403 139.821204,18.0164801 C139.821204,18.0173198 139.821204,18.0182645 139.821204,18.0191043 L139.821204,18.9172148 C139.821204,18.9188943 139.821204,18.9204689 139.823303,18.9216235 C139.824353,18.9227782 139.825402,18.923408 139.827502,18.923408 L139.969209,18.923408 Z" id="Shape" fill="#FFFFFF" fill-rule="nonzero"></path>
        </g>
    </g>
</svg>