<svg width="265" height="36" viewBox="0 0 2262 300" fill="none" xmlns="http://www.w3.org/2000/svg">
<path d="M1035.17 68.1797H1010.87V223.25H1035.17V68.1797Z" fill="#FF7A00"/>
<path fill-rule="evenodd" clip-rule="evenodd" d="M949.89 120.173C927.461 120.173 910.065 131.059 907.128 153.282H931.015C932.699 144.902 938.881 139.87 949.89 139.87C962.665 139.87 968.54 147.202 968.54 158.725V163.962H944.016C921.423 163.962 904.725 174.026 904.725 194.565C904.725 215.104 918.342 225.785 938.039 225.785C953.341 225.785 963.405 219.274 968.848 208.799H969.895V223.176H992.94V159.505C992.837 134.94 980.267 120.173 949.89 120.173ZM944.961 207.135C935.533 207.135 929.659 202.514 929.659 194.812C929.659 186.001 935.944 181.4 947.261 181.4H968.416L968.54 182.858C968.54 198.098 959.728 207.135 944.961 207.135Z" fill="#FF7A00"/>
<path fill-rule="evenodd" clip-rule="evenodd" d="M861.653 223.252V171.082C861.653 155.575 871.306 145.717 886.587 145.717H896.159V122.672H886.3C874.777 122.672 866.398 127.067 861.16 136.926H860.318V122.672H837.479V223.313L861.653 223.252Z" fill="#FF7A00"/>
<path fill-rule="evenodd" clip-rule="evenodd" d="M822.052 201.067V223.27H805.497C782.226 223.27 769.451 212.487 769.451 189.216V142.654H752.896V122.69H769.451V95.9893H793.769V122.69H822.052V142.654H793.769V186.402C793.769 195.624 799.212 201.067 808.434 201.067H822.052Z" fill="#FF7A00"/>
<path fill-rule="evenodd" clip-rule="evenodd" d="M673.269 223.258V165.01C673.269 150.756 682.081 141.431 696.314 141.431C709.932 141.431 718.106 149.297 718.106 164.702V223.258H742.445V160.82C742.445 135.454 730.121 120.173 704.941 120.173C689.618 120.173 677.911 127.074 672.674 136.501H671.811V122.679H649.033V223.32L673.269 223.258Z" fill="#FF7A00"/>
<path fill-rule="evenodd" clip-rule="evenodd" d="M583.924 205.894C568.622 205.894 558.352 195.624 557.942 179.481H632.334L632.232 171.614C632.232 137.889 610.44 120.267 583.821 120.267C555.066 120.267 534.055 140.806 534.055 173.073C534.055 205.339 553.546 225.879 583.821 225.879C609.166 225.879 625.721 212.467 630.547 192.77H606.968C604.36 200.328 597.952 205.894 583.924 205.894ZM583.821 140.395C599.739 140.395 609.166 149.412 609.803 161.981H557.839C560.139 149.206 567.883 140.395 583.821 140.395Z" fill="#FF7A00"/>
<path fill-rule="evenodd" clip-rule="evenodd" d="M461.325 225.974C497.577 225.974 518.116 205.867 522.943 176.003H498.296C494.64 189.62 484.719 202.19 461.325 202.19C437.233 202.19 417.947 185.759 417.947 149.795C417.947 113.831 437.233 97.4408 461.325 97.4408C485.418 97.4408 495.071 110.011 498.296 123.423H522.943C518.958 93.5589 498.727 74.1289 461.325 74.1289C421.089 74.1289 391.965 102.206 391.965 150.123C391.965 198.041 421.089 226.118 461.325 226.118V225.974Z" fill="#FF7A00"/>
<path fill-rule="evenodd" clip-rule="evenodd" d="M352.473 122.713V136.515H351.322C345.88 126.882 334.563 120.187 318.46 120.187C294.881 120.187 273.623 138.836 273.623 171.74C273.623 204.643 294.573 223.498 318.46 223.498C333.967 223.498 343.107 217.193 350.111 206.512H351.22V227.709C351.22 239.026 344.935 244.263 334.665 244.263H285.371V265.911H334.193C361.222 265.911 375.682 250.815 375.682 226.086V122.713H352.473ZM325.135 201.501C308.991 201.501 298.722 191.457 298.722 171.76C298.722 152.063 308.889 141.999 325.135 141.999C340.847 141.999 351.322 152.043 351.322 171.76C351.322 191.478 340.95 201.501 325.135 201.501Z" fill="#0684BC"/>
<path fill-rule="evenodd" clip-rule="evenodd" d="M189.638 223.284V165.035C189.638 150.781 198.449 141.456 212.703 141.456C226.32 141.456 234.495 149.323 234.495 164.727V223.284H258.793V160.845C258.793 135.479 246.469 120.198 221.288 120.198C205.987 120.198 194.156 127.099 188.919 136.527H188.077V122.704H165.34V223.345L189.638 223.284Z" fill="#0684BC"/>
<path d="M144.796 122.688H120.498V223.267H144.796V122.688Z" fill="#0684BC"/>
<path fill-rule="evenodd" clip-rule="evenodd" d="M78.1717 153.896V152.91C93.042 148.802 103.106 138.82 103.106 116.392C103.106 93.3468 85.915 76.5664 54.0589 76.5664H0V223.257H25.1398V165.008H55.7431C69.9972 165.008 77.1242 172.135 77.1242 186.389V223.359H102.264V186.389C102.264 165.644 93.4528 157.264 78.1717 153.896ZM52.7033 142.374H25.1398V99.2416H52.7033C66.3207 99.2416 76.7956 104.91 76.7956 120.828C76.7956 136.746 66.218 142.374 52.7033 142.374Z" fill="#0684BC"/>
<path fill-rule="evenodd" clip-rule="evenodd" d="M132.641 106.555C135.836 106.559 138.96 105.615 141.618 103.843C144.276 102.071 146.348 99.5494 147.573 96.5987C148.797 93.648 149.119 90.4003 148.496 87.2669C147.874 84.1334 146.336 81.255 144.077 78.996C141.818 76.737 138.94 75.199 135.806 74.5768C132.673 73.9545 129.425 74.276 126.474 75.5004C123.524 76.7248 121.003 78.7972 119.23 81.4551C117.458 84.1131 116.514 87.2372 116.518 90.4318C116.491 93.6297 117.423 96.7623 119.196 99.4243C120.968 102.086 123.498 104.155 126.459 105.364C128.417 106.178 130.521 106.583 132.641 106.555Z" fill="#FF7A00"/>
<path fill-rule="evenodd" clip-rule="evenodd" d="M114.114 45.6845C108.228 48.1481 102.883 51.7417 98.3809 56.2622L109.78 67.6614C112.768 64.6562 116.319 62.2691 120.23 60.6364C124.141 59.0038 128.335 58.1576 132.573 58.1462C136.811 58.1347 141.01 58.9583 144.93 60.5697C148.85 62.1812 152.413 64.5491 155.418 67.5381L166.817 56.1389C160.048 49.3837 151.43 44.7855 142.05 42.9248C132.67 41.0642 122.949 42.0245 114.114 45.6845Z" fill="#FF7A00"/>
<path fill-rule="evenodd" clip-rule="evenodd" d="M1185 300V0H1195V300H1185Z" fill="#222222"/>
<path d="M2087.88 153.544H2070.65V199.09C2070.65 204.014 2074.34 207.707 2079.27 207.707C2084.19 207.707 2087.88 204.014 2087.88 199.09V153.544Z" fill="#134094"/>
<path d="M1833.45 153.544H1816.22V199.09C1816.22 204.014 1819.91 207.707 1824.84 207.707C1829.76 207.707 1833.45 204.014 1833.45 199.09V153.544Z" fill="#134094"/>
<path d="M2087.88 116.616H2108.4C2113.33 116.616 2117.02 120.309 2117.02 125.233C2117.02 130.157 2113.33 133.85 2108.4 133.85H2070.65V99.3824C2070.65 94.4585 2074.34 90.7656 2079.27 90.7656C2084.19 90.7656 2087.88 94.4585 2087.88 99.3824V116.616Z" fill="#134094"/>
<path d="M2006.22 116.615H1981.6C1976.67 116.615 1972.98 120.308 1972.98 125.232C1972.98 130.156 1976.67 133.849 1981.6 133.849H2006.22C2011.56 133.849 2016.07 138.362 2016.07 143.697V153.544H1988.99C1975.03 153.544 1968.06 168.316 1968.06 180.626C1968.06 192.936 1975.03 207.707 1988.99 207.707H2024.69C2029.61 207.707 2033.31 204.014 2033.31 199.09V143.286C2033.31 128.515 2021.41 116.615 2006.22 116.615ZM2016.07 190.063H1989.4C1985.7 190.063 1985.29 182.678 1985.29 180.216C1985.29 177.754 1985.7 170.368 1989.4 170.368H2016.07V190.063Z" fill="#134094"/>
<path d="M1772.72 170.368C1777.64 170.368 1781.34 166.675 1781.34 161.751V149.031C1781.34 130.977 1766.56 116.615 1748.92 116.615C1730.86 116.615 1716.5 131.387 1716.5 149.031V180.216C1716.5 194.987 1728.4 207.297 1743.58 207.297H1773.13C1778.05 207.297 1781.75 203.604 1781.75 198.68C1781.75 193.756 1778.05 190.063 1773.13 190.063H1743.58C1738.25 190.063 1733.73 185.55 1733.73 180.216V170.368H1772.72ZM1733.32 149.031C1733.32 140.414 1740.3 133.439 1748.92 133.439C1757.54 133.439 1764.51 140.414 1764.51 149.031V153.134H1733.73V149.031H1733.32Z" fill="#134094"/>
<path d="M2190.48 170.367C2195.4 170.367 2199.1 166.674 2199.1 161.75V149.03C2199.1 130.976 2184.32 116.614 2166.68 116.614C2148.62 116.614 2134.26 131.386 2134.26 149.03V180.215C2134.26 194.986 2146.57 207.296 2161.34 207.296H2190.89C2195.81 207.296 2199.51 203.603 2199.51 198.679C2199.51 193.755 2195.81 190.062 2190.89 190.062H2161.34C2156.01 190.062 2151.49 185.549 2151.49 180.215V170.367H2190.48ZM2151.08 149.03C2151.08 140.413 2158.06 133.438 2166.68 133.438C2175.3 133.438 2182.27 140.413 2182.27 149.03V153.133H2151.49V149.03H2151.08Z" fill="#134094"/>
<path d="M1656.58 207.298C1660.27 207.298 1663.56 204.836 1664.79 201.554L1689 127.695C1690.64 123.182 1688.18 118.258 1683.66 117.027C1679.15 115.385 1674.23 117.847 1672.99 122.361L1656.99 171.19L1640.99 122.361C1639.34 117.847 1634.83 115.385 1630.32 117.027C1625.8 118.668 1623.34 123.182 1624.98 127.695L1649.19 201.554C1649.6 205.247 1652.89 207.298 1656.58 207.298Z" fill="#134094"/>
<path d="M1869.97 134.259C1871.61 138.773 1869.15 143.697 1864.64 145.338C1860.12 146.979 1855.2 144.517 1853.56 140.414C1852.33 136.721 1848.63 133.849 1844.12 133.849H1815.8V125.232C1815.8 120.308 1819.5 116.615 1824.42 116.615H1844.12C1856.02 116.615 1865.87 124.001 1869.97 134.259Z" fill="#134094"/>
<path d="M2231.51 99.3824C2231.51 94.4585 2235.21 90.7656 2240.13 90.7656C2245.06 90.7656 2248.75 94.4585 2248.75 99.3824V181.447C2248.75 185.551 2251.62 189.243 2255.32 190.885C2259.83 192.526 2261.88 197.45 2260.65 201.964C2259.01 206.477 2254.08 208.529 2249.57 207.298C2239.31 203.605 2231.92 193.757 2231.92 181.858V99.3824H2231.51Z" fill="#134094"/>
<path d="M1893.37 203.604C1888.85 202.373 1885.98 197.86 1887.21 193.346C1888.44 188.832 1892.96 185.96 1897.47 187.191C1899.93 188.012 1907.32 190.474 1914.3 190.474C1919.63 190.474 1922.51 188.012 1923.33 185.96C1924.15 183.908 1924.15 181.857 1921.68 179.805C1919.22 177.754 1895.42 157.648 1895.42 157.648C1890.09 153.134 1886.39 147.39 1886.39 140.414C1886.39 126.463 1897.88 116.615 1913.89 116.615C1920.45 116.615 1926.2 118.257 1931.94 120.308C1936.46 121.949 1938.92 126.463 1937.28 130.977C1935.64 135.49 1931.12 137.952 1926.61 136.311C1922.51 135.08 1917.99 133.439 1913.89 133.439C1908.14 133.439 1906.09 135.08 1904.86 136.721C1902.81 139.183 1903.63 141.645 1905.68 143.286C1907.32 144.517 1932.35 165.854 1932.35 165.854C1938.1 170.778 1940.97 176.523 1940.97 182.677C1940.97 198.27 1927.02 206.887 1913.89 206.887C1905.68 207.297 1898.29 204.835 1893.37 203.604Z" fill="#134094"/>
<path d="M1341 34H1572.04V265.013H1341V34Z" fill="white"/>
<path d="M1344.7 37.6924H1567.94V261.319H1344.7V37.6924Z" fill="#134094"/>
<path fill-rule="evenodd" clip-rule="evenodd" d="M1482.58 144.378C1482.58 146.84 1482.99 149.302 1482.99 150.123C1483.4 157.098 1481.76 165.305 1480.53 166.535L1462.48 141.916C1474.79 131.658 1478.89 124.682 1478.89 114.835C1478.89 101.704 1468.63 91.8564 1453.86 91.8564C1438.26 91.8564 1427.18 101.294 1427.18 114.424C1427.18 122.22 1429.24 126.324 1438.67 138.223C1423.9 146.84 1416.1 158.739 1416.92 170.228C1418.16 189.514 1432.93 200.182 1454.27 200.182C1464.94 200.182 1471.91 198.13 1479.71 191.976L1484.23 198.13H1505.15L1491.61 180.487C1498.18 172.28 1500.23 164.074 1500.23 150.533C1500.23 149.712 1499.82 146.43 1499.82 144.378H1482.58ZM1452.22 129.196C1446.06 121.4 1444.83 118.938 1444.83 114.835C1444.83 110.321 1448.52 107.038 1453.45 107.038C1458.78 107.038 1462.07 109.911 1462.07 114.835C1462.07 119.348 1459.6 124.272 1452.22 129.196ZM1468.63 178.025C1464.94 181.307 1460.42 183.359 1453.86 183.359C1443.19 183.359 1435.8 178.025 1435.8 168.997C1435.8 163.253 1439.49 157.508 1448.52 150.943L1468.63 178.025Z" fill="white"/>
<path d="M1403.78 198.13V93.0869H1366.03V109.91H1382.85V198.13H1403.78Z" fill="white"/>
<path d="M1538.39 198.13V93.0869H1500.63V109.91H1517.46V198.13H1538.39Z" fill="white"/>
</svg>
