<?xml version="1.0" encoding="UTF-8"?>
<svg width="160px" height="31px" viewBox="0 0 160 31" version="1.1" xmlns="http://www.w3.org/2000/svg" xmlns:xlink="http://www.w3.org/1999/xlink">
    <title>Logo Copy 4</title>
    <g id="Logo-Copy-4" stroke="none" stroke-width="1" fill="none" fill-rule="evenodd">
        <g id="RingCentral-Versatel-SideBySide-White" fill="#FFFFFF">
            <polygon id="Path" fill-rule="nonzero" points="106.512669 7.11818907 104.012347 7.11818907 104.012347 23.073955 106.512669 23.073955"></polygon>
            <path d="M97.7378778,12.4679614 C95.4300707,12.4679614 93.6401286,13.5879614 93.3379293,15.8746752 L95.7957556,15.8746752 C95.9690289,15.0124244 96.605119,14.4946624 97.7378778,14.4946624 C99.0523473,14.4946624 99.6568489,15.2490804 99.6568489,16.4346238 L99.6568489,16.973582 L97.1334791,16.973582 C94.8087974,16.973582 93.0906752,18.0091061 93.0906752,20.1224437 C93.0906752,22.2357814 94.4917814,23.334791 96.5184823,23.334791 C98.0929646,23.334791 99.1284887,22.6648489 99.6885402,21.5870354 L99.7962701,21.5870354 L99.7962701,23.0663408 L102.16746,23.0663408 L102.16746,16.5149839 C102.156862,13.9873955 100.863486,12.4679614 97.7378778,12.4679614 Z M97.2307138,21.4158199 C96.2606302,21.4158199 95.6562315,20.9403473 95.6562315,20.1478585 C95.6562315,19.2411576 96.3029196,18.7678457 97.4673698,18.7678457 L99.64409,18.7678457 L99.6568489,18.917865 C99.6568489,20.4859678 98.7501479,21.4158199 97.2307138,21.4158199 L97.2307138,21.4158199 Z" id="Shape"></path>
            <path d="M88.6589325,23.0741608 L88.6589325,17.7062894 C88.6589325,16.1107138 89.6521672,15.096283 91.2244887,15.096283 L92.2093891,15.096283 L92.2093891,12.7250932 L91.1949582,12.7250932 C90.0093119,12.7250932 89.147164,13.1773119 88.6082058,14.1917428 L88.5215691,14.1917428 L88.5215691,12.7250932 L86.1714727,12.7250932 L86.1714727,23.0805402 L88.6589325,23.0741608 Z" id="Path"></path>
            <path d="M84.5841286,20.7914598 L84.5841286,23.0760129 L82.8808232,23.0760129 C80.4863794,23.0760129 79.1718071,21.966508 79.1718071,19.5720643 L79.1718071,14.781119 L77.4685016,14.781119 L77.4685016,12.7269453 L79.1718071,12.7269453 L79.1718071,9.97956527 L81.6740836,9.97956527 L81.6740836,12.7269453 L84.5841286,12.7269453 L84.5841286,14.781119 L81.6740836,14.781119 L81.6740836,19.2825209 C81.6740836,20.2314084 82.234135,20.7914598 83.1830225,20.7914598 L84.5841286,20.7914598 Z" id="Path"></path>
            <path d="M69.2754727,23.0747781 L69.2754727,17.0813119 C69.2754727,15.6146624 70.1820707,14.6552797 71.6466624,14.6552797 C73.0477685,14.6552797 73.888926,15.4646431 73.888926,17.0496206 L73.888926,23.0747781 L76.3931576,23.0747781 L76.3931576,16.6501865 C76.3931576,14.040283 75.1251961,12.4679614 72.5342251,12.4679614 C70.9576849,12.4679614 69.7531061,13.1780322 69.2141479,14.1480129 L69.1254534,14.1480129 L69.1254534,12.7257106 L66.7817363,12.7257106 L66.7817363,23.0811576 L69.2754727,23.0747781 Z" id="Path"></path>
            <path d="M60.0823151,21.2881286 C58.5078328,21.2881286 57.4511125,20.2314084 57.408926,18.5702894 L65.0634084,18.5702894 L65.0529132,17.760926 C65.0529132,14.2908296 62.8106495,12.4775305 60.071717,12.4775305 C57.1130032,12.4775305 54.9510997,14.5908682 54.9510997,17.9109453 C54.9510997,21.2310225 56.9566045,23.3443601 60.071717,23.3443601 C62.6795627,23.3443601 64.3829711,21.9643473 64.879537,19.9376463 L62.4534019,19.9376463 C62.1850547,20.7154212 61.5257106,21.2881286 60.0823151,21.2881286 Z M60.071717,14.5486817 C61.709582,14.5486817 62.6795627,15.476373 62.7451061,16.7697492 L57.398328,16.7697492 C57.6349839,15.4552797 58.4317942,14.5486817 60.071717,14.5486817 L60.071717,14.5486817 Z" id="Shape"></path>
            <path d="M47.467627,23.3543408 C51.1977363,23.3543408 53.311074,21.2853505 53.8076399,18.2125273 L51.271717,18.2125273 C50.895537,19.6136334 49.8747267,20.9070096 47.467627,20.9070096 C44.9887074,20.9070096 43.0042958,19.2163601 43.0042958,15.5158842 C43.0042958,11.8154084 44.9887074,10.1289878 47.467627,10.1289878 C49.9466495,10.1289878 50.9398842,11.4223537 51.271717,12.8023666 L53.8076399,12.8023666 C53.3977106,9.72956399 51.3160643,7.73034598 47.467627,7.73034598 C43.3275884,7.73034598 40.3309068,10.6192669 40.3309068,15.5497363 C40.3309068,20.4802058 43.3275884,23.3690547 47.467627,23.3690547 L47.467627,23.3543408 Z" id="Path"></path>
            <path d="M36.2673183,12.729209 L36.2673183,14.1494534 L36.1488875,14.1494534 C35.5889389,13.1582765 34.4244887,12.469299 32.7675884,12.469299 C30.3414534,12.469299 28.154135,14.3882701 28.154135,17.7737878 C28.154135,21.1594084 30.3097621,23.0994727 32.7675884,23.0994727 C34.363164,23.0994727 35.3036141,22.4506238 36.024283,21.351717 L36.1383923,21.351717 L36.1383923,23.5326559 C36.1383923,24.6971061 35.4917042,25.2360643 34.4349839,25.2360643 L29.3629325,25.2360643 L29.3629325,27.4635113 L34.386418,27.4635113 C37.167537,27.4635113 38.6553826,25.9102251 38.6553826,23.3657621 L38.6553826,12.729209 L36.2673183,12.729209 Z M33.4544051,20.8360129 C31.7932862,20.8360129 30.7366688,19.8026495 30.7366688,17.7759486 C30.7366688,15.7492476 31.782791,14.7137235 33.4544051,14.7137235 C35.071074,14.7137235 36.1488875,15.7470868 36.1488875,17.7759486 C36.1488875,19.8047074 35.081672,20.8360129 33.4544051,20.8360129 Z" id="Shape"></path>
            <path d="M19.5125916,23.0773505 L19.5125916,17.0839871 C19.5125916,15.6173376 20.4191897,14.6578521 21.8858392,14.6578521 C23.2870482,14.6578521 24.1281029,15.4672154 24.1281029,17.0522958 L24.1281029,23.0773505 L26.6282186,23.0773505 L26.6282186,16.6528617 C26.6282186,14.0428553 25.3602572,12.4705338 22.7692862,12.4705338 C21.1948039,12.4705338 19.9775691,13.1806045 19.4386109,14.1505852 L19.3519743,14.1505852 L19.3519743,12.7283859 L17.0124759,12.7283859 L17.0124759,23.0837299 L19.5125916,23.0773505 Z" id="Path"></path>
            <polygon id="Path" fill-rule="nonzero" points="14.8985209 12.7267395 12.398508 12.7267395 12.398508 23.0757042 14.8985209 23.0757042"></polygon>
            <path d="M8.04339035,15.9378521 L8.04339035,15.8363987 C9.57345338,15.4137106 10.6089775,14.3866238 10.6089775,12.0788167 C10.6089775,9.70768875 8.84012862,7.9810881 5.56233055,7.9810881 L0,7.9810881 L0,23.0745723 L2.58673183,23.0745723 L2.58673183,17.0811061 L5.73562444,17.0811061 C7.20228424,17.0811061 7.935609,17.8145338 7.935609,19.2811833 L7.935609,23.0851704 L10.5223408,23.0851704 L10.5223408,19.2811833 C10.5223408,17.1466495 9.61572219,16.2843987 8.04339035,15.9378521 Z M5.42284759,14.7522058 L2.58673183,14.7522058 L2.58673183,10.3141865 L5.42284759,10.3141865 C6.82399486,10.3141865 7.90179807,10.897492 7.90179807,12.5353569 C7.90179807,14.1732219 6.81342765,14.7522058 5.42284759,14.7522058 L5.42284759,14.7522058 Z" id="Shape"></path>
            <path d="M13.6480514,11.0667524 C13.9767974,11.067164 14.2982379,10.9700322 14.5717299,10.7877042 C14.8452219,10.6053762 15.058418,10.3458778 15.184463,10.04231 C15.3104051,9.73870096 15.343537,9.40453248 15.2794341,9.08212476 C15.2154341,8.75970675 15.0571833,8.46353698 14.824746,8.23109968 C14.5923087,7.99866238 14.2961801,7.84041158 13.9737106,7.776391 C13.6513441,7.71236013 13.3171447,7.74544051 13.0135048,7.87142379 C12.7099678,7.99740707 12.4505723,8.21064437 12.2681415,8.48412605 C12.0858135,8.75761801 11.9886817,9.07906881 11.9890932,9.40777363 C11.9863151,9.73681801 12.0822122,10.0591434 12.2646431,10.3330161 C12.4469711,10.6069196 12.7072926,10.8198071 13.0119614,10.9442058 C13.2134277,11.0279614 13.4299164,11.0696334 13.6480514,11.0667524 L13.6480514,11.0667524 Z" id="Path"></path>
            <path d="M11.7416334,4.80354984 C11.1361029,5.05703923 10.586135,5.42679871 10.1228347,5.89193055 L11.2957942,7.06483859 C11.6032412,6.75562186 11.9686174,6.51000386 12.3710354,6.342009 C12.7734534,6.17402444 13.2049904,6.08695563 13.6410547,6.08578264 C14.077119,6.08459936 14.5091704,6.16934277 14.9124116,6.33514598 C15.3157556,6.50095949 15.6824695,6.74460193 15.9915627,7.05215177 L17.1645531,5.87924373 C16.4680643,5.18417492 15.5812219,4.71104823 14.6160772,4.51959357 C13.6509325,4.3281492 12.650701,4.4269582 11.7416334,4.80354984 L11.7416334,4.80354984 Z" id="Path"></path>
            <polygon id="Path" points="121.92926 30.8681672 121.92926 0 122.958199 0 122.958199 30.8681672"></polygon>
            <path d="M138.392283,4.63022508 L160,4.63022508 L160,26.2379421 L138.392283,26.2379421 L138.392283,4.63022508 Z M153.456977,11.5446945 L153.456977,9.89869068 L157.152926,9.89869068 L157.152926,20.1623666 L155.129003,20.1623666 L155.129003,11.5446945 L153.456977,11.5446945 Z M151.684116,14.8271125 C151.779807,15.9615177 151.620322,16.5748682 151.493762,16.8767588 L149.898907,14.7096077 C151.57299,13.5306495 151.985595,11.6019035 150.635627,10.3753055 C149.51717,9.58093376 148.36373,9.58093376 147.181479,10.3753055 C145.989968,11.4716399 146.069196,12.790328 147.420193,14.328283 C145.113312,15.7454405 144.921929,17.3247588 145.92,18.9961672 C146.988039,20.5691061 149.361801,20.9408617 151.423794,19.5935691 L151.827138,20.1401415 L153.994084,20.1401415 L152.612219,18.3765402 C153.181222,17.8077428 153.511511,16.5716785 153.397299,14.8271125 L151.684116,14.8271125 Z M148.516013,15.7073698 C147.414019,16.4446045 147.06418,17.2230997 147.610547,18.0905981 C148.226881,18.78009 149.215691,18.757865 150.302251,18.0905981 L148.516013,15.7073698 Z M148.849389,13.3273312 L148.398714,12.6600643 C148.074598,11.986418 148.255691,11.4208103 148.94508,11.4208103 C149.695177,11.458881 149.936977,11.9610032 149.444116,12.7553441 L148.849389,13.3273312 Z M140.394598,11.551074 L140.394598,9.9018701 L144.089518,9.9018701 L144.089518,20.1655563 L142.065595,20.1655563 L142.065595,11.551074 L140.394598,11.551074 Z" id="Shape"></path>
        </g>
    </g>
</svg>