<?xml version="1.0" encoding="UTF-8"?><svg id="Layer_1" xmlns="http://www.w3.org/2000/svg" viewBox="0 0 653.8 166.4"><defs><style>.cls-1{fill:#0684bc;}.cls-1,.cls-2{fill-rule:evenodd;}.cls-1,.cls-2,.cls-3{stroke-width:0px;}.cls-2{fill:#ff7a00;}.cls-3{fill:#15325f;}</style></defs><path class="cls-3" d="m14.43,12.07h8.6v56.16c0,14.87,9.58,23.84,24.45,23.84s24.58-8.97,24.58-24.08V12.07h8.48v56.28c0,19.17-13.39,31.58-32.93,31.58s-33.18-12.41-33.18-31.58V12.07Z"/><path class="cls-3" d="m102.04,36.65h8.23v9.22c0,2.7-.25,4.92-.25,4.92h.25c2.21-5.65,10.08-15.61,24.7-15.61s20.64,8.72,20.64,23.96v39.32h-8.36v-37.11c0-9.71-1.47-18.31-13.39-18.31-10.57,0-19.66,7.25-22.49,17.45-.74,2.58-.98,5.41-.98,8.36v29.61h-8.36v-61.81Z"/><path class="cls-3" d="m174.66,12.07h8.72v10.44h-8.72v-10.44Zm.25,24.58h8.36v61.81h-8.36v-61.81Z"/><path class="cls-3" d="m206.24,44.39h-7.74v-7h7.74v-2.95c0-20.4,14.38-22.98,21.38-22.98,2.33,0,3.81.25,3.81.25v7.5s-1.23-.25-2.95-.25c-4.79,0-13.89,1.72-13.89,15.48v2.95h15.85v7h-15.85v54.07h-8.36v-54.07Z"/><path class="cls-3" d="m236.72,113.94s3.44,2.83,7.37,2.83c5.41,0,9.22-4.42,11.67-10.08l3.81-8.72-25.8-61.32h9.22l18.19,45.1c1.23,3.07,2.21,6.51,2.21,6.51h.25s.86-3.44,2.09-6.51l17.82-45.1h9.09l-30.47,74.71c-3.2,7.86-9.58,12.9-17.82,12.9-6.39,0-10.81-3.69-10.81-3.69l3.19-6.64Z"/><path class="cls-3" d="m328.51,12.07h9.09l23.96,65.62c1.6,4.42,3.32,11.18,3.32,11.18h.25s1.72-6.76,3.32-11.18l23.96-65.62h9.09l-32.07,86.38h-8.85l-32.07-86.38Z"/><path class="cls-3" d="m412.81,12.07h8.72v10.44h-8.72v-10.44Zm.25,24.58h8.36v61.81h-8.36v-61.81Z"/><path class="cls-3" d="m465.28,35.17c14.99,0,20.15,11.67,20.15,11.67h.25s-.25-2.09-.25-4.67V12.07h8.36v86.38h-8.11v-6.51c0-2.7.25-4.42.25-4.42h-.25s-5.04,12.41-21.26,12.41-26.91-13.27-26.91-32.44,11.55-32.32,27.77-32.32Zm.37,57.26c10.32,0,20.03-7.37,20.03-24.94,0-12.53-6.39-24.82-19.66-24.82-10.94,0-19.91,9.22-19.91,24.82s7.99,24.94,19.54,24.94Z"/><path class="cls-3" d="m540.11,35.17c17.08,0,25.8,13.15,25.8,28.51,0,1.47-.25,4.3-.25,4.3h-47.43c.37,15.85,11.18,24.45,23.96,24.45,11.31,0,18.8-7.5,18.8-7.5l3.81,6.39s-8.97,8.6-22.86,8.6c-18.43,0-32.32-13.27-32.32-32.32,0-20.27,13.76-32.44,30.47-32.44Zm17.33,25.93c-.49-12.9-8.36-18.92-17.57-18.92-10.32,0-19.29,6.51-21.26,18.92h38.83Z"/><path class="cls-3" d="m610.03,35.17c18.06,0,32.69,13.76,32.69,32.07s-14.62,32.69-32.69,32.69-32.69-14.01-32.69-32.69,14.62-32.07,32.69-32.07Zm0,57.26c13.27,0,24.08-10.81,24.08-25.19s-10.81-24.45-24.08-24.45-24.08,10.44-24.08,24.45,10.81,25.19,24.08,25.19Z"/><path class="cls-3" d="m325.37,126.29h2.12v7.61c0,.72-.06,1.28-.06,1.28h.06s1.31-3.03,5.33-3.03,6.83,3.37,6.83,8.23-2.96,8.2-7.08,8.2c-3.74,0-5.15-3.06-5.15-3.06h-.06s.06.53.06,1.28v1.4h-2.06v-21.93Zm7.05,20.43c2.78,0,5.05-2.34,5.05-6.33s-2.03-6.3-4.96-6.3c-2.62,0-5.08,1.87-5.08,6.33,0,3.15,1.62,6.3,4.99,6.3Z"/><path class="cls-3" d="m342.21,152.15s.87.72,1.87.72c1.37,0,2.34-1.12,2.96-2.56l.97-2.21-6.55-15.56h2.34l4.62,11.45c.31.78.56,1.65.56,1.65h.06s.22-.87.53-1.65l4.52-11.45h2.31l-7.74,18.96c-.81,2-2.43,3.28-4.52,3.28-1.62,0-2.74-.94-2.74-.94l.81-1.68Z"/><path class="cls-2" d="m420.67,120.95s0,0,0,0c.21.43.67.65,1.11.61.13-.01.26-.05.39-.11.55-.28.78-.95.5-1.51-.08-.18-1.59-2.97-5.93-3.74-1.07-.19-2.02-.21-2.86-.12-2.73.28-4.16,1.67-4.27,1.77-.44.43-.44,1.15,0,1.58.44.44,1.15.44,1.58,0,0,0,.01-.02.13-.1.33-.26,1.26-.88,2.79-1.04.63-.06,1.37-.06,2.23.1,1.75.32,2.83,1,3.49,1.57.33.29.55.56.69.74.07.09.11.16.13.2.01.02.02.02.02.03,0,0,0,0,0,0Zm210.14-4.64l-5.69,32.81h9.48l5.69-32.81h-9.49Zm-133.86,12.51c-.01.09-.02.19-.02.3h9.66c.02-.23.04-.44.04-.65v-.65c0-3.62-1.11-6.42-3.34-8.4-2.23-1.98-5.6-2.97-10.11-2.97-2.15,0-4.24.38-6.27,1.14-2.02.76-3.85,1.85-5.49,3.26-1.64,1.41-3.03,3.12-4.18,5.13-1.15,2.02-1.94,4.27-2.37,6.77-.11.66-.2,1.3-.26,1.92-.06.62-.09,1.21-.09,1.79,0,1.99.31,3.76.93,5.33.61,1.56,1.52,2.89,2.71,3.99,1.19,1.09,2.65,1.92,4.38,2.5,1.72.58,3.71.86,5.95.86,2.04,0,3.97-.29,5.8-.88,1.82-.59,3.48-1.44,4.95-2.54,1.48-1.1,2.76-2.45,3.84-4.03,1.07-1.58,1.9-3.38,2.48-5.39h-9.78c-.46,1.5-1.18,2.75-2.17,3.75-1,1-2.31,1.51-3.95,1.51-.98,0-1.78-.13-2.41-.41-.63-.27-1.14-.65-1.53-1.12-.39-.48-.66-1.03-.82-1.66-.16-.63-.23-1.32-.23-2.07,0-.49.02-1,.08-1.53.06-.53.14-1.08.26-1.66.52-3.01,1.41-5.27,2.67-6.79,1.26-1.51,2.8-2.26,4.61-2.26,1.49,0,2.65.39,3.47,1.16.82.77,1.23,1.88,1.23,3.32,0,.12,0,.22-.02.3Zm28.98,4.99c.03-.15.05-.38.05-.68,0-.97-.34-1.8-1-2.46-.67-.67-1.51-1-2.51-1-1.43,0-2.58.37-3.46,1.11-.88.75-1.44,1.75-1.69,3.03h8.61Zm-9.43,4.83c-.03.15-.05.3-.07.45-.02.15-.02.3-.02.46,0,1.16.38,2.07,1.14,2.76.76.69,1.7,1.02,2.82,1.02.76,0,1.5-.17,2.19-.52.7-.35,1.28-.87,1.73-1.57h9.07c-.67,1.49-1.54,2.73-2.62,3.74-1.08,1-2.27,1.81-3.58,2.44-1.31.62-2.68,1.06-4.12,1.32-1.45.26-2.86.39-4.26.39-1.7,0-3.27-.21-4.69-.64-1.43-.42-2.66-1.06-3.69-1.91-1.04-.85-1.84-1.89-2.42-3.12-.58-1.23-.87-2.65-.87-4.26,0-.4.03-.8.07-1.21.04-.41.1-.82.16-1.25.33-1.94.99-3.71,1.96-5.31.97-1.59,2.16-2.95,3.57-4.06,1.41-1.11,2.99-1.97,4.74-2.58,1.75-.61,3.58-.91,5.49-.91s3.61.27,5.08.82c1.47.54,2.71,1.31,3.72,2.28,1,.97,1.76,2.16,2.28,3.56.52,1.39.78,2.93.78,4.6,0,1.03-.12,2.2-.36,3.51h-18.1Zm30.19-13.4h-8.66l-4.1,23.88h9.48l2.1-12.17c.24-1.55.7-2.76,1.37-3.62.67-.86,1.74-1.3,3.2-1.3,1.03,0,1.74.27,2.11.82.38.55.57,1.23.57,2.05,0,.52-.05,1.05-.14,1.6l-2.19,12.62h9.49l2.45-14.31c.18-1.03.28-2.02.28-2.96,0-2.37-.62-4.18-1.87-5.42-1.25-1.24-3.21-1.87-5.88-1.87-1.82,0-3.42.37-4.78,1.12-1.37.75-2.72,1.85-4.06,3.31l.64-3.74Zm30.75,23.7c-1.07.06-2.05.11-2.95.14-.89.03-1.72.04-2.48.04-1.43,0-2.63-.07-3.6-.2-.97-.13-1.75-.38-2.33-.73-.58-.35-.99-.82-1.23-1.39-.24-.57-.36-1.3-.36-2.18,0-.55.04-1.16.11-1.85.08-.68.19-1.44.34-2.26l1.73-9.97h-3.38l.91-5.47h3.51l1.32-7.43h9.34l-1.32,7.43h4.56l-.91,5.47h-4.56l-1.5,8.69c-.06.28-.11.52-.14.75-.03.23-.05.44-.05.62,0,.58.19.99.55,1.24.37.24,1.05.36,2.05.36h1.5l-1.13,6.75Zm14.76-23.7h-8.62l-4.1,23.88h9.48l1.41-8.25c.45-2.58,1.25-4.39,2.39-5.42,1.14-1.03,2.68-1.55,4.62-1.55.34,0,.66.03.98.09.06.01.13.02.19.04l.12.02c.21.04.42.08.62.13l1.69-9.48c-.2-.03-.4-.06-.58-.09h0s-.03,0-.03,0c-.2-.03-.4-.05-.62-.05-3.62,0-6.38,1.84-8.29,5.52h-.1l.82-4.83Zm17.1,18.5c.82,0,1.54-.15,2.16-.45.62-.3,1.15-.72,1.57-1.26.43-.53.76-1.15,1-1.87.25-.71.41-1.48.5-2.3-.85.36-1.71.63-2.57.8-.86.17-1.67.35-2.42.55-.74.2-1.39.48-1.91.84-.54.36-.86.92-.98,1.69v.27c0,.52.22.94.66,1.25.44.32,1.1.47,1.99.47Zm4.38,5.43l-.06-3.28c-1.55,1.27-3.07,2.13-4.58,2.57-1.5.44-3.15.66-4.94.66-1,0-1.96-.11-2.87-.34-.91-.23-1.7-.58-2.37-1.08-.67-.48-1.2-1.08-1.6-1.8-.39-.71-.59-1.57-.59-2.58,0-.42.04-.89.14-1.41.3-1.8.96-3.2,1.98-4.22,1.02-1.02,2.21-1.78,3.56-2.3,1.34-.52,2.78-.87,4.28-1.07.65-.08,1.27-.17,1.88-.24.81-.1,1.58-.2,2.31-.3,1.29-.17,2.39-.39,3.28-.68.89-.29,1.41-.81,1.53-1.57,0-.06.01-.11.02-.16.01-.05.02-.1.02-.16,0-.37-.11-.66-.32-.87-.21-.21-.46-.37-.75-.48-.29-.11-.59-.18-.93-.23-.33-.05-.61-.07-.82-.07-.34,0-.69.02-1.07.07-.38.05-.74.16-1.07.32-.33.17-.64.4-.93.7-.29.31-.5.71-.62,1.23h-9.12c.21-1.28.64-2.41,1.28-3.4.64-.99,1.54-1.83,2.71-2.51,1.17-.68,2.6-1.21,4.31-1.57,1.7-.37,3.74-.55,6.11-.55,2.16,0,3.93.14,5.31.43,1.39.28,2.47.7,3.26,1.25.79.54,1.34,1.2,1.64,1.96.3.76.46,1.61.46,2.56,0,.57-.04,1.17-.12,1.77-.08.61-.18,1.25-.3,1.92l-1.92,11.17c-.08.52-.13.94-.13,1.27s.06.63.18.89c.12.26.35.56.68.89l-.03,1.19h-9.8Zm-195.8-25.67s0,0,0,0c0-.01-.02-.04-.06-.09h0c-.07-.09-.19-.24-.37-.4-.36-.31-.96-.69-1.94-.88-.49-.09-.9-.09-1.25-.05-.85.09-1.36.43-1.53.56-.05.04-.05.04-.05.04-.36.36-.96.37-1.32,0-.37-.37-.37-.96,0-1.32.09-.09,1-.96,2.7-1.14.52-.05,1.12-.04,1.77.08h0c2.69.48,3.66,2.22,3.73,2.37.23.46.05,1.02-.42,1.25-.1.05-.21.09-.32.1-.37.04-.75-.15-.93-.51Zm-3.23,4.36c1.34,0,2.43-.92,2.43-2.07,0-1.14-1.07-2.09-2.41-2.09-1.34,0-2.43.92-2.44,2.07,0,1.14,1.07,2.08,2.42,2.09Z"/><path class="cls-1" d="m390.24,130.34h-4.24l1.09-6.52h5.01c1.12,0,2.04.22,2.73.66.7.44,1.05,1.13,1.05,2.07,0,.31-.01.53-.04.68-.18,1.16-.74,1.96-1.69,2.42-.94.45-2.25.68-3.92.68Zm-7.47,18.64l1.96-11.44h3.28c1.91,0,3.23.24,3.94.7.71.48,1.07,1.29,1.07,2.44,0,.7-.09,1.55-.28,2.55-.18,1-.31,1.91-.39,2.71-.07.81-.11,1.47-.11,1.99,0,.39.03.74.09,1.04h10.89l.13-1c-.54,0-.82-.37-.82-1.09,0-.43.06-1.02.18-1.78.12-.76.29-1.72.5-2.87.21-1.24.32-2.33.32-3.28s-.11-1.65-.32-2.23c-.21-.58-.51-1.07-.89-1.46-.38-.4-.84-.72-1.37-.98-.53-.26-1.13-.51-1.8-.76,2-.51,3.58-1.51,4.71-2.98,1.14-1.48,1.88-3.16,2.21-5.04.15-.85.23-1.6.23-2.23,0-1.22-.24-2.26-.71-3.14-.47-.88-1.23-1.62-2.28-2.21-1.05-.59-2.4-1.03-4.06-1.32-1.65-.29-3.69-.43-6.08-.43h-15.5l-5.7,32.81h10.76Zm27.58-19.38l-5.34,19.38h9.44l2.77-19.38h-6.87Zm11.09-4.5h8.66l-.64,3.74c1.34-1.46,2.69-2.56,4.06-3.31,1.37-.74,2.97-1.12,4.79-1.12,2.67,0,4.63.63,5.88,1.87,1.25,1.24,1.87,3.05,1.87,5.42,0,.94-.09,1.93-.27,2.96l-2.46,14.31h-9.48l2.19-12.62c.09-.55.14-1.08.14-1.6,0-.82-.2-1.5-.57-2.05-.38-.55-1.09-.82-2.12-.82-1.46,0-2.53.43-3.19,1.3-.67.87-1.13,2.08-1.37,3.62l-2.1,12.17h-9.48l4.1-23.88Zm37.28,6.03c.52-.28,1.12-.41,1.82-.41h.09c1.21,0,2.06.36,2.55,1.08.49.71.73,1.57.73,2.58,0,.52-.05,1.02-.14,1.51-.12.64-.31,1.26-.55,1.85-.24.6-.55,1.12-.93,1.58-.38.45-.84.83-1.37,1.09-.54.28-1.13.42-1.8.42h-.23c-1.07-.03-1.83-.39-2.31-1.08-.47-.69-.7-1.5-.7-2.45,0-.18,0-.36.02-.55.01-.18.03-.38.07-.6.12-.76.3-1.47.53-2.15.22-.67.52-1.25.89-1.74.37-.49.81-.87,1.32-1.15Zm-3.83,18.78v-.14h-9.52v.31c0,.86.21,1.68.61,2.46.41.79,1.05,1.49,1.94,2.1.88.61,2.04,1.09,3.46,1.46,1.43.36,3.17.54,5.24.54,2.95,0,5.32-.33,7.11-.98,1.79-.65,3.21-1.56,4.24-2.72,1.03-1.16,1.79-2.51,2.26-4.06.47-1.55.85-3.22,1.16-5.01l3.33-19.24h-8.34l-.5,3.12c-.67-1.15-1.58-2.07-2.72-2.77-1.13-.69-2.43-1.04-3.89-1.04-1.98,0-3.7.36-5.17,1.07-1.47.72-2.74,1.64-3.78,2.78-1.05,1.14-1.89,2.44-2.51,3.9-.62,1.46-1.06,2.92-1.3,4.38-.06.42-.12.83-.16,1.23-.05.4-.07.79-.07,1.18,0,1.25.18,2.42.55,3.51.36,1.1.91,2.04,1.64,2.83.73.79,1.63,1.41,2.71,1.86,1.08.45,2.34.69,3.76.69,1.73,0,3.19-.26,4.36-.78,1.17-.51,2.15-1.13,2.94-1.82l-.37,1.96c-.3,1.71-.81,2.91-1.5,3.6-.7.7-1.73,1.04-3.1,1.04-.97,0-1.63-.19-1.96-.59-.27-.28-.41-.58-.41-.91Z"/></svg>