<?xml version="1.0" encoding="UTF-8"?>
<svg xmlns="http://www.w3.org/2000/svg" xmlns:xlink="http://www.w3.org/1999/xlink" width="240px" height="61px" viewBox="0 0 240 61" version="1.1">
<g id="surface1">
<path style=" stroke:none;fill-rule:nonzero;fill:rgb(8.235294%,19.607843%,37.254902%);fill-opacity:1;" d="M 5.476562 5.710938 L 8.527344 5.710938 L 8.527344 25.652344 C 8.527344 30.933594 11.921875 34.117188 17.199219 34.117188 C 22.472656 34.117188 25.914062 30.933594 25.914062 25.566406 L 25.914062 5.710938 L 28.921875 5.710938 L 28.921875 25.699219 C 28.921875 32.503906 24.171875 36.910156 17.242188 36.910156 C 10.3125 36.910156 5.476562 32.503906 5.476562 25.699219 Z M 5.476562 5.710938 "/>
<path style=" stroke:none;fill-rule:nonzero;fill:rgb(8.235294%,19.607843%,37.254902%);fill-opacity:1;" d="M 36.546875 14.441406 L 39.46875 14.441406 L 39.46875 17.714844 C 39.46875 18.675781 39.378906 19.457031 39.378906 19.457031 L 39.46875 19.457031 C 40.25 17.449219 43.039062 13.914062 48.226562 13.914062 C 53.414062 13.914062 55.550781 17.011719 55.550781 22.425781 L 55.550781 36.386719 L 52.589844 36.386719 L 52.589844 23.207031 C 52.589844 19.761719 52.066406 16.707031 47.835938 16.707031 C 44.085938 16.707031 40.863281 19.277344 39.863281 22.902344 C 39.601562 23.816406 39.515625 24.820312 39.515625 25.867188 L 39.515625 36.382812 L 36.554688 36.382812 L 36.554688 14.4375 Z M 36.546875 14.441406 "/>
<path style=" stroke:none;fill-rule:nonzero;fill:rgb(8.235294%,19.607843%,37.254902%);fill-opacity:1;" d="M 62.300781 5.710938 L 65.394531 5.710938 L 65.394531 9.421875 L 62.300781 9.421875 Z M 62.386719 14.441406 L 65.351562 14.441406 L 65.351562 36.386719 L 62.386719 36.386719 Z M 62.386719 14.441406 "/>
<path style=" stroke:none;fill-rule:nonzero;fill:rgb(8.235294%,19.607843%,37.254902%);fill-opacity:1;" d="M 73.5 17.1875 L 70.753906 17.1875 L 70.753906 14.703125 L 73.5 14.703125 L 73.5 13.65625 C 73.5 6.410156 78.597656 5.496094 81.082031 5.496094 C 81.910156 5.496094 82.433594 5.582031 82.433594 5.582031 L 82.433594 8.246094 C 82.433594 8.246094 81.996094 8.15625 81.386719 8.15625 C 79.6875 8.15625 76.460938 8.769531 76.460938 13.65625 L 76.460938 14.703125 L 82.085938 14.703125 L 82.085938 17.1875 L 76.460938 17.1875 L 76.460938 36.390625 L 73.5 36.390625 Z M 73.5 17.1875 "/>
<path style=" stroke:none;fill-rule:nonzero;fill:rgb(8.235294%,19.607843%,37.254902%);fill-opacity:1;" d="M 84.304688 41.886719 C 84.304688 41.886719 85.523438 42.890625 86.921875 42.890625 C 88.839844 42.890625 90.1875 41.316406 91.0625 39.3125 L 92.410156 36.214844 L 83.257812 14.441406 L 86.527344 14.441406 L 92.980469 30.457031 C 93.414062 31.546875 93.761719 32.769531 93.761719 32.769531 L 93.851562 32.769531 C 93.851562 32.769531 94.152344 31.546875 94.589844 30.457031 L 100.910156 14.441406 L 104.132812 14.441406 L 93.328125 40.96875 C 92.195312 43.761719 89.929688 45.550781 87.007812 45.550781 C 84.742188 45.550781 83.171875 44.242188 83.171875 44.242188 Z M 84.304688 41.886719 "/>
<path style=" stroke:none;fill-rule:nonzero;fill:rgb(8.235294%,19.607843%,37.254902%);fill-opacity:1;" d="M 134.289062 5.1875 C 142.960938 5.1875 149.886719 12.039062 149.886719 20.851562 C 149.886719 29.664062 142.957031 36.90625 134.289062 36.90625 C 125.621094 36.90625 118.6875 29.839844 118.6875 20.851562 C 118.6875 11.863281 125.621094 5.1875 134.289062 5.1875 Z M 134.289062 34.117188 C 141.175781 34.117188 146.75 28.359375 146.75 20.851562 C 146.75 13.34375 141.171875 7.976562 134.289062 7.976562 C 127.40625 7.976562 121.828125 13.519531 121.828125 20.851562 C 121.828125 28.183594 127.363281 34.117188 134.289062 34.117188 Z M 134.289062 34.117188 "/>
<path style=" stroke:none;fill-rule:nonzero;fill:rgb(8.235294%,19.607843%,37.254902%);fill-opacity:1;" d="M 170.761719 16.925781 L 159.78125 16.925781 L 159.78125 36.386719 L 156.816406 36.386719 L 156.816406 16.925781 L 154.070312 16.925781 L 154.070312 14.4375 L 156.816406 14.4375 L 156.816406 13.652344 C 156.816406 6.40625 161.917969 5.492188 164.398438 5.492188 C 165.226562 5.492188 165.75 5.578125 165.75 5.578125 L 165.75 8.242188 C 165.75 8.242188 165.316406 8.152344 164.703125 8.152344 C 163.003906 8.152344 159.78125 8.765625 159.78125 13.652344 L 159.78125 14.4375 L 170.761719 14.4375 L 170.761719 13.652344 C 170.761719 6.40625 175.863281 5.492188 178.34375 5.492188 C 179.171875 5.492188 179.695312 5.578125 179.695312 5.578125 L 179.695312 8.242188 C 179.695312 8.242188 179.257812 8.152344 178.648438 8.152344 C 176.949219 8.152344 173.722656 8.765625 173.722656 13.652344 L 173.722656 14.4375 L 186.664062 14.4375 L 186.664062 36.382812 L 183.703125 36.382812 L 183.703125 16.921875 L 173.722656 16.921875 L 173.722656 36.382812 L 170.761719 36.382812 L 170.761719 16.921875 Z M 183.617188 5.710938 L 186.707031 5.710938 L 186.707031 9.421875 L 183.617188 9.421875 Z M 183.617188 5.710938 "/>
<path style=" stroke:none;fill-rule:nonzero;fill:rgb(8.235294%,19.607843%,37.254902%);fill-opacity:1;" d="M 203.792969 13.914062 C 209.152344 13.914062 211.8125 17.058594 211.8125 17.058594 L 210.285156 19.28125 C 210.285156 19.28125 207.84375 16.621094 203.878906 16.621094 C 199.085938 16.621094 195.335938 20.199219 195.335938 25.433594 C 195.335938 30.667969 199.128906 34.246094 203.964844 34.246094 C 208.410156 34.246094 210.980469 31.148438 210.980469 31.148438 L 212.332031 33.460938 C 212.332031 33.460938 209.371094 36.90625 203.789062 36.90625 C 197.296875 36.90625 192.289062 32.238281 192.289062 25.429688 C 192.289062 18.621094 197.34375 13.910156 203.789062 13.910156 Z M 203.792969 13.914062 "/>
<path style=" stroke:none;fill-rule:nonzero;fill:rgb(8.235294%,19.607843%,37.254902%);fill-opacity:1;" d="M 227.019531 13.914062 C 233.078125 13.914062 236.171875 18.585938 236.171875 24.039062 C 236.171875 24.566406 236.082031 25.570312 236.082031 25.570312 L 219.261719 25.570312 C 219.394531 31.199219 223.226562 34.253906 227.757812 34.253906 C 231.765625 34.253906 234.425781 31.59375 234.425781 31.59375 L 235.777344 33.863281 C 235.777344 33.863281 232.59375 36.914062 227.671875 36.914062 C 221.132812 36.914062 216.207031 32.199219 216.207031 25.4375 C 216.207031 18.238281 221.089844 13.917969 227.015625 13.917969 Z M 233.164062 23.125 C 232.988281 18.542969 230.199219 16.40625 226.929688 16.40625 C 223.269531 16.40625 220.089844 18.71875 219.394531 23.125 Z M 233.164062 23.125 "/>
<path style=" stroke:none;fill-rule:nonzero;fill:rgb(8.235294%,19.607843%,37.254902%);fill-opacity:1;" d="M 119.441406 46.296875 L 120.214844 46.296875 L 120.214844 49.085938 C 120.214844 49.351562 120.195312 49.554688 120.195312 49.554688 L 120.214844 49.554688 C 120.214844 49.554688 120.695312 48.445312 122.167969 48.445312 C 123.640625 48.445312 124.667969 49.679688 124.667969 51.460938 C 124.667969 53.242188 123.585938 54.46875 122.074219 54.46875 C 120.707031 54.46875 120.191406 53.34375 120.191406 53.34375 L 120.167969 53.34375 C 120.167969 53.34375 120.191406 53.539062 120.191406 53.816406 L 120.191406 54.328125 L 119.4375 54.328125 L 119.4375 46.289062 Z M 122.019531 53.785156 C 123.039062 53.785156 123.871094 52.929688 123.871094 51.464844 C 123.871094 50.003906 123.125 49.15625 122.054688 49.15625 C 121.09375 49.15625 120.195312 49.839844 120.195312 51.476562 C 120.195312 52.628906 120.785156 53.785156 122.019531 53.785156 Z M 122.019531 53.785156 "/>
<path style=" stroke:none;fill-rule:nonzero;fill:rgb(8.235294%,19.607843%,37.254902%);fill-opacity:1;" d="M 125.605469 55.777344 C 125.605469 55.777344 125.921875 56.039062 126.289062 56.039062 C 126.789062 56.039062 127.144531 55.628906 127.375 55.101562 L 127.726562 54.292969 L 125.332031 48.585938 L 126.1875 48.585938 L 127.878906 52.785156 C 127.992188 53.070312 128.082031 53.390625 128.082031 53.390625 L 128.105469 53.390625 C 128.105469 53.390625 128.1875 53.070312 128.300781 52.785156 L 129.953125 48.585938 L 130.800781 48.585938 L 127.964844 55.539062 C 127.667969 56.269531 127.078125 56.742188 126.3125 56.742188 C 125.71875 56.742188 125.308594 56.394531 125.308594 56.394531 L 125.605469 55.78125 Z M 125.605469 55.777344 "/>
<path style=" stroke:none;fill-rule:evenodd;fill:rgb(100%,47.843137%,0%);fill-opacity:1;" d="M 154.328125 44.339844 C 154.40625 44.496094 154.574219 44.578125 154.734375 44.5625 C 154.78125 44.558594 154.828125 44.542969 154.878906 44.523438 C 155.078125 44.417969 155.164062 44.171875 155.058594 43.96875 C 155.03125 43.902344 154.476562 42.878906 152.890625 42.597656 C 152.496094 42.527344 152.148438 42.519531 151.84375 42.554688 C 150.84375 42.65625 150.320312 43.164062 150.28125 43.203125 C 150.117188 43.359375 150.117188 43.625 150.28125 43.78125 C 150.441406 43.941406 150.699219 43.941406 150.859375 43.78125 C 150.859375 43.78125 150.863281 43.773438 150.90625 43.746094 C 151.027344 43.648438 151.367188 43.421875 151.925781 43.363281 C 152.15625 43.339844 152.429688 43.339844 152.742188 43.398438 C 153.382812 43.515625 153.777344 43.765625 154.019531 43.976562 C 154.140625 44.082031 154.222656 44.179688 154.273438 44.246094 C 154.300781 44.28125 154.3125 44.304688 154.320312 44.320312 C 154.324219 44.328125 154.328125 44.328125 154.328125 44.332031 Z M 231.257812 42.636719 L 229.175781 54.664062 L 232.644531 54.664062 L 234.730469 42.636719 L 231.253906 42.636719 Z M 182.253906 47.222656 C 182.25 47.257812 182.246094 47.292969 182.246094 47.332031 L 185.78125 47.332031 C 185.789062 47.25 185.796875 47.171875 185.796875 47.09375 L 185.796875 46.855469 C 185.796875 45.53125 185.390625 44.503906 184.574219 43.777344 C 183.757812 43.050781 182.523438 42.6875 180.875 42.6875 C 180.085938 42.6875 179.320312 42.828125 178.578125 43.105469 C 177.839844 43.386719 177.167969 43.785156 176.566406 44.300781 C 175.96875 44.820312 175.460938 45.445312 175.039062 46.183594 C 174.617188 46.921875 174.328125 47.746094 174.171875 48.664062 C 174.128906 48.90625 174.097656 49.140625 174.074219 49.367188 C 174.054688 49.59375 174.042969 49.8125 174.042969 50.023438 C 174.042969 50.753906 174.15625 51.402344 174.382812 51.976562 C 174.605469 52.550781 174.9375 53.039062 175.375 53.441406 C 175.808594 53.839844 176.34375 54.144531 176.976562 54.359375 C 177.609375 54.570312 178.335938 54.671875 179.15625 54.671875 C 179.902344 54.671875 180.609375 54.566406 181.28125 54.351562 C 181.945312 54.132812 182.554688 53.820312 183.09375 53.417969 C 183.632812 53.015625 184.101562 52.519531 184.496094 51.941406 C 184.890625 51.363281 185.195312 50.703125 185.40625 49.964844 L 181.824219 49.964844 C 181.65625 50.515625 181.394531 50.972656 181.03125 51.339844 C 180.664062 51.707031 180.183594 51.894531 179.585938 51.894531 C 179.226562 51.894531 178.933594 51.847656 178.703125 51.742188 C 178.472656 51.644531 178.285156 51.503906 178.140625 51.332031 C 178 51.15625 177.902344 50.957031 177.84375 50.722656 C 177.785156 50.492188 177.757812 50.242188 177.757812 49.964844 C 177.757812 49.785156 177.765625 49.597656 177.789062 49.40625 C 177.808594 49.210938 177.839844 49.007812 177.882812 48.796875 C 178.074219 47.691406 178.398438 46.863281 178.859375 46.308594 C 179.320312 45.753906 179.886719 45.480469 180.546875 45.480469 C 181.09375 45.480469 181.519531 45.621094 181.816406 45.902344 C 182.117188 46.1875 182.269531 46.59375 182.269531 47.121094 C 182.269531 47.164062 182.269531 47.203125 182.261719 47.230469 Z M 192.863281 49.054688 C 192.875 48.996094 192.882812 48.914062 192.882812 48.804688 C 192.882812 48.449219 192.757812 48.144531 192.515625 47.902344 C 192.269531 47.65625 191.960938 47.535156 191.597656 47.535156 C 191.074219 47.535156 190.652344 47.671875 190.328125 47.941406 C 190.007812 48.21875 189.800781 48.582031 189.710938 49.054688 Z M 189.410156 50.824219 C 189.398438 50.878906 189.390625 50.933594 189.386719 50.988281 C 189.378906 51.042969 189.378906 51.097656 189.378906 51.15625 C 189.378906 51.582031 189.515625 51.914062 189.796875 52.167969 C 190.074219 52.421875 190.417969 52.542969 190.828125 52.542969 C 191.105469 52.542969 191.375 52.480469 191.628906 52.351562 C 191.886719 52.222656 192.097656 52.035156 192.261719 51.777344 L 195.582031 51.777344 C 195.335938 52.324219 195.019531 52.777344 194.625 53.148438 C 194.226562 53.515625 193.792969 53.8125 193.3125 54.042969 C 192.832031 54.269531 192.332031 54.429688 191.804688 54.527344 C 191.273438 54.621094 190.757812 54.667969 190.246094 54.667969 C 189.625 54.667969 189.046875 54.59375 188.527344 54.433594 C 188.003906 54.28125 187.554688 54.046875 187.175781 53.734375 C 186.796875 53.421875 186.503906 53.042969 186.292969 52.589844 C 186.078125 52.140625 185.972656 51.617188 185.972656 51.027344 C 185.972656 50.882812 185.984375 50.734375 186 50.585938 C 186.011719 50.433594 186.035156 50.285156 186.058594 50.128906 C 186.179688 49.414062 186.417969 48.765625 186.773438 48.179688 C 187.128906 47.597656 187.566406 47.097656 188.082031 46.691406 C 188.597656 46.285156 189.175781 45.96875 189.816406 45.746094 C 190.457031 45.523438 191.128906 45.414062 191.828125 45.414062 C 192.527344 45.414062 193.148438 45.511719 193.6875 45.714844 C 194.226562 45.910156 194.679688 46.195312 195.046875 46.550781 C 195.414062 46.90625 195.691406 47.339844 195.882812 47.855469 C 196.074219 48.363281 196.167969 48.929688 196.167969 49.539062 C 196.167969 49.917969 196.125 50.347656 196.035156 50.828125 L 189.410156 50.828125 Z M 200.464844 45.910156 L 197.292969 45.910156 L 195.792969 54.664062 L 199.261719 54.664062 L 200.03125 50.203125 C 200.117188 49.636719 200.289062 49.191406 200.53125 48.878906 C 200.777344 48.5625 201.167969 48.402344 201.703125 48.402344 C 202.082031 48.402344 202.339844 48.5 202.476562 48.699219 C 202.617188 48.902344 202.683594 49.152344 202.683594 49.453125 C 202.683594 49.644531 202.667969 49.835938 202.632812 50.039062 L 201.832031 54.664062 L 205.304688 54.664062 L 206.203125 49.417969 C 206.269531 49.042969 206.304688 48.679688 206.304688 48.335938 C 206.304688 47.464844 206.078125 46.800781 205.621094 46.347656 C 205.164062 45.894531 204.445312 45.660156 203.46875 45.660156 C 202.800781 45.660156 202.214844 45.796875 201.71875 46.074219 C 201.21875 46.347656 200.722656 46.75 200.230469 47.285156 L 200.464844 45.914062 Z M 211.71875 54.597656 C 211.328125 54.621094 210.96875 54.640625 210.640625 54.652344 C 210.316406 54.660156 210.011719 54.664062 209.730469 54.664062 C 209.207031 54.664062 208.769531 54.640625 208.414062 54.59375 C 208.058594 54.542969 207.773438 54.453125 207.5625 54.324219 C 207.347656 54.195312 207.199219 54.023438 207.109375 53.816406 C 207.023438 53.605469 206.980469 53.339844 206.980469 53.015625 C 206.980469 52.8125 206.992188 52.589844 207.019531 52.335938 C 207.050781 52.089844 207.089844 51.808594 207.144531 51.507812 L 207.777344 47.855469 L 206.539062 47.855469 L 206.875 45.847656 L 208.160156 45.847656 L 208.640625 43.125 L 212.0625 43.125 L 211.578125 45.847656 L 213.246094 45.847656 L 212.914062 47.855469 L 211.246094 47.855469 L 210.695312 51.039062 C 210.671875 51.140625 210.65625 51.230469 210.644531 51.316406 C 210.632812 51.398438 210.625 51.476562 210.625 51.542969 C 210.625 51.753906 210.695312 51.90625 210.828125 51.996094 C 210.960938 52.085938 211.210938 52.128906 211.578125 52.128906 L 212.125 52.128906 L 211.714844 54.601562 Z M 217.125 45.910156 L 213.96875 45.910156 L 212.46875 54.664062 L 215.9375 54.664062 L 216.453125 51.640625 C 216.617188 50.695312 216.910156 50.03125 217.328125 49.652344 C 217.746094 49.277344 218.308594 49.085938 219.019531 49.085938 C 219.144531 49.085938 219.261719 49.097656 219.378906 49.117188 C 219.402344 49.121094 219.425781 49.125 219.449219 49.132812 L 219.492188 49.140625 C 219.570312 49.15625 219.644531 49.171875 219.71875 49.1875 L 220.339844 45.714844 C 220.265625 45.703125 220.191406 45.691406 220.125 45.679688 C 220.125 45.679688 220.113281 45.679688 220.113281 45.679688 C 220.042969 45.667969 219.96875 45.660156 219.886719 45.660156 C 218.5625 45.660156 217.550781 46.335938 216.851562 47.6875 L 216.816406 47.6875 L 217.117188 45.914062 Z M 223.382812 52.691406 C 223.683594 52.691406 223.949219 52.636719 224.175781 52.527344 C 224.402344 52.417969 224.59375 52.265625 224.75 52.066406 C 224.90625 51.871094 225.027344 51.644531 225.117188 51.378906 C 225.207031 51.121094 225.265625 50.839844 225.296875 50.539062 C 224.988281 50.667969 224.671875 50.769531 224.359375 50.832031 C 224.042969 50.894531 223.746094 50.960938 223.472656 51.03125 C 223.199219 51.105469 222.964844 51.207031 222.773438 51.339844 C 222.574219 51.472656 222.457031 51.675781 222.414062 51.960938 L 222.414062 52.058594 C 222.414062 52.25 222.496094 52.402344 222.65625 52.515625 C 222.816406 52.632812 223.058594 52.691406 223.382812 52.691406 Z M 224.988281 54.683594 L 224.964844 53.480469 C 224.398438 53.945312 223.839844 54.261719 223.289062 54.421875 C 222.738281 54.585938 222.136719 54.664062 221.480469 54.664062 C 221.113281 54.664062 220.761719 54.625 220.429688 54.539062 C 220.097656 54.457031 219.808594 54.328125 219.5625 54.144531 C 219.316406 53.96875 219.121094 53.75 218.976562 53.484375 C 218.832031 53.226562 218.761719 52.910156 218.761719 52.539062 C 218.761719 52.386719 218.773438 52.214844 218.8125 52.023438 C 218.921875 51.363281 219.164062 50.847656 219.535156 50.476562 C 219.910156 50.101562 220.34375 49.824219 220.839844 49.632812 C 221.332031 49.441406 221.855469 49.3125 222.40625 49.238281 C 222.644531 49.210938 222.871094 49.175781 223.09375 49.152344 C 223.390625 49.117188 223.671875 49.078125 223.941406 49.042969 C 224.414062 48.980469 224.816406 48.898438 225.140625 48.792969 C 225.46875 48.6875 225.65625 48.496094 225.703125 48.21875 C 225.703125 48.195312 225.703125 48.175781 225.707031 48.160156 C 225.710938 48.140625 225.714844 48.121094 225.714844 48.101562 C 225.714844 47.964844 225.675781 47.859375 225.597656 47.78125 C 225.523438 47.703125 225.429688 47.644531 225.324219 47.605469 C 225.21875 47.566406 225.109375 47.539062 224.984375 47.519531 C 224.863281 47.503906 224.761719 47.496094 224.683594 47.496094 C 224.558594 47.496094 224.429688 47.503906 224.292969 47.519531 C 224.152344 47.539062 224.019531 47.578125 223.898438 47.636719 C 223.777344 47.699219 223.664062 47.785156 223.558594 47.894531 C 223.453125 48.007812 223.375 48.15625 223.332031 48.34375 L 219.992188 48.34375 C 220.070312 47.875 220.226562 47.460938 220.460938 47.097656 C 220.695312 46.734375 221.027344 46.429688 221.453125 46.179688 C 221.882812 45.929688 222.40625 45.734375 223.03125 45.601562 C 223.65625 45.46875 224.402344 45.402344 225.269531 45.402344 C 226.058594 45.402344 226.707031 45.453125 227.214844 45.558594 C 227.722656 45.660156 228.117188 45.816406 228.40625 46.019531 C 228.695312 46.214844 228.898438 46.457031 229.007812 46.734375 C 229.117188 47.015625 229.175781 47.328125 229.175781 47.675781 C 229.175781 47.882812 229.160156 48.101562 229.132812 48.324219 C 229.101562 48.546875 229.066406 48.78125 229.023438 49.027344 L 228.320312 53.121094 C 228.289062 53.3125 228.269531 53.464844 228.269531 53.585938 C 228.269531 53.707031 228.292969 53.820312 228.335938 53.914062 C 228.382812 54.007812 228.464844 54.121094 228.585938 54.238281 L 228.574219 54.675781 L 224.988281 54.675781 Z M 153.308594 45.273438 C 153.308594 45.269531 153.300781 45.257812 153.285156 45.242188 C 153.257812 45.207031 153.214844 45.152344 153.148438 45.09375 C 153.019531 44.980469 152.796875 44.839844 152.4375 44.769531 C 152.261719 44.738281 152.109375 44.738281 151.980469 44.753906 C 151.671875 44.785156 151.484375 44.910156 151.421875 44.957031 C 151.402344 44.972656 151.402344 44.972656 151.402344 44.972656 C 151.269531 45.105469 151.050781 45.109375 150.921875 44.972656 C 150.785156 44.835938 150.785156 44.621094 150.921875 44.488281 C 150.953125 44.457031 151.285156 44.136719 151.910156 44.070312 C 152.097656 44.050781 152.320312 44.054688 152.554688 44.101562 C 153.542969 44.277344 153.894531 44.914062 153.921875 44.96875 C 154.007812 45.136719 153.941406 45.34375 153.769531 45.425781 C 153.730469 45.445312 153.691406 45.460938 153.652344 45.464844 C 153.515625 45.480469 153.375 45.410156 153.3125 45.277344 Z M 152.125 46.871094 C 152.613281 46.871094 153.015625 46.535156 153.015625 46.113281 C 153.015625 45.695312 152.621094 45.347656 152.132812 45.347656 C 151.640625 45.347656 151.242188 45.683594 151.238281 46.105469 C 151.238281 46.523438 151.628906 46.867188 152.125 46.871094 Z M 152.125 46.871094 "/>
<path style=" stroke:none;fill-rule:evenodd;fill:rgb(2.352941%,51.764706%,73.72549%);fill-opacity:1;" d="M 143.1875 47.78125 L 141.636719 47.78125 L 142.035156 45.390625 L 143.867188 45.390625 C 144.277344 45.390625 144.617188 45.472656 144.867188 45.632812 C 145.125 45.792969 145.253906 46.046875 145.253906 46.390625 C 145.253906 46.503906 145.25 46.585938 145.238281 46.640625 C 145.171875 47.066406 144.96875 47.359375 144.621094 47.527344 C 144.277344 47.691406 143.796875 47.777344 143.183594 47.777344 Z M 140.453125 54.613281 L 141.171875 50.421875 L 142.371094 50.421875 C 143.070312 50.421875 143.554688 50.507812 143.8125 50.675781 C 144.074219 50.851562 144.207031 51.148438 144.207031 51.570312 C 144.207031 51.828125 144.171875 52.140625 144.101562 52.507812 C 144.039062 52.871094 143.988281 53.207031 143.960938 53.5 C 143.933594 53.796875 143.921875 54.039062 143.921875 54.230469 C 143.921875 54.371094 143.929688 54.5 143.953125 54.609375 L 147.941406 54.609375 L 147.988281 54.242188 C 147.789062 54.242188 147.6875 54.109375 147.6875 53.84375 C 147.6875 53.6875 147.710938 53.46875 147.753906 53.191406 C 147.796875 52.914062 147.859375 52.5625 147.9375 52.140625 C 148.011719 51.683594 148.054688 51.285156 148.054688 50.9375 C 148.054688 50.589844 148.011719 50.332031 147.9375 50.121094 C 147.859375 49.90625 147.75 49.726562 147.609375 49.585938 C 147.472656 49.4375 147.304688 49.320312 147.109375 49.226562 C 146.914062 49.128906 146.695312 49.039062 146.449219 48.945312 C 147.183594 48.757812 147.761719 48.394531 148.175781 47.855469 C 148.589844 47.3125 148.863281 46.695312 148.984375 46.007812 C 149.039062 45.695312 149.066406 45.421875 149.066406 45.1875 C 149.066406 44.742188 148.980469 44.359375 148.808594 44.039062 C 148.636719 43.714844 148.355469 43.445312 147.972656 43.226562 C 147.589844 43.011719 147.09375 42.851562 146.488281 42.742188 C 145.882812 42.636719 145.136719 42.585938 144.261719 42.585938 L 138.585938 42.585938 L 136.5 54.613281 Z M 150.550781 47.507812 L 148.59375 54.613281 L 152.050781 54.613281 L 153.066406 47.507812 Z M 154.609375 45.859375 L 157.78125 45.859375 L 157.546875 47.230469 C 158.035156 46.695312 158.53125 46.292969 159.03125 46.019531 C 159.535156 45.746094 160.121094 45.605469 160.785156 45.605469 C 161.761719 45.605469 162.480469 45.839844 162.9375 46.292969 C 163.394531 46.746094 163.625 47.410156 163.625 48.28125 C 163.625 48.625 163.589844 48.988281 163.523438 49.363281 L 162.625 54.609375 L 159.152344 54.609375 L 159.957031 49.984375 C 159.988281 49.78125 160.007812 49.589844 160.007812 49.398438 C 160.007812 49.097656 159.933594 48.847656 159.796875 48.644531 C 159.660156 48.445312 159.398438 48.34375 159.023438 48.34375 C 158.488281 48.34375 158.09375 48.503906 157.855469 48.820312 C 157.609375 49.140625 157.441406 49.585938 157.351562 50.148438 L 156.582031 54.609375 L 153.113281 54.609375 L 154.613281 45.855469 Z M 168.257812 48.070312 C 168.449219 47.96875 168.667969 47.921875 168.925781 47.921875 L 168.957031 47.921875 C 169.398438 47.921875 169.710938 48.050781 169.890625 48.316406 C 170.070312 48.578125 170.15625 48.890625 170.15625 49.261719 C 170.15625 49.453125 170.140625 49.636719 170.105469 49.816406 C 170.0625 50.050781 169.992188 50.277344 169.90625 50.492188 C 169.816406 50.714844 169.703125 50.902344 169.566406 51.074219 C 169.425781 51.238281 169.257812 51.378906 169.0625 51.472656 C 168.867188 51.574219 168.648438 51.625 168.40625 51.625 L 168.320312 51.625 C 167.929688 51.617188 167.648438 51.484375 167.472656 51.230469 C 167.300781 50.976562 167.21875 50.679688 167.21875 50.332031 C 167.21875 50.265625 167.21875 50.199219 167.226562 50.128906 C 167.230469 50.066406 167.238281 49.992188 167.25 49.910156 C 167.296875 49.632812 167.359375 49.371094 167.445312 49.121094 C 167.527344 48.878906 167.636719 48.664062 167.769531 48.484375 C 167.90625 48.304688 168.066406 48.164062 168.253906 48.0625 Z M 166.855469 54.953125 L 166.855469 54.902344 L 163.371094 54.902344 L 163.371094 55.015625 C 163.371094 55.332031 163.449219 55.632812 163.59375 55.917969 C 163.742188 56.207031 163.976562 56.464844 164.304688 56.6875 C 164.625 56.914062 165.050781 57.089844 165.570312 57.222656 C 166.09375 57.355469 166.730469 57.421875 167.488281 57.421875 C 168.570312 57.421875 169.4375 57.300781 170.09375 57.0625 C 170.746094 56.824219 171.265625 56.492188 171.644531 56.066406 C 172.019531 55.640625 172.300781 55.144531 172.472656 54.578125 C 172.644531 54.007812 172.78125 53.398438 172.894531 52.742188 L 174.117188 45.6875 L 171.0625 45.6875 L 170.878906 46.832031 C 170.632812 46.410156 170.300781 46.074219 169.882812 45.816406 C 169.46875 45.5625 168.992188 45.433594 168.460938 45.433594 C 167.734375 45.433594 167.105469 45.566406 166.566406 45.828125 C 166.027344 46.089844 165.5625 46.429688 165.183594 46.847656 C 164.796875 47.265625 164.492188 47.742188 164.265625 48.277344 C 164.035156 48.8125 163.875 49.347656 163.789062 49.882812 C 163.765625 50.035156 163.742188 50.1875 163.730469 50.332031 C 163.710938 50.480469 163.703125 50.621094 163.703125 50.765625 C 163.703125 51.222656 163.769531 51.652344 163.90625 52.050781 C 164.035156 52.453125 164.238281 52.800781 164.503906 53.089844 C 164.773438 53.378906 165.101562 53.605469 165.496094 53.769531 C 165.894531 53.9375 166.355469 54.023438 166.875 54.023438 C 167.507812 54.023438 168.042969 53.929688 168.46875 53.738281 C 168.898438 53.550781 169.257812 53.324219 169.546875 53.070312 L 169.410156 53.789062 C 169.300781 54.417969 169.113281 54.855469 168.863281 55.109375 C 168.605469 55.367188 168.230469 55.488281 167.726562 55.488281 C 167.371094 55.488281 167.128906 55.421875 167.007812 55.273438 C 166.910156 55.171875 166.859375 55.0625 166.859375 54.941406 Z M 166.855469 54.953125 "/>
</g>
</svg>
