<svg width="232" height="50" viewBox="0 0 232 50" fill="none" xmlns="http://www.w3.org/2000/svg">
<path fill-rule="evenodd" clip-rule="evenodd" d="M42.1682 12.2584C42.1682 12.2585 42.1685 12.2585 42.1687 12.2585C42.3529 12.6289 42.7447 12.8222 43.1296 12.7848C43.2452 12.7723 43.3574 12.7385 43.4644 12.6868C43.9426 12.4437 44.1358 11.864 43.8946 11.3848C43.8287 11.2308 42.5195 8.82095 38.7747 8.15393C37.8549 7.98918 37.0266 7.97582 36.3026 8.05241C33.9461 8.2982 32.712 9.49242 32.6176 9.58415C32.2391 9.95907 32.2391 10.5744 32.6176 10.9494C32.9933 11.3287 33.6069 11.3323 33.9828 10.9529C33.9828 10.9529 33.9944 10.936 34.0931 10.8674C34.3754 10.6439 35.1805 10.1114 36.5029 9.97332C37.0498 9.91722 37.6873 9.92345 38.4292 10.0561C39.9378 10.3331 40.8685 10.9173 41.4421 11.4151C41.7243 11.6689 41.9174 11.8951 42.035 12.0536C42.092 12.1311 42.1313 12.1944 42.1499 12.23C42.1593 12.2442 42.1634 12.2514 42.1656 12.2549C42.1673 12.2577 42.1675 12.2583 42.1682 12.2584ZM223.595 8.2484L218.681 36.5785H226.868L231.784 8.2484H223.595ZM108.027 19.0523C108.016 19.1316 108.007 19.2179 108.007 19.315H116.344C116.364 19.1164 116.38 18.933 116.38 18.7575V18.1983C116.38 15.076 115.418 12.6546 113.499 10.9439C111.577 9.23134 108.666 8.3773 104.772 8.3773C102.912 8.3773 101.107 8.70591 99.3566 9.35958C97.6085 10.0195 96.0287 10.9554 94.6145 12.1719C93.1993 13.3866 91.9963 14.8614 91.0041 16.598C90.0095 18.3399 89.3316 20.2857 88.9567 22.4408C88.8579 23.0135 88.7831 23.5647 88.7341 24.0973C88.6824 24.6289 88.6592 25.1454 88.6592 25.6388C88.6592 27.3549 88.9248 28.8831 89.4591 30.2367C89.9899 31.5868 90.7753 32.7356 91.802 33.6779C92.8333 34.6209 94.0916 35.3386 95.5799 35.8347C97.0687 36.3315 98.7803 36.5792 100.715 36.5792C102.477 36.5792 104.144 36.3255 105.721 35.8168C107.295 35.3111 108.723 34.5764 109.999 33.6243C111.276 32.6705 112.383 31.5084 113.312 30.1459C114.239 28.7806 114.953 27.2293 115.45 25.4919H107.005C106.608 26.7858 105.982 27.8643 105.127 28.7299C104.268 29.5973 103.134 30.0301 101.72 30.0301C100.878 30.0301 100.183 29.9152 99.6371 29.6765C99.0913 29.4432 98.6505 29.1191 98.3163 28.7112C97.9815 28.3006 97.7447 27.8215 97.6085 27.2783C97.4731 26.7351 97.4062 26.1393 97.4062 25.4919C97.4062 25.0697 97.4267 24.6289 97.4794 24.1703C97.5284 23.7152 97.6032 23.2352 97.7003 22.7365C98.1464 20.137 98.9194 18.1822 100.009 16.8776C101.098 15.5747 102.425 14.9273 103.992 14.9273C105.281 14.9273 106.279 15.2603 106.986 15.93C107.693 16.598 108.048 17.5526 108.048 18.7949C108.048 18.8947 108.041 18.9811 108.027 19.0523ZM133.049 23.3578C133.074 23.226 133.088 23.0319 133.088 22.7683C133.088 21.9267 132.798 21.2178 132.226 20.6434C131.647 20.0672 130.925 19.7796 130.059 19.7796C128.828 19.7796 127.832 20.0975 127.07 20.7414C126.308 21.3861 125.823 22.2553 125.613 23.3578H133.049ZM124.904 27.5318C124.879 27.6591 124.86 27.7919 124.847 27.9219C124.831 28.0519 124.828 28.1837 124.828 28.3173C124.828 29.3174 125.154 30.1073 125.809 30.6968C126.467 31.289 127.279 31.5802 128.247 31.5802C128.905 31.5802 129.538 31.4297 130.137 31.1323C130.741 30.8286 131.238 30.3816 131.63 29.7733H139.464C138.886 31.0584 138.132 32.1315 137.202 32.9998C136.268 33.8628 135.242 34.5653 134.112 35.1078C132.982 35.6404 131.796 36.024 130.551 36.2468C129.301 36.4674 128.081 36.5797 126.872 36.5797C125.403 36.5797 124.051 36.3955 122.82 36.0269C121.586 35.6606 120.524 35.1105 119.634 34.3749C118.74 33.6436 118.046 32.7451 117.548 31.6791C117.05 30.6149 116.798 29.3939 116.798 28.0011C116.798 27.6591 116.822 27.3092 116.859 26.9556C116.894 26.603 116.943 26.2467 116.995 25.8754C117.284 24.1985 117.849 22.6685 118.689 21.2926C119.527 19.9167 120.556 18.7483 121.775 17.791C122.996 16.8319 124.359 16.0927 125.867 15.5655C127.378 15.041 128.957 14.7801 130.608 14.7801C132.262 14.7801 133.724 15.0169 134.998 15.488C136.268 15.9582 137.342 16.6164 138.207 17.4561C139.069 18.295 139.728 19.3201 140.172 20.5268C140.619 21.7299 140.841 23.0568 140.841 24.5004C140.841 25.3927 140.735 26.4008 140.527 27.5318H124.904ZM150.968 15.9594H143.495L139.952 36.5792H148.138L149.947 26.0725C150.158 24.7349 150.55 23.6894 151.126 22.9431C151.704 22.1968 152.627 21.8237 153.885 21.8237C154.775 21.8237 155.383 22.0588 155.711 22.5317C156.04 23.0028 156.204 23.5923 156.204 24.3021C156.204 24.7509 156.165 25.206 156.088 25.6798L154.195 36.5792H162.385L164.504 24.2219C164.662 23.3296 164.744 22.48 164.744 21.667C164.744 19.6205 164.205 18.0558 163.129 16.9835C162.052 15.9095 160.361 15.369 158.051 15.369C156.479 15.369 155.103 15.6923 153.922 16.3326C152.742 16.9809 151.574 17.9275 150.418 19.1877L150.968 15.9594ZM177.519 36.4237C176.597 36.472 175.751 36.5155 174.975 36.5423C174.205 36.5698 173.489 36.5787 172.832 36.5787C171.598 36.5787 170.564 36.5191 169.726 36.4035C168.885 36.2876 168.215 36.0739 167.717 35.7736C167.218 35.4745 166.864 35.0694 166.652 34.5723C166.443 34.0798 166.34 33.4466 166.34 32.6871C166.34 32.2159 166.374 31.6834 166.439 31.0912C166.505 30.5017 166.599 29.8489 166.732 29.1418L168.229 20.5302H165.315L166.105 15.8041H169.133L170.276 9.38857H178.34L177.201 15.8041H181.135L180.345 20.5302H176.411L175.115 28.0358C175.062 28.2744 175.024 28.4855 174.996 28.6796C174.968 28.8809 174.955 29.0563 174.955 29.2148C174.955 29.7162 175.115 30.0716 175.428 30.2853C175.747 30.4937 176.334 30.597 177.201 30.597H178.499L177.519 36.4237ZM190.26 15.9594H182.82L179.281 36.5792H187.466L188.686 29.4566C189.079 27.2329 189.768 25.6655 190.753 24.7741C191.737 23.8844 193.066 23.4365 194.745 23.4365C195.034 23.4365 195.316 23.465 195.594 23.5139C195.649 23.5248 195.703 23.5355 195.757 23.5462L195.859 23.5663C196.042 23.6024 196.223 23.6381 196.398 23.6742L197.857 15.4883C197.684 15.4665 197.513 15.4391 197.354 15.4137L197.325 15.4091C197.154 15.3832 196.976 15.369 196.793 15.369C193.668 15.369 191.281 16.9568 189.633 20.1308H189.55L190.26 15.9594ZM205.026 31.9332C205.73 31.9332 206.356 31.8076 206.894 31.5449C207.431 31.2831 207.884 30.9216 208.249 30.4585C208.62 30.0007 208.903 29.4637 209.115 28.8448C209.327 28.2303 209.47 27.5704 209.55 26.8606C208.817 27.1741 208.072 27.403 207.327 27.5517C206.582 27.6942 205.882 27.8518 205.241 28.0228C204.599 28.1929 204.043 28.4343 203.588 28.7504C203.126 29.0639 202.845 29.5457 202.741 30.2073V30.4407C202.741 30.8913 202.929 31.2502 203.311 31.5236C203.691 31.8014 204.264 31.9332 205.026 31.9332ZM208.81 36.6236L208.762 33.7882C207.428 34.8852 206.107 35.629 204.805 36.0083C203.51 36.3858 202.087 36.5783 200.537 36.5783C199.673 36.5783 198.844 36.4812 198.059 36.2878C197.273 36.0911 196.59 35.783 196.013 35.3591C195.434 34.9405 194.974 34.4268 194.633 33.8032C194.296 33.1914 194.123 32.4469 194.123 31.5796C194.123 31.2136 194.159 30.8084 194.243 30.364C194.504 28.8127 195.076 27.6015 195.953 26.7208C196.832 25.8436 197.857 25.1819 199.024 24.7366C200.186 24.2887 201.425 23.9823 202.722 23.8087C203.279 23.736 203.82 23.6658 204.344 23.5977C205.04 23.5074 205.706 23.4209 206.342 23.3376C207.456 23.1906 208.404 23 209.174 22.7471C209.945 22.496 210.39 22.0463 210.492 21.3899C210.492 21.3383 210.502 21.292 210.513 21.2528C210.525 21.2127 210.531 21.1691 210.531 21.1165C210.534 20.7995 210.438 20.5501 210.256 20.3685C210.073 20.1868 209.855 20.047 209.605 19.9517C209.358 19.8609 209.092 19.7985 208.802 19.7558C208.514 19.7166 208.274 19.697 208.093 19.697C207.801 19.697 207.496 19.7166 207.169 19.7558C206.842 19.7985 206.53 19.8903 206.242 20.0354C205.954 20.1797 205.687 20.3818 205.437 20.6437C205.189 20.9081 205.009 21.2608 204.905 21.7079H197.035C197.219 20.6009 197.586 19.6267 198.138 18.7735C198.689 17.9213 199.471 17.1972 200.478 16.6095C201.49 16.019 202.726 15.5657 204.196 15.2523C205.665 14.9326 207.428 14.7812 209.47 14.7812C211.334 14.7812 212.864 14.905 214.052 15.1561C215.247 15.4019 216.187 15.7644 216.867 16.2381C217.55 16.7065 218.023 17.2729 218.284 17.9275C218.545 18.5829 218.681 19.3194 218.681 20.1343C218.681 20.6294 218.646 21.1424 218.581 21.6642C218.514 22.1905 218.427 22.74 218.324 23.3189L216.669 32.9599C216.597 33.4051 216.554 33.773 216.554 34.0588C216.554 34.3519 216.604 34.6057 216.711 34.8275C216.815 35.0501 217.015 35.3084 217.3 35.5976L217.271 36.6236H208.81ZM39.7625 14.4592C39.7604 14.4607 39.7599 14.4601 39.7558 14.4523C39.7502 14.4419 39.7377 14.4188 39.7048 14.371L39.7032 14.369C39.6397 14.2896 39.5404 14.165 39.3842 14.03C39.075 13.7592 38.5586 13.4333 37.7054 13.2739C37.2851 13.1982 36.9262 13.1946 36.627 13.2267C35.8914 13.3042 35.455 13.5971 35.3063 13.7111C35.2645 13.7432 35.2671 13.7476 35.2671 13.7476C34.9535 14.0602 34.4425 14.0629 34.1255 13.7476C33.8102 13.4315 33.8102 12.9221 34.1255 12.6051C34.2037 12.5258 34.9857 11.7786 36.4578 11.6237C36.9083 11.5783 37.4213 11.589 37.9886 11.6887V11.6878C40.3113 12.1019 41.1519 13.6069 41.2052 13.7352C41.4049 14.1288 41.2453 14.6168 40.8455 14.8154C40.7574 14.8617 40.662 14.8902 40.566 14.8991C40.2434 14.933 39.9158 14.7655 39.7625 14.4592ZM36.974 18.2215C38.1298 18.225 39.0685 17.4289 39.0747 16.4359C39.0817 15.4492 38.1467 14.6353 36.9909 14.629C35.8313 14.6263 34.8901 15.4243 34.8884 16.419C34.8828 17.4058 35.8161 18.2162 36.974 18.2215Z" fill="white"/>
<path fill-rule="evenodd" clip-rule="evenodd" d="M15.8987 20.3695H12.2421L13.1834 14.7431H17.5115C18.4813 14.7431 19.2721 14.9336 19.8723 15.3121C20.4779 15.6951 20.7762 16.2899 20.7762 17.1021C20.7762 17.3675 20.7655 17.5625 20.7379 17.6926C20.5821 18.6926 20.095 19.3864 19.2801 19.78C18.4679 20.1709 17.3414 20.3695 15.8987 20.3695ZM9.44582 36.4626L11.1396 26.5865H13.9716C15.6227 26.5865 16.7572 26.7895 17.3744 27.1938C17.9906 27.6062 18.3014 28.3052 18.3014 29.3027C18.3014 29.9073 18.2213 30.6367 18.0628 31.5059C17.906 32.3706 17.792 33.1526 17.7279 33.8428C17.6647 34.5443 17.6291 35.1109 17.6291 35.5604C17.6291 35.8989 17.6549 36.2009 17.7101 36.4626H27.1143L27.23 35.5988C26.7599 35.5988 26.5238 35.2826 26.5238 34.6559C26.5238 34.2863 26.5745 33.7749 26.6824 33.1188C26.7858 32.464 26.9299 31.6359 27.1143 30.6367C27.2985 29.5627 27.3903 28.6214 27.3903 27.8057C27.3903 27.0202 27.2985 26.3781 27.1143 25.8803C26.9299 25.3798 26.6752 24.9603 26.3483 24.6193C26.019 24.2782 25.6262 23.9968 25.1649 23.7741C24.7081 23.5506 24.1888 23.3342 23.6127 23.1214C25.3421 22.6788 26.7003 21.8185 27.6824 20.5477C28.6683 19.2733 29.3032 17.8235 29.5917 16.1973C29.7228 15.4635 29.7914 14.817 29.7914 14.2693C29.7914 13.2193 29.5874 12.3163 29.176 11.554C28.7716 10.7908 28.1162 10.1577 27.2114 9.64737C26.3056 9.1362 25.1381 8.75682 23.7088 8.50391C22.2804 8.25723 20.526 8.13344 18.4582 8.13344H5.07857L0.15918 36.4626H9.44582ZM33.2552 19.7277L28.6456 36.4629H36.7931L39.1853 19.7277H33.2552ZM42.8256 15.8433H50.3027L49.7506 19.0715C50.9046 17.8114 52.073 16.8656 53.2521 16.2164C54.4348 15.577 55.8125 15.2528 57.3861 15.2528C59.6916 15.2528 61.3856 15.7934 62.4614 16.8674C63.5381 17.9396 64.074 19.5043 64.074 21.5508C64.074 22.3639 63.9948 23.2135 63.8398 24.1058L61.7151 36.4631H53.5273L55.4181 25.5636C55.4963 25.0898 55.5383 24.6348 55.5383 24.1859C55.5383 23.4762 55.3698 22.8866 55.0432 22.4155C54.7163 21.9426 54.1053 21.7075 53.214 21.7075C51.9564 21.7075 51.032 22.0807 50.4594 22.8269C49.8805 23.5741 49.486 24.6187 49.2794 25.9563L47.468 36.4631H39.2848L42.8256 15.8433ZM75.0089 21.047C75.455 20.8084 75.9796 20.6917 76.5817 20.6917H76.6636C77.7108 20.6917 78.4438 21.0016 78.8624 21.6223C79.2817 22.2395 79.4956 22.9813 79.4956 23.8532C79.4956 24.3011 79.4529 24.7366 79.378 25.1596C79.2738 25.7126 79.1125 26.247 78.9041 26.7608C78.6958 27.2746 78.4252 27.7297 78.099 28.126C77.7705 28.5179 77.376 28.8385 76.9183 29.0673C76.456 29.3078 75.9413 29.4298 75.3626 29.4298H75.1682C74.2458 29.4048 73.5867 29.0967 73.1771 28.4982C72.7746 27.9052 72.5716 27.2016 72.5689 26.3814C72.5689 26.2274 72.5733 26.0679 72.5902 25.9085C72.6008 25.7545 72.6196 25.5799 72.6481 25.3929C72.7495 24.7366 72.9038 24.1203 73.1015 23.537C73.2956 22.9573 73.551 22.4568 73.8663 22.0382C74.1842 21.6161 74.5637 21.2857 75.0089 21.047ZM71.7032 37.2569V37.1403H63.4799V37.4119C63.4799 38.1508 63.659 38.8599 64.0088 39.5385C64.3642 40.2241 64.919 40.8262 65.6831 41.3534C66.4437 41.8761 67.442 42.2928 68.6737 42.61C69.9078 42.9243 71.4138 43.08 73.1976 43.08C75.7435 43.08 77.7893 42.7969 79.3387 42.2377C80.8847 41.6731 82.1058 40.8921 82.9964 39.8936C83.8877 38.8963 84.5378 37.7279 84.9475 36.3921C85.3509 35.0527 85.6848 33.6091 85.9503 32.0658L88.8222 15.458H81.6203L81.1894 18.1537C80.6105 17.1616 79.8285 16.3637 78.8436 15.7661C77.8641 15.1676 76.7428 14.8702 75.4809 14.8702C73.7738 14.8702 72.2884 15.1774 71.0157 15.7919C69.7432 16.4109 68.6539 17.2079 67.75 18.1946C66.8426 19.1787 66.1195 20.299 65.586 21.5582C65.0481 22.8192 64.6722 24.0767 64.4639 25.3368C64.4079 25.7037 64.3642 26.0564 64.3277 26.3975C64.2886 26.7386 64.2671 27.0823 64.2671 27.4198C64.2671 28.4983 64.4258 29.5055 64.7391 30.4504C65.0534 31.3961 65.5254 32.2084 66.1577 32.893C66.7866 33.5726 67.5666 34.1122 68.4955 34.5023C69.4262 34.8932 70.5116 35.0945 71.7423 35.0945C73.2393 35.0945 74.4925 34.8702 75.5024 34.4239C76.5122 33.9804 77.3555 33.4514 78.0404 32.8496L77.7241 34.5414C77.4624 36.0153 77.0269 37.0502 76.4258 37.653C75.8203 38.2551 74.9305 38.5542 73.7514 38.5542C72.9098 38.5542 72.3461 38.3869 72.0576 38.0468C71.8208 37.807 71.7032 37.547 71.7032 37.2569Z" fill="white"/>
</svg>
