<?xml version="1.0" encoding="utf-8"?>
<!-- Generator: Adobe Illustrator 26.0.1, SVG Export Plug-In . SVG Version: 6.00 Build 0)  -->
<svg version="1.1" id="Layer_1" xmlns="http://www.w3.org/2000/svg" xmlns:xlink="http://www.w3.org/1999/xlink" x="0px" y="0px"
	 viewBox="0 0 512 512" style="enable-background:new 0 0 512 512;" xml:space="preserve">
<style type="text/css">
	.st0{fill:#FFFFFF;}
</style>
<g transform="matrix(9.11243 0 0 9.1124 -5.65 128.526)">
	<path class="st0" d="M56.6,1.1L32.2,6v1.7h0.1c16.1-3.9,24.3-6.3,24.4-6.3c0.1,0,0.1-0.1,0.1-0.1C56.8,1.2,56.7,1.1,56.6,1.1"/>
	<path class="st0" d="M36.2,2.5c0.4-0.2,0.5-0.1,0.4,0.2c-0.2,0.4-1,3.1-7.2,8.1c-1.6,1.3-2.8,2.1-5.1,3.4
		C28.1,8.9,33.6,4.2,36.2,2.5 M36.8,0.7c-1.2,0.1-3.4,1.8-4.6,2.8c-4.8,4.2-8.4,8-11,12c-5.4,2.9-12.3,5.9-19.1,8.2l-0.2,0.1
		l-1.3,3.6L1.4,27c4.4-1.7,11.6-4.8,18.2-8.2c-0.4,1-0.6,1.9-0.6,2.7c0,0.6,0.1,1.2,0.3,1.7c0.4,1,1.2,1.8,2.4,2.3
		c1.7,0.7,4,0.7,6.6-0.1c6.7-2,14.7-8.3,16.4-9.5l0.1-0.1c0.1-0.1,0.1-0.1,0-0.2c0-0.1-0.1-0.1-0.2,0l-0.1,0.1
		c-1.8,1.1-10.9,6.5-16.8,8c-3,0.8-5.3,0.4-6.1-0.8c-0.3-0.4-0.4-0.9-0.4-1.5c0-1.2,0.5-2.7,1.6-4.4c1-0.6,1.9-1.1,2.7-1.6
		c5.7-3.2,12.3-9.5,12.6-13.3V2c0-0.3-0.2-0.7-0.4-0.9C37.5,0.8,37.2,0.7,36.8,0.7"/>
	<path class="st0" d="M32.2,6L6.5,11.5l-1,2.7l26.7-6.5h0V6L32.2,6"/>
</g>
</svg>
