<?xml version="1.0" encoding="UTF-8"?>
<svg width="108px" height="40px" viewBox="0 0 108 40" version="1.1" xmlns="http://www.w3.org/2000/svg" xmlns:xlink="http://www.w3.org/1999/xlink">
    <title>entranceLogo</title>
    <g id="entranceLogo" stroke="none" stroke-width="1" fill="none" fill-rule="evenodd">
        <g fill-rule="nonzero">
            <path d="M12.5639946,29.8295841 C12.5279892,28.6574469 12.1679952,27.7197551 11.5020003,26.9623576 C10.8179877,26.2410609 9.71998805,25.7181088 8.36998058,25.7181088 C6.91198685,25.7181088 5.72398865,26.2230404 4.98598297,27.0344993 C4.37401106,27.755796 3.97801165,28.8197506 3.9060009,29.8295841 L12.5639946,29.8295841 Z M15.4979997,37.1508539 C15.4979997,37.944412 14.9220033,38.4853247 13.7879982,38.9903163 C12.36598,39.6213312 10.6379907,39.9820394 8.82000299,39.9820394 C6.06599492,39.9820394 3.79798476,39.0624579 2.28599791,37.4214599 C0.827998207,35.9064853 0,33.7245746 0,31.1280739 C0,28.7295886 0.827998207,26.6197596 2.28599791,25.0869741 C3.65399313,23.6443507 5.72398865,22.7427297 8.35199283,22.7427297 C10.9260039,22.7427297 12.8879833,23.6804215 14.2019854,24.996812 C15.6959845,26.5656384 16.2,28.4951432 16.2,30.3165552 C16.2,31.4884828 15.5159875,32.3901037 14.3100015,32.3901037 L3.92398865,32.3901037 C4.03200478,33.5985512 4.46400956,34.6444554 5.16600986,35.4017931 C6.06599492,36.4656579 7.41600239,37.0427911 9.08999851,37.0427911 C10.4040006,37.0427911 11.519988,36.7000434 12.4019854,36.3213746 C13.1939842,35.9606663 13.6080012,35.6361786 14.1479922,35.6361786 C14.9220033,35.618218 15.4979997,36.3393352 15.4979997,37.1508539 Z" id="Shape" fill="#332A85"></path>
            <path d="M27.4139573,36.303414 L27.4139573,32.0476554 C23.4899686,32.2640803 20.8079713,33.0034574 20.8079713,34.9327227 C20.8079713,36.5377995 22.4099567,37.2589167 24.1199582,37.2589167 C25.1999701,37.2589167 26.3519629,36.9344289 27.4139573,36.303414 Z M20.4479773,30.7491057 C22.4819674,29.9197462 25.1639647,29.6492299 27.4139573,29.4689058 L27.4139573,29.0361457 C27.4139573,27.8640085 27.1979549,27.1427117 26.7299746,26.5656684 C26.1539782,25.8804125 25.2719809,25.6279467 24.2999552,25.6279467 C23.0579638,25.6279467 22.0499627,25.9525242 21.2039707,26.3132025 C20.3759665,26.6738509 19.925974,26.8902459 19.4219585,26.8902459 C18.665965,26.8902459 18.0719809,26.3132025 18.0719809,25.5377846 C18.0719809,24.6000928 18.9359606,24.0771407 19.9979549,23.6443507 C21.3479624,23.1033781 22.9679653,22.7427297 24.6779668,22.7427297 C26.3159576,22.7427297 28.3499776,23.0673073 29.7359606,24.6000928 C30.6180176,25.5918758 31.1220929,26.9263167 31.1220929,29.0361457 L31.1220929,38.1605376 C31.1220929,39.1884813 30.2579638,39.9820394 29.2679504,39.9820394 C28.511957,39.9820394 27.8459621,39.58541 27.5579788,38.9540958 C26.0639797,39.7476539 24.6239737,39.9820394 22.9499776,39.9820394 C20.0159725,39.9820394 17.2439767,38.2326793 17.2439767,35.0048643 C17.2439767,32.7870325 18.5939842,31.5067427 20.4479773,30.7491057 Z" id="Shape" fill="#332A85"></path>
            <path d="M44.0460816,26.5295975 C42.8759815,26.5295975 41.8319749,25.8082708 40.1219435,25.8082708 C38.5559337,25.8082708 37.5480819,26.2771317 37.5480819,27.3771272 C37.5480819,28.314819 38.2678906,28.8377711 39.2578144,29.2705611 C40.3738318,29.739422 41.7958201,30.1360514 42.9300642,30.695224 C45.0718614,31.7411282 45.8998357,33.021418 45.8998357,34.9147621 C45.8998357,37.944412 43.3979848,40 39.4379907,40 C37.0440066,40 33.26389,39.4590873 33.26389,37.2409561 C33.26389,36.4476973 33.9119869,35.7804619 34.7220332,35.7804619 C36.0720108,35.7804619 36.6480968,37.0787122 39.1861025,37.0787122 C40.8599791,37.0787122 41.9939244,36.501579 41.9939244,35.2392498 C41.9939244,34.1394639 41.2021049,33.6344723 40.1040155,33.1115202 C39.0958649,32.6427492 37.6018658,32.2820409 36.3600538,31.6869472 C34.5780117,30.8574679 33.6418718,29.5049766 33.6418718,27.4312185 C33.6418718,24.5099307 35.8918345,22.7427297 39.9238392,22.7427297 C42.8218987,22.7427297 45.5218539,23.3197731 45.5218539,25.0328828 C45.5039259,25.862392 44.8558291,26.5295975 44.0460816,26.5295975 Z" id="Path" fill="#332A85"></path>
            <path d="M49.3739812,23.0673073 L49.3739812,20.4886474 C49.3739812,19.478814 50.2019555,18.6673252 51.2280341,18.6673252 C52.2538138,18.6673252 53.1179429,19.4607636 53.1179429,20.4886474 L53.1179429,23.0673073 L57.2578144,23.0673073 C58.0140768,23.0673073 58.6798028,23.7164923 58.6798028,24.564022 C58.6798028,25.3574604 58.0320048,26.0246659 57.2578144,26.0246659 L53.1179429,26.0246659 L53.1179429,33.9589601 C53.1179429,35.8885247 53.7660397,36.8622873 55.4399163,36.8622873 C57.042081,36.8622873 57.5458575,35.6720997 58.6439468,35.6720997 C59.5800867,35.6720997 60.0659352,36.3572957 60.0659352,37.1688145 C60.0659352,38.0886953 59.1659501,38.8098125 58.0678608,39.314804 C57.0958649,39.7476539 55.9260636,40 54.7559635,40 C50.8318255,40 49.3739812,37.4394205 49.3739812,34.2837472 L49.3739812,26.0246659 L47.9878488,26.0246659 C47.1960293,26.0246659 46.5658605,25.3755108 46.5658605,24.564022 C46.5658605,23.7345127 47.1781013,23.0673073 47.9878488,23.0673073" id="Path" fill="#332A85"></path>
            <path d="M61.614017,16.3771721 C61.614017,15.3673387 62.4419913,14.5558798 63.4680699,14.5558798 C64.5120765,14.5558798 65.321824,15.3493182 65.321824,16.3771721 L65.321824,38.1787975 C65.321824,39.1884813 64.4759217,39.9820394 63.4680699,39.9820394 C62.4419913,39.9820394 61.614017,39.1884813 61.614017,38.1787975" id="Path" fill="#332A85"></path>
            <path d="M70.0918643,22.7427297 C71.1358709,22.7427297 71.9459172,23.5722389 71.9459172,24.564022 L71.9459172,38.1605376 C71.9459172,39.1884813 71.082087,39.9820394 70.0918643,39.9820394 C69.0299298,39.9820394 68.2378115,39.1884813 68.2378115,38.1605376 L68.2378115,24.564022 C68.2378115,23.5722389 69.0478578,22.7427297 70.0918643,22.7427297 Z" id="Path" fill="#332A85"></path>
            <path d="M68.075862,18.1984943 C68.075862,17.0804484 68.957919,16.1788275 70.1100911,16.1788275 C71.2258097,16.1788275 72.1260935,17.062428 72.1260935,18.1984943 C72.1260935,19.3525811 71.2440365,20.2361816 70.1100911,20.2361816 C68.957919,20.254202 68.075862,19.3525811 68.075862,18.1984943 Z" id="Path" fill="#332A85"></path>
            <polyline id="Path" fill="#332A85" points="93.8879833 35.762202 94.0140768 35.6541392 102.456068 29.2164698"></polyline>
            <path d="M97.1998805,38.1787975 L97.1998805,34.9509826 L93.7798177,37.5657432 C93.7618897,37.5657432 93.5279295,37.7818688 93.5100015,38.1246165 L93.5100015,38.2147187 C93.5279295,39.2247018 94.3200478,39.9820394 95.3640544,39.9820394 C96.3360502,39.9820394 97.1998805,39.2064419 97.1998805,38.1787975 Z" id="Path" fill="#332A85"></path>
            <path d="M102.384057,29.2705611 L106.919839,25.7000883 C107.261964,25.3574604 107.441842,24.8885995 107.460069,24.4377891 C107.477997,23.5000973 106.794044,22.5624055 105.767965,22.5443551 C105.300045,22.5263347 104.813898,22.7607502 104.472071,23.1033781 L100.49385,27.6836843 L93.7798177,35.4377142 L93.5458575,35.6900603 C93.4920735,35.7442414 93.4920735,35.8343436 93.5458575,35.8885247 C93.5999402,35.9427058 93.689879,35.9427058 93.7439618,35.8885247 L94.4279145,35.3296514" id="Path" fill="#332A85"></path>
            <path d="M74.8619047,24.564022 C74.8619047,23.5541886 75.689879,22.7427297 76.7159576,22.7427297 C77.7778921,22.7427297 78.5700105,23.5361681 78.5700105,24.564022 L78.5700105,25.2853187 C79.7759665,23.6082798 81.6479474,22.7427297 83.9519928,22.7427297 C85.8419017,22.7427297 87.5519331,23.2115606 88.7399612,24.3115561 C89.982072,25.4115516 90.6660248,27.1787526 90.6660248,29.7033511 L90.6660248,38.1787975 C90.6660248,39.2064419 89.8018957,39.9820394 88.8119719,39.9820394 C87.7679653,39.9820394 86.922063,39.2064419 86.922063,38.1787975 L86.922063,30.6051218 C86.922063,29.1082574 86.7060308,27.7738464 85.8780565,26.8902459 C85.3019704,26.3132025 84.4560681,25.9525242 83.2318853,25.9525242 C81.5580087,25.9525242 80.261815,26.7099217 79.4520675,28.1344948 C78.8398267,29.2525107 78.5879384,30.6410429 78.5879384,31.9934743 L78.5879384,38.1787975 C78.5879384,39.2064419 77.7238094,39.9820394 76.7338856,39.9820394 C75.7260338,39.9820394 74.8798327,39.2064419 74.8798327,38.1787975" id="Path" fill="#332A85"></path>
            <path d="M108,38.1787975 C108,37.8360499 107.891834,37.5295227 107.675802,37.2229955 L102.869906,31.2720578 C102.599791,30.9837906 102.329975,31.0559322 102.185953,31.1460345 L99.7558141,33.0034574 L104.669876,39.1884813 C105.02993,39.6755123 105.569861,39.9820394 106.163875,39.9820394 C107.081788,39.9820394 108,39.1884813 108,38.1787975 Z" id="Path" fill="#332A85"></path>
            <path d="M97.2181073,28.6754973 L97.2181073,16.3771721 C97.2181073,15.3673387 96.4259889,14.5558798 95.3640544,14.5558798 C94.301821,14.5558798 93.5100015,15.3493182 93.5100015,16.3771721 L93.5100015,33.2378429 C93.5279295,33.4000868 93.5999402,33.5623307 93.8879833,33.2378429 L96.6778772,30.010028 L96.8218987,29.8295841 C97.2360353,29.3066319 97.2181073,28.6935177 97.2181073,28.6754973 Z" id="Path" fill="#332A85"></path>
            <path d="M4.86299696,7.48746501 L6.33165784,7.48746501 L4.55837054,4.63200275 C5.42868478,4.49029381 6.27724639,3.79279482 6.27724639,2.49582566 C6.27724639,1.15527218 5.34167427,0.217975843 3.90564234,0.217975843 L0.718075729,0.217975843 L0.718075729,7.48746501 L1.99092113,7.48746501 L1.99092113,4.77368177 L3.25288425,4.77368177 L4.86299696,7.48746501 Z M4.97178998,2.49582566 C4.97178998,3.19336057 4.44957753,3.65108587 3.73156156,3.65108587 L1.99092113,3.65108587 L1.99092113,1.34055349 L3.73156156,1.34055349 C4.44957753,1.34055349 4.97178998,1.79830273 4.97178998,2.49582566 Z" id="Shape" fill="#282829"></path>
            <path d="M8.08241563,1.41684403 C8.47405256,1.41684403 8.78955529,1.10077979 8.78955529,0.708422014 C8.78955529,0.316064239 8.47405256,0 8.08241563,0 C7.70165502,0 7.37527597,0.316064239 7.37527597,0.708422014 C7.37527597,1.10077979 7.70165502,1.41684403 8.08241563,1.41684403 Z M7.51669793,7.48746501 L8.65900964,7.48746501 L8.65900964,2.22335773 L7.51669793,2.22335773 L7.51669793,7.48746501 Z" id="Shape" fill="#282829"></path>
            <path d="M13.6874222,7.48746501 L14.829704,7.48746501 L14.829704,3.78189873 C14.829704,2.70290512 14.2639863,2.0925718 13.1325808,2.0925718 C12.3057718,2.0925718 11.6312611,2.52852289 11.2831294,2.94267882 L11.2831294,2.22335773 L10.1408476,2.22335773 L10.1408476,7.48746501 L11.2831294,7.48746501 L11.2831294,3.81458698 C11.5442506,3.45492644 12.0446805,3.10616197 12.6321509,3.10616197 C13.2740028,3.10616197 13.6874222,3.37862392 13.6874222,4.19603969 L13.6874222,7.48746501 Z" id="Path" fill="#282829"></path>
            <path d="M16.2481367,8.83893853 C16.8900184,9.42747669 17.5536229,9.62363612 18.4457197,9.62363612 C19.7402998,9.62363612 21.1437028,9.11140048 21.1437028,7.21500307 L21.1437028,2.22335773 L20.001421,2.22335773 L20.001421,2.9535779 C19.5771252,2.39773697 18.9787786,2.0925718 18.3151741,2.0925718 C16.9661526,2.0925718 15.9870454,3.09526589 15.9870454,4.79547393 C15.9870454,6.52837023 16.9770289,7.49839103 18.3151741,7.49839103 C19.0005312,7.49839103 19.5988778,7.14962657 20.001421,6.62646491 L20.001421,7.25861733 C20.001421,8.33759897 19.1963646,8.6863335 18.4457197,8.6863335 C17.7494564,8.6863335 17.2054913,8.50107015 16.7812254,8.01062667 L16.2481367,8.83893853 Z M20.001421,5.77636089 C19.751206,6.16870968 19.1854883,6.48478589 18.6523995,6.48478589 C17.7494564,6.48478589 17.1728623,5.80904914 17.1728623,4.79547393 C17.1728623,3.78189873 17.7494564,3.10616197 18.6523995,3.10616197 C19.1854883,3.10616197 19.751206,3.42223819 20.001421,3.81458698 L20.001421,5.77636089 Z" id="Shape" fill="#282829"></path>
            <path d="M26.0836407,7.61827788 C27.606713,7.61827788 28.4987799,6.85534252 29.0536213,5.98344634 L27.965721,5.42759643 C27.6175893,6.03792675 26.921326,6.48478589 26.0836407,6.48478589 C24.7019903,6.48478589 23.6358726,5.38401209 23.6358726,3.85817131 C23.6358726,2.3323455 24.7019903,1.23156571 26.0836407,1.23156571 C26.921326,1.23156571 27.6175893,1.68931495 27.965721,2.2887492 L29.0536213,1.73291126 C28.5096562,0.861006092 27.606713,0.098089294 26.0836407,0.098089294 C23.9948507,0.098089294 22.3303863,1.62392049 22.3303863,3.85817131 C22.3303863,6.0924371 23.9948507,7.61827788 26.0836407,7.61827788 Z" id="Path" fill="#282829"></path>
            <path d="M29.7133414,4.84995435 C29.7133414,6.51747414 30.8881327,7.61827788 32.4657957,7.61827788 C33.3033316,7.61827788 34.0757292,7.35668208 34.5980312,6.85534252 L34.0757292,6.10333318 C33.705815,6.47388981 33.0965621,6.68097526 32.5853156,6.68097526 C31.5953918,6.68097526 30.9971946,6.02703067 30.9099451,5.231437 L34.9679454,5.231437 L34.9679454,4.95894512 C34.9679454,3.30235134 33.9562092,2.0925718 32.3785462,2.0925718 C30.8229943,2.0925718 29.7133414,3.32414351 29.7133414,4.84995435 Z M32.3785462,3.02985946 C33.4120948,3.02985946 33.8363905,3.8036909 33.8582029,4.42491731 L30.8991883,4.42491731 C30.9535698,3.78189873 31.399678,3.02985946 32.3785462,3.02985946 Z" id="Shape" fill="#282829"></path>
            <path d="M39.642071,7.48746501 L40.7843827,7.48746501 L40.7843827,3.78189873 C40.7843827,2.70290512 40.2184559,2.0925718 39.0871997,2.0925718 C38.2604206,2.0925718 37.5857306,2.52852289 37.2376289,2.94267882 L37.2376289,2.22335773 L36.0953171,2.22335773 L36.0953171,7.48746501 L37.2376289,7.48746501 L37.2376289,3.81458698 C37.4987799,3.45492644 37.9992696,3.10616197 38.58671,3.10616197 C39.2285321,3.10616197 39.642071,3.37862392 39.642071,4.19603969 L39.642071,7.48746501 Z" id="Path" fill="#282829"></path>
            <path d="M43.8455869,7.61827788 C44.3786458,7.61827788 44.715692,7.47656893 44.9224614,7.2804095 L44.6505536,6.4194094 C44.5636029,6.51747414 44.3568334,6.60467274 44.1393071,6.60467274 C43.8127189,6.60467274 43.6388174,6.34310688 43.6388174,5.98344634 L43.6388174,3.22604882 L44.7049352,3.22604882 L44.7049352,2.22335773 L43.6388174,2.22335773 L43.6388174,0.784715549 L42.4965057,0.784715549 L42.4965057,2.22335773 L41.6261018,2.22335773 L41.6261018,3.22604882 L42.4965057,3.22604882 L42.4965057,6.26680436 C42.4965057,7.13873049 42.9641274,7.61827788 43.8455869,7.61827788 Z" id="Path" fill="#282829"></path>
            <path d="M45.7420694,7.48746501 L46.8843811,7.48746501 L46.8843811,3.90178558 C47.1126641,3.53119902 47.7547849,3.20425666 48.2334623,3.20425666 C48.3747946,3.20425666 48.4943145,3.21515274 48.5923208,3.23694491 L48.5923208,2.10347088 C47.9068741,2.10347088 47.2761076,2.49582566 46.8843811,2.99717121 L46.8843811,2.22335773 L45.7420694,2.22335773 L45.7420694,7.48746501 Z" id="Path" fill="#282829"></path>
            <path d="M52.7229296,7.48746501 L53.8652413,7.48746501 L53.8652413,3.99985033 C53.8652413,2.58301528 52.8424495,2.0925718 51.6786242,2.0925718 C50.8407895,2.0925718 50.0794476,2.36503974 49.4701947,2.94267882 L49.9378164,3.73828447 C50.3946814,3.29142532 50.9062267,3.07347373 51.4936671,3.07347373 C52.2224399,3.07347373 52.7229296,3.44403035 52.7229296,4.05436068 L52.7229296,4.83905827 C52.3422586,4.39222906 51.7330058,4.16335144 51.0257466,4.16335144 C50.1663983,4.16335144 49.1979881,4.664691 49.1979881,5.87445557 C49.1979881,7.0406358 50.1663983,7.61827788 51.0257466,7.61827788 C51.7219502,7.61827788 52.331203,7.36757817 52.7229296,6.92074896 L52.7229296,7.48746501 Z M52.7229296,6.28859653 C52.4617785,6.64825708 51.9723444,6.83355036 51.4718547,6.83355036 C50.8300327,6.83355036 50.3513554,6.46299373 50.3513554,5.89624774 C50.3513554,5.31860566 50.8300327,4.94804903 51.4718547,4.94804903 C51.9723444,4.94804903 52.4617785,5.13334231 52.7229296,5.49300286 L52.7229296,6.28859653 Z" id="Shape" fill="#282829"></path>
            <polygon id="Path" fill="#282829" points="55.3460932 7.48746501 56.4884049 7.48746501 56.4884049 0.217975843 55.3460932 0.217975843"></polygon>
            <polygon id="Path" fill="#282829" points="65.3445328 7.48746501 66.5412261 7.48746501 68.1729719 2.22335773 66.9873342 2.22335773 65.8775917 6.04882283 64.6265168 2.22335773 63.6255374 2.22335773 62.3744626 6.04882283 61.2650188 2.22335773 60.0790824 2.22335773 61.7108282 7.48746501 62.9075215 7.48746501 64.1260271 3.6292937"></polygon>
            <path d="M69.5319135,1.41684403 C69.92364,1.41684403 70.2391727,1.10077979 70.2391727,0.708422014 C70.2391727,0.316064239 69.92364,0 69.5319135,0 C69.1512425,0 68.8246543,0.316064239 68.8246543,0.708422014 C68.8246543,1.10077979 69.1512425,1.41684403 69.5319135,1.41684403 Z M68.9662854,7.48746501 L70.1085971,7.48746501 L70.1085971,2.22335773 L68.9662854,2.22335773 L68.9662854,7.48746501 Z" id="Shape" fill="#282829"></path>
            <path d="M73.1677097,7.61827788 C73.7007686,7.61827788 74.0381136,7.47656893 74.2448831,7.2804095 L73.9729752,6.4194094 C73.8857257,6.51747414 73.679255,6.60467274 73.4614299,6.60467274 C73.1351405,6.60467274 72.961239,6.34310688 72.961239,5.98344634 L72.961239,3.22604882 L74.0273568,3.22604882 L74.0273568,2.22335773 L72.961239,2.22335773 L72.961239,0.784715549 L71.8189273,0.784715549 L71.8189273,2.22335773 L70.9485234,2.22335773 L70.9485234,3.22604882 L71.8189273,3.22604882 L71.8189273,6.26680436 C71.8189273,7.13873049 72.286549,7.61827788 73.1677097,7.61827788 Z" id="Path" fill="#282829"></path>
            <path d="M78.6220016,7.48746501 L79.7643133,7.48746501 L79.7643133,3.76007663 C79.7643133,2.68110697 79.1983865,2.0925718 78.0671304,2.0925718 C77.2403513,2.0925718 76.5549045,2.52852289 76.2068027,2.94267882 L76.2068027,0.217975843 L75.064491,0.217975843 L75.064491,7.48746501 L76.2068027,7.48746501 L76.2068027,3.81458698 C76.4787105,3.45492644 76.9792002,3.10616197 77.5555851,3.10616197 C78.1977059,3.10616197 78.6220016,3.35683175 78.6220016,4.17424753 L78.6220016,7.48746501 Z" id="Path" fill="#282829"></path>
        </g>
    </g>
</svg>