<?xml version="1.0" encoding="UTF-8"?>
<svg width="200px" height="50px" viewBox="0 0 200 50" version="1.1" xmlns="http://www.w3.org/2000/svg" xmlns:xlink="http://www.w3.org/1999/xlink">
    <title>RingCentral-Eastlink-TextLead-FullColor</title>
    <g id="Screen" stroke="none" stroke-width="1" fill="none" fill-rule="evenodd">
        <g id="RingCentral-Eastlink-TextLead-FullColor">
            <path d="M15.7173692,37.2869801 C15.672327,35.8218086 15.2219798,34.6496939 14.3888302,33.702947 C13.5331407,32.8013261 12.1595595,32.1476359 10.4707204,32.1476359 C8.64679206,32.1476359 7.16062409,32.7788005 6.23739004,33.7931241 C5.47182234,34.694745 4.97643302,36.0246883 4.88634864,37.2869801 L15.7173692,37.2869801 Z M19.3877656,46.4385673 C19.3877656,47.430515 18.6672027,48.1066559 17.2485793,48.7378953 C15.4696558,49.526664 13.3079671,49.9775493 11.0336917,49.9775493 C7.58846882,49.9775493 4.75122207,48.8280724 2.85974916,46.7768249 C1.03581336,44.8831066 0,42.1557182 0,38.9100923 C0,35.9119857 1.03581336,33.2746995 2.85974916,31.3587176 C4.57109069,29.5554383 7.16062409,28.4284121 10.448218,28.4284121 C13.6682673,28.4284121 16.1226741,29.6005268 17.766471,31.246015 C19.6354416,33.207048 20.2659574,35.618929 20.2659574,37.895694 C20.2659574,39.3606035 19.410268,40.4876297 17.9015976,40.4876297 L4.90885104,40.4876297 C5.04397761,41.998189 5.58440912,43.3055693 6.46260099,44.2522413 C7.58846882,45.5820724 9.27730795,46.3034888 11.371452,46.3034888 C13.015249,46.3034888 14.4113326,45.8750543 15.514698,45.4017182 C16.5054766,44.9508329 17.0234058,44.5452232 17.6989265,44.5452232 C18.6672027,44.5227725 19.3877656,45.4241689 19.3877656,46.4385673 Z" id="Shape" fill="#FFFFFF" fill-rule="nonzero"></path>
            <path d="M34.2944501,45.3792675 L34.2944501,40.0595692 C29.385599,40.3301004 26.0304606,41.2543218 26.0304606,43.6659033 C26.0304606,45.6722494 28.0345203,46.5736458 30.1737065,46.5736458 C31.5247853,46.5736458 32.9659111,46.1680362 34.2944501,45.3792675 Z M25.5801134,38.4363821 C28.1246046,37.3996827 31.4797431,37.0615374 34.2944501,36.8361322 L34.2944501,36.2951821 C34.2944501,34.8300106 34.0242343,33.9283897 33.438798,33.2070854 C32.7182351,32.3505156 31.6148697,32.0349333 30.3988801,32.0349333 C28.8451675,32.0349333 27.5841731,32.4406553 26.5258499,32.8915032 C25.4900291,33.3423136 24.9270951,33.6128074 24.2965792,33.6128074 C23.3508428,33.6128074 22.6077775,32.8915032 22.6077775,31.9222307 C22.6077775,30.750116 23.6886031,30.0964258 25.0171421,29.5554383 C26.7059813,28.8792226 28.7325808,28.4284121 30.871767,28.4284121 C32.9208689,28.4284121 35.4653975,28.8341341 37.1992414,30.750116 C38.3026816,31.9898448 38.9332723,33.6578959 38.9332723,36.2951821 L38.9332723,47.700672 C38.9332723,48.9856016 37.8522597,49.9775493 36.6137677,49.9775493 C35.6680313,49.9775493 34.8348816,49.4817625 34.4746189,48.6926197 C32.6056483,49.6845674 30.8042224,49.9775493 28.7100783,49.9775493 C25.0396819,49.9775493 21.5719567,47.7908491 21.5719567,43.7560804 C21.5719567,40.9837906 23.2607958,39.3834284 25.5801134,38.4363821 Z" id="Shape" fill="#FFFFFF" fill-rule="nonzero"></path>
            <path d="M55.1009886,33.1619969 C53.6372109,33.1619969 52.3311743,32.2603386 50.1919506,32.2603386 C48.2328957,32.2603386 46.9720882,32.8464146 46.9720882,34.221409 C46.9720882,35.3935237 47.8725582,36.0472139 49.1109381,36.5882014 C50.5070591,37.1742775 52.2859452,37.6700642 53.7048676,38.36903 C56.3842237,39.6764103 57.4200072,41.2767725 57.4200072,43.6434526 C57.4200072,47.430515 54.2902292,50 49.3363359,50 C46.3414976,50 41.6126284,49.3238591 41.6126284,46.5511951 C41.6126284,45.5596216 42.4233878,44.7255774 43.4367436,44.7255774 C45.1255454,44.7255774 45.8462204,46.3483903 49.0212275,46.3483903 C51.1152221,46.3483903 52.5337707,45.6269738 52.5337707,44.0490623 C52.5337707,42.6743298 51.5432163,42.0430904 50.169523,41.3894003 C48.9083417,40.8034365 47.0393712,40.3525512 45.4858829,39.6086839 C43.2565749,38.5718348 42.0854779,36.8812207 42.0854779,34.2890231 C42.0854779,30.6374134 44.9001475,28.4284121 49.9441251,28.4284121 C53.5695541,28.4284121 56.9471576,29.1497164 56.9471576,31.2911035 C56.92473,32.3279901 56.1139706,33.1619969 55.1009886,33.1619969 Z" id="Path" fill="#FFFFFF" fill-rule="nonzero"></path>
            <path d="M61.7661112,28.8341341 L61.7661112,25.6108093 C61.7661112,24.3485175 62.8018947,23.3341565 64.0855036,23.3341565 C65.3687388,23.3341565 66.4497513,24.3259545 66.4497513,25.6108093 L66.4497513,28.8341341 L71.6286686,28.8341341 C72.5747415,28.8341341 73.4075547,29.6456154 73.4075547,30.7050275 C73.4075547,31.6968255 72.5971691,32.5308323 71.6286686,32.5308323 L66.4497513,32.5308323 L66.4497513,42.4487001 C66.4497513,44.8606559 67.2605107,46.0778591 69.3545053,46.0778591 C71.3587892,46.0778591 71.9890061,44.5901247 73.3626994,44.5901247 C74.5337963,44.5901247 75.1415856,45.4466197 75.1415856,46.4610181 C75.1415856,47.6108691 74.0157177,48.5122656 72.6420244,49.143505 C71.4260722,49.6845674 69.9626683,50 68.4988906,50 C63.5898526,50 61.7661112,46.7992756 61.7661112,42.854684 L61.7661112,32.5308323 L60.0320804,32.5308323 C59.041526,32.5308323 58.2531942,31.7193884 58.2531942,30.7050275 C58.2531942,29.6681409 59.0190983,28.8341341 60.0320804,28.8341341" id="Path" fill="#FFFFFF" fill-rule="nonzero"></path>
            <path d="M77.0782128,20.4714651 C77.0782128,19.2091734 78.1139963,18.1948498 79.3976052,18.1948498 C80.7036418,18.1948498 81.7166238,19.1866478 81.7166238,20.4714651 L81.7166238,47.7234969 C81.7166238,48.9856016 80.6584127,49.9775493 79.3976052,49.9775493 C78.1139963,49.9775493 77.0782128,48.9856016 77.0782128,47.7234969" id="Path" fill="#FFFFFF" fill-rule="nonzero"></path>
            <path d="M87.6838729,28.4284121 C88.9899094,28.4284121 90.0032653,29.4652987 90.0032653,30.7050275 L90.0032653,47.700672 C90.0032653,48.9856016 88.9226265,49.9775493 87.6838729,49.9775493 C86.3554086,49.9775493 85.3644804,48.9856016 85.3644804,47.700672 L85.3644804,30.7050275 C85.3644804,29.4652987 86.3778363,28.4284121 87.6838729,28.4284121 Z" id="Path" fill="#FFFFFF" fill-rule="nonzero"></path>
            <path d="M85.161884,22.7481179 C85.161884,21.3505605 86.2653242,20.2235343 87.7066743,20.2235343 C89.1024215,20.2235343 90.2286631,21.328035 90.2286631,22.7481179 C90.2286631,24.1907264 89.1252229,25.295227 87.7066743,25.295227 C86.2653242,25.3177525 85.161884,24.1907264 85.161884,22.7481179 Z" id="Path" fill="#FFFFFF" fill-rule="nonzero"></path>
            <polyline id="Path" fill="#FFFFFF" fill-rule="nonzero" points="117.452461 44.7027525 117.610202 44.567674 128.171007 36.5205873"></polyline>
            <path d="M121.595595,47.7234969 L121.595595,43.6887282 L117.317148,46.957179 C117.29472,46.957179 117.002039,47.227336 116.979612,47.6557706 L116.979612,47.7683984 C117.002039,49.0308772 117.992968,49.9775493 119.299004,49.9775493 C120.514956,49.9775493 121.595595,49.0080523 121.595595,47.7234969 Z" id="Path" fill="#FFFFFF" fill-rule="nonzero"></path>
            <path d="M128.080923,36.5882014 L133.755117,32.1251104 C134.183112,31.6968255 134.408136,31.1107494 134.430937,30.5472363 C134.453365,29.3751216 133.59775,28.2030069 132.314141,28.1804439 C131.728779,28.1579184 131.120616,28.4509377 130.692996,28.8792226 L125.716301,34.6046054 L117.317148,44.2971428 L117.024467,44.6125754 C116.957184,44.6803017 116.957184,44.7929295 117.024467,44.8606559 C117.092124,44.9283822 117.204636,44.9283822 117.272293,44.8606559 L118.127907,44.1620643" id="Path" fill="#FFFFFF" fill-rule="nonzero"></path>
            <path d="M93.6511219,30.7050275 C93.6511219,29.4427357 94.6869054,28.4284121 95.9705143,28.4284121 C97.2989785,28.4284121 98.2899067,29.4202101 98.2899067,30.7050275 L98.2899067,31.6066484 C99.7985397,29.5103498 102.14036,28.4284121 105.022686,28.4284121 C107.386934,28.4284121 109.526157,29.0144508 111.012363,30.3894452 C112.566225,31.7644396 113.42184,33.9734408 113.42184,37.1291889 L113.42184,47.7234969 C113.42184,49.0080523 112.340827,49.9775493 111.102447,49.9775493 C109.796411,49.9775493 108.738199,49.0080523 108.738199,47.7234969 L108.738199,38.2564022 C108.738199,36.3853217 108.467946,34.717308 107.432163,33.6128074 C106.711488,32.8915032 105.653277,32.4406553 104.121842,32.4406553 C102.027848,32.4406553 100.406329,33.3874022 99.3933469,35.1681185 C98.6274428,36.5656384 98.3123343,38.3013036 98.3123343,39.9918429 L98.3123343,47.7234969 C98.3123343,49.0080523 97.2313218,49.9775493 95.9929419,49.9775493 C94.7321344,49.9775493 93.6735495,49.0080523 93.6735495,47.7234969" id="Path" fill="#FFFFFF" fill-rule="nonzero"></path>
            <path d="M135.106383,47.7234969 C135.106383,47.2950623 134.97107,46.9119034 134.700816,46.5287444 L128.688712,39.0900723 C128.350802,38.7297382 128.013266,38.8199153 127.833097,38.9325431 L124.79303,41.2543218 L130.940448,48.9856016 C131.39087,49.5943903 132.066316,49.9775493 132.809418,49.9775493 C133.957714,49.9775493 135.106383,48.9856016 135.106383,47.7234969 Z" id="Path" fill="#FFFFFF" fill-rule="nonzero"></path>
            <path d="M121.618397,35.8443716 L121.618397,20.4714651 C121.618397,19.2091734 120.627468,18.1948498 119.299004,18.1948498 C117.970166,18.1948498 116.979612,19.1866478 116.979612,20.4714651 L116.979612,41.5473037 C117.002039,41.7501085 117.092124,41.9529134 117.452461,41.5473037 L120.942577,37.512535 L121.122746,37.2869801 C121.640824,36.6332899 121.618397,35.8668972 121.618397,35.8443716 Z" id="Path" fill="#FFFFFF" fill-rule="nonzero"></path>
            <path d="M6.08353639,9.35933127 L7.92080916,9.35933127 L5.7024533,5.79000344 C6.79120338,5.61286726 7.85274125,4.74099352 7.85274125,3.11978208 C7.85274125,1.44409022 6.68235454,0.272469804 4.88590009,0.272469804 L0.898301986,0.272469804 L0.898301986,9.35933127 L2.49061253,9.35933127 L2.49061253,5.96710221 L4.06930949,5.96710221 L6.08353639,9.35933127 Z M6.21963482,3.11978208 C6.21963482,3.99170072 5.56635487,4.56385733 4.66812764,4.56385733 L2.49061253,4.56385733 L2.49061253,1.67569186 L4.66812764,1.67569186 C5.56635487,1.67569186 6.21963482,2.24787841 6.21963482,3.11978208 Z" id="Shape" fill="#FFFFFF" fill-rule="nonzero"></path>
            <path d="M10.1109809,1.77105503 C10.6009129,1.77105503 10.9956021,1.37597474 10.9956021,0.885527517 C10.9956021,0.395080299 10.6009129,0 10.1109809,0 C9.63465512,0 9.22635982,0.395080299 9.22635982,0.885527517 C9.22635982,1.37597474 9.63465512,1.77105503 10.1109809,1.77105503 Z M9.40327657,9.35933127 L10.8322914,9.35933127 L10.8322914,2.77919716 L9.40327657,2.77919716 L9.40327657,9.35933127 Z" id="Shape" fill="#FFFFFF" fill-rule="nonzero"></path>
            <path d="M17.1227602,9.35933127 L18.5517377,9.35933127 L18.5517377,4.72737342 C18.5517377,3.3786314 17.8440333,2.61571476 16.428662,2.61571476 C15.3943363,2.61571476 14.5505335,3.16065362 14.115026,3.67834852 L14.115026,2.77919716 L12.6860485,2.77919716 L12.6860485,9.35933127 L14.115026,9.35933127 L14.115026,4.76823373 C14.4416846,4.31865805 15.067715,3.88270247 15.8026316,3.88270247 C16.6055787,3.88270247 17.1227602,4.2232799 17.1227602,5.24504962 L17.1227602,9.35933127 Z" id="Path" fill="#FFFFFF" fill-rule="nonzero"></path>
            <path d="M20.3261757,11.0486732 C21.1291602,11.7843459 21.9593195,12.0295451 23.0753192,12.0295451 C24.6948195,12.0295451 26.4504556,11.3892506 26.4504556,9.01875384 L26.4504556,2.77919716 L25.0214782,2.77919716 L25.0214782,3.69197237 C24.4906905,2.99717121 23.7421678,2.61571476 22.9120085,2.61571476 C21.2244029,2.61571476 19.9995544,3.86908236 19.9995544,5.99434242 C19.9995544,8.16046278 21.238009,9.37298879 22.9120085,9.37298879 C23.76938,9.37298879 24.5179027,8.93703321 25.0214782,8.28308114 L25.0214782,9.07327167 C25.0214782,10.4219987 24.0143647,10.8579169 23.0753192,10.8579169 C22.2043041,10.8579169 21.523812,10.6263377 20.9930617,10.0132833 L20.3261757,11.0486732 Z M25.0214782,7.22045111 C24.708463,7.7108871 24.0007586,8.10598237 23.3338725,8.10598237 C22.2043041,8.10598237 21.4829937,7.26131142 21.4829937,5.99434242 C21.4829937,4.72737342 22.2043041,3.88270247 23.3338725,3.88270247 C24.0007586,3.88270247 24.708463,4.27779773 25.0214782,4.76823373 L25.0214782,7.22045111 Z" id="Shape" fill="#FFFFFF" fill-rule="nonzero"></path>
            <path d="M32.630244,9.52284735 C34.5355847,9.52284735 35.651547,8.56917815 36.3456452,7.47930792 L34.9846983,6.78449553 C34.5491908,7.54740844 33.6781758,8.10598237 32.630244,8.10598237 C30.9018201,8.10598237 29.5681227,6.73001512 29.5681227,4.82271414 C29.5681227,2.91543188 30.9018201,1.53945714 32.630244,1.53945714 C33.6781758,1.53945714 34.5491908,2.11164369 34.9846983,2.86093649 L36.3456452,2.16613907 C35.6651531,1.07625761 34.5355847,0.122611617 32.630244,0.122611617 C30.0171989,0.122611617 27.9349789,2.02990062 27.9349789,4.82271414 C27.9349789,7.61554638 30.0171989,9.52284735 32.630244,9.52284735 Z" id="Path" fill="#FFFFFF" fill-rule="nonzero"></path>
            <path d="M37.1709452,6.06244294 C37.1709452,8.14684268 38.6405915,9.52284735 40.6142244,9.52284735 C41.6619692,9.52284735 42.628227,9.1958526 43.2816191,8.56917815 L42.628227,7.62916648 C42.1654699,8.09236226 41.4033037,8.35121907 40.763742,8.35121907 C39.5253621,8.35121907 38.7770263,7.53378833 38.6678785,6.53929624 L43.7443762,6.53929624 L43.7443762,6.19868139 C43.7443762,4.12793917 42.4787093,2.61571476 40.5050765,2.61571476 C38.5591044,2.61571476 37.1709452,4.15517938 37.1709452,6.06244294 Z M40.5050765,3.78732432 C41.7980303,3.78732432 42.3288179,4.75461362 42.3561049,5.53114663 L38.6544219,5.53114663 C38.7224524,4.72737342 39.280527,3.78732432 40.5050765,3.78732432 Z" id="Shape" fill="#FFFFFF" fill-rule="nonzero"></path>
            <path d="M49.5916373,9.35933127 L51.0206522,9.35933127 L51.0206522,4.72737342 C51.0206522,3.3786314 50.3126861,2.61571476 48.8975017,2.61571476 C47.8632134,2.61571476 47.0191863,3.16065362 46.5837162,3.67834852 L46.5837162,2.77919716 L45.1547013,2.77919716 L45.1547013,9.35933127 L46.5837162,9.35933127 L46.5837162,4.76823373 C46.9104122,4.31865805 47.5365173,3.88270247 48.2713965,3.88270247 C49.0743063,3.88270247 49.5916373,4.2232799 49.5916373,5.24504962 L49.5916373,9.35933127 Z" id="Path" fill="#FFFFFF" fill-rule="nonzero"></path>
            <path d="M54.8501727,9.52284735 C55.5170214,9.52284735 55.9386612,9.34571116 56.1973267,9.10051188 L55.857174,8.02426175 C55.7484,8.14684268 55.4897344,8.25584093 55.2176123,8.25584093 C54.8090554,8.25584093 54.5915072,7.9288836 54.5915072,7.47930792 L54.5915072,4.03256103 L55.9252046,4.03256103 L55.9252046,2.77919716 L54.5915072,2.77919716 L54.5915072,0.980894437 L53.1624924,0.980894437 L53.1624924,2.77919716 L52.0736301,2.77919716 L52.0736301,4.03256103 L53.1624924,4.03256103 L53.1624924,7.83350546 C53.1624924,8.92341311 53.7474801,9.52284735 54.8501727,9.52284735 Z" id="Path" fill="#FFFFFF" fill-rule="nonzero"></path>
            <path d="M57.2226439,9.35933127 L58.6516587,9.35933127 L58.6516587,4.87723198 C58.9372374,4.41399877 59.740521,4.00532082 60.3393391,4.00532082 C60.5161437,4.00532082 60.6656614,4.01894092 60.7882658,4.04618113 L60.7882658,2.6293386 C59.9307822,2.6293386 59.1417028,3.11978208 58.6516587,3.74646401 L58.6516587,2.77919716 L57.2226439,2.77919716 L57.2226439,9.35933127 Z" id="Path" fill="#FFFFFF" fill-rule="nonzero"></path>
            <path d="M65.9555955,9.35933127 L67.3846103,9.35933127 L67.3846103,4.99981291 C67.3846103,3.2287691 66.1051131,2.61571476 64.6491851,2.61571476 C63.6010664,2.61571476 62.6486391,2.95629967 61.8864729,3.67834852 L62.4714607,4.67285558 C63.0429919,4.11428165 63.6829274,3.84184216 64.4178066,3.84184216 C65.3294904,3.84184216 65.9555955,4.30503794 65.9555955,5.06795085 L65.9555955,6.04882283 C65.4793818,5.49028632 64.7172156,5.2041893 63.832445,5.2041893 C62.7574132,5.2041893 61.5459465,5.83086375 61.5459465,7.34306946 C61.5459465,8.80079476 62.7574132,9.52284735 63.832445,9.52284735 C64.7033853,9.52284735 65.4655514,9.20947271 65.9555955,8.6509362 L65.9555955,9.35933127 Z M65.9555955,7.86074566 C65.6288995,8.31032134 65.0166247,8.54193795 64.3905196,8.54193795 C63.5876099,8.54193795 62.9887917,8.07874216 62.9887917,7.37030967 C62.9887917,6.64825708 63.5876099,6.18506129 64.3905196,6.18506129 C65.0166247,6.18506129 65.6288995,6.41667789 65.9555955,6.86625357 L65.9555955,7.86074566 Z" id="Shape" fill="#FFFFFF" fill-rule="nonzero"></path>
            <polygon id="Path" fill="#FFFFFF" fill-rule="nonzero" points="69.2371339 9.35933127 70.6661488 9.35933127 70.6661488 0.272469804 69.2371339 0.272469804"></polygon>
            <polygon id="Path" fill="#FFFFFF" fill-rule="nonzero" points="81.7450322 9.35933127 83.2420775 9.35933127 85.2833671 2.77919716 83.8001521 2.77919716 82.4118808 7.56102854 80.8468049 2.77919716 79.5945947 2.77919716 78.0295188 7.56102854 76.6416213 2.77919716 75.1580325 2.77919716 77.1993221 9.35933127 78.6963675 9.35933127 80.2206998 4.53661713"></polygon>
            <path d="M86.9833827,1.77105503 C87.4734268,1.77105503 87.8681533,1.37597474 87.8681533,0.885527517 C87.8681533,0.395080299 87.4734268,0 86.9833827,0 C86.507169,0 86.0986121,0.395080299 86.0986121,0.885527517 C86.0986121,1.37597474 86.507169,1.77105503 86.9833827,1.77105503 Z M86.2757905,9.35933127 L87.7048053,9.35933127 L87.7048053,2.77919716 L86.2757905,2.77919716 L86.2757905,9.35933127 Z" id="Shape" fill="#FFFFFF" fill-rule="nonzero"></path>
            <path d="M91.5317093,9.52284735 C92.198558,9.52284735 92.6205716,9.34571116 92.8792371,9.10051188 L92.5390844,8.02426175 C92.4299366,8.14684268 92.1716448,8.25584093 91.8991489,8.25584093 C91.4909658,8.25584093 91.2734176,7.9288836 91.2734176,7.47930792 L91.2734176,4.03256103 L92.607115,4.03256103 L92.607115,2.77919716 L91.2734176,2.77919716 L91.2734176,0.980894437 L89.8444028,0.980894437 L89.8444028,2.77919716 L88.7555405,2.77919716 L88.7555405,4.03256103 L89.8444028,4.03256103 L89.8444028,7.83350546 C89.8444028,8.92341311 90.4293905,9.52284735 91.5317093,9.52284735 Z" id="Path" fill="#FFFFFF" fill-rule="nonzero"></path>
            <path d="M98.3549469,9.35933127 L99.7839617,9.35933127 L99.7839617,4.70009579 C99.7839617,3.35138371 99.0759957,2.61571476 97.6608112,2.61571476 C96.6265229,2.61571476 95.7690393,3.16065362 95.3335691,3.67834852 L95.3335691,0.272469804 L93.9045543,0.272469804 L93.9045543,9.35933127 L95.3335691,9.35933127 L95.3335691,4.76823373 C95.6737218,4.31865805 96.2998269,3.88270247 97.0208757,3.88270247 C97.8241592,3.88270247 98.3549469,4.19603969 98.3549469,5.21780941 L98.3549469,9.35933127 Z" id="Path" fill="#FFFFFF" fill-rule="nonzero"></path>
            <rect id="Rectangle" x="0" y="0" width="200" height="50"></rect>
        </g>
    </g>
</svg>