<?xml version="1.0" encoding="UTF-8"?>
<svg width="213px" height="39px" viewBox="0 0 213 39" version="1.1" xmlns="http://www.w3.org/2000/svg" xmlns:xlink="http://www.w3.org/1999/xlink">
    <title>Logo Copy 2</title>
    <defs>
        <filter id="filter-1">
            <feColorMatrix in="SourceGraphic" type="matrix" values="0 0 0 0 1.000000 0 0 0 0 1.000000 0 0 0 0 1.000000 0 0 0 1.000000 0"></feColorMatrix>
        </filter>
    </defs>
    <g id="Telus" stroke="none" stroke-width="1" fill="none" fill-rule="evenodd">
        <g id="Logo-Copy-2" transform="translate(-3.000000, -6.000000)" filter="url(#filter-1)">
            <g id="TELUS_Logo_mobile_English" transform="translate(3.255319, 6.510638)" fill-rule="nonzero">
                <polygon id="Path" fill="#49166D" points="118.276596 10.3060019 118.276596 6.5106383 103.085106 6.5106383 103.085106 26.0425532 118.276596 26.0425532 118.276596 22.0665628 109.225453 22.0665628 109.225453 17.749144 116.752011 17.749144 116.752011 13.947172 109.225453 13.947172 109.225453 10.3060019"></polygon>
                <polygon id="Path" fill="#49166D" points="144.319149 22.1877149 134.495919 22.1877149 134.495919 6.5106383 128.042553 6.5106383 128.042553 26.0425532 144.319149 26.0425532"></polygon>
                <path d="M191.040244,13.9011399 C187.183519,13.0171951 185.828207,12.9169058 185.828207,11.3262716 C185.828207,9.8662467 187.752022,9.41844353 188.839,9.41844353 C190.6241,9.41844353 192.74348,9.84292362 194.8856,10.9694285 L196.425106,7.16776613 C194.226136,5.93630741 191.40636,5.42553191 188.713929,5.42553191 C183.372273,5.42553191 179.797525,7.63422777 179.640619,11.9559948 C179.501904,15.899928 182.617301,17.3716144 185.503023,17.9826792 C188.252305,18.5704208 191.08345,19.0765317 191.140301,20.7721198 C191.183507,22.3137755 189.814551,22.9644895 187.235821,22.9644895 C184.845834,22.9644895 182.637767,22.1994924 180.377399,21.2315845 L179.042553,25.3574377 C181.648572,26.4979364 184.304619,27.1276596 187.024338,27.1276596 C190.806021,27.1276596 193.578042,26.5259241 195.608736,24.5527913 C197.01635,23.2187111 197.489362,21.5907599 197.489362,20.0351104 C197.496166,16.7745435 195.513227,14.9320201 191.040244,13.9011399 L191.040244,13.9011399 Z" id="Path" fill="#49166D"></path>
                <polygon id="Path" fill="#49166D" points="95.4893617 10.3544628 95.4893617 6.5106383 77.0425532 6.5106383 77.0425532 10.3544628 83.2710049 10.3544628 83.2710049 26.0425532 89.2585245 26.0425532 89.2585245 10.3544628"></polygon>
                <path d="M164.426186,5.42553191 L164.426186,18.9767274 C164.426186,20.0380091 164.426186,20.3267932 164.378338,20.731091 C164.1915,22.0282131 163.002118,22.7862714 161.12007,22.8079302 C159.723344,22.7838649 158.700293,22.3530952 158.210414,21.5661585 C157.973449,21.1642672 157.848131,20.4615592 157.848131,19.330488 L157.848131,5.42553191 L151.914894,5.42553191 L151.914894,20.1174247 C151.914894,22.1701986 152.167808,23.0702425 153.024527,24.2518509 C154.480495,26.143387 157.278504,27.1276596 161.136019,27.1276596 C161.170197,27.1276596 161.208932,27.1276596 161.238552,27.1276596 C161.25678,27.1276596 161.302351,27.1276596 161.336528,27.1276596 C166.508743,27.1276596 169.165485,25.0050962 169.944735,23.0197053 C170.332082,22.0450588 170.361702,21.5950369 170.361702,19.6529636 L170.361702,5.42553191 L164.426186,5.42553191 L164.426186,5.42553191 Z" id="Path" fill="#49166D"></path>
                <path d="M80.0425153,0.00811392807 L45.5744681,8.03982669 L45.5744681,10.8510638 L45.7014915,10.8180228 C68.4622112,4.33648296 80.0472199,0.440400148 80.1413113,0.418372825 C80.2659825,0.371564763 80.320085,0.247661069 80.2895053,0.165058607 C80.270687,0.0604288209 80.1742433,-0.0276804723 80.0425153,0.00811392807 L80.0425153,0.00811392807 Z" id="Path" fill="#49166D"></path>
                <path d="M49.7175058,2.60478317 C50.2391566,2.24874136 50.3975148,2.47660812 50.2391566,2.85638605 C49.992304,3.48301963 48.8279051,7.24519471 40.2392985,14.4348656 C38.0106389,16.3052719 36.4060972,17.356782 33.1807121,19.3055175 C38.4647545,11.7598048 46.1754043,4.94041742 49.7175058,2.60478317 L49.7175058,2.60478317 Z M50.6117642,0.00330437448 C48.9420161,0.10299608 45.8889621,2.60478317 44.1959261,4.0882907 C37.4773442,10.0104527 32.4983744,15.4460243 28.8631209,21.1331988 C21.2968566,25.2704045 11.6533046,29.5049284 2.07263011,32.8256117 L1.84440792,32.9229298 L0,37.9787234 L1.04563025,37.5633413 C7.14242308,35.2063445 17.305297,30.7415803 26.5250078,25.8187089 C26.0033571,27.2120192 25.7495181,28.5293739 25.7495181,29.6995646 C25.7495181,30.59679 25.889246,31.4251806 26.1826745,32.1515058 C26.7672028,33.6350134 27.9059849,34.7767208 29.4825811,35.4199696 C31.8463109,36.35992 35.0647096,36.3836561 38.7395527,35.2609376 C48.1129641,32.3627573 59.2446179,23.4522177 61.6735541,21.6957448 L61.766706,21.6387781 C61.8621868,21.5509545 61.871502,21.4536364 61.8202684,21.3634391 C61.7713636,21.296978 61.6642389,21.2803627 61.5687582,21.3278349 L61.5664294,21.3278349 L61.5687582,21.3278349 L61.4523183,21.4180322 C58.8440647,22.991737 46.2173226,30.6418886 37.9966661,32.8944464 C33.8281179,34.0314066 30.6260209,33.4000258 29.4313475,31.6862779 C29.0144927,31.1023693 28.8142161,30.376044 28.8142161,29.4930604 C28.8142161,27.8030486 29.5850482,25.6667978 31.0941092,23.2955593 C32.4657712,22.4861576 33.7629116,21.6981184 34.9203241,20.9433098 C42.940704,16.3646122 52.1674012,7.43745728 52.5632968,1.99476488 C52.5656256,1.96153431 52.5656256,1.91168845 52.5656256,1.8808315 C52.5656256,1.40610909 52.3676778,0.931386682 52.0113717,0.563476816 C51.6387641,0.157589157 51.1450589,-0.027552582 50.6117642,0.00330437448 L50.6117642,0.00330437448 Z" id="Shape" fill="#66CC00"></path>
                <polygon id="Path" fill="#49166D" points="44.3146057 7.62721937 7.90868607 15.6435803 6.5106383 19.5319149 44.427961 10.0774028 44.4893617 10.0652971 44.4893617 7.59574468"></polygon>
                <path d="M205.837116,11.3868472 C205.837116,9.5860735 207.180945,8.22533849 208.900778,8.22533849 C210.582788,8.22533849 211.922167,9.5860735 211.922167,11.3868472 C211.922167,13.2124436 210.580563,14.5618956 208.900778,14.5618956 C207.180945,14.5618956 205.837116,13.2124436 205.837116,11.3868472 L205.837116,11.3868472 Z M208.900778,15.1914894 C210.929869,15.1914894 212.680851,13.5825274 212.680851,11.3868472 C212.680851,9.20245003 210.936544,7.59574468 208.900778,7.59574468 C206.831638,7.59574468 205.085106,9.20245003 205.085106,11.3868472 C205.085106,13.5825274 206.831638,15.1914894 208.900778,15.1914894 L208.900778,15.1914894 Z M208.106495,11.6869761 L208.840706,11.6869761 L209.988745,13.5825274 L210.72518,13.5825274 L209.503721,11.6576402 C210.133362,11.5741457 210.611711,11.2311412 210.611711,10.4390716 C210.611711,9.5860735 210.113338,9.20245003 209.105467,9.20245003 L207.445705,9.20245003 L207.445705,13.584784 L208.106495,13.584784 L208.106495,11.6869761 L208.106495,11.6869761 Z M208.106495,11.1183108 L208.106495,9.75531915 L208.987548,9.75531915 C209.439199,9.75531915 209.939797,9.86137975 209.939797,10.4119923 C209.939797,11.0867182 209.4303,11.1205674 208.887428,11.1205674 L208.106495,11.1183108 L208.106495,11.1183108 Z" id="Shape" fill="#49166D"></path>
            </g>
        </g>
    </g>
</svg>