<?xml version="1.0" encoding="UTF-8"?>
<svg width="164px" height="38px" viewBox="0 0 183 43" version="1.1" xmlns="http://www.w3.org/2000/svg" xmlns:xlink="http://www.w3.org/1999/xlink">
    <!-- Generator: Sketch 50.2 (55047) - http://www.bohemiancoding.com/sketch -->
    <title>Powered by RC</title>
    <desc>Created with Sketch.</desc>
    <defs></defs>
    <g id="Page-1" stroke="none" stroke-width="1" fill="none" fill-rule="evenodd">
        <g id="Phone-System-Copy" transform="translate(-1129.000000, -730.000000)">
            <g id="Group">
                <g id="Footer" transform="translate(113.000000, 730.000000)">
                    <g id="Powered-by-RC" transform="translate(1016.000000, 0.000000)">
                        <g id="RC-Logo" stroke-width="1" transform="translate(0.000000, 14.613512)">
                            <path d="M9.22172359,9.83245995 L12.0133393,9.83245995 C13.1134521,9.83245995 13.9741228,9.67918022 14.5933948,9.37510504 C15.2163355,9.06978771 15.5871161,8.53194231 15.7059811,7.75734555 C15.7277486,7.65623558 15.7360642,7.50568855 15.7360642,7.29949378 C15.7360642,6.67022707 15.507139,6.20889732 15.0456199,5.91202653 C14.5870358,5.61813687 13.9839059,5.47007411 13.242834,5.47007411 L9.94053895,5.47007411 L9.22172359,9.83245995 Z M8.37988539,14.6519523 L7.08753413,22.3089828 L-9.78312842e-05,22.3089828 L3.75393312,0.346009738 L13.9658071,0.346009738 C15.5448041,0.346009738 16.8833806,0.442399585 17.9737103,0.633937141 C19.0655074,0.829697963 19.9555275,1.12358762 20.6469501,1.52007782 C21.3373944,1.91582273 21.8378014,2.40696378 22.1467037,2.99871794 C22.4597638,3.58873311 22.6155601,4.28929849 22.6155601,5.10264993 C22.6155601,5.52820613 22.5641987,6.028539 22.4639216,6.59818312 C22.2433121,7.85845552 21.759781,8.98234125 21.0069692,9.97108247 C20.2568479,10.9556004 19.22057,11.6221312 17.8998477,11.9662032 C18.3398439,12.1309106 18.7363051,12.299096 19.0850737,12.4722499 C19.4370217,12.6446586 19.7368746,12.8630263 19.988301,13.1266078 C20.2372816,13.3916799 20.4319659,13.7168714 20.5725983,14.1049151 C20.7132308,14.4907229 20.7834248,14.988323 20.7834248,15.5977155 C20.7834248,16.2299634 20.7132308,16.9595948 20.5725983,17.7920751 C20.4319659,18.5674172 20.3221503,19.2093537 20.2429069,19.7166425 C20.1614624,20.224925 20.1223299,20.6219121 20.1223299,20.9076036 C20.1223299,21.3940246 20.302584,21.638974 20.6608911,21.638974 L20.5725983,22.3089828 L13.3952062,22.3089828 C13.3536279,22.1055208 13.3333279,21.8722474 13.3333279,21.6086659 C13.3333279,21.2608675 13.3597423,20.8213993 13.4091471,20.2778401 C13.4578182,19.7434727 13.5441543,19.1365644 13.6644868,18.4655619 C13.785553,17.7920751 13.8462084,17.2266543 13.8462084,16.7581201 C13.8462084,15.9850139 13.608723,15.4429453 13.1391328,15.1227223 C12.6680752,14.8094553 11.8025129,14.6519523 10.5424459,14.6519523 L8.37988539,14.6519523 Z" id="Fill-1" fill="#0E84BC"></path>
                            <path d="M32.5644881,6.32352174 L38.2722098,6.32352174 L37.8500678,8.82617977 C38.730794,7.8496115 39.6222815,7.11575684 40.5225739,6.61343656 C41.4250675,6.11658168 42.4765093,5.86566997 43.6776328,5.86566997 C45.4371285,5.86566997 46.7299689,6.28476706 47.551018,7.11724741 C48.3728008,7.9492309 48.7819801,9.16205366 48.7819801,10.7480144 C48.7819801,11.3785233 48.7220584,12.0378497 48.6039272,12.7289748 L46.9811507,22.3093306 L40.7321775,22.3093306 L42.1751889,13.8593197 C42.2351106,13.4923924 42.2664166,13.1391285 42.2664166,12.7913301 C42.2664166,12.2405665 42.1382576,11.7839569 41.8890324,11.4187685 C41.639318,11.0518412 41.173152,10.8694955 40.4920017,10.8694955 C39.5339888,10.8694955 38.8283807,11.1594103 38.3905857,11.7379978 C37.9488774,12.3163369 37.6475571,13.1269556 37.4902933,14.1631465 L36.1076927,22.3093306 L29.8611652,22.3093306 L32.5644881,6.32352174 Z" id="Fill-4" fill="#0E84BC"></path>
                            <path d="M58.3285525,10.0824525 C57.8692346,10.0824525 57.4691046,10.1728801 57.1281626,10.3579585 C56.7879543,10.5432854 56.4978846,10.7984204 56.2557521,11.1263446 C56.0150872,11.4507908 55.8201583,11.8380892 55.671944,12.2882397 C55.5210392,12.7398808 55.4038862,13.2183521 55.3261104,13.7271315 C55.3045875,13.8714678 55.2899128,14.0071092 55.2815971,14.1266028 C55.2691236,14.2503196 55.265455,14.3737881 55.265455,14.4932817 C55.2669224,15.1287591 55.421985,15.6743057 55.7303981,16.1343933 C56.0419908,16.5982074 56.5450882,16.8369461 57.2492288,16.8568203 L57.3974432,16.8568203 C57.8393961,16.8568203 58.2324332,16.7621695 58.5860933,16.5763458 C58.9346173,16.3982233 59.2359376,16.149299 59.4863857,15.8454722 C59.7353663,15.5379191 59.9420349,15.1858974 60.1014999,14.7874198 C60.2607203,14.3886937 60.383254,13.9745652 60.4627419,13.5462763 C60.5194841,13.2183521 60.5529913,12.8804907 60.5529913,12.5326923 C60.5529913,11.8572181 60.3896131,11.2818602 60.0687264,10.8033889 C59.750041,10.3226818 59.1899569,10.0824525 58.3911645,10.0824525 L58.3285525,10.0824525 Z M54.6050938,22.8339845 L54.6050938,22.9251574 C54.6050938,23.1499842 54.6950986,23.3504652 54.8758419,23.5365373 C55.0957177,23.8008641 55.5264199,23.9300464 56.1679486,23.9300464 C57.0684855,23.9300464 57.7469455,23.6992573 58.2094429,23.23122 C58.6687608,22.7641764 59.0006534,21.9610105 59.2002292,20.8189896 L59.4411388,19.5072927 C58.9187197,19.9743363 58.2757236,20.38449 57.5045685,20.728562 C56.733658,21.0741246 55.7776017,21.2485206 54.6351769,21.2485206 C53.6950183,21.2485206 52.8668765,21.0925082 52.1566213,20.7894267 C51.4483228,20.4868421 50.8527749,20.0689871 50.3724233,19.5410788 C49.8896259,19.0104378 49.5298514,18.3806743 49.2896756,17.6478133 C49.0497443,16.9147039 48.9294118,16.1343933 48.9294118,15.298435 C48.9294118,15.0360956 48.9453094,14.7705267 48.9753925,14.5061999 C49.0032745,14.2411278 49.0372708,13.9676092 49.0798274,13.6826629 C49.2390479,12.7060947 49.5256935,11.7312654 49.9363403,10.7539519 C50.3440522,9.77788045 50.8950869,8.90912969 51.5874878,8.14596059 C52.2776875,7.38179779 53.1092535,6.76346189 54.0797398,6.28424536 C55.0512045,5.80726468 56.1853136,5.56976804 57.4879372,5.56976804 C58.4508416,5.56976804 59.3068653,5.80006028 60.0547855,6.26362588 C60.8063743,6.72669463 61.4033897,7.34577581 61.8458317,8.11490716 L62.1743003,6.02488711 L67.6704618,6.02488711 L65.4787965,18.9008813 C65.2762857,20.0960657 65.020946,21.2162251 64.7127775,22.253658 C64.4009403,23.2898489 63.9046911,24.1961122 63.2242745,24.9684731 C62.5443471,25.7423246 61.6127487,26.3482391 60.4326588,26.7854714 C59.2506123,27.2194741 57.6889805,27.4393324 55.745562,27.4393324 C54.3847288,27.4393324 53.2344775,27.3185967 52.2923622,27.0738957 C51.3522036,26.8294431 50.5903425,26.5054937 50.0099584,26.0993148 C49.4268839,25.691397 49.0032745,25.2248502 48.7325264,24.6929671 C48.4652024,24.1667978 48.3289723,23.6177731 48.3289723,23.044651 L48.3289723,22.8339845 L54.6050938,22.8339845 Z" id="Fill-6" fill="#0E84BC"></path>
                            <path d="M82.3130902,9.01498462 C82.3130902,8.93946268 82.3206722,8.87288412 82.3289878,8.81152255 C82.3395047,8.75637166 82.34513,8.68855096 82.34513,8.61129003 C82.34513,7.64888213 82.0736482,6.9080715 81.5336195,6.39084557 C80.9945691,5.8713838 80.2331971,5.61252241 79.2487698,5.61252241 C78.0540053,5.61252241 77.0407177,6.11509112 76.2093964,7.12594237 C75.3770968,8.13654519 74.7871741,9.65244943 74.4467212,11.6674444 C74.3723695,12.0539975 74.3161165,12.4258934 74.2784514,12.7791572 C74.238096,13.1349053 74.2219539,13.4767414 74.2219539,13.8034235 C74.2219539,14.305247 74.2735599,14.767322 74.3765273,15.1879096 C74.4809622,15.6099879 74.6617055,15.9816353 74.9172897,16.2996224 C75.1718956,16.6163674 75.5086798,16.8672791 75.9254411,17.0476375 C76.3414686,17.2327159 76.8717142,17.3216529 77.5147103,17.3216529 C78.5937894,17.3216529 79.4595962,16.9867727 80.1157996,16.3145281 C80.7676005,15.6422834 81.2464846,14.806822 81.5482942,13.8034235 L87.9936637,13.8034235 C87.6145675,15.1503971 87.0711147,16.3527859 86.3620825,17.4113352 C85.6523165,18.4681456 84.8082771,19.368695 83.8341221,20.1077667 C82.8599671,20.8463414 81.7703712,21.4152403 80.5687584,21.8089978 C79.3656782,22.2027553 78.0928932,22.3990129 76.7479576,22.3990129 C75.2711944,22.3990129 73.9646576,22.2069785 72.8283472,21.8224129 C71.6927706,21.4378472 70.7318228,20.8811213 69.9447701,20.1499993 C69.1613861,19.4193742 68.5621695,18.5287619 68.1566588,17.4821371 C67.7489469,16.4325311 67.5469253,15.2480291 67.5469253,13.9172033 C67.5469253,13.5356187 67.5652687,13.1349053 67.6034229,12.7220189 C67.641088,12.3093809 67.6980747,11.8818373 67.7738939,11.4383943 C68.0590721,9.76771976 68.5768442,8.25877149 69.336015,6.9080715 C70.0937183,5.56184321 71.0121094,4.41882856 72.0914331,3.47753699 C73.1707567,2.53400957 74.3765273,1.80959516 75.7111906,1.29783463 C77.0478105,0.790297371 78.4247858,0.535162391 79.8443178,0.535162391 C82.8169213,0.535162391 85.0379361,1.19821523 86.5054053,2.52531461 C87.9694505,3.85191714 88.7041634,5.7292833 88.7041634,8.14921499 L88.7041634,8.58247245 C88.7041634,8.71885911 88.6924237,8.86170489 88.6762815,9.01498462 L82.3130902,9.01498462 Z" id="Fill-9" fill="#F5881F"></path>
                            <path d="M101.426755,12.1492197 C101.446321,12.0466192 101.456838,11.8968175 101.456838,11.6918648 C101.456838,11.0397428 101.235495,10.4897244 100.797945,10.0450393 C100.355992,9.59836678 99.8054461,9.37503051 99.1445958,9.37503051 C98.2051709,9.37503051 97.4447772,9.62171896 96.8636594,10.1208097 C96.2820524,10.6203973 95.9124948,11.2948778 95.7518069,12.1492197 L101.426755,12.1492197 Z M95.2103107,15.3847387 C95.1914782,15.4836128 95.1755806,15.5862134 95.1665312,15.6873233 C95.1540577,15.7884333 95.1525903,15.8902885 95.1525903,15.9941312 C95.1525903,16.7694733 95.4008371,17.3815985 95.9005104,17.838705 C96.4036078,18.2975504 97.0228798,18.5236194 97.7619952,18.5236194 C98.2636251,18.5236194 98.7464225,18.4068585 99.2042729,18.175821 C99.6650582,17.9405602 100.044399,17.5935071 100.344007,17.1227371 L106.322722,17.1227371 C105.881503,18.119428 105.306744,18.951163 104.596978,19.6248982 C103.883788,20.2931681 103.09967,20.8384663 102.237287,21.2580602 C101.376127,21.6714435 100.47021,21.9683143 99.5202679,22.1417166 C98.5664129,22.3118894 97.6345699,22.3995843 96.7127547,22.3995843 C95.5903852,22.3995843 94.5589989,22.256987 93.6198186,21.9705501 C92.6781925,21.6873429 91.8669266,21.2595508 91.1872437,20.690652 C90.5058488,20.1229953 89.9758478,19.4269016 89.5957733,18.5998866 C89.2152096,17.7751075 89.0232157,16.828599 89.0232157,15.7494302 C89.0232157,15.4836128 89.0410699,15.2123301 89.0704193,14.9383146 C89.0961,14.6645476 89.1330313,14.3890415 89.1733867,14.1006173 C89.3939963,12.8008449 89.8246985,11.614107 90.4654934,10.547608 C91.1065329,9.48110903 91.8921181,8.57583944 92.8215153,7.83279296 C93.754092,7.09024335 94.7950169,6.51687281 95.9452682,6.1084581 C97.0989437,5.70128553 98.3039805,5.49981088 99.5635583,5.49981088 C100.826316,5.49981088 101.942326,5.68215662 102.913791,6.04833866 C103.883788,6.41303014 104.70288,6.92255482 105.363731,7.57368314 C106.021401,8.22456304 106.524499,9.01878556 106.863484,9.95461173 C107.203448,10.8877052 107.373919,11.9152011 107.373919,13.0348636 C107.373919,13.726734 107.293208,14.5077898 107.134721,15.3847387 L95.2103107,15.3847387 Z" id="Fill-11" fill="#F5881F"></path>
                            <path d="M109.399662,6.413527 L115.103226,6.413527 L114.683285,8.91618503 C115.566213,7.93936833 116.457211,7.2057621 117.357748,6.70344182 C118.258285,6.20658694 119.308993,5.9554268 120.509138,5.9554268 C122.272547,5.9554268 123.563187,6.37452389 124.385458,7.20725267 C125.206018,8.03898774 125.617154,9.2518105 125.617154,10.8380197 C125.617154,11.4682801 125.554542,12.1276065 125.43421,12.8189801 L123.816325,22.3993359 L117.566618,22.3993359 L119.010363,13.9490765 C119.069551,13.5821492 119.09939,13.2288854 119.09939,12.881087 C119.09939,12.3305718 118.974166,11.8739621 118.722984,11.5085254 C118.473269,11.1418465 118.008326,10.9595007 117.329377,10.9595007 C116.368918,10.9595007 115.664778,11.2491671 115.223559,11.828003 C114.784052,12.4063421 114.483954,13.2162156 114.323266,14.2531517 L112.941889,22.3993359 L106.694872,22.3993359 L109.399662,6.413527 Z" id="Fill-13" fill="#F5881F"></path>
                            <path d="M135.36746,22.2786995 C134.664053,22.3162121 134.018122,22.3495014 133.426243,22.371363 C132.838766,22.391734 132.292134,22.3989384 131.790259,22.3989384 C130.849367,22.3989384 130.059869,22.3529793 129.419807,22.2625517 C128.777545,22.172621 128.266621,22.0074168 127.885324,21.7741434 C127.505249,21.5423606 127.236213,21.2283483 127.074792,20.8435342 C126.914104,20.4617012 126.835349,19.9698149 126.835349,19.3817872 C126.835349,19.0163504 126.861275,18.6029671 126.910435,18.1448669 C126.961307,17.6877604 127.032969,17.18072 127.134469,16.6336828 L128.277872,9.95620166 L126.053188,9.95620166 L126.655095,6.29289063 L128.966604,6.29289063 L129.839014,1.31937329 L135.994314,1.31937329 L135.124594,6.29289063 L138.127036,6.29289063 L137.524396,9.95620166 L134.522198,9.95620166 L133.533368,15.7758629 C133.492279,15.9609413 133.463908,16.1241581 133.442141,16.2747052 C133.421352,16.4302207 133.410835,16.5673527 133.410835,16.689579 C133.410835,17.0783679 133.533368,17.3531287 133.772077,17.5200719 C134.015677,17.6820466 134.46301,17.7610465 135.124594,17.7610465 L136.115625,17.7610465 L135.36746,22.2786995 Z" id="Fill-15" fill="#F5881F"></path>
                            <path d="M139.414227,6.413527 L145.092844,6.413527 L144.54988,9.64780384 L144.61396,9.64780384 C145.871825,7.18663319 147.693933,5.9554268 150.078326,5.9554268 C150.218959,5.9554268 150.353232,5.96685446 150.484815,5.98722551 C150.611996,6.00784499 150.750427,6.0297066 150.891059,6.04883552 L149.777006,12.3941692 C149.579387,12.3524334 149.371984,12.3121881 149.163848,12.2704523 C148.951799,12.2321945 148.736081,12.209836 148.515471,12.209836 C147.233881,12.209836 146.21986,12.557386 145.468516,13.247269 C144.717172,13.9386426 144.190839,15.1527075 143.890987,16.8772908 L142.959877,22.3993359 L136.712127,22.3993359 L139.414227,6.413527 Z" id="Fill-17" fill="#F5881F"></path>
                            <path d="M156.362005,18.7973119 C156.899099,18.7973119 157.377249,18.6996799 157.78863,18.4969631 C158.198298,18.2935011 158.543398,18.0127781 158.821973,17.6542973 C159.10495,17.2987976 159.321401,16.8826816 159.483557,16.4027198 C159.645712,15.9269813 159.753571,15.4147239 159.814716,14.8639603 C159.255365,15.1071707 158.688188,15.2845479 158.118321,15.3998183 C157.549188,15.5108653 157.016252,15.6330916 156.527095,15.7660003 C156.036471,15.8974184 155.612128,16.0847327 155.264827,16.3291853 C154.911901,16.5723958 154.69765,16.9470243 154.617673,17.4592817 L154.617673,17.63964 C154.617673,17.9886806 154.76173,18.267913 155.053756,18.4800701 C155.343337,18.6947114 155.780398,18.7973119 156.362005,18.7973119 Z M159.24974,22.4337928 L159.214276,20.2354584 C158.194874,21.0858255 157.187212,21.6624256 156.193735,21.9565637 C155.20515,22.2492112 154.118734,22.3990129 152.935709,22.3990129 C152.276326,22.3990129 151.643847,22.3232426 151.04463,22.1736893 C150.445658,22.0201611 149.922994,21.7829129 149.483243,21.4532497 C149.040556,21.1290519 148.690809,20.7303258 148.4296,20.246886 C148.172304,19.772638 148.040231,19.1952927 148.040231,18.523048 C148.040231,18.2403376 148.068602,17.9258285 148.132682,17.5810112 C148.33079,16.3781255 148.767118,15.4393182 149.437507,14.7558943 C150.10814,14.0759484 150.890057,13.5644363 151.7813,13.2186253 C152.667896,12.8703301 153.61368,12.6328334 154.603732,12.4991795 C155.593785,12.3670161 156.515845,12.2462803 157.366732,12.1337427 C158.217131,12.0192176 158.940838,11.8716518 159.52807,11.6758909 C160.117259,11.480627 160.456244,11.1323317 160.533531,10.6235523 C160.533531,10.583307 160.541847,10.5472851 160.550162,10.5182191 C160.559212,10.4864203 160.564103,10.4523858 160.564103,10.4121405 C160.56606,10.1661974 160.493176,9.97316926 160.353277,9.83106876 C160.214112,9.69120411 160.048532,9.58239289 159.857272,9.50960365 C159.669192,9.43830498 159.465947,9.39011005 159.244115,9.35682078 C159.024239,9.32576735 158.842028,9.31160698 158.703352,9.31160698 C158.479319,9.31160698 158.248437,9.32576735 157.997744,9.35682078 C157.74803,9.39011005 157.510055,9.46066345 157.290913,9.57320108 C157.071037,9.68549028 156.867059,9.84249642 156.675799,10.0452132 C156.486006,10.2504143 156.348798,10.5236845 156.269554,10.8702407 L150.263203,10.8702407 C150.403835,10.0121724 150.683388,9.25670452 151.105286,8.59514225 C151.525471,7.93407683 152.122486,7.37312767 152.890706,6.91726332 C153.663818,6.4599084 154.607156,6.10788672 155.728058,5.86467626 C156.849939,5.61749095 158.194874,5.5002332 159.753571,5.5002332 C161.175793,5.5002332 162.344143,5.59612619 163.250795,5.79064488 C164.164295,5.98143715 164.880175,6.26265702 165.400148,6.62958434 C165.919877,6.99278526 166.282586,7.43150812 166.482162,7.93904538 C166.681004,8.44658264 166.784705,9.01920789 166.784705,9.65021358 C166.784705,10.034034 166.756824,10.4320147 166.707663,10.8362062 C166.656791,11.244124 166.59051,11.6701771 166.512001,12.1198308 L165.248999,19.593025 C165.193235,19.938836 165.160706,20.2235338 165.160706,20.445628 C165.160706,20.6724422 165.199839,20.8694452 165.280549,21.041357 C165.360527,21.2137656 165.512654,21.4137497 165.730573,21.6385765 L165.707583,22.4337928 L159.24974,22.4337928 Z" id="Fill-19" fill="#F5881F"></path>
                            <polygon id="Fill-21" fill="#F5881F" points="166.783825 22.3985409 170.535166 0.43556783 176.785606 0.43556783 173.033777 22.3985409"></polygon>
                            <polygon id="Fill-23" fill="#0E84BC" points="21.7416577 22.3090077 25.2604044 9.33488463 29.7853459 9.33488463 27.9600587 22.3090077"></polygon>
                            <path d="M32.0630294,3.54436397 C32.0608282,3.54436397 32.0630294,3.54436397 32.0490885,3.52250235 C32.0344138,3.49492691 32.0045752,3.4459867 31.9612849,3.38537041 C31.8715247,3.26239882 31.724044,3.08700905 31.5075923,2.89000609 C31.0707756,2.50469513 30.3595422,2.05156348 29.2095354,1.83816431 C28.6430923,1.73432164 28.1566262,1.72935309 27.7383975,1.77257947 C26.7287786,1.87990012 26.1143982,2.29328338 25.8994139,2.46594045 C25.8235947,2.5188555 25.8145453,2.53227058 25.8145453,2.53227058 C25.5286334,2.82616024 25.0595324,2.82342754 24.7728867,2.52953788 C24.4840398,2.23838092 24.4840398,1.76189709 24.7728867,1.47148541 C24.8452818,1.39993831 25.7873971,0.474297668 27.5852915,0.283505394 C28.1385275,0.223882809 28.770273,0.234565189 29.472457,0.361760038 C32.3301088,0.878985967 33.3301891,2.7479056 33.3800831,2.8673992 C33.5637613,3.23830136 33.4170144,3.68795503 33.0516145,3.87725674 C32.97017,3.91625985 32.8848122,3.94234473 32.7965195,3.95302711 C32.502781,3.98184469 32.2029282,3.83204294 32.0630294,3.54436397" id="Fill-25" fill="#F5881F"></path>
                            <path d="M30.2265405,5.25061331 C30.2231165,5.25334601 30.2265405,5.24713533 30.1827611,5.18130206 C30.13409,5.12068576 30.0582707,5.02305378 29.9376937,4.91772054 C29.7011866,4.70779935 29.3081494,4.45539708 28.6568376,4.33168021 C28.335951,4.27305134 28.0617788,4.27031863 27.8335873,4.29491295 C27.2720358,4.35453554 26.9386757,4.58209507 26.825436,4.67028681 C26.7938854,4.69512956 26.7953528,4.69860754 26.7953528,4.69860754 C26.5561553,4.94107272 26.1662977,4.94306014 25.9241652,4.69860754 C25.6835003,4.45340966 25.6835003,4.05890688 25.9241652,3.81296372 C25.9833532,3.75160214 26.5803686,3.1727662 27.7042055,3.05178204 C28.0478379,3.01650534 28.4396521,3.02495188 28.8730447,3.10270967 L28.8730447,3.10196438 C30.6452584,3.42367792 31.2862979,4.58979632 31.3278762,4.68867044 C31.4797593,4.99473305 31.3577148,5.37283961 31.0524812,5.52611934 C30.9849776,5.56214132 30.9125824,5.58499664 30.8401873,5.59195261 C30.593897,5.61754064 30.3434489,5.4886068 30.2265405,5.25061331" id="Fill-27" fill="#F5881F"></path>
                            <path d="M29.7016757,6.78313734 C29.6967841,7.55276555 28.98017,8.17110145 28.0984655,8.16687818 C27.2148045,8.16265492 26.5030819,7.5351272 26.506506,6.76972226 C26.5079734,5.99934877 27.2265442,5.38026759 28.1104499,5.38225501 C28.9933772,5.38647828 29.707301,6.01822926 29.7016757,6.78313734" id="Fill-29" fill="#F5881F"></path>
                            <path d="M179.708487,2.34505566 L180.362489,2.34505566 C180.415563,2.34505566 180.468881,2.34853364 180.520487,2.35847074 C180.558886,2.36567514 180.593616,2.37909022 180.623454,2.39946127 C180.647912,2.41859018 180.669435,2.44392978 180.684599,2.47945491 C180.702698,2.5174643 180.711258,2.5726152 180.711258,2.64043589 C180.711258,2.75222823 180.686066,2.83197344 180.634705,2.88016837 C180.579186,2.93084756 180.489915,2.95718087 180.369582,2.95718087 L179.708487,2.95718087 L179.708487,2.34505566 Z M181.436921,4.2964532 C181.414176,4.17199105 181.402925,4.03013898 181.402925,3.87189071 C181.402925,3.74668328 181.386783,3.64135004 181.35352,3.55216459 C181.322214,3.46670555 181.278924,3.39168046 181.226095,3.33379687 C181.202371,3.30771199 181.180359,3.28435981 181.1537,3.2652309 C181.17669,3.24684727 181.198213,3.22498565 181.218513,3.20237876 C181.280391,3.13878133 181.333465,3.05680028 181.379935,2.95295761 C181.425671,2.84836965 181.447194,2.72390751 181.447194,2.57062778 C181.447194,2.29636388 181.356944,2.07576032 181.17669,1.91825732 C181.002061,1.76497759 180.745254,1.68647452 180.41116,1.68647452 L179.100466,1.68647452 C179.030272,1.68647452 178.97304,1.74435811 178.97304,1.81640207 L178.97304,4.60822964 C178.97304,4.67952831 179.030272,4.73815719 179.100466,4.73815719 L179.581062,4.73815719 C179.652234,4.73815719 179.708487,4.67952831 179.708487,4.60822964 L179.708487,3.58744129 L180.289605,3.58744129 C180.382056,3.58744129 180.458364,3.59961423 180.512905,3.62147585 C180.558886,3.63985948 180.595083,3.66743492 180.623454,3.70768017 C180.653293,3.75438453 180.67506,3.81500082 180.686066,3.88853534 C180.700741,3.97349753 180.708323,4.07883076 180.708323,4.1968338 C180.708323,4.26738719 180.711258,4.34241228 180.71884,4.4186795 C180.726422,4.5128335 180.754304,4.59903782 180.800284,4.67605033 C180.823275,4.71356287 180.864364,4.73815719 180.908632,4.73815719 L181.424448,4.73815719 C181.47532,4.73815719 181.52179,4.70635848 181.541356,4.65965412 C181.562145,4.6124529 181.553096,4.55730201 181.517632,4.51978947 C181.498066,4.49867314 181.462602,4.44078954 181.436921,4.2964532 Z M180.125248,5.71497388 C178.842191,5.71497388 177.797842,4.65468557 177.797842,3.34870252 C177.797842,2.04619745 178.842191,0.983176436 180.125248,0.983176436 C181.409773,0.983176436 182.454367,2.04619745 182.454367,3.34870252 C182.454367,4.65468557 181.409773,5.71497388 180.125248,5.71497388 Z M180.125248,0.465205224 C178.559703,0.465205224 177.287897,1.75926376 177.287897,3.34870252 C177.287897,4.94112241 178.559703,6.23443566 180.125248,6.23443566 C181.691527,6.23443566 182.964801,4.94112241 182.964801,3.34870252 C182.964801,1.75926376 181.691527,0.465205224 180.125248,0.465205224 Z" id="Fill-31" fill="#F5881F"></path>
                        </g>
                        <path d="M3.83868026,5.93877778 C4.2525922,5.93877778 4.62421724,5.88011787 4.95356652,5.7627963 C5.28291581,5.64547472 5.56219091,5.4830319 5.79140021,5.27546296 C6.02060952,5.06789402 6.19640819,4.82310172 6.3188015,4.5410787 C6.44119482,4.25905569 6.50239056,3.95109118 6.50239056,3.61717593 C6.50239056,2.8816599 6.27986059,2.31536618 5.83479399,1.91827778 C5.38972739,1.52118937 4.7243628,1.32264815 3.83868026,1.32264815 L2.08290129,1.32264815 L2.08290129,5.93877778 L3.83868026,5.93877778 Z M3.83868026,0.774398148 C4.9468961,0.774398148 5.78249611,1.02031853 6.34550536,1.51216667 C6.90851462,2.0040148 7.19001502,2.70567754 7.19001502,3.61717593 C7.19001502,4.03682617 7.11212953,4.42262787 6.95635622,4.77459259 C6.80058291,5.12655732 6.57805295,5.43000953 6.28875966,5.68495833 C5.99946636,5.93990714 5.64786902,6.13844836 5.23395708,6.28058796 C4.82004514,6.42272756 4.35495752,6.4937963 3.83868026,6.4937963 L2.08290129,6.4937963 L2.08290129,10.3518519 L1.39527682,10.3518519 L1.39527682,0.774398148 L3.83868026,0.774398148 Z M11.0353712,3.50887963 C11.5115925,3.50887963 11.9377374,3.59122911 12.3138187,3.75593056 C12.6898999,3.920632 13.0070051,4.15414355 13.2651438,4.45647222 C13.5232824,4.75880089 13.7202214,5.12316916 13.8559667,5.54958796 C13.9917121,5.97600676 14.0595837,6.45318255 14.0595837,6.98112963 C14.0595837,7.50907671 13.9917121,7.98512442 13.8559667,8.40928704 C13.7202214,8.83344965 13.5232824,9.19668985 13.2651438,9.49901852 C13.0070051,9.80134719 12.6898999,10.0337307 12.3138187,10.1961759 C11.9377374,10.3586212 11.5115925,10.4398426 11.0353712,10.4398426 C10.55915,10.4398426 10.1330051,10.3586212 9.75692382,10.1961759 C9.38084254,10.0337307 9.06262469,9.80134719 8.80226073,9.49901852 C8.54189677,9.19668985 8.3438451,8.83344965 8.20809979,8.40928704 C8.07235447,7.98512442 8.00448283,7.50907671 8.00448283,6.98112963 C8.00448283,6.45318255 8.07235447,5.97600676 8.20809979,5.54958796 C8.3438451,5.12316916 8.54189677,4.75880089 8.80226073,4.45647222 C9.06262469,4.15414355 9.38084254,3.920632 9.75692382,3.75593056 C10.1330051,3.59122911 10.55915,3.50887963 11.0353712,3.50887963 Z M11.0353712,9.9322037 C11.4314805,9.9322037 11.7775146,9.86339112 12.0734839,9.72576389 C12.3694532,9.58813666 12.6164615,9.39072351 12.8145161,9.13351852 C13.0125707,8.87631353 13.1605532,8.56609287 13.2584678,8.20284722 C13.3563825,7.83960158 13.4053391,7.43236645 13.4053391,6.98112963 C13.4053391,6.53440517 13.3563825,6.12829812 13.2584678,5.7627963 C13.1605532,5.39729447 13.0125707,5.08481766 12.8145161,4.82535648 C12.6164615,4.56589531 12.3694532,4.36622601 12.0734839,4.22634259 C11.7775146,4.08645918 11.4314805,4.01651852 11.0353712,4.01651852 C10.639262,4.01651852 10.2932279,4.08645918 9.99725858,4.22634259 C9.70128929,4.36622601 9.45428103,4.56589531 9.25622639,4.82535648 C9.05817176,5.08481766 8.90907668,5.39729447 8.8089367,5.7627963 C8.70879671,6.12829812 8.65872747,6.53440517 8.65872747,6.98112963 C8.65872747,7.43236645 8.70879671,7.83960158 8.8089367,8.20284722 C8.90907668,8.56609287 9.05817176,8.87631353 9.25622639,9.13351852 C9.45428103,9.39072351 9.70128929,9.58813666 9.99725858,9.72576389 C10.2932279,9.86339112 10.639262,9.9322037 11.0353712,9.9322037 Z M24.5542017,3.61717593 L22.3377811,10.3518519 L21.8637876,10.3518519 C21.7881262,10.3518519 21.7369443,10.3044727 21.7102403,10.209713 L19.8943777,4.74075 C19.8721244,4.67306448 19.8520967,4.60537997 19.834294,4.53769444 C19.8164913,4.47000892 19.8009142,4.40232441 19.7875622,4.33463889 C19.7653089,4.47000994 19.7319294,4.60537895 19.6874227,4.74075 L17.8448562,10.209713 C17.8181522,10.3044727 17.764745,10.3518519 17.684633,10.3518519 L17.2306674,10.3518519 L15.0142468,3.61717593 L15.4949163,3.61717593 C15.5572256,3.61717593 15.6084075,3.63409705 15.6484635,3.66793981 C15.6885195,3.70178258 15.7152231,3.73900906 15.7285751,3.77962037 L17.4042425,9.09290741 C17.4309465,9.19669188 17.4554248,9.29709056 17.4776781,9.39410648 C17.4999314,9.4911224 17.5177338,9.58700879 17.5310858,9.68176852 C17.5577898,9.58700879 17.5844934,9.4911224 17.6111974,9.39410648 C17.6379014,9.29709056 17.6690556,9.19669188 17.7046609,9.09290741 L19.4804678,3.73224074 C19.5116225,3.63296864 19.5739309,3.58333333 19.6673948,3.58333333 L19.9277575,3.58333333 C20.0256722,3.58333333 20.0902059,3.63296864 20.1213605,3.73224074 L21.8838155,9.09290741 C21.9149701,9.19669188 21.943899,9.29596249 21.970603,9.39072222 C21.997307,9.48548196 22.0217853,9.58024027 22.0440386,9.675 C22.0618413,9.58024027 22.0807563,9.48548196 22.1007843,9.39072222 C22.1208123,9.29596249 22.1464033,9.19669188 22.1775579,9.09290741 L23.8665773,3.77962037 C23.8843799,3.72998432 23.9133088,3.69050169 23.9533648,3.6611713 C23.9934208,3.6318409 24.0401521,3.61717593 24.0935601,3.61717593 L24.5542017,3.61717593 Z M30.5625708,6.30427778 C30.5625708,5.94328832 30.5125016,5.61953075 30.4123616,5.33299537 C30.3122216,5.04645999 30.1709151,4.80392383 29.9884378,4.60537963 C29.8059605,4.40683543 29.5889937,4.25454528 29.3375311,4.14850463 C29.0860685,4.04246398 28.8090187,3.98944444 28.5063734,3.98944444 C28.1636721,3.98944444 27.8565808,4.04359205 27.5850901,4.15188889 C27.3135995,4.26018573 27.0788304,4.4158601 26.8807758,4.61891667 C26.6827211,4.82197324 26.5236122,5.06563747 26.4034442,5.34991667 C26.2832762,5.63419587 26.2031654,5.95231306 26.1631094,6.30427778 L30.5625708,6.30427778 Z M26.1297296,6.71715741 L26.1297296,6.84575926 C26.1297296,7.3511445 26.1875874,7.79560611 26.3033047,8.17915741 C26.419022,8.56270871 26.5836942,8.88421012 26.7973262,9.1436713 C27.0109581,9.40313247 27.2690929,9.59828947 27.5717382,9.72914815 C27.8743835,9.86000683 28.212629,9.92543519 28.586485,9.92543519 C28.9202849,9.92543519 29.2095739,9.88820871 29.4543605,9.81375463 C29.6991471,9.73930055 29.9049874,9.65582299 30.0718873,9.56331944 C30.2387873,9.4708159 30.3711926,9.38733834 30.4691073,9.31288426 C30.5670219,9.23843018 30.6382315,9.2012037 30.6827382,9.2012037 C30.7405969,9.2012037 30.7851028,9.22376521 30.8162575,9.26888889 L30.9898326,9.48548148 C30.8830166,9.62085253 30.7417101,9.74719694 30.5659088,9.86451852 C30.3901075,9.98184009 30.1942811,10.0822388 29.9784238,10.1657176 C29.7625665,10.2491964 29.5311354,10.3157528 29.2841234,10.3653889 C29.0371114,10.4150249 28.7889905,10.4398426 28.5397532,10.4398426 C28.0857853,10.4398426 27.6718796,10.3597493 27.2980236,10.1995602 C26.9241677,10.0393711 26.6037245,9.80585956 26.3366845,9.49901852 C26.0696446,9.19217748 25.8638044,8.81652846 25.7191577,8.37206019 C25.5745111,7.92759191 25.5021888,7.41883003 25.5021888,6.84575926 C25.5021888,6.36293586 25.5700605,5.91734618 25.7058058,5.50897685 C25.8415511,5.10060753 26.0373775,4.74864808 26.2932908,4.45308796 C26.5492041,4.15752784 26.8629713,3.92627244 27.2346019,3.75931481 C27.6062325,3.59235719 28.0279268,3.50887963 28.4996974,3.50887963 C28.8735534,3.50887963 29.2207001,3.57430799 29.5411481,3.70516667 C29.861596,3.83602535 30.1397585,4.02667004 30.3756438,4.27710648 C30.6115291,4.52754292 30.7973416,4.83550743 30.9330869,5.20100926 C31.0688322,5.56651109 31.1367039,5.98615504 31.1367039,6.4599537 C31.1367039,6.55922581 31.1233521,6.62691031 31.0966481,6.66300926 C31.0699441,6.69910821 31.0254381,6.71715741 30.9631288,6.71715741 L26.1297296,6.71715741 Z M33.4732918,5.24162037 C33.5756572,4.96636591 33.6924854,4.7215736 33.82378,4.50723611 C33.9550747,4.29289862 34.1063951,4.11127852 34.2777457,3.96237037 C34.4490964,3.81346222 34.6404721,3.69952663 34.8518788,3.62056019 C35.0632854,3.54159374 35.2980545,3.50211111 35.5561931,3.50211111 C35.6941638,3.50211111 35.8299071,3.51451994 35.963427,3.53933796 C36.096947,3.56415599 36.2148879,3.60815092 36.3172532,3.67132407 L36.2638455,4.1180463 C36.2415922,4.19024419 36.1993115,4.22634259 36.1370021,4.22634259 C36.0835942,4.22634259 36.0023707,4.21054954 35.8933294,4.17896296 C35.7842881,4.14737639 35.6407563,4.13158333 35.4627296,4.13158333 C35.204591,4.13158333 34.9764978,4.17106596 34.7784431,4.25003241 C34.5803885,4.32899885 34.4023645,4.44744674 34.2443659,4.60537963 C34.0863672,4.76331252 33.9483987,4.95846952 33.830456,5.19085648 C33.7125134,5.42324345 33.6045863,5.69059725 33.5066717,5.99292593 L33.5066717,10.3518519 L32.865779,10.3518519 L32.865779,3.61717593 L33.2062532,3.61717593 C33.2819145,3.61717593 33.3353217,3.63296898 33.3664764,3.66455556 C33.3976311,3.69614213 33.4176588,3.75028974 33.4265601,3.827 L33.4732918,5.24162037 Z M41.8716567,6.30427778 C41.8716567,5.94328832 41.8215874,5.61953075 41.7214474,5.33299537 C41.6213074,5.04645999 41.4800009,4.80392383 41.2975236,4.60537963 C41.1150463,4.40683543 40.8980796,4.25454528 40.646617,4.14850463 C40.3951543,4.04246398 40.1181045,3.98944444 39.8154592,3.98944444 C39.4727579,3.98944444 39.1656666,4.04359205 38.894176,4.15188889 C38.6226853,4.26018573 38.3879162,4.4158601 38.1898616,4.61891667 C37.9918069,4.82197324 37.832698,5.06563747 37.71253,5.34991667 C37.5923621,5.63419587 37.5122513,5.95231306 37.4721953,6.30427778 L41.8716567,6.30427778 Z M37.4388155,6.71715741 L37.4388155,6.84575926 C37.4388155,7.3511445 37.4966732,7.79560611 37.6123906,8.17915741 C37.7281079,8.56270871 37.89278,8.88421012 38.106412,9.1436713 C38.320044,9.40313247 38.5781787,9.59828947 38.880824,9.72914815 C39.1834693,9.86000683 39.5217149,9.92543519 39.8955708,9.92543519 C40.2293708,9.92543519 40.5186597,9.88820871 40.7634464,9.81375463 C41.008233,9.73930055 41.2140732,9.65582299 41.3809732,9.56331944 C41.5478732,9.4708159 41.6802785,9.38733834 41.7781931,9.31288426 C41.8761078,9.23843018 41.9473174,9.2012037 41.991824,9.2012037 C42.0496827,9.2012037 42.0941887,9.22376521 42.1253433,9.26888889 L42.2989185,9.48548148 C42.1921025,9.62085253 42.0507959,9.74719694 41.8749946,9.86451852 C41.6991933,9.98184009 41.503367,10.0822388 41.2875097,10.1657176 C41.0716524,10.2491964 40.8402212,10.3157528 40.5932092,10.3653889 C40.3461973,10.4150249 40.0980764,10.4398426 39.8488391,10.4398426 C39.3948711,10.4398426 38.9809654,10.3597493 38.6071094,10.1995602 C38.2332535,10.0393711 37.9128103,9.80585956 37.6457704,9.49901852 C37.3787304,9.19217748 37.1728902,8.81652846 37.0282436,8.37206019 C36.8835969,7.92759191 36.8112747,7.41883003 36.8112747,6.84575926 C36.8112747,6.36293586 36.8791463,5.91734618 37.0148916,5.50897685 C37.1506369,5.10060753 37.3464633,4.74864808 37.6023766,4.45308796 C37.8582899,4.15752784 38.1720572,3.92627244 38.5436878,3.75931481 C38.9153184,3.59235719 39.3370127,3.50887963 39.8087833,3.50887963 C40.1826392,3.50887963 40.529786,3.57430799 40.8502339,3.70516667 C41.1706819,3.83602535 41.4488443,4.02667004 41.6847296,4.27710648 C41.9206149,4.52754292 42.1064274,4.83550743 42.2421727,5.20100926 C42.3779181,5.56651109 42.4457897,5.98615504 42.4457897,6.4599537 C42.4457897,6.55922581 42.4324379,6.62691031 42.4057339,6.66300926 C42.3790299,6.69910821 42.3345239,6.71715741 42.2722146,6.71715741 L37.4388155,6.71715741 Z M48.7078455,5.06563889 C48.4541575,4.67757522 48.1726571,4.40458104 47.8633358,4.24664815 C47.5540145,4.08871526 47.2013046,4.00975 46.8051953,4.00975 C46.4135367,4.00975 46.0708405,4.08194681 45.7770966,4.22634259 C45.4833526,4.37073838 45.237457,4.57491998 45.0394024,4.83889352 C44.8413477,5.10286706 44.6922526,5.4187281 44.5921127,5.78648611 C44.4919727,6.15424412 44.4419034,6.5592231 44.4419034,7.00143519 C44.4419034,8.00318093 44.6232654,8.739814 44.9859946,9.21135648 C45.3487239,9.68289896 45.872782,9.91866667 46.5581845,9.91866667 C46.9943498,9.91866667 47.3926785,9.803603 47.7531824,9.57347222 C48.1136864,9.34334144 48.4319042,9.02071195 48.7078455,8.60557407 L48.7078455,5.06563889 Z M49.3420622,0.503657407 L49.3420622,10.3518519 L48.994912,10.3518519 C48.8791947,10.3518519 48.8124357,10.2931919 48.794633,10.1758704 L48.7278734,9.11321296 C48.4341294,9.5193261 48.0914333,9.84195559 47.6997747,10.0811111 C47.3081161,10.3202666 46.8675067,10.4398426 46.3779335,10.4398426 C45.5590109,10.4398426 44.9225752,10.1533115 44.4686073,9.58024074 C44.0146394,9.00716997 43.7876588,8.14757672 43.7876588,7.00143519 C43.7876588,6.50958705 43.8510798,6.05046047 43.9779238,5.62404167 C44.1047678,5.19762287 44.2905803,4.82761422 44.535367,4.51400463 C44.7801536,4.20039504 45.0816817,3.95334658 45.4399603,3.77285185 C45.7982389,3.59235712 46.211032,3.50211111 46.6783519,3.50211111 C47.1278692,3.50211111 47.5172966,3.58558867 47.8466459,3.7525463 C48.1759952,3.91950392 48.4630589,4.16768045 48.7078455,4.49708333 L48.7078455,0.503657407 L49.3420622,0.503657407 Z M55.797721,8.88308333 C56.0558597,9.271147 56.3395854,9.54301311 56.6489067,9.69868981 C56.9582279,9.85436652 57.3064873,9.9322037 57.6936953,9.9322037 C58.0898046,9.9322037 58.4358386,9.86000689 58.7318079,9.71561111 C59.0277772,9.57121533 59.2747855,9.36477758 59.4728401,9.09629167 C59.6708948,8.82780576 59.8188772,8.50179204 59.9167918,8.11824074 C60.0147065,7.73468944 60.0636631,7.30376474 60.0636631,6.8254537 C60.0636631,5.89590585 59.8811885,5.19649926 59.5162339,4.72721296 C59.1512793,4.25792667 58.6394604,4.02328704 57.9807618,4.02328704 C57.5089912,4.02328704 57.0973108,4.1383507 56.7457082,4.36848148 C56.3941055,4.59861226 56.078113,4.9189856 55.797721,5.32961111 L55.797721,8.88308333 Z M55.797721,4.78812963 C56.0870143,4.39104122 56.4252599,4.07856441 56.8124678,3.85068981 C57.1996758,3.62281522 57.6491863,3.50887963 58.1610129,3.50887963 C58.5615728,3.50887963 58.9198461,3.58333259 59.2358433,3.73224074 C59.5518406,3.88114889 59.8199892,4.09548317 60.0402972,4.37525 C60.2606052,4.65501683 60.4286153,4.99907975 60.5443326,5.40744907 C60.6600499,5.8158184 60.7179077,6.27945728 60.7179077,6.79837963 C60.7179077,7.34437619 60.653374,7.84185732 60.5243047,8.29083796 C60.3952354,8.7398186 60.2071976,9.12336415 59.9601856,9.44148611 C59.7131737,9.75960807 59.4116456,10.0055285 59.0555923,10.1792546 C58.699539,10.3529808 58.2923092,10.4398426 57.8338906,10.4398426 C57.36212,10.4398426 56.9604534,10.3484685 56.6288788,10.1657176 C56.2973041,9.98296668 56.0113531,9.71110057 55.7710172,9.35011111 L55.7242854,10.1826389 C55.7109334,10.2954481 55.6508503,10.3518519 55.5440343,10.3518519 L55.1568283,10.3518519 L55.1568283,0.503657407 L55.797721,0.503657407 L55.797721,4.78812963 Z M67.7276717,3.61717593 L63.9090193,12.5177778 C63.8823153,12.5809509 63.8478232,12.6328424 63.8055418,12.6734537 C63.7632605,12.714065 63.7020648,12.7343704 63.6219528,12.7343704 L63.1679871,12.7343704 L64.3362811,10.1014167 L61.5256996,3.61717593 L62.0531009,3.61717593 C62.1198608,3.61717593 62.173268,3.63409705 62.213324,3.66793981 C62.25338,3.70178258 62.2800836,3.73900906 62.2934356,3.77962037 L64.5298841,9.0184537 C64.5565881,9.08613923 64.5799538,9.15495181 64.5999818,9.22489352 C64.6200098,9.29483523 64.6389248,9.36590396 64.6567275,9.43810185 C64.6789808,9.36590396 64.7023464,9.29483523 64.7268251,9.22489352 C64.7513038,9.15495181 64.7768947,9.08613923 64.8035987,9.0184537 L67.0133433,3.77962037 C67.0355967,3.72998432 67.0667509,3.69050169 67.1068069,3.6611713 C67.1468629,3.6318409 67.1913689,3.61717593 67.2403262,3.61717593 L67.7276717,3.61717593 Z" id="Powered-by" fill="#666666"></path>
                    </g>
                </g>
            </g>
        </g>
    </g>
</svg>
