<svg xmlns="http://www.w3.org/2000/svg" width="184" height="36" viewBox="0 0 184 36"><path fill="#49166D" d="M102.1 10.7V7.2H89.5v18.1h12.6v-3.7h-7.5v-4h6.2v-3.5h-6.2v-3.4zM124.3 21.7h-7.9V7.2h-5.2v18.1h13.1zM165.7 14.1c-3.5-.8-4.7-.899-4.7-2.3 0-1.3 1.7-1.7 2.7-1.7 1.6 0 3.5.4 5.399 1.4l1.4-3.3c-2-1.101-4.5-1.5-7-1.5-4.8 0-8 1.899-8.1 5.699-.101 3.5 2.699 4.801 5.3 5.301 2.5.5 5 1 5.1 2.399 0 1.4-1.2 1.9-3.5 1.9-2.1 0-4.1-.7-6.2-1.5l-1.199 3.6c2.3 1 4.699 1.5 7.199 1.5 3.4 0 5.9-.5 7.7-2.199 1.3-1.2 1.7-2.601 1.7-4 .001-2.8-1.699-4.4-5.799-5.3zM82.2 10.8V7.2H66.4v3.6h5.3v14.5h5.2V10.8zM141.8 7.2v11.5c0 .899 0 1.2-.1 1.5-.2 1.1-1.2 1.7-2.9 1.8-1.3 0-2.2-.4-2.6-1-.2-.3-.3-.9-.3-1.9V7.2h-5.3v12.5c0 1.7.2 2.5 1 3.5 1.301 1.6 3.801 2.5 7.301 2.5h.2c4.601 0 7-1.8 7.7-3.5.3-.8.4-1.2.4-2.9V7.2H141.8zM68.8 2.2l-30 6v2.1h.1c19.8-4.8 29.9-7.7 29.9-7.7.2-.1.2-.201.2-.3s-.1-.1-.2-.1z"/><path fill="#6C0" d="M43.7 3.899c.5-.3.6-.1.5.2-.2.5-1.2 3.8-8.8 10-2 1.601-3.4 2.5-6.2 4.2 4.6-6.499 11.4-12.4 14.5-14.4zm.7-2.299c-1.5.101-4.2 2.2-5.6 3.5-5.9 5.101-10.3 9.8-13.5 14.7-6.6 3.6-15.1 7.2-23.5 10.1l-.2.1L0 34.4l.9-.4c5.3-2 14.3-5.9 22.4-10.1-.5 1.199-.7 2.3-.7 3.399 0 .8.1 1.5.4 2.101.5 1.3 1.5 2.3 2.9 2.8 2.1.8 4.9.8 8.1-.2 8.2-2.5 18-10.2 20.1-11.7l.1-.1c.1-.101.1-.2.1-.2 0-.1-.1-.1-.2 0l-.1.1c-2.3 1.4-13.4 8-20.6 9.9-3.7 1-6.5.4-7.5-1-.4-.5-.5-1.1-.5-1.9 0-1.5.7-3.3 2-5.399 1.2-.7 2.3-1.4 3.4-2 7-4 15.1-11.601 15.5-16.301v-.1c0-.4-.2-.8-.5-1.1-.4-.4-.9-.6-1.4-.6zm-1 1.9z"/><path fill="#49166D" d="M38.7 8.2L7.2 15 6 18.3l32.8-8h.1V8.2zM177.7 10.6c0-1.6 1.2-2.899 2.8-2.899s2.8 1.199 2.8 2.899-1.2 2.9-2.8 2.9-2.8-1.2-2.8-2.9zm2.8 3.5c1.9 0 3.5-1.5 3.5-3.5s-1.6-3.4-3.5-3.4-3.5 1.5-3.5 3.4c0 2 1.6 3.5 3.5 3.5zm-.7-3.201h.7l1 1.7h.7l-1.101-1.7c.601-.1 1-.399 1-1.1 0-.8-.5-1.1-1.399-1.1h-1.5v4h.6v-1.8zm0-.5V9.1h.8c.4 0 .9.101.9.601 0 .6-.5.6-1 .6h-.7v.098z"/></svg>