<?xml version="1.0" encoding="UTF-8"?>
<svg width="192px" height="45px" viewBox="0 0 192 45" version="1.1" xmlns="http://www.w3.org/2000/svg" xmlns:xlink="http://www.w3.org/1999/xlink">
    <title>entranceLogo</title>
    <g id="entranceLogo" stroke="none" stroke-width="1" fill="none" fill-rule="evenodd">
        <g id="RingCentral-Telekom-SidebySide-FullColor">
            <g id="Group" transform="translate(147.000000, 0.000000)" fill-rule="nonzero">
                <polygon id="Path" fill="#CA0088" points="45 0 0 0 0 45 45 45"></polygon>
                <polygon id="Path" fill="#FFFFFF" points="9.36624489 27.7027621 9.36624489 21.2176815 12.766857 21.2176815 15.8511964 21.2176815 15.8511964 27.7027621"></polygon>
                <polygon id="Path" fill="#FFFFFF" points="29.1491665 27.7027621 29.1491665 21.2176815 32.8774829 21.2176815 35.6333922 21.2176815 35.6333922 27.7027621"></polygon>
                <path d="M35.3067767,6.48508065 L9.69358624,6.48508065 L9.37731353,17.7830927 L11.0720853,18.0768448 C11.388358,14.7439234 12.2584255,12.2809536 13.6931749,10.6653448 C15.1957879,8.98194556 17.2746958,8.10068952 19.9411487,8.0216129 L19.9411487,31.6571371 C19.9411487,33.7245968 19.6473762,35.0577218 19.048581,35.6791935 C18.5401495,36.210121 17.670082,36.5265726 16.4499915,36.6508669 C16.0883556,36.6846169 15.4670602,36.6960484 14.5969927,36.6960484 L14.5969927,38.5036694 L30.4031887,38.5036694 L30.4031887,36.6960484 C29.5331212,36.6960484 28.9118259,36.6846169 28.5501899,36.6508669 C27.3300994,36.5265726 26.4600319,36.210121 25.9516004,35.6791935 C25.3528053,35.0577218 25.0590327,33.7245968 25.0590327,31.6571371 L25.0590327,8.0216129 C27.7254857,8.10068952 29.8043936,8.98194556 31.3070065,10.6653448 C32.741756,12.2809536 33.6118235,14.7439234 33.9280962,18.0768448 L35.622505,17.7830927 L35.3067767,6.48508065 Z" id="Path" fill="#FFFFFF"></path>
            </g>
            <g id="Group-2" transform="translate(0.000000, 7.159091)">
                <polygon id="Path" fill="#FF7A00" fill-rule="nonzero" points="135 3.47038114 131.831088 3.47038114 131.831088 24.0132928 135 24.0132928"></polygon>
                <path d="M123.878533,10.356881 C120.953453,10.356881 118.684817,11.7989001 118.301756,14.7429726 L121.416825,14.7429726 C121.636546,13.6328914 122.442733,12.9662533 123.878533,12.9662533 C125.544569,12.9662533 126.310691,13.9376665 126.310691,15.4641203 L126.310691,16.157829 L123.112411,16.157829 C120.165939,16.157829 117.988309,17.4911051 117.988309,20.2119827 C117.988309,22.9330445 119.764205,24.3479009 122.332873,24.3479009 C124.32849,24.3479009 125.641014,23.4853228 126.350756,22.0977213 L126.487447,22.0977213 L126.487447,24.0022436 L129.492837,24.0022436 L129.492837,15.5674308 C129.479422,12.3132427 127.840036,10.356881 123.878533,10.356881 Z M123.235686,21.8772888 C122.006192,21.8772888 121.240069,21.2649762 121.240069,20.2447622 C121.240069,19.077409 122.059672,18.4678587 123.535718,18.4678587 L126.294557,18.4678587 L126.310691,18.6610364 C126.310691,20.6801026 125.161507,21.8772888 123.235686,21.8772888 L123.235686,21.8772888 Z" id="Shape" fill="#FF7A00"></path>
                <path d="M112.371286,24.013477 L112.371286,17.1021715 C112.371286,15.0479319 113.63033,13.7419106 115.623227,13.7419106 L116.871394,13.7419106 L116.871394,10.6890031 L115.585701,10.6890031 C114.083006,10.6890031 112.990021,11.2712985 112.30711,12.5773198 L112.197249,12.5773198 L112.197249,10.6890031 L109.21869,10.6890031 L109.21869,24.0215797 L112.371286,24.013477 Z" id="Path" fill="#FF7A00"></path>
                <path d="M107.207119,21.0721668 L107.207119,24.013477 L105.048162,24.013477 C102.013403,24.013477 100.347368,22.5849932 100.347368,19.5020685 L100.347368,13.333825 L98.1884105,13.333825 L98.1884105,10.6890031 L100.347368,10.6890031 L100.347368,7.15189894 L103.518636,7.15189894 L103.518636,10.6890031 L107.207119,10.6890031 L107.207119,13.333825 L103.518636,13.333825 L103.518636,19.1293405 C103.518636,20.3510191 104.22856,21.0721668 105.431223,21.0721668 L107.207119,21.0721668 Z" id="Path" fill="#FF7A00"></path>
                <path d="M87.8033349,24.0131087 L87.8033349,16.2966812 C87.8033349,14.4083645 88.9525187,13.1730585 90.8087252,13.1730585 C92.5846211,13.1730585 93.6507751,14.2151868 93.6507751,16.255799 L93.6507751,24.0131087 L96.8247631,24.0131087 L96.8247631,15.7416406 C96.8247631,12.3811956 95.2176462,10.356881 91.9337977,10.356881 C89.9354615,10.356881 88.4086551,11.2711143 87.7257437,12.5200478 L87.6131639,12.5200478 L87.6131639,10.6888189 L84.6425809,10.6888189 L84.6425809,24.0213956 L87.8033349,24.0131087 Z" id="Path" fill="#FF7A00"></path>
                <path d="M76.151601,21.71155 C74.1561654,21.71155 72.8168106,20.3510191 72.7633307,18.2124369 L82.4651323,18.2124369 L82.451717,17.1703086 C82.451717,12.7025446 79.6096671,10.3679855 76.1381857,10.3679855 C72.3882461,10.3679855 69.64808,13.0889 69.64808,17.3634863 C69.64808,21.6380725 72.1900985,24.3589502 76.1381857,24.3589502 C79.4436074,24.3589502 81.6025646,22.5822309 82.2319961,19.9727665 L79.1569913,19.9727665 C78.8168952,20.9741968 77.9811581,21.71155 76.151601,21.71155 Z M76.1381857,13.0345745 C78.2141131,13.0345745 79.4436074,14.2289984 79.5266372,15.8941203 L72.7499154,15.8941203 C73.0499468,14.2017436 74.0597203,13.0345745 76.1381857,13.0345745 L76.1381857,13.0345745 Z" id="Shape" fill="#FF7A00"></path>
                <path d="M60.1632799,24.3751557 C64.890905,24.3751557 67.5696145,21.7113659 68.199046,17.7551821 L64.9848121,17.7551821 C64.508025,19.5591563 63.2141735,21.2244623 60.1632799,21.2244623 C57.0213799,21.2244623 54.506192,19.0477602 54.506192,14.2833239 C54.506192,9.51901645 57.0213799,7.34771005 60.1632799,7.34771005 C63.3053613,7.34771005 64.5642242,9.012924 64.9848121,10.7897354 L68.199046,10.7897354 C67.6792937,6.83345958 65.0410113,4.25946328 60.1632799,4.25946328 C54.9159026,4.25946328 51.1177404,7.97897208 51.1177404,14.3267842 C51.1177404,20.6747621 54.9159026,24.3943078 60.1632799,24.3943078 L60.1632799,24.3751557 Z" id="Path" fill="#FF7A00"></path>
                <path d="M45.9669895,10.6888189 L45.9669895,12.5172855 L45.8170644,12.5172855 C45.1071411,11.2412814 43.6312766,10.3542292 41.5312379,10.3542292 C38.4562331,10.3542292 35.683979,12.8248229 35.683979,17.1837518 C35.683979,21.5426807 38.4161685,24.0403635 41.5312379,24.0403635 C43.5536854,24.0403635 44.7456531,23.2052244 45.6589814,21.7901838 L45.8036491,21.7901838 L45.8036491,24.5981664 C45.8036491,26.0975495 44.9840467,26.7912582 43.6446919,26.7912582 L37.2160428,26.7912582 L37.2160428,29.6590909 L43.583054,29.6590909 C47.1080153,29.6590909 48.9937718,27.6593609 48.9937718,24.3832585 L48.9937718,10.6888189 L45.9669895,10.6888189 Z M42.4017823,21.1263081 C40.2964862,21.1263081 38.9571315,19.7957943 38.9571315,17.1865141 C38.9571315,14.5770497 40.2830709,13.2437736 42.4017823,13.2437736 C44.450879,13.2437736 45.8170644,14.5742874 45.8170644,17.1865141 C45.8170644,19.7985567 44.4642943,21.1263081 42.4017823,21.1263081 Z" id="Shape" fill="#0684BC"></path>
                <path d="M24.7312911,24.0132928 L24.7312911,16.2966812 C24.7312911,14.4083645 25.8804749,13.1730585 27.7394007,13.1730585 C29.5152967,13.1730585 30.5812693,14.2151868 30.5812693,16.255799 L30.5812693,24.0132928 L33.75,24.0132928 L33.75,15.7416406 C33.75,12.3811956 32.142883,10.3569179 28.8590346,10.3569179 C26.8634177,10.3569179 25.320658,11.2711143 24.6375653,12.5200478 L24.5277048,12.5200478 L24.5277048,10.6888189 L21.5625604,10.6888189 L21.5625604,24.0213956 L24.7312911,24.0132928 Z" id="Path" fill="#0684BC"></path>
                <polygon id="Path" fill="#0684BC" fill-rule="nonzero" points="18.8840322 10.6890031 15.7152109 10.6890031 15.7152109 24.013477 18.8840322 24.013477"></polygon>
                <path d="M10.1946327,14.8247371 L10.1946327,14.6941718 C12.1339234,14.1499962 13.4464294,12.8275853 13.4464294,9.85638687 C13.4464294,6.80351611 11.2044605,4.58051764 7.04999517,4.58051764 L0,4.58051764 L0,24.0132928 L3.27857298,24.0132928 L3.27857298,16.2968654 L7.26964355,16.2968654 C9.12856936,16.2968654 10.0580323,17.2410237 10.0580323,19.1293405 L10.0580323,24.0269202 L13.3366052,24.0269202 L13.3366052,19.1293405 C13.3366052,16.381208 12.187494,15.2709426 10.1946327,14.8247371 Z M6.87322136,13.2982833 L3.27857298,13.2982833 L3.27857298,7.58442181 L6.87322136,7.58442181 C8.6490992,7.58442181 10.0151758,8.33540245 10.0151758,10.4441149 C10.0151758,12.5528273 8.63572016,13.2982833 6.87322136,13.2982833 L6.87322136,13.2982833 Z" id="Shape" fill="#0684BC"></path>
                <path d="M17.2982709,8.55019986 C17.7149067,8.55073391 18.1223149,8.42569323 18.4688829,8.19089669 C18.8155054,7.95611855 19.0858056,7.62213658 19.2455202,7.23123255 C19.4052348,6.84034694 19.4471123,6.41010759 19.3658953,5.99498729 C19.2848596,5.57988541 19.084174,5.1985574 18.7895812,4.8993069 C18.4949884,4.60005639 18.1196863,4.39630824 17.7110271,4.31388084 C17.3023862,4.23143502 16.8788433,4.27402988 16.4940235,4.43623286 C16.1092219,4.59843584 15.7804382,4.87297285 15.5492962,5.22509401 C15.3181542,5.57719676 15.1950597,5.99106481 15.1955854,6.41426947 C15.1920141,6.83791611 15.3136582,7.25290749 15.5447821,7.6055627 C15.775906,7.95821791 16.1058862,8.23229454 16.4920294,8.39237975 C16.7473915,8.50022042 17.0217525,8.55391977 17.2982709,8.55019986 L17.2982709,8.55019986 Z" id="Path" fill="#FF7A00"></path>
                <path d="M14.8821568,0.488115088 C14.1146203,0.814473082 13.4175503,1.2905484 12.8303589,1.88938089 L14.3169738,3.39950021 C14.7066883,3.00137734 15.16977,2.68514782 15.6798235,2.46887718 C16.1898588,2.25258813 16.7368405,2.14049349 17.2895328,2.13896501 C17.8422252,2.13745495 18.3898414,2.24654787 18.9008919,2.46003778 C19.4121237,2.6735277 19.8769458,2.98719747 20.2687089,3.38316573 L21.7554507,1.87306483 C20.8725788,0.978167711 19.748594,0.369022595 18.5254448,0.122513843 C17.302078,-0.123976494 16.0343138,0.00325561185 14.8821568,0.488115088 L14.8821568,0.488115088 Z" id="Path" fill="#FF7A00"></path>
            </g>
        </g>
    </g>
</svg>