<?xml version="1.0" encoding="UTF-8"?>
<svg width="191px" height="45px" viewBox="0 0 191 45" version="1.1" xmlns="http://www.w3.org/2000/svg" xmlns:xlink="http://www.w3.org/1999/xlink">
    <title>white</title>
    <g id="white" stroke="none" stroke-width="1" fill="none" fill-rule="evenodd">
        <g id="RingCentral-Telekom-SidebySide-White" fill="#FFFFFF">
            <path d="M146.431452,0 L191.431452,0 L191.431452,45 L146.431452,45 L146.431452,0 Z M181.738306,6.4850625 L156.12496,6.4850625 L155.80869,17.7830746 L157.503266,18.0768266 C157.819718,14.7439052 158.689597,12.2809355 160.124516,10.6653266 C161.627117,8.98192742 163.706008,8.10067137 166.372258,8.02159476 L166.372258,31.6569556 C166.372258,33.7245968 166.078488,35.0577218 165.479698,35.6791935 C164.97127,36.210121 164.101391,36.5265726 162.881129,36.6506855 C162.519677,36.6846169 161.898206,36.6958669 161.028327,36.6958669 L161.028327,38.5036694 L176.834214,38.5036694 L176.834214,36.6958669 C175.964335,36.6958669 175.342863,36.6846169 174.981411,36.6506855 C173.761149,36.5265726 172.89127,36.210121 172.382843,35.6791935 C171.784052,35.0577218 171.490282,33.7245968 171.490282,31.6569556 L171.490282,8.02159476 C174.156532,8.10067137 176.235423,8.98192742 177.738024,10.6653266 C179.172944,12.2809355 180.042823,14.7439052 180.359274,18.0768266 L182.054032,17.7830746 L181.738306,6.4850625 Z M155.797621,21.2176815 L155.797621,27.7027621 L162.282702,27.7027621 L162.282702,21.2176815 L159.198206,21.2176815 L155.797621,21.2176815 Z M175.580383,21.2176815 L175.580383,27.7027621 L182.064919,27.7027621 L182.064919,21.2176815 L179.308669,21.2176815 L175.580383,21.2176815 Z" id="Shape"></path>
            <polygon id="Path" fill-rule="nonzero" points="135.121935 11.2218206 131.950161 11.2218206 131.950161 31.4633468 135.121935 31.4633468"></polygon>
            <path d="M123.990423,18.0072036 C121.062702,18.0072036 118.792016,19.4282056 118.408609,22.3288911 L121.526492,22.3288911 C121.746411,21.2351008 122.553327,20.578246 123.990423,20.578246 C125.657964,20.578246 126.424778,21.5354032 126.424778,23.0394556 L126.424778,23.7231653 L123.223609,23.7231653 C120.274476,23.7231653 118.094879,25.0366935 118.094879,27.7178226 C118.094879,30.3987702 119.872379,31.7928629 122.443367,31.7928629 C124.440786,31.7928629 125.754496,30.9429435 126.464879,29.5757056 L126.601694,29.5757056 L126.601694,31.4524597 L129.609798,31.4524597 L129.609798,23.14125 C129.596371,19.9348185 127.955504,18.0072036 123.990423,18.0072036 Z M123.346996,29.3585081 C122.116391,29.3585081 121.349577,28.7553629 121.349577,27.7499395 C121.349577,26.5997177 122.169919,25.9992944 123.647298,25.9992944 L126.408629,25.9992944 L126.424778,26.1896371 C126.424778,28.1788911 125.274556,29.3585081 123.346996,29.3585081 L123.346996,29.3585081 Z" id="Shape"></path>
            <path d="M112.472782,31.4633468 L112.472782,24.6536492 C112.472782,22.629375 113.732964,21.3425202 115.727661,21.3425202 L116.976956,21.3425202 L116.976956,18.3344153 L115.690101,18.3344153 C114.186048,18.3344153 113.092077,18.9081653 112.408548,20.1950202 L112.298589,20.1950202 L112.298589,18.3344153 L109.317339,18.3344153 L109.317339,31.4713306 L112.472782,31.4633468 Z" id="Path"></path>
            <path d="M107.303952,28.5653831 L107.303952,31.4635282 L105.143044,31.4635282 C102.105544,31.4635282 100.438004,30.0560081 100.438004,27.0183266 L100.438004,20.9406048 L98.2770968,20.9406048 L98.2770968,18.3345968 L100.438004,18.3345968 L100.438004,14.8493468 L103.612137,14.8493468 L103.612137,18.3345968 L107.303952,18.3345968 L107.303952,20.9406048 L103.612137,20.9406048 L103.612137,26.6510685 C103.612137,27.8548185 104.322702,28.5653831 105.526452,28.5653831 L107.303952,28.5653831 Z" id="Path"></path>
            <path d="M87.8826411,31.4631653 L87.8826411,23.8597984 C87.8826411,21.9991935 89.0328629,20.7820161 90.890746,20.7820161 C92.668246,20.7820161 93.7353629,21.8088508 93.7353629,23.8195161 L93.7353629,31.4631653 L96.9122177,31.4631653 L96.9122177,23.3129032 C96.9122177,20.0019556 95.3036492,18.0072036 92.0168347,18.0072036 C90.0166935,18.0072036 88.4885081,18.9079839 87.8049798,20.1385887 L87.6922984,20.1385887 L87.6922984,18.3342339 L84.7190323,18.3342339 L84.7190323,31.4711492 L87.8826411,31.4631653 Z" id="Path"></path>
            <path d="M76.2203831,29.1952016 C74.2231452,29.1952016 72.8825806,27.8548185 72.8290524,25.7474395 L82.5396169,25.7474395 L82.5261895,24.7206048 C82.5261895,20.3184073 79.6815726,18.0181996 76.2069556,18.0181996 C72.453629,18.0181996 69.7109879,20.6992742 69.7109879,24.9109476 C69.7109879,29.1228024 72.2553024,31.8039315 76.2069556,31.8039315 C79.5153629,31.8039315 81.6762702,30.0531048 82.3062702,27.4821169 L79.2284879,27.4821169 C78.8880847,28.4686694 78.0515927,29.1952016 76.2203831,29.1952016 Z M76.2069556,20.6455645 C78.2847581,20.6455645 79.5153629,21.8224597 79.5984677,23.4633266 L72.815625,23.4633266 C73.1159274,21.7957863 74.1266129,20.6455645 76.2069556,20.6455645 L76.2069556,20.6455645 Z" id="Shape"></path>
            <path d="M60.217621,31.8198992 C64.9495161,31.8198992 67.6306452,29.1952016 68.2606452,25.2970766 L65.0435081,25.2970766 C64.5662903,27.0745766 63.2712702,28.7152621 60.217621,28.7152621 C57.0728831,28.7152621 54.5554234,26.570504 54.5554234,21.8761694 C54.5554234,17.1817258 57.0728831,15.0423024 60.217621,15.0423024 C63.3625403,15.0423024 64.6225403,16.6830605 65.0435081,18.4336694 L68.2606452,18.4336694 C67.7404234,14.5355988 65.0997581,11.999377 60.217621,11.999377 C54.965504,11.999377 51.1639113,15.6642823 51.1639113,21.9189919 C51.1639113,28.1738105 54.965504,31.8387702 60.217621,31.8387702 L60.217621,31.8198992 Z" id="Path"></path>
            <path d="M46.0085081,18.3344153 L46.0085081,20.1360484 L45.8584476,20.1360484 C45.1478831,18.8787702 43.6706855,18.0047359 41.56875,18.0047359 C38.4909677,18.0047359 35.7162097,20.4390726 35.7162097,24.7340323 C35.7162097,29.0289919 38.4508669,31.4900202 41.56875,31.4900202 C43.5930242,31.4900202 44.7860685,30.6671371 45.7002218,29.2728629 L45.8450202,29.2728629 L45.8450202,32.0396371 C45.8450202,33.5170161 45.0246774,34.2005444 43.6841129,34.2005444 L37.2496573,34.2005444 L37.2496573,37.0262903 L43.6224194,37.0262903 C47.1505645,37.0262903 49.0380242,35.0559073 49.0380242,31.8278831 L49.0380242,18.3344153 L46.0085081,18.3344153 Z M42.4400806,28.6187298 C40.3328831,28.6187298 38.9923185,27.3077419 38.9923185,24.736754 C38.9923185,22.1655847 40.3194556,20.851875 42.4400806,20.851875 C44.4910282,20.851875 45.8584476,22.1628629 45.8584476,24.736754 C45.8584476,27.3104637 44.5044556,28.6187298 42.4400806,28.6187298 Z" id="Shape"></path>
            <path d="M24.753629,31.4631653 L24.753629,23.8599798 C24.753629,21.999375 25.9038508,20.7821976 27.7644556,20.7821976 C29.5419556,20.7821976 30.6088911,21.8090323 30.6088911,23.8196976 L30.6088911,31.4631653 L33.7804839,31.4631653 L33.7804839,23.3129032 C33.7804839,20.0019556 32.1719153,18.0072944 28.8851008,18.0072944 C26.8876815,18.0072944 25.3435282,18.9081653 24.6598185,20.1387702 L24.5498589,20.1387702 L24.5498589,18.3344153 L21.5820363,18.3344153 L21.5820363,31.4711492 L24.753629,31.4631653 Z" id="Path"></path>
            <polygon id="Path" fill-rule="nonzero" points="18.9010887 18.3345968 15.7294052 18.3345968 15.7294052 31.4633468 18.9010887 31.4633468"></polygon>
            <path d="M10.2038407,22.4096371 L10.2038407,22.2809879 C12.1448831,21.7447984 13.4585746,20.4417944 13.4585746,17.5141996 C13.4585746,14.506131 11.2145806,12.315756 7.0563629,12.315756 L0,12.315756 L0,31.4633468 L3.28153427,31.4633468 L3.28153427,23.8601613 L7.27620968,23.8601613 C9.13681452,23.8601613 10.0671169,24.7904637 10.0671169,26.6510685 L10.0671169,31.4767742 L13.3486512,31.4767742 L13.3486512,26.6510685 C13.3486512,23.9432661 12.198502,22.8492944 10.2038407,22.4096371 Z M6.87942944,20.9055847 L3.28153427,20.9055847 L3.28153427,15.2755766 L6.87942944,15.2755766 C8.65691129,15.2755766 10.0242218,16.0155363 10.0242218,18.0933024 C10.0242218,20.1710685 8.64352016,20.9055847 6.87942944,20.9055847 L6.87942944,20.9055847 Z" id="Shape"></path>
            <path d="M17.3138952,16.2270907 C17.7309073,16.2276169 18.1386835,16.1044113 18.4855645,15.8730786 C18.8325,15.6417278 19.1030444,15.3126472 19.2629032,14.9274798 C19.4227621,14.5423306 19.4646774,14.1184052 19.3833871,13.709377 C19.3022782,13.3003669 19.1014113,12.9246532 18.8065524,12.6297762 C18.5116935,12.3349173 18.1360524,12.1341593 17.7270242,12.0529415 C17.3180141,11.9717056 16.8940887,12.0136754 16.5089214,12.173498 C16.1237722,12.3333206 15.7946915,12.6038286 15.5633407,12.9507823 C15.3319899,13.2977177 15.2087843,13.7055121 15.2093105,14.122506 C15.2057359,14.5399355 15.3274899,14.9488367 15.5588226,15.2963165 C15.7901552,15.6437964 16.1204335,15.913869 16.5069254,16.0715867 C16.7625181,16.1778448 17.037127,16.230756 17.3138952,16.2270907 L17.3138952,16.2270907 Z" id="Path"></path>
            <path d="M14.8955988,8.283375 C14.127369,8.6049254 13.4296694,9.07401411 12.8419476,9.66407661 L14.3299052,11.1520343 C14.7199718,10.759754 15.1834718,10.4481653 15.6939859,10.2350504 C16.2044819,10.0219536 16.7519577,9.91148589 17.3051492,9.90999798 C17.8583407,9.90851008 18.4064516,10.016002 18.9179637,10.2263407 C19.4296573,10.4366976 19.8948992,10.7457823 20.2870161,11.1359395 L21.7751008,9.64798185 C20.8914315,8.76621774 19.7664315,8.1660121 18.5421774,7.92313911 C17.3177056,7.68026613 16.0487964,7.8056129 14.8955988,8.283375 L14.8955988,8.283375 Z" id="Path"></path>
        </g>
    </g>
</svg>