<?xml version="1.0" encoding="utf-8"?>
<!-- Generator: Adobe Illustrator 26.0.1, SVG Export Plug-In . SVG Version: 6.00 Build 0)  -->
<svg version="1.1" id="Logo" xmlns="http://www.w3.org/2000/svg" xmlns:xlink="http://www.w3.org/1999/xlink" x="0px" y="0px"
	 viewBox="0 0 968.1 311.5" style="enable-background:new 0 0 968.1 311.5;" xml:space="preserve">
<style type="text/css">
	.st0{fill:#FFFFFF;}
</style>
<g>
	<g>
		<polygon class="st0" points="875.1,78.5 839.2,155.3 825.7,126.2 811.1,126.2 833.3,173.8 845.1,173.8 889.6,78.5 		"/>
		<path class="st0" d="M721.1,221.1H750v-52.9c0-12.1,7-20.6,17.4-20.6c10,0,15.2,7,15.2,17.1v56.4h28.9v-61.9
			c0-21-12.6-35.8-33-35.8c-13,0-22.1,5.6-28.9,15.8H749v-13h-28L721.1,221.1L721.1,221.1z M664.3,123.6
			c-30.2,0-50.4,21.7-50.4,50.3c0,28.4,20.2,50.3,50.4,50.3s50.4-21.9,50.4-50.3C714.8,145.3,694.5,123.6,664.3,123.6z M664.1,202.7
			c-13.7,0-21-11.5-21-28.9c0-17.6,7.2-28.9,21-28.9c13.7,0,21.3,11.3,21.3,28.9C685.5,191.3,677.9,202.7,664.1,202.7z M531.5,221.1
			h81.2v-22.8h-46v-0.6l44-49.3v-22.3h-79.2V149H576v0.6l-44.5,49.7V221.1z M494.4,221.1h29.1v-94.9h-29.1V221.1z M426.9,221.1h28.9
			v-43.6c0-19.8,11.9-28.6,30-26.1h0.6v-25c-1.5-0.6-3.2-0.7-5.9-0.7c-11.3,0-18.9,5.2-25.4,16.3h-0.6v-15.8h-27.6V221.1z
			 M373.7,202.9c-12.8,0-20.6-8.3-22.1-21.1H420c0.2-20.4-5.2-36.7-16.5-46.9c-8-7.4-18.5-11.5-31.9-11.5
			c-28.6,0-48.4,21.7-48.4,50.1c0,28.6,18.9,50.4,50.3,50.4c11.9,0,21.3-3.2,29.1-8.5c8.3-5.7,14.3-14.1,15.9-22.4h-27.8
			C388,199.2,382.2,202.9,373.7,202.9z M372.2,144.1c10.2,0,17.2,7.6,18.4,18.7h-38.8C354.1,151.6,360.2,144.1,372.2,144.1z
			 M265.4,221.1h30.4l33-94.9h-29.1l-18.5,61h-0.4l-18.5-61h-29.9L265.4,221.1z M494.4,92.4h29.1v25.8h-29.1V92.4z"/>
	</g>
	<path class="st0" d="M78.5,186.8h6.3l5.4,19c1.1,3.9,2.2,10,2.2,10h0.1c0,0,1.1-5.8,2.3-9.9l5.2-19.1h5.6l5.1,19.1
		c1,3.6,2.2,10,2.2,10h0.1c0,0,1-5.9,2.2-10.1l5.7-19h6.1l-11.2,34.3H110l-5-18.9c-0.8-3.3-2.2-9.6-2.2-9.6h-0.1
		c0,0-1.3,6.3-2.1,9.6l-5.2,18.9h-6L78.5,186.8z M134.6,173.6h6.2v6.9h-6.2V173.6z M134.8,186.8h5.9v34.3h-5.9V186.8z M148.5,186.8
		h5.4V176h5.9v10.8h7.1v4.6h-7.1V213c0,2.5,1.3,3.2,3.5,3.2c1,0,2.4-0.2,3-0.4h0.2v5c-1.6,0.4-3.2,0.6-4.8,0.6
		c-4.6-0.1-7.8-1.9-7.8-7v-23h-5.4L148.5,186.8L148.5,186.8z M180.6,191.8h0.2c2.5-3.6,6-5.8,11-5.8c7.2,0,11.6,4,11.6,11.2v23.9
		h-5.9v-23.2c0-4.4-2.9-6.9-7.5-6.9c-5.3,0-9.1,3.8-9.1,9.2v20.9H175v-47.5h5.9V186C180.8,187.8,180.6,190.2,180.6,191.8z"/>
</g>
</svg>
