<?xml version="1.0" encoding="UTF-8"?>
<svg width="232px" height="50px" viewBox="0 0 232 50" version="1.1" xmlns="http://www.w3.org/2000/svg" xmlns:xlink="http://www.w3.org/1999/xlink">
    <title>rc-logo2-white</title>
    <defs>
        <filter id="filter-1">
            <feColorMatrix in="SourceGraphic" type="matrix" values="0 0 0 0 1.000000 0 0 0 0 1.000000 0 0 0 0 1.000000 0 0 0 1.000000 0"></feColorMatrix>
        </filter>
    </defs>
    <g id="Page-1" stroke="none" stroke-width="1" fill="none" fill-rule="evenodd">
        <g id="ringcentral_2.0_logo_POS-Copy-2" transform="translate(-346.000000, -106.000000)" filter="url(#filter-1)">
            <g transform="translate(348.000000, 106.000000)">
                <polygon id="Path" fill="#FF7A00" fill-rule="nonzero" points="229 5.85023016 223.624705 5.85023016 223.624705 40.4821649 229 40.4821649"></polygon>
                <path d="M210.134703,17.4599275 C205.173039,17.4599275 201.324648,19.8910297 200.674861,24.8540642 L205.959033,24.8540642 C206.331635,22.9826704 207.699432,21.8588709 210.134703,21.8588709 C212.960943,21.8588709 214.260279,23.4964308 214.260279,26.0697116 L214.260279,27.2393628 L208.835129,27.2393628 C203.837206,27.2393628 200.143151,29.4871545 200.143151,34.0740079 C200.143151,38.661102 203.155693,41.0464006 207.513131,41.0464006 C210.898036,41.0464006 213.124344,39.592103 214.328502,37.2528006 L214.560126,37.2528006 L214.560126,40.463622 L219.658236,40.463622 L219.658236,26.2440636 C219.635574,20.7579731 216.854657,17.4599275 210.134703,17.4599275 Z M209.044329,36.881219 C206.958761,36.881219 205.659186,35.8493154 205.659186,34.1291551 C205.659186,32.1611935 207.049645,31.1338655 209.553139,31.1338655 L214.233085,31.1338655 L214.260279,31.4594509 C214.260279,34.8629264 212.311156,36.881219 209.044329,36.881219 L209.044329,36.881219 Z" id="Shape" fill="#FF7A00"></path>
                <path d="M190.615325,40.4821649 L190.615325,28.8311673 C190.615325,25.367969 192.750749,23.1661494 196.131121,23.1661494 L198.248654,23.1661494 L198.248654,18.0195395 L196.067669,18.0195395 C193.518614,18.0195395 191.664908,19.0011604 190.506073,21.2029078 L190.319772,21.2029078 L190.319772,18.0195395 L185.267462,18.0195395 L185.267462,40.4958915 L190.615325,40.4821649 Z" id="Path" fill="#FF7A00"></path>
                <path d="M181.855125,35.5234892 L181.855125,40.4821649 L178.192796,40.4821649 C173.04507,40.4821649 170.21883,38.0739887 170.21883,32.8769035 L170.21883,22.4781093 L166.55674,22.4781093 L166.55674,18.0195395 L170.21883,18.0195395 L170.21883,12.0564375 L175.598419,12.0564375 L175.598419,18.0195395 L181.855125,18.0195395 L181.855125,22.4781093 L175.598419,22.4781093 L175.598419,32.2483694 C175.598419,34.3080826 176.802576,35.5234892 178.842584,35.5234892 L181.855125,35.5234892 Z" id="Path" fill="#FF7A00"></path>
                <path d="M148.940685,40.4821649 L148.940685,27.4734375 C148.940685,24.2900693 150.890046,22.2074785 154.038795,22.2074785 C157.051097,22.2074785 158.859481,23.9642912 158.859481,27.4045637 L158.859481,40.4821649 L164.243841,40.4821649 L164.243841,26.5376202 C164.243841,20.8726505 161.517549,17.4599275 155.947127,17.4599275 C152.557452,17.4599275 149.967606,19.0011604 148.80901,21.1065807 L148.618176,21.1065807 L148.618176,18.0195395 L143.579225,18.0195395 L143.579225,40.4958915 L148.940685,40.4821649 Z" id="Path" fill="#FF7A00"></path>
                <path d="M129.176086,36.6013889 C125.790943,36.6013889 123.519073,34.3080826 123.428189,30.7025611 L139.885409,30.7025611 L139.862747,28.9457965 C139.862747,21.4139122 135.041823,17.4782778 129.153186,17.4782778 C122.792237,17.4782778 118.144016,22.0652757 118.144016,29.2713819 C118.144016,36.4776086 122.455893,41.0647028 129.153186,41.0647028 C134.760105,41.0647028 138.422195,38.0694131 139.490145,33.6703975 L134.273957,33.6703975 C133.696925,35.3582883 132.279273,36.6013889 129.176086,36.6013889 Z M129.153186,21.9735242 C132.674536,21.9735242 134.760105,23.9872171 134.901083,26.7945726 L123.405527,26.7945726 C123.914336,23.9413654 125.627303,21.9735242 129.153186,21.9735242 L129.153186,21.9735242 Z" id="Shape" fill="#FF7A00"></path>
                <path d="M102.054866,41.092156 C110.074394,41.092156 114.618134,36.6013889 115.685846,29.9319447 L110.233501,29.9319447 C109.424607,32.9732305 107.230025,35.7804416 102.054866,35.7804416 C96.7251318,35.7804416 92.4588161,32.1108626 92.4588161,24.0788723 C92.4588161,16.0471228 96.7251318,12.3866948 102.054866,12.3866948 C107.3846,12.3866948 109.520023,15.1939541 110.233501,18.1892437 L115.685846,18.1892437 C114.804434,11.5197514 110.328918,7.18045856 102.054866,7.18045856 C93.1539262,7.18045856 86.7109189,13.450892 86.7109189,24.1523216 C86.7109189,34.8537754 93.1539262,41.1241847 102.054866,41.1241847 L102.054866,41.092156 Z" id="Path" fill="#FF7A00"></path>
                <path d="M77.973619,18.0195155 L77.973619,21.1019811 L77.7190952,21.1019811 C76.5151759,18.950685 74.0114438,17.4553279 70.4493028,17.4553279 C65.2331147,17.4553279 60.5305066,21.6203169 60.5305066,28.9686742 C60.5305066,36.3169833 65.1651304,40.5279203 70.4493028,40.5279203 C73.8797689,40.5279203 75.9016471,39.1196188 77.4509744,36.734561 L77.6964337,36.734561 L77.6964337,41.4683131 C77.6964337,43.9956941 76.305975,45.1653453 74.0343438,45.1653453 L63.1294168,45.1653453 L63.1294168,50 L73.9296241,50 C79.9091451,50 83.1079873,46.6285532 83.1079873,41.1058826 L83.1079873,18.0195155 L77.973619,18.0195155 Z M71.925875,35.6152407 C68.3546695,35.6152407 66.0827997,33.3722653 66.0827997,28.9732497 C66.0827997,24.5742341 68.332008,22.3267314 71.925875,22.3267314 C75.4019025,22.3267314 77.7190952,24.5696586 77.7190952,28.9732497 C77.7190952,33.3768408 75.424564,35.6152407 71.925875,35.6152407 Z" id="Shape" fill="#0684BC"></path>
                <path d="M41.9514594,40.4821649 L41.9514594,27.4734375 C41.9514594,24.2900693 43.9008209,22.2074785 47.0541017,22.2074785 C50.0664044,22.2074785 51.8747879,23.9642912 51.8747879,27.4045637 L51.8747879,40.4821649 L57.2498446,40.4821649 L57.2498446,26.5376202 C57.2498446,20.8726505 54.5237918,17.4599275 48.9533695,17.4599275 C45.5682263,17.4599275 42.951187,19.0011604 41.7923521,21.1065807 L41.6062897,21.1065807 L41.6062897,18.0195395 L36.5764026,18.0195395 L36.5764026,40.4958915 L41.9514594,40.4821649 Z" id="Path" fill="#0684BC"></path>
                <polygon id="Path" fill="#0684BC" fill-rule="nonzero" points="32.0326631 18.0195395 26.6576063 18.0195395 26.6576063 40.4821649 32.0326631 40.4821649"></polygon>
                <path d="M17.293133,24.9918119 L17.293133,24.7717046 C20.5827402,23.8542135 22.8091201,21.6249406 22.8091201,16.615934 C22.8091201,11.4693001 19.006076,7.72172026 11.9588907,7.72172026 L0,7.72172026 L0,40.4821649 L5.56142094,40.4821649 L5.56142094,27.4734375 L12.3314687,27.4734375 C15.4847495,27.4734375 17.0613898,29.0650012 17.0613898,32.2483694 L17.0613898,40.5050426 L22.6228191,40.5050426 L22.6228191,32.2483694 C22.6228191,27.6155199 20.6736007,25.7441262 17.293133,24.9918119 Z M11.6589962,22.4184829 L5.56142094,22.4184829 L5.56142094,12.7857778 L11.6589962,12.7857778 C14.671442,12.7857778 16.9887062,14.0518042 16.9887062,17.60673 C16.9887062,21.1616557 14.6487329,22.4184829 11.6589962,22.4184829 L11.6589962,22.4184829 Z" id="Shape" fill="#0684BC"></path>
                <path d="M29.3428686,14.4141625 C30.0496672,14.4150776 30.7407221,14.2042659 31.328727,13.808458 C31.9167319,13.4126261 32.3752088,12.8495945 32.6459534,12.1906211 C32.9169366,11.5316237 32.988022,10.8063292 32.8503836,10.1065372 C32.7127451,9.4067212 32.3723463,8.76388262 31.8728403,8.25939378 C31.3730957,7.75488085 30.7361898,7.41142675 30.042988,7.2724509 C29.3497863,7.13347504 28.6312991,7.20526278 27.9786495,7.47871119 C27.3259998,7.75215961 26.7682896,8.21498701 26.3761273,8.80860246 C25.983965,9.40219383 25.7752411,10.0998907 25.7761953,10.813361 C25.7699932,11.5275539 25.9763317,12.2271532 26.368494,12.8216596 C26.7604178,13.4161661 27.3202748,13.878247 27.9753099,14.1481072 C28.4085013,14.3299004 28.8738959,14.4204238 29.3428686,14.4141625 L29.3428686,14.4141625 Z" id="Path" fill="#FF7A00"></path>
                <path d="M25.2444862,0.822868395 C23.9425264,1.37304998 22.7600998,2.1756277 21.7640695,3.18517372 L24.2857877,5.73095318 C24.9467863,5.05981854 25.7323037,4.52669648 26.5974939,4.16207451 C27.4626841,3.79747662 28.3906107,3.60848295 29.328079,3.60593028 C30.2655473,3.60337761 31.1944281,3.78729004 32.0615266,4.14719198 C32.9286252,4.50709392 33.7172435,5.03590535 34.3818203,5.70342773 L36.903443,3.15764827 C35.4061177,1.64901012 33.4994551,0.622089106 31.4243822,0.20654625 C29.3493092,-0.208998533 27.1988571,0.00546882953 25.2444862,0.822868395 L25.2444862,0.822868395 Z" id="Path" fill="#FF7A00"></path>
            </g>
        </g>
    </g>
</svg>