<?xml version="1.0" encoding="utf-8"?>
<!-- Generator: Adobe Illustrator 26.0.1, SVG Export Plug-In . SVG Version: 6.00 Build 0)  -->
<svg version="1.1" id="Layer_1" xmlns="http://www.w3.org/2000/svg" xmlns:xlink="http://www.w3.org/1999/xlink" x="0px" y="0px"
	 viewBox="0 0 256 248" style="enable-background:new 0 0 256 248;" xml:space="preserve">
<style type="text/css">
	.st0{fill:#FFFFFF;}
</style>
<path class="st0" d="M59.3,152.7v-35.7H78h17v35.7H59.3z"/>
<path class="st0" d="M168.3,152.7v-35.7h20.5H204v35.7H168.3z"/>
<path class="st0" d="M202.2,35.7H61.1L59.4,98l9.3,1.6c1.7-18.4,6.5-31.9,14.4-40.8c8.3-9.3,19.7-14.1,34.4-14.6v130.3
	c0,11.4-1.6,18.7-4.9,22.2c-2.8,2.9-7.6,4.7-14.3,5.4c-2,0.2-5.4,0.2-10.2,0.2v10h87.1v-10c-4.8,0-8.2-0.1-10.2-0.2
	c-6.7-0.7-11.5-2.4-14.3-5.4c-3.3-3.4-4.9-10.8-4.9-22.2V44.2c14.7,0.4,26.2,5.3,34.4,14.6c7.9,8.9,12.7,22.5,14.4,40.8L204,98
	L202.2,35.7z"/>
</svg>
