<?xml version="1.0" encoding="utf-8"?>
<!-- Generator: Adobe Illustrator 26.0.1, SVG Export Plug-In . SVG Version: 6.00 Build 0)  -->
<svg version="1.1" id="Layer_1" xmlns="http://www.w3.org/2000/svg" xmlns:xlink="http://www.w3.org/1999/xlink" x="0px" y="0px"
	 viewBox="0 0 36 36" style="enable-background:new 0 0 36 36;" xml:space="preserve">
<style type="text/css">
	.st0{fill:#FFFFFF;}
</style>
<path class="st0" d="M7.1,32c3,2.3,6.8,3.7,10.9,3.7c4.5,0,8.6-1.7,11.7-4.4c-1.4,0.9-5.4,3-11.7,3C12.5,34.3,9,33.1,7.1,32
	 M19.2,32.9c4.4,0,9.2-1.2,12-3.6c0.8-0.6,1.5-1.5,2.2-2.6c0.4-0.7,0.8-1.5,1.1-2.2c-2.7,3.9-10.4,6.4-18.4,6.4
	c-5.6,0-11.7-1.8-14.1-5.3C4.2,30.4,10.9,32.9,19.2,32.9 M14.4,25.1C5.3,25.1,1,20.9,0.3,18c0,1,0.1,2.2,0.3,3.1
	c0.1,0.4,0.4,1,0.9,1.6c2.2,2.3,7.7,5.5,17.2,5.5c12.9,0,15.9-4.3,16.5-5.7c0.4-1,0.7-2.8,0.7-4.4v-1C35,20.5,24,25.1,14.4,25.1
	 M1.9,10.4c-0.5,1-1.1,2.8-1.3,3.7c-0.1,0.4,0,0.6,0.1,0.9c1.1,2.3,6.6,6,19.4,6c7.8,0,13.9-1.9,14.9-5.4c0.2-0.6,0.2-1.3,0-2.2
	c-0.3-1-0.7-2.2-1.2-3.1c0.1,4.6-12.7,7.6-19.2,7.6c-7,0-12.9-2.8-12.9-6.3C1.8,11.1,1.9,10.7,1.9,10.4 M29.7,4.7
	c0.1,0.1,0.1,0.2,0.1,0.4c0,2-6,5.4-15.6,5.4c-7.1,0-8.4-2.6-8.4-4.3C5.8,5.6,6,5,6.5,4.4C5.6,5.3,4.8,6.1,4,7.1
	c-0.3,0.4-0.5,0.8-0.5,1c0,3.5,8.7,5.9,16.7,5.9c8.6,0,12.5-2.8,12.5-5.3c0-0.9-0.3-1.4-1.2-2.4C30.9,5.7,30.3,5.2,29.7,4.7
	 M27.1,2.8c-2.7-1.6-5.7-2.5-9.1-2.5s-6.5,0.9-9.2,2.6C8,3.3,7.5,3.7,7.5,4.2c0,1.5,3.5,3.1,9.7,3.1c6.1,0,10.9-1.8,10.9-3.5
	C28.2,3.5,27.8,3.2,27.1,2.8"/>
</svg>
