<?xml version="1.0" encoding="UTF-8"?>
<svg width="139px" height="18px" viewBox="0 0 139 18" version="1.1" xmlns="http://www.w3.org/2000/svg" xmlns:xlink="http://www.w3.org/1999/xlink">
    <!-- Generator: Sketch 55.2 (78181) - https://sketchapp.com -->
    <title>ATT logo (1)</title>
    <desc>Created with Sketch.</desc>
    <g id="Symbols" stroke="none" stroke-width="1" fill="none" fill-rule="evenodd">
        <g id="topbar/att" transform="translate(-20.000000, -22.000000)" fill="#FFFFFF" fill-rule="nonzero">
            <g id="ATT-logo-(1)" transform="translate(20.000000, 21.000000)">
                <path d="M3.748343,9.63428572 L7.40523561,9.63428572 L5.56836306,4.29744363 L3.748343,9.63428572 Z M4.62464886,2.29824561 L6.57948561,2.29824561 L11.0284238,14.1578947 L8.95562334,14.1578947 L7.9782047,11.3285213 L3.15852143,11.3285213 L2.19795527,14.1578947 L0.175710594,14.1578947 L4.62464886,2.29824561 Z" id="Fill-4"></path>
                <polygon id="Fill-6" points="13.4395964 4.07719298 9.67183463 4.07719298 9.67183463 2.29824561 19.1679587 2.29824561 19.1679587 4.07719298 15.4001969 4.07719298 15.4001969 14.1578947 13.4395964 14.1578947"></polygon>
                <path d="M21.653664,5.09573794 C21.653664,5.40277977 21.7305867,5.69005002 21.8856038,5.95716088 C22.0398396,6.2246595 22.3690064,6.62513197 22.8731046,7.15974145 C23.5372949,6.77322538 24.0160123,6.41500992 24.3080846,6.08509501 C24.6001563,5.75556775 24.7461925,5.41402248 24.7461925,5.0616222 C24.7461925,4.67510613 24.6110897,4.36224912 24.3424458,4.12343876 C24.0730212,3.88462845 23.7149591,3.7652233 23.268651,3.7652233 C22.7872009,3.7652233 22.3979012,3.88734219 22.1003625,4.13196774 C21.8024334,4.37659322 21.653664,4.69797921 21.653664,5.09573794 M22.6501458,13.0788259 C23.5779039,13.0788259 24.3791499,12.6581941 25.0554454,11.8161551 L22.3237122,8.98493465 C21.7278535,9.34896529 21.2897456,9.71570973 21.0093875,10.0851679 C20.7286391,10.4550138 20.5880694,10.8558739 20.5880694,11.2877485 C20.5880694,11.8223579 20.7743241,12.2542324 21.1464427,12.5841474 C21.5185613,12.9140623 22.0195354,13.0788259 22.6501458,13.0788259 M22.4264056,14.6140351 C21.3038021,14.6140351 20.4049388,14.3240511 19.7290337,13.7440832 C19.0535196,13.1641152 18.7157623,12.3965106 18.7157623,11.4412694 C18.7157623,10.7589542 18.9391115,10.1250989 19.3854196,9.53892806 C19.8325084,8.9539203 20.4963089,8.43326728 21.3787729,7.97851968 C20.817276,7.38730909 20.43071,6.88681535 20.218684,6.47742626 C20.0066586,6.06803712 19.9012315,5.62453224 19.9012315,5.14691157 C19.9012315,4.30526026 20.2132176,3.62023133 20.8371898,3.09143703 C21.4615524,2.56264274 22.2659221,2.29824561 23.2514704,2.29824561 C24.2362379,2.29824561 25.0238173,2.5428711 25.6138187,3.03173443 C26.2034297,3.52098546 26.4982346,4.16879721 26.4982346,4.97633279 C26.4982346,6.12502593 25.6048377,7.17679934 23.8184343,8.13204063 L26.0519266,10.4689702 C26.2807428,10.1390553 26.5099488,9.76416961 26.738765,9.34315011 L27.443174,8.02969331 L29.2299683,8.02969331 L28.2166969,9.87194441 C27.953129,10.3611954 27.6091239,10.9182903 27.1858539,11.5436167 L30.0206718,14.4263984 L27.7180656,14.4263984 L26.1546205,12.8400156 C25.6395899,13.4428565 25.078093,13.8890752 24.4713014,14.1790591 C23.8637284,14.4690431 23.182357,14.6140351 22.4264056,14.6140351" id="Fill-8"></path>
                <polygon id="Fill-10" points="32.4316911 4.07719298 28.6640827 4.07719298 28.6640827 2.29824561 38.1602067 2.29824561 38.1602067 4.07719298 34.3925983 4.07719298 34.3925983 14.1578947 32.4316911 14.1578947"></polygon>
                <path d="M49.0129199,3.13640351 C48.1143444,3.13640351 47.3235824,3.36732457 46.641022,3.82916663 C45.9584612,4.29100875 45.4321919,4.92390348 45.0626009,5.72785088 C44.6926216,6.53179822 44.5080203,7.44148723 44.5080203,8.45614035 C44.5080203,9.5166667 44.7042563,10.4516248 45.0967287,11.2614035 C45.4892012,12.0711822 46.0267174,12.6928031 46.7092783,13.1258772 C47.3918387,13.5597289 48.1597192,13.7758772 49.0129199,13.7758772 C49.9111076,13.7758772 50.7022574,13.5449561 51.3848183,13.0831141 C52.0673786,12.621272 52.5932607,11.9883772 52.9632394,11.1844298 C53.3328304,10.3804825 53.5178201,9.4711822 53.5178201,8.45614035 C53.5178201,7.39561401 53.3215835,6.46065588 52.9291116,5.65087721 C52.5366391,4.84148725 51.9991224,4.21986641 51.316562,3.78640352 C50.6340017,3.35332935 49.8661206,3.13640351 49.0129199,3.13640351 M49.0129199,2.29824561 C50.0821357,2.29824561 51.0291883,2.57192978 51.8540787,3.11929823 C52.6785809,3.66666663 53.3157665,4.40530303 53.7652484,5.33442982 C54.214342,6.26394538 54.4392765,7.30464512 54.4392765,8.45614035 C54.4392765,9.66517148 54.197278,10.739693 53.714056,11.6804824 C53.2304463,12.621272 52.5792992,13.3455244 51.7602263,13.8528509 C50.9411535,14.3601775 50.0251263,14.6140351 49.0129199,14.6140351 C47.9433164,14.6140351 46.9966515,14.3403509 46.1717616,13.7929825 C45.3468717,13.2456141 44.7096856,12.5073665 44.260592,11.5778509 C43.8111101,10.6483353 43.5865633,9.60802431 43.5865633,8.45614035 C43.5865633,7.247498 43.828174,6.17258771 44.3117838,5.23179826 C44.7950057,4.29100875 45.4465412,3.56675635 46.2656135,3.05942979 C47.0846863,2.55210323 48.0003257,2.29824561 49.0129199,2.29824561" id="Fill-12"></path>
                <g id="Fill-14-Clipped" transform="translate(55.343669, 0.929825)">
                    <path d="M12.6977856,13.2148872 L13.5520037,13.2148872 L13.5520037,4.40555363 L12.6977856,4.40555363 L12.6977856,13.2148872 Z M12.475689,1.58900357 C12.475689,1.40663985 12.5354842,1.25880877 12.6550747,1.14512243 C12.7746651,1.03143609 12.9311426,0.974398935 13.1248947,0.974398935 C13.3186467,0.974398935 13.4751242,1.03143609 13.5947146,1.14512243 C13.7143051,1.25880877 13.7741003,1.40663985 13.7741003,1.58900357 C13.7741003,1.77097933 13.7143051,1.91919837 13.5947146,2.03288477 C13.4751242,2.14657111 13.3186467,2.20360827 13.1248947,2.20360827 C12.9311426,2.20360827 12.7746651,2.14657111 12.6550747,2.03288477 C12.5354842,1.91919837 12.475689,1.77097933 12.475689,1.58900357 Z M8.15334529,4.40555363 L13.0223885,4.40555363 L13.0223885,5.12298039 L8.15334529,5.12298039 L8.15334529,13.2152751 L7.29912723,13.2152751 L7.29912723,5.12298039 L5.60777538,5.12298039 L5.60777538,4.40555363 L7.29912723,4.40555363 L7.29912723,3.46696228 C7.29912723,2.45387343 7.53830816,1.6631131 8.01667055,1.09351741 C8.49503241,0.52469768 9.16714688,0.240287785 10.0326252,0.240287785 C10.5222474,0.240287785 10.9610049,0.331469676 11.3481209,0.513445427 L11.1601933,1.19633953 C10.7614283,1.07101291 10.3972212,1.00854361 10.0667938,1.00854361 C9.46301696,1.00854361 8.99319697,1.21923196 8.65733383,1.64022067 C8.32147123,2.06120933 8.15334529,2.65874166 8.15334529,3.4328176 L8.15334529,4.40555363 Z M2.7546869,4.40555363 L7.62373007,4.40555363 L7.62373007,5.12298039 L2.7546869,5.12298039 L2.7546869,13.2152751 L1.90046883,13.2152751 L1.90046883,5.12298039 L0.209116982,5.12298039 L0.209116982,4.40555363 L1.90046883,4.40555363 L1.90046883,3.46696228 C1.90046883,2.45387343 2.1396503,1.6631131 2.61801216,1.09351741 C3.09637455,0.52469768 3.7681003,0.240287785 4.63396685,0.240287785 C5.12358901,0.240287785 5.56195834,0.331469676 5.9494625,0.513445427 L5.76153493,1.19633953 C5.36277047,1.07101291 4.99817457,1.00854361 4.6681354,1.00854361 C4.06435856,1.00854361 3.59453858,1.21923196 3.25867597,1.64022067 C2.92281283,2.06120933 2.7546869,2.65874166 2.7546869,3.4328176 L2.7546869,4.40555363 Z" id="Fill-14"></path>
                </g>
                <g id="Fill-16-Clipped" transform="translate(70.266150, 5.035088)">
                    <path d="M4.47280685,9.73135343 C3.59137552,9.73135343 2.81987532,9.52822402 2.15870271,9.12275569 C1.4975301,8.71728736 0.987019444,8.16045997 0.627566085,7.45306389 C0.267717377,6.74606302 0.0881883721,5.95211961 0.0881883721,5.0712337 C0.0881883721,4.14371496 0.279580588,3.32645513 0.66236447,2.6190591 C1.0451489,1.9124534 1.56712742,1.36708663 2.22830003,0.984934661 C2.88947264,0.601992368 3.63764176,0.411113961 4.47280685,0.411113961 C4.95998698,0.411113961 5.40366886,0.469207419 5.80385194,0.584603847 C6.20403556,0.700790706 6.61885039,0.897596951 7.04790052,1.17620828 L6.7521126,1.83657632 C6.34599764,1.60499303 5.97507697,1.43980222 5.63855879,1.34139904 C5.30204115,1.24299592 4.91332539,1.19359675 4.47280685,1.19359675 C3.77683585,1.19359675 3.16469748,1.36471545 2.63718298,1.70616249 C2.10887723,2.0483999 1.70038963,2.51235691 1.41053359,3.09724302 C1.1202822,3.68291951 0.975551583,4.34052126 0.975551583,5.0712337 C0.975551583,5.83632796 1.12937687,6.51408452 1.43663266,7.10529374 C1.74388789,7.69689818 2.1614707,8.15176568 2.68938056,8.47068673 C3.21689561,8.78921251 3.81163424,8.94887065 4.47280685,8.94887065 C4.9251886,8.94887065 5.34553941,8.89670508 5.73425517,8.79237407 C6.12297093,8.68764784 6.5085228,8.52561858 6.89130724,8.30549592 L7.18709516,8.96586395 C6.43299415,9.47605852 5.52823175,9.73135343 4.47280685,9.73135343" id="Fill-16"></path>
                </g>
                <g id="Fill-17-Clipped" transform="translate(77.501292, 5.035088)">
                    <path d="M4.35429248,1.19339917 C3.79273295,1.19339917 3.28549287,1.34120146 2.83257171,1.6368061 C2.37965054,1.93241068 2.01582907,2.33827423 1.7407155,2.85400153 C1.46560248,3.37012404 1.29951798,3.94671108 1.24207295,4.58415791 L7.15700946,4.58415791 L7.15700946,4.44544507 C7.15700946,3.81945881 7.03664744,3.25117084 6.79592341,2.74097622 C6.55519884,2.23078166 6.22537566,1.84546813 5.80723473,1.58464053 C5.38831186,1.32381294 4.90451907,1.19339917 4.35429248,1.19339917 M4.68098953,9.7311558 C3.7982038,9.7311558 3.03030922,9.52842166 2.37691512,9.12255811 C1.72352101,8.71708972 1.22175178,8.16342388 0.87238938,7.46195575 C0.522635736,6.76088278 0.347954264,5.96377781 0.347954264,5.07143128 C0.347954264,4.15537317 0.531233256,3.34087973 0.898180853,2.62795097 C1.26512899,1.91502216 1.75204845,1.36728421 2.35972062,0.984737081 C2.96700209,0.602189948 3.63211984,0.410916382 4.35429248,0.410916382 C5.09913047,0.410916382 5.74978915,0.59072932 6.30587729,0.949960094 C6.86157527,1.30919081 7.28870442,1.80199691 7.58648333,2.42798312 C7.88465295,3.05396938 8.0339331,3.76136541 8.0339331,4.54938093 C8.0339331,4.80467579 8.02260016,5.05957549 7.99954411,5.31447519 L1.22487791,5.31447519 C1.25926744,6.04479247 1.43121295,6.68540086 1.7407155,7.23590515 C2.05021806,7.78680465 2.45976202,8.2096615 2.97012822,8.50526614 C3.48010426,8.80087072 4.05065147,8.94867301 4.68098953,8.94867301 C5.26560512,8.94867301 5.76424822,8.89374116 6.17691829,8.7834822 C6.58958837,8.6736185 7.0249238,8.48511128 7.48370651,8.21835579 L7.79320907,8.87911898 C7.32309341,9.18065151 6.84438078,9.39800783 6.35746132,9.531188 C5.87015116,9.66436816 5.31132705,9.7311558 4.68098953,9.7311558" id="Fill-17"></path>
                </g>
                <g id="Fill-18-Clipped" transform="translate(86.545220, 2.754386)">
                    <path d="M6.54616706,10.7466229 C6.96160174,10.7466229 7.41083718,10.6264296 7.89544567,10.386043 C8.37926773,10.1456564 8.82300087,9.81356398 9.22664454,9.39015584 L10.2819352,5.61265269 C10.0398277,5.38397327 9.74269557,5.20329313 9.39093185,5.07178293 C9.03956161,4.9402728 8.6846538,4.87432257 8.32738779,4.87432257 C7.68202901,4.87432257 7.09641178,5.05461251 6.5721073,5.41519233 C6.04740934,5.77577215 5.63826338,6.24796008 5.34427538,6.83175602 C5.05028794,7.4155519 4.90329394,8.05085929 4.90329394,8.73806828 C4.90329394,9.36752205 5.04753624,9.86000227 5.335629,10.2143383 C5.62372121,10.5694548 6.02775782,10.7466229 6.54616706,10.7466229 M11.1116257,12.0687489 C10.5008541,12.0687489 10.0225343,11.9142147 9.67666585,11.6051463 C9.33040497,11.2960778 9.15157549,10.8668161 9.14057036,10.3173612 C8.76011579,10.6837946 8.32424315,10.9729608 7.83452585,11.1844698 C7.34441506,11.396369 6.85744836,11.5025137 6.3736263,11.5025137 C5.64730325,11.5025137 5.07662112,11.2617369 4.66118589,10.7809638 C4.24614469,10.3001907 4.03862382,9.65356643 4.03862382,8.84070081 C4.03862382,7.97125075 4.24024891,7.16658014 4.64389258,6.42864022 C5.04753624,5.68991984 5.5777365,5.12056268 6.23488575,4.71978833 C6.89242794,4.31940424 7.61875099,4.11882196 8.41385436,4.11882196 C8.81749857,4.11882196 9.20660007,4.1906257 9.58155235,4.33345281 C9.95571874,4.47667013 10.2701441,4.6741305 10.5236497,4.92583396 L10.7657572,4.27335615 L11.4920803,4.27335615 L10.108608,9.25279208 C10.0162456,9.55093385 9.97065385,9.84790494 9.97065385,10.1456564 C9.97065385,10.5351139 10.0626233,10.82389 10.246955,11.0127651 C10.4316803,11.2016403 10.7197725,11.2960778 11.1116257,11.2960778 C11.7341878,11.2960778 12.2966165,11.0873006 12.7977324,10.6693558 C13.2996342,10.2514109 13.6887357,9.69688282 13.9650369,9.00382027 C14.2417316,8.31153823 14.3804716,7.54745236 14.3804716,6.71156269 C14.3804716,5.56699486 14.13522,4.57383936 13.6451092,3.73248639 C13.1549984,2.89113342 12.475053,2.24450916 11.6044876,1.79222342 C10.7339217,1.34032788 9.72854634,1.11398991 8.5867886,1.11398991 C7.12274497,1.11398991 5.80255069,1.46598451 4.62659926,2.16997372 C3.45064783,2.87396294 2.53999301,3.79843662 1.89424184,4.94300445 C1.24849012,6.08796248 0.92581128,7.33555316 0.92581128,8.68616663 C0.92581128,9.94546443 1.1852121,11.0303259 1.70440722,11.9399704 C2.22281646,12.8500053 2.95503475,13.5454093 3.9006697,14.0261824 C4.84551821,14.5069555 5.95858456,14.7473421 7.23829642,14.7473421 C7.82627186,14.7473421 8.43154117,14.6845138 9.05410378,14.5588572 C9.67666585,14.4324201 10.2642489,14.2548618 10.8176377,14.0261824 L11.0082582,14.7473421 C9.9010871,15.2624561 8.63316625,15.5200132 7.20370925,15.5200132 C5.71647651,15.5200132 4.43362056,15.2394321 3.35592727,14.6786602 C2.27784104,14.1178883 1.45601099,13.3249248 0.891224105,12.3005503 C0.326437762,11.2761757 0.0438478459,10.0769746 0.0438478459,8.70333711 C0.0438478459,7.08931305 0.435700492,5.64426201 1.21979873,4.36779372 C2.00350457,3.0917157 3.04464596,2.10129185 4.34165114,1.39730263 C5.63826338,0.69331342 7.05946694,0.341318814 8.60408192,0.341318814 C9.95296759,0.341318814 11.1316702,0.613314621 12.1405831,1.15691609 C13.1494956,1.70090775 13.9221963,2.45328645 14.4582918,3.41483269 C14.9939943,4.37637899 15.262435,5.47528899 15.262435,6.71156269 C15.262435,7.76481486 15.0745662,8.69787375 14.7000063,9.51034911 C14.325447,10.3232147 13.8239387,10.9526685 13.1954803,11.3991007 C12.5670224,11.8455329 11.8729283,12.0687489 11.1116257,12.0687489" id="Fill-18"></path>
                </g>
                <g id="Fill-19-Clipped" transform="translate(103.276486, 2.298246)">
                    <polygon id="Fill-19" points="0.0881548868 0.172275564 0.96474183 0.172275564 0.96474183 5.74924378 7.91000479 5.74924378 7.91000479 0.172275564 8.7865912 0.172275564 8.7865912 12.2961196 7.91000479 12.2961196 7.91000479 6.58059307 0.96474183 6.58059307 0.96474183 12.2961196 0.0881548868 12.2961196"></polygon>
                </g>
                <g id="Fill-20-Clipped" transform="translate(113.677003, 5.035088)">
                    <path d="M3.20809932,8.94871254 C3.74194105,8.94871254 4.28962274,8.826993 4.85233152,8.58355393 C5.41503976,8.34011485 5.91091922,8.01605628 6.34036525,7.60979757 L6.34036525,5.21018365 L3.53908098,5.21018365 C1.98421793,5.21018365 1.20718175,5.85988148 1.20718175,7.15769641 C1.20718175,7.69081217 1.39264264,8.12275848 1.76435455,8.4531401 C2.13527523,8.78352173 2.61691938,8.94871254 3.20809932,8.94871254 M3.12110281,9.73119533 C2.25113879,9.73119533 1.56703046,9.50237838 1.06838301,9.04434932 C0.569340213,8.58671548 0.31981854,7.96349561 0.31981854,7.17508488 C0.31981854,6.29419897 0.580808075,5.62474148 1.10318194,5.16671243 C1.62476457,4.70868332 2.39626476,4.47986642 3.41689073,4.47986642 L6.34036525,4.47986642 L6.34036525,4.04515373 C6.34036525,2.14427385 5.5225988,1.1934387 3.88706647,1.1934387 C3.39949154,1.1934387 2.93287448,1.25745999 2.48642461,1.38471226 C2.03957939,1.51235969 1.56703046,1.71509389 1.06838301,1.99331 L0.755195898,1.33254675 C1.32304532,1.00809302 1.86005039,0.773348181 2.36423437,0.628312229 C2.86920849,0.483671492 3.41689073,0.410955909 4.00846602,0.410955909 C6.14264635,0.410955909 7.20993391,1.59337435 7.20993391,3.95821123 L7.20993391,9.55731028 L6.49656318,9.55731028 L6.37516363,8.44444587 C5.92238708,8.83884879 5.40634044,9.15184195 4.82662781,9.38342523 C4.24612448,9.61540368 3.67787972,9.73119533 3.12110281,9.73119533" id="Fill-20"></path>
                </g>
                <g id="Fill-21-Clipped" transform="translate(122.268734, 5.035088)">
                    <path d="M0.406656912,9.55731028 L0.406656912,0.584840954 L1.12042245,0.584840954 L1.241822,1.69770537 C2.32097332,0.839740656 3.42859525,0.410955909 4.56548014,0.410955909 C5.56277558,0.410955909 6.31964402,0.709326886 6.83608656,1.306464 C7.35173786,1.90360111 7.61035475,2.78764858 7.61035475,3.95821123 L7.61035475,9.55731028 L6.74039018,9.55731028 L6.74039018,4.04515373 C6.74039018,2.16719505 5.94555946,1.22821568 4.35629338,1.22821568 C3.2779333,1.22821568 2.25098065,1.65146775 1.27662093,2.49757667 L1.27662093,9.55731028 L0.406656912,9.55731028 Z" id="Fill-21"></path>
                </g>
                <g id="Fill-22-Clipped" transform="translate(130.860465, 0.929825)">
                    <path d="M4.16455558,12.6175876 C4.69211628,12.6175876 5.18450659,12.5209736 5.6432893,12.3273577 C6.10168132,12.1341297 6.58312992,11.8210072 7.08763457,11.3883783 L7.08763457,6.13009395 C6.70974473,5.76614245 6.28535101,5.48716469 5.81562605,5.29354871 C5.34511969,5.09993273 4.86367163,5.00331876 4.37089008,5.00331876 C3.41971705,5.00331876 2.65455845,5.35330197 2.07541372,6.05326838 C1.49665915,6.7532348 1.20747775,7.67242572 1.20747775,8.81045322 C1.20747775,9.93722841 1.47946465,10.8533153 2.02382969,11.5591018 C2.56819473,12.2648884 3.28176984,12.6175876 4.16455558,12.6175876 Z M7.94775442,0.410856105 L7.94775442,13.2151199 L7.24238558,13.2151199 L7.12202357,12.1907788 C6.59485357,12.6237958 6.09073961,12.9310981 5.60890031,13.1126859 C5.12784295,13.2946616 4.60028171,13.3858434 4.02699853,13.3858434 C3.28176984,13.3858434 2.62837574,13.1867954 2.0672069,12.7883112 C1.50525667,12.3902149 1.07539209,11.8466158 0.777222481,11.1579015 C0.479052868,10.4695754 0.330163411,9.68696325 0.330163411,8.81045322 C0.330163411,7.8885462 0.502108915,7.08032553 0.846391705,6.38617923 C1.19028326,5.69203292 1.66000822,5.16007396 2.25595674,4.78991437 C2.85229597,4.42014275 3.52835597,4.23506293 4.28530829,4.23506293 C4.76636566,4.23506293 5.24781426,4.32042465 5.72926233,4.49114821 C6.21071093,4.66187171 6.66363155,4.9125249 7.08763457,5.24233167 L7.08763457,0.410856105 L7.94775442,0.410856105 Z" id="Fill-22"></path>
                </g>
            </g>
        </g>
    </g>
</svg>