<svg xmlns="http://www.w3.org/2000/svg" xmlns:xlink="http://www.w3.org/1999/xlink" width="60" height="60" viewBox="0 0 60 60">
    <defs>
        <path id="a" d="M0 0h60v56H0z"/>
        <path id="c" d="M0 0h60v56H0z"/>
        <path id="e" d="M.157.1H11.75v5.464H.157z"/>
    </defs>
    <g fill="none" fill-rule="evenodd">
        <g transform="translate(0 4)">
            <mask id="b" fill="#fff">
                <use xlink:href="#a"/>
            </mask>
            <path fill="#E7E7E7" d="M13.043 0h33.913C54.16 0 60 5.85 60 13.067v29.865C60 50.15 54.16 56 46.956 56H13.043C5.84 56 0 50.15 0 42.932V13.067C0 5.851 5.84 0 13.043 0" mask="url(#b)"/>
        </g>
        <mask id="d" fill="#fff">
            <use xlink:href="#c"/>
        </mask>
        <path fill="#00B9F2" d="M12.937 0h34.068C54.15 0 59.94 5.808 59.94 12.973L60 42.933C60 50.15 54.166 56 46.97 56H13.09C5.892 56 .058 50.15.058 42.932l-.06-29.959C0 5.808 5.793 0 12.938 0" mask="url(#d)"/>
        <path fill="#FFF" d="M0 26.368s2.263-2.808 6.248-2.867c0 0-1.407-5.851 4.453-8.718 0 0 5.039-2.048 8.261 1.229 0 0 1.875-9.597 12.774-11.82 0 0 8.203-1.58 13.887 4.33 0 0 4.16 3.394 4.804 9.362 0 0 2.098-1 4.374.296 2.276 1.297 2.42 3.57 2.453 3.97 0 0 .192 2.049-1.106 3.362 0 0 2.639.736 3.852 2.177v17.13c0 7.142-5.797 12.931-12.95 12.931h-34.1C5.797 57.75 0 51.96 0 44.819v-18.45z"/>
        <path fill="#F5F5F6" d="M6.464 26.382h.535l-.02-.532-.013-.291h-.502C3.18 25.559.5 28.238.5 31.532c0 .136.01.272.022.408a5.968 5.968 0 0 1 5.942-5.558m6.846-9.564a5.602 5.602 0 0 1 5.85 4.85 5.328 5.328 0 0 0 0-.456c-.168-3.099-2.809-5.475-5.9-5.307-3.091.168-5.461 2.816-5.294 5.915.007.154.03.303.05.453a5.612 5.612 0 0 1 5.294-5.455m39.324 2.656a3.255 3.255 0 0 1 2.84 3.378c.017-.087.036-.171.046-.262a3.257 3.257 0 0 0-2.858-3.609 3.252 3.252 0 0 0-3.592 2.797 3.29 3.29 0 0 0-.02.264 3.254 3.254 0 0 1 3.584-2.568M34.435 5.5c-.456 0-.901.022-1.345.062-.112.01-.222.028-.335.04-.336.037-.67.081-.998.14-.102.017-.205.04-.309.062-.342.068-.682.146-1.015.238-.069.018-.135.04-.203.06-.38.108-.753.233-1.118.37-.016.009-.034.014-.053.023-3.249 1.245-5.862 3.585-7.264 6.572l-.085.185a12.572 12.572 0 0 0-.475 1.24c-.071.223-.133.447-.188.676-.05.18-.094.358-.131.54-.012.07-.034.135-.046.207v.08c-.126.66-.19 1.33-.194 2.001 0 .204.017.406.027.605.199-5.416 4.204-9.969 9.655-11.511l.113-.034a14.3 14.3 0 0 1 1.076-.246c.078-.015.156-.035.24-.05.334-.06.676-.103 1.021-.14.101-.01.196-.026.296-.035.44-.039.882-.06 1.331-.06 7.424 0 13.487 5.38 13.732 12.076.007-.2.026-.401.026-.605 0-6.892-6.172-12.496-13.758-12.496"/>
        <path fill="#FCB314" d="M12.5 30.05c.031 1.696 3.44 7.888 8.626 13.074S32.504 51.718 34.2 51.75c1.666 0 3.389-1.198 4.995-2.805.061-.06.115-.119.172-.176a.066.066 0 0 0 .015-.018c.071-.072.137-.145.203-.216l.044-.05c.062-.07.12-.137.177-.205.016-.02.032-.037.047-.057.052-.064.102-.125.147-.185l.053-.073c.042-.054.08-.109.115-.16.02-.029.038-.058.056-.088.029-.045.058-.09.083-.132l.052-.1c.017-.035.037-.07.052-.103.017-.04.029-.074.04-.11.008-.025.02-.052.025-.074a.667.667 0 0 0 .022-.146l.002-.013c0-.293-.385-.817-.973-1.436a15.516 15.516 0 0 0-.266-.27c-.603-.603-1.404-1.27-2.14-1.94a24.808 24.808 0 0 0-.67-.547c-1.562-1.233-3.095-2.13-3.68-2.13a1.523 1.523 0 0 0-.453.044c-.43.11-.793.399-1.12.725-.334.334-.536.67-.803.936-.268.267-.569.435-.802.47-1.004 0-3.38-1.573-5.02-3.213-1.641-1.641-3.213-4.017-3.213-5.02.034-.234.2-.536.469-.803.267-.267.602-.468.937-.804.326-.325.614-.69.724-1.119.037-.148.052-.3.044-.453 0-.585-.896-2.118-2.13-3.68a24.618 24.618 0 0 0-.546-.669c-.67-.737-1.338-1.538-1.941-2.14a10.725 10.725 0 0 0-.273-.267c-.617-.588-1.14-.973-1.434-.973a.646.646 0 0 0-.158.024c-.022.005-.05.017-.073.024-.035.013-.073.024-.11.041-.035.015-.07.034-.104.053a2.604 2.604 0 0 0-.233.134c-.03.019-.058.036-.086.056a3.165 3.165 0 0 0-.161.114l-.072.054c-.06.045-.123.095-.187.148l-.056.047a5.788 5.788 0 0 0-.205.177l-.049.044a8.695 8.695 0 0 0-.235.217c-.058.057-.117.111-.176.171-1.607 1.607-2.805 3.33-2.805 4.995"/>
        <path fill="#00B9F2" d="M38.73 29.254a15.202 15.202 0 0 1 2.559 6.703 2.258 2.258 0 0 1-1.953 2.525 2.253 2.253 0 0 1-2.513-1.939 10.792 10.792 0 0 0-1.816-4.724 10.953 10.953 0 0 0-7.555-4.673 2.281 2.281 0 0 1-1.932-2.56c.178-1.235 1.332-2.108 2.546-1.95a15.506 15.506 0 0 1 10.664 6.618m6.326-4.546a21.77 21.77 0 0 1 3.672 9.63 2.214 2.214 0 0 1-1.911 2.494 2.245 2.245 0 0 1-2.499-1.91c-1.033-7.903-7.203-14.138-15.069-15.227a2.232 2.232 0 0 1-1.891-2.525 2.226 2.226 0 0 1 2.515-1.898 22.09 22.09 0 0 1 15.183 9.436"/>
        <g transform="translate(48.25 26.75)">
            <mask id="f" fill="#fff">
                <use xlink:href="#e"/>
            </mask>
            <path fill="#F5F5F6" d="M.912 1.093a7.967 7.967 0 0 0-.755.479l.371 1.043a7.918 7.918 0 0 1 4.863-1.19 7.968 7.968 0 0 1 6.36 4.14v-1.32C9.625.375 4.772-1.037.911 1.093" mask="url(#f)"/>
        </g>
    </g>
</svg>
