<svg width="265" height="36" viewBox="0 0 1652 237" fill="none" xmlns="http://www.w3.org/2000/svg">
<path fill-rule="evenodd" clip-rule="evenodd" d="M868.108 0.000450611L868.108 219.373L875.421 219.373L875.421 0.000449972L868.108 0.000450611Z" fill="#222222"/>
<path d="M756.96 49.8555H739.192V163.249H756.96V49.8555Z" fill="#FF7A00"/>
<path fill-rule="evenodd" clip-rule="evenodd" d="M694.6 87.875C678.199 87.875 665.478 95.8351 663.33 112.086H680.798C682.029 105.958 686.55 102.278 694.6 102.278C703.942 102.278 708.237 107.64 708.237 116.066V119.896H690.305C673.784 119.896 661.573 127.255 661.573 142.274C661.573 157.293 671.531 165.103 685.934 165.103C697.123 165.103 704.483 160.342 708.463 152.682H709.229V163.195H726.08V116.636C726.005 98.6737 716.813 87.875 694.6 87.875ZM690.996 151.466C684.102 151.466 679.806 148.086 679.806 142.454C679.806 136.011 684.402 132.647 692.678 132.647H708.147L708.237 133.713C708.237 144.857 701.794 151.466 690.996 151.466V151.466Z" fill="#FF7A00"/>
<path fill-rule="evenodd" clip-rule="evenodd" d="M630.078 163.251V125.103C630.078 113.764 637.137 106.554 648.311 106.554H655.31V89.7031H648.101C639.675 89.7031 633.547 92.9172 629.717 100.126H629.102V89.7031H612.4V163.296L630.078 163.251Z" fill="#FF7A00"/>
<path fill-rule="evenodd" clip-rule="evenodd" d="M601.12 147.027V163.262H589.015C571.998 163.262 562.656 155.377 562.656 138.361V104.313H550.551V89.7142H562.656V70.1895H580.439V89.7142H601.12V104.313H580.439V136.303C580.439 143.047 584.419 147.027 591.162 147.027H601.12Z" fill="#FF7A00"/>
<path fill-rule="evenodd" clip-rule="evenodd" d="M492.324 163.256V120.662C492.324 110.238 498.767 103.42 509.175 103.42C519.133 103.42 525.111 109.172 525.111 120.436V163.256H542.908V117.598C542.908 99.0492 533.897 87.875 515.483 87.875C504.279 87.875 495.718 92.9214 491.888 99.8151H491.258V89.7073H474.602V163.301L492.324 163.256Z" fill="#FF7A00"/>
<path fill-rule="evenodd" clip-rule="evenodd" d="M426.991 150.558C415.801 150.558 408.292 143.048 407.992 131.243H462.391L462.315 125.491C462.315 100.83 446.38 87.9434 426.916 87.9434C405.889 87.9434 390.524 102.962 390.524 126.557C390.524 150.152 404.777 165.171 426.916 165.171C445.449 165.171 457.554 155.364 461.084 140.961H443.842C441.935 146.488 437.249 150.558 426.991 150.558ZM426.916 102.662C438.555 102.662 445.449 109.255 445.915 118.447H407.916C409.599 109.105 415.261 102.662 426.916 102.662V102.662Z" fill="#FF7A00"/>
<path fill-rule="evenodd" clip-rule="evenodd" d="M337.341 165.241C363.85 165.241 378.869 150.537 382.398 128.699H364.376C361.702 138.657 354.448 147.849 337.341 147.849C319.724 147.849 305.621 135.834 305.621 109.535C305.621 83.2369 319.724 71.2517 337.341 71.2517C354.959 71.2517 362.018 80.4433 364.376 90.2508H382.398C379.485 68.4131 364.691 54.2051 337.341 54.2051C307.919 54.2051 286.622 74.7361 286.622 109.776C286.622 144.815 307.919 165.346 337.341 165.346V165.241Z" fill="#FF7A00"/>
<path fill-rule="evenodd" clip-rule="evenodd" d="M257.743 89.7302V99.8229H256.902C252.922 92.779 244.646 87.8828 232.872 87.8828C215.63 87.8828 200.085 101.52 200.085 125.581C200.085 149.641 215.404 163.429 232.872 163.429C244.211 163.429 250.894 158.818 256.016 151.008H256.827V166.507C256.827 174.783 252.231 178.613 244.722 178.613H208.676V194.443H244.376C264.141 194.443 274.715 183.404 274.715 165.321V89.7302H257.743ZM237.753 147.343C225.948 147.343 218.438 139.999 218.438 125.596C218.438 111.192 225.873 103.833 237.753 103.833C249.242 103.833 256.902 111.177 256.902 125.596C256.902 140.014 249.317 147.343 237.753 147.343Z" fill="#0684BC"/>
<path fill-rule="evenodd" clip-rule="evenodd" d="M138.671 163.273V120.679C138.671 110.256 145.114 103.437 155.537 103.437C165.495 103.437 171.472 109.19 171.472 120.454V163.273H189.24V117.615C189.24 99.0667 180.229 87.8926 161.815 87.8926C150.626 87.8926 141.975 92.939 138.145 99.8327H137.529V89.7249H120.903V163.318L138.671 163.273Z" fill="#0684BC"/>
<path d="M105.881 89.7129H88.1133V163.261H105.881V89.7129Z" fill="#0684BC"/>
<path fill-rule="evenodd" clip-rule="evenodd" d="M57.1625 112.535V111.814C68.0362 108.81 75.3956 101.511 75.3956 85.1102C75.3956 68.2588 62.8246 55.9883 39.5301 55.9883H0V163.254H18.3833V120.66H40.7617C51.1849 120.66 56.3965 125.872 56.3965 136.295V163.329H74.7798V136.295C74.7798 121.126 68.3366 114.998 57.1625 112.535ZM38.5389 104.109H18.3833V72.5693H38.5389C48.4965 72.5693 56.1562 76.7146 56.1562 88.3543C56.1562 99.9941 48.4214 104.109 38.5389 104.109V104.109Z" fill="#0684BC"/>
<path fill-rule="evenodd" clip-rule="evenodd" d="M96.9945 77.9146C99.3306 77.9176 101.615 77.2274 103.559 75.9314C105.502 74.6354 107.018 72.7918 107.913 70.6342C108.808 68.4765 109.043 66.1016 108.588 63.8103C108.133 61.519 107.009 59.4141 105.357 57.7623C103.705 56.1104 101.6 54.9858 99.3088 54.5308C97.0175 54.0758 94.6427 54.3108 92.485 55.2062C90.3273 56.1015 88.4838 57.6169 87.1878 59.5605C85.8918 61.5042 85.2016 63.7886 85.2045 66.1247C85.1845 68.4631 85.8665 70.7538 87.1624 72.7004C88.4584 74.6469 90.3086 76.1599 92.4737 77.0435C93.9056 77.6387 95.444 77.9352 96.9945 77.9146V77.9146Z" fill="#FF7A00"/>
<path fill-rule="evenodd" clip-rule="evenodd" d="M83.446 33.4052C79.1424 35.2067 75.2338 37.8345 71.9414 41.14L80.277 49.4756C82.4621 47.2781 85.0588 45.5325 87.9186 44.3387C90.7784 43.1448 93.8454 42.5261 96.9445 42.5177C100.043 42.5093 103.114 43.1115 105.98 44.2899C108.846 45.4683 111.452 47.1998 113.649 49.3855L121.985 41.0499C117.035 36.1102 110.733 32.7478 103.874 31.3872C97.0148 30.0266 89.9063 30.7288 83.446 33.4052V33.4052Z" fill="#FF7A00"/>
<path d="M1155.27 167.799C1162.75 167.799 1168.83 173.878 1168.83 181.361C1168.83 188.85 1162.75 194.913 1155.27 194.913C1147.77 194.913 1141.7 188.85 1141.7 181.361C1141.7 173.878 1147.77 167.799 1155.27 167.799Z" fill="#6C6E70"/>
<path d="M1155.27 167.799C1162.75 167.799 1168.83 173.878 1168.83 181.361C1168.83 188.85 1162.75 194.913 1155.27 194.913C1147.77 194.913 1141.7 188.85 1141.7 181.361C1141.7 173.878 1147.77 167.799 1155.27 167.799Z" stroke="#6C6E70" stroke-width="0.465448"/>
<path d="M1194.92 171.457C1200.38 171.457 1204.8 175.881 1204.8 181.334C1204.8 186.801 1200.38 191.225 1194.92 191.225C1189.45 191.225 1185.03 186.801 1185.03 181.334C1185.03 175.881 1189.45 171.457 1194.92 171.457Z" fill="#6C6E70"/>
<path d="M1194.92 171.457C1200.38 171.457 1204.8 175.881 1204.8 181.334C1204.8 186.801 1200.38 191.225 1194.92 191.225C1189.45 191.225 1185.03 186.801 1185.03 181.334C1185.03 175.881 1189.45 171.457 1194.92 171.457Z" stroke="#6C6E70" stroke-width="0.465448"/>
<path d="M1060.92 54.666H1071.63C1071.86 54.666 1071.71 54.8442 1071.93 54.8509H1075.11C1075.13 54.9772 1075.11 55.0356 1075.19 55.1133H1077.3C1077.53 55.1133 1077.24 55.2915 1077.48 55.2915H1078.66C1078.88 55.2915 1078.6 55.473 1078.84 55.473H1080.19C1080.42 55.473 1080.15 55.6546 1080.37 55.6546H1081.76C1081.99 55.6546 1082.37 56.0208 1082.6 56.0208H1083.84C1084.47 56.0208 1085.23 56.4226 1085.67 56.6171C1087.65 56.9864 1089.67 57.4207 1091.63 57.8419C1091.67 57.9295 1091.65 58.0072 1091.74 58.0591C1099.62 60.2658 1106.56 63.7139 1113.37 68.1211L1121.32 76.618C1121.32 76.618 1105.73 68.7304 1105.47 68.7304C1105.21 68.7304 1102.53 67.2204 1101.41 67.1651C1100.3 66.5624 1098.85 65.9142 1097.42 65.626C1096 64.9161 1094.07 64.5759 1092.44 64.1775C1092 63.6881 1091.17 63.7981 1090.2 63.5551C1088.69 63.1566 1087.21 63.0074 1085.66 62.6445C1085.36 62.3075 1084.87 62.4372 1084.68 62.3788C1084.19 62.2492 1083.76 62.0547 1083.48 62.0547H1081.69C1081.59 62.0547 1080.83 61.695 1080.59 61.695H1078.11C1077.88 61.695 1078.16 61.5103 1077.93 61.5103H1070.7C1070.47 61.5103 1070.74 61.695 1070.52 61.695H1067.95C1067.87 61.695 1067.17 61.695 1066.97 62.0547H1065.18C1064.95 62.0547 1065.23 62.2393 1065 62.2393H1063.79C1063.65 62.2393 1063.13 62.4178 1062.99 62.69H1061.71C1061.64 62.69 1057.6 63.5809 1055.89 64.187C1054.27 64.5759 1052.36 64.9161 1050.92 65.626C1048.3 66.5722 1045.36 67.4309 1043.33 68.6916C1037.01 71.5207 1030.22 75.5292 1025.91 79.7226C1025.17 80.0596 1024.62 80.6528 1023.98 81.2199C1023.9 81.2847 1023.5 81.2943 1023.35 81.6669C1023.19 81.7317 1022.69 81.8875 1022.86 82.3182C1021.46 82.9729 1020.63 84.3891 1019.55 85.3547C1019.14 85.7307 1018.31 86.3691 1018.24 86.9134C1016.45 88.4108 1014.86 90.7634 1013.19 92.4226C1013.17 92.5783 1013.18 92.7565 1013.17 92.9639C1012.4 93.3722 1011.93 94.4416 1011.42 95.1933C1010.94 95.8707 1010.07 96.5997 1009.76 97.3776C1009.66 97.6141 1009.63 97.8669 1009.53 98.071C1009.36 98.3336 1008.94 98.4147 1008.76 98.729C1008.31 99.5618 1007.93 100.816 1007.04 101.529C1006.58 102.76 1005.86 103.765 1005.55 105.1C1004.57 106.059 1004.4 107.858 1003.42 108.736C1003.14 109.63 1002.87 110.719 1002.46 111.695C1001.8 111.983 1002.24 113.244 1001.53 113.526C1001.17 115.415 999.983 117.23 999.838 119.262C999.67 119.31 999.482 119.501 999.451 119.728C999.218 121.873 998.534 123.533 998.312 125.467C998.291 125.71 997.984 125.905 997.984 126.132V128.047C997.511 128.342 997.535 128.572 997.535 128.659V129.887C997.535 130.114 997.346 129.819 997.343 130.043V132.01C997.212 132.033 997.137 132.205 996.982 132.276V134.93C996.99 135.157 996.806 134.875 996.806 135.095V147.108C996.806 147.335 996.99 147.04 996.99 147.254V149.548C996.99 149.775 997.16 149.976 997.346 150.183V152.245C997.346 152.475 997.535 152.177 997.535 152.41V153.602C997.535 153.651 997.475 153.981 997.984 154.228V155.861C997.984 156.098 998.198 156.289 998.302 156.509C998.441 156.772 998.152 157.271 998.521 157.478V158.668C998.524 158.885 998.839 158.966 998.857 159.141C998.955 160.55 999.218 161.979 999.849 163C1000.55 165.045 1000.67 167.518 1001.92 169.225C1002.23 170.502 1002.83 171.653 1003.37 172.835C1003.41 173.095 1006.88 180.551 1006.65 180.551L1013.08 194.645C1013.08 194.645 997.16 178.364 997.029 178.458C996.866 178.228 993.292 173.283 992.22 170.295C991.412 168.202 990.461 166.325 989.418 164.248C988.783 161.419 987.218 158.92 986.918 155.796C986.717 155.592 986.515 155.2 986.322 154.892V153.7C986.322 153.47 986.056 153.382 985.981 153.149C985.686 152.368 986.009 151.402 985.413 150.754V149.377C985.413 149.153 985.245 148.871 985.056 148.683V147.416C984.976 147.345 984.912 147.355 984.788 147.345V145.491C984.782 145.277 984.622 145.186 984.421 145.073V143.232C984.413 143.002 984.375 143.206 984.251 143.2V140.439C984.238 140.209 984.196 140.413 984.065 140.397V138.083C984.057 137.866 984.01 138.07 983.881 138.054V130.694C983.874 130.471 983.982 130.678 984.057 130.613V128.624C984.057 128.397 984.16 128.614 984.238 128.543V125.915C984.238 125.694 984.341 125.915 984.421 125.833V123.847C984.413 123.64 984.782 123.565 984.788 123.335V122.035C984.912 122.019 984.976 122.035 985.056 121.961V120.694C985.048 120.464 985.413 120.224 985.413 119.997V118.364C985.413 118.137 985.715 118.069 985.743 117.907C985.958 116.381 986.34 114.822 986.706 113.318C987.083 112.612 987.352 111.277 987.53 110.421C988.07 110.256 987.77 109.614 987.879 109.264C988.031 108.849 988.522 108.107 988.424 107.55C988.597 107.414 988.69 107.326 988.827 107.252C989.214 106.088 989.526 104.799 989.963 103.671C990.34 102.699 990.942 102.196 991.135 101.159C991.579 100.093 992.323 99.2021 992.672 98.165C993.671 96.3924 994.82 94.409 995.66 92.5716C996.574 91.7778 996.941 90.6273 997.566 89.7686C998.312 88.7607 999.291 87.8599 999.629 86.6834C999.748 86.6738 999.905 86.6836 1000.05 86.5961C1000.96 85.2155 1002.15 83.7765 1003.07 82.3799C1003.65 81.7253 1004.72 81.1127 1005.16 80.1278C1007.04 78.2124 1008.88 76.2195 1010.87 74.5344C1011.39 74.0742 1012.17 73.7729 1012.74 73.2964C1013.36 72.8006 1013.91 72.1784 1014.49 71.5499C1015.09 71.203 1015.83 70.8433 1016.17 70.2728C1017.11 69.7091 1018.34 68.9282 1019.27 68.1276C1019.76 67.7129 1020.56 67.5897 1021.06 67.1749C1021.98 66.4296 1023.13 66.0797 1023.8 65.2371C1024.6 64.9486 1025.45 64.6506 1026.22 64.1968C1026.36 64.1127 1026.35 63.85 1026.53 63.7981C1028.63 63.1274 1030.32 61.588 1032.65 61.1343C1032.72 60.9951 1032.81 60.9011 1032.94 60.7294C1034.17 60.3761 1035.48 59.9322 1036.56 59.378C1038 58.6779 1039.83 58.5906 1041.17 57.8419C1043.05 57.1937 1045.49 57.2521 1047.24 56.3999C1048.52 56.1179 1050 56.1762 1051.2 55.6546H1052.43C1052.66 55.6546 1052.38 55.473 1052.61 55.473H1054.14C1054.37 55.473 1054.1 55.2915 1054.32 55.2915H1055.69C1055.91 55.2915 1055.63 55.1133 1055.86 55.1133H1057.79C1057.87 55.0356 1057.86 54.9772 1057.87 54.8509H1060.75C1060.98 54.8442 1060.7 54.666 1060.92 54.666Z" fill="#FF6F03"/>
<path d="M971.135 107.685C971.445 107.678 987.913 87.5605 987.913 87.5605L980.626 106.327C980.626 106.327 978.11 115.226 977.586 117.721C977.421 117.767 977.181 119.62 977.181 119.62C977.181 120.174 976.638 121.075 976.638 121.613V122.854C976.638 123.143 976.282 123.784 976.282 124.053V125.641C976.282 125.865 976.104 125.573 976.099 125.797V127.848C975.895 127.965 975.735 128.065 975.735 128.286V131.834C975.603 131.844 975.546 131.834 975.458 131.909V141.063C975.546 141.145 975.603 141.128 975.735 141.145V144.499C975.735 144.725 975.895 144.826 976.099 144.936V147.104C976.104 147.331 976.282 147.036 976.282 147.25V149.097C976.282 149.324 976.445 149.437 976.638 149.638V151.803C976.638 152.033 976.83 152.153 976.964 152.354C977.072 152.519 976.92 153.144 977.181 153.414V154.68C977.181 154.92 977.336 155.108 977.586 155.222C977.705 155.432 977.56 155.659 977.811 155.954V157.208C977.821 157.442 978.09 157.522 978.141 157.681C978.263 157.989 978.209 158.459 978.327 158.757C978.844 160.044 978.862 162.205 979.683 163.184C979.874 164.921 980.437 166.275 981.124 167.779C981.184 167.951 981.168 168.197 981.401 168.589C981.85 169.749 982.485 171.104 982.717 172.355C982.867 172.527 983.149 172.624 983.291 172.821C983.567 174.144 984.342 175.482 984.791 176.85C985.414 177.248 985.385 178.149 985.791 178.749C986.563 179.669 987.041 180.839 987.823 181.931C987.823 182.55 988.433 183.273 988.804 183.642C991.655 188.714 995.408 193.322 998.853 197.081C998.892 197.253 998.891 197.431 998.904 197.593C999.361 197.975 999.294 197.911 999.839 198.234C1004.14 203.368 1009.39 207.234 1014.51 211.252C1014.85 211.278 1015.29 211.421 1015.57 211.667C1016.48 212.487 1017.46 212.837 1018.31 213.692C1018.48 213.712 1018.65 213.712 1018.86 213.718C1019.27 214.386 1020.49 214.995 1021.26 215.277C1021.48 215.439 1021.68 215.637 1021.76 215.857C1022.46 216.184 1023.53 216.615 1024.34 216.994C1024.75 217.393 1025.35 217.96 1026.22 217.895C1027.82 218.822 1029.53 219.538 1031.05 220.352C1032.45 220.634 1033.73 221.295 1034.85 221.888C1036.39 222.286 1037.83 222.824 1039.34 223.197C1040.93 223.881 1042.99 224.422 1044.69 224.746C1045.48 225.381 1047.18 225.193 1048.12 225.556C1048.35 225.647 1048.55 225.887 1048.77 225.887H1050.02C1050.11 225.887 1050.62 226.084 1051.04 226.217C1051.42 226.337 1052.12 226.039 1052.22 226.519H1053.36C1053.4 226.519 1054.25 226.814 1054.64 226.875L1058.54 226.963C1058.62 226.963 1058.6 227.141 1058.82 227.141H1063.68C1063.9 227.141 1063.87 227.332 1064.1 227.332C1064.32 227.332 1064.37 227.348 1064.48 227.16H1069.2C1069.42 227.141 1069.39 226.963 1069.48 226.963L1073.54 226.875C1073.96 226.814 1074.61 226.934 1074.78 226.519H1076.06C1076.14 226.441 1076.12 226.386 1076.14 226.256H1077.33C1077.56 226.25 1077.95 226.072 1078.24 225.887H1079.42C1079.63 225.887 1079.92 225.611 1080.16 225.556C1081.29 225.216 1082.8 225.287 1083.76 224.746C1084.89 224.578 1086.16 224.159 1087.21 223.835C1087.78 223.67 1088.79 223.631 1089.09 223.21C1093.1 222.108 1120.6 212.192 1120.6 212.192C1120.61 212.315 1118.42 214.707 1117.5 215.562C1116.68 216.184 1114.39 217.977 1113.34 218.809C1112.67 219.098 1111.85 219.736 1111.25 220.339C1106.93 222.993 1102.37 226.166 1097.99 227.702C1097.16 228.382 1095.7 228.765 1094.7 229.461C1093.41 229.743 1091.94 230.398 1090.71 230.988C1090.13 231.12 1089.73 231.435 1089.17 231.538C1088.28 231.691 1087.15 232.099 1086.28 232.517C1084.55 233.065 1082.34 233.327 1080.76 234.063C1079.5 234.248 1077.62 234.475 1076.45 234.902H1075.19C1075.11 234.902 1074.59 235.071 1074.16 235.223C1073.82 235.346 1073.16 234.983 1073.03 235.534H1071.6C1071.37 235.534 1071.65 235.719 1071.42 235.719H1070.25C1070.02 235.719 1070.29 235.897 1070.06 235.897H1068.62C1068.39 235.897 1068.67 236.069 1068.44 236.069H1066.08C1065.86 236.069 1066.13 236.257 1065.91 236.257H1063.1C1062.87 236.257 1063.14 236.438 1062.92 236.438H1050.35C1050.12 236.438 1050.4 236.257 1050.17 236.257H1047.27C1047.04 236.257 1047.32 236.069 1047.09 236.069H1045.01C1044.78 236.069 1045.06 235.897 1044.83 235.897H1043.29C1043.07 235.897 1043.34 235.719 1043.11 235.719H1041.94C1041.71 235.719 1041.98 235.534 1041.75 235.534H1040.15C1039.92 235.197 1038.86 234.902 1038.17 234.902H1037.02C1036.75 234.902 1033.38 234.092 1032.59 234.063C1031.08 233.327 1029.03 233.065 1027.25 232.517C1023.48 231.176 1019.88 229.743 1016.21 228.282C1015.21 227.637 1013.7 226.752 1012.42 226.483C1010.7 225.495 1008.75 224.218 1006.89 223.408C1006.37 222.808 1005.35 222.17 1004.63 221.881C1002.59 220.394 1000.31 218.851 998.21 217.38C997.259 216.628 996.686 215.588 995.496 215.202C992.637 212.066 988.771 209.444 986.248 205.967C985.788 205.847 985.411 204.755 984.817 204.573C983.516 202.856 982.387 201.051 980.812 199.715C980.693 198.905 980.068 198.108 979.27 197.645C979.267 197.441 979.267 197.269 979.239 197.091C977.072 194.2 975.631 191.487 973.78 188.496C973.746 188.341 973.746 188.166 973.712 187.991C973.002 187.042 972.667 186.034 972.266 184.941C971.486 184.391 971.424 183.198 970.797 182.462C970.11 180.346 969.147 178.146 968.475 176.01C968.346 175.92 968.279 175.754 968.065 175.741C967.553 173.648 966.99 171.749 966.352 169.824C965.728 167.695 965.32 165.232 964.71 163.087V161.833C964.625 161.758 964.571 161.778 964.439 161.758V160.465C964.426 160.228 964.276 160.144 964.072 160.044V157.834C964.07 157.808 964.07 157.101 963.713 156.875V154.95C963.708 154.719 963.667 154.93 963.535 154.904V152.166C963.527 151.936 963.365 151.842 963.171 151.647V138.889C963.372 138.795 963.527 138.704 963.527 138.477V135.658C963.527 135.428 963.631 135.645 963.713 135.571V133.497C963.708 133.364 964.07 132.764 964.07 132.618V130.7C964.07 130.476 964.294 130.253 964.4 130.071C964.584 129.689 964.227 128.982 964.713 128.879V127.621C964.909 127.511 965.064 127.433 965.064 127.206V125.92C965.064 125.839 966.004 122.511 966.174 121.445C966.198 121.266 966.334 121.052 966.352 120.903C966.91 119.627 967.295 117.822 967.708 116.298C967.799 116.01 967.956 115.761 968.083 115.375C968.638 115.226 968.17 114.818 968.661 114.367C969.005 113.097 969.353 111.904 969.797 110.786C969.973 110.663 970.063 110.563 970.2 110.495C970.443 109.568 971.13 108.774 971.135 107.685Z" fill="#FF6F03"/>
<path d="M1064.37 80.0918H1068.29C1068.52 80.0918 1068.35 80.2767 1068.58 80.2767H1072.96C1073.18 80.2767 1072.91 80.4484 1073.15 80.4484H1075.04C1075.27 80.4484 1074.99 80.6331 1075.22 80.6331H1076.83C1076.85 80.7627 1076.83 80.8242 1076.91 80.8955H1078.33C1078.55 80.8955 1078.85 81.2196 1079.16 81.2358C1081.15 81.3557 1082.88 81.5922 1084.32 82.3117C1089.44 83.394 1093.92 85.6885 1098.31 88.0574C1100.6 89.5772 1102.96 91.0097 1105.11 92.7433C1105.68 93.3623 1106.28 93.8419 1106.88 94.4415C1107.01 94.5644 1107.26 94.5776 1107.46 94.7297C1108.03 95.2062 1108.55 96.2885 1109.39 96.4086C1109.96 97.52 1111.39 98.5603 1112.34 99.6069C1113.01 100.301 1113.67 101.049 1114.24 101.856C1116.17 104.581 1118.2 107.793 1119.95 110.619C1119.86 111.277 1120.53 111.656 1120.76 112.148C1121.04 113.195 1121.79 114.3 1122.08 115.463C1123.02 116.844 1123.4 119.093 1124.19 120.716C1124.8 122.849 1125.31 125.334 1125.86 127.648V128.893C1125.94 128.97 1126 128.96 1126.13 128.97V130.613C1126.13 130.85 1126.3 131.138 1126.49 131.329V133.4C1126.49 133.627 1126.67 133.339 1126.67 133.556V142.14C1126.67 142.37 1126.49 142.079 1126.49 142.302V144.72C1126.3 144.83 1126.13 144.933 1126.13 145.16V146.985C1126 147.004 1125.94 146.985 1125.86 147.056V148.294C1125.86 148.693 1125.45 150.524 1124.99 152.244C1125.37 154.772 1125.58 157.339 1125.58 159.977C1125.58 162.618 1125.37 165.2 1124.98 167.719C1125.95 165.486 1127.06 163.282 1127.61 160.832C1128.33 159.789 1128.75 158.237 1129.09 156.856C1129.29 155.997 1129.26 155.002 1129.76 154.675V153.431C1129.75 153.184 1130.29 152.225 1130.31 151.826V150.346C1130.44 150.336 1130.5 150.154 1130.66 150.08V148.731C1130.65 148.515 1130.76 148.722 1130.84 148.654V146.849C1130.84 146.794 1131.2 145.974 1131.2 145.786V142.234C1131.2 142.017 1131.31 142.224 1131.38 142.153V135.662C1131.38 135.432 1131.33 135.643 1131.2 135.617V133.138C1131.2 132.898 1131.16 133.109 1131.03 133.099V131.676C1131.02 131.459 1130.97 131.663 1130.85 131.65V129.991C1130.84 129.767 1130.65 129.962 1130.67 129.738V128.614L1128.67 106.83L1137.87 122.499C1138.46 123.847 1140.2 130.749 1140.69 133.144C1140.69 133.144 1140.89 135.38 1141.14 135.662V137.276C1141.15 137.513 1141.33 137.208 1141.33 137.435V139.541C1141.33 139.768 1141.5 140.066 1141.69 140.257V151.084C1141.69 151.308 1141.33 151.525 1141.33 151.732V153.962C1141.33 154.192 1141.15 153.887 1141.15 154.114V155.676C1141.15 155.722 1140.95 156.156 1140.69 156.344V158.386C1140.7 158.755 1140.27 159.267 1140.17 159.766C1140.13 160.016 1140.16 160.395 1140.12 160.738C1139.71 161.146 1139.87 161.678 1139.76 162.077C1139.55 162.806 1139.18 164.021 1139.03 164.773C1138.44 166.442 1137.67 168.581 1137.13 170.473C1136.22 171.753 1135.76 173.377 1135.24 174.896C1133.89 176.873 1132.76 178.724 1131.79 180.937C1130.97 181.744 1130.25 183.011 1129.71 184.006C1128.01 185.697 1126.6 188.18 1124.68 189.826C1124.6 190.066 1124.42 190.332 1124.38 190.584C1122.36 192.48 1120.39 194.522 1118.16 196.155C1117.75 196.547 1117.67 196.557 1117.5 196.991C1117.08 197.121 1117.04 197.322 1116.62 197.416C1113.4 200.397 1109.41 202.296 1105.72 204.577C1104.99 204.675 1104.39 205.151 1103.83 205.572C1102.95 205.786 1101.8 206.279 1101.12 206.745C1099.83 207.024 1098.37 207.672 1097.13 208.272C1095.31 208.615 1093.61 209.176 1091.98 209.801C1090.52 209.999 1088.84 210.235 1087.48 210.65H1086.26C1086.02 210.65 1086.3 210.835 1086.08 210.835H1084.9C1084.67 210.835 1084.94 211.013 1084.71 211.013H1083.6C1083.52 211.094 1083.54 211.162 1083.52 211.276H1081.27C1081.05 211.282 1081.32 211.454 1081.1 211.454H1077.94C1077.71 211.454 1077.98 211.635 1077.75 211.635H1069.16C1068.93 211.635 1069.2 211.454 1068.99 211.454H1065.72C1065.5 211.454 1065.77 211.282 1065.54 211.276H1063.39C1063.37 211.162 1063.39 211.094 1063.31 211.013H1062.11C1061.88 211.013 1062.16 210.835 1061.93 210.835H1060.75C1060.52 210.835 1060.8 210.65 1060.57 210.65H1059.45C1059.13 210.65 1055.67 209.86 1054.84 209.801C1053.21 209.176 1051.46 208.777 1049.68 208.272C1047.37 207.125 1044.66 206.269 1042.25 205.196C1040.32 203.955 1038.42 203.07 1036.55 202.137C1036.43 201.881 1036.3 201.657 1036.08 201.563C1033.84 200.617 1032.42 199.068 1030.48 197.98C1030.44 197.513 1026.58 194.379 1026.58 194.379C1026.58 194.379 1040.99 198.129 1041.77 198.498C1030.93 189.188 1024.07 175.395 1024.07 159.977C1024.07 131.952 1046.79 109.228 1074.82 109.228C1090.68 109.228 1104.83 116.497 1114.14 127.888C1113.84 126.43 1113.43 124.932 1112.78 123.665C1112.63 123.212 1112.63 122.881 1112.54 122.441C1111.83 121.65 1111.93 120.101 1111.06 119.255C1110.42 117.622 1109.41 115.797 1108.44 114.206C1107.02 110.819 1104.1 107.783 1101.96 104.779C1100.28 102.98 1098.56 101.176 1096.77 99.5065C1096.68 99.4837 1096.52 99.4837 1096.3 99.4546V99.1793C1095.18 98.5667 1094.41 97.2187 1093.22 96.9367C1093.21 96.8298 1093.21 96.7422 1093.19 96.6645C1091.35 95.4654 1089.47 94.0332 1087.38 92.9377C1085.57 91.5249 1083.66 90.6985 1081.51 89.9661C1080.44 89.3698 1078.88 88.7216 1077.62 88.4399C1076.17 87.8467 1072.68 86.6412 1069.37 86.1358C1066.4 85.6885 1064.67 85.8409 1061.66 85.8181C1050.76 85.7404 1033.89 89.0101 1033.89 89.0101V88.6795C1034.87 88.0737 1035.92 87.2765 1037.06 86.9232C1037.17 86.3106 1037.99 86.4338 1038.46 85.9899C1038.83 85.9186 1039.32 85.5816 1039.64 85.4292C1040.95 84.9303 1042.59 84.2984 1043.98 83.6339C1045.41 82.9273 1047.25 82.8496 1048.59 82.1043C1050.41 81.7867 1052.5 81.3265 1054.47 80.8955H1056.08C1056.15 80.8242 1056.13 80.7627 1056.15 80.6331H1057.58C1057.81 80.6331 1057.53 80.4484 1057.77 80.4484H1059.66C1059.89 80.4484 1059.62 80.2767 1059.85 80.2767H1064.18C1064.41 80.2767 1064.14 80.0918 1064.37 80.0918Z" fill="#FF6F03"/>
<path d="M1217.93 104.584V107.572C1217.93 118.61 1211.41 119.65 1191.28 119.65C1164.82 119.65 1162.58 116.51 1162.58 91.7614H1233.02V83.8572C1233.02 54.9316 1222.97 49.1211 1191.28 49.1211C1156.24 49.1211 1147.3 56.7205 1147.3 89.2272C1147.3 119.06 1153.08 129.194 1191.28 129.194C1213.08 129.194 1233.02 128.147 1233.02 107.42V104.584H1217.93ZM1162.58 82.2275C1163.7 64.1737 1164.63 58.655 1191.28 58.655C1213.64 58.655 1217 60.0031 1217.75 82.2275H1162.58Z" fill="#6C6E70"/>
<path d="M1316.7 99.9666V103.849C1316.7 118.004 1309.99 119.65 1291.54 119.65C1262.84 119.65 1261.72 112.939 1261.72 90.8702C1261.72 65.8136 1262.29 58.655 1288.37 58.655C1305.33 58.655 1315.02 58.9662 1315.02 73.1212V75.5159H1329.75V73.4161C1329.75 51.1984 1311.11 49.1211 1287.44 49.1211C1252.04 49.1211 1246.44 62.0933 1246.44 87.5809C1246.44 116.669 1249.24 129.194 1289.87 129.194C1313.16 129.194 1331.42 126.355 1331.42 104.293V99.9666H1316.7Z" fill="#6C6E70"/>
<path d="M1343.15 89.2272C1343.15 122.178 1350.24 129.194 1386.57 129.194C1422.92 129.194 1429.99 122.178 1429.99 89.2272C1429.99 56.1208 1422.92 49.1211 1386.57 49.1211C1350.24 49.1211 1343.15 56.1208 1343.15 89.2272ZM1358.44 89.2272C1358.44 61.9378 1360.3 58.655 1386.57 58.655C1412.85 58.655 1414.71 61.9378 1414.71 89.2272C1414.71 116.374 1412.85 119.65 1386.57 119.65C1360.3 119.65 1358.44 116.374 1358.44 89.2272Z" fill="#6C6E70"/>
<path d="M1498.55 50.0183H1460.73V31.0801L1446.01 33.8412V50.0183H1432.96V59.5556H1446.01V105.637C1446.01 123.97 1451.21 129.197 1474.14 129.197C1494.27 129.197 1502.28 121.892 1502.28 106.383V100.569H1488.31V106.383C1488.31 113.839 1488.31 119.653 1474.51 119.653C1463.71 119.653 1460.92 117.705 1460.73 109.212V59.5556H1498.55V50.0183Z" fill="#6C6E70"/>
<path d="M1582.42 104.584V107.572C1582.42 118.61 1575.89 119.65 1555.76 119.65C1529.3 119.65 1527.06 116.51 1527.06 91.7614H1597.5V83.8572C1597.5 54.9316 1587.44 49.1211 1555.76 49.1211C1520.73 49.1211 1511.78 56.7205 1511.78 89.2272C1511.78 119.06 1517.56 129.194 1555.76 129.194C1577.57 129.194 1597.5 128.147 1597.5 107.42V104.584H1582.42ZM1527.06 82.2275C1528.18 64.1737 1529.12 58.655 1555.76 58.655C1578.14 58.655 1581.48 60.0031 1582.22 82.2275H1527.06Z" fill="#6C6E70"/>
<path d="M1611.22 33.8423V128.3H1625.93V30.6016L1611.22 33.8423Z" fill="#6C6E70"/>
<path d="M1095.48 160.117C1106.9 160.117 1116.15 169.376 1116.15 180.783C1116.15 192.209 1106.9 201.452 1095.48 201.452C1084.08 201.452 1074.81 192.209 1074.81 180.783C1074.81 169.376 1084.08 160.117 1095.48 160.117Z" fill="#6C6E70"/>
<path d="M1095.48 160.117C1106.9 160.117 1116.15 169.376 1116.15 180.783C1116.15 192.209 1106.9 201.452 1095.48 201.452C1084.08 201.452 1074.81 192.209 1074.81 180.783C1074.81 169.376 1084.08 160.117 1095.48 160.117Z" stroke="#6C6E70" stroke-width="0.465448"/>
<path d="M1233.17 189.886C1233.06 189.05 1232.99 187.815 1232.99 186.61V178.288C1232.99 175.624 1232.15 172.092 1226.22 172.092C1223.91 172.092 1221.91 172.633 1220.49 173.378L1220.72 176.904C1221.87 175.958 1223.67 175.167 1225.5 175.167C1228.18 175.167 1228.92 176.664 1228.92 178.288V178.962H1227.3C1221.26 178.962 1218.68 181.247 1218.68 184.902C1218.68 188.266 1220.86 190.23 1223.87 190.23C1226.22 190.23 1227.64 189.144 1228.92 187.517H1228.96C1228.96 187.922 1229.14 189.481 1229.16 189.886H1233.17ZM1228.92 182.728C1228.92 184.779 1227.98 187.187 1225.33 187.187C1223.74 187.187 1222.82 186.299 1222.82 184.597C1222.82 182.565 1224.52 181.338 1227.56 181.338C1227.94 181.338 1228.73 181.337 1228.92 181.38V182.728Z" fill="#6D6F71"/>
<path d="M1238.6 189.888H1243.1V164.465H1238.6V189.888Z" fill="#6D6F71"/>
<path d="M1248.72 189.888H1253.23V164.465H1248.72V189.888Z" fill="#6D6F71"/>
<path d="M1282.38 189.886C1282.27 189.05 1282.2 187.815 1282.2 186.61V178.288C1282.2 175.624 1281.36 172.092 1275.42 172.092C1273.12 172.092 1271.12 172.633 1269.69 173.378L1269.93 176.904C1271.08 175.958 1272.89 175.167 1274.71 175.167C1277.4 175.167 1278.14 176.664 1278.14 178.288V178.962H1276.51C1270.47 178.962 1267.9 181.247 1267.9 184.902C1267.9 188.266 1270.07 190.23 1273.08 190.23C1275.42 190.23 1276.85 189.144 1278.14 187.517H1278.17C1278.17 187.922 1278.34 189.481 1278.38 189.886H1282.38ZM1278.14 182.728C1278.14 184.779 1277.19 187.187 1274.55 187.187C1272.94 187.187 1272.04 186.299 1272.04 184.597C1272.04 182.565 1273.73 181.338 1276.78 181.338C1277.15 181.338 1277.93 181.337 1278.14 181.38V182.728Z" fill="#6D6F71"/>
<path d="M1297.25 176.224V172.115C1297.09 172.092 1296.89 172.092 1296.74 172.092C1294.04 172.092 1292.75 173.511 1292.03 175.239H1291.97C1291.97 174.73 1291.9 172.769 1291.86 172.393H1287.6C1287.66 173.408 1287.76 174.927 1287.76 176.846V189.886H1292.27V180.929C1292.27 177.893 1293.73 176.058 1295.8 176.058C1296.34 176.058 1296.96 176.13 1297.25 176.224Z" fill="#6D6F71"/>
<path d="M1315.83 181.127C1315.83 176.058 1313.46 172.092 1307.96 172.092C1302.44 172.092 1300.09 176.058 1300.09 181.127C1300.09 186.257 1302.44 190.23 1307.96 190.23C1313.46 190.23 1315.83 186.257 1315.83 181.127ZM1311.15 181.127C1311.15 184.597 1310.34 186.983 1307.96 186.983C1305.56 186.983 1304.78 184.597 1304.78 181.127C1304.78 177.718 1305.56 175.316 1307.96 175.316C1310.34 175.316 1311.15 177.718 1311.15 181.127Z" fill="#6D6F71"/>
<path d="M1335.15 189.886C1335.08 189.049 1334.98 187.854 1334.98 186.57V172.393H1330.51V182.698C1330.51 184.947 1329.6 186.496 1327.58 186.496C1326.06 186.496 1325.32 185.511 1325.32 183.275V172.393H1320.81V184.597C1320.81 188.46 1323.01 190.229 1326.04 190.229C1328.77 190.229 1330.1 188.57 1330.71 187.115H1330.77C1330.77 187.62 1330.85 189.519 1330.91 189.886H1335.15Z" fill="#6D6F71"/>
<path d="M1354.71 189.886V177.682C1354.71 173.848 1352.5 172.092 1349.49 172.092C1346.78 172.092 1345.46 173.712 1344.8 175.167H1344.73C1344.73 174.665 1344.67 172.769 1344.63 172.393H1340.37C1340.43 173.408 1340.54 174.765 1340.54 176.058V189.886H1345.05V179.856C1345.05 177.377 1346.09 175.783 1347.96 175.783C1349.46 175.783 1350.23 176.804 1350.23 179.011V189.886H1354.71Z" fill="#6D6F71"/>
<path d="M1374.95 189.888C1374.91 188.834 1374.81 187.784 1374.81 186.734V164.465H1370.34V171.377C1370.34 172.058 1370.37 174.501 1370.4 174.874H1370.34C1369.14 172.932 1367.86 172.093 1365.7 172.093C1361.69 172.093 1359.56 175.882 1359.56 180.93C1359.56 186.611 1361.73 190.163 1365.86 190.163C1367.99 190.163 1369.45 189.071 1370.48 187.188H1370.54C1370.54 187.684 1370.64 189.418 1370.68 189.888H1374.95ZM1370.34 181.076C1370.34 184.703 1369.32 186.848 1367.25 186.848C1365.05 186.848 1364.17 184.703 1364.17 181.076C1364.17 177.443 1365.05 175.318 1367.25 175.318C1369.32 175.318 1370.34 177.443 1370.34 181.076Z" fill="#6D6F71"/>
<path d="M1401.99 189.387L1401.86 185.858C1401.18 186.227 1399.83 186.694 1398.41 186.694C1395.51 186.694 1394.13 184.559 1394.13 181.247C1394.13 177.245 1396 175.572 1398.49 175.572C1399.83 175.572 1400.82 175.958 1401.62 176.369L1401.86 172.828C1401.05 172.494 1399.65 172.092 1397.76 172.092C1392.13 172.092 1389.52 176.058 1389.52 181.247C1389.52 186.085 1391.93 190.23 1397.73 190.23C1399.08 190.23 1401.11 189.795 1401.99 189.387Z" fill="#6D6F71"/>
<path d="M1421.52 181.127C1421.52 176.058 1419.14 172.092 1413.65 172.092C1408.13 172.092 1405.78 176.058 1405.78 181.127C1405.78 186.257 1408.13 190.23 1413.65 190.23C1419.14 190.23 1421.52 186.257 1421.52 181.127ZM1416.83 181.127C1416.83 184.597 1416.03 186.983 1413.65 186.983C1411.25 186.983 1410.47 184.597 1410.47 181.127C1410.47 177.718 1411.25 175.316 1413.65 175.316C1416.03 175.316 1416.83 177.718 1416.83 181.127Z" fill="#6D6F71"/>
<path d="M1449.73 189.886V177.549C1449.73 173.748 1447.51 172.092 1444.61 172.092C1442.37 172.092 1440.91 173.135 1439.86 174.898C1438.86 172.828 1437.28 172.092 1435.41 172.092C1432.73 172.092 1431.4 173.712 1430.77 175.167H1430.7C1430.7 174.665 1430.63 172.769 1430.6 172.393H1426.32C1426.4 173.314 1426.5 174.665 1426.5 176.156V189.886H1431.01V179.714C1431.01 177.244 1431.92 175.783 1433.72 175.783C1435.14 175.783 1435.9 176.693 1435.9 178.661V189.886H1440.37V179.448C1440.37 177.245 1441.11 175.783 1443.04 175.783C1444.5 175.783 1445.25 176.693 1445.25 178.661V189.886H1449.73Z" fill="#6D6F71"/>
<path d="M1478.51 189.886V177.549C1478.51 173.748 1476.3 172.092 1473.4 172.092C1471.15 172.092 1469.7 173.135 1468.64 174.898C1467.66 172.828 1466.07 172.092 1464.2 172.092C1461.52 172.092 1460.19 173.712 1459.56 175.167H1459.49C1459.49 174.665 1459.41 172.769 1459.39 172.393H1455.12C1455.18 173.314 1455.29 174.665 1455.29 176.156V189.886H1459.8V179.714C1459.8 177.244 1460.72 175.783 1462.51 175.783C1463.93 175.783 1464.68 176.693 1464.68 178.661V189.886H1469.15V179.448C1469.15 177.245 1469.9 175.783 1471.83 175.783C1473.28 175.783 1474.03 176.693 1474.03 178.661V189.886H1478.51Z" fill="#6D6F71"/>
<path d="M1498.42 189.886C1498.34 189.049 1498.24 187.854 1498.24 186.57V172.393H1493.77V182.698C1493.77 184.947 1492.84 186.496 1490.84 186.496C1489.32 186.496 1488.58 185.511 1488.58 183.275V172.393H1484.08V184.597C1484.08 188.46 1486.27 190.229 1489.3 190.229C1492.04 190.229 1493.36 188.57 1493.96 187.115H1494.03C1494.03 187.62 1494.1 189.519 1494.18 189.886H1498.42Z" fill="#6D6F71"/>
<path d="M1517.97 189.886V177.682C1517.97 173.848 1515.77 172.092 1512.75 172.092C1510.05 172.092 1508.71 173.712 1508.06 175.167H1508.01C1508.01 174.665 1507.93 172.769 1507.9 172.393H1503.64C1503.7 173.408 1503.8 174.765 1503.8 176.058V189.886H1508.3V179.856C1508.3 177.377 1509.35 175.783 1511.23 175.783C1512.72 175.783 1513.5 176.804 1513.5 179.011V189.886H1517.97Z" fill="#6D6F71"/>
<path d="M1528.28 167.164C1528.28 165.885 1527.16 164.828 1525.8 164.828C1524.44 164.828 1523.33 165.885 1523.33 167.164C1523.33 168.522 1524.44 169.543 1525.8 169.543C1527.16 169.543 1528.28 168.522 1528.28 167.164ZM1523.56 189.885H1528.07V172.393H1523.56V189.885Z" fill="#6D6F71"/>
<path d="M1545.49 189.387L1545.36 185.858C1544.68 186.227 1543.33 186.694 1541.91 186.694C1539.01 186.694 1537.63 184.559 1537.63 181.247C1537.63 177.245 1539.49 175.572 1542 175.572C1543.33 175.572 1544.31 175.958 1545.12 176.369L1545.36 172.828C1544.54 172.494 1543.16 172.092 1541.25 172.092C1535.62 172.092 1533.01 176.058 1533.01 181.247C1533.01 186.085 1535.42 190.23 1541.22 190.23C1542.58 190.23 1544.61 189.795 1545.49 189.387Z" fill="#6D6F71"/>
<path d="M1563.7 189.886C1563.6 189.05 1563.52 187.815 1563.52 186.61V178.288C1563.52 175.624 1562.67 172.092 1556.74 172.092C1554.44 172.092 1552.44 172.633 1551.01 173.378L1551.24 176.904C1552.4 175.958 1554.2 175.167 1556.04 175.167C1558.71 175.167 1559.46 176.664 1559.46 178.288V178.962H1557.83C1551.79 178.962 1549.21 181.247 1549.21 184.902C1549.21 188.266 1551.38 190.23 1554.4 190.23C1556.74 190.23 1558.17 189.144 1559.46 187.517H1559.49C1559.49 187.922 1559.65 189.481 1559.69 189.886H1563.7ZM1559.46 182.728C1559.46 184.779 1558.5 187.187 1555.87 187.187C1554.27 187.187 1553.35 186.299 1553.35 184.597C1553.35 182.565 1555.06 181.338 1558.1 181.338C1558.47 181.338 1559.25 181.337 1559.46 181.38V182.728Z" fill="#6D6F71"/>
<path d="M1578.48 189.794L1578.4 186.569C1578.01 186.774 1577.47 186.903 1576.81 186.903C1575.63 186.903 1574.92 186.226 1574.92 184.499V175.649H1578.4V172.392H1574.92V167.404L1570.44 168.762V172.392H1567.53V175.649H1570.44V185.542C1570.44 188.734 1572.27 190.228 1575.26 190.228C1576.54 190.228 1577.76 189.992 1578.48 189.794Z" fill="#6D6F71"/>
<path d="M1587.62 167.164C1587.62 165.885 1586.5 164.828 1585.15 164.828C1583.79 164.828 1582.67 165.885 1582.67 167.164C1582.67 168.522 1583.79 169.543 1585.15 169.543C1586.5 169.543 1587.62 168.522 1587.62 167.164ZM1582.9 189.885H1587.41V172.393H1582.9V189.885Z" fill="#6D6F71"/>
<path d="M1608.08 181.127C1608.08 176.058 1605.73 172.092 1600.23 172.092C1594.69 172.092 1592.36 176.058 1592.36 181.127C1592.36 186.257 1594.69 190.23 1600.23 190.23C1605.73 190.23 1608.08 186.257 1608.08 181.127ZM1603.41 181.127C1603.41 184.597 1602.6 186.983 1600.23 186.983C1597.81 186.983 1597.04 184.597 1597.04 181.127C1597.04 177.718 1597.81 175.316 1600.23 175.316C1602.6 175.316 1603.41 177.718 1603.41 181.127Z" fill="#6D6F71"/>
<path d="M1627.25 189.886V177.682C1627.25 173.848 1625.04 172.092 1622.03 172.092C1619.31 172.092 1617.98 173.712 1617.35 175.167H1617.28C1617.28 174.665 1617.21 172.769 1617.17 172.393H1612.9C1612.97 173.408 1613.07 174.765 1613.07 176.058V189.886H1617.58V179.856C1617.58 177.377 1618.63 175.783 1620.5 175.783C1621.99 175.783 1622.76 176.804 1622.76 179.011V189.886H1627.25Z" fill="#6D6F71"/>
<path d="M1652 35.8009C1652 31.0696 1648.18 27.2617 1643.47 27.2617C1638.73 27.2617 1634.92 31.0696 1634.92 35.8009C1634.92 40.5288 1638.73 44.3367 1643.47 44.3367C1648.18 44.3367 1652 40.5288 1652 35.8009ZM1650.37 35.8009C1650.37 39.7998 1647.38 42.8071 1643.47 42.8071C1639.55 42.8071 1636.55 39.7998 1636.55 35.8009C1636.55 31.7955 1639.55 28.7882 1643.47 28.7882C1647.38 28.7882 1650.37 31.7955 1650.37 35.8009ZM1647.73 40.7946L1644.88 36.3486C1646.43 36.3486 1647.47 35.1981 1647.47 33.5939C1647.47 31.695 1646.31 30.7811 1644.04 30.7811H1640.2V40.7946H1641.83V36.3486H1643.25L1646 40.7946H1647.73ZM1645.84 33.5195C1645.84 34.8092 1645.02 35.0749 1643.78 35.0749H1641.83V32.0449H1643.78C1645.02 32.0449 1645.84 32.3982 1645.84 33.5195Z" fill="#6D6F71"/>
</svg>
