<?xml version="1.0" encoding="UTF-8"?>
<svg width="197px" height="26px" viewBox="0 0 197 26" version="1.1" xmlns="http://www.w3.org/2000/svg" xmlns:xlink="http://www.w3.org/1999/xlink">
    <title>Logo Copy 6</title>
    <defs>
        <filter color-interpolation-filters="auto" id="filter-1">
            <feColorMatrix in="SourceGraphic" type="matrix" values="0 0 0 0 1.000000 0 0 0 0 1.000000 0 0 0 0 1.000000 0 0 0 1.000000 0"></feColorMatrix>
        </filter>
    </defs>
    <g id="Screens" stroke="none" stroke-width="1" fill="none" fill-rule="evenodd">
        <g id="RingCentral-Ecotel-SidebySide-FullColor" transform="translate(0.000000, -11.000000)" filter="url(#filter-1)">
            <g transform="translate(0.000000, 11.000000)">
                <polygon id="Path" fill="#000000" points="119.808914 25.357001 119.808914 0 120.736029 0 120.736029 25.357001"></polygon>
                <g id="Group" transform="translate(0.000000, 6.222332)">
                    <path d="M4.93110717,8.36480885 L4.17113502,12.812666 L0,12.812666 L2.20935576,0.0535972614 L8.21851989,0.0535972614 C9.14830039,0.0535972614 9.93562182,0.109885019 10.5775565,0.221001311 C11.2194911,0.335012129 11.743412,0.505310705 12.1507236,0.736202944 C12.5566307,0.965683803 12.8516888,1.2514285 13.0330415,1.59489625 C13.2172743,1.93836401 13.3093907,2.34390857 13.3093907,2.81727115 C13.3093907,3.0640474 13.2791613,3.35555723 13.2201544,3.68605942 C13.0905964,4.41775243 12.8056306,5.07150854 12.3623056,5.64586854 C11.9204326,6.21738185 11.3116075,6.60558318 10.5343784,6.80475525 C10.7934468,6.89998753 11.0266179,6.99813826 11.2324397,7.0991596 C11.4397135,7.19872171 11.6167341,7.32572201 11.7635491,7.47870127 C11.910364,7.63311584 12.0255214,7.82216903 12.1075455,8.04732006 C12.1895933,8.27101187 12.2313432,8.56108639 12.2313432,8.9146491 C12.2313432,9.28266052 12.1895933,9.7055244 12.1075455,10.1889819 C12.0255214,10.6392362 11.9607305,11.0115774 11.9132442,11.307441 C11.8657578,11.6032806 11.8427168,11.8327615 11.8427168,11.9987063 C11.8427168,12.2815804 11.9492338,12.4230055 12.1593639,12.4230055 L12.1075455,12.812666 L7.88314005,12.812666 C7.85867088,12.6943254 7.84717419,12.5586654 7.84717419,12.4056862 C7.84717419,12.2036435 7.86300297,11.9482076 7.89178042,11.6321541 C7.92058167,11.3218658 7.97094815,10.9697383 8.04147551,10.5800778 C8.11343103,10.1889819 8.14799253,9.85993896 8.14799253,9.58861905 C8.14799253,9.13980014 8.00836597,8.82518195 7.73201679,8.63902329 C7.45423945,8.45717053 6.94471916,8.36624415 6.20345593,8.36624415 L4.93110717,8.36624415 L4.93110717,8.36480885 Z M5.42622683,5.56506104 L7.06849313,5.56506104 C7.71618801,5.56506104 8.22282817,5.47559388 8.58698546,5.29953018 C8.95399907,5.12200725 9.17134139,4.81028359 9.24186875,4.36000545 C9.25481741,4.30084709 9.2591495,4.21425053 9.2591495,4.09447459 C9.2591495,3.7293577 9.12385503,3.46090839 8.8532423,3.28917451 C8.58410533,3.11889986 8.22858842,3.03230331 7.79247562,3.03230331 L5.84939098,3.03230331 L5.42622683,5.56506104 Z" id="Shape" fill="#0684BD"></path>
                    <path d="M19.1645181,3.5258558 L22.5238863,3.5258558 L22.2748864,4.97912294 C22.7930471,4.41196338 23.3183962,3.9862289 23.8481488,3.69325985 C24.3791867,3.40464455 24.9980565,3.25886572 25.7047582,3.25886572 C26.7411272,3.25886572 27.5011469,3.50277136 27.9845795,3.9862289 C28.46825,4.46968644 28.7086572,5.17396518 28.7086572,6.09471138 C28.7086572,6.46126357 28.6741433,6.84369977 28.6036873,7.24491451 L27.6491996,12.8097715 L23.9719227,12.8097715 L24.8209645,7.90156515 C24.8554784,7.6879683 24.8742825,7.4830311 24.8742825,7.28098843 C24.8742825,6.96060512 24.7995421,6.69650956 24.6526795,6.48437193 C24.505817,6.27077508 24.2308959,6.16542392 23.8307728,6.16542392 C23.2665777,6.16542392 22.852054,6.33426327 22.5944137,6.67053059 C22.3339171,7.00679792 22.1568727,7.47726597 22.0647563,8.07906416 L21.2515376,12.8112307 L17.5755222,12.8112307 L19.1645181,3.5258558 Z" id="Path" fill="#0684BD"></path>
                    <path d="M32.1343397,13.1171654 L32.1343397,13.1705586 C32.1343397,13.3004534 32.1874197,13.4173588 32.2940557,13.5255805 C32.4235423,13.6785598 32.6768029,13.7536022 33.0540755,13.7536022 C33.5836852,13.7536022 33.9838084,13.6194014 34.255873,13.3480815 C34.5262716,13.0767616 34.7207395,12.6106234 34.8388008,11.9467484 L34.9797127,11.1847705 C34.671706,11.4560904 34.2932433,11.694207 33.8398021,11.8948144 C33.3863609,12.0953978 32.8236655,12.1964192 32.1514776,12.1964192 C31.5987793,12.1964192 31.1108242,12.1055167 30.6935631,11.929453 C30.276064,11.7533654 29.9264026,11.5109189 29.6441027,11.2049604 C29.3606127,10.8961313 29.1475787,10.5310144 29.0066668,10.1052799 C28.8655169,9.67954543 28.7950609,9.22637276 28.7950609,8.74004462 C28.7950609,8.58706536 28.805058,8.43265079 28.822434,8.27967152 C28.8381438,8.12523304 28.8583761,7.96648864 28.884321,7.80197912 C28.9778655,7.23481955 29.1461505,6.66763607 29.3879858,6.10047651 C29.6283929,5.53331694 29.9523475,5.02821027 30.3596114,4.58515648 C30.7654472,4.14064347 31.2548304,3.78275093 31.8263329,3.50420666 C32.3975974,3.22712162 33.0655007,3.08859106 33.8312331,3.08859106 C34.3982131,3.08859106 34.902116,3.2227918 35.3424656,3.49121718 C35.7842435,3.75964257 36.1355711,4.12045355 36.3959725,4.56637795 L36.5890123,3.35268662 L39.8230832,3.35268662 L38.5334537,10.8326431 C38.4139642,11.526803 38.2642453,12.1776645 38.0828688,12.7809219 C37.9000642,13.3827201 37.6080053,13.9094759 37.206454,14.3582949 C36.8063308,14.808573 36.2579169,15.1592651 35.5640687,15.4132657 C34.8690302,15.6658071 33.9492945,15.7928074 32.8062895,15.7928074 C32.0060432,15.7928074 31.3281427,15.7220948 30.7740162,15.5806698 C30.2213178,15.4392208 29.7723992,15.2501676 29.4313067,15.0149455 C29.088548,14.7782642 28.8381438,14.5069443 28.6798559,14.1981152 C28.5229962,13.8921566 28.4423051,13.5732086 28.4423051,13.2412711 L28.4423051,13.1186246 L32.1343397,13.1186246 L32.1343397,13.1171654 Z M34.326329,5.70938065 C34.0556925,5.70938065 33.821236,5.76133858 33.6196273,5.86956034 C33.4194467,5.97780603 33.2483054,6.12502017 33.1057273,6.31550866 C32.9648154,6.50456185 32.8496104,6.72825365 32.7617785,6.99091391 C32.6725184,7.25357417 32.6034906,7.53065921 32.5587416,7.82649886 C32.5458881,7.91020088 32.5373191,7.989597 32.5330347,8.05885032 C32.5256558,8.13102209 32.5227995,8.20316993 32.5227995,8.27244717 C32.5242277,8.64189389 32.6149159,8.95794738 32.7962924,9.22637276 C32.979097,9.49625737 33.2756785,9.63481185 33.6900832,9.64634211 L33.7779151,9.64634211 C34.0385545,9.64634211 34.2687265,9.59151358 34.4774761,9.48326789 C34.6833693,9.37935203 34.8602232,9.23503242 35.0070858,9.05896871 C35.1539484,8.88003441 35.274866,8.67653251 35.3684106,8.44418105 C35.4619551,8.21328881 35.5338392,7.97227769 35.5814446,7.72260692 C35.6145303,7.53209451 35.6347626,7.33584089 35.6347626,7.13379822 C35.6347626,6.74124314 35.5381237,6.40643504 35.3496065,6.12935 C35.1625173,5.85080573 34.8328501,5.71081595 34.3622711,5.71081595 L34.326329,5.71081595 L34.326329,5.70938065 Z" id="Shape" fill="#0684BD"></path>
                    <path d="M48.4403695,5.09026315 C48.4403695,5.04696488 48.444654,5.00799643 48.4503666,4.97192251 C48.4560792,4.94017841 48.4603637,4.89975074 48.4603637,4.85501717 C48.4603637,4.29651726 48.3006477,3.86501765 47.9826438,3.56482425 C47.6658301,3.26319555 47.2169114,3.11311081 46.6382681,3.11311081 C45.9358509,3.11311081 45.3386415,3.40464455 44.8492583,3.99201795 C44.3598751,4.57936743 44.0114038,5.45970987 43.8114612,6.63012684 C43.7681403,6.85525395 43.7350546,7.07028611 43.712204,7.2766586 C43.6891154,7.4830311 43.6791183,7.68220317 43.6791183,7.87125636 C43.6791183,8.16276618 43.7093477,8.43119157 43.7698065,8.67509721 C43.8316935,8.92043816 43.9380915,9.13690561 44.0878104,9.32162897 C44.2375293,9.50491703 44.4360437,9.65067194 44.6807353,9.7560231 C44.9254269,9.86426879 45.2377181,9.9147675 45.6164188,9.9147675 C46.2509984,9.9147675 46.7606139,9.71994918 47.1462175,9.33028863 C47.5306308,8.93919277 47.8112645,8.45429993 47.9897846,7.87125636 L51.7822665,7.87125636 C51.5592354,8.65344807 51.2398033,9.35193776 50.8223042,9.96672543 C50.4050431,10.5800778 49.9082811,11.1039391 49.3341603,11.5325681 C48.7612297,11.9611971 48.1192712,12.2916754 47.4125695,12.5211323 C46.7044396,12.7491539 45.9560832,12.864624 45.1644058,12.864624 C44.2951318,12.864624 43.526543,12.7534838 42.8572115,12.529792 C42.1893082,12.3061001 41.6237564,11.9828462 41.1603181,11.558547 C40.6997361,11.1342479 40.3469803,10.6161517 40.1080013,10.0085884 C39.8675942,9.39956587 39.7497709,8.71117113 39.7497709,7.93763907 C39.7497709,7.71538257 39.759768,7.4830311 39.7828567,7.24347921 C39.8042791,7.00390339 39.839031,6.75566792 39.883542,6.49736141 C40.051827,5.52609259 40.3555493,4.65007997 40.8032778,3.86501765 C41.2493401,3.08280201 41.789185,2.41895094 42.4254308,1.87198129 C43.0600104,1.32357634 43.7698065,0.903630916 44.5555331,0.60633204 C45.342926,0.31192769 46.1531694,0.163278252 46.9879296,0.163278252 C48.7367129,0.163278252 50.0437184,0.54860898 50.9072798,1.31924652 C51.7694131,2.08990797 52.2011938,3.18095274 52.2011938,4.58659178 L52.2011938,4.83769786 C52.2011938,4.91707005 52.194053,4.99933678 52.185484,5.08880393 L48.4403695,5.08880393 L48.4403695,5.09026315 Z" id="Path" fill="#FF8800"></path>
                    <path d="M56.0298558,8.79054333 C56.0181925,8.84826639 56.0096235,8.90744867 56.0039109,8.96660703 C55.99677,9.02578932 55.9953419,9.08494768 55.9953419,9.14412996 C55.9953419,9.59438418 56.1419664,9.94940612 56.4356916,10.2163962 C56.732273,10.4833863 57.0964541,10.6147164 57.5310912,10.6147164 C57.8260064,10.6147164 58.1111626,10.5468745 58.380133,10.4126737 C58.6507695,10.2755785 58.8738007,10.0749711 59.0508926,9.80075668 L62.5686916,9.80075668 C62.3094803,10.3794704 61.9712441,10.862928 61.5525549,11.2540477 C61.1321995,11.6422491 60.6716175,11.9583026 60.1634302,12.2022082 C59.656909,12.4417601 59.1230148,12.6149532 58.5643657,12.7159745 C58.0030984,12.8155606 57.4546845,12.8660593 56.9122213,12.8660593 C56.2514588,12.8660593 55.6440142,12.7837926 55.0913159,12.6163885 C54.5371894,12.451879 54.0594695,12.2036435 53.6593463,11.8731652 C53.257795,11.5441223 52.9466939,11.1385777 52.7222346,10.6580147 C52.4977753,10.178887 52.3854266,9.6290228 52.3854266,9.00270488 C52.3854266,8.84826639 52.3954237,8.6909573 52.4127997,8.5307776 C52.4287475,8.3720332 52.4501699,8.21182959 52.4732585,8.04442554 C52.6027451,7.28964809 52.8560057,6.59981805 53.2332782,5.98070056 C53.6103128,5.36158307 54.0723229,4.83482725 54.6193086,4.40330372 C55.1677225,3.97180411 55.7808797,3.63843132 56.457352,3.40175003 C57.1366807,3.16506874 57.8448106,3.04816339 58.5860262,3.04816339 C59.32867,3.04816339 59.9865762,3.15351456 60.5578407,3.36711141 C61.1293432,3.57924903 61.6101574,3.87511261 62.0000454,4.25321898 C62.3873151,4.63132536 62.6838965,5.09313376 62.8824109,5.63577358 C63.0823535,6.1784134 63.1832769,6.77444645 63.1832769,7.42530804 C63.1832769,7.82795808 63.1356715,8.28110683 63.042127,8.79054333 L56.0298558,8.79054333 L56.0298558,8.79054333 Z M59.6885666,6.91010641 C59.6999919,6.85092413 59.7059425,6.76289227 59.7059425,6.64455163 C59.7059425,6.26500995 59.5762179,5.94606194 59.3186729,5.68773151 C59.0580334,5.42796578 58.7343169,5.29807095 58.3456191,5.29807095 C57.7929207,5.29807095 57.3454302,5.44095526 57.0026715,5.73102979 C56.6601509,6.02110431 56.4428324,6.41363547 56.3478597,6.91010641 L59.6885666,6.91010641 L59.6885666,6.91010641 Z" id="Shape" fill="#FF8800"></path>
                    <path d="M64.38079,3.57924903 L67.7372067,3.57924903 L67.4896588,5.03254009 C68.0092714,4.46535661 68.5331685,4.03962213 69.0642064,3.74665308 C69.5940542,3.45803778 70.212924,3.31225895 70.9181976,3.31225895 C71.9557567,3.31225895 72.7157764,3.55616459 73.199447,4.03962213 C73.6816894,4.52307967 73.9249529,5.22735841 73.9249529,6.14810461 C73.9249529,6.5146568 73.8873446,6.89709301 73.8168887,7.29830774 L72.8654953,12.8631648 L69.1879804,12.8631648 L70.0372602,7.95495838 C70.0717741,7.74136153 70.0891501,7.53642433 70.0891501,7.33438166 C70.0891501,7.01399835 70.0155998,6.74990279 69.867309,6.53776516 C69.7206845,6.32416831 69.4471916,6.21881715 69.0470685,6.21881715 C68.4812787,6.21881715 68.0668739,6.3876565 67.8076627,6.72392383 C67.5486894,7.06019115 67.3730256,7.53065921 67.2780529,8.13245739 L66.4649532,12.864624 L62.7888664,12.864624 L64.38079,3.57924903 Z" id="Path" fill="#FF8800"></path>
                    <path d="M79.6618762,12.7953467 C79.2474714,12.8169959 78.8675805,12.8357505 78.5191092,12.84874 C78.1737322,12.8602941 77.8514439,12.864624 77.5562906,12.864624 C77.0021641,12.864624 76.5372976,12.838645 76.1614532,12.7852518 C75.7829905,12.7332938 75.4835527,12.6366023 75.2590934,12.5009424 C75.0360622,12.3667177 74.8777744,12.1834297 74.7828017,11.9597379 C74.6875909,11.7375053 74.6416517,11.4517606 74.6416517,11.1111634 C74.6416517,10.8990258 74.6573615,10.6580147 74.6861628,10.3924599 C74.7163922,10.126929 74.7582849,9.8325247 74.8187437,9.51501199 L75.4909316,5.63577358 L74.1810698,5.63577358 L74.5350157,3.50710119 L75.8953392,3.50710119 L76.4092392,0.617862299 L80.0320079,0.617862299 L79.5195361,3.50710119 L81.2868855,3.50710119 L80.9329396,5.63577358 L79.1653521,5.63577358 L78.5838525,9.01712966 C78.5595738,9.12535143 78.543626,9.21917233 78.5307725,9.30720419 C78.5176811,9.39813056 78.5119684,9.47750276 78.5119684,9.5482153 C78.5119684,9.77334241 78.5838525,9.93354603 78.7250024,10.0302375 C78.8690087,10.1240345 79.1322664,10.1702273 79.5209643,10.1702273 L80.103892,10.1702273 L79.6618762,12.7953467 Z" id="Path" fill="#FF8800"></path>
                    <path d="M82.0440489,3.57924903 L85.386184,3.57924903 L85.066752,5.45827457 L85.1041222,5.45827457 C85.8439097,4.02809187 86.9162207,3.31371817 88.319389,3.31371817 C88.4015082,3.31371817 88.4807712,3.32094253 88.5583679,3.33247279 C88.6333464,3.34402697 88.7152276,3.35701645 88.7973469,3.36854671 L88.142535,7.0544021 C88.0259019,7.02988236 87.9035561,7.00679792 87.7812102,6.98225425 C87.6560081,6.96060512 87.5293778,6.94761563 87.3996532,6.94761563 C86.6455841,6.94761563 86.0481367,7.1496583 85.6063589,7.55087304 C85.164581,7.95206386 84.8551461,8.6577779 84.6780541,9.6593316 L84.1296402,12.8674946 L80.4521253,12.8674946 L82.0440489,3.57924903 Z" id="Path" fill="#FF8800"></path>
                    <path d="M93.716886,12.8848139 L93.6968917,11.6076105 C93.096588,12.1011869 92.5036631,12.435995 91.9193071,12.6077288 C91.3378075,12.7780274 90.6987054,12.864624 90.0020008,12.864624 C89.613541,12.864624 89.2419811,12.8213257 88.8894633,12.7332938 C88.5369455,12.6438028 88.2287007,12.5067075 87.9711557,12.3147598 C87.7107543,12.1257066 87.5048611,11.8948144 87.3508577,11.6133756 C87.1997106,11.3377498 87.1218759,11.0029177 87.1218759,10.6118219 C87.1218759,10.4473124 87.1392518,10.2654596 87.176622,10.0648522 C87.2932552,9.36636255 87.5493721,8.82085212 87.9437826,8.42396721 C88.3381931,8.02854153 88.7987751,7.73126657 89.3226722,7.53065921 C89.843713,7.32861654 90.4006958,7.19006205 90.9836236,7.11214908 C91.5665513,7.03564749 92.1092526,6.96493494 92.6100611,6.89998753 C93.1108696,6.83360482 93.5369377,6.74700827 93.8825527,6.63445667 C94.2293578,6.52044585 94.4293003,6.31840318 94.4740494,6.02253961 C94.4740494,5.99945517 94.4783339,5.97780603 94.4840465,5.96192202 C94.4897592,5.94316741 94.4928535,5.9244128 94.4928535,5.89986914 C94.4942817,5.75700875 94.4509608,5.64443323 94.3688415,5.56216651 C94.2869603,5.48135901 94.1891312,5.4178469 94.0767826,5.37600785 C93.9658621,5.33414488 93.8463726,5.30673061 93.7154578,5.287976 C93.5859712,5.26919746 93.4795732,5.26199703 93.3974539,5.26199703 C93.265111,5.26199703 93.1296737,5.27065669 92.9828111,5.287976 C92.8361866,5.30673061 92.6964648,5.34859358 92.5669782,5.41351707 C92.4374916,5.47846449 92.3180021,5.56939086 92.2056535,5.68773151 C92.0933048,5.80750746 92.0128517,5.96625185 91.9666745,6.16685922 L88.4317376,6.16685922 C88.5138569,5.6689769 88.6792856,5.22879371 88.9268335,4.84492221 C89.1743814,4.46102678 89.5257091,4.13487834 89.9774841,3.87078278 C90.4323534,3.605228 90.9879081,3.40031472 91.6472424,3.25886572 C92.307767,3.11454611 93.0994443,3.04672809 94.0163237,3.04672809 C94.8539403,3.04672809 95.5406477,3.10301585 96.074542,3.21556744 C96.6129587,3.32670766 97.0330761,3.48978188 97.3396547,3.70337873 C97.6462333,3.91408106 97.8592673,4.16951696 97.9759005,4.46392131 C98.0925337,4.75832566 98.1544206,5.09169846 98.1544206,5.45827457 C98.1544206,5.68050716 98.1384728,5.91285862 98.1082434,6.14664538 C98.078014,6.38332668 98.0392156,6.63156215 97.9932765,6.8927871 L97.2503946,11.2338339 C97.2173089,11.4344413 97.1987428,11.6003861 97.1987428,11.7288456 C97.1987428,11.8601758 97.2215934,11.9756219 97.2691988,12.0752079 C97.3165661,12.17477 97.4058262,12.2916754 97.5341227,12.4215702 L97.5210312,12.8833786 L93.716886,12.8833786 L93.716886,12.8848139 Z M92.0171362,10.7720255 C92.3337119,10.7720255 92.6143456,10.7157377 92.8561809,10.5973971 C93.0980161,10.4790565 93.301053,10.3159822 93.4636254,10.1081505 C93.6304822,9.90177802 93.7573505,9.6593316 93.8537514,9.38081125 C93.9487241,9.10516152 94.0120393,8.80642734 94.0479813,8.48747932 C93.7183141,8.62890441 93.3843624,8.73138497 93.0489826,8.79920298 C92.7138408,8.8641504 92.3998834,8.93486294 92.1121089,9.01134061 C91.8229063,9.08784221 91.5736921,9.19606397 91.3694651,9.33894828 C91.1621437,9.48037337 91.0355134,9.69830004 90.9879081,9.99559892 L90.9879081,10.0994909 C90.9879081,10.3029928 91.0728836,10.4646317 91.244263,10.5873021 C91.4182606,10.7128432 91.6746155,10.7720255 92.0171362,10.7720255 Z" id="Shape" fill="#FF8800"></path>
                    <polygon id="Path" fill="#FF8800" points="98.1501362 12.864624 100.358073 0.105555192 104.036778 0.105555192 101.828841 12.864624"></polygon>
                    <polygon id="Path" fill="#0684BD" points="12.7941101 12.812666 14.865277 5.27642182 17.5280121 5.27642182 16.4542967 12.812666"></polygon>
                    <path d="M18.8694838,1.91238504 C18.8680319,1.91238504 18.8694838,1.91238504 18.8608434,1.89941948 C18.8522031,1.88353547 18.8349223,1.85466198 18.809025,1.82002336 C18.7557784,1.74787552 18.6694222,1.64685418 18.5427444,1.53284337 C18.2851041,1.30915156 17.867724,1.0464913 17.1897997,0.922385528 C16.8558718,0.861767942 16.5708823,0.858873417 16.3247625,0.884852382 C15.7303142,0.946905269 15.3690609,1.18791639 15.242383,1.28750242 C15.1977767,1.31781121 15.1920165,1.32647087 15.1920165,1.32647087 C15.0236125,1.49676944 14.7472633,1.49531022 14.5788593,1.32503557 C14.4090272,1.15617229 14.4090272,0.879087252 14.5788593,0.710223979 C14.6220374,0.668384927 15.1761877,0.131534157 16.2340743,0.0203939431 C16.5593618,-0.0142446771 16.9321594,-0.00845562596 17.3452312,0.066586744 C19.0263673,0.366756224 19.6150553,1.45203587 19.645261,1.52274841 C19.7532299,1.73778056 19.66685,1.99898159 19.4524116,2.11012181 C19.4049014,2.13320625 19.3545349,2.14763103 19.3027165,2.15339616 C19.1271241,2.16638564 18.9515317,2.07835379 18.8694838,1.91238504 Z" id="Path" fill="#FF8800"></path>
                    <path d="M17.7885563,2.90240848 C17.7871043,2.90384378 17.7885563,2.90097318 17.7626351,2.86200473 C17.7338577,2.82736611 17.6892277,2.76964305 17.6187003,2.70902547 C17.4790975,2.58779029 17.2488066,2.44060008 16.8645122,2.36842831 C16.6759473,2.33381362 16.5147555,2.33235439 16.3794611,2.3468031 C16.0484133,2.3814178 15.85266,2.51420715 15.7864648,2.56470585 C15.7677559,2.57913064 15.769184,2.58058986 15.769184,2.58058986 C15.6281293,2.72201495 15.3992903,2.72201495 15.2567836,2.58058986 C15.1157289,2.43770555 15.1157289,2.20968392 15.2567836,2.06682353 C15.2913213,2.03072569 15.6425299,1.69448229 16.3046016,1.62520505 C16.5075433,1.60499121 16.7378343,1.60932104 16.9925945,1.65407854 C18.0361042,1.8402372 18.4132101,2.51853698 18.4376793,2.57626004 C18.5269156,2.75375904 18.4549601,2.97312102 18.2750356,3.0626121 C18.2347376,3.08426124 18.1929877,3.09725072 18.1498096,3.10012132 C18.0044466,3.11600533 17.8562035,3.04096296 17.7885563,2.90240848 Z" id="Path" fill="#FF8800"></path>
                    <path d="M17.4790885,3.79284588 C17.4761936,4.2402295 17.0544814,4.59958126 16.5363208,4.59668674 C16.0167319,4.59381613 15.5978999,4.23013454 15.5993244,3.78562153 C15.60078,3.33823792 16.0224922,2.97891007 16.543533,2.98034109 C17.0616698,2.98178068 17.4819539,3.3497921 17.4790885,3.79284588 Z" id="Path" fill="#FF8800"></path>
                    <path d="M106.001452,0.122874502 C105.080288,0.122874502 104.331932,0.874757425 104.331932,1.79839815 C104.331932,2.72345025 105.080288,3.47535709 106.001452,3.47535709 C106.922616,3.47535709 107.672639,2.72345025 107.672639,1.79839815 C107.672639,0.874757425 106.924044,0.122874502 106.001452,0.122874502 Z M106.001452,3.17229309 C105.245955,3.17229309 104.631369,2.5560462 104.631369,1.79839815 C104.631369,1.04216147 105.245955,0.424479284 106.001452,0.424479284 C106.757187,0.424479284 107.371775,1.04216147 107.371775,1.79839815 C107.373201,2.55750542 106.757187,3.17229309 106.001452,3.17229309 Z M106.774563,2.3482384 C106.761472,2.27606663 106.754331,2.19382383 106.754331,2.10146215 C106.754331,2.02929039 106.744334,1.9672375 106.72553,1.91527957 C106.706726,1.86621616 106.682209,1.82148259 106.650551,1.78827927 C106.63627,1.77241918 106.623416,1.7594297 106.607468,1.74787552 C106.620322,1.73778056 106.633413,1.72479108 106.644839,1.7118016 C106.680781,1.67426845 106.712438,1.62664035 106.739811,1.56748199 C106.767184,1.5068644 106.780276,1.43471656 106.780276,1.34522548 C106.780276,1.18648109 106.726958,1.05804548 106.620322,0.965683803 C106.518208,0.876192727 106.367061,0.83145915 106.169975,0.83145915 L105.39853,0.83145915 C105.356637,0.83145915 105.323552,0.864662468 105.323552,0.90650152 L105.323552,2.52863193 C105.323552,2.57049491 105.356637,2.6036743 105.39853,2.6036743 L105.68202,2.6036743 C105.723675,2.6036743 105.75676,2.56903568 105.75676,2.52863193 L105.75676,1.9354934 L106.099519,1.9354934 C106.154027,1.9354934 106.198776,1.94269384 106.230434,1.95568332 C106.257807,1.9658022 106.279229,1.98166228 106.295177,2.00620595 C106.312315,2.03362021 106.325407,2.06825883 106.332547,2.11155711 C106.341116,2.16062051 106.345639,2.2226734 106.345639,2.29051534 C106.345639,2.33091909 106.347067,2.37565267 106.351351,2.41895094 C106.355636,2.4738034 106.372774,2.52430211 106.398719,2.56903568 C106.41181,2.59068482 106.436089,2.6051096 106.462034,2.6051096 L106.765756,2.6051096 C106.795986,2.6051096 106.823359,2.58635499 106.834784,2.55894073 C106.847876,2.53152646 106.842163,2.49975844 106.820502,2.47813323 C106.810505,2.46657905 106.788845,2.43194042 106.774563,2.3482384 Z M105.75676,1.21535458 L106.141174,1.21535458 C106.172831,1.21535458 106.204489,1.21678988 106.234718,1.22255501 C106.257807,1.22688484 106.277801,1.23410919 106.295177,1.24566337 C106.309459,1.25719363 106.32255,1.27164233 106.331119,1.29183225 C106.341116,1.31348139 106.347067,1.3466847 106.347067,1.38565315 C106.347067,1.45057664 106.332547,1.49676944 106.302318,1.52418371 C106.269232,1.5530572 106.217342,1.56891729 106.146886,1.56891729 L105.758189,1.56891729 L105.758189,1.21535458 L105.75676,1.21535458 Z" id="Shape" fill="#FF8800" fill-rule="nonzero"></path>
                </g>
                <path d="M150.762878,17.0850688 C151.45268,17.0850688 152.012523,17.6482096 152.012523,18.3413408 C152.012523,19.0350701 151.45268,19.5967037 150.762878,19.5967037 C150.071886,19.5967037 149.512523,19.0350701 149.512523,18.3413408 C149.512523,17.6482096 150.071886,17.0850688 150.762878,17.0850688 Z" id="Path" fill="#6C6E70" fill-rule="nonzero"></path>
                <path d="M150.762878,17.0850688 C151.45268,17.0850688 152.012523,17.6482096 152.012523,18.3413408 C152.012523,19.0350701 151.45268,19.5967037 150.762878,19.5967037 C150.071886,19.5967037 149.512523,19.0350701 149.512523,18.3413408 C149.512523,17.6482096 150.071886,17.0850688 150.762878,17.0850688 Z" id="Path" stroke="#6C6E70" stroke-width="0.1025"></path>
                <path d="M154.417067,17.4236805 C154.920493,17.4236805 155.328233,17.8334353 155.328233,18.3386376 C155.328233,18.8450361 154.920493,19.2547909 154.417067,19.2547909 C153.91364,19.2547909 153.5059,18.8450361 153.5059,18.3386376 C153.5059,17.8334353 153.91364,17.4236805 154.417067,17.4236805 Z" id="Path" fill="#6C6E70" fill-rule="nonzero"></path>
                <path d="M154.417067,17.4236805 C154.920493,17.4236805 155.328233,17.8334353 155.328233,18.3386376 C155.328233,18.8450361 154.920493,19.2547909 154.417067,19.2547909 C153.91364,19.2547909 153.5059,18.8450361 153.5059,18.3386376 C153.5059,17.8334353 153.91364,17.4236805 154.417067,17.4236805 Z" id="Path" stroke="#6C6E70" stroke-width="0.1025"></path>
                <path d="M142.067043,6.60504425 L143.054141,6.60504425 C143.075325,6.60504425 143.061043,6.62155022 143.081276,6.62217218 L143.375001,6.62217218 C143.376191,6.6338699 143.375001,6.6392762 143.381666,6.64647663 L143.576372,6.64647663 C143.597318,6.64647663 143.571135,6.6629826 143.593033,6.6629826 L143.701812,6.6629826 C143.722282,6.6629826 143.696575,6.67979956 143.718236,6.67979956 L143.842724,6.67979956 C143.864146,6.67979956 143.838915,6.69661651 143.859862,6.69661651 L143.98792,6.69661651 C144.008866,6.69661651 144.044094,6.73053748 144.064565,6.73053748 L144.179294,6.73053748 C144.236896,6.73053748 144.307114,6.76775965 144.347817,6.78577268 C144.530383,6.81998071 144.716996,6.86021701 144.897183,6.8992333 C144.901229,6.90734276 144.899087,6.91454319 144.90718,6.91935145 C145.633638,7.12376237 146.272978,7.4431649 146.901369,7.85141261 L147.634253,8.63848435 C147.634253,8.63848435 146.196809,7.9078439 146.173007,7.9078439 C146.149204,7.9078439 145.901894,7.76797373 145.799066,7.76285448 C145.696715,7.70702124 145.563182,7.64697777 145.431077,7.62028116 C145.299686,7.55452041 145.122594,7.52301553 144.972161,7.48610435 C144.931696,7.44077273 144.854576,7.45096337 144.765316,7.42845305 C144.625832,7.39154187 144.489681,7.37771513 144.347103,7.34410514 C144.319253,7.31288732 144.274028,7.32489602 144.257128,7.31948971 C144.211665,7.30748102 144.172153,7.28946798 144.146208,7.28946798 L143.981255,7.28946798 C143.971496,7.28946798 143.90223,7.25614505 143.87938,7.25614505 L143.65135,7.25614505 C143.630166,7.25614505 143.655396,7.23904104 143.634926,7.23904104 L142.968213,7.23904104 C142.946552,7.23904104 142.972259,7.25614505 142.951551,7.25614505 L142.714476,7.25614505 C142.707097,7.25614505 142.643068,7.25614505 142.624264,7.28946798 L142.459312,7.28946798 C142.438603,7.28946798 142.463596,7.30657199 142.443126,7.30657199 L142.331253,7.30657199 C142.318162,7.30657199 142.27008,7.32310189 142.257465,7.34831536 L142.139879,7.34831536 C142.133215,7.34831536 141.760227,7.43084522 141.603367,7.48698945 C141.453886,7.52301553 141.27727,7.55452041 141.145165,7.62028116 C140.90333,7.70793026 140.632693,7.78746991 140.445128,7.90425565 C139.862677,8.16631786 139.237142,8.53763047 138.839637,8.92607102 C138.771323,8.95728884 138.720862,9.01223698 138.661593,9.06476903 C138.654452,9.07077338 138.61732,9.07165848 138.603752,9.10617749 C138.588757,9.11218184 138.54258,9.12660662 138.558289,9.16650802 C138.429517,9.22714953 138.352872,9.35833612 138.253853,9.44777936 C138.215769,9.48260935 138.1396,9.54174379 138.132697,9.59217073 C137.967983,9.73086874 137.82112,9.94879542 137.667593,10.1024923 C137.665927,10.1169171 137.666403,10.1334231 137.665927,10.1526322 C137.594519,10.1904524 137.551436,10.2895122 137.50383,10.3591482 C137.460033,10.4218949 137.37958,10.4894258 137.351017,10.561478 C137.341734,10.5833903 137.339354,10.6068096 137.329595,10.6257077 C137.314599,10.6500361 137.275325,10.6575475 137.259377,10.6866602 C137.217246,10.7638077 137.182494,10.8799715 137.100613,10.9460193 C137.058482,11.060078 136.991597,11.1531334 136.963033,11.2768085 C136.872821,11.3656777 136.857349,11.5322684 136.767137,11.6136261 C136.740716,11.6964669 136.715961,11.7973208 136.678353,11.887697 C136.617894,11.9143936 136.658359,12.0311793 136.592664,12.0573018 C136.559102,12.232289 136.450085,12.4004107 136.436756,12.5886267 C136.421284,12.593124 136.403908,12.610826 136.401052,12.6318532 C136.37963,12.8305707 136.316552,12.9842677 136.296082,13.1634651 C136.294178,13.1859754 136.265853,13.2039885 136.265853,13.2250156 L136.265853,13.402419 C136.222294,13.4297375 136.224436,13.4510518 136.224436,13.4591612 L136.224436,13.5729089 C136.224436,13.5939361 136.20706,13.5666175 136.206822,13.5873337 L136.206822,13.7695453 C136.194683,13.7716504 136.18778,13.7875583 136.173498,13.7941607 L136.173498,14.040004 C136.174212,14.0610073 136.157312,14.0349087 136.157312,14.0553139 L136.157312,15.1681035 C136.157312,15.1891067 136.174212,15.1617882 136.174212,15.1816192 L136.174212,15.3941396 C136.174212,15.4151429 136.189922,15.433754 136.20706,15.4529631 L136.20706,15.6438822 C136.20706,15.6651964 136.224436,15.6375908 136.224436,15.659192 L136.224436,15.7696625 C136.224436,15.7741597 136.218961,15.8047795 136.265853,15.8276008 L136.265853,15.9788816 C136.265853,16.0008178 136.285609,16.0185199 136.29513,16.0389251 C136.307983,16.0632535 136.281324,16.1094702 136.315362,16.1286793 L136.315362,16.2388627 C136.3156,16.2589569 136.34464,16.2664683 136.346306,16.2826872 C136.355351,16.4132518 136.37963,16.5456345 136.437708,16.640197 C136.502213,16.829609 136.513163,17.0586593 136.629082,17.2168535 C136.657645,17.3351224 136.712153,17.4416935 136.762377,17.5512549 C136.765947,17.5752723 137.085855,18.2659874 137.064433,18.2659874 L137.65712,19.5714902 C137.65712,19.5714902 136.189922,18.0633706 136.177783,18.0720781 C136.162787,18.0507639 135.833358,17.5926873 135.734577,17.3159132 C135.660074,17.1220039 135.57248,16.9481889 135.476318,16.7557627 C135.417763,16.4937005 135.273519,16.2622581 135.245908,15.9729012 C135.227342,15.9539791 135.208775,15.917666 135.190923,15.8891513 L135.190923,15.7786809 C135.190923,15.7573667 135.166407,15.7492572 135.159504,15.727632 C135.132369,15.6552928 135.162122,15.5658496 135.107138,15.5058061 L135.107138,15.3782317 C135.107138,15.3575155 135.091666,15.331393 135.07429,15.313978 L135.07429,15.1966182 C135.066911,15.1900158 135.060961,15.1909248 135.049535,15.1900158 L135.049535,15.0183058 C135.049059,14.9984986 135.034302,14.9900782 135.015736,14.9795766 L135.015736,14.8090866 C135.015022,14.7877724 135.011451,14.8066705 135.000026,14.8060725 L135.000026,14.5503256 C134.998836,14.5290114 134.995027,14.5479095 134.982888,14.5464264 L134.982888,14.3320879 C134.982174,14.3119698 134.977889,14.3308919 134.965952,14.3293848 L134.965952,13.6476642 C134.965274,13.626948 134.975271,13.6461571 134.982174,13.6401528 L134.982174,13.4558361 C134.982174,13.4348329 134.991695,13.454951 134.998836,13.4483486 L134.998836,13.2048975 C134.998836,13.1844923 135.008357,13.2048975 135.015736,13.1973861 L135.015736,13.0133804 C135.015022,12.9941712 135.049059,12.9872579 135.049535,12.9659436 L135.049535,12.8455696 C135.060961,12.8440626 135.066911,12.8455696 135.07429,12.8386802 L135.07429,12.7212964 C135.073576,12.6999822 135.107138,12.6777589 135.107138,12.6567557 L135.107138,12.5054749 C135.107138,12.4844477 135.134987,12.4781563 135.137605,12.4631334 C135.157362,12.3217562 135.19259,12.1773648 135.226389,12.0380927 C135.261141,11.9726429 135.285896,11.8489677 135.30232,11.7697152 C135.352068,11.7544053 135.324456,11.6949598 135.334454,11.6625459 C135.348497,11.6241277 135.393722,11.5553767 135.384677,11.5037537 C135.400625,11.491147 135.409194,11.4830375 135.421809,11.4761241 C135.457514,11.3683808 135.486315,11.2488919 135.526541,11.1444259 C135.561293,11.0543846 135.616753,11.0078569 135.634605,10.9117873 C135.675546,10.8130386 135.744098,10.7304848 135.776231,10.6344152 C135.868348,10.4702167 135.97427,10.286498 136.051629,10.1162952 C136.13589,10.0427599 136.16969,9.93618869 136.227292,9.85664904 C136.296082,9.76328264 136.386294,9.67984376 136.417476,9.5708565 C136.428425,9.56997139 136.442945,9.57088042 136.456036,9.56277096 C136.540536,9.43488556 136.650028,9.30159385 136.735004,9.1722253 C136.787846,9.1115838 136.887103,9.05484153 136.927329,8.96360417 C137.100613,8.78617692 137.270088,8.60157317 137.453369,8.44548409 C137.50145,8.40285562 137.57381,8.374939 137.626176,8.33080346 C137.682827,8.2848738 137.734002,8.22724643 137.78732,8.16902101 C137.842543,8.13689417 137.911094,8.10357124 137.942038,8.05072821 C138.028918,7.99850714 138.142456,7.92616792 138.228146,7.85201065 C138.273133,7.81359241 138.346445,7.80218176 138.392861,7.76376351 C138.47736,7.69472548 138.583282,7.66231158 138.645407,7.58425508 C138.719196,7.55753454 138.797744,7.5299289 138.868438,7.48789847 C138.881292,7.4801 138.88034,7.45577163 138.897002,7.45096337 C139.090755,7.38883872 139.245949,7.24624147 139.460649,7.20421104 C139.467314,7.19131725 139.476121,7.18260975 139.487546,7.16670182 C139.601323,7.13397694 139.722241,7.09285554 139.82126,7.04151957 C139.953841,6.97666784 140.123078,6.96858231 140.246376,6.8992333 C140.419659,6.83918984 140.644119,6.84459614 140.805739,6.76565454 C140.923324,6.73953204 141.060428,6.74493834 141.170872,6.69661651 L141.283935,6.69661651 C141.305119,6.69661651 141.27965,6.67979956 141.300835,6.67979956 L141.442223,6.67979956 C141.463169,6.67979956 141.438176,6.6629826 141.458647,6.6629826 L141.584325,6.6629826 C141.605271,6.6629826 141.579564,6.64647663 141.600273,6.64647663 L141.777841,6.64647663 C141.785696,6.6392762 141.784267,6.6338699 141.785696,6.62217218 L142.050857,6.62217218 C142.071804,6.62155022 142.046811,6.60504425 142.067043,6.60504425 Z" id="Path" fill="#FF6F03" fill-rule="nonzero"></path>
                <path d="M133.791087,11.5166475 C133.819651,11.5160495 135.337548,9.65250126 135.337548,9.65250126 L134.665836,11.3908672 C134.665836,11.3908672 134.433998,12.215185 134.385679,12.4463165 C134.370445,12.4505267 134.348308,12.6222367 134.348308,12.6222367 C134.348308,12.6735726 134.298323,12.7570115 134.298323,12.8068404 L134.298323,12.9218081 C134.298323,12.9485286 134.265475,13.0079741 134.265475,13.0328765 L134.265475,13.1799711 C134.265475,13.2006873 134.249051,13.1736797 134.248575,13.1943719 L134.248575,13.3844059 C134.229771,13.3952185 134.215013,13.4045241 134.215013,13.4249293 L134.215013,13.7536373 C134.202874,13.7545224 134.197637,13.7536373 134.189544,13.7605268 L134.189544,14.608551 C134.197637,14.6160624 134.202874,14.6145554 134.215013,14.6160624 L134.215013,14.9267575 C134.215013,14.9477607 134.229771,14.9570663 134.248575,14.9672808 L134.248575,15.1681035 C134.249051,15.1891067 134.265475,15.1617882 134.265475,15.1815953 L134.265475,15.3527072 C134.265475,15.3737105 134.280471,15.384236 134.298323,15.4028471 L134.298323,15.6033588 C134.298323,15.624673 134.315937,15.6357727 134.328314,15.6543838 C134.338311,15.6696937 134.324268,15.727632 134.348308,15.7525584 L134.348308,15.8699183 C134.348308,15.8921416 134.36259,15.9095565 134.385679,15.9200582 C134.396628,15.9395544 134.383298,15.9605815 134.406387,15.9879001 L134.406387,16.1040639 C134.407339,16.1256891 134.432094,16.1331766 134.436854,16.1478884 C134.448042,16.1764031 134.443043,16.2199406 134.453992,16.2475462 C134.501598,16.3667241 134.503264,16.5669488 134.578956,16.657612 C134.59657,16.8185093 134.64846,16.9439787 134.711775,17.0832747 C134.71725,17.0991826 134.715822,17.12198 134.737244,17.1583171 C134.778661,17.2657734 134.837216,17.3912666 134.858638,17.5071194 C134.872443,17.5230273 134.898388,17.5320458 134.91148,17.5503459 C134.936949,17.672825 135.008357,17.7968112 135.049774,17.9234765 C135.107138,17.9604117 135.10452,18.0438505 135.14189,18.0993967 C135.21306,18.1846537 135.257095,18.293019 135.329217,18.3941599 C135.329217,18.4515002 135.385391,18.518457 135.419667,18.5526651 C135.682449,19.0224633 136.028302,19.4493221 136.34583,19.7975264 C136.3494,19.8134343 136.3494,19.8299403 136.35059,19.8449631 C136.392721,19.8803911 136.386532,19.8743868 136.436756,19.9043846 C136.832833,20.3798762 137.316979,20.738008 137.788987,21.1102296 C137.820644,21.1126457 137.860871,21.1258505 137.886578,21.1486479 C137.970125,21.2245993 138.061051,21.2570132 138.138886,21.3362657 C138.155072,21.3380838 138.170544,21.3380838 138.189824,21.3386818 C138.227908,21.4005194 138.340495,21.4569507 138.411427,21.4830732 C138.431421,21.4980721 138.449987,21.5163961 138.457366,21.5368013 C138.522109,21.5671101 138.619938,21.6070355 138.694679,21.6421525 C138.733239,21.6790876 138.787747,21.7316197 138.868438,21.7256153 C139.015777,21.8114703 139.173113,21.8778052 139.313787,21.9531585 C139.442321,21.9792571 139.560382,22.0404966 139.664162,22.0954448 C139.805312,22.132356 139.938607,22.1821849 140.077853,22.2167039 C140.223763,22.2800485 140.413947,22.3301884 140.570568,22.3602102 C140.643167,22.4190336 140.800026,22.4016186 140.886668,22.4352525 C140.90809,22.443649 140.926895,22.4658723 140.947127,22.4658723 L141.061856,22.4658723 C141.069949,22.4658723 141.117554,22.4841724 141.156353,22.4964921 C141.191342,22.5075917 141.255372,22.4799622 141.265131,22.5244087 L141.370101,22.5244087 C141.373195,22.5244087 141.451744,22.5517273 141.487924,22.5574206 L141.846868,22.5655301 C141.854961,22.5655301 141.852343,22.5820361 141.872813,22.5820361 L142.321256,22.5820361 C142.341726,22.5820361 142.338632,22.5997381 142.35934,22.5997381 C142.380287,22.5997381 142.384571,22.6012452 142.394568,22.5838302 L142.829681,22.5838302 C142.850152,22.5820361 142.847295,22.5655301 142.85515,22.5655301 L143.230042,22.5574206 C143.268127,22.5517273 143.328586,22.5628269 143.344295,22.5244087 L143.461881,22.5244087 C143.469021,22.5171843 143.467831,22.512089 143.469021,22.5000803 L143.57899,22.5000803 C143.600174,22.4994823 143.636116,22.4829763 143.663013,22.4658723 L143.771316,22.4658723 C143.791548,22.4658723 143.817969,22.4403478 143.840343,22.4352525 C143.943885,22.4037237 144.082893,22.4103261 144.172153,22.3602102 C144.275932,22.3445893 144.392804,22.3058601 144.489681,22.2758383 C144.542761,22.2605284 144.635353,22.2569402 144.663202,22.2179239 C145.032382,22.11585 147.567608,21.1972807 147.567608,21.1972807 C147.56832,21.2086913 147.365997,21.4302302 147.281498,21.5094828 C147.206043,21.5671101 146.995389,21.7331267 146.897798,21.8102742 C146.836863,21.8369708 146.761171,21.8961053 146.705711,21.9519624 C146.30773,22.1978057 145.88666,22.4916838 145.483205,22.6339701 C145.407036,22.6970038 145.272551,22.7324318 145.179958,22.7969725 C145.061183,22.823095 144.925984,22.8837126 144.812683,22.9383498 C144.758889,22.9506694 144.721757,22.9797822 144.670105,22.9893748 C144.587986,23.0034886 144.484682,23.0413088 144.403753,23.080038 C144.244989,23.1307759 144.041238,23.1550804 143.895566,23.2232333 C143.77917,23.2403373 143.605649,23.2613645 143.498299,23.3009788 L143.381666,23.3009788 C143.374763,23.3009788 143.326681,23.3165758 143.287407,23.3306896 C143.255511,23.3421002 143.194338,23.3084902 143.182913,23.3595152 L143.050808,23.3595152 C143.029386,23.3595152 143.055331,23.3766192 143.034384,23.3766192 L142.92632,23.3766192 C142.904898,23.3766192 142.930129,23.3931252 142.90942,23.3931252 L142.776125,23.3931252 C142.755417,23.3931252 142.780886,23.4090331 142.759939,23.4090331 L142.542621,23.4090331 C142.521913,23.4090331 142.546905,23.4264481 142.526197,23.4264481 L142.267938,23.4264481 C142.246754,23.4264481 142.271508,23.4432651 142.251038,23.4432651 L141.092323,23.4432651 C141.071139,23.4432651 141.097084,23.4264481 141.075423,23.4264481 L140.808357,23.4264481 C140.787411,23.4264481 140.813118,23.4090331 140.791933,23.4090331 L140.60056,23.4090331 C140.579137,23.4090331 140.604844,23.3931252 140.58366,23.3931252 L140.442034,23.3931252 C140.421326,23.3931252 140.44608,23.3766192 140.425134,23.3766192 L140.31707,23.3766192 C140.296361,23.3766192 140.320878,23.3595152 140.299694,23.3595152 L140.152593,23.3595152 C140.131171,23.3282974 140.03358,23.3009788 139.969551,23.3009788 L139.863391,23.3009788 C139.839112,23.3009788 139.528487,23.2259364 139.455175,23.2232333 C139.316643,23.1550804 139.126936,23.1307759 138.962935,23.080038 C138.61613,22.9557648 138.283606,22.823095 137.946084,22.6876982 C137.85373,22.6279657 137.714484,22.54601 137.596423,22.5211075 C137.437897,22.4295352 137.258425,22.3112664 137.086331,22.236224 C137.03825,22.1807017 136.944705,22.1215434 136.878534,22.0948467 C136.690017,21.9570578 136.480553,21.8141734 136.286561,21.6778915 C136.198967,21.6082315 136.146125,21.5118749 136.036395,21.4761598 C135.772899,21.185583 135.416573,20.9427299 135.184021,20.6206242 C135.141652,20.6095245 135.1069,20.5083597 135.052154,20.4915666 C134.932188,20.3324634 134.828171,20.1652507 134.682974,20.0415755 C134.672025,19.9665332 134.614422,19.8926869 134.540872,19.8497714 C134.540634,19.8308493 134.540634,19.8149414 134.538016,19.7984354 C134.338311,19.5306559 134.205492,19.2794063 134.034827,19.0023452 C134.031733,18.9879443 134.031733,18.9717254 134.028638,18.9555065 C133.963181,18.8675703 133.932237,18.7742039 133.895343,18.6730391 C133.823459,18.6220141 133.817746,18.5115437 133.759906,18.4433908 C133.696591,18.2473764 133.607807,18.0435635 133.54592,17.845731 C133.534018,17.8373345 133.52783,17.8220246 133.508074,17.8208285 C133.460944,17.6268953 133.409054,17.4509991 133.350262,17.2726867 C133.292659,17.0754523 133.255051,16.8473111 133.198877,16.6485935 L133.198877,16.5324297 C133.191022,16.5255164 133.186023,16.5273344 133.173884,16.5255164 L133.173884,16.4057404 C133.172694,16.3838282 133.158888,16.3760297 133.140084,16.3667241 L133.140084,16.1620022 C133.139846,16.1596101 133.139846,16.0941603 133.106998,16.073157 L133.106998,15.8948447 C133.106522,15.8735305 133.102714,15.8930267 133.090574,15.8906345 L133.090574,15.6369688 C133.08986,15.6156785 133.074865,15.606971 133.057013,15.5889579 L133.057013,14.4071303 C133.075579,14.3984228 133.08986,14.3900263 133.08986,14.3689991 L133.08986,14.1078459 C133.08986,14.0865317 133.099381,14.1066499 133.106998,14.0997365 L133.106998,13.9076213 C133.106522,13.8953256 133.139846,13.8397794 133.139846,13.8262636 L133.139846,13.6485493 C133.139846,13.627857 133.160554,13.6071409 133.170313,13.5903239 C133.187213,13.5548959 133.154366,13.48947 133.199115,13.4798535 L133.199115,13.3633787 C133.217205,13.3531881 133.231486,13.3459637 133.231486,13.3249605 L133.231486,13.2057826 C133.231486,13.1982951 133.318128,12.8899922 133.333838,12.7912435 C133.33598,12.7747136 133.348596,12.7549064 133.350262,12.7411036 C133.401676,12.6228347 133.437142,12.455622 133.475226,12.3145318 C133.483557,12.2878352 133.498076,12.2647269 133.50974,12.2289879 C133.560916,12.215185 133.517833,12.1773648 133.563058,12.1356454 C133.594715,12.0179745 133.626849,11.9075041 133.66779,11.8039232 C133.683975,11.7925365 133.692306,11.783207 133.704922,11.7769156 C133.727296,11.6910606 133.790611,11.6175253 133.791087,11.5166475 Z" id="Path" fill="#FF6F03" fill-rule="nonzero"></path>
                <path d="M142.384571,8.96027905 L142.74542,8.96027905 C142.766842,8.96027905 142.751608,8.97740699 142.773031,8.97740699 L143.17601,8.97740699 C143.196719,8.97740699 143.171488,8.99331492 143.193386,8.99331492 L143.36786,8.99331492 C143.389044,8.99331492 143.363338,9.01041893 143.38476,9.01041893 L143.533289,9.01041893 C143.534717,9.02242762 143.533289,9.02812099 143.539953,9.03472338 L143.670868,9.03472338 C143.691815,9.03472338 143.719426,9.06474511 143.747751,9.06625218 C143.931032,9.07735185 144.090986,9.09926412 144.223567,9.16590998 C144.695098,9.26616582 145.10855,9.47871011 145.513196,9.69814386 C145.723612,9.83892306 145.941644,9.97161672 146.139445,10.1322031 C146.192287,10.1895434 146.247271,10.233966 146.302731,10.2895122 C146.314633,10.3008989 146.338197,10.3021189 146.356287,10.3162088 C146.408891,10.3603443 146.456497,10.4606002 146.533855,10.4717238 C146.586221,10.5746828 146.718564,10.6710394 146.80592,10.767994 C146.867807,10.8322477 146.928742,10.9015728 146.981346,10.9763281 C147.158676,11.2287738 147.345765,11.526264 147.507623,11.7880153 C147.499054,11.8489677 147.561179,11.8840848 147.582364,11.9297035 C147.607832,12.0266581 147.676622,12.1290191 147.703995,12.2367863 C147.790161,12.3646717 147.825389,12.5730058 147.898463,12.7234015 C147.954876,12.920923 148.001767,13.1511694 148.052467,13.3654839 L148.052467,13.4807625 C148.059607,13.487963 148.06532,13.4870539 148.076983,13.487963 L148.076983,13.6401528 C148.076983,13.6620651 148.092693,13.6887856 148.110307,13.7064877 L148.110307,13.8983158 C148.110307,13.919319 148.127207,13.8926224 148.127207,13.9127166 L148.127207,14.7079218 C148.127207,14.729236 148.110307,14.7022045 148.110307,14.7229207 L148.110307,14.9468517 C148.092217,14.9570663 148.076983,14.9666589 148.076983,14.987686 L148.076983,15.1566928 C148.06532,15.158487 148.059607,15.1566928 148.052467,15.1632952 L148.052467,15.2779519 C148.052467,15.314887 148.013906,15.4844919 147.971537,15.6438822 C148.006765,15.8780277 148.026284,16.1157855 148.026284,16.3601217 C148.026284,16.604769 148.006765,16.8440099 147.970823,17.0772704 C148.060798,16.8704434 148.162435,16.6663195 148.213373,16.4393743 C148.28002,16.3427068 148.318105,16.1989373 148.349762,16.0710519 C148.36809,15.9914884 148.365234,15.899342 148.411173,15.8690332 L148.411173,15.7537545 C148.410221,15.7309332 148.460683,15.642088 148.461873,15.6051529 L148.461873,15.4679859 C148.47425,15.4670769 148.479963,15.4502599 148.494244,15.4433705 L148.494244,15.3184753 C148.494006,15.2983811 148.504004,15.3175902 148.510906,15.3112749 L148.510906,15.1440861 C148.510906,15.1389669 148.544706,15.0630394 148.544706,15.0456244 L148.544706,14.7166053 C148.544706,14.6965111 148.554465,14.7157202 148.56113,14.7091178 L148.56113,14.1078459 C148.56113,14.0865317 148.556607,14.1060518 148.544706,14.1036357 L148.544706,13.8740113 C148.544706,13.8517881 148.540184,13.8713082 148.528996,13.8703992 L148.528996,13.7386145 C148.527568,13.7184964 148.523284,13.7374184 148.512096,13.7362223 L148.512096,13.5825254 C148.510906,13.5618092 148.494006,13.5798223 148.495197,13.5591061 L148.495197,13.454951 L148.31144,11.4371078 L149.158815,12.8884852 C149.213562,13.0133804 149.37423,13.6527595 149.419217,13.8746094 C149.419217,13.8746094 149.437307,14.0817234 149.460871,14.1078459 L149.460871,14.2573326 C149.461348,14.2792449 149.477771,14.2510412 149.477771,14.2720445 L149.477771,14.4671738 C149.477771,14.488177 149.493243,14.5157827 149.511333,14.5335087 L149.511333,15.5364259 C149.511333,15.5571421 149.477771,15.5772363 149.477771,15.5964454 L149.477771,15.8029854 C149.477771,15.8242996 149.461348,15.796072 149.461348,15.8170992 L149.461348,15.9617776 C149.461348,15.9659878 149.443258,16.0062002 149.419217,16.0236152 L149.419217,16.2127402 C149.419931,16.2469482 149.380418,16.2943849 149.371373,16.3406016 C149.367327,16.3637339 149.369707,16.398851 149.366137,16.4306668 C149.329005,16.468487 149.343048,16.5177179 149.333527,16.554653 C149.314247,16.622184 149.280209,16.7347595 149.266404,16.8043955 C149.211657,16.9590015 149.140963,17.157121 149.091216,17.3324192 C149.007192,17.4509991 148.965062,17.6013948 148.916266,17.742174 C148.792254,17.9252707 148.687998,18.0966936 148.598976,18.3017265 C148.523284,18.3764578 148.456636,18.4938416 148.407127,18.585988 C148.250267,18.7426751 148.120304,18.9726344 147.94345,19.1251113 C147.935595,19.1473346 147.919172,19.17195 147.915601,19.1953694 C147.729702,19.3709786 147.547612,19.5600796 147.342194,19.7113843 C147.305062,19.7476975 147.297445,19.7486065 147.281498,19.7888189 C147.242937,19.8008276 147.238891,19.8194387 147.200568,19.8281461 C146.903987,20.1043222 146.535997,20.2802184 146.195857,20.4915666 C146.128972,20.5005612 146.072797,20.5446967 146.021621,20.583713 C145.940692,20.6035202 145.834294,20.6491628 145.771455,20.6923893 C145.65268,20.7182008 145.518433,20.7782203 145.403704,20.8337665 C145.236609,20.8655824 145.079273,20.9175164 144.929078,20.9754548 C144.795069,20.9937549 144.640114,21.0156671 144.514673,21.0541093 L144.401849,21.0541093 C144.380426,21.0541093 144.406133,21.0712133 144.385187,21.0712133 L144.276647,21.0712133 C144.2557,21.0712133 144.280931,21.0877193 144.259747,21.0877193 L144.157157,21.0877193 C144.150016,21.0952307 144.151206,21.1015221 144.150016,21.1120477 L143.942457,21.1120477 C143.922225,21.1126457 143.946979,21.1285536 143.926271,21.1285536 L143.634926,21.1285536 C143.61398,21.1285536 143.638973,21.1453467 143.617788,21.1453467 L142.825873,21.1453467 C142.805165,21.1453467 142.830157,21.1285536 142.809925,21.1285536 L142.508821,21.1285536 C142.488351,21.1285536 142.513582,21.1126457 142.492397,21.1120477 L142.294121,21.1120477 C142.292455,21.1015221 142.294121,21.0952307 142.287218,21.0877193 L142.176298,21.0877193 C142.155113,21.0877193 142.180582,21.0712133 142.159636,21.0712133 L142.050857,21.0712133 C142.029911,21.0712133 142.05538,21.0541093 142.034196,21.0541093 L141.930892,21.0541093 C141.901615,21.0541093 141.582897,20.9808611 141.506014,20.9754548 C141.356057,20.9175164 141.194437,20.8806052 141.030198,20.8337665 C140.81764,20.7275063 140.567474,20.6482538 140.345633,20.548883 C140.167827,20.4339153 139.993115,20.3519596 139.820308,20.2655066 C139.808882,20.2418002 139.797457,20.221084 139.777463,20.2123765 C139.570856,20.1247274 139.439465,19.981245 139.261183,19.8803911 C139.257136,19.8371646 138.901286,19.5468748 138.901286,19.5468748 C138.901286,19.5468748 140.229238,19.894194 140.301836,19.928402 C139.302361,19.0659769 138.669924,17.7883907 138.669924,16.3601217 C138.669924,13.764139 140.763846,11.6592447 143.347866,11.6592447 C144.809589,11.6592447 146.113738,12.3325449 146.971587,13.3877071 C146.943976,13.2526213 146.906605,13.1139233 146.846146,12.9965634 C146.832579,12.954533 146.832579,12.9239132 146.824486,12.8831028 C146.758553,12.8098545 146.767836,12.6663722 146.688335,12.5880047 C146.62859,12.4367239 146.535997,12.2677171 146.446499,12.1203116 C146.315823,11.8066263 146.046376,11.525355 145.849528,11.2470978 C145.694096,11.0804832 145.536285,10.9132944 145.370618,10.7586885 C145.362763,10.7565834 145.347529,10.7565834 145.327535,10.7538802 L145.327535,10.7283797 C145.22447,10.6716374 145.153776,10.5467661 145.044045,10.5206436 C145.043093,10.5107401 145.043093,10.5026306 145.040713,10.4954302 C144.871476,10.3843617 144.697954,10.251692 144.505628,10.1502161 C144.338534,10.0193405 144.162632,9.94279107 143.964593,9.87494914 C143.86605,9.81971393 143.722282,9.75967047 143.606125,9.73357189 C143.472354,9.67862375 143.150065,9.56695726 142.845629,9.5201425 C142.571898,9.47871011 142.411944,9.49282391 142.134405,9.49071881 C141.129932,9.48351837 139.575616,9.78639101 139.575616,9.78639101 L139.575616,9.75577123 C139.665828,9.69965092 139.762229,9.62580464 139.867437,9.59307976 C139.87791,9.53633749 139.953127,9.54774814 139.99621,9.50662674 C140.030723,9.50002435 140.075949,9.46880653 140.105464,9.45469273 C140.225906,9.408476 140.377291,9.34993961 140.504873,9.28838907 C140.636978,9.22293931 140.806929,9.21573887 140.930227,9.14670085 C141.09756,9.11727716 141.2906,9.07464869 141.471738,9.03472338 L141.620505,9.03472338 C141.626932,9.02812099 141.625265,9.02242762 141.626932,9.01041893 L141.759037,9.01041893 C141.779983,9.01041893 141.754514,8.99331492 141.776174,8.99331492 L141.950172,8.99331492 C141.971356,8.99331492 141.946364,8.97740699 141.967548,8.97740699 L142.367195,8.97740699 C142.38838,8.97740699 142.363387,8.96027905 142.384571,8.96027905 Z" id="Path" fill="#FF6F03" fill-rule="nonzero"></path>
                <path d="M156.537886,11.2293718 L156.537886,11.5061459 C156.537886,12.5285832 155.937106,12.6249398 154.082401,12.6249398 C151.643102,12.6249398 151.436256,12.334052 151.436256,10.0415638 L157.929153,10.0415638 L157.929153,9.30939233 C157.929153,6.62997066 157.002752,6.09173243 154.082401,6.09173243 C150.852376,6.09173243 150.028089,6.79567627 150.028089,9.80682014 C150.028089,12.5703027 150.560794,13.5089662 154.082401,13.5089662 C156.091348,13.5089662 157.929153,13.4120116 157.929153,11.4920321 L157.929153,11.2293718 L156.537886,11.2293718 Z M151.436256,9.15842248 C151.539798,7.48608042 151.625726,6.97487372 154.082401,6.97487372 C156.142761,6.97487372 156.452196,7.09974498 156.521462,9.15842248 L151.436256,9.15842248 Z" id="Shape" fill="#6C6E70" fill-rule="nonzero"></path>
                <path d="M165.641699,10.8016279 L165.641699,11.1612428 C165.641699,12.472439 165.023781,12.6249398 163.322603,12.6249398 C160.677411,12.6249398 160.574583,12.0032627 160.574583,9.95900999 C160.574583,7.63798321 160.626473,6.97487372 163.030783,6.97487372 C164.594143,6.97487372 165.486982,7.00369936 165.486982,8.31489553 L165.486982,8.53672145 L166.844925,8.53672145 L166.844925,8.34221411 C166.844925,6.28415858 165.126609,6.09173243 162.944855,6.09173243 C159.681983,6.09173243 159.166417,7.29336722 159.166417,9.65431931 C159.166417,12.3487638 159.423724,13.5089662 163.168838,13.5089662 C165.315364,13.5089662 166.998452,13.2460189 166.998452,11.2023642 L166.998452,10.8016279 L165.641699,10.8016279 Z" id="Path" fill="#6C6E70" fill-rule="nonzero"></path>
                <path d="M168.080284,9.80682014 C168.080284,12.8590854 168.73343,13.5089662 172.08223,13.5089662 C175.43222,13.5089662 176.084175,12.8590854 176.084175,9.80682014 C176.084175,6.74013008 175.43222,6.09173243 172.08223,6.09173243 C168.73343,6.09173243 168.080284,6.74013008 168.080284,9.80682014 Z M169.488927,9.80682014 C169.488927,7.27896635 169.660545,6.97487372 172.08223,6.97487372 C174.503915,6.97487372 174.67577,7.27896635 174.67577,9.80682014 C174.67577,12.3214452 174.503915,12.6249398 172.08223,12.6249398 C169.660545,12.6249398 169.488927,12.3214452 169.488927,9.80682014 Z" id="Shape" fill="#6C6E70" fill-rule="nonzero"></path>
                <path d="M182.403074,6.17457327 L178.917409,6.17457327 L178.917409,4.4202994 L177.56018,4.6760702 L177.56018,6.17457327 L176.357668,6.17457327 L176.357668,7.05802554 L177.56018,7.05802554 L177.56018,11.3266374 C177.56018,13.024791 178.040042,13.5089662 180.153244,13.5089662 C182.008426,13.5089662 182.747261,12.8323649 182.747261,11.3956755 L182.747261,10.8571502 L181.459536,10.8571502 L181.459536,11.3956755 C181.459536,12.0864145 181.459536,12.6249398 180.187044,12.6249398 C179.192092,12.6249398 178.934785,12.4445224 178.917409,11.6577377 L178.917409,7.05802554 L182.403074,7.05802554 L182.403074,6.17457327 Z" id="Path" fill="#6C6E70" fill-rule="nonzero"></path>
                <path d="M190.133235,11.2293718 L190.133235,11.5061459 C190.133235,12.5285832 189.531503,12.6249398 187.675845,12.6249398 C185.23726,12.6249398 185.031129,12.334052 185.031129,10.0415638 L191.523549,10.0415638 L191.523549,9.30939233 C191.523549,6.62997066 190.596197,6.09173243 187.675845,6.09173243 C184.447249,6.09173243 183.622724,6.79567627 183.622724,9.80682014 C183.622724,12.5703027 184.155428,13.5089662 187.675845,13.5089662 C189.685982,13.5089662 191.523549,13.4120116 191.523549,11.4920321 L191.523549,11.2293718 L190.133235,11.2293718 Z M185.031129,9.15842248 C185.133956,7.48608042 185.22036,6.97487372 187.675845,6.97487372 C189.738586,6.97487372 190.046593,7.09974498 190.115144,9.15842248 L185.031129,9.15842248 Z" id="Shape" fill="#6C6E70" fill-rule="nonzero"></path>
                <polygon id="Path" fill="#6C6E70" fill-rule="nonzero" points="192.78771 4.6760702 192.78771 13.4258383 194.144225 13.4258383 194.144225 4.3758768"></polygon>
                <path d="M145.252319,16.3733265 C146.304159,16.3733265 147.157248,17.2309673 147.157248,18.2876127 C147.157248,19.3460521 146.304159,20.2021858 145.252319,20.2021858 C144.200954,20.2021858 143.347152,19.3460521 143.347152,18.2876127 C143.347152,17.2309673 144.200954,16.3733265 145.252319,16.3733265 Z" id="Path" fill="#6C6E70" fill-rule="nonzero"></path>
                <path d="M145.252319,16.3733265 C146.304159,16.3733265 147.157248,17.2309673 147.157248,18.2876127 C147.157248,19.3460521 146.304159,20.2021858 145.252319,20.2021858 C144.200954,20.2021858 143.347152,19.3460521 143.347152,18.2876127 C143.347152,17.2309673 144.200954,16.3733265 145.252319,16.3733265 Z" id="Path" stroke="#6C6E70" stroke-width="0.1025"></path>
                <path d="M157.982081,19.1308286 C157.971545,19.0533702 157.965664,18.9390005 157.965664,18.827334 L157.965664,18.0564573 C157.965664,17.8097049 157.885534,17.4825039 157.322422,17.4825039 C157.103598,17.4825039 156.913933,17.5326438 156.779159,17.6016819 L156.800968,17.9282848 C156.910258,17.8406357 157.080563,17.7673875 157.254545,17.7673875 C157.508411,17.7673875 157.578984,17.9060616 157.578984,18.0564573 L157.578984,18.1188929 L157.425096,18.1188929 C156.851937,18.1188929 156.607628,18.3305282 156.607628,18.6691398 C156.607628,18.98072 156.813955,19.1626445 157.099922,19.1626445 C157.322422,19.1626445 157.457442,19.0620777 157.578984,18.9113949 L157.582904,18.9113949 C157.582904,18.9489041 157.600057,19.0932955 157.602263,19.1308286 L157.982081,19.1308286 Z M157.578984,18.4677191 C157.578984,18.6577292 157.489542,18.8807751 157.238127,18.8807751 C157.08767,18.8807751 157.000189,18.7985084 157.000189,18.6409122 C157.000189,18.4526963 157.161918,18.3389486 157.450335,18.3389486 C157.486112,18.3389486 157.56085,18.3389247 157.578984,18.3428479 L157.578984,18.4677191 Z" id="Shape" fill="#6D6F71" fill-rule="nonzero"></path>
                <polygon id="Path" fill="#6D6F71" fill-rule="nonzero" points="158.443053 19.1308286 158.858172 19.1308286 158.858172 16.775857 158.443053 16.775857"></polygon>
                <polygon id="Path" fill="#6D6F71" fill-rule="nonzero" points="159.376118 19.1308286 159.791713 19.1308286 159.791713 16.775857 159.376118 16.775857"></polygon>
                <path d="M162.518159,19.1308286 C162.508354,19.0533702 162.501735,18.9390005 162.501735,18.827334 L162.501735,18.0564573 C162.501735,17.8097049 162.421823,17.4825039 161.85802,17.4825039 C161.639852,17.4825039 161.44963,17.5326438 161.314072,17.6016819 L161.336624,17.9282848 C161.446198,17.8406357 161.6173,17.7673875 161.790363,17.7673875 C162.04579,17.7673875 162.115898,17.9060616 162.115898,18.0564573 L162.115898,18.1188929 L161.961465,18.1188929 C161.388102,18.1188929 161.143706,18.3305282 161.143706,18.6691398 C161.143706,18.98072 161.350107,19.1626445 161.63593,19.1626445 C161.85802,19.1626445 161.994068,19.0620777 162.115898,18.9113949 L162.119085,18.9113949 C162.119085,18.9489041 162.135509,19.0932955 162.138695,19.1308286 L162.518159,19.1308286 Z M162.115898,18.4677191 C162.115898,18.6577292 162.025935,18.8807751 161.77541,18.8807751 C161.622693,18.8807751 161.536652,18.7985084 161.536652,18.6409122 C161.536652,18.4526963 161.697213,18.3389486 161.987204,18.3389486 C162.022503,18.3389486 162.096533,18.3389247 162.115898,18.3428479 L162.115898,18.4677191 Z" id="Shape" fill="#6D6F71" fill-rule="nonzero"></path>
                <path d="M163.849357,17.8652511 L163.849357,17.4846091 C163.834599,17.4825039 163.815795,17.4825039 163.802704,17.4825039 C163.553252,17.4825039 163.434476,17.6140015 163.368067,17.7739899 L163.362354,17.7739899 C163.362354,17.7268641 163.356165,17.5452506 163.352595,17.5104206 L162.959613,17.5104206 C162.965087,17.604385 162.974846,17.7451642 162.974846,17.9228785 L162.974846,19.1308286 L163.390441,19.1308286 L163.390441,18.3011045 C163.390441,18.0198332 163.524688,17.8499412 163.716062,17.8499412 C163.765571,17.8499412 163.822936,17.8565436 163.849357,17.8652511 Z" id="Path" fill="#6D6F71" fill-rule="nonzero"></path>
                <path d="M165.561722,18.3194285 C165.561722,17.8499412 165.343452,17.4825039 164.836692,17.4825039 C164.327791,17.4825039 164.111186,17.8499412 164.111186,18.3194285 C164.111186,18.7946091 164.327791,19.1626445 164.836692,19.1626445 C165.343452,19.1626445 165.561722,18.7946091 165.561722,18.3194285 Z M165.130655,18.3194285 C165.130655,18.6409122 165.055439,18.861853 164.836692,18.861853 C164.615089,18.861853 164.542967,18.6409122 164.542967,18.3194285 C164.542967,18.0036382 164.615089,17.7811903 164.836692,17.7811903 C165.055439,17.7811903 165.130655,18.0036382 165.130655,18.3194285 Z" id="Shape" fill="#6D6F71" fill-rule="nonzero"></path>
                <path d="M167.342877,19.1308286 C167.33645,19.0533702 167.327167,18.9426127 167.327167,18.8237218 L167.327167,17.5104206 L166.914667,17.5104206 L166.914667,18.465016 C166.914667,18.67335 166.830643,18.8168324 166.644982,18.8168324 C166.504308,18.8168324 166.436233,18.7255711 166.436233,18.518457 L166.436233,17.5104206 L166.020876,17.5104206 L166.020876,18.6409122 C166.020876,18.998733 166.223913,19.1626445 166.50288,19.1626445 C166.754475,19.1626445 166.876821,19.0089476 166.933233,18.8741727 L166.939184,18.8741727 C166.939184,18.9209875 166.946086,19.0969077 166.952037,19.1308286 L167.342877,19.1308286 Z" id="Path" fill="#6D6F71" fill-rule="nonzero"></path>
                <path d="M169.145454,19.1308286 L169.145454,18.000337 C169.145454,17.6452193 168.94218,17.4825039 168.664402,17.4825039 C168.414474,17.4825039 168.292604,17.6325887 168.232383,17.7673875 L168.225957,17.7673875 C168.225957,17.7208598 168.220244,17.5452506 168.216674,17.5104206 L167.823929,17.5104206 C167.829404,17.604385 167.839639,17.7301653 167.839639,17.8499412 L167.839639,19.1308286 L168.254996,19.1308286 L168.254996,18.2017577 C168.254996,17.9721094 168.351159,17.8244168 168.523728,17.8244168 C168.661308,17.8244168 168.73224,17.9189793 168.73224,18.1234141 L168.73224,19.1308286 L169.145454,19.1308286 Z" id="Path" fill="#6D6F71" fill-rule="nonzero"></path>
                <path d="M171.011109,19.1308286 C171.007063,19.033252 170.997541,18.9360103 170.997541,18.8387447 L170.997541,16.7758809 L170.585993,16.7758809 L170.585993,17.4161691 C170.585993,17.4792028 170.588611,17.7055499 170.591468,17.7400689 L170.585993,17.7400689 C170.475787,17.5602495 170.357249,17.4825039 170.158021,17.4825039 C169.789079,17.4825039 169.592231,17.8334353 169.592231,18.3011045 C169.592231,18.827334 169.792173,19.1563292 170.173254,19.1563292 C170.369389,19.1563292 170.503874,19.0551882 170.598608,18.8807751 L170.604559,18.8807751 C170.604559,18.9267048 170.613366,19.0872911 170.616937,19.1308286 L171.011109,19.1308286 Z M170.585993,18.3146202 C170.585993,18.6505287 170.491972,18.8492463 170.301551,18.8492463 C170.098038,18.8492463 170.017347,18.6505287 170.017347,18.3146202 C170.017347,17.9781137 170.098038,17.7811903 170.301551,17.7811903 C170.491972,17.7811903 170.585993,17.9781137 170.585993,18.3146202 Z" id="Shape" fill="#6D6F71" fill-rule="nonzero"></path>
                <path d="M173.50325,19.084588 L173.491111,18.757698 C173.428986,18.791906 173.303784,18.8351325 173.172869,18.8351325 C172.906279,18.8351325 172.778696,18.637324 172.778696,18.3305282 C172.778696,17.9598136 172.951028,17.8048967 173.180962,17.8048967 C173.303784,17.8048967 173.395662,17.8406357 173.46945,17.878743 L173.491111,17.5506569 C173.416608,17.5197261 173.28736,17.4825039 173.1136,17.4825039 C172.594464,17.4825039 172.35358,17.8499412 172.35358,18.3305282 C172.35358,18.7787012 172.576136,19.1626445 173.110268,19.1626445 C173.23547,19.1626445 173.422083,19.1224082 173.50325,19.084588 Z" id="Path" fill="#6D6F71" fill-rule="nonzero"></path>
                <path d="M175.303209,18.3194285 C175.303209,17.8499412 175.084225,17.4825039 174.578179,17.4825039 C174.068802,17.4825039 173.852436,17.8499412 173.852436,18.3194285 C173.852436,18.7946091 174.068802,19.1626445 174.578179,19.1626445 C175.084225,19.1626445 175.303209,18.7946091 175.303209,18.3194285 Z M174.870714,18.3194285 C174.870714,18.6409122 174.797164,18.861853 174.578179,18.861853 C174.356576,18.861853 174.284454,18.6409122 174.284454,18.3194285 C174.284454,18.0036382 174.356576,17.7811903 174.578179,17.7811903 C174.797164,17.7811903 174.870714,18.0036382 174.870714,18.3194285 Z" id="Shape" fill="#6D6F71" fill-rule="nonzero"></path>
                <path d="M177.903415,19.1308286 L177.903415,17.9880173 C177.903415,17.6359138 177.699188,17.4825039 177.431407,17.4825039 C177.225276,17.4825039 177.090315,17.5791715 176.993438,17.7424611 C176.901798,17.5506569 176.755649,17.4825039 176.584032,17.4825039 C176.33696,17.4825039 176.214138,17.6325887 176.156059,17.7673875 L176.149157,17.7673875 C176.149157,17.7208598 176.143206,17.5452506 176.14035,17.5104206 L175.745939,17.5104206 C175.752842,17.5956775 175.762363,17.7208598 175.762363,17.8589358 L175.762363,19.1308286 L176.17772,19.1308286 L176.17772,18.188529 C176.17772,17.9597897 176.261743,17.8244168 176.427886,17.8244168 C176.558801,17.8244168 176.628543,17.9087647 176.628543,18.0909763 L176.628543,19.1308286 L177.040329,19.1308286 L177.040329,18.1639375 C177.040329,17.9598136 177.109119,17.8244168 177.286687,17.8244168 C177.42141,17.8244168 177.4902,17.9087647 177.4902,18.0909763 L177.4902,19.1308286 L177.903415,19.1308286 Z" id="Path" fill="#6D6F71" fill-rule="nonzero"></path>
                <path d="M180.556224,19.1308286 L180.556224,17.9880173 C180.556224,17.6359138 180.352473,17.4825039 180.084693,17.4825039 C179.877847,17.4825039 179.744076,17.5791715 179.646723,17.7424611 C179.556273,17.5506569 179.409411,17.4825039 179.237317,17.4825039 C178.990483,17.4825039 178.867661,17.6325887 178.809345,17.7673875 L178.803156,17.7673875 C178.803156,17.7208598 178.796015,17.5452506 178.794111,17.5104206 L178.400415,17.5104206 C178.405651,17.5956775 178.415886,17.7208598 178.415886,17.8589358 L178.415886,19.1308286 L178.831243,19.1308286 L178.831243,18.188529 C178.831243,17.9597897 178.916219,17.8244168 179.08141,17.8244168 C179.212562,17.8244168 179.281114,17.9087647 179.281114,18.0909763 L179.281114,19.1308286 L179.693377,19.1308286 L179.693377,18.1639375 C179.693377,17.9598136 179.762166,17.8244168 179.940448,17.8244168 C180.07422,17.8244168 180.143485,17.9087647 180.143485,18.0909763 L180.143485,19.1308286 L180.556224,19.1308286 Z" id="Path" fill="#6D6F71" fill-rule="nonzero"></path>
                <path d="M182.391173,19.1308286 C182.38427,19.0533702 182.374749,18.9426127 182.374749,18.8237218 L182.374749,17.5104206 L181.962249,17.5104206 L181.962249,18.465016 C181.962249,18.67335 181.877273,18.8168324 181.69304,18.8168324 C181.552366,18.8168324 181.484291,18.7255711 181.484291,18.518457 L181.484291,17.5104206 L181.06941,17.5104206 L181.06941,18.6409122 C181.06941,18.998733 181.271257,19.1626445 181.550224,19.1626445 C181.803247,19.1626445 181.924878,19.0089476 181.979863,18.8741727 L181.987003,18.8741727 C181.987003,18.9209875 181.993192,19.0969077 182.000095,19.1308286 L182.391173,19.1308286 Z" id="Path" fill="#6D6F71" fill-rule="nonzero"></path>
                <path d="M184.193512,19.1308286 L184.193512,18.000337 C184.193512,17.6452193 183.989999,17.4825039 183.711984,17.4825039 C183.463008,17.4825039 183.339948,17.6325887 183.279965,17.7673875 L183.274729,17.7673875 C183.274729,17.7208598 183.268064,17.5452506 183.265446,17.5104206 L182.871987,17.5104206 C182.877462,17.604385 182.886983,17.7301653 182.886983,17.8499412 L182.886983,19.1308286 L183.30234,19.1308286 L183.30234,18.2017577 C183.30234,17.9721094 183.398979,17.8244168 183.571548,17.8244168 C183.70889,17.8244168 183.781012,17.9189793 183.781012,18.1234141 L183.781012,19.1308286 L184.193512,19.1308286 Z" id="Path" fill="#6D6F71" fill-rule="nonzero"></path>
                <path d="M186.061872,17.0262215 C186.061872,16.9076655 185.751094,16.8098018 185.372133,16.8098018 C184.994607,16.8098018 184.687418,16.9076655 184.687418,17.0262215 C184.687418,17.1520018 184.994607,17.2465642 185.372133,17.2465642 C185.751094,17.2465642 186.061872,17.1520018 186.061872,17.0262215 Z M184.751296,19.1308286 L186.005171,19.1308286 L186.005171,17.5105402 L184.751296,17.5105402 L184.751296,19.1308286 Z" id="Shape" fill="#6D6F71" fill-rule="nonzero"></path>
                <path d="M186.729927,19.084588 L186.717549,18.757698 C186.65471,18.791906 186.530698,18.8351325 186.399783,18.8351325 C186.132003,18.8351325 186.004897,18.637324 186.004897,18.3305282 C186.004897,17.9598136 186.176514,17.8048967 186.407876,17.8048967 C186.530698,17.8048967 186.62091,17.8406357 186.695889,17.878743 L186.717549,17.5506569 C186.642333,17.5197261 186.51475,17.4825039 186.33861,17.4825039 C185.820188,17.4825039 185.579543,17.8499412 185.579543,18.3305282 C185.579543,18.7787012 185.80186,19.1626445 186.336468,19.1626445 C186.461194,19.1626445 186.648759,19.1224082 186.729927,19.084588 Z" id="Path" fill="#6D6F71" fill-rule="nonzero"></path>
                <path d="M188.447139,19.1308286 C188.437584,19.0533702 188.430234,18.9390005 188.430234,18.827334 L188.430234,18.0564573 C188.430234,17.8097049 188.350119,17.4825039 187.787107,17.4825039 C187.568811,17.4825039 187.378691,17.5326438 187.243696,17.6016819 L187.265256,17.9282848 C187.375261,17.8406357 187.546026,17.7673875 187.720222,17.7673875 C187.974288,17.7673875 188.044848,17.9060616 188.044848,18.0564573 L188.044848,18.1188929 L187.890497,18.1188929 C187.317441,18.1188929 187.072685,18.3305282 187.072685,18.6691398 C187.072685,18.98072 187.278486,19.1626445 187.565381,19.1626445 C187.787107,19.1626445 187.922592,19.0620777 188.044848,18.9113949 L188.048278,18.9113949 C188.048278,18.9489041 188.062733,19.0932955 188.067143,19.1308286 L188.447139,19.1308286 Z M188.044848,18.4677191 C188.044848,18.6577292 187.954443,18.8807751 187.704297,18.8807751 C187.552641,18.8807751 187.465176,18.7985084 187.465176,18.6409122 C187.465176,18.4526963 187.627367,18.3389486 187.916222,18.3389486 C187.950768,18.3389486 188.025248,18.3389247 188.044848,18.3428479 L188.044848,18.4677191 Z" id="Shape" fill="#6D6F71" fill-rule="nonzero"></path>
                <path d="M189.770482,19.1224082 L189.763341,18.8237218 C189.726685,18.8426439 189.677175,18.8546526 189.616716,18.8546526 C189.507224,18.8546526 189.442005,18.791906 189.442005,18.6319177 L189.442005,17.812121 L189.763341,17.812121 L189.763341,17.5104206 L189.442005,17.5104206 L189.442005,17.0484447 L189.029028,17.174225 L189.029028,17.5104206 L188.76101,17.5104206 L188.76101,17.812121 L189.029028,17.812121 L189.029028,18.7285853 C189.029028,19.0242575 189.198265,19.1626445 189.473662,19.1626445 C189.591961,19.1626445 189.703596,19.1407322 189.770482,19.1224082 Z" id="Path" fill="#6D6F71" fill-rule="nonzero"></path>
                <path d="M191.531491,17.0262215 C191.531491,16.9076655 191.219833,16.8098018 190.844982,16.8098018 C190.467259,16.8098018 190.157037,16.9076655 190.157037,17.0262215 C190.157037,17.1520018 190.467259,17.2465642 190.844982,17.2465642 C191.219833,17.2465642 191.531491,17.1520018 191.531491,17.0262215 Z M190.220949,19.1308286 L191.47476,19.1308286 L191.47476,17.5105402 L190.220949,17.5105402 L190.220949,19.1308286 Z" id="Shape" fill="#6D6F71" fill-rule="nonzero"></path>
                <path d="M192.499221,18.3194285 C192.499221,17.8499412 192.281903,17.4825039 191.774906,17.4825039 C191.264814,17.4825039 191.049876,17.8499412 191.049876,18.3194285 C191.049876,18.7946091 191.264814,19.1626445 191.774906,19.1626445 C192.281903,19.1626445 192.499221,18.7946091 192.499221,18.3194285 Z M192.068155,18.3194285 C192.068155,18.6409122 191.994128,18.861853 191.774906,18.861853 C191.552351,18.861853 191.480943,18.6409122 191.480943,18.3194285 C191.480943,18.0036382 191.552351,17.7811903 191.774906,17.7811903 C191.994128,17.7811903 192.068155,18.0036382 192.068155,18.3194285 Z" id="Shape" fill="#6D6F71" fill-rule="nonzero"></path>
                <path d="M194.265857,19.1308286 L194.265857,18.000337 C194.265857,17.6452193 194.062106,17.4825039 193.784328,17.4825039 C193.533686,17.4825039 193.411578,17.6325887 193.353024,17.7673875 L193.346597,17.7673875 C193.346597,17.7208598 193.340408,17.5452506 193.336838,17.5104206 L192.943142,17.5104206 C192.94933,17.604385 192.958851,17.7301653 192.958851,17.8499412 L192.958851,19.1308286 L193.374208,19.1308286 L193.374208,18.2017577 C193.374208,17.9721094 193.471561,17.8244168 193.643417,17.8244168 C193.780758,17.8244168 193.85169,17.9189793 193.85169,18.1234141 L193.85169,19.1308286 L194.265857,19.1308286 Z" id="Path" fill="#6D6F71" fill-rule="nonzero"></path>
                <path d="M196.546868,4.85768374 C196.546868,4.41941429 196.195064,4.06668884 195.760189,4.06668884 C195.324124,4.06668884 194.97232,4.41941429 194.97232,4.85768374 C194.97232,5.29564221 195.324124,5.64836766 195.760189,5.64836766 C196.195064,5.64836766 196.546868,5.29564221 196.546868,4.85768374 Z M196.396673,4.85768374 C196.396673,5.22811125 196.1208,5.50667944 195.760189,5.50667944 C195.399341,5.50667944 195.122515,5.22811125 195.122515,4.85768374 C195.122515,4.48665819 195.399341,4.20809 195.760189,4.20809 C196.1208,4.20809 196.396673,4.48665819 196.396673,4.85768374 Z M196.153172,5.32025764 L195.89039,4.90842166 C196.033206,4.90842166 196.129131,4.8018505 196.129131,4.6532489 C196.129131,4.47735265 196.022733,4.39269375 195.813269,4.39269375 L195.458847,4.39269375 L195.458847,5.32025764 L195.60928,5.32025764 L195.60928,4.90842166 L195.739957,4.90842166 L195.993456,5.32025764 L196.153172,5.32025764 Z M195.978936,4.64635945 C195.978936,4.76582442 195.903244,4.79043984 195.788991,4.79043984 L195.60928,4.79043984 L195.60928,4.50976655 L195.788991,4.50976655 C195.903244,4.50976655 195.978936,4.54249143 195.978936,4.64635945 Z" id="Shape" fill="#6D6F71" fill-rule="nonzero"></path>
            </g>
        </g>
    </g>
</svg>