<?xml version="1.0" encoding="UTF-8"?>
<svg width="112px" height="21px" viewBox="0 0 225 41" version="1.1" xmlns="http://www.w3.org/2000/svg" xmlns:xlink="http://www.w3.org/1999/xlink">
    <title>logo-verizon</title>
    <g id="Page-1" stroke="none" stroke-width="1" fill="none" fill-rule="evenodd">
        <g id="Artboard-Copy-4" transform="translate(-2707.000000, -1794.000000)" fill-rule="nonzero">
            <g id="logo-verizon" transform="translate(2707.000000, 1794.000000)">
                <g id="Group" transform="translate(42.837338, 0.000000)">
                    <polygon id="Path" fill="#D52B1E" points="178.037702 0.138632163 168.09904 21.4325323 164.36166 13.3641405 160.319753 13.3641405 166.465666 26.5619224 169.732413 26.5619224 182.051925 0.138632163"></polygon>
                    <path d="M135.403887,39.676525 L143.404649,39.676525 L143.404649,25.0092421 C143.404649,21.6543438 145.342549,19.297597 148.221716,19.297597 C150.990145,19.297597 152.429729,21.2384473 152.429729,24.038817 L152.429729,39.676525 L160.43049,39.676525 L160.43049,22.5138632 C160.43049,16.6913124 156.942269,12.5878004 151.294673,12.5878004 C147.695714,12.5878004 145.176443,14.1404806 143.293911,16.9685767 L143.127806,16.9685767 L143.127806,13.3641405 L135.376203,13.3641405 L135.376203,39.676525 L135.403887,39.676525 Z M119.679208,12.6432532 C111.318551,12.6432532 105.726323,18.6598891 105.726323,26.5896488 C105.726323,34.4639556 111.318551,40.5360444 119.679208,40.5360444 C128.039865,40.5360444 133.632194,34.4639556 133.632194,26.5896488 C133.659777,18.6598891 128.039865,12.6432532 119.679208,12.6432532 Z M119.623839,34.5748614 C115.831091,34.5748614 113.810137,31.3863216 113.810137,26.5619224 C113.810137,21.6820702 115.803406,18.5489834 119.623839,18.5489834 C123.416588,18.5489834 125.520594,21.6820702 125.520594,26.5619224 C125.548278,31.4140481 123.444272,34.5748614 119.623839,34.5748614 Z M82.9144638,39.676525 L105.394111,39.676525 L105.394111,33.3548983 L92.6593357,33.3548983 L92.6593357,33.1885397 L104.840426,19.5194085 L104.840426,13.336414 L82.9144638,13.336414 L82.9144638,19.6857671 L95.2339751,19.6857671 L95.2339751,19.8521257 L82.9144638,33.6321627 L82.9144638,39.676525 Z M72.6435903,39.676525 L80.6997202,39.676525 L80.6997202,13.3641405 L72.6435903,13.3641405 L72.6435903,39.676525 Z M53.9566911,39.676525 L61.9574524,39.676525 L61.9574524,27.5878004 C61.9574524,22.0979667 65.2518835,19.6580407 70.262741,20.3512015 L70.4288467,20.3512015 L70.4288467,13.4195933 C70.0135823,13.2532348 69.5429493,13.2255083 68.7954733,13.2255083 C65.667148,13.2255083 63.5631415,14.6672828 61.7636624,17.7449168 L61.5975566,17.7449168 L61.5975566,13.3641405 L53.9566911,13.3641405 L53.9566911,39.676525 Z M39.2286462,34.6303142 C35.6850564,34.6303142 33.5256814,32.3290203 33.1104169,28.780037 L52.0464748,28.780037 C52.1018434,23.1238447 50.6068914,18.6044362 47.4785661,15.7763401 C45.2638225,13.7245841 42.3569715,12.5878004 38.647276,12.5878004 C30.7295676,12.5878004 25.2480771,18.6044362 25.2480771,26.4787431 C25.2480771,34.4085028 30.4804089,40.4528651 39.1732776,40.4528651 C42.4677087,40.4528651 45.0700324,39.5656192 47.2294074,38.0961183 C49.5272039,36.5157116 51.1882616,34.1866913 51.6312104,31.8853974 L43.9349763,31.8853974 C43.1875004,33.6044362 41.5818112,34.6303142 39.2286462,34.6303142 Z M38.8133817,18.3271719 C41.6371798,18.3271719 43.5750805,20.4343808 43.907292,23.5120148 L33.1657855,23.5120148 C33.8025243,20.4066543 35.4912663,18.3271719 38.8133817,18.3271719 Z M9.24655456,39.676525 L17.6625803,39.676525 L26.7983977,13.3641405 L18.7422678,13.3641405 L13.6206732,30.2772643 L13.509936,30.2772643 L8.38834141,13.3641405 L0.11073718,13.3641405 L9.24655456,39.676525 Z M72.6435903,3.99260628 L80.6997202,3.99260628 L80.6997202,11.1460259 L72.6435903,11.1460259 L72.6435903,3.99260628 Z" id="Shape" fill="#000000"></path>
                </g>
                <path d="M0,30.2925777 L1.74117113,30.2925777 L3.23360352,35.5826418 C3.53761752,36.668497 3.84163153,38.3668861 3.84163153,38.3668861 L3.86926917,38.3668861 C3.86926917,38.3668861 4.17328317,36.7520244 4.50493482,35.6104842 L5.94209194,30.2925777 L7.4897996,30.2925777 L8.89931909,35.6104842 C9.17569545,36.6128122 9.5073471,38.3947285 9.5073471,38.3947285 L9.53498473,38.3947285 C9.53498473,38.3947285 9.8113611,36.7520244 10.1430127,35.5826418 L11.7183581,30.2925777 L13.4042539,30.2925777 L10.3088386,39.8425355 L8.70585563,39.8425355 L7.32397378,34.5803138 C7.10287269,33.6615132 6.71594577,31.9074393 6.71594577,31.9074393 L6.68830813,31.9074393 C6.68830813,31.9074393 6.32901885,33.6615132 6.10791776,34.5803138 L4.67076064,39.8425355 L3.01250242,39.8425355 L0,30.2925777 Z M15.5047143,26.6173752 L17.2182478,26.6173752 L17.2182478,28.5385038 L15.5047143,28.5385038 L15.5047143,26.6173752 Z M15.5599896,30.2925777 L17.1906102,30.2925777 L17.1906102,39.8425355 L15.5599896,39.8425355 L15.5599896,30.2925777 Z M19.3463458,30.2925777 L20.8387782,30.2925777 L20.8387782,27.2855939 L22.4693988,27.2855939 L22.4693988,30.2925777 L24.431671,30.2925777 L24.431671,31.57333 L22.4693988,31.57333 L22.4693988,37.5872977 C22.4693988,38.2833587 22.8286881,38.4782558 23.4367161,38.4782558 C23.7130925,38.4782558 24.1000194,38.4225709 24.2658452,38.3668861 L24.3211205,38.3668861 L24.3211205,39.7590082 C23.8789183,39.870378 23.4367161,39.9260628 22.9945139,39.9260628 C21.7231826,39.8982204 20.8387782,39.3970564 20.8387782,37.9770919 L20.8387782,31.57333 L19.3463458,31.57333 L19.3463458,30.2925777 L19.3463458,30.2925777 Z M28.2180273,31.6846998 L28.2733026,31.6846998 C28.9642435,30.6823719 29.9315608,30.0698381 31.3134426,30.0698381 C33.3033525,30.0698381 34.5194085,31.1835358 34.5194085,33.1881917 L34.5194085,39.8425355 L32.8887879,39.8425355 L32.8887879,33.3830888 C32.8887879,32.1580213 32.0872965,31.4619603 30.8159652,31.4619603 C29.3511704,31.4619603 28.3009402,32.5199731 28.3009402,34.023465 L28.3009402,39.8425355 L26.6703196,39.8425355 L26.6703196,26.6173752 L28.3009402,26.6173752 L28.3009402,30.0698381 C28.2733026,30.5710021 28.2180273,31.2392207 28.2180273,31.6846998 Z" id="Shape" fill="#000000"></path>
            </g>
        </g>
    </g>
</svg>