<?xml version="1.0" encoding="UTF-8"?>
<svg width="1280px" height="800px" viewBox="0 0 1280 800" version="1.1" xmlns="http://www.w3.org/2000/svg" xmlns:xlink="http://www.w3.org/1999/xlink">
    <title>theme_thumbnail_verizonSimple</title>
    <g id="theme_thumbnail_verizonSimple" stroke="none" stroke-width="1" fill="none" fill-rule="evenodd">
        <g id="Group-44" transform="translate(0.000000, -1.000000)">
            <g id="Loading-Placeholder">
                <g id="_/Divider" transform="translate(0.000000, 63.000000)" fill="#E0E0E0" fill-rule="nonzero">
                    <rect id="Rectangle" x="0" y="0" width="1280" height="1"></rect>
                </g>
                <g id="Group-3" transform="translate(0.000000, 63.000000)">
                    <rect id="overlay" fill="#F9F9F9" x="0" y="1" width="73" height="736"></rect>
                    <g id="_/Divider" transform="translate(71.000000, 368.500000) rotate(-270.000000) translate(-71.000000, -368.500000) translate(-297.000000, 368.000000)" fill="#EAEAEA" fill-rule="nonzero">
                        <rect id="Rectangle" x="0" y="4.54747351e-13" width="736" height="1"></rect>
                    </g>
                </g>
                <path d="M51,744 C53.209139,744 55,745.790861 55,748 L55,776 C55,778.209139 53.209139,780 51,780 L23,780 C20.790861,780 19,778.209139 19,776 L19,748 C19,745.790861 20.790861,744 23,744 L51,744 Z M51,678 C53.209139,678 55,679.790861 55,682 L55,710 C55,712.209139 53.209139,714 51,714 L23,714 C20.790861,714 19,712.209139 19,710 L19,682 C19,679.790861 20.790861,678 23,678 L51,678 Z M51,612 C53.209139,612 55,613.790861 55,616 L55,644 C55,646.209139 53.209139,648 51,648 L23,648 C20.790861,648 19,646.209139 19,644 L19,616 C19,613.790861 20.790861,612 23,612 L51,612 Z M49,302 C51.209139,302 53,303.790861 53,306 L53,334 C53,336.209139 51.209139,338 49,338 L21,338 C18.790861,338 17,336.209139 17,334 L17,306 C17,303.790861 18.790861,302 21,302 L49,302 Z M49,236 C51.209139,236 53,237.790861 53,240 L53,268 C53,270.209139 51.209139,272 49,272 L21,272 C18.790861,272 17,270.209139 17,268 L17,240 C17,237.790861 18.790861,236 21,236 L49,236 Z M49,170 C51.209139,170 53,171.790861 53,174 L53,202 C53,204.209139 51.209139,206 49,206 L21,206 C18.790861,206 17,204.209139 17,202 L17,174 C17,171.790861 18.790861,170 21,170 L49,170 Z M49,104 C51.209139,104 53,105.790861 53,108 L53,136 C53,138.209139 51.209139,140 49,140 L21,140 C18.790861,140 17,138.209139 17,136 L17,108 C17,105.790861 18.790861,104 21,104 L49,104 Z" id="Combined-Shape" fill-opacity="0.16" fill="#000000" fill-rule="nonzero"></path>
                <circle id="Oval" fill="#FF8800" cx="53" cy="104" r="10"></circle>
                <g id="Group-2">
                    <rect id="overlay" fill="#F9F9F9" fill-rule="nonzero" x="1" y="0" width="1280" height="64"></rect>
                    <rect id="keyline-copy" fill="#E0E0E0" x="0" y="63" width="1280" height="1"></rect>
                </g>
                <rect id="Rectangle-2-Copy-11" fill="#000000" fill-rule="nonzero" x="1233" y="16" width="32" height="32" rx="16"></rect>
                <rect id="Rectangle-2-Copy-31" stroke="#E0E0E0" fill-opacity="0.4" fill="#FFFFFF" fill-rule="nonzero" x="322.5" y="16.5" width="31" height="31" rx="15.5"></rect>
                <rect id="Rectangle-2-Copy-20" fill="#000000" fill-rule="nonzero" x="1185" y="16" width="32" height="32" rx="16"></rect>
                <rect id="Rectangle-2-Copy-32" stroke="#E0E0E0" fill-opacity="0.4" fill="#FFFFFF" fill-rule="nonzero" x="262.5" y="16.5" width="31" height="31" rx="15.5"></rect>
                <rect id="Rectangle-2-Copy-9" stroke="#E0E0E0" fill-opacity="0.4" fill="#FFFFFF" fill-rule="nonzero" x="72.5" y="16.5" width="159" height="31" rx="15.5"></rect>
                <rect id="Rectangle-2-Copy-10" stroke="#E0E0E0" fill-opacity="0.4" fill="#FFFFFF" fill-rule="nonzero" x="376.5" y="16.5" width="639" height="31" rx="15.5"></rect>
                <circle id="Oval" stroke="#E0E0E0" fill-opacity="0.4" fill="#FFFFFF" fill-rule="nonzero" cx="36" cy="32" r="19.5"></circle>
                <g id="Group-4" transform="translate(72.000000, 64.000000)">
                    <rect id="overlay" fill="#F9F9F9" x="0" y="0" width="257" height="736"></rect>
                    <g id="_/Divider" transform="translate(256.000000, 368.500000) rotate(-270.000000) translate(-256.000000, -368.500000) translate(-112.000000, 368.000000)"></g>
                </g>
                <g id="Group-43" transform="translate(96.000000, 94.000000)" fill="#FFFFFF" fill-rule="nonzero">
                    <path d="M4,0 L206,0 C208.209139,-4.05812251e-16 210,1.790861 210,4 L210,32 C210,34.209139 208.209139,36 206,36 L4,36 C1.790861,36 2.705415e-16,34.209139 0,32 L0,4 C-2.705415e-16,1.790861 1.790861,4.05812251e-16 4,0 Z" id="Rectangle-2-Copy-14"></path>
                </g>
                <path d="M100,146 L302,146 C304.209139,146 306,147.790861 306,150 L306,178 C306,180.209139 304.209139,182 302,182 L100,182 C97.790861,182 96,180.209139 96,178 L96,150 C96,147.790861 97.790861,146 100,146 Z" id="Rectangle-2-Copy-34" fill="#FFFFFF" fill-rule="nonzero"></path>
                <path d="M302,550 C304.209139,550 306,551.790861 306,554 L306,570 C306,572.209139 304.209139,574 302,574 L100,574 C97.790861,574 96,572.209139 96,570 L96,554 C96,551.790861 97.790861,550 100,550 L302,550 Z M302,502 C304.209139,502 306,503.790861 306,506 L306,522 C306,524.209139 304.209139,526 302,526 L100,526 C97.790861,526 96,524.209139 96,522 L96,506 C96,503.790861 97.790861,502 100,502 L302,502 Z M302,454 C304.209139,454 306,455.790861 306,458 L306,474 C306,476.209139 304.209139,478 302,478 L100,478 C97.790861,478 96,476.209139 96,474 L96,458 C96,455.790861 97.790861,454 100,454 L302,454 Z M302,406 C304.209139,406 306,407.790861 306,410 L306,426 C306,428.209139 304.209139,430 302,430 L100,430 C97.790861,430 96,428.209139 96,426 L96,410 C96,407.790861 97.790861,406 100,406 L302,406 Z M302,324 C304.209139,324 306,325.790861 306,328 L306,344 C306,346.209139 304.209139,348 302,348 L100,348 C97.790861,348 96,346.209139 96,344 L96,328 C96,325.790861 97.790861,324 100,324 L302,324 Z M302,276 C304.209139,276 306,277.790861 306,280 L306,296 C306,298.209139 304.209139,300 302,300 L100,300 C97.790861,300 96,298.209139 96,296 L96,280 C96,277.790861 97.790861,276 100,276 L302,276 Z" id="Combined-Shape" fill-opacity="0.12" fill="#000000" fill-rule="nonzero"></path>
                <path d="M100,228 L302,228 C304.209139,228 306,229.790861 306,232 L306,248 C306,250.209139 304.209139,252 302,252 L100,252 C97.790861,252 96,250.209139 96,248 L96,232 C96,229.790861 97.790861,228 100,228 Z" id="Rectangle-2-Copy-13" fill="#000000" fill-rule="nonzero"></path>
                <g id="Group-5" transform="translate(328.000000, 64.000000)">
                    <rect id="overlay" fill="#FFFFFF" x="0" y="0" width="670" height="736"></rect>
                    <rect id="Rectangle-Copy-11" fill="#F3F3F3" fill-rule="nonzero" x="89" y="391" width="200" height="28" rx="2"></rect>
                    <rect id="Rectangle-Copy-6" fill="#F9F9F9" fill-rule="nonzero" opacity="0.756487165" x="89" y="73" width="528" height="118" rx="4"></rect>
                    <path d="M57,494 C65.836556,494 73,501.163444 73,510 C73,518.836556 65.836556,526 57,526 C48.163444,526 41,518.836556 41,510 C41,501.163444 48.163444,494 57,494 Z M387,496 C388.104569,496 389,496.895431 389,498 L389,522 C389,523.104569 388.104569,524 387,524 L91,524 C89.8954305,524 89,523.104569 89,522 L89,498 C89,496.895431 89.8954305,496 91,496 L387,496 Z M580,355 C581.104569,355 582,355.895431 582,357 L582,381 C582,382.104569 581.104569,383 580,383 L91,383 C89.8954305,383 89,382.104569 89,381 L89,357 C89,355.895431 89.8954305,355 91,355 L580,355 Z M57,317 C65.836556,317 73,324.163444 73,333 C73,341.836556 65.836556,349 57,349 C48.163444,349 41,341.836556 41,333 C41,324.163444 48.163444,317 57,317 Z M487,319 C488.104569,319 489,319.895431 489,321 L489,345 C489,346.104569 488.104569,347 487,347 L91,347 C89.8954305,347 89,346.104569 89,345 L89,321 C89,319.895431 89.8954305,319 91,319 L487,319 Z M287,221 C288.104569,221 289,221.895431 289,223 L289,247 C289,248.104569 288.104569,249 287,249 L91,249 C89.8954305,249 89,248.104569 89,247 L89,223 C89,221.895431 89.8954305,221 91,221 L287,221 Z M454,143 C456.209139,143 458,144.790861 458,147 L458,167 C458,169.209139 456.209139,171 454,171 L114,171 C111.790861,171 110,169.209139 110,167 L110,147 C110,144.790861 111.790861,143 114,143 L454,143 Z M593,93 C595.209139,93 597,94.790861 597,97 L597,117 C597,119.209139 595.209139,121 593,121 L114,121 C111.790861,121 110,119.209139 110,117 L110,97 C110,94.790861 111.790861,93 114,93 L593,93 Z M57,73 C68.045695,73 77,81.954305 77,93 C77,104.045695 68.045695,113 57,113 C45.954305,113 37,104.045695 37,93 C37,81.954305 45.954305,73 57,73 Z" id="Combined-Shape" fill="#EAEAEA"></path>
                </g>
                <rect id="overlay" fill="#FFFFFF" x="998" y="64" width="283" height="736"></rect>
                <path d="M1058,640 C1060.20914,640 1062,641.790861 1062,644 L1062,684 C1062,686.209139 1060.20914,688 1058,688 L1018,688 C1015.79086,688 1014,686.209139 1014,684 L1014,644 C1014,641.790861 1015.79086,640 1018,640 L1058,640 Z M1058,532 C1060.20914,532 1062,533.790861 1062,536 L1062,576 C1062,578.209139 1060.20914,580 1058,580 L1018,580 C1015.79086,580 1014,578.209139 1014,576 L1014,536 C1014,533.790861 1015.79086,532 1018,532 L1058,532 Z M1058,424 C1060.20914,424 1062,425.790861 1062,428 L1062,468 C1062,470.209139 1060.20914,472 1058,472 L1018,472 C1015.79086,472 1014,470.209139 1014,468 L1014,428 C1014,425.790861 1015.79086,424 1018,424 L1058,424 Z M1034,254 C1045.04569,254 1054,262.954305 1054,274 C1054,285.045695 1045.04569,294 1034,294 C1022.95431,294 1014,285.045695 1014,274 C1014,262.954305 1022.95431,254 1034,254 Z M1086,254 C1097.04569,254 1106,262.954305 1106,274 C1106,285.045695 1097.04569,294 1086,294 C1074.95431,294 1066,285.045695 1066,274 C1066,262.954305 1074.95431,254 1086,254 Z M1138,254 C1149.04569,254 1158,262.954305 1158,274 C1158,285.045695 1149.04569,294 1138,294 C1126.95431,294 1118,285.045695 1118,274 C1118,262.954305 1126.95431,254 1138,254 Z M1034,206 C1045.04569,206 1054,214.954305 1054,226 C1054,237.045695 1045.04569,246 1034,246 C1022.95431,246 1014,237.045695 1014,226 C1014,214.954305 1022.95431,206 1034,206 Z M1086,206 C1097.04569,206 1106,214.954305 1106,226 C1106,237.045695 1097.04569,246 1086,246 C1074.95431,246 1066,237.045695 1066,226 C1066,214.954305 1074.95431,206 1086,206 Z M1138,206 C1149.04569,206 1158,214.954305 1158,226 C1158,237.045695 1149.04569,246 1138,246 C1126.95431,246 1118,237.045695 1118,226 C1118,214.954305 1126.95431,206 1138,206 Z M1190,206 C1201.04569,206 1210,214.954305 1210,226 C1210,237.045695 1201.04569,246 1190,246 C1178.95431,246 1170,237.045695 1170,226 C1170,214.954305 1178.95431,206 1190,206 Z M1252,142 C1254.20914,142 1256,143.790861 1256,146 L1256,170 C1256,172.209139 1254.20914,174 1252,174 L1018,174 C1015.79086,174 1014,172.209139 1014,170 L1014,146 C1014,143.790861 1015.79086,142 1018,142 L1252,142 Z M1175,94 C1177.20914,94 1179,95.790861 1179,98 L1179,122 C1179,124.209139 1177.20914,126 1175,126 L1018,126 C1015.79086,126 1014,124.209139 1014,122 L1014,98 C1014,95.790861 1015.79086,94 1018,94 L1175,94 Z" id="Combined-Shape" fill="#EAEAEA" fill-rule="nonzero"></path>
                <rect id="Rectangle" fill="#E0E0E0" x="998" y="63" width="1" height="738"></rect>
                <path d="M1138,670 C1140.20914,670 1142,671.790861 1142,674 L1142,684 C1142,686.209139 1140.20914,688 1138,688 L1078,688 C1075.79086,688 1074,686.209139 1074,684 L1074,674 C1074,671.790861 1075.79086,670 1078,670 L1138,670 Z M1252,640 C1254.20914,640 1256,641.790861 1256,644 L1256,660 C1256,662.209139 1254.20914,664 1252,664 L1078,664 C1075.79086,664 1074,662.209139 1074,660 L1074,644 C1074,641.790861 1075.79086,640 1078,640 L1252,640 Z M1138,562 C1140.20914,562 1142,563.790861 1142,566 L1142,576 C1142,578.209139 1140.20914,580 1138,580 L1078,580 C1075.79086,580 1074,578.209139 1074,576 L1074,566 C1074,563.790861 1075.79086,562 1078,562 L1138,562 Z M1252,532 C1254.20914,532 1256,533.790861 1256,536 L1256,552 C1256,554.209139 1254.20914,556 1252,556 L1078,556 C1075.79086,556 1074,554.209139 1074,552 L1074,536 C1074,533.790861 1075.79086,532 1078,532 L1252,532 Z M1138,454 C1140.20914,454 1142,455.790861 1142,458 L1142,468 C1142,470.209139 1140.20914,472 1138,472 L1078,472 C1075.79086,472 1074,470.209139 1074,468 L1074,458 C1074,455.790861 1075.79086,454 1078,454 L1138,454 Z M1252,424 C1254.20914,424 1256,425.790861 1256,428 L1256,444 C1256,446.209139 1254.20914,448 1252,448 L1078,448 C1075.79086,448 1074,446.209139 1074,444 L1074,428 C1074,425.790861 1075.79086,424 1078,424 L1252,424 Z" id="Combined-Shape" fill="#F3F3F3" fill-rule="nonzero"></path>
                <rect id="Rectangle-2-Copy-23" fill="#F3F3F3" fill-rule="nonzero" x="365" y="738" width="597" height="40" rx="4"></rect>
            </g>
            <rect id="Rectangle" fill="#E0E0E0" x="329" y="713" width="669" height="1"></rect>
        </g>
    </g>
</svg>