<?xml version="1.0" encoding="UTF-8"?>
<svg width="232px" height="50px" viewBox="0 0 232 50" version="1.1" xmlns="http://www.w3.org/2000/svg" xmlns:xlink="http://www.w3.org/1999/xlink">
    <!-- Generator: Sketch 63.1 (92452) - https://sketch.com -->
    <title>rcv-logo-white</title>
    <desc>Created with Sketch.</desc>
    <g id="v4" stroke="none" stroke-width="1" fill="none" fill-rule="evenodd">
        <g id="rcv-logo" transform="translate(-536.000000, -204.000000)" fill="#FFFFFE">
            <g id="rcv-logo-white" transform="translate(536.238500, 203.311000)">
                <g id="Group-497">
                    <path d="M12.2109,12.901 L15.7329,12.901 C17.1229,12.901 18.2089,12.711 18.9899,12.334 C19.7759,11.954 20.2449,11.286 20.3959,10.323 C20.4219,10.197 20.4329,10.009 20.4329,9.754 C20.4329,8.971 20.1449,8.399 19.5619,8.03 C18.9819,7.665 18.2219,7.481 17.2859,7.481 L13.1169,7.481 L12.2109,12.901 Z M11.1489,18.89 L9.5169,28.405 L0.5699,28.405 L5.3099,1.113 L18.1989,1.113 C20.1899,1.113 21.8809,1.233 23.2569,1.471 C24.6349,1.714 25.7589,2.08 26.6309,2.573 C27.5029,3.064 28.1349,3.673 28.5239,4.409 C28.9199,5.143 29.1159,6.013 29.1159,7.025 C29.1159,7.552 29.0509,8.175 28.9249,8.882 C28.6469,10.449 28.0349,11.845 27.0849,13.073 C26.1389,14.297 24.8309,15.126 23.1639,15.552 C23.7199,15.757 24.2199,15.966 24.6599,16.181 C25.1049,16.396 25.4819,16.667 25.7999,16.996 C26.1139,17.324 26.3599,17.728 26.5369,18.211 C26.7149,18.69 26.8039,19.308 26.8039,20.065 C26.8039,20.851 26.7149,21.758 26.5369,22.793 C26.3599,23.755 26.2219,24.553 26.1219,25.183 C26.0189,25.816 25.9689,26.308 25.9689,26.664 C25.9689,27.268 26.1959,27.572 26.6489,27.572 L26.5369,28.405 L17.4789,28.405 C17.4249,28.153 17.3999,27.862 17.3999,27.536 C17.3999,27.102 17.4349,26.557 17.4949,25.88 C17.5579,25.216 17.6669,24.463 17.8169,23.63 C17.9709,22.793 18.0479,22.09 18.0479,21.507 C18.0479,20.547 17.7479,19.873 17.1549,19.475 C16.5609,19.087 15.4679,18.89 13.8769,18.89 L11.1489,18.89 Z" id="Fill-467"></path>
                    <path d="M41.6738,8.5406 L48.8768,8.5406 L48.3448,11.6506 C49.4558,10.4366 50.5818,9.5256 51.7178,8.9006 C52.8568,8.2836 54.1838,7.9726 55.6998,7.9726 C57.9218,7.9726 59.5528,8.4926 60.5888,9.5276 C61.6268,10.5616 62.1438,12.0676 62.1438,14.0396 C62.1438,14.8226 62.0678,15.6416 61.9168,16.5006 L59.8698,28.4046 L51.9828,28.4046 L53.8038,17.9046 C53.8798,17.4486 53.9198,17.0106 53.9198,16.5776 C53.9198,15.8946 53.7578,15.3266 53.4438,14.8726 C53.1278,14.4166 52.5388,14.1896 51.6808,14.1896 C50.4698,14.1896 49.5788,14.5506 49.0278,15.2696 C48.4698,15.9876 48.0898,16.9946 47.8908,18.2836 L46.1458,28.4046 L38.2618,28.4046 L41.6738,8.5406 Z" id="Fill-469"></path>
                    <path d="M74.1923,13.2115 C73.6123,13.2115 73.1073,13.3235 72.6773,13.5545 C72.2483,13.7835 71.8823,14.1025 71.5763,14.5095 C71.2723,14.9115 71.0263,15.3945 70.8393,15.9525 C70.6493,16.5145 70.5013,17.1075 70.4033,17.7405 C70.3763,17.9205 70.3573,18.0895 70.3463,18.2365 C70.3313,18.3915 70.3273,18.5445 70.3273,18.6925 C70.3293,19.4825 70.5243,20.1605 70.9133,20.7325 C71.3073,21.3095 71.9413,21.6055 72.8303,21.6295 L73.0173,21.6295 C73.5753,21.6295 74.0713,21.5125 74.5163,21.2805 C74.9573,21.0605 75.3383,20.7505 75.6543,20.3735 C75.9673,19.9915 76.2293,19.5535 76.4293,19.0585 C76.6303,18.5635 76.7863,18.0485 76.8863,17.5165 C76.9583,17.1075 77.0003,16.6895 77.0003,16.2575 C77.0003,15.4175 76.7943,14.7025 76.3893,14.1075 C75.9863,13.5105 75.2793,13.2115 74.2713,13.2115 L74.1923,13.2115 Z M69.4923,29.0575 L69.4923,29.1705 C69.4923,29.4495 69.6063,29.6995 69.8353,29.9305 C70.1123,30.2585 70.6553,30.4195 71.4653,30.4195 C72.6023,30.4195 73.4583,30.1315 74.0433,29.5515 C74.6223,28.9705 75.0413,27.9735 75.2933,26.5535 L75.5973,24.9245 C74.9373,25.5035 74.1263,26.0135 73.1523,26.4405 C72.1793,26.8705 70.9723,27.0875 69.5303,27.0875 C68.3443,27.0875 67.2983,26.8935 66.4023,26.5165 C65.5073,26.1415 64.7553,25.6205 64.1503,24.9665 C63.5413,24.3065 63.0873,23.5245 62.7833,22.6125 C62.4813,21.7025 62.3293,20.7325 62.3293,19.6935 C62.3293,19.3675 62.3493,19.0375 62.3873,18.7085 C62.4223,18.3805 62.4643,18.0395 62.5183,17.6865 C62.7193,16.4725 63.0813,15.2615 63.5993,14.0465 C64.1143,12.8335 64.8103,11.7545 65.6843,10.8065 C66.5553,9.8565 67.6043,9.0885 68.8303,8.4915 C70.0553,7.8995 71.4873,7.6045 73.1313,7.6045 C74.3473,7.6045 75.4273,7.8905 76.3713,8.4665 C77.3203,9.0425 78.0733,9.8115 78.6313,10.7675 L79.0463,8.1695 L85.9843,8.1695 L83.2173,24.1695 C82.9623,25.6555 82.6393,27.0465 82.2513,28.3365 C81.8573,29.6235 81.2303,30.7495 80.3723,31.7095 C79.5143,32.6715 78.3383,33.4245 76.8483,33.9685 C75.3553,34.5065 73.3843,34.7795 70.9313,34.7795 C69.2133,34.7795 67.7623,34.6295 66.5733,34.3265 C65.3873,34.0215 64.4253,33.6195 63.6933,33.1155 C62.9573,32.6085 62.4223,32.0285 62.0803,31.3675 C61.7433,30.7135 61.5713,30.0315 61.5713,29.3185 L61.5713,29.0575 L69.4923,29.0575 Z" id="Fill-471"></path>
                    <path d="M104.4658,11.8854 C104.4658,11.7914 104.4748,11.7094 104.4858,11.6324 C104.4988,11.5644 104.5068,11.4804 104.5068,11.3844 C104.5068,10.1884 104.1628,9.2684 103.4818,8.6244 C102.8018,7.9794 101.8408,7.6574 100.5978,7.6574 C99.0888,7.6574 97.8098,8.2814 96.7608,9.5374 C95.7118,10.7944 94.9668,12.6784 94.5368,15.1824 C94.4438,15.6614 94.3718,16.1244 94.3238,16.5634 C94.2738,17.0054 94.2538,17.4304 94.2538,17.8354 C94.2538,18.4594 94.3188,19.0334 94.4478,19.5574 C94.5798,20.0804 94.8088,20.5424 95.1308,20.9384 C95.4518,21.3304 95.8768,21.6434 96.4028,21.8664 C96.9288,22.0974 97.5978,22.2074 98.4098,22.2074 C99.7718,22.2074 100.8638,21.7904 101.6918,20.9554 C102.5158,20.1214 103.1188,19.0824 103.4998,17.8354 L111.6358,17.8354 C111.1568,19.5094 110.4698,21.0044 109.5748,22.3194 C108.6808,23.6324 107.6148,24.7514 106.3848,25.6704 C105.1548,26.5874 103.7798,27.2954 102.2648,27.7824 C100.7438,28.2724 99.1388,28.5174 97.4418,28.5174 C95.5778,28.5174 93.9288,28.2794 92.4938,27.8004 C91.0608,27.3224 89.8488,26.6304 88.8548,25.7224 C87.8658,24.8154 87.1098,23.7074 86.5978,22.4064 C86.0828,21.1024 85.8278,19.6304 85.8278,17.9774 C85.8278,17.5024 85.8498,17.0054 85.8998,16.4914 C85.9458,15.9794 86.0188,15.4484 86.1138,14.8974 C86.4748,12.8214 87.1278,10.9464 88.0858,9.2684 C89.0418,7.5944 90.2008,6.1744 91.5648,5.0044 C92.9268,3.8314 94.4478,2.9314 96.1318,2.2954 C97.8198,1.6654 99.5578,1.3484 101.3498,1.3484 C105.1018,1.3484 107.9038,2.1714 109.7578,3.8214 C111.6048,5.4694 112.5318,7.8024 112.5318,10.8094 L112.5318,11.3484 C112.5318,11.5174 112.5178,11.6954 112.4968,11.8854 L104.4658,11.8854 Z" id="Fill-473"></path>
                    <path d="M128.5908,15.7799 C128.6148,15.6529 128.6278,15.4669 128.6278,15.2129 C128.6278,14.4009 128.3488,13.7179 127.7968,13.1659 C127.2388,12.6099 126.5438,12.3329 125.7098,12.3329 C124.5248,12.3329 123.5648,12.6389 122.8298,13.2599 C122.0968,13.8809 121.6298,14.7179 121.4278,15.7799 L128.5908,15.7799 Z M120.7428,19.8009 C120.7208,19.9239 120.7008,20.0509 120.6888,20.1759 C120.6738,20.3019 120.6708,20.4289 120.6708,20.5569 C120.6708,21.5219 120.9848,22.2819 121.6158,22.8499 C122.2498,23.4209 123.0318,23.7009 123.9638,23.7009 C124.5978,23.7009 125.2078,23.5559 125.7848,23.2699 C126.3658,22.9769 126.8458,22.5469 127.2238,21.9609 L134.7698,21.9609 C134.2128,23.1989 133.4878,24.2319 132.5908,25.0689 C131.6918,25.8999 130.7018,26.5779 129.6138,27.0999 C128.5268,27.6129 127.3838,27.9819 126.1838,28.1969 C124.9798,28.4089 123.8048,28.5169 122.6408,28.5169 C121.2248,28.5169 119.9218,28.3399 118.7368,27.9839 C117.5478,27.6329 116.5238,27.1019 115.6668,26.3929 C114.8058,25.6889 114.1368,24.8229 113.6578,23.7969 C113.1778,22.7709 112.9348,21.5949 112.9348,20.2539 C112.9348,19.9239 112.9578,19.5879 112.9938,19.2459 C113.0278,18.9059 113.0738,18.5629 113.1248,18.2059 C113.4028,16.5899 113.9468,15.1159 114.7558,13.7909 C115.5648,12.4659 116.5548,11.3399 117.7298,10.4179 C118.9058,9.4939 120.2188,8.7809 121.6708,8.2729 C123.1278,7.7679 124.6488,7.5169 126.2388,7.5169 C127.8318,7.5169 129.2408,7.7449 130.4678,8.1989 C131.6918,8.6519 132.7258,9.2859 133.5598,10.0949 C134.3898,10.9029 135.0258,11.8899 135.4518,13.0529 C135.8828,14.2129 136.0968,15.4899 136.0968,16.8809 C136.0968,17.7409 135.9948,18.7119 135.7938,19.8009 L120.7428,19.8009 Z" id="Fill-475"></path>
                    <path d="M138.6542,8.653 L145.8522,8.653 L145.3222,11.762 C146.4362,10.549 147.5612,9.637 148.6982,9.012 C149.8362,8.396 151.1612,8.085 152.6762,8.085 C154.9012,8.085 156.5302,8.605 157.5682,9.639 C158.6042,10.673 159.1242,12.179 159.1242,14.151 C159.1242,14.934 159.0452,15.754 158.8932,16.612 L156.8502,28.517 L148.9622,28.517 L150.7842,18.017 C150.8592,17.561 150.8972,17.123 150.8972,16.69 C150.8972,16.006 150.7392,15.438 150.4222,14.985 C150.1062,14.529 149.5192,14.302 148.6632,14.302 C147.4502,14.302 146.5612,14.662 146.0052,15.381 C145.4502,16.1 145.0722,17.106 144.8682,18.395 L143.1262,28.517 L135.2402,28.517 L138.6542,8.653 Z" id="Fill-477"></path>
                    <path d="M171.4306,28.3668 C170.5416,28.4138 169.7276,28.4558 168.9796,28.4818 C168.2386,28.5078 167.5476,28.5168 166.9156,28.5168 C165.7276,28.5168 164.7306,28.4598 163.9216,28.3468 C163.1126,28.2358 162.4676,28.0298 161.9876,27.7408 C161.5066,27.4528 161.1656,27.0618 160.9626,26.5838 C160.7606,26.1088 160.6606,25.4988 160.6606,24.7668 C160.6606,24.3138 160.6946,23.8008 160.7556,23.2298 C160.8206,22.6628 160.9106,22.0338 161.0376,21.3518 L162.4816,13.0558 L159.6736,13.0558 L160.4346,8.5038 L163.3516,8.5038 L164.4526,2.3228 L172.2206,2.3228 L171.1236,8.5038 L174.9136,8.5038 L174.1536,13.0558 L170.3636,13.0558 L169.1146,20.2868 C169.0636,20.5158 169.0276,20.7198 168.9996,20.9068 C168.9736,21.0998 168.9596,21.2698 168.9596,21.4228 C168.9596,21.9058 169.1146,22.2478 169.4156,22.4538 C169.7236,22.6548 170.2886,22.7538 171.1236,22.7538 L172.3736,22.7538 L171.4306,28.3668 Z" id="Fill-479"></path>
                    <path d="M176.538,8.653 L183.705,8.653 L183.02,12.672 L183.101,12.672 C184.688,9.613 186.988,8.085 189.998,8.085 C190.175,8.085 190.346,8.097 190.511,8.124 C190.672,8.148 190.847,8.176 191.023,8.2 L189.617,16.085 C189.368,16.033 189.106,15.983 188.844,15.93 C188.576,15.883 188.304,15.856 188.025,15.856 C186.408,15.856 185.128,16.288 184.179,17.145 C183.231,18.004 182.567,19.513 182.188,21.656 L181.014,28.517 L173.128,28.517 L176.538,8.653 Z" id="Fill-481"></path>
                    <path d="M197.9296,24.0416 C198.6076,24.0416 199.2106,23.9206 199.7286,23.6676 C200.2466,23.4156 200.6826,23.0666 201.0336,22.6206 C201.3916,22.1796 201.6646,21.6616 201.8686,21.0656 C202.0736,20.4746 202.2096,19.8386 202.2866,19.1536 C201.5806,19.4566 200.8646,19.6766 200.1466,19.8196 C199.4276,19.9576 198.7546,20.1096 198.1366,20.2736 C197.5186,20.4376 196.9826,20.6706 196.5446,20.9756 C196.0986,21.2766 195.8276,21.7416 195.7286,22.3786 L195.7286,22.6036 C195.7286,23.0366 195.9086,23.3836 196.2786,23.6466 C196.6436,23.9136 197.1956,24.0416 197.9296,24.0416 L197.9296,24.0416 Z M201.5746,28.5606 L201.5286,25.8276 C200.2426,26.8856 198.9706,27.6016 197.7166,27.9676 C196.4686,28.3306 195.0976,28.5166 193.6046,28.5166 C192.7726,28.5166 191.9736,28.4226 191.2176,28.2366 C190.4606,28.0466 189.8016,27.7506 189.2466,27.3416 C188.6886,26.9386 188.2456,26.4426 187.9166,25.8426 C187.5916,25.2536 187.4256,24.5356 187.4256,23.7006 C187.4256,23.3486 187.4606,22.9586 187.5416,22.5296 C187.7926,21.0356 188.3436,19.8686 189.1886,19.0206 C190.0356,18.1746 191.0236,17.5376 192.1476,17.1086 C193.2666,16.6766 194.4596,16.3816 195.7096,16.2146 C196.9596,16.0516 198.1226,15.9006 199.1976,15.7616 C200.2706,15.6186 201.1836,15.4356 201.9256,15.1916 C202.6686,14.9496 203.0976,14.5166 203.1956,13.8846 C203.1956,13.8346 203.2046,13.7896 203.2156,13.7526 C203.2266,13.7146 203.2326,13.6716 203.2326,13.6216 C203.2356,13.3156 203.1436,13.0756 202.9676,12.8996 C202.7906,12.7256 202.5816,12.5906 202.3406,12.4996 C202.1036,12.4116 201.8466,12.3516 201.5666,12.3106 C201.2886,12.2716 201.0596,12.2536 200.8836,12.2536 C200.6026,12.2536 200.3096,12.2716 199.9936,12.3106 C199.6786,12.3516 199.3786,12.4396 199.1016,12.5796 C198.8246,12.7186 198.5666,12.9136 198.3256,13.1656 C198.0856,13.4196 197.9126,13.7606 197.8136,14.1906 L190.2316,14.1906 C190.4086,13.1246 190.7616,12.1866 191.2936,11.3636 C191.8246,10.5426 192.5776,9.8456 193.5476,9.2796 C194.5236,8.7106 195.7136,8.2736 197.1296,7.9716 C198.5446,7.6636 200.2426,7.5186 202.2096,7.5186 C204.0056,7.5186 205.4796,7.6376 206.6236,7.8786 C207.7766,8.1156 208.6816,8.4656 209.3356,8.9216 C209.9936,9.3726 210.4506,9.9186 210.7016,10.5486 C210.9526,11.1806 211.0836,11.8906 211.0836,12.6756 C211.0836,13.1516 211.0496,13.6456 210.9876,14.1486 C210.9226,14.6546 210.8396,15.1856 210.7416,15.7426 L209.1456,25.0306 C209.0756,25.4596 209.0346,25.8136 209.0346,26.0896 C209.0346,26.3716 209.0826,26.6156 209.1866,26.8296 C209.2856,27.0446 209.4796,27.2926 209.7536,27.5716 L209.7256,28.5606 L201.5746,28.5606 Z" id="Fill-483"></path>
                    <polygon id="Fill-485" points="211.0839 28.5162 215.8169 1.2252 223.7069 1.2252 218.9719 28.5162"></polygon>
                    <polygon id="Fill-487" points="28.0126 28.4049 32.4536 12.2829 38.1656 12.2829 35.8626 28.4049"></polygon>
                    <path d="M41.041,5.0875 C41.038,5.0875 41.041,5.0875 41.022,5.0605 C41.004,5.0255 40.966,4.9655 40.912,4.8905 C40.799,4.7365 40.612,4.5205 40.34,4.2755 C39.788,3.7955 38.892,3.2335 37.438,2.9665 C36.724,2.8385 36.109,2.8315 35.582,2.8865 C34.309,3.0195 33.532,3.5315 33.261,3.7475 C33.166,3.8135 33.154,3.8295 33.154,3.8295 C32.792,4.1945 32.201,4.1915 31.839,3.8265 C31.475,3.4655 31.475,2.8725 31.839,2.5115 C31.931,2.4225 33.119,1.2735 35.389,1.0355 C36.086,0.9625 36.885,0.9755 37.77,1.1335 C41.378,1.7755 42.64,4.0975 42.703,4.2455 C42.936,4.7075 42.75,5.2665 42.288,5.5005 C42.186,5.5505 42.078,5.5825 41.966,5.5955 C41.596,5.6315 41.218,5.4435 41.041,5.0875" id="Fill-489"></path>
                    <path d="M38.7226,7.2076 C38.7176,7.2116 38.7226,7.2036 38.6666,7.1226 C38.6066,7.0466 38.5096,6.9256 38.3576,6.7946 C38.0606,6.5326 37.5636,6.2196 36.7416,6.0656 C36.3356,5.9936 35.9916,5.9886 35.7016,6.0206 C34.9936,6.0946 34.5726,6.3766 34.4296,6.4866 C34.3896,6.5186 34.3916,6.5216 34.3916,6.5216 C34.0896,6.8236 33.5976,6.8256 33.2916,6.5216 C32.9886,6.2176 32.9886,5.7276 33.2916,5.4216 C33.3676,5.3446 34.1206,4.6256 35.5386,4.4766 C35.9726,4.4326 36.4666,4.4416 37.0136,4.5386 L37.0136,4.5376 C39.2506,4.9366 40.0606,6.3876 40.1126,6.5106 C40.3046,6.8896 40.1506,7.3596 39.7656,7.5506 C39.6806,7.5956 39.5886,7.6236 39.4966,7.6316 C39.1856,7.6646 38.8696,7.5026 38.7226,7.2076" id="Fill-491"></path>
                    <path d="M38.0595,9.1119 C38.0535,10.0689 37.1495,10.8359 36.0365,10.8319156 C34.9205,10.8269 34.0225,10.0469 34.0274792,9.0949 C34.0285,8.1369 34.9355,7.3689 36.0515,7.37189124 C37.1655,7.3779 38.0675,8.1619 38.0595,9.1119" id="Fill-493"></path>
                    <path d="M227.3964,3.5973 L228.2224,3.5973 C228.2884,3.5973 228.3574,3.6013 228.4214,3.6143 C228.4694,3.6223 228.5124,3.6403 228.5514,3.6643 C228.5824,3.6893 228.6094,3.7213 228.6284,3.7653 C228.6524,3.8123 228.6634,3.8793 228.6634,3.9643 C228.6634,4.1043 228.6304,4.2013 228.5654,4.2613 C228.4954,4.3253 228.3834,4.3573 228.2304,4.3573 L227.3964,4.3573 L227.3964,3.5973 Z M229.5784,6.0233 C229.5494,5.8683 229.5354,5.6913 229.5354,5.4943 C229.5354,5.3383 229.5154,5.2083 229.4724,5.0983 C229.4334,4.9913 229.3784,4.8983 229.3124,4.8253 C229.2824,4.7933 229.2534,4.7653 229.2194,4.7413 C229.2504,4.7173 229.2764,4.6903 229.3024,4.6623 C229.3804,4.5833 229.4484,4.4823 229.5064,4.3533 C229.5644,4.2223 229.5904,4.0683 229.5904,3.8773 C229.5904,3.5363 229.4774,3.2623 229.2504,3.0663 C229.0294,2.8763 228.7054,2.7793 228.2844,2.7793 L226.6294,2.7793 C226.5404,2.7793 226.4674,2.8513 226.4674,2.9403 L226.4674,6.4103 C226.4674,6.4983 226.5404,6.5713 226.6294,6.5713 L227.2364,6.5713 C227.3254,6.5713 227.3964,6.4983 227.3964,6.4103 L227.3964,5.1413 L228.1304,5.1413 C228.2474,5.1413 228.3424,5.1573 228.4124,5.1833 C228.4694,5.2053 228.5144,5.2413 228.5514,5.2913 C228.5884,5.3493 228.6164,5.4243 228.6304,5.5153 C228.6494,5.6203 228.6584,5.7513 228.6584,5.8983 C228.6584,5.9863 228.6634,6.0783 228.6714,6.1743 C228.6804,6.2903 228.7174,6.3983 228.7754,6.4933 C228.8034,6.5393 228.8554,6.5713 228.9114,6.5713 L229.5624,6.5713 C229.6264,6.5713 229.6854,6.5323 229.7094,6.4743 C229.7364,6.4153 229.7244,6.3463 229.6804,6.2993 C229.6564,6.2733 229.6104,6.2013 229.5784,6.0233 L229.5784,6.0233 Z M227.9224,7.7853 C226.3034,7.7853 224.9854,6.4673 224.9854,4.8453 C224.9854,3.2253 226.3034,1.9063 227.9224,1.9063 C229.5444,1.9063 230.8624,3.2253 230.8624,4.8453 C230.8624,6.4673 229.5444,7.7853 227.9224,7.7853 L227.9224,7.7853 Z M227.9224,1.2613 C225.9464,1.2613 224.3404,2.8693 224.3404,4.8453 C224.3404,6.8233 225.9464,8.4303 227.9224,8.4303 C229.9004,8.4303 231.5064,6.8233 231.5064,4.8453 C231.5064,2.8693 229.9004,1.2613 227.9224,1.2613 L227.9224,1.2613 Z" id="Fill-495"></path>
                </g>
                <path d="M166.2115,50.384649 L171.8655,35.710649 L168.3015,35.710649 L164.2535,46.996649 L160.1835,35.710649 L156.6195,35.710649 L162.2955,50.384649 L166.2115,50.384649 Z M176.3535,50.384649 L176.3535,35.710649 L173.2295,35.710649 L173.2295,50.384649 L176.3535,50.384649 Z M185.0435,50.384649 C187.360833,50.384649 189.238167,49.713649 190.6755,48.371649 C192.112833,47.029649 192.8315,45.258649 192.8315,43.058649 C192.8315,40.858649 192.109167,39.0839823 190.6645,37.734649 C189.219833,36.3853156 187.346167,35.710649 185.0435,35.710649 L185.0435,35.710649 L179.2575,35.710649 L179.2575,50.384649 L185.0435,50.384649 Z M185.0435,47.634649 L182.3815,47.634649 L182.3815,38.460649 L185.0435,38.460649 C186.4955,38.460649 187.624833,38.889649 188.4315,39.747649 C189.238167,40.605649 189.6415,41.7093156 189.6415,43.058649 C189.6415,44.3493156 189.227167,45.434649 188.3985,46.314649 C187.569833,47.194649 186.4515,47.634649 185.0435,47.634649 L185.0435,47.634649 Z M205.4375,50.384649 L205.4375,47.634649 L198.1775,47.634649 L198.1775,44.312649 L205.2835,44.312649 L205.2835,41.562649 L198.1775,41.562649 L198.1775,38.460649 L205.4375,38.460649 L205.4375,35.710649 L195.0535,35.710649 L195.0535,50.384649 L205.4375,50.384649 Z M214.8315,50.648649 C217.060833,50.648649 218.897833,49.9373156 220.3425,48.514649 C221.787167,47.0919823 222.5095,45.2733156 222.5095,43.058649 C222.5095,40.8439823 221.787167,39.0253156 220.3425,37.602649 C218.897833,36.1799823 217.060833,35.468649 214.8315,35.468649 C212.616833,35.468649 210.787167,36.183649 209.3425,37.613649 C207.897833,39.043649 207.1755,40.858649 207.1755,43.058649 C207.1755,45.258649 207.897833,47.073649 209.3425,48.503649 C210.787167,49.933649 212.616833,50.648649 214.8315,50.648649 Z M214.8315,47.876649 C213.496833,47.876649 212.418833,47.4219823 211.5975,46.512649 C210.790833,45.6033156 210.3875,44.4519823 210.3875,43.058649 C210.3875,41.6653156 210.7945,40.5139823 211.6085,39.604649 C212.4225,38.6953156 213.496833,38.240649 214.8315,38.240649 C216.166167,38.240649 217.244167,38.6953156 218.0655,39.604649 C218.886833,40.5139823 219.2975,41.6653156 219.2975,43.058649 C219.2975,44.4519823 218.886833,45.6033156 218.0655,46.512649 C217.244167,47.4219823 216.166167,47.876649 214.8315,47.876649 Z" id="VIDEO" fill-rule="nonzero"></path>
            </g>
        </g>
    </g>
</svg>