<?xml version="1.0" encoding="utf-8"?>
<!-- Generator: Adobe Illustrator 26.0.1, SVG Export Plug-In . SVG Version: 6.00 Build 0)  -->
<svg version="1.1" id="Layer_1" xmlns="http://www.w3.org/2000/svg" xmlns:xlink="http://www.w3.org/1999/xlink" x="0px" y="0px"
	 viewBox="0 0 261.6 237" style="enable-background:new 0 0 261.6 237;" xml:space="preserve">
<style type="text/css">
	.st0{fill:#FFFFFF;}
	.st1{fill:none;stroke:#FFFFFF;stroke-width:0.4654;}
</style>
<g>
	<path class="st0" d="M139.2,27.6H150c0.2,0,0.1,0.2,0.3,0.2h3.2c0,0.1,0,0.2,0.1,0.3h2.1c0.2,0-0.1,0.2,0.2,0.2h1.2
		c0.2,0-0.1,0.2,0.2,0.2h1.3c0.2,0,0,0.2,0.2,0.2h1.4c0.2,0,0.6,0.4,0.8,0.4h1.2c0.6,0,1.4,0.4,1.8,0.6c2,0.4,4,0.8,6,1.2
		c0,0.1,0,0.2,0.1,0.2c7.9,2.2,14.8,5.7,21.6,10.1l7.9,8.5c0,0-15.6-7.9-15.8-7.9s-2.9-1.5-4.1-1.6c-1.1-0.6-2.6-1.3-4-1.5
		c-1.4-0.7-3.3-1.1-5-1.4c-0.4-0.5-1.3-0.4-2.2-0.6c-1.5-0.4-3-0.5-4.5-0.9c-0.3-0.3-0.8-0.2-1-0.3c-0.5-0.1-0.9-0.3-1.2-0.3H160
		c-0.1,0-0.9-0.4-1.1-0.4h-2.5c-0.2,0,0.1-0.2-0.2-0.2H149c-0.2,0,0,0.2-0.2,0.2h-2.6c-0.1,0-0.8,0-1,0.4h-1.8
		c-0.2,0,0.1,0.2-0.2,0.2h-1.2c-0.1,0-0.7,0.2-0.8,0.5H140c-0.1,0-4.1,0.9-5.8,1.5c-1.6,0.4-3.5,0.7-5,1.4c-2.6,0.9-5.6,1.8-7.6,3.1
		c-6.3,2.8-13.1,6.8-17.4,11c-0.7,0.3-1.3,0.9-1.9,1.5c-0.1,0.1-0.5,0.1-0.6,0.4c-0.2,0.1-0.7,0.2-0.5,0.7c-1.4,0.7-2.2,2.1-3.3,3
		c-0.4,0.4-1.2,1-1.3,1.6c-1.8,1.5-3.4,3.8-5,5.5c0,0.2,0,0.3,0,0.5c-0.8,0.4-1.2,1.5-1.8,2.2c-0.5,0.7-1.3,1.4-1.7,2.2
		C88,70.6,88,70.8,87.9,71c-0.2,0.3-0.6,0.3-0.8,0.7c-0.5,0.8-0.8,2.1-1.7,2.8c-0.5,1.2-1.2,2.2-1.5,3.6c-1,1-1.2,2.8-2.1,3.6
		c-0.3,0.9-0.5,2-1,3c-0.7,0.3-0.2,1.5-0.9,1.8c-0.4,1.9-1.5,3.7-1.7,5.7c-0.2,0-0.4,0.2-0.4,0.5c-0.2,2.1-0.9,3.8-1.1,5.7
		c0,0.2-0.3,0.4-0.3,0.7v1.9c-0.5,0.3-0.4,0.5-0.4,0.6v1.2c0,0.2-0.2-0.1-0.2,0.2v2c-0.1,0-0.2,0.2-0.4,0.3v2.7
		c0,0.2-0.2-0.1-0.2,0.2v12c0,0.2,0.2-0.1,0.2,0.1v2.3c0,0.2,0.2,0.4,0.4,0.6v2.1c0,0.2,0.2-0.1,0.2,0.2v1.2c0,0-0.1,0.4,0.4,0.6
		v1.6c0,0.2,0.2,0.4,0.3,0.6c0.1,0.3-0.2,0.8,0.2,1v1.2c0,0.2,0.3,0.3,0.3,0.5c0.1,1.4,0.4,2.8,1,3.9c0.7,2,0.8,4.5,2.1,6.2
		c0.3,1.3,0.9,2.4,1.5,3.6c0,0.3,3.5,7.7,3.3,7.7l6.4,14.1c0,0-15.9-16.3-16.1-16.2c-0.2-0.2-3.7-5.2-4.8-8.2c-0.8-2.1-1.8-4-2.8-6
		c-0.6-2.8-2.2-5.3-2.5-8.5c-0.2-0.2-0.4-0.6-0.6-0.9v-1.2c0-0.2-0.3-0.3-0.3-0.6c-0.3-0.8,0-1.7-0.6-2.4v-1.4
		c0-0.2-0.2-0.5-0.4-0.7v-1.3c-0.1-0.1-0.1-0.1-0.3-0.1v-1.9c0-0.2-0.2-0.3-0.4-0.4v-1.8c0-0.2,0,0-0.2,0v-2.8c0-0.2-0.1,0-0.2,0
		V111c0-0.2-0.1,0-0.2,0v-7.4c0-0.2,0.1,0,0.2-0.1v-2c0-0.2,0.1,0,0.2-0.1v-2.6c0-0.2,0.1,0,0.2-0.1v-2c0-0.2,0.4-0.3,0.4-0.5V95
		c0.1,0,0.2,0,0.3-0.1v-1.3c0-0.2,0.4-0.5,0.4-0.7v-1.6c0-0.2,0.3-0.3,0.3-0.5c0.2-1.5,0.6-3.1,1-4.6c0.4-0.7,0.6-2,0.8-2.9
		c0.5-0.2,0.2-0.8,0.3-1.2c0.2-0.4,0.6-1.2,0.5-1.7c0.2-0.1,0.3-0.2,0.4-0.3c0.4-1.2,0.7-2.5,1.1-3.6c0.4-1,1-1.5,1.2-2.5
		c0.4-1.1,1.2-2,1.5-3c1-1.8,2.1-3.8,3-5.6c0.9-0.8,1.3-1.9,1.9-2.8c0.7-1,1.7-1.9,2.1-3.1c0.1,0,0.3,0,0.4-0.1
		c0.9-1.4,2.1-2.8,3-4.2c0.6-0.7,1.7-1.3,2.1-2.3c1.9-1.9,3.7-3.9,5.7-5.6c0.5-0.5,1.3-0.8,1.9-1.2c0.6-0.5,1.2-1.1,1.8-1.7
		c0.6-0.3,1.3-0.7,1.7-1.3c0.9-0.6,2.2-1.3,3.1-2.1c0.5-0.4,1.3-0.5,1.8-1c0.9-0.7,2.1-1.1,2.7-1.9c0.8-0.3,1.7-0.6,2.4-1
		c0.1-0.1,0.1-0.3,0.3-0.4c2.1-0.7,3.8-2.2,6.1-2.7c0.1-0.1,0.2-0.2,0.3-0.4c1.2-0.4,2.5-0.8,3.6-1.4c1.4-0.7,3.3-0.8,4.6-1.5
		c1.9-0.6,4.3-0.6,6.1-1.4c1.3-0.3,2.8-0.2,4-0.7h1.2c0.2,0-0.1-0.2,0.2-0.2h1.5c0.2,0,0-0.2,0.2-0.2h1.4c0.2,0-0.1-0.2,0.2-0.2h1.9
		c0.1-0.1,0.1-0.1,0.1-0.3h2.9C139.3,27.8,139,27.6,139.2,27.6L139.2,27.6z"/>
	<path class="st0" d="M49.5,80.6c0.3,0,16.8-20.1,16.8-20.1L59,79.3c0,0-2.5,8.9-3,11.4c-0.2,0-0.4,1.9-0.4,1.9c0,0.6-0.5,1.5-0.5,2
		v1.2c0,0.3-0.4,0.9-0.4,1.2v1.6c0,0.2-0.2-0.1-0.2,0.2v2.1c-0.2,0.1-0.4,0.2-0.4,0.4v3.5c-0.1,0-0.2,0-0.3,0.1v9.2
		c0.1,0.1,0.1,0.1,0.3,0.1v3.4c0,0.2,0.2,0.3,0.4,0.4v2.2c0,0.2,0.2-0.1,0.2,0.1v1.8c0,0.2,0.2,0.3,0.4,0.5v2.2
		c0,0.2,0.2,0.4,0.3,0.6c0.1,0.2,0,0.8,0.2,1.1v1.3c0,0.2,0.2,0.4,0.4,0.5c0.1,0.2,0,0.4,0.2,0.7v1.3c0,0.2,0.3,0.3,0.3,0.5
		c0.1,0.3,0.1,0.8,0.2,1.1c0.5,1.3,0.5,3.4,1.4,4.4c0.2,1.7,0.8,3.1,1.4,4.6c0.1,0.2,0,0.4,0.3,0.8c0.4,1.2,1.1,2.5,1.3,3.8
		c0.2,0.2,0.4,0.3,0.6,0.5c0.3,1.3,1.1,2.7,1.5,4c0.6,0.4,0.6,1.3,1,1.9c0.8,0.9,1.2,2.1,2,3.2c0,0.6,0.6,1.3,1,1.7
		c2.9,5.1,6.6,9.7,10,13.4c0,0.2,0,0.4,0.1,0.5c0.5,0.4,0.4,0.3,0.9,0.6c4.3,5.1,9.6,9,14.7,13c0.3,0,0.8,0.2,1.1,0.4
		c0.9,0.8,1.9,1.2,2.7,2c0.2,0,0.3,0,0.5,0c0.4,0.7,1.6,1.3,2.4,1.6c0.2,0.2,0.4,0.4,0.5,0.6c0.7,0.3,1.8,0.8,2.6,1.1
		c0.4,0.4,1,1,1.9,0.9c1.6,0.9,3.3,1.6,4.8,2.5c1.4,0.3,2.7,0.9,3.8,1.5c1.5,0.4,3,0.9,4.5,1.3c1.6,0.7,3.7,1.2,5.3,1.5
		c0.8,0.6,2.5,0.4,3.4,0.8c0.2,0.1,0.4,0.3,0.7,0.3h1.2c0.1,0,0.6,0.2,1,0.3c0.4,0.1,1.1-0.2,1.2,0.3h1.1c0,0,0.9,0.3,1.3,0.4
		l3.9,0.1c0.1,0,0.1,0.2,0.3,0.2h4.9c0.2,0,0.2,0.2,0.4,0.2c0.2,0,0.3,0,0.4-0.2h4.7c0.2,0,0.2-0.2,0.3-0.2l4.1-0.1
		c0.4-0.1,1.1,0.1,1.2-0.4h1.3c0.1-0.1,0.1-0.1,0.1-0.3h1.2c0.2,0,0.6-0.2,0.9-0.4h1.2c0.2,0,0.5-0.3,0.7-0.3
		c1.1-0.3,2.6-0.3,3.6-0.8c1.1-0.2,2.4-0.6,3.4-0.9c0.6-0.2,1.6-0.2,1.9-0.6c4-1.1,31.5-11,31.5-11c0,0.1-2.2,2.5-3.1,3.4
		c-0.8,0.6-3.1,2.4-4.2,3.2c-0.7,0.3-1.5,0.9-2.1,1.5c-4.3,2.7-8.9,5.8-13.3,7.4c-0.8,0.7-2.3,1.1-3.3,1.8c-1.3,0.3-2.8,0.9-4,1.5
		c-0.6,0.1-1,0.4-1.5,0.6c-0.9,0.2-2,0.6-2.9,1c-1.7,0.5-3.9,0.8-5.5,1.5c-1.3,0.2-3.1,0.4-4.3,0.8h-1.3c-0.1,0-0.6,0.2-1,0.3
		c-0.3,0.1-1-0.2-1.1,0.3h-1.4c-0.2,0,0.1,0.2-0.2,0.2h-1.2c-0.2,0,0,0.2-0.2,0.2H147c-0.2,0,0.1,0.2-0.2,0.2h-2.4
		c-0.2,0,0.1,0.2-0.2,0.2h-2.8c-0.2,0,0,0.2-0.2,0.2h-12.6c-0.2,0,0.1-0.2-0.2-0.2h-2.9c-0.2,0,0.1-0.2-0.2-0.2h-2.1
		c-0.2,0,0.1-0.2-0.2-0.2h-1.5c-0.2,0,0.1-0.2-0.2-0.2h-1.2c-0.2,0,0-0.2-0.2-0.2h-1.6c-0.2-0.3-1.3-0.6-2-0.6h-1.2
		c-0.3,0-3.6-0.8-4.4-0.8c-1.5-0.7-3.6-1-5.3-1.5c-3.8-1.3-7.4-2.8-11-4.2c-1-0.6-2.5-1.5-3.8-1.8c-1.7-1-3.7-2.3-5.5-3.1
		c-0.5-0.6-1.5-1.2-2.3-1.5c-2-1.5-4.3-3-6.4-4.5c-1-0.8-1.5-1.8-2.7-2.2c-2.9-3.1-6.7-5.8-9.2-9.2c-0.5-0.1-0.8-1.2-1.4-1.4
		c-1.3-1.7-2.4-3.5-4-4.9c-0.1-0.8-0.7-1.6-1.5-2.1c0-0.2,0-0.4,0-0.6c-2.2-2.9-3.6-5.6-5.5-8.6c0-0.2,0-0.3-0.1-0.5
		c-0.7-0.9-1-2-1.4-3.1c-0.8-0.6-0.8-1.7-1.5-2.5c-0.7-2.1-1.7-4.3-2.3-6.5c-0.1-0.1-0.2-0.3-0.4-0.3c-0.5-2.1-1.1-4-1.7-5.9
		c-0.6-2.1-1-4.6-1.6-6.7v-1.3c-0.1-0.1-0.1-0.1-0.3-0.1v-1.3c0-0.2-0.2-0.3-0.4-0.4v-2.2c0,0,0-0.7-0.4-1v-1.9c0-0.2,0,0-0.2,0
		v-2.7c0-0.2-0.2-0.3-0.4-0.5v-12.8c0.2-0.1,0.4-0.2,0.4-0.4v-2.8c0-0.2,0.1,0,0.2-0.1v-2.1c0-0.1,0.4-0.7,0.4-0.9v-1.9
		c0-0.2,0.2-0.4,0.3-0.6c0.2-0.4-0.2-1.1,0.3-1.2v-1.3c0.2-0.1,0.4-0.2,0.4-0.4v-1.3c0-0.1,0.9-3.4,1.1-4.5c0-0.2,0.2-0.4,0.2-0.5
		c0.6-1.3,0.9-3.1,1.4-4.6c0.1-0.3,0.2-0.5,0.4-0.9c0.6-0.1,0.1-0.6,0.6-1c0.3-1.3,0.7-2.5,1.1-3.6c0.2-0.1,0.3-0.2,0.4-0.3
		C48.8,82.5,49.5,81.7,49.5,80.6L49.5,80.6z"/>
	<path class="st0" d="M219.7,112.5v-2.1c0-0.2-0.2,0.1-0.2-0.2v-1.6c-0.2-0.3-0.4-2.5-0.4-2.5c-0.5-2.4-2.2-9.3-2.8-10.6L207,79.8
		l2,21.8v1.1c0,0.2,0.2,0,0.2,0.3v1.7c0.1,0,0.2-0.2,0.2,0v1.4c0.1,0,0.2-0.2,0.2,0v2.5c0.1,0,0.2-0.2,0.2,0v6.5
		c-0.1,0.1-0.2-0.1-0.2,0.1v3.6c0,0.2-0.4,1-0.4,1.1v1.8c-0.1,0.1-0.2-0.1-0.2,0.1v1.3c-0.2,0.1-0.2,0.3-0.3,0.3v1.5
		c0,0.4-0.6,1.4-0.6,1.6v1.2c-0.5,0.3-0.5,1.3-0.7,2.2c-0.3,1.4-0.8,2.9-1.5,4c-0.6,2.5-1.7,4.7-2.6,6.9c0.4-2.5,0.6-5.1,0.6-7.7
		c0-2.6-0.2-5.2-0.6-7.7c0.5-1.7,0.9-3.6,0.9-4V120c0.1-0.1,0.1-0.1,0.3-0.1v-1.8c0-0.2,0.2-0.3,0.4-0.4v-2.4c0-0.2,0.2,0.1,0.2-0.2
		v-8.6c0-0.2-0.2,0.1-0.2-0.2v-2.1c-0.2-0.2-0.4-0.5-0.4-0.7v-1.6c-0.1,0-0.2,0-0.3-0.1v-1.2c-0.6-2.3-1.1-4.8-1.7-6.9
		c-0.8-1.6-1.2-3.9-2.1-5.3c-0.3-1.2-1-2.3-1.3-3.3c-0.2-0.5-0.9-0.9-0.8-1.5c-1.8-2.8-3.8-6-5.7-8.8c-0.6-0.8-1.2-1.6-1.9-2.2
		c-0.9-1-2.4-2.1-2.9-3.2c-0.8-0.1-1.4-1.2-1.9-1.7c-0.2-0.2-0.4-0.2-0.6-0.3c-0.6-0.6-1.2-1.1-1.8-1.7c-2.2-1.7-4.5-3.2-6.8-4.7
		c-4.4-2.4-8.9-4.7-14-5.7c-1.4-0.7-3.2-1-5.2-1.1c-0.3,0-0.6-0.3-0.8-0.3h-1.4c-0.1-0.1-0.1-0.1-0.1-0.3h-1.6c-0.2,0,0-0.2-0.2-0.2
		h-1.9c-0.2,0,0-0.2-0.2-0.2H147c-0.2,0-0.1-0.2-0.3-0.2h-3.9h0c-0.2,0,0,0.2-0.2,0.2h-4.3c-0.2,0,0,0.2-0.2,0.2h-1.9
		c-0.2,0,0,0.2-0.2,0.2h-1.4c0,0.1,0,0.2-0.1,0.3h-1.6c-2,0.4-4.1,0.9-5.9,1.2c-1.3,0.7-3.2,0.8-4.6,1.5c-1.4,0.7-3,1.3-4.3,1.8
		c-0.3,0.2-0.8,0.5-1.2,0.6c-0.5,0.4-1.3,0.3-1.4,0.9c-1.1,0.4-2.2,1.2-3.2,1.8V62c0,0,16.9-3.3,27.8-3.2c3,0,4.7-0.1,7.7,0.3
		c3.3,0.5,6.8,1.7,8.2,2.3c1.3,0.3,2.8,0.9,3.9,1.5c2.2,0.7,4.1,1.6,5.9,3c2.1,1.1,4,2.5,5.8,3.7c0,0.1,0,0.2,0,0.3
		c1.2,0.3,2,1.6,3.1,2.2v0.3c0.2,0,0.4,0,0.5,0.1c1.8,1.7,3.5,3.5,5.2,5.3c2.1,3,5.1,6,6.5,9.4c1,1.6,2,3.4,2.6,5
		c0.9,0.8,0.8,2.4,1.5,3.2c0.1,0.4,0.1,0.8,0.2,1.2c0.7,1.3,1.1,2.8,1.4,4.2c-9.3-11.4-23.5-18.7-39.3-18.7
		c-28,0-50.7,22.7-50.7,50.7c0,15.4,6.9,29.2,17.7,38.5c-0.8-0.4-15.2-4.1-15.2-4.1s3.9,3.1,3.9,3.6c1.9,1.1,3.4,2.6,5.6,3.6
		c0.2,0.1,0.3,0.3,0.5,0.6c1.9,0.9,3.8,1.8,5.7,3.1c2.4,1.1,5.1,1.9,7.4,3.1c1.8,0.5,3.5,0.9,5.2,1.5c0.8,0.1,4.3,0.8,4.6,0.8h1.1
		c0.2,0,0,0.2,0.2,0.2h1.2c0.2,0,0,0.2,0.2,0.2h1.2c0.1,0.1,0.1,0.1,0.1,0.3h2.2c0.2,0,0,0.2,0.2,0.2h3.3c0.2,0-0.1,0.2,0.2,0.2h8.6
		c0.2,0,0-0.2,0.2-0.2h3.2c0.2,0,0-0.2,0.2-0.2h2.2c0-0.1,0-0.2,0.1-0.3h1.1c0.2,0,0-0.2,0.2-0.2h1.2c0.2,0-0.1-0.2,0.2-0.2h1.2
		c1.4-0.4,3-0.7,4.5-0.8c1.6-0.6,3.3-1.2,5.2-1.5c1.2-0.6,2.7-1.2,4-1.5c0.7-0.5,1.8-1,2.7-1.2c0.6-0.4,1.2-0.9,1.9-1
		c3.7-2.3,7.7-4.2,10.9-7.2c0.4-0.1,0.5-0.3,0.9-0.4c0.2-0.4,0.2-0.4,0.7-0.8c2.2-1.6,4.2-3.7,6.2-5.6c0-0.3,0.2-0.5,0.3-0.8
		c1.9-1.6,3.3-4.1,5-5.8c0.5-1,1.3-2.3,2.1-3.1c1-2.2,2.1-4.1,3.4-6c0.5-1.5,1-3.1,1.9-4.4c0.5-1.9,1.3-4,1.9-5.7
		c0.2-0.8,0.5-2,0.7-2.7c0.1-0.4-0.1-0.9,0.4-1.3c0-0.3,0-0.7,0.1-1c0.1-0.5,0.5-1,0.5-1.4v-2c0.3-0.2,0.5-0.6,0.5-0.7v-1.6
		c0-0.2,0.2,0.1,0.2-0.2v-2.2c0-0.2,0.4-0.4,0.4-0.6v-10.8C219.9,113,219.7,112.7,219.7,112.5z M173.8,174.4
		c-11.4,0-20.7-9.2-20.7-20.7c0-11.4,9.3-20.7,20.7-20.7c11.4,0,20.7,9.3,20.7,20.7C194.5,165.2,185.3,174.4,173.8,174.4z"/>
	<path class="st1" d="M173.8,133.1c11.4,0,20.7,9.3,20.7,20.7c0,11.4-9.2,20.7-20.7,20.7c-11.4,0-20.7-9.2-20.7-20.7
		C153.2,142.3,162.4,133.1,173.8,133.1z"/>
</g>
</svg>
