<svg width="452" height="458" xmlns="http://www.w3.org/2000/svg"><g fill-rule="nonzero" fill="none"><rect fill="#6B489D" x=".125" width="450.965" height="457.5" rx="107.175"/><path d="M311.168 314.938a22.793 22.793 0 01-17.94-8.768l-96.45-103.87c-4.275-5.445-6.25-12.5-4.78-19.273a22.8 22.8 0 0122.292-18.08l43.66-.014c23.325 0 31.598-14.638 31.593-27.163 0-12.57-8.31-26-31.61-26h-96.75v179.62c0 12.543-9.803 23.305-22.343 23.54-12.778.25-23.28-10.045-23.285-22.77V89.047c-.007-12.586 10.183-22.8 22.77-22.822H257.92c50.655-.015 77.17 35.975 77.183 71.535 0 18.968-7.14 36.782-20.123 50.165-9.62 9.917-26.678 21.67-53.885 22.522l67.967 67.593a22.847 22.847 0 01-17.894 36.902v-.005zM140.143 391.868c-17.31 0-24.553-9.075-24.553-29.666 0-20.59 7.015-29.5 24.553-29.5 17.464 0 24.402 8.923 24.402 29.5 0 20.898-6.938 29.666-24.402 29.666zm-.076-49.5c-9.75 0-13.42 4.042-13.42 19.827 0 15.785 3.66 19.98 13.5 19.98s13.423-4.27 13.423-19.98c-.005-15.853-3.512-19.82-13.502-19.82v-.007zM176.512 390.8v-38.5h-6.262v-7.398h6.178v-1.982c0-7.25 4.65-12.965 15.48-12.965 2.404.005 4.794.365 7.092 1.07l-.61 6.405a21.662 21.662 0 00-4.652-.535c-5.416 0-7.55 2.365-7.55 6.25v1.75h10.675v7.398h-10.675v38.5l-9.675.007zM210.225 390.8v-38.5h-6.25v-7.398h6.175v-1.982c0-7.25 4.65-12.965 15.48-12.965 2.404.005 4.794.365 7.093 1.07l-.61 6.405a21.662 21.662 0 00-4.653-.535c-5.415 0-7.55 2.365-7.55 6.25v1.75h10.675v7.398H219.91v38.5l-9.685.007zM245.572 338.793c-3.887 0-5.794-1.143-5.794-4.5 0-2.973 1.907-4.65 5.794-4.65 3.965 0 5.796 1.677 5.796 4.65 0 3.05-1.83 4.5-5.796 4.5zm-4.957 52v-45.596l9.84-.532V390.8l-9.84-.007zM291.705 354.808a22.392 22.392 0 00-8.465-1.75c-9.225 0-12.43 4.117-12.43 14.717 0 11.21 4.348 15.48 12.202 15.48 3.278 0 6.48-.75 9-2.135l.688 7.78c-2.67 1.75-6.865 2.898-11.75 2.898-13.267 0-20.207-7.628-20.207-24.023 0-15.327 6.177-23.563 20.437-23.563 3.965 0 8.16.838 11.132 2.058l-.607 8.538zM297.42 367c0-14.565 6.405-22.877 19.675-22.877 11.285 0 18.53 6.635 18.53 21.277a46.355 46.355 0 01-.228 4.65h-27.912c.457 9.61 4.5 12.965 13.27 12.965a30.32 30.32 0 0012.353-2.517l1.144 8c-3.89 1.907-8.922 3.127-14.642 3.127-15.48.015-22.19-8.145-22.19-24.625zm29.282-3.5c-.152-8.082-3.812-11.132-9.532-11.132-6.635 0-9.455 3.355-9.913 11.132h19.445z" fill="#FFF"/></g></svg>