<?xml version="1.0" encoding="UTF-8"?>
<svg width="258px" height="60px" viewBox="0 0 258 60" version="1.1" xmlns="http://www.w3.org/2000/svg" xmlns:xlink="http://www.w3.org/1999/xlink">
    <title>258x60_rainbow@3x</title>
    <g id="258x60_rainbow" stroke="none" stroke-width="1" fill="none" fill-rule="evenodd">
        <g id="rainbow_office-strategic-logo-(1)-copy">
            <path d="M7.44075012,1.90373879 C9.66063977,1.90373879 11.4877219,2.19089164 12.922035,2.7652204 C14.3563481,3.33952993 15.4287642,4.20541733 16.1393026,5.36730566 C16.849841,6.529194 17.2073002,7.99591024 17.2073002,9.76745438 C17.2073002,11.0662855 16.9954604,12.1751736 16.5718,13.0984843 C16.1481204,14.0218142 15.5876393,14.7905089 14.8903373,15.4001647 C14.1930546,16.0142436 13.4207336,16.5046298 12.5733744,16.880131 L19.7537193,28.635861 L14.0650708,28.635861 L8.26603583,18.0773656 L5.01345843,18.0773656 L5.01345843,28.635861 L0,28.635861 L0,1.90373879 L7.44075012,1.90373879 Z M7.22009248,5.91069202 L5.01345843,5.91069202 L5.01345843,14.14993 L7.29513068,14.14993 C8.39401957,14.14993 9.29432426,13.9864679 10.0048626,13.6639669 C10.715401,13.3414658 11.2449908,12.8643489 11.5936322,12.2414239 C11.9422928,11.618518 12.1188228,10.8454001 12.1188228,9.92207026 C12.1188228,8.9501633 11.9422928,8.16819926 11.5936322,7.58063968 C11.2449908,6.99306088 10.7065639,6.56896336 9.9872077,6.30830868 C9.26343296,6.03880782 8.34107403,5.91069202 7.22009248,5.91069202 Z" id="Shape" fill="#6B489D" fill-rule="nonzero"></path>
            <path d="M30.5969888,7.96966016 C33.0419738,7.96966016 34.9088996,8.53956583 36.2064111,9.67495409 C37.5039226,10.8103231 38.1524863,12.5906942 38.1524863,15.0116635 L38.1524863,28.6406687 L34.6749095,28.6406687 L33.7039852,25.830852 L33.5539472,25.830852 C33.0066256,26.5554697 32.4462405,27.160664 31.8724076,27.6466271 C31.2987669,28.1325902 30.6455926,28.4816297 29.9086584,28.6935535 C29.171532,28.9056696 28.2668856,29.0116314 27.1989456,29.0116314 C26.0779833,29.0116314 25.0672921,28.7864384 24.1668722,28.3358601 C23.2710629,27.8850894 22.5604477,27.1916256 22.0354108,26.2595072 C21.5101818,25.3271966 21.2498727,24.1433466 21.2498727,22.7208421 C21.2498727,20.6223738 21.9735514,19.045138 23.4211008,17.9848653 C24.8686503,16.9245735 27.0489077,16.3458409 29.9659072,16.2442444 L33.1831747,16.1337825 L33.1831747,15.1221062 C33.1831747,13.8232751 32.9140285,12.8999452 32.3799625,12.3521357 C31.8460885,11.8043263 31.091288,11.5304216 30.1159451,11.5304216 C29.2201358,11.5304216 28.3154894,11.6806336 27.4062324,11.9810384 C26.4971675,12.2814624 25.6055846,12.6304636 24.7318679,13.028061 L23.2003663,9.73237735 C24.1978019,9.20666412 25.3276013,8.78254738 26.585346,8.46004635 C27.8344458,8.12871836 29.171532,7.96966016 30.5969888,7.96966016 Z M31.082451,19.1246575 C29.3127329,19.1997538 28.0770808,19.5531396 27.3797212,20.1937186 C26.6825537,20.8298745 26.3338739,21.6869926 26.3338739,22.7604576 C26.3338739,23.7102683 26.576509,24.3950782 27.0619711,24.8193103 C27.5474333,25.2433501 28.1917705,25.4554662 28.9861457,25.4554662 C30.1601305,25.4554662 31.157566,25.0621957 31.9784524,24.275847 C32.7993388,23.4894984 33.2141045,22.3231485 33.2141045,20.7769897 L33.2141045,19.0539649 L31.082451,19.1246575 Z" id="Shape" fill="#6B489D" fill-rule="nonzero"></path>
            <path d="M45.9686771,0.516874734 C46.6923558,0.516874734 47.3146004,0.698006083 47.8398293,1.06026686 C48.3650583,1.42252764 48.6253675,2.06752586 48.6253675,2.98643265 C48.6253675,3.88324322 48.3650583,4.52824528 47.8398293,4.9126119 C47.3146004,5.30136315 46.6923558,5.49134452 45.9686771,5.49134452 C45.1963946,5.49134452 44.5476388,5.29695929 44.0224099,4.9126119 C43.4971809,4.52384142 43.2368717,3.88324322 43.2368717,2.98643265 C43.2368717,2.06310277 43.4971809,1.42252764 44.0224099,1.06026686 C44.5476388,0.698006083 45.1963946,0.516874734 45.9686771,0.516874734 Z M48.4004066,8.34083443 L48.4004066,28.6362456 L43.4618326,28.6362456 L43.4618326,8.34083443 L48.4004066,8.34083443 Z" id="Shape" fill="#6B489D" fill-rule="nonzero"></path>
            <path d="M64.4469776,7.96966016 C66.5653755,7.96966016 68.2378859,8.55723897 69.4604745,9.72795426 C70.6828709,10.9030926 71.2918599,12.7983487 71.2918599,15.4181071 L71.2918599,28.6362456 L66.3181298,28.6362456 L66.3181298,16.354687 C66.3181298,14.8305283 66.0578207,13.6907362 65.5325917,12.9308684 C65.0073627,12.1710005 64.1864763,11.7910763 63.065514,11.7910763 C61.3930036,11.7910763 60.2587857,12.3830589 59.6628602,13.5714666 C59.0627083,14.7554319 58.7670509,16.4739566 58.7670509,18.7182138 L58.7670509,28.6406687 L53.7933208,28.6406687 L53.7933208,8.3407575 L57.6063218,8.3407575 L58.316937,11.0002853 L58.5418979,11.0002853 C58.9391815,10.302283 59.4467364,9.72795426 60.0557253,9.27733743 C60.6647143,8.8267206 61.3443998,8.49539261 62.0945896,8.28333424 C62.8361346,8.07569896 63.6216727,7.96966016 64.4469776,7.96966016 Z" id="Path" fill="#6B489D" fill-rule="nonzero"></path>
            <path d="M81.5395881,6.9183491 C81.5395881,7.71796704 81.5130769,8.49108491 81.464473,9.23770268 C81.4160613,9.98432046 81.3630389,10.57188 81.3144351,10.9959968 L81.5395881,10.9959968 C82.0383059,10.1477633 82.7222178,9.43208792 83.5961265,8.84450912 C84.4700353,8.25694954 85.6173167,7.96537168 87.0385471,7.96537168 C89.2097753,7.96537168 90.9662378,8.8533553 92.3123531,10.6248994 C93.6584685,12.3964436 94.3335433,15.007375 94.3335433,18.4488476 C94.3335433,20.7681435 94.0202118,22.716419 93.3979672,24.2891163 C92.7757226,25.862006 91.9062324,27.0414328 90.7985257,27.8277815 C89.6908189,28.6143225 88.3844704,29.0074007 86.8885091,29.0074007 C85.4937899,29.0074007 84.3772461,28.7335536 83.5431041,28.1856673 C82.7091543,27.6379732 82.0427244,27.0018173 81.5440066,26.2771996 L81.1688156,26.2771996 L80.3479292,28.6362456 L76.5702765,28.6362456 L76.5702765,0.181181158 L81.5440066,0.181181158 L81.5440066,6.9183491 L81.5395881,6.9183491 Z M85.502627,11.7867878 C84.5317026,11.7867878 83.7550016,12.0120962 83.1857794,12.462713 C82.6119466,12.9133299 82.1927624,13.598082 81.9322611,14.5214119 C81.6719519,15.4447226 81.5395881,16.6198802 81.5395881,18.042404 L81.5395881,18.4532707 C81.5395881,20.6267969 81.8264084,22.283533 82.4000491,23.4321905 C82.973882,24.580848 84.0329849,25.1550806 85.577742,25.1550806 C86.7736273,25.1550806 87.6917214,24.5764249 88.3272216,23.4144981 C88.9627217,22.2525713 89.2804718,20.5869891 89.2804718,18.4179244 C89.2804718,16.2222635 88.9627217,14.5700082 88.3272216,13.4567162 C87.6917214,12.3434242 86.7471161,11.7867878 85.502627,11.7867878 Z" id="Shape" fill="#6B489D" fill-rule="nonzero"></path>
            <path d="M116.135156,18.4531361 C116.135156,20.14968 115.923259,21.6471848 115.499656,22.9460351 C115.075861,24.2448854 114.458035,25.349312 113.650404,26.2595072 C112.838355,27.1695102 111.858594,27.8587431 110.715539,28.3181677 C109.568065,28.7775922 108.283809,29.0116314 106.862771,29.0116314 C105.538748,29.0116314 104.32077,28.7820153 103.195389,28.3181677 C102.074427,27.8587431 101.099084,27.1695102 100.278198,26.2595072 C99.4528928,25.349312 98.8173927,24.2448854 98.3716973,22.9460351 C97.9215833,21.6471848 97.6964303,20.14968 97.6964303,18.4531361 C97.6964303,16.2088981 98.0716213,14.3092382 98.8173927,12.7630024 C99.5677747,11.2167667 100.631296,10.0283783 102.016986,9.20666412 C103.402868,8.38494995 105.053478,7.96966016 106.973234,7.96966016 C108.742952,7.96966016 110.322866,8.38052686 111.704137,9.20666412 C113.090019,10.0283783 114.171215,11.2167667 114.956753,12.7630024 C115.742291,14.3092382 116.135156,16.204475 116.135156,18.4531361 Z M102.745275,18.4531361 C102.745275,19.8756406 102.890895,21.0950676 103.173297,22.1021862 C103.460117,23.1139202 103.910423,23.8825765 104.519412,24.4039244 C105.128401,24.9296953 105.922776,25.190273 106.893701,25.190273 C107.891136,25.190273 108.694348,24.9296953 109.307756,24.4039244 C109.916745,23.8781535 110.366859,23.1139202 110.653871,22.1021862 C110.940692,21.0906445 111.081893,19.8756406 111.081893,18.4531361 C111.081893,17.004093 110.936273,15.7892045 110.653871,14.8040282 C110.366859,13.818852 109.916745,13.0678303 109.307756,12.559771 C108.698767,12.0473078 107.891136,11.7910763 106.893701,11.7910763 C105.424058,11.7910763 104.360537,12.3653858 103.7162,13.5140241 C103.067444,14.6582393 102.745275,16.3060907 102.745275,18.4531361 Z" id="Shape" fill="#6B489D" fill-rule="nonzero"></path>
            <path d="M133.739548,17.6271911 C133.541098,16.7303805 133.342456,15.8158968 133.139396,14.892567 C132.940754,13.9692371 132.790716,13.1696191 132.689282,12.498117 L132.579011,12.498117 C132.503896,13.1740422 132.371532,13.9824871 132.186146,14.9323171 C132.00076,15.8821471 131.793281,16.818727 131.56832,17.7420569 L128.836514,28.6364379 L123.112402,28.6364379 L118.099098,8.30560354 L122.997713,8.30560354 L125.204289,18.8641758 C125.328008,19.5400626 125.451535,20.2116032 125.57948,20.8875669 C125.703007,21.5635307 125.817889,22.2041096 125.914904,22.813727 C126.016338,23.4233443 126.087035,23.9668076 126.140057,24.4439245 L126.290095,24.4439245 C126.338507,23.9933461 126.426878,23.4321905 126.550404,22.7606499 C126.673931,22.0846862 126.806295,21.417761 126.943269,20.7594896 C127.080052,20.0967952 127.185904,19.5798704 127.26102,19.20435 L129.953058,8.31002663 L135.376902,8.31002663 L137.994018,19.20435 C138.091033,19.6285245 138.205915,20.1585261 138.329442,20.794682 C138.452969,21.4308379 138.572077,22.07584 138.68254,22.7208421 C138.792812,23.3702672 138.863316,23.9314229 138.889827,24.4041167 L139.00029,24.4041167 C139.075213,23.7546915 139.207577,22.9241119 139.392963,21.9123779 C139.57835,20.9008362 139.785829,19.8846791 140.010789,18.8597528 L142.367596,8.30118045 L147.15594,8.30118045 L142.032172,28.6320148 L136.272904,28.6320148 L133.739548,17.6271911 Z" id="Path" fill="#6B489D" fill-rule="nonzero"></path>
            <path d="M182.916655,15.2326642 C182.916655,17.3046132 182.673828,19.1821961 182.188366,20.8698746 C181.702904,22.55738 180.974807,24.0108462 179.999464,25.2302732 C179.02854,26.4539309 177.792695,27.3904724 176.296734,28.0398976 C174.800581,28.6893227 173.044118,29.0118238 171.022928,29.0118238 C168.979453,29.0118238 167.209735,28.6804765 165.713774,28.0177821 C164.217621,27.3550877 162.981776,26.4185462 162.011044,25.2081577 C161.04012,23.9975769 160.307412,22.5441107 159.82195,20.8477591 C159.336488,19.1512729 159.093852,17.264863 159.093852,15.1929141 C159.093852,12.4229437 159.521874,10.0152244 160.382527,7.96537168 C161.242988,5.91992282 162.558174,4.32949465 164.327892,3.18970253 C166.09761,2.05433351 168.343953,1.48442591 171.058084,1.48442591 C173.750315,1.48442591 175.970147,2.05433351 177.717772,3.18970253 C179.460979,4.32509079 180.767328,5.92432668 181.627981,7.98302559 C182.488442,10.0461476 182.916655,12.4626938 182.916655,15.2326642 Z M164.403007,15.2326642 C164.403007,17.2560168 164.627968,18.9878109 165.078082,20.4367963 C165.528388,21.8858394 166.243229,22.9946891 167.227409,23.7679608 C168.211589,24.5410402 169.478171,24.9296953 171.022928,24.9296953 C172.567493,24.9296953 173.829656,24.5410402 174.800581,23.7679608 C175.771505,22.9946891 176.48212,21.8814163 176.932234,20.4367963 C177.382348,18.9878109 177.607501,17.2560168 177.607501,15.2326642 C177.607501,12.2108853 177.095528,9.84293539 176.071581,8.11998756 C175.047634,6.39703973 173.379543,5.5355562 171.058084,5.5355562 C169.487008,5.5355562 168.207171,5.92432668 167.222991,6.69744454 C166.238811,7.47056241 165.519551,8.58385444 165.073663,10.0284745 C164.627968,11.4775176 164.403007,13.2093116 164.403007,15.2326642 Z" id="Shape" fill="#6B489D" fill-rule="nonzero"></path>
            <path d="M197.550641,11.9015958 L193.06295,11.9015958 L193.06295,28.6362456 L188.088835,28.6362456 L188.088835,11.9015958 L185.171836,11.9015958 L185.171836,9.65733865 L188.128602,8.30991125 L188.128602,6.9227145 C188.128602,5.17767044 188.375848,3.80374296 188.878792,2.80531668 C189.37751,1.80688656 190.114636,1.09119965 191.08556,0.653836711 C192.056485,0.216471848 193.243533,0 194.638252,0 C195.560381,0 196.403744,0.0795202549 197.162579,0.242979625 C197.921414,0.406437841 198.601483,0.587569191 199.200867,0.786369828 L198.005942,4.30737919 C197.631327,4.18366726 197.220212,4.06439764 196.770674,3.94953189 C196.319215,3.83908923 195.835098,3.78164674 195.308716,3.78164674 C194.536434,3.78164674 193.967788,4.0688015 193.6047,4.64313027 C193.243533,5.2174398 193.06295,6.01705775 193.06295,7.03758025 L193.06295,8.34968061 L197.550641,8.34968061 L197.550641,11.9015958 Z M210.239512,11.9015958 L205.749899,11.9015958 L205.749899,28.6362456 L200.776169,28.6362456 L200.776169,11.9015958 L197.859938,11.9015958 L197.859938,9.65733865 L200.816513,8.30991125 L200.816513,6.9227145 C200.816513,5.17767044 201.064335,3.80374296 201.567663,2.80531668 C202.065228,1.80688656 202.802931,1.09119965 203.773087,0.653836711 C204.745164,0.216471848 205.932404,0 207.327123,0 C208.249252,0 209.090694,0.0795202549 209.85145,0.242979625 C210.610285,0.406437841 211.290354,0.587569191 211.889738,0.786369828 L210.692892,4.30737919 C210.318277,4.18366726 209.907162,4.06439764 209.457624,3.94953189 C209.008086,3.83908923 208.522048,3.78164674 208.00143,3.78164674 C207.229147,3.78164674 206.660501,4.0688015 206.297413,4.64313027 C205.936246,5.2174398 205.755663,6.01705775 205.755663,7.03758025 L205.755663,8.34968061 L210.243354,8.34968061 L210.243354,11.9015958 L210.239512,11.9015958 Z M215.778046,0.516884349 C216.502301,0.516884349 217.122816,0.698013776 217.649198,1.06027455 C218.173659,1.42253533 218.434928,2.06754509 218.434928,2.98645188 C218.434928,3.88326245 218.173659,4.52826451 217.649198,4.9126119 C217.122816,5.30138238 216.502301,5.49134452 215.778046,5.49134452 C215.005763,5.49134452 214.356431,5.29695929 213.831971,4.9126119 C213.305589,4.52384142 213.04624,3.88326245 213.04624,2.98645188 C213.04624,2.063122 213.305589,1.42253533 213.831971,1.06027455 C214.356431,0.698013776 215.001921,0.516884349 215.778046,0.516884349 Z M218.210159,8.34083443 L218.210159,28.6362456 L213.271009,28.6362456 L213.271009,8.34083443 L218.210159,8.34083443 Z" id="Shape" fill="#6B489D" fill-rule="nonzero"></path>
            <path d="M231.675155,29.0116314 C229.802082,29.0116314 228.188357,28.6450918 226.83206,27.9072048 C225.473842,27.1695102 224.426842,26.0341219 223.69106,24.5010401 C222.953357,22.9681505 222.586427,21.0021827 222.586427,18.6033481 C222.586427,16.1072824 222.993701,14.0795067 223.800563,12.5200209 C224.609346,10.9605351 225.725506,9.81189683 227.147121,9.07412524 C228.566814,8.33635364 230.19975,7.96966016 232.044007,7.96966016 C233.192825,7.96966016 234.268641,8.09337209 235.27914,8.34518059 C236.289639,8.59698909 237.133003,8.89299004 237.803467,9.24199116 L236.30885,12.8734451 C235.632623,12.5995404 234.962159,12.3609819 234.287852,12.1621736 C233.611625,11.9633653 232.927713,11.8617688 232.230353,11.8617688 C231.233302,11.8617688 230.399544,12.1135773 229.723317,12.6083673 C229.04901,13.1075805 228.532234,13.8497752 228.169146,14.8349514 C227.807979,15.8201276 227.627396,17.0615355 227.627396,18.5591749 C227.627396,20.0081411 227.807979,21.2187219 228.169146,22.190648 C228.532234,23.1625742 229.04901,23.8958458 229.723317,24.3818089 C230.399544,24.867772 231.219854,25.1108497 232.19001,25.1108497 C233.162087,25.1108497 234.066926,24.9739262 234.900684,24.6998869 C235.734441,24.4260398 236.529777,24.0504617 237.275164,23.5777679 L237.275164,27.6598963 C236.502882,28.1325902 235.676808,28.4772067 234.808471,28.6891304 C233.942054,28.9056696 232.893133,29.0116314 231.675155,29.0116314 Z" id="Path" fill="#6B489D" fill-rule="nonzero"></path>
            <path d="M249.512577,7.96966016 C251.255015,7.96966016 252.761158,8.33635364 254.017558,9.07412524 C255.275879,9.81189683 256.25564,10.8589194 256.953,12.2195969 C257.65036,13.5802935 258,15.2325488 258,17.1808051 L258,19.575255 L245.580083,19.575255 C245.628111,21.4219917 246.083412,22.8533425 246.944065,23.8604611 C247.804718,24.8721951 249.018854,25.3758506 250.588393,25.3758506 C251.812134,25.3758506 252.914846,25.2433501 253.89845,24.9825801 C254.883974,24.7220023 255.898316,24.3420011 256.949158,23.842961 L256.949158,27.6245116 C256.000134,28.0972054 255.01653,28.446245 253.992584,28.6716304 C252.968637,28.8968234 251.710316,29.0074007 250.213778,29.0074007 C248.321494,29.0074007 246.644373,28.6273994 245.182415,27.8675893 C243.726221,27.1075869 242.583166,25.9500832 241.762856,24.4039244 C240.942546,22.8577656 240.527588,20.9360286 240.527588,18.6386944 C240.527588,16.3193408 240.902203,14.3666614 241.64759,12.7806756 C242.39874,11.1946705 243.447661,9.99745512 244.807801,9.1845679 C246.175624,8.37610377 247.743243,7.96966016 249.512577,7.96966016 Z M249.587499,11.4509021 C248.48863,11.4509021 247.593397,11.8573457 246.896037,12.6658098 C246.198678,13.4786778 245.787562,14.6803355 245.658848,16.2795714 L253.289461,16.2795714 C253.289461,15.3297414 253.153063,14.4947772 252.880266,13.7702557 C252.605549,13.0457341 252.196354,12.4802515 251.643077,12.064981 C251.097485,11.6541335 250.413573,11.4509021 249.587499,11.4509021 Z" id="Shape" fill="#6B489D" fill-rule="nonzero"></path>
            <path d="M47.861922,44.1886032 C49.1064111,44.1886032 50.1082652,44.6524508 50.8672921,45.5759153 C51.6219005,46.4991875 52.0015101,47.8951535 52.0015101,49.7595826 C52.0015101,50.9788172 51.8293794,52.0082436 51.4806996,52.8474771 C51.1320198,53.6869028 50.6465577,54.3142125 50.0243131,54.7384447 C49.4020685,55.1624845 48.6739713,55.3701775 47.8442479,55.3701775 C47.3234374,55.3701775 46.8644864,55.2949849 46.4672028,55.1492152 C46.0701112,55.0034455 45.734687,54.8090218 45.4522852,54.5749826 C45.1696913,54.3407511 44.9314748,54.0801733 44.7284144,53.8019032 L44.6093062,53.8019032 C44.6358174,54.0315193 44.6623286,54.3186356 44.6886476,54.6676752 C44.7151588,55.0167148 44.7284144,55.3171004 44.7284144,55.5734474 L44.7284144,60 L42.980789,60 L42.980789,44.3918731 L44.4062458,44.3918731 L44.649073,45.8586085 L44.7284144,45.8586085 C44.9314748,45.5493768 45.1696913,45.2711066 45.4522852,45.0147597 C45.734687,44.758605 46.0701112,44.5597582 46.4672028,44.4095654 C46.8600679,44.2593726 47.327856,44.1886032 47.861922,44.1886032 Z M47.5220793,45.673031 C46.8512308,45.673031 46.3127463,45.8099545 45.9023991,46.0838016 C45.4918599,46.3578409 45.1962025,46.7730345 45.0063977,47.3209209 C44.8212036,47.8730381 44.7239959,48.5666941 44.7239959,49.4149661 L44.7239959,49.7551595 C44.7239959,50.6386238 44.807948,51.3897801 44.9756601,52.0082436 C45.1433722,52.6267071 45.4346111,53.0949779 45.8493768,53.4174789 C46.2643345,53.7399799 46.8335567,53.8990189 47.5574275,53.8990189 C48.1619979,53.8990189 48.6562972,53.7178645 49.0445517,53.3555556 C49.4329983,52.9934391 49.7198186,52.4986298 49.9096234,51.8757432 C50.0994281,51.2526643 50.1920252,50.5370851 50.1920252,49.733044 C50.1920252,48.5005401 49.9759014,47.5153446 49.5388509,46.7774576 C49.1064111,46.044186 48.4311442,45.673031 47.5220793,45.673031 Z" id="Shape" fill="#222222" fill-rule="nonzero"></path>
            <path d="M63.4760533,49.7595826 C63.4760533,50.6563162 63.36559,51.4515111 63.1450476,52.1451671 C62.9243131,52.8344001 62.606563,53.421902 62.1917973,53.903442 C61.7768396,54.384982 61.2738954,54.7517139 60.686807,54.9990224 C60.0954921,55.2465232 59.4423178,55.3701775 58.718447,55.3701775 C58.0477907,55.3701775 57.4297726,55.2465232 56.8605504,54.9990224 C56.2911361,54.7517139 55.797029,54.384982 55.3732342,53.903442 C54.9496314,53.421902 54.6274628,52.8344001 54.3978913,52.1451671 C54.1685118,51.4559342 54.0580485,50.6607393 54.0580485,49.7595826 C54.0580485,48.5666941 54.2478533,47.5549601 54.6318813,46.7332267 C55.0112988,45.9072625 55.5586204,45.2797605 56.2692356,44.8424514 C56.9796587,44.4051423 57.8182192,44.1886032 58.7803065,44.1886032 C59.702627,44.1886032 60.5190948,44.4051423 61.220873,44.8424514 C61.922459,45.2797605 62.4786177,45.9072625 62.8803199,46.7332267 C63.2729929,47.5549601 63.4760533,48.5666941 63.4760533,49.7595826 Z M55.8586963,49.7595826 C55.8586963,50.6032391 55.9603226,51.336703 56.1587723,51.9640127 C56.3618326,52.5868993 56.6751642,53.0684393 57.1031855,53.3997865 C57.5313988,53.7355568 58.0785283,53.903442 58.7493768,53.903442 C59.4202252,53.903442 59.9675468,53.7355568 60.3955681,53.3997865 C60.8235893,53.0640162 61.1413394,52.5868993 61.3488183,51.9640127 C61.5562972,51.3411261 61.6621498,50.6076622 61.6621498,49.7595826 C61.6621498,48.9024644 61.5562972,48.1691928 61.3488183,47.5682294 C61.1413394,46.9630351 60.8235893,46.4991875 60.3955681,46.1722634 C59.9675468,45.8453392 59.4113881,45.6774541 58.7272841,45.6774541 C57.7212036,45.6774541 56.9929143,46.0397629 56.5383818,46.7641883 C56.0882679,47.484383 55.8586963,48.4828477 55.8586963,49.7595826 Z" id="Shape" fill="#222222" fill-rule="nonzero"></path>
            <path d="M72.3158066,49.0747727 C72.1701872,48.5268863 72.0243756,47.9836153 71.8831747,47.4534213 C71.7419738,46.9232273 71.6449582,46.5124568 71.5919358,46.2164943 L71.5125944,46.2164943 C71.459572,46.5124568 71.3669749,46.9232273 71.243256,47.4534213 C71.1153107,47.9836153 70.9696913,48.5313094 70.8108162,49.092465 L69.0631908,55.1447921 L67.0948309,55.1447921 L64.3011661,44.3653345 L66.1106509,44.3653345 L67.4965331,50.1174683 C67.5891301,50.5061234 67.6817272,50.8993939 67.7700978,51.2924721 C67.8582764,51.6901657 67.9333914,52.0655515 67.9994773,52.4190142 C68.0657553,52.7724768 68.1143591,53.0817086 68.1408703,53.3336325 L68.2202118,53.3336325 C68.2599786,53.1038241 68.3172274,52.8255539 68.3923424,52.4897836 C68.4674574,52.1540133 68.5467989,51.8049737 68.6349774,51.4338187 C68.7233481,51.0672791 68.8071081,50.7359318 68.8866416,50.4397771 L70.6342671,44.3653345 L72.5628602,44.3653345 L74.2488183,50.4397771 C74.3414154,50.7492011 74.4340124,51.0761252 74.5179645,51.4249725 C74.6061431,51.7740121 74.6856766,52.1142055 74.7605996,52.4411296 C74.8357146,52.7724768 74.8843185,53.0640162 74.9106375,53.3159401 L74.972497,53.3159401 C75.0122638,52.9801698 75.1004423,52.5163222 75.2328061,51.928628 C75.3653621,51.3411261 75.506563,50.7359318 75.656601,50.1174683 L77.0643837,44.3653345 L78.8341018,44.3653345 L76.0229549,55.1447921 L73.9927356,55.1447921 L72.3158066,49.0747727 Z" id="Path" fill="#222222" fill-rule="nonzero"></path>
            <path d="M84.7745298,44.1886032 C85.6438279,44.1886032 86.3942099,44.3918731 87.0252915,44.7939897 C87.6563731,45.1959141 88.1418353,45.7614928 88.4816781,46.4947644 C88.8213287,47.2236129 88.9934593,48.080731 88.9934593,49.0570803 L88.9934593,50.1216991 L82.0822991,50.1216991 C82.1088103,51.3411261 82.3956306,52.2732445 82.9473708,52.9094004 C83.4946924,53.5455562 84.2669749,53.8636342 85.259992,53.8636342 C85.9043292,53.8636342 86.4735514,53.8019032 86.9766877,53.6736336 C87.479824,53.5455562 87.9962159,53.3599787 88.5345083,53.1215164 L88.5345083,54.6720983 C88.01389,54.915176 87.5019166,55.0919073 86.9987803,55.2067154 C86.495644,55.3215235 85.8910736,55.3790237 85.1804584,55.3790237 C84.2139526,55.3790237 83.366555,55.1713307 82.6296207,54.756137 C81.8926864,54.3407511 81.3144351,53.7222876 80.8996694,52.8961311 C80.4847116,52.0699746 80.2774248,51.062856 80.2774248,49.8699675 C80.2774248,48.6903484 80.462619,47.6788067 80.8378099,46.8305347 C81.2130009,45.9822628 81.7380378,45.3372607 82.4133047,44.8778361 C83.0885717,44.4139885 83.8785283,44.1886032 84.7745298,44.1886032 Z M84.7745298,45.6332232 C83.9976366,45.6332232 83.3798106,45.9072625 82.9252781,46.4461104 C82.4707457,46.9895737 82.2015994,47.7449607 82.1220659,48.7080407 L87.1841666,48.7080407 C87.1841666,48.0895772 87.0957959,47.5549601 86.9236653,47.0999587 C86.7515346,46.6449572 86.486807,46.2870714 86.1292901,46.0220706 C85.7761918,45.7657236 85.3216593,45.6332232 84.7745298,45.6332232 Z" id="Shape" fill="#222222" fill-rule="nonzero"></path>
            <path d="M96.3284144,44.1886032 C96.5138007,44.1886032 96.716861,44.1974494 96.933177,44.2195648 C97.1493008,44.2416803 97.334687,44.2682188 97.4935621,44.3124497 L97.2905017,45.9424549 C97.1316267,45.9028394 96.9508511,45.8674547 96.7566278,45.8409162 C96.5624045,45.8143776 96.3770183,45.8011083 96.2048876,45.8011083 C95.8166332,45.8011083 95.4458607,45.8895702 95.1015994,46.0618784 C94.7529196,46.2386097 94.4395881,46.4814951 94.1660233,46.79515 C93.8922665,47.1088048 93.6717241,47.4888061 93.512849,47.9305382 C93.353974,48.3722704 93.2700219,48.8715028 93.2700219,49.4193892 L93.2700219,55.1713307 L91.5223965,55.1713307 L91.5223965,44.3918731 L92.9478533,44.3918731 L93.1509136,46.362264 L93.2304472,46.362264 C93.4465711,45.9601473 93.7026538,45.5936077 94.0027298,45.2666835 C94.3028057,44.9397594 94.647067,44.6745663 95.0353214,44.4801426 C95.4326051,44.2859112 95.8606264,44.1886032 96.3284144,44.1886032 Z" id="Path" fill="#222222" fill-rule="nonzero"></path>
            <path d="M102.939499,44.1886032 C103.808797,44.1886032 104.559179,44.3918731 105.19026,44.7939897 C105.821342,45.1959141 106.306804,45.7614928 106.646647,46.4947644 C106.986298,47.2236129 107.158428,48.080731 107.158428,49.0570803 L107.158428,50.1216991 L100.247268,50.1216991 C100.273779,51.3411261 100.5606,52.2732445 101.11234,52.9094004 C101.659661,53.5455562 102.431944,53.8636342 103.424961,53.8636342 C104.069298,53.8636342 104.63852,53.8019032 105.141657,53.6736336 C105.644793,53.5455562 106.161185,53.3599787 106.699477,53.1215164 L106.699477,54.6720983 C106.178667,54.915176 105.666886,55.0919073 105.163749,55.2067154 C104.660613,55.3215235 104.056043,55.3790237 103.345427,55.3790237 C102.378922,55.3790237 101.531524,55.1713307 100.79459,54.756137 C100.057655,54.3407511 99.479404,53.7222876 99.0646383,52.8961311 C98.6496806,52.0699746 98.4423938,51.062856 98.4423938,49.8699675 C98.4423938,48.6903484 98.6275879,47.6788067 99.0027789,46.8305347 C99.3779699,45.9822628 99.9030067,45.3372607 100.578274,44.8778361 C101.253541,44.4139885 102.043497,44.1886032 102.939499,44.1886032 Z M102.939499,45.6332232 C102.162606,45.6332232 101.54478,45.9072625 101.090247,46.4461104 C100.635715,46.9895737 100.366568,47.7449607 100.287035,48.7080407 L105.349136,48.7080407 C105.349136,48.0895772 105.260765,47.5549601 105.088634,47.0999587 C104.916504,46.6449572 104.651776,46.2870714 104.294259,46.0220706 C103.941161,45.7657236 103.486628,45.6332232 102.939499,45.6332232 Z" id="Shape" fill="#222222" fill-rule="nonzero"></path>
            <path d="M113.266376,55.3705621 C112.021695,55.3705621 111.020033,54.9065221 110.260814,53.9744038 C109.506206,53.0422854 109.126596,51.6507425 109.126596,49.7995827 C109.126596,47.9486152 109.510624,46.5524569 110.269651,45.6070693 C111.033289,44.6616816 112.039369,44.1889878 113.28405,44.1889878 C113.804669,44.1889878 114.259393,44.2597572 114.652066,44.4011038 C115.040513,44.5424505 115.380356,44.7324511 115.667176,44.9753365 C115.953996,45.2184142 116.20105,45.483415 116.399692,45.7793775 L116.518992,45.7793775 C116.505736,45.6070693 116.483644,45.3464915 116.448296,45.0062981 C116.412947,44.6661047 116.399692,44.3922577 116.399692,44.1934109 L116.399692,39.8905125 L118.147317,39.8905125 L118.147317,55.1761384 L116.739534,55.1761384 L116.479225,53.7270953 L116.399692,53.7270953 C116.196631,54.036327 115.953996,54.3145972 115.667176,54.562098 C115.380356,54.8094064 115.036094,55.0082532 114.643229,55.1540229 C114.250556,55.2953695 113.791413,55.3705621 113.266376,55.3705621 Z M113.36781,53.9038266 C114.41385,53.9038266 115.146366,53.5901718 115.569968,52.9672852 C115.993763,52.3442062 116.20105,51.4032417 116.20105,50.1397761 L116.20105,49.8172751 C116.20105,48.4741938 115.998182,47.4493829 115.596479,46.7291882 C115.194969,46.013609 114.444587,45.6513002 113.345718,45.6513002 C112.463164,45.6513002 111.801153,46.0313014 111.364294,46.7866884 C110.927244,47.5464985 110.71112,48.5582326 110.71112,49.8349674 C110.71112,51.1205485 110.927244,52.1234363 111.364294,52.8301693 C111.805571,53.5459409 112.472001,53.9038266 113.36781,53.9038266 Z" id="Shape" fill="#222222" fill-rule="nonzero"></path>
            <path d="M127.755127,43.6011013 C127.755127,44.0561027 127.746482,44.484758 127.724389,44.8778361 C127.702296,45.2755297 127.680204,45.5847615 127.653693,45.8145699 L127.755127,45.8145699 C128.037721,45.3593762 128.430394,44.9751442 128.942367,44.6659124 C129.449922,44.3566806 130.094259,44.2020648 130.87096,44.2020648 C132.128705,44.2020648 133.139396,44.6659124 133.894004,45.5980308 C134.648805,46.5301491 135.028222,47.9216921 135.028222,49.7728518 C135.028222,51.0053558 134.856092,52.0392053 134.507412,52.8697848 C134.158924,53.7003644 133.673462,54.323251 133.051217,54.7384447 C132.428781,55.1538306 131.700684,55.3613313 130.87096,55.3613313 C130.081003,55.3613313 129.436666,55.2067154 128.93353,54.8974836 C128.430394,54.5882519 128.037721,54.2215199 127.759545,53.793057 L127.618344,53.793057 L127.278502,55.1624845 L126.01192,55.1624845 L126.01192,39.8768586 L127.759545,39.8768586 L127.759545,43.6011013 L127.755127,43.6011013 Z M130.548791,45.673031 C129.851432,45.673031 129.299884,45.8188007 128.889345,46.1061093 C128.478997,46.3932256 128.187759,46.8393809 128.015628,47.4313059 C127.839079,48.0278462 127.755127,48.7876564 127.755127,49.7153517 L127.755127,49.7949673 C127.755127,51.1247792 127.953768,52.1363209 128.346634,52.8432463 C128.739307,53.5457485 129.489689,53.8990189 130.588558,53.8990189 C131.457856,53.8990189 132.115449,53.5457485 132.556918,52.8344001 C132.998195,52.1230517 133.21893,51.0982407 133.21893,49.7551595 C133.21893,48.398809 132.998195,47.3828442 132.556918,46.6980343 C132.115449,46.0176475 131.444793,45.673031 130.548791,45.673031 Z" id="Shape" fill="#222222" fill-rule="nonzero"></path>
            <path d="M136.356471,44.38745 L138.245298,44.38745 L140.394625,50.5238158 C140.526989,50.8861246 140.650708,51.2351642 140.756561,51.5709345 C140.862413,51.9067048 140.959621,52.233629 141.038963,52.5472838 C141.118496,52.8609387 141.180164,53.1657473 141.21993,53.4617098 L141.28179,53.4617098 C141.361131,53.1259395 141.480239,52.6886304 141.634696,52.1451671 C141.789152,51.6018962 141.952446,51.0540098 142.128995,50.5061234 L144.159215,44.3918731 L146.070134,44.3918731 L141.709811,56.6601816 C141.466984,57.3317222 141.184582,57.9192241 140.853576,58.4184565 C140.526989,58.9221119 140.125479,59.3109593 139.657691,59.5848064 C139.189903,59.8586534 138.624907,59.9957692 137.971733,59.9957692 C137.676076,59.9957692 137.411348,59.9780769 137.177358,59.9471152 C136.94356,59.9117305 136.744918,59.8763458 136.586043,59.8367302 L136.586043,58.4273027 C136.718407,58.4538412 136.886119,58.4803797 137.089179,58.5069183 C137.292048,58.5334568 137.499526,58.5467261 137.711424,58.5467261 C138.099678,58.5467261 138.435103,58.4715336 138.717696,58.3169177 C139.000098,58.1623018 139.238315,57.9413396 139.441375,57.6542233 C139.644436,57.3671069 139.807729,57.0269135 139.944511,56.6380661 L140.447648,55.2111385 L136.356471,44.38745 Z" id="Path" fill="#222222" fill-rule="nonzero"></path>
            <polygon id="Path" fill="#FF7A00" fill-rule="nonzero" points="257.917393 39.4051263 255.439173 39.4051263 255.439173 55.2371001 257.917393 55.2371001"></polygon>
            <path d="M249.220569,44.7134125 C246.932538,44.7134125 245.159362,45.8247623 244.85967,48.0936157 L247.295626,48.0936157 C247.466604,47.238036 248.098646,46.7243805 249.220569,46.7243805 C250.523076,46.7243805 251.122459,47.4730368 251.122459,48.6493867 L251.122459,49.1840038 L248.621186,49.1840038 C246.317786,49.1840038 244.613769,50.2116994 244.613769,52.3086292 C244.613769,54.405559 246.002725,55.4959471 248.012197,55.4959471 C249.572131,55.4959471 250.59992,54.8311373 251.155118,53.7617108 L251.260778,53.7617108 L251.260778,55.2296001 L253.612206,55.2296001 L253.612206,48.7290023 C253.600679,46.2211097 252.319305,44.7134125 249.220569,44.7134125 Z M248.717241,53.5919025 C247.75669,53.5919025 247.157307,53.1201703 247.157307,52.3338216 C247.157307,51.4342033 247.798955,50.9643941 248.953536,50.9643941 L251.110932,50.9643941 L251.122459,51.1132407 C251.122459,52.6692073 250.223384,53.5919025 248.717241,53.5919025 L248.717241,53.5919025 Z" id="Shape" fill="#FF7A00"></path>
            <path d="M240.220212,55.2374847 L240.220212,49.9111215 C240.220212,48.3278472 241.205736,47.3213055 242.763749,47.3213055 L243.739668,47.3213055 L243.739668,44.9686057 L242.734933,44.9686057 C241.559219,44.9686057 240.704329,45.417261 240.170263,46.4238026 L240.083814,46.4238026 L240.083814,44.9686057 L237.755439,44.9686057 L237.755439,55.2436386 L240.220212,55.2374847 Z" id="Path" fill="#FF7A00"></path>
            <path d="M236.182058,52.9711313 L236.182058,55.2380617 L234.49341,55.2380617 C232.120851,55.2380617 230.816423,54.1370966 230.816423,51.7611274 L230.816423,47.007266 L229.129697,47.007266 L229.129697,44.9689903 L230.816423,44.9689903 L230.816423,42.24302 L233.298485,42.24302 L233.298485,44.9689903 L236.182058,44.9689903 L236.182058,47.007266 L233.298485,47.007266 L233.298485,51.4740111 C233.298485,52.4155526 233.851762,52.9711313 234.793102,52.9711313 L236.182058,52.9711313 Z" id="Path" fill="#FF7A00"></path>
            <path d="M221.007282,55.2380617 L221.007282,49.2911195 C221.007282,47.8357302 221.906358,46.8838041 223.35871,46.8838041 C224.747666,46.8838041 225.581423,47.6868836 225.581423,49.259581 L225.581423,55.2380617 L228.063486,55.2380617 L228.063486,48.8632335 C228.063486,46.2734175 226.807086,44.7134125 224.238574,44.7134125 C222.674798,44.7134125 221.481794,45.4180302 220.947728,46.3805333 L220.859358,46.3805333 L220.859358,44.9691826 L218.536747,44.9691826 L218.536747,55.2444078 L221.007282,55.2380617 Z" id="Path" fill="#FF7A00"></path>
            <path d="M211.895501,53.4638252 C210.333646,53.4638252 209.286646,52.4153603 209.244382,50.7670858 L216.83273,50.7670858 L216.821204,49.9640063 C216.821204,46.520726 214.59849,44.7214895 211.883974,44.7214895 C208.952375,44.7214895 206.808426,46.8184193 206.808426,50.1128529 C206.808426,53.4072866 208.796765,55.5042164 211.883974,55.5042164 C214.469776,55.5042164 216.158424,54.1349812 216.650226,52.1238209 L214.245007,52.1238209 C213.979895,52.8955542 213.3248,53.4638252 211.895501,53.4638252 Z M211.883974,46.7764961 C213.507305,46.7764961 214.469776,47.697076 214.535094,48.9805416 L209.234776,48.9805416 C209.469151,47.6761143 210.258723,46.7764961 211.883974,46.7764961 L211.883974,46.7764961 Z" id="Shape" fill="#FF7A00"></path>
            <path d="M199.391056,55.5161395 C203.089175,55.5161395 205.183175,53.4632483 205.674977,50.4142 L203.162177,50.4142 C202.789483,51.8045891 201.777063,53.0878625 199.391056,53.0878625 C196.933968,53.0878625 194.96676,51.4103571 194.96676,47.7384222 C194.96676,44.0666797 196.933968,42.3934051 199.391056,42.3934051 C201.848144,42.3934051 202.833668,43.6766785 203.162177,45.0459136 L205.674977,45.0459136 C205.269624,41.9970577 203.206362,40.0132052 199.391056,40.0132052 C195.287584,40.0132052 192.317562,42.8797528 192.317562,47.7720762 C192.317562,52.6642073 195.287584,55.5307549 199.391056,55.5307549 L199.391056,55.5161395 Z" id="Path" fill="#FF7A00"></path>
            <path d="M188.289398,44.9697595 L188.289398,46.3789948 L188.172019,46.3789948 C187.616821,45.3955301 186.462623,44.7118741 184.820274,44.7118741 C182.41544,44.7118741 180.247286,46.6159186 180.247286,49.9751602 C180.247286,53.334594 182.384126,55.2596002 184.820274,55.2596002 C186.401917,55.2596002 187.334035,54.615752 188.048492,53.5253639 L188.161645,53.5253639 L188.161645,55.6894093 C188.161645,56.8449899 187.520574,57.379607 186.473189,57.379607 L181.445669,57.379607 L181.445669,59.5898064 L186.42497,59.5898064 C189.18175,59.5898064 190.656387,58.0486476 190.656387,55.5238318 L190.656387,44.9697595 L188.289398,44.9697595 Z M185.501112,53.0138238 C183.854537,53.0138238 182.807153,51.9882436 182.807153,49.9772756 C182.807153,47.9663076 183.844163,46.9388043 185.501112,46.9388043 C187.103695,46.9388043 188.172019,47.9641922 188.172019,49.9772756 C188.172019,51.9903589 187.114069,53.0138238 185.501112,53.0138238 Z" id="Shape" fill="#0684BC"></path>
            <path d="M171.681481,55.2374847 L171.681481,49.2905426 C171.681481,47.8353456 172.580172,46.8832272 174.033869,46.8832272 C175.422825,46.8832272 176.256583,47.6863067 176.256583,49.2591963 L176.256583,55.2374847 L178.734611,55.2374847 L178.734611,48.8628489 C178.734611,46.2730329 177.477827,44.7128356 174.909507,44.7128356 C173.348997,44.7128356 172.142354,45.4174533 171.608095,46.3799563 L171.522222,46.3799563 L171.522222,44.968798 L169.203261,44.968798 L169.203261,55.2438309 L171.681481,55.2374847 Z" id="Path" fill="#0684BC"></path>
            <polygon id="Path" fill="#0684BC" fill-rule="nonzero" points="167.108685 44.9682211 164.630657 44.9682211 164.630657 55.2371001 167.108685 55.2371001"></polygon>
            <path d="M160.313559,48.154962 L160.313559,48.0543848 C161.830076,47.6349604 162.856521,46.6159186 162.856521,44.3259113 C162.856521,41.9732115 161.103324,40.2599367 157.854166,40.2599367 L152.340607,40.2599367 L152.340607,55.2365232 L154.9047,55.2365232 L154.9047,49.2893887 L158.025913,49.2893887 C159.479802,49.2893887 160.206746,50.0170834 160.206746,51.4724727 L160.206746,55.2469078 L162.770647,55.2469078 L162.770647,51.4724727 C162.770647,49.3545813 161.871956,48.4990016 160.313559,48.154962 Z M157.715847,46.9786121 L154.9047,46.9786121 L154.9047,42.5749442 L157.715847,42.5749442 C159.104803,42.5749442 160.173127,43.1537922 160.173127,44.7789897 C160.173127,46.4039949 159.094237,46.9786121 157.715847,46.9786121 L157.715847,46.9786121 Z" id="Shape" fill="#0684BC"></path>
            <path d="M165.868807,43.3199465 C166.194625,43.3205235 166.513144,43.2239847 166.784403,43.0432149 C167.055471,42.8622528 167.266792,42.6047519 167.391663,42.3035971 C167.516535,42.00225 167.549386,41.6707105 167.485797,41.3507095 C167.422401,41.0309007 167.265447,40.7370536 167.035107,40.5062837 C166.804767,40.275706 166.511223,40.1187824 166.191552,40.0551284 C165.872073,39.9916666 165.540683,40.0245514 165.239838,40.1495518 C164.938802,40.2745522 164.681758,40.4860913 164.500983,40.7574383 C164.320207,41.0287853 164.22396,41.3478248 164.224344,41.6739797 C164.221463,42.0003269 164.316749,42.3201356 164.497525,42.5920596 C164.678108,42.8637912 164.936304,43.0749458 165.238301,43.1984077 C165.437904,43.2814849 165.652491,43.3228312 165.868807,43.3199465 L165.868807,43.3199465 Z" id="Path" fill="#FF7A00"></path>
            <path d="M163.97998,37.107042 C163.379828,37.3585813 162.83462,37.7255055 162.375285,38.1870455 L163.537935,39.3508954 C163.842814,39.0439713 164.204941,38.8003167 164.603762,38.6335854 C165.002774,38.4668541 165.430411,38.3805076 165.862659,38.3793538 C166.294907,38.3781999 166.72312,38.4622387 167.122901,38.6268546 C167.522682,38.7912782 167.886155,39.0330097 168.19257,39.338203 L169.35522,38.1743531 C168.664969,37.4847355 167.785873,37.0153109 166.829165,36.8253103 C165.872457,36.6353097 164.880977,36.733387 163.97998,37.107042 L163.97998,37.107042 Z" id="Path" fill="#FF7A00"></path>
        </g>
    </g>
</svg>