<svg xmlns="http://www.w3.org/2000/svg" width="202" height="48" viewBox="0 0 202 48">
    <g fill="none" fill-rule="evenodd">
        <g fill-rule="nonzero">
            <g>
                <g fill="#75787B">
                    <path d="M.609 7.065l.267-1.53c.04.07.142.13.305.178.162.05.306.074.432.074.582 0 1.052-.219 1.41-.655.358-.437.537-.98.537-1.627 0-.424-.106-.742-.317-.952-.212-.211-.53-.317-.955-.317-.161 0-.335.042-.522.126-.187.085-.33.188-.43.312-.028-.264-.047-.41-.058-.438l-.609.115c.032.154.048.311.048.473 0 .158-.015.319-.045.483L.003 7.065H.61zm.918-1.79c-.102 0-.212-.023-.329-.07-.117-.047-.194-.104-.232-.172l.328-1.886c.068-.094.183-.184.346-.27.162-.086.305-.13.428-.13.283 0 .495.07.636.21.142.14.212.35.212.631 0 .522-.12.934-.362 1.235-.24.302-.583.453-1.027.453zm3.56.496c.415 0 .77-.117 1.067-.352.296-.234.51-.528.64-.882.131-.353.196-.694.196-1.022 0-.414-.109-.733-.328-.958-.219-.224-.535-.337-.95-.337-.55 0-1.004.219-1.36.655-.357.437-.536.961-.536 1.573 0 .42.11.745.328.976.22.231.534.347.944.347zm.09-.495c-.482 0-.724-.29-.724-.867 0-.234.042-.488.125-.76.083-.273.217-.497.403-.671.186-.175.401-.262.645-.262.483 0 .724.274.724.824 0 .458-.106.862-.317 1.211-.212.35-.497.525-.856.525zm2.968.495L9.51 3.543l.635 2.228h.159c.472-.933 1.063-2.099 1.775-3.497h-.628l-1.07 2.193-.613-2.193h-.159L8.336 4.451l-.372-2.177h-.616l.638 3.497h.16zm5.24 0c.262 0 .563-.057.903-.17l.064-.62c-.255.186-.508.279-.759.279-.282 0-.502-.076-.66-.227-.157-.152-.235-.368-.235-.65 0-.093.01-.19.028-.293.21.115.469.172.775.172.456 0 .842-.107 1.157-.322.314-.216.471-.51.471-.883 0-.268-.1-.475-.303-.62-.201-.144-.471-.217-.809-.217-.561 0-1.026.2-1.396.598-.37.398-.555.888-.555 1.47 0 .989.44 1.483 1.32 1.483zm.017-2.014c-.219 0-.41-.036-.57-.108.22-.612.606-.918 1.156-.918.361 0 .542.132.542.394 0 .206-.105.363-.315.471-.21.108-.482.161-.813.161zm2.62 1.95l.348-1.962c.049-.277.171-.515.367-.715.195-.199.4-.299.615-.299.17 0 .318.052.446.154l.172-.62c-.157-.03-.273-.045-.347-.045-.436 0-.8.204-1.093.61l.095-.546h-.605l-.603 3.423h.606zm3.38.064c.262 0 .562-.057.902-.17l.064-.62c-.255.186-.508.279-.759.279-.282 0-.502-.076-.66-.227-.157-.152-.235-.368-.235-.65 0-.093.01-.19.028-.293.21.115.469.172.775.172.457 0 .842-.107 1.157-.322.314-.216.472-.51.472-.883 0-.268-.101-.475-.303-.62-.202-.144-.472-.217-.81-.217-.56 0-1.026.2-1.396.598-.37.398-.554.888-.554 1.47 0 .989.44 1.483 1.32 1.483zm.016-2.014c-.219 0-.409-.036-.57-.108.22-.612.606-.918 1.157-.918.36 0 .541.132.541.394 0 .206-.105.363-.315.471-.21.108-.481.161-.813.161zm3.176 2.01c.427 0 .763-.15 1.01-.453l-.073.393h.599l.832-4.826h-.577l-.322 1.748c-.172-.268-.42-.402-.743-.402-.556 0-1.013.212-1.37.637-.357.425-.536.971-.536 1.638 0 .39.105.698.313.925.208.227.497.34.867.34zm.216-.491c-.495 0-.742-.302-.742-.905 0-.477.124-.869.371-1.174.248-.306.56-.46.935-.46.096 0 .187.03.273.086.086.056.16.134.22.233s.089.158.084.177l-.14.857c-.057.35-.183.634-.376.855-.193.22-.402.33-.625.33zm4.222.495l.322-.393c.136.262.377.393.724.393.548 0 1.008-.207 1.38-.62.371-.413.557-.89.557-1.429 0-.458-.12-.823-.358-1.094-.24-.272-.541-.408-.907-.408-.408 0-.691.142-.85.425l.283-1.764h-.587l-.611 3.5c-.096.528-.213.991-.351 1.39h.398zm1.027-.499c-.094 0-.187-.025-.28-.076-.092-.052-.163-.113-.214-.186-.051-.072-.075-.12-.07-.144l.318-1.665c.176-.313.386-.47.628-.47.612 0 .918.348.918 1.042 0 .36-.127.7-.38 1.02-.252.32-.56.48-.92.48zm2.12 1.777c.495 0 .863-.074 1.103-.223.24-.15.432-.386.577-.71l1.711-3.832h-.688l-1.23 2.85c-.139 0-.226-.122-.262-.367l-.376-2.483h-.66l.427 2.55c.098.593.297.889.596.889-.072.239-.19.418-.357.537-.165.12-.446.179-.84.179v.61z" transform="translate(-488 -347) translate(488.163 347.725) translate(62.79 37.327)"/>
                </g>
                <g>
                    <path fill="#0073AE" d="M4.632 7.827l-.7 4.186H0L2.07 0h5.64c.88 0 1.605.052 2.226.156.595.104 1.087.26 1.475.494.388.208.647.494.828.806.18.312.258.702.258 1.144 0 .234-.025.494-.077.806-.13.676-.388 1.3-.802 1.846-.414.546-.984.91-1.708 1.092.233.079.466.183.647.287.207.104.362.208.491.364.13.156.233.312.311.546.078.208.103.494.103.806 0 .338-.051.754-.103 1.196-.078.416-.13.78-.181 1.04-.052.286-.078.494-.078.65 0 .26.104.39.285.39v.39H7.4c-.026-.104-.026-.234-.026-.39 0-.182.026-.442.052-.728s.078-.624.13-.988c.077-.364.103-.676.103-.936 0-.416-.13-.728-.388-.884-.259-.182-.75-.26-1.423-.26H4.632zM5.097 5.2H6.65c.595 0 1.087-.078 1.423-.26.336-.156.543-.468.62-.884 0-.052.027-.13.027-.26 0-.338-.13-.598-.388-.754-.26-.156-.595-.234-.984-.234H5.511L5.097 5.2zM18.162 3.39h3.127l-.233 1.36c.491-.538.982-.923 1.474-1.206.49-.256 1.085-.41 1.731-.41.982 0 1.68.23 2.145.667.465.436.672 1.104.672 1.95 0 .334-.026.693-.104 1.078l-.878 5.184h-3.437l.8-4.568c.027-.205.053-.385.053-.565 0-.307-.078-.538-.207-.744-.13-.205-.388-.308-.775-.308-.517 0-.93.154-1.163.462-.233.308-.414.744-.491 1.309l-.776 4.388h-3.437l1.5-8.597zM29.953 12.64v.052c0 .13.05.235.151.34.126.156.352.208.704.208.478 0 .856-.13 1.107-.391.252-.262.428-.705.529-1.332l.125-.731c-.276.26-.629.47-1.031.679-.403.182-.93.287-1.535.287-.503 0-.956-.079-1.333-.261-.377-.157-.704-.392-.956-.68-.251-.287-.453-.626-.578-1.044-.126-.392-.202-.836-.202-1.28 0-.156 0-.287.026-.444.025-.156.025-.287.05-.444.075-.548.251-1.07.453-1.619.226-.548.503-1.018.88-1.436.377-.418.805-.757 1.333-1.018.529-.262 1.132-.392 1.837-.392.528 0 .98.13 1.383.392.403.26.73.6.956 1.018l.176-1.149h2.944l-1.183 7.077c-.1.653-.251 1.28-.402 1.828-.176.575-.428 1.07-.805 1.489-.378.418-.856.757-1.51.992-.628.235-1.484.366-2.515.366-.73 0-1.359-.079-1.862-.21-.503-.13-.905-.313-1.232-.521-.302-.236-.529-.47-.68-.784-.15-.287-.226-.6-.226-.914v-.104h3.396v.026zm1.987-7c-.251 0-.452.053-.654.158-.176.104-.327.235-.478.417-.125.183-.226.392-.301.627-.076.235-.151.522-.177.784 0 .078-.025.156-.025.209v.208c0 .34.076.653.252.914.176.262.427.392.805.392h.075c.227 0 .453-.052.63-.156.175-.105.351-.236.477-.392.126-.157.252-.366.327-.575.076-.209.151-.444.201-.679.026-.183.05-.365.05-.548 0-.366-.075-.68-.25-.94-.177-.261-.479-.392-.906-.392h-.026v-.026z" transform="translate(-488 -347) translate(488.163 347.725) translate(99.344 30.963)"/>
                    <path fill="#F80" d="M44.998 4.632v-.104-.105c0-.523-.152-.942-.431-1.23-.305-.288-.712-.419-1.245-.419-.66 0-1.194.288-1.651.838-.457.55-.762 1.387-.965 2.486-.051.21-.077.419-.102.602-.025.183-.025.393-.025.576 0 .288.025.523.076.759.05.235.152.445.305.602.127.183.33.314.558.419.229.104.508.157.864.157.584 0 1.067-.184 1.423-.55.355-.366.61-.838.787-1.387h3.505c-.203.733-.508 1.413-.889 1.989-.38.576-.838 1.073-1.371 1.492-.534.418-1.118.706-1.778.942-.66.21-1.347.314-2.083.314-.813 0-1.499-.105-2.134-.314-.61-.21-1.143-.524-1.575-.916-.432-.393-.762-.89-.965-1.466-.229-.576-.33-1.23-.33-1.963 0-.209 0-.418.025-.654.025-.236.05-.471.102-.707.152-.916.431-1.753.838-2.486.406-.733.914-1.36 1.499-1.884.584-.524 1.244-.916 1.955-1.204C42.128.13 42.865 0 43.627 0c1.6 0 2.82.366 3.607 1.1.787.732 1.194 1.753 1.194 3.088v.209c0 .078 0 .157-.026.235h-3.404zM52.255 8.13c0 .054-.026.107-.026.16v.158c0 .422.127.766.404 1.03.278.264.606.37 1.01.37.277 0 .53-.053.782-.185.253-.132.455-.317.606-.581h3.23c-.227.554-.555 1.003-.933 1.4-.379.369-.808.686-1.262.897-.455.238-.96.396-1.464.502-.505.106-1.01.132-1.514.132-.606 0-1.161-.08-1.666-.238-.505-.158-.934-.396-1.313-.713-.378-.317-.656-.713-.858-1.162-.202-.449-.303-.977-.303-1.584 0-.159 0-.29.026-.45.025-.158.025-.316.05-.475.126-.713.353-1.373.707-1.98.353-.581.757-1.083 1.262-1.505.504-.423 1.06-.74 1.69-.951.632-.238 1.263-.343 1.944-.343.682 0 1.287.105 1.817.316.53.212.96.476 1.313.845.353.37.63.793.807 1.32.177.53.278 1.084.278 1.717 0 .397-.05.82-.126 1.294h-6.461v.027zm3.331-1.795c0-.053.025-.132.025-.264 0-.37-.126-.66-.353-.924-.227-.238-.53-.37-.883-.37-.505 0-.909.132-1.237.423-.303.29-.505.66-.606 1.135h3.054zM60.315 3.39h3.153l-.233 1.36c.491-.538.982-.923 1.473-1.206.491-.256 1.086-.41 1.732-.41.982 0 1.68.23 2.145.667.465.436.672 1.104.672 1.95 0 .334-.026.693-.104 1.078l-.878 5.184h-3.437l.8-4.568c.027-.205.052-.385.052-.565 0-.307-.077-.538-.206-.744-.13-.205-.388-.308-.776-.308-.516 0-.93.154-1.163.462-.232.308-.413.744-.49 1.309l-.776 4.414h-3.437l1.473-8.623zM74.472 11.935c-.395.026-.764.052-1.08.052-.342 0-.632.026-.922.026-.527 0-.974-.026-1.343-.078-.369-.051-.659-.13-.87-.258-.21-.13-.368-.285-.447-.518-.08-.207-.132-.466-.132-.802 0-.207.026-.414.053-.673.026-.259.079-.518.131-.828l.633-3.624h-1.238l.342-1.992h1.29L71.39.522h3.45l-.5 2.718h1.686l-.342 1.992h-1.686l-.553 3.158c-.027.103-.027.18-.053.259 0 .077-.026.155-.026.232 0 .208.079.363.21.44.132.078.396.13.764.13h.553l-.421 2.484zM76.459 3.39h3.13l-.31 1.745h.025c.698-1.334 1.707-2.001 3.026-2.001.078 0 .155 0 .233.025.077 0 .155.026.233.026L82.2 6.624c-.104-.026-.233-.051-.337-.077-.129-.026-.232-.026-.362-.026-.698 0-1.267.18-1.68.565-.415.385-.7 1.026-.88 1.95l-.517 2.977h-3.44l1.474-8.623zM87.656 11.99l-.025-1.147c-.546.449-1.066.748-1.587.898-.52.15-1.091.224-1.736.224-.347 0-.694-.05-.992-.124-.322-.075-.595-.2-.818-.375-.223-.174-.422-.374-.546-.623-.148-.25-.198-.55-.198-.898 0-.15.025-.325.05-.5.099-.623.347-1.122.694-1.471.347-.35.769-.624 1.24-.799.471-.174.967-.299 1.488-.374.52-.075 1.016-.125 1.463-.2.446-.05.843-.124 1.14-.249.323-.1.496-.274.521-.549v-.05-.05c0-.124-.05-.224-.1-.299-.074-.075-.173-.125-.272-.175-.1-.025-.198-.074-.322-.074-.124-.025-.224-.025-.298-.025-.124 0-.248 0-.372.025s-.248.05-.372.124c-.124.05-.223.15-.322.25-.1.1-.174.25-.223.424h-3.174c.074-.45.223-.848.446-1.198.223-.349.546-.648.942-.873.422-.25.918-.424 1.513-.549.595-.124 1.314-.2 2.132-.2.744 0 1.364.05 1.86.15.471.1.868.25 1.14.45.274.2.472.424.571.698.1.275.149.574.149.898 0 .2-.025.4-.05.624-.024.224-.05.449-.099.674l-.67 3.916c-.024.175-.049.325-.049.45 0 .124.025.224.074.324.05.1.124.2.248.324v.424h-3.446v-.075zm-1.538-1.896c.273 0 .546-.05.744-.15.223-.1.397-.249.546-.448.148-.175.272-.4.347-.65.074-.249.149-.523.173-.797-.297.124-.595.224-.892.274-.298.05-.595.125-.843.2-.248.074-.496.174-.67.299-.198.125-.297.324-.347.599v.05c0 .174.074.324.223.449.174.1.422.174.72.174M91.648 12.013L93.799 0 97.376 0 95.225 12.013z" transform="translate(-488 -347) translate(488.163 347.725) translate(99.344 30.963)"/>
                    <path fill="#0073AE" d="M11.977 12.013L13.817 5.223 16.143 5.223 15.198 12.013z" transform="translate(-488 -347) translate(488.163 347.725) translate(99.344 30.963)"/>
                    <path fill="#F80" d="M17.488 1.797c-.024-.027-.024-.053-.05-.08-.049-.08-.123-.16-.247-.266-.223-.212-.619-.478-1.213-.585-.297-.053-.545-.053-.768-.026-.544.053-.866.292-.965.399l-.05.026c-.148.16-.396.16-.545 0-.148-.16-.148-.425 0-.585.05-.053.545-.558 1.486-.664.297-.027.62-.027.99.053 1.511.292 2.031 1.33 2.056 1.409.099.212.025.452-.174.558-.05.027-.099.027-.123.053-.174-.053-.322-.133-.397-.292" transform="translate(-488 -347) translate(488.163 347.725) translate(99.344 30.963)"/>
                    <path fill="#F80" d="M16.577 2.952l-.026-.029c-.026-.029-.079-.087-.13-.174-.13-.117-.339-.291-.703-.35-.182-.028-.338-.028-.468-.028-.312.029-.494.174-.573.232h-.026c-.13.146-.338.146-.494 0-.13-.145-.13-.378 0-.552.026-.029.364-.378.989-.465.182-.03.416-.03.65.03.989.203 1.353.9 1.353.958.078.175.026.407-.156.523-.026.03-.078.03-.13.03-.104.029-.234-.03-.286-.175M16.142 3.917c0 .433-.345.784-.781.784-.436 0-.78-.351-.78-.784 0-.432.344-.783.78-.783.436 0 .803.351.78.783" transform="translate(-488 -347) translate(488.163 347.725) translate(99.344 30.963)"/>
                </g>
                <g fill="#F80">
                    <path d="M1.48 0C2.3 0 2.963.668 2.963 1.491c0 .824-.663 1.492-1.481 1.492C.663 2.983 0 2.315 0 1.491 0 .668.663 0 1.48 0zm0 .224C.787.224.223.79.223 1.49S.786 2.76 1.481 2.76s1.258-.567 1.258-1.268c0-.7-.563-1.267-1.258-1.267z" transform="translate(-488 -347) translate(488.163 347.725) translate(197.837 30.963)"/>
                    <path d="M1.138 2.325v-.642h.32l.41.642h.235l-.433-.66c.22-.018.416-.178.416-.47 0-.297-.209-.486-.502-.486H.939v1.616h.2zm.421-.819h-.42V.888h.42c.19 0 .32.126.32.308s-.13.31-.32.31z" transform="translate(-488 -347) translate(488.163 347.725) translate(197.837 30.963)"/>
                </g>
                <path fill="#6B489D" d="M4.708 23.4v-8.504h3.578l4.138 8.504h4.528l-5.171-9.282c2.432-.605 3.773-2.68 3.773-5.852 0-4.439-2.376-6.486-7.296-6.486H.85V23.4h3.858zm3.466-11.588H4.708v-6.63h3.578c2.32 0 3.271.836 3.271 3.228 0 2.595-1.006 3.402-3.383 3.402zm15.063 11.877c2.013 0 3.718-.807 4.752-2.162l.084.028.307 1.845h2.712V12.475c0-4.67-1.705-6.745-6.402-6.745-2.096 0-3.969.374-5.618 1.124l.307 3.027c1.538-.692 2.851-.98 4.669-.98 2.515 0 3.522.864 3.522 3.026v1.298c-.95-.318-2.18-.548-3.495-.548-3.913 0-6.038 2.104-6.038 5.362 0 3.862 2.069 5.65 5.2 5.65zm.978-2.97c-1.65 0-2.823-.72-2.823-2.738 0-1.758 1.034-2.71 3.326-2.71 1.398 0 2.432.288 2.852.49v2.537c0 1.268-1.594 2.422-3.355 2.422zM36.098 3.74c1.454 0 2.125-.547 2.125-1.7 0-1.125-.67-1.759-2.125-1.759-1.425 0-2.124.634-2.124 1.759 0 1.268.699 1.7 2.124 1.7zm1.79 19.66V5.96l-3.607.202V23.4h3.607zm7.143 0V10.66c.7-1.009 2.097-1.586 3.355-1.586 2.068 0 3.214.923 3.214 3.114V23.4h3.55V12.158c0-4.209-2.236-6.428-5.786-6.428-1.817 0-3.522.663-4.78 1.873l-.56-1.672-2.543.202V23.4h3.55zm20.872.346c4.25 0 6.765-2.623 6.765-9.051 0-6.458-2.46-8.937-6.346-8.937-1.677 0-3.27.548-4.444 1.73l-.084-.058.056-2.306V.627L58.3.83V23.4h2.403l.504-1.585c1.062 1.153 2.711 1.931 4.696 1.931zm-.56-3.026c-1.732 0-2.906-.808-3.493-1.759v-8.216c.726-1.066 1.956-1.7 3.466-1.7 2.376 0 3.718.98 3.718 5.707 0 4.872-1.426 5.968-3.69 5.968zm17.162 3.084c5.228 0 7.464-2.594 7.464-9.023 0-6.4-2.236-9.051-7.464-9.051-5.2 0-7.547 2.652-7.547 9.051 0 6.429 2.348 9.023 7.547 9.023zm0-3.084c-2.767 0-3.857-1.384-3.857-5.939 0-4.554 1.062-5.938 3.857-5.938 2.768 0 3.802 1.384 3.802 5.938 0 4.555-1.034 5.939-3.802 5.939zm17.02 2.68l2.404-11.184.447-2.307h.084l.42 2.307L105.17 23.4h4.417l3.886-17.353h-3.466l-2.265 12.107-.363 2.306h-.084l-.447-2.277-2.628-12.136h-3.746l-2.572 12.078-.419 2.277H97.4l-.42-2.277-2.347-12.078h-3.579l4.11 17.353h4.36zm31.944.404c6.402 0 8.945-3.315 8.945-11.214 0-7.783-2.543-11.156-8.945-11.156-6.43 0-9.001 3.373-9.001 11.156 0 7.784 2.655 11.214 9.001 11.214zm0-3.661c-3.606 0-4.948-1.586-4.948-7.553s1.342-7.495 4.92-7.495c3.662 0 4.948 1.5 4.948 7.495 0 5.939-1.314 7.553-4.92 7.553zm16.346 3.257V8.843h3.913V6.047h-3.913v-.663c0-1.47.782-2.364 2.767-2.364.615 0 1.202.086 1.705.202L152.511.8c-.67-.23-1.677-.403-2.6-.403-3.97 0-5.674 2.162-5.674 4.9v.75h-2.265v2.796h2.293V23.4h3.55zm9.309 0V8.843h3.913V6.047h-3.913v-.663c0-1.47.782-2.364 2.767-2.364.615 0 1.202.086 1.705.202L161.82.8c-.671-.23-1.677-.403-2.6-.403-3.97 0-5.675 2.162-5.675 4.9v.75h-2.264v2.796h2.292V23.4h3.55zm8.32-19.66c1.454 0 2.124-.547 2.124-1.7 0-1.125-.67-1.759-2.124-1.759-1.426 0-2.125.634-2.125 1.759 0 1.268.7 1.7 2.125 1.7zm1.789 19.66V5.96l-3.606.202V23.4h3.606zm9.982.375c1.79 0 3.327-.432 4.305-1.095l-.251-2.94c-.923.518-2.097.807-3.299.807-2.88 0-4.473-1.615-4.473-5.852 0-4.007 1.174-5.564 4.557-5.564 1.062 0 2.18.26 3.103.663l.223-3.228c-1.09-.462-2.627-.779-4.08-.779-5.228 0-7.493 3.113-7.493 8.908 0 6.197 2.544 9.08 7.408 9.08zm13.736-.058c2.097 0 3.942-.46 5.367-1.181l-.419-3.027c-1.426.634-2.88.951-4.529.951-3.214 0-4.696-1.268-4.864-4.9h10.232c.056-.52.084-1.211.084-1.759 0-5.535-2.656-8.043-6.793-8.043-4.865 0-7.213 3.142-7.213 8.648 0 6.227 2.46 9.311 8.135 9.311zm2.6-10.637h-7.129c.168-2.94 1.202-4.208 3.635-4.208 2.096 0 3.438 1.153 3.494 4.208z" transform="translate(-488 -347) translate(488.163 347.725)"/>
            </g>
        </g>
    </g>
</svg>
