<svg width="265" height="36" viewBox="0 0 1988 300" fill="none" xmlns="http://www.w3.org/2000/svg">
<path fill-rule="evenodd" clip-rule="evenodd" d="M1185 300V0H1195V300H1185Z" fill="#222222"/>
<path d="M1035.17 68.1797H1010.87V223.25H1035.17V68.1797Z" fill="#FF7A00"/>
<path fill-rule="evenodd" clip-rule="evenodd" d="M949.89 120.172C927.461 120.172 910.065 131.058 907.128 153.281H931.015C932.699 144.901 938.881 139.869 949.89 139.869C962.665 139.869 968.54 147.201 968.54 158.724V163.961H944.016C921.423 163.961 904.725 174.025 904.725 194.564C904.725 215.103 918.342 225.784 938.039 225.784C953.341 225.784 963.405 219.273 968.848 208.798H969.895V223.175H992.94V159.504C992.837 134.939 980.267 120.172 949.89 120.172ZM944.961 207.134C935.533 207.134 929.659 202.513 929.659 194.811C929.659 186 935.944 181.399 947.261 181.399H968.416L968.54 182.857C968.54 198.097 959.728 207.134 944.961 207.134Z" fill="#FF7A00"/>
<path fill-rule="evenodd" clip-rule="evenodd" d="M861.654 223.252V171.082C861.654 155.575 871.307 145.717 886.588 145.717H896.16V122.672H886.301C874.778 122.672 866.399 127.067 861.161 136.926H860.319V122.672H837.479V223.313L861.654 223.252Z" fill="#FF7A00"/>
<path fill-rule="evenodd" clip-rule="evenodd" d="M822.053 201.066V223.269H805.498C782.227 223.269 769.452 212.486 769.452 189.215V142.653H752.897V122.689H769.452V95.9883H793.77V122.689H822.053V142.653H793.77V186.401C793.77 195.623 799.213 201.066 808.435 201.066H822.053Z" fill="#FF7A00"/>
<path fill-rule="evenodd" clip-rule="evenodd" d="M673.27 223.257V165.009C673.27 150.755 682.082 141.43 696.315 141.43C709.933 141.43 718.107 149.296 718.107 164.701V223.257H742.446V160.819C742.446 135.453 730.122 120.172 704.942 120.172C689.619 120.172 677.912 127.073 672.675 136.5H671.812V122.678H649.034V223.319L673.27 223.257Z" fill="#FF7A00"/>
<path fill-rule="evenodd" clip-rule="evenodd" d="M583.925 205.893C568.623 205.893 558.353 195.624 557.943 179.48H632.335L632.233 171.613C632.233 137.888 610.441 120.266 583.822 120.266C555.067 120.266 534.056 140.805 534.056 173.072C534.056 205.339 553.547 225.878 583.822 225.878C609.167 225.878 625.722 212.466 630.548 192.769H606.969C604.361 200.327 597.953 205.893 583.925 205.893ZM583.822 140.394C599.74 140.394 609.167 149.411 609.804 161.981H557.84C560.14 149.205 567.884 140.394 583.822 140.394Z" fill="#FF7A00"/>
<path fill-rule="evenodd" clip-rule="evenodd" d="M461.326 225.974C497.578 225.974 518.117 205.867 522.943 176.003H498.297C494.641 189.62 484.72 202.19 461.326 202.19C437.234 202.19 417.948 185.759 417.948 149.795C417.948 113.831 437.234 97.4408 461.326 97.4408C485.419 97.4408 495.072 110.011 498.297 123.423H522.943C518.959 93.5589 498.728 74.1289 461.326 74.1289C421.09 74.1289 391.966 102.206 391.966 150.123C391.966 198.041 421.09 226.118 461.326 226.118V225.974Z" fill="#FF7A00"/>
<path fill-rule="evenodd" clip-rule="evenodd" d="M352.473 122.712V136.514H351.322C345.88 126.881 334.563 120.186 318.46 120.186C294.881 120.186 273.623 138.835 273.623 171.739C273.623 204.642 294.573 223.497 318.46 223.497C333.967 223.497 343.107 217.192 350.111 206.511H351.22V227.708C351.22 239.025 344.935 244.262 334.665 244.262H285.371V265.91H334.193C361.222 265.91 375.682 250.814 375.682 226.085V122.712H352.473ZM325.135 201.5C308.991 201.5 298.722 191.456 298.722 171.759C298.722 152.062 308.889 141.998 325.135 141.998C340.847 141.998 351.322 152.042 351.322 171.759C351.322 191.477 340.95 201.5 325.135 201.5Z" fill="#0684BC"/>
<path fill-rule="evenodd" clip-rule="evenodd" d="M189.638 223.283V165.034C189.638 150.78 198.449 141.455 212.703 141.455C226.32 141.455 234.495 149.322 234.495 164.726V223.283H258.793V160.844C258.793 135.478 246.469 120.197 221.288 120.197C205.987 120.197 194.156 127.098 188.919 136.526H188.077V122.703H165.34V223.345L189.638 223.283Z" fill="#0684BC"/>
<path d="M144.796 122.688H120.498V223.267H144.796V122.688Z" fill="#0684BC"/>
<path fill-rule="evenodd" clip-rule="evenodd" d="M78.1717 153.896V152.91C93.042 148.802 103.106 138.82 103.106 116.392C103.106 93.3468 85.915 76.5664 54.0589 76.5664H0V223.257H25.1398V165.008H55.7431C69.9972 165.008 77.1242 172.135 77.1242 186.389V223.359H102.264V186.389C102.264 165.644 93.4528 157.264 78.1717 153.896ZM52.7033 142.374H25.1398V99.2416H52.7033C66.3207 99.2416 76.7956 104.91 76.7956 120.828C76.7956 136.746 66.218 142.374 52.7033 142.374Z" fill="#0684BC"/>
<path fill-rule="evenodd" clip-rule="evenodd" d="M132.643 106.555C135.838 106.559 138.962 105.615 141.62 103.843C144.278 102.071 146.35 99.5494 147.575 96.5987C148.799 93.648 149.121 90.4003 148.498 87.2669C147.876 84.1334 146.338 81.255 144.079 78.996C141.82 76.737 138.942 75.199 135.808 74.5768C132.675 73.9545 129.427 74.276 126.476 75.5004C123.526 76.7248 121.005 78.7972 119.232 81.4551C117.46 84.1131 116.516 87.2372 116.52 90.4318C116.493 93.6297 117.425 96.7623 119.198 99.4243C120.97 102.086 123.5 104.155 126.461 105.364C128.419 106.178 130.523 106.583 132.643 106.555Z" fill="#FF7A00"/>
<path fill-rule="evenodd" clip-rule="evenodd" d="M114.115 45.6845C108.229 48.1481 102.884 51.7417 98.3818 56.2622L109.781 67.6614C112.769 64.6562 116.32 62.2691 120.231 60.6364C124.142 59.0038 128.336 58.1576 132.574 58.1462C136.812 58.1347 141.011 58.9583 144.931 60.5697C148.851 62.1812 152.414 64.5491 155.419 67.5381L166.818 56.1389C160.049 49.3837 151.431 44.7855 142.051 42.9248C132.671 41.0642 122.95 42.0245 114.115 45.6845Z" fill="#FF7A00"/>
<path d="M1782.23 223.242H1833.69L1828.83 192.971C1813.63 197.711 1797.57 202.503 1780.81 207.274L1782.23 223.242Z" fill="#1C75BC"/>
<path d="M1987.86 116.236C1982 88.8057 1800.03 105.714 1581.42 154.037C1454.38 182.101 1342.93 214.579 1273 242.255C1319.02 229.076 1368.44 215.815 1420 202.932C1679.5 138.089 1895.12 107.215 1901.58 133.982C1906.13 152.811 1805.94 195.147 1655.77 241.182C1848.51 195.106 1993.23 141.358 1987.86 116.236Z" fill="#ED1849"/>
<path d="M1822.53 154.75L1809.62 76.8301H1755.47L1738.97 134.307C1737.35 140.699 1736.12 147.181 1735.28 153.718H1733.93L1713.73 76.8301H1658.92L1644.47 166.172C1636.23 173.834 1626.89 178.554 1615.25 178.554C1599.32 178.554 1585.54 166.141 1585.54 150.02C1585.55 146.243 1586.32 142.507 1587.78 139.025C1589.24 135.544 1591.38 132.386 1594.07 129.734C1596.76 127.082 1599.95 124.986 1603.45 123.569C1606.95 122.152 1610.69 121.44 1614.47 121.475C1625.25 121.475 1634.9 126.921 1642.97 133.735L1643.84 80.3445C1632.44 76.4751 1620.48 74.4809 1608.44 74.4395C1565.53 74.4395 1531.94 108.613 1531.94 151.338C1531.94 152.012 1531.94 152.686 1531.94 153.381L1519.35 76.7586H1465.2L1448.68 134.235C1447.07 140.627 1445.84 147.109 1445 153.646H1443.63L1423.45 76.8301H1368.69L1344.99 223.25H1396.45L1402.67 160.726C1403.25 154.893 1403.64 148.875 1404.03 143.052H1405.78C1406.31 149.224 1407.41 155.332 1409.07 161.298L1428.1 223.25H1459.17L1480.34 157.621C1481.81 152.841 1482.99 147.976 1483.86 143.052H1484.83L1491.99 223.24H1543.44L1535.51 174.968C1545.04 205.729 1572.72 228.838 1606.31 228.838C1614.3 228.922 1622.26 227.95 1630 225.947C1635.55 208.998 1642.26 189.169 1642.26 189.169L1637.69 223.199H1686.73L1692.94 160.675C1693.52 154.852 1693.96 148.824 1694.3 143.001H1696.05C1696.58 149.176 1697.68 155.287 1699.35 161.258L1717.42 215.823C1736.18 208.058 1750.57 202.542 1758.17 198.006L1770.62 157.569C1772.08 152.79 1773.25 147.925 1774.11 143.001H1775.03L1779.39 188.259C1785.72 185.603 1802.89 177.828 1814.13 170.994C1823.86 165.048 1823.21 160.44 1822.55 154.709" fill="#1C75BC"/>
<path d="M1587.71 273.564C1588.94 272.978 1589.96 272.051 1590.67 270.894C1591.37 269.737 1591.73 268.401 1591.69 267.046V266.965C1591.71 266.019 1591.55 265.078 1591.19 264.199C1590.84 263.321 1590.32 262.523 1589.64 261.856C1587.92 260.13 1585.2 259.18 1581.75 259.18H1567.7V289.389H1582.06C1588.88 289.389 1593.36 286.631 1593.36 281.104V281.022C1593.36 276.905 1591.21 274.882 1587.71 273.564ZM1574.17 264.972H1580.73C1583.53 264.972 1585.09 266.096 1585.09 268.088V268.17C1585.09 270.418 1583.23 271.368 1580.3 271.368H1574.17V264.972ZM1586.77 280.297C1586.77 282.544 1585 283.576 1582.06 283.576H1574.17V276.925H1581.85C1585.26 276.925 1586.77 278.182 1586.77 280.205V280.297Z" fill="#1C75BC"/>
<path d="M1616.57 276.437C1616.57 281.229 1614.11 283.691 1610.06 283.691C1606 283.691 1603.54 281.147 1603.54 276.223V259.131H1596.9V276.396C1596.9 285.285 1601.85 289.81 1609.97 289.81C1618.1 289.81 1623.26 285.325 1623.26 276.182V259.131H1616.62L1616.57 276.437Z" fill="#1C75BC"/>
<path d="M1640.49 271.258C1635.27 269.92 1633.97 269.276 1633.97 267.284V267.202C1633.97 265.731 1635.31 264.566 1637.86 264.566C1640.42 264.566 1643.04 265.69 1645.71 267.549L1649.16 262.543C1645.98 259.988 1642.01 258.629 1637.93 258.702C1631.8 258.702 1627.36 262.329 1627.36 267.805V267.897C1627.36 273.894 1631.29 275.579 1637.36 277.091C1642.47 278.379 1643.49 279.247 1643.49 280.933V281.014C1643.49 282.782 1641.85 283.865 1639.13 283.865C1635.68 283.865 1632.83 282.445 1630.11 280.197L1626.19 284.897C1629.72 288.026 1634.28 289.746 1639 289.729C1645.52 289.729 1650.09 286.368 1650.09 280.371V280.289C1650.07 275.058 1646.62 272.852 1640.49 271.258Z" fill="#1C75BC"/>
<path d="M1660.38 259.131H1653.74V289.33H1660.38V259.131Z" fill="#1C75BC"/>
<path d="M1686.54 277.725L1672.38 259.131H1666.26V289.33H1672.8V270.134L1687.43 289.33H1693.08V259.131H1686.54V277.725Z" fill="#1C75BC"/>
<path d="M1705.48 277.081H1719.72V271.176H1705.48V265.036H1721.66V259.131H1698.88V289.33H1721.87V283.425H1705.48V277.081Z" fill="#1C75BC"/>
<path d="M1738.72 271.258C1733.49 269.92 1732.2 269.276 1732.2 267.284V267.202C1732.2 265.731 1733.54 264.566 1736.08 264.566C1738.63 264.566 1741.26 265.69 1743.94 267.549L1747.38 262.543C1744.2 259.987 1740.23 258.627 1736.15 258.702C1730.02 258.702 1725.58 262.329 1725.58 267.805V267.897C1725.58 273.894 1729.51 275.579 1735.59 277.091C1740.64 278.379 1741.72 279.247 1741.72 280.933V281.015C1741.72 282.782 1740.08 283.865 1737.36 283.865C1733.91 283.865 1731.06 282.445 1728.34 280.197L1724.42 284.897C1727.94 288.044 1732.5 289.779 1737.23 289.77C1743.75 289.77 1748.31 286.409 1748.31 280.412V280.33C1748.29 275.058 1744.85 272.852 1738.72 271.258Z" fill="#1C75BC"/>
<path d="M1764.91 271.258C1759.67 269.919 1758.38 269.276 1758.38 267.284V267.202C1758.38 265.731 1759.72 264.566 1762.27 264.566C1764.82 264.566 1767.45 265.69 1770.13 267.549L1773.57 262.543C1770.39 259.99 1766.41 258.631 1762.33 258.702C1756.2 258.702 1751.77 262.329 1751.77 267.805V267.897C1751.77 273.894 1755.69 275.579 1761.77 277.091C1766.88 278.378 1767.9 279.247 1767.9 280.933V281.014C1767.9 282.782 1766.26 283.865 1763.54 283.865C1760.19 283.777 1756.98 282.473 1754.53 280.197L1750.59 284.896C1754.13 288.027 1758.69 289.747 1763.41 289.729C1769.92 289.729 1774.5 286.368 1774.5 280.371V280.289C1774.48 275.058 1771.02 272.851 1764.91 271.258Z" fill="#1C75BC"/>
<path d="M1786.39 265.261H1795.58V289.33H1802.22V265.261H1811.41V259.131H1786.39V265.261Z" fill="#1C75BC"/>
<path d="M1820.94 277.081H1835.17V271.176H1820.94V265.036H1837.12V259.131H1814.34V289.33H1837.34V283.425H1820.94V277.081Z" fill="#1C75BC"/>
<path d="M1848.61 259.131H1841.97V289.33H1863.67V283.303H1848.61V259.131Z" fill="#1C75BC"/>
<path d="M1873.15 277.081H1887.39V271.176H1873.15V265.036H1889.34V259.131H1866.56V289.33H1889.54V283.425H1873.15V277.081Z" fill="#1C75BC"/>
<path d="M1907.9 283.782C1902.72 283.782 1899.15 279.46 1899.15 274.291V274.199C1899.15 269.019 1902.81 264.789 1907.9 264.789C1910.97 264.789 1913.3 266.087 1915.63 268.202L1919.86 263.329C1917.06 260.57 1913.64 258.67 1907.94 258.67C1905.87 258.613 1903.81 258.977 1901.88 259.74C1899.95 260.503 1898.2 261.65 1896.73 263.11C1895.26 264.571 1894.1 266.314 1893.32 268.236C1892.54 270.158 1892.16 272.218 1892.2 274.291V274.372C1892.16 276.419 1892.53 278.452 1893.3 280.351C1894.06 282.25 1895.2 283.975 1896.65 285.424C1898.09 286.874 1899.82 288.017 1901.71 288.786C1903.61 289.555 1905.64 289.934 1907.69 289.901C1910.03 289.999 1912.37 289.56 1914.52 288.618C1916.67 287.677 1918.58 286.256 1920.1 284.466L1915.87 280.196C1913.47 282.351 1911.36 283.782 1907.9 283.782Z" fill="#1C75BC"/>
<path d="M1937.25 258.619C1927.94 258.619 1921.16 265.648 1921.16 274.24V274.322C1921.16 282.914 1927.84 289.85 1937.17 289.85C1946.5 289.85 1953.26 282.822 1953.26 274.24V274.148C1953.26 265.556 1946.58 258.619 1937.25 258.619ZM1946.32 274.322C1946.32 279.501 1942.61 283.731 1937.25 283.731C1936.02 283.731 1934.8 283.484 1933.67 283.004C1932.53 282.523 1931.5 281.819 1930.65 280.934C1929.79 280.048 1929.12 279 1928.67 277.85C1928.23 276.7 1928.02 275.472 1928.06 274.24V274.148C1928.06 268.968 1931.78 264.739 1937.13 264.739C1938.36 264.745 1939.58 264.997 1940.71 265.482C1941.84 265.966 1942.86 266.672 1943.71 267.558C1944.56 268.443 1945.23 269.491 1945.67 270.639C1946.11 271.787 1946.32 273.011 1946.27 274.24L1946.32 274.322Z" fill="#1C75BC"/>
<path d="M1972.57 271.901L1964.63 259.131H1957.47V289.33H1963.98V269.746L1972.4 282.516H1972.57L1981.07 269.613V289.33H1987.67V259.131H1980.51L1972.57 271.901Z" fill="#1C75BC"/>
</svg>
