<?xml version="1.0" encoding="UTF-8"?>
<svg width="200px" height="28px" viewBox="0 0 200 28" version="1.1" xmlns="http://www.w3.org/2000/svg" xmlns:xlink="http://www.w3.org/1999/xlink">
    <title>Logo Copy 3</title>
    <defs>
        <filter color-interpolation-filters="auto" id="filter-1">
            <feColorMatrix in="SourceGraphic" type="matrix" values="0 0 0 0 1.000000 0 0 0 0 1.000000 0 0 0 0 1.000000 0 0 0 1.000000 0"></feColorMatrix>
        </filter>
    </defs>
    <g id="Screens" stroke="none" stroke-width="1" fill="none" fill-rule="evenodd">
        <g id="Logo-Copy-3" transform="translate(0.000000, -10.000000)" filter="url(#filter-1)">
            <g id="RingCentral-MCM-SidebySide-FullColor" transform="translate(0.000000, 10.000000)">
                <polygon id="Path" fill="#000000" points="129.666497 27.4433127 129.666497 0 130.669892 0 130.669892 27.4433127"></polygon>
                <g id="Group" transform="translate(0.000000, 6.734290)">
                    <path d="M5.33682654,9.05304475 L4.51432575,13.8668607 L0,13.8668607 L2.39113612,0.0580071122 L8.89471949,0.0580071122 C9.90100005,0.0580071122 10.7531003,0.118926088 11.4478518,0.239184756 C12.1426032,0.362576103 12.709631,0.546886427 13.1504552,0.796775911 C13.5897594,1.04513789 13.9090942,1.35439296 14.1053681,1.72612039 C14.3047591,2.09784783 14.4044546,2.5367596 14.4044546,3.04906929 C14.4044546,3.31614968 14.371738,3.63164422 14.3078762,3.98933932 C14.1676585,4.78123423 13.8592464,5.48877979 13.3794457,6.11039671 C12.9012164,6.72893273 12.2422987,7.14907432 11.4011211,7.36463377 C11.6815051,7.46770153 11.9338609,7.57392787 12.1566173,7.68326099 C12.380945,7.79101483 12.5725304,7.9284644 12.731425,8.09403042 C12.8903195,8.26114984 13.0149517,8.46575786 13.1037245,8.70943376 C13.1925231,8.95153038 13.2377081,9.26547152 13.2377081,9.64812451 C13.2377081,10.046415 13.1925231,10.5040711 13.1037245,11.0273063 C13.0149517,11.5146063 12.94483,11.9175829 12.8934366,12.2377894 C12.8420432,12.55797 12.8171064,12.806332 12.8171064,12.9859304 C12.8171064,13.2920786 12.9323874,13.4451398 13.1598065,13.4451398 L13.1037245,13.8668607 L8.53174542,13.8668607 C8.505263,13.7387833 8.49282038,13.5919615 8.49282038,13.4263955 C8.49282038,13.2077293 8.50995152,12.9312767 8.5410967,12.5892191 C8.57226765,12.253401 8.62677816,11.8723014 8.70310834,11.4505806 C8.78098418,11.0273063 8.81838931,10.6711905 8.81838931,10.377547 C8.81838931,9.89180041 8.66727463,9.55129621 8.36818812,9.34982087 C8.06755594,9.15300572 7.51611358,9.05459814 6.71386102,9.05459814 L5.33682654,9.05459814 L5.33682654,9.05304475 Z M5.87268343,6.02294057 L7.65007136,6.02294057 C8.35105698,6.02294057 8.89938225,5.92611228 9.2935015,5.73556249 C9.69071209,5.54343341 9.9259368,5.20606189 10.002267,4.71873597 C10.016281,4.65471021 10.0209695,4.5609887 10.0209695,4.43135789 C10.0209695,4.03620007 9.87454338,3.74566342 9.5816653,3.5597997 C9.29038441,3.37551527 8.90561644,3.28179376 8.43362134,3.28179376 L6.33066448,3.28179376 L5.87268343,6.02294057 Z" id="Shape" fill="#0684BD"></path>
                    <path d="M20.7413275,3.81595454 L24.3770963,3.81595454 L24.1076093,5.38879293 C24.668403,4.77496887 25.2369765,4.31420601 25.8103158,3.99713219 C26.3850462,3.68477033 27.0548351,3.52699717 27.8196825,3.52699717 C28.9413213,3.52699717 29.7638736,3.79097077 30.2870818,4.31420601 C30.8105476,4.83744124 31.0707349,5.59966631 31.0707349,6.59616924 C31.0707349,6.99288044 31.0333812,7.40678256 30.9571284,7.84100826 L29.9241078,13.863728 L25.9442736,13.863728 L26.8631724,8.55168649 C26.900526,8.32051542 26.9208773,8.0987165 26.9208773,7.88005025 C26.9208773,7.53330659 26.8399874,7.24748189 26.6810414,7.01789011 C26.5220953,6.78671903 26.2245545,6.67269983 25.7915102,6.67269983 C25.1808945,6.67269983 24.7322648,6.85543087 24.4534265,7.21936544 C24.1714969,7.58330002 23.9798857,8.09247703 23.8801902,8.74378968 L23.0000618,13.8653073 L19.021593,13.8653073 L20.7413275,3.81595454 Z" id="Path" fill="#0684BD"></path>
                    <path d="M34.7782741,14.1964135 L34.7782741,14.2541997 C34.7782741,14.394782 34.8357214,14.521306 34.9511312,14.638432 C35.0912716,14.803998 35.3653699,14.8852147 35.7734259,14.8852147 C36.3468682,14.8852147 36.7799125,14.7399723 37.074362,14.4463288 C37.3670083,14.1526854 37.5774765,13.6481944 37.7052517,12.9296975 L37.8577574,12.1050259 C37.5244087,12.3986694 37.114807,12.6563776 36.6240578,12.8734904 C36.1333086,13.0905774 35.5243159,13.1999105 34.7968221,13.1999105 C34.1986491,13.1999105 33.6705463,13.1015288 33.218954,12.910979 C32.7671041,12.7204034 32.3886734,12.458009 32.0831466,12.126877 C31.7763317,11.7926382 31.5457698,11.3974803 31.393264,10.9367175 C31.2405006,10.4759546 31.1642477,9.98549602 31.1642477,9.459154 C31.1642477,9.29358797 31.1750674,9.12646856 31.193873,8.96090253 C31.2108753,8.79375722 31.2327723,8.62195173 31.2608519,8.44390677 C31.362093,7.83008271 31.5442241,7.21623276 31.805957,6.60240871 C32.0661442,5.98858465 32.4164954,5.44191904 32.8575256,4.96241188 C33.2967526,4.48132543 33.826401,4.09398637 34.4449253,3.79252417 C35.063192,3.49264125 35.7860488,3.34271274 36.6147838,3.34271274 C37.2284135,3.34271274 37.7737762,3.48795518 38.2503568,3.77846594 C38.728483,4.06897671 39.108717,4.45947434 39.3905436,4.94208829 L39.5994662,3.62853743 L43.0996285,3.62853743 L41.7038915,11.7239263 C41.5745707,12.4751999 41.4125333,13.1796128 41.2162336,13.8325048 C41.0183883,14.4838174 40.7022994,15.0539134 40.2677095,15.53966 C39.8346652,16.026986 39.2411292,16.4065322 38.4901927,16.6814313 C37.7379683,16.9547512 36.7425589,17.0922007 35.5055103,17.0922007 C34.6394217,17.0922007 33.9057452,17.0156701 33.3060266,16.8626089 C32.7078535,16.7095219 32.221999,16.5049138 31.8528422,16.2503383 C31.4818822,15.9941834 31.2108753,15.70054 31.0395639,15.3663012 C30.8697982,15.0351691 30.782468,14.6899788 30.782468,14.3307303 L30.782468,14.1979927 L34.7782741,14.1979927 L34.7782741,14.1964135 Z M37.1506149,6.17913444 C36.8577111,6.17913444 36.6037065,6.23536735 36.3857675,6.35249333 C36.1691165,6.46964521 35.9838942,6.62897176 35.8295851,6.83513318 C35.6770793,7.0397412 35.5523955,7.28183782 35.457337,7.56610911 C35.3607329,7.85038041 35.2860256,8.15026332 35.2375947,8.47044393 C35.2236837,8.56103275 35.2144097,8.64696139 35.2097727,8.7219127 C35.2017868,8.80002258 35.1986955,8.87810658 35.1986955,8.95308378 C35.2002411,9.35292766 35.298391,9.69498526 35.4946906,9.98549602 C35.692536,10.2775861 36.0135194,10.4275405 36.4620204,10.4400194 L36.5570789,10.4400194 C36.8391631,10.4400194 37.088273,10.3806797 37.314198,10.2635278 C37.5370316,10.151062 37.7284367,9.99486817 37.8873827,9.80431838 C38.0463288,9.61066179 38.1771952,9.39041627 38.2784364,9.1389475 C38.3796776,8.88905801 38.4574761,8.62821709 38.5089984,8.35800402 C38.5448063,8.15181672 38.5667032,7.93941583 38.5667032,7.72074959 C38.5667032,7.29589604 38.4621131,6.93354075 38.2580851,6.63365784 C38.0556028,6.33219564 37.6988114,6.18068784 37.1895142,6.18068784 L37.1506149,6.18068784 L37.1506149,6.17913444 Z" id="Shape" fill="#0684BD"></path>
                    <path d="M52.4259239,5.50907749 C52.4259239,5.46221674 52.4305609,5.42004206 52.4367436,5.38100006 C52.4429263,5.34664414 52.4475633,5.30289018 52.4475633,5.25447604 C52.4475633,4.65002413 52.2747062,4.1830218 51.9305377,3.85812922 C51.5876573,3.53168325 51.1018028,3.36924991 50.4755501,3.36924991 C49.7153397,3.36924991 49.0689934,3.68477033 48.5393449,4.32047137 C48.0096965,4.95614652 47.6325538,5.90892137 47.4161605,7.17563737 C47.3692752,7.41928739 47.3334673,7.65201186 47.3087366,7.87536418 C47.2837483,8.0987165 47.2729287,8.31427595 47.2729287,8.51888397 C47.2729287,8.83437851 47.3056453,9.12488927 47.3710785,9.38886287 C47.4380574,9.65438987 47.5532096,9.88866773 47.715247,10.0885897 C47.8772844,10.2869582 48.092132,10.4447055 48.3569563,10.5587247 C48.6217805,10.6758766 48.9597663,10.7305302 49.3696256,10.7305302 C50.0564168,10.7305302 50.6079622,10.5196827 51.0252923,10.0979618 C51.4413342,9.67468756 51.7450577,9.14989893 51.9382661,8.51888397 L56.0427841,8.51888397 C55.8014024,9.3654325 55.4556883,10.1213922 55.0038384,10.7867631 C54.5522461,11.4505806 54.0146117,12.0175439 53.3932537,12.4814394 C52.7731837,12.945335 52.0784065,13.3030042 51.3135591,13.5513403 C50.547166,13.798123 49.7372367,13.9230936 48.8804221,13.9230936 C47.9396263,13.9230936 47.1077999,13.802809 46.3833975,13.5607124 C45.6605407,13.3186158 45.0484567,12.9687653 44.5468878,12.5095559 C44.0484103,12.0503464 43.6666306,11.4896226 43.407989,10.8320704 C43.1478018,10.172939 43.0202843,9.42790487 43.0202843,8.59072849 C43.0202843,8.35018527 43.031104,8.0987165 43.0560922,7.83945486 C43.0792772,7.58016734 43.1166309,7.31150766 43.1650617,7.03194833 C43.3471928,5.9807659 43.6759046,5.03267711 44.1604711,4.1830218 C44.6432344,3.33644738 45.2274964,2.61797628 45.9160909,2.02600331 C46.6028822,1.43247695 47.3708209,0.977979445 48.2214528,0.656219549 C49.0736304,0.337592333 49.9505387,0.176712384 50.8539809,0.176712384 C52.7466498,0.176712384 54.1611924,0.593747177 55.0958056,1.42779087 C56.0288731,2.26186046 56.4961796,3.44267371 56.4961796,4.96396527 L56.4961796,5.23573174 C56.4961796,5.32163448 56.4884513,5.41066991 56.4791773,5.5074982 L52.4259239,5.5074982 L52.4259239,5.50907749 Z" id="Path" fill="#FF8800"></path>
                    <path d="M60.6398545,9.51380761 C60.6272316,9.57627998 60.6179576,9.64033164 60.6117749,9.70435741 C60.6040466,9.76840906 60.6025009,9.83243483 60.6025009,9.89648649 C60.6025009,10.3837865 60.7611893,10.7680188 61.0790815,11.0569762 C61.4000649,11.3459335 61.7942099,11.4880692 62.2646078,11.4880692 C62.583788,11.4880692 62.8924061,11.4146454 63.1835067,11.2694029 C63.4764105,11.1210278 63.7177922,10.903915 63.9094548,10.6071388 L67.7166896,10.6071388 C67.4361511,11.2334677 67.0700857,11.756703 66.6169477,12.1800031 C66.1620065,12.6001447 65.663529,12.9422023 65.1135292,13.2061759 C64.5653328,13.4654375 63.987511,13.6528805 63.3828977,13.7622136 C62.7754507,13.8699934 62.1819147,13.924647 61.5948189,13.924647 C60.8796905,13.924647 60.2222669,13.8356116 59.6240939,13.6544339 C59.0243752,13.476389 58.5073496,13.2077293 58.0743054,12.8500601 C57.6397154,12.4939442 57.3030177,12.0550325 57.0600904,11.5349299 C56.8171631,11.0163808 56.6955706,10.4212751 56.6955706,9.74342529 C56.6955706,9.57627998 56.7063903,9.40602789 56.7251959,9.232669 C56.7424559,9.0608635 56.7656409,8.88747873 56.7906291,8.70630108 C56.9307696,7.8894224 57.2048678,7.14283485 57.6131814,6.47277789 C58.0212375,5.80272093 58.5212606,5.23262495 59.113251,4.76559672 C59.706787,4.29859439 60.3703933,3.9377925 61.1025241,3.68163765 C61.8377462,3.42548281 62.6041393,3.29895878 63.4063403,3.29895878 C64.210087,3.29895878 64.9221242,3.41297798 65.5403908,3.64414905 C66.1589151,3.87374084 66.6792896,4.19394734 67.1012566,4.60316338 C67.5203899,5.01237942 67.8413734,5.51218428 68.0562211,6.09947117 C68.272872,6.68675806 68.3818415,7.33183125 68.3818415,8.03624412 C68.3818415,8.47202322 68.3303193,8.96245593 68.2290781,9.51380761 L60.6398545,9.51380761 L60.6398545,9.51380761 Z M64.599595,7.47865297 C64.6119604,7.41460131 64.6184006,7.31932642 64.6184006,7.19124899 C64.6184006,6.78047956 64.4780026,6.43528929 64.1992674,6.15570407 C63.9171832,5.87456545 63.5668321,5.7339832 63.1461531,5.7339832 C62.5479801,5.7339832 62.0636712,5.88862368 61.6929688,6.20256482 C61.3220087,6.51650596 61.0868098,6.94133362 60.984023,7.47865297 L64.599595,7.47865297 L64.599595,7.47865297 Z" id="Shape" fill="#FF8800"></path>
                    <path d="M69.6778831,3.87374084 L73.3104575,3.87374084 L73.0425419,5.44660512 C73.604907,4.83275517 74.1719091,4.3719923 74.7466395,4.05491848 C75.3200818,3.74255663 75.9898707,3.58478347 76.7531725,3.58478347 C77.8760994,3.58478347 78.6986517,3.84875707 79.2221175,4.3719923 C79.7440376,4.89522754 80.0073162,5.6574526 80.0073162,6.65395553 C80.0073162,7.05066674 79.9666136,7.46456885 79.8903607,7.89879455 L78.8606891,13.9215143 L74.8805972,13.9215143 L75.7997537,8.60947279 C75.8371073,8.37830172 75.8559129,8.15650279 75.8559129,7.93783655 C75.8559129,7.59109288 75.7763111,7.30526819 75.6158194,7.0756764 C75.4571309,6.84450533 75.1611358,6.73048613 74.7280915,6.73048613 C74.1157498,6.73048613 73.6672489,6.91321717 73.3867104,7.27715174 C73.1064295,7.64108631 72.9163125,8.15026332 72.8135256,8.80157598 L71.933526,13.9230936 L67.9549799,13.9230936 L69.6778831,3.87374084 Z" id="Path" fill="#FF8800"></path>
                    <path d="M86.2162594,13.8481164 C85.7677584,13.8715468 85.3566111,13.8918445 84.9794684,13.9059027 C84.6056747,13.9184075 84.2568692,13.9230936 83.9374314,13.9230936 C83.3377127,13.9230936 82.8345982,13.8949771 82.4278302,13.8371908 C82.0182286,13.7809579 81.6941538,13.6763109 81.4512265,13.5294892 C81.2098449,13.3842208 81.0385335,13.1858523 80.9357466,12.9437557 C80.8327022,12.7032383 80.7829832,12.3939833 80.7829832,12.0253626 C80.7829832,11.7957708 80.7999856,11.5349299 80.8311565,11.2475259 C80.8638731,10.9601479 80.9092127,10.6415206 80.9746459,10.2978838 L81.7021397,6.09947117 L80.2845057,6.09947117 L80.6675735,3.79565685 L82.139821,3.79565685 L82.6960034,0.668698489 L86.6168447,0.668698489 L86.0622079,3.79565685 L87.9749705,3.79565685 L87.5919028,6.09947117 L85.6788826,6.09947117 L85.0495386,9.75903691 C85.0232623,9.8761629 85.0060023,9.97770316 84.9920913,10.0729781 C84.9779227,10.1713856 84.9717401,10.2572884 84.9717401,10.333819 C84.9717401,10.577469 85.0495386,10.7508538 85.202302,10.8555008 C85.3581567,10.9570152 85.6430746,11.0070086 86.0637536,11.0070086 L86.6946432,11.0070086 L86.2162594,13.8481164 Z" id="Path" fill="#FF8800"></path>
                    <path d="M88.7944315,3.87374084 L92.4115492,3.87374084 L92.0658351,5.90736798 L92.10628,5.90736798 C92.9069354,4.35951336 94.0674735,3.58636275 95.5860911,3.58636275 C95.6749669,3.58636275 95.7607514,3.59418151 95.8447326,3.60666045 C95.9258801,3.61916528 96.0144984,3.63322351 96.1033742,3.64570245 L95.394686,7.63482095 C95.2684565,7.60828379 95.1360444,7.58330002 95.0036323,7.55673696 C94.8681289,7.53330659 94.7310798,7.51924836 94.5906817,7.51924836 C93.7745697,7.51924836 93.1279657,7.7379146 92.6498395,8.1721403 C92.1717133,8.60634011 91.8368188,9.37011857 91.6451561,10.4540776 L91.0516201,13.9262004 L87.0715283,13.9262004 L88.7944315,3.87374084 Z" id="Path" fill="#FF8800"></path>
                    <path d="M101.427681,13.9449447 L101.406041,12.5626561 C100.756346,13.0968428 100.114637,13.459198 99.4822016,13.6450618 C98.8528577,13.8293721 98.1611718,13.9230936 97.4071441,13.9230936 C96.9867227,13.9230936 96.5848494,13.8762328 96.2030697,13.7809579 C95.8215476,13.6841038 95.4881988,13.5357286 95.209206,13.3279879 C94.9273794,13.1233799 94.7045458,12.8734904 94.5378714,12.5688956 C94.3742883,12.2705919 94.2900495,11.9082108 94.2900495,11.4849365 C94.2900495,11.3068915 94.3088551,11.1100764 94.3493001,10.8929635 C94.4755295,10.1370038 94.7527191,9.54661014 95.1795807,9.11707052 C95.6064423,8.68911018 96.1049199,8.36737617 96.6719219,8.15026332 C97.2358327,7.93159708 97.8386427,7.78164267 98.4695323,7.69731921 C99.100422,7.61452326 99.6877753,7.53799266 100.229789,7.46770153 C100.772061,7.39585701 101.232927,7.30213551 101.606978,7.18032345 C101.982318,7.0569321 102.198711,6.83826586 102.247142,6.51805936 C102.247142,6.49307559 102.251779,6.46964521 102.257961,6.4524543 C102.264144,6.43215661 102.267493,6.41185891 102.267493,6.38529586 C102.269039,6.23068127 102.222154,6.10884332 102.133535,6.01980789 C102.044659,5.93235175 101.938781,5.86361402 101.817189,5.81833255 C101.697142,5.7730252 101.567821,5.74335535 101.426135,5.72305766 C101.285995,5.70273407 101.170843,5.69494121 101.081967,5.69494121 C100.938735,5.69494121 100.792154,5.70431336 100.633208,5.72305766 C100.47452,5.74335535 100.323302,5.78866271 100.183162,5.85892794 C100.043021,5.92921907 99.9137003,6.02762665 99.7921078,6.15570407 C99.6705154,6.28533489 99.5834428,6.45714038 99.5334663,6.67425323 L95.7076835,6.67425323 C95.7965593,6.13540637 95.9755991,5.659006 96.2435146,5.24355049 C96.5114302,4.82806909 96.8916642,4.47508596 97.3806101,4.18926127 C97.872905,3.90185729 98.4741693,3.68008426 99.1877521,3.52699717 C99.902623,3.3708033 100.759438,3.29740538 101.751756,3.29740538 C102.658289,3.29740538 103.401497,3.35832436 103.979319,3.48013642 C104.562035,3.60042098 105.016719,3.77691255 105.348522,4.00808362 C105.680325,4.23612202 105.910887,4.51257456 106.037117,4.83120177 C106.163346,5.14982899 106.230325,5.51063088 106.230325,5.90736798 C106.230325,6.14788531 106.213065,6.39935408 106.180348,6.65237625 C106.147632,6.90853109 106.105641,7.17719077 106.055922,7.45990867 L105.251918,12.1581261 C105.21611,12.375239 105.196016,12.5548373 105.196016,12.6938662 C105.196016,12.8360018 105.220747,12.9609466 105.272269,13.0687263 C105.323534,13.1764801 105.420138,13.3030042 105.55899,13.4435864 L105.544822,13.9433913 L101.427681,13.9433913 L101.427681,13.9449447 Z M99.5880798,11.6583213 C99.9307026,11.6583213 100.234426,11.5974023 100.496159,11.4693249 C100.757892,11.3412474 100.977634,11.1647559 101.153583,10.9398243 C101.334168,10.716472 101.471475,10.4540776 101.575807,10.1526413 C101.678594,9.85431181 101.747119,9.53099852 101.786018,9.18580825 C101.429226,9.33886944 101.067798,9.44978185 100.704824,9.52317976 C100.342108,9.59347089 100.002319,9.67000149 99.6908667,9.75277155 C99.3778691,9.83556751 99.1081503,9.9526935 98.88712,10.107334 C98.6627407,10.2603952 98.5256916,10.4962523 98.4741693,10.8180122 L98.4741693,10.9304521 C98.4741693,11.1506977 98.5661365,11.3256358 98.7516165,11.4583993 C98.9399302,11.5942696 99.2173774,11.6583213 99.5880798,11.6583213 Z" id="Shape" fill="#FF8800"></path>
                    <polygon id="Path" fill="#FF8800" points="106.225688 13.9230936 108.615289 0.114240013 112.596669 0.114240013 110.207068 13.9230936"></polygon>
                    <polygon id="Path" fill="#0684BD" points="13.8467781 13.8668607 16.0883555 5.71055283 18.9701738 5.71055283 17.8081158 13.8668607"></polygon>
                    <path d="M20.4220185,2.06973138 C20.4204471,2.06973138 20.4220185,2.06973138 20.4126673,2.05569905 C20.403316,2.03850814 20.3846134,2.00725901 20.3565853,1.96977041 C20.2989577,1.89168642 20.2054964,1.7823533 20.0683958,1.65896195 C19.7895575,1.41686533 19.3378364,1.13259403 18.6041341,0.99827714 C18.2427315,0.932672089 17.9342937,0.929539409 17.6679238,0.957655859 C17.0245658,1.02481431 16.6335894,1.28565523 16.4964888,1.39343495 C16.4482124,1.42623748 16.4419782,1.43560963 16.4419782,1.43560963 C16.2597184,1.61991995 15.9606319,1.61834067 15.778372,1.43405623 C15.5945665,1.25129931 15.5945665,0.951416389 15.778372,0.768659461 C15.8251027,0.723377995 16.4248471,0.142356464 17.569774,0.0220719066 C17.9218253,-0.0154166941 18.3252959,-0.00915133407 18.7723542,0.0720653375 C20.59181,0.396932024 21.2289339,1.57150581 21.2616247,1.6480364 C21.3784771,1.88076087 21.28499,2.16345288 21.0529082,2.28373744 C21.001489,2.30872121 20.9469785,2.32433283 20.8908965,2.3305723 C20.7008568,2.34463053 20.5108171,2.24935563 20.4220185,2.06973138 Z" id="Path" fill="#FF8800"></path>
                    <path d="M19.2521549,3.14121151 C19.2505835,3.14276491 19.2521549,3.13965812 19.2241011,3.09748344 C19.1929559,3.05999484 19.1446538,2.99752247 19.0683236,2.93191742 C18.9172347,2.80070731 18.6679959,2.64140665 18.2520828,2.56329677 C18.0480033,2.52583406 17.873549,2.52425477 17.7271228,2.53989228 C17.3688373,2.577355 17.1569779,2.72106993 17.0853363,2.77572354 C17.065088,2.79133516 17.0666337,2.79291445 17.0666337,2.79291445 C16.9139733,2.94597564 16.666306,2.94597564 16.5120742,2.79291445 C16.3594139,2.63827397 16.3594139,2.39149128 16.5120742,2.23687669 C16.5494536,2.1978088 16.9295588,1.83390012 17.6461041,1.75892292 C17.8657434,1.73704594 18.1149821,1.74173201 18.3907033,1.79017205 C19.5200705,1.99164739 19.9282038,2.725756 19.9546862,2.78822837 C20.0512646,2.98033156 19.9733888,3.21774211 19.7786605,3.31459629 C19.735047,3.33802666 19.689862,3.35208489 19.6431313,3.35519168 C19.4858082,3.37238259 19.325368,3.29116591 19.2521549,3.14121151 Z" id="Path" fill="#FF8800"></path>
                    <path d="M18.9172249,4.10491191 C18.9140918,4.58910515 18.4576822,4.9780235 17.8968886,4.97489082 C17.3345493,4.97178403 16.8812567,4.57817961 16.8827985,4.09709316 C16.8843738,3.61289992 17.3407834,3.22400747 17.9046942,3.22555623 C18.4654621,3.22711426 18.920326,3.62540475 18.9172249,4.10491191 Z" id="Path" fill="#FF8800"></path>
                    <path d="M114.722991,0.132984314 C113.726036,0.132984314 112.916106,0.946730314 112.916106,1.94636592 C112.916106,2.94752904 113.726036,3.76130093 114.722991,3.76130093 C115.719946,3.76130093 116.531678,2.94752904 116.531678,1.94636592 C116.531678,0.946730314 115.721491,0.132984314 114.722991,0.132984314 Z M114.722991,3.43330156 C113.905333,3.43330156 113.240181,2.76635139 113.240181,1.94636592 C113.240181,1.12790796 113.905333,0.459404395 114.722991,0.459404395 C115.540906,0.459404395 116.206061,1.12790796 116.206061,1.94636592 C116.207604,2.76793068 115.540906,3.43330156 114.722991,3.43330156 Z M115.559712,2.54144568 C115.545543,2.4633358 115.537815,2.37432626 115.537815,2.27436529 C115.537815,2.19625541 115.526995,2.12909696 115.506644,2.07286406 C115.486293,2.01976384 115.459759,1.97134969 115.425496,1.93541449 C115.41004,1.91824947 115.396129,1.90419125 115.378869,1.89168642 C115.39278,1.88076087 115.406948,1.86670265 115.419314,1.85264442 C115.458213,1.81202314 115.492475,1.76047631 115.5221,1.69645055 C115.551726,1.6308455 115.565894,1.55276151 115.565894,1.45590732 C115.565894,1.28410183 115.508189,1.14509886 115.39278,1.04513789 C115.282265,0.948283709 115.118681,0.899869563 114.905379,0.899869563 L114.070462,0.899869563 C114.025122,0.899869563 113.989314,0.935804769 113.989314,0.981086235 L113.989314,2.73668155 C113.989314,2.7819889 114.025122,2.81789822 114.070462,2.81789822 L114.377277,2.81789822 C114.422359,2.81789822 114.458167,2.78040962 114.458167,2.73668155 L114.458167,2.09474104 L114.829127,2.09474104 C114.888119,2.09474104 114.93655,2.10253391 114.970813,2.11659213 C115.000438,2.12754357 115.023623,2.14470858 115.040883,2.17127164 C115.059431,2.20094148 115.073599,2.23843008 115.081328,2.28529083 C115.090602,2.33839106 115.095496,2.4055495 115.095496,2.47897331 C115.095496,2.52270138 115.097042,2.57111553 115.101679,2.61797628 C115.106316,2.67734186 115.124864,2.73199547 115.152944,2.78040962 C115.167112,2.80383999 115.193389,2.81945162 115.221468,2.81945162 L115.55018,2.81945162 C115.582897,2.81945162 115.612522,2.79915392 115.624887,2.76948407 C115.639056,2.73981423 115.632873,2.70543242 115.609431,2.68202793 C115.598611,2.6695231 115.575168,2.6320345 115.559712,2.54144568 Z M114.458167,1.31535096 L114.874208,1.31535096 C114.908471,1.31535096 114.942733,1.31690436 114.97545,1.32314383 C115.000438,1.3278299 115.022077,1.33564866 115.040883,1.34815349 C115.05634,1.36063243 115.070508,1.37626994 115.079782,1.39812103 C115.090602,1.4215514 115.097042,1.45748661 115.097042,1.49966128 C115.097042,1.56992652 115.081328,1.61991995 115.048611,1.6495898 C115.012803,1.68083893 114.956644,1.69800394 114.880391,1.69800394 L114.459712,1.69800394 L114.459712,1.31535096 L114.458167,1.31535096 Z" id="Shape" fill="#FF8800" fill-rule="nonzero"></path>
                </g>
                <path d="M186.139749,5.79271373 L181.211391,5.79271373 L179.710291,11.040833 C179.546965,11.6094015 179.459893,12.2325977 179.37282,12.8120918 L179.253288,12.8120918 L177.414718,5.78178818 L172.432004,5.78178818 L171.093971,14.0913126 C170.26704,14.7364117 169.081256,15.3268053 168.04772,15.2502747 C166.600718,15.1409416 165.436574,13.9163744 165.545543,12.4512899 C165.654255,10.997105 166.916292,9.93655038 168.363294,10.0458835 C169.451185,10.1224141 170.375752,10.8221668 171.093971,11.5984501 L171.333292,6.50339197 C170.343293,6.07698502 169.222684,5.79271373 168.134792,5.71618313 C164.50093,5.44283738 161.40058,7.94662542 160.780253,11.4453889 L159.855686,5.78178818 L154.927328,5.78178818 L153.42597,11.0299075 C153.262902,11.5984501 153.17583,12.2216722 153.088757,12.8011662 L152.968968,12.8011662 L151.130398,5.79271373 L146.158761,5.79271373 L144.004616,19.1754452 L148.682577,19.1754452 L149.248291,13.4571649 C149.302904,12.9214249 149.335363,12.3747334 149.36808,11.8389933 L149.531148,11.8389933 C149.563864,12.4075359 149.694473,12.9433019 149.835902,13.5118444 L151.554683,19.1754452 L154.383511,19.1754452 L156.308896,13.1728936 C156.450325,12.7464867 156.537397,12.2872772 156.62447,11.8389933 L156.711543,11.8389933 L157.364329,19.1645196 L162.042289,19.1645196 L161.542009,16.1249656 C162.368683,17.5681991 163.717792,18.6725076 165.382218,19.1863707 L170.408468,19.1863707 L170.408468,19.1754452 L174.966897,19.1754452 L175.532611,13.4571649 C175.586967,12.9214249 175.619684,12.3747334 175.652143,11.8389933 L175.815468,11.8389933 C175.848185,12.4075359 175.978536,12.9433019 176.119964,13.5118444 L177.849823,19.1754452 L180.678393,19.1754452 L182.604036,13.1728936 C182.745465,12.7464867 182.832537,12.2872772 182.91961,11.8389933 L183.006682,11.8389933 L183.637572,19.5034445 C185.12811,18.9349019 186.694643,18.3007543 188.098109,17.6775322 L186.139749,5.79271373 Z" id="Path" fill="#005B87" fill-rule="nonzero"></path>
                <path d="M145.81047,22.3571348 C145.973796,22.2696528 146.104405,22.1275171 146.104405,21.8760483 L146.104405,21.8651228 C146.104405,21.7120357 146.049791,21.5917771 145.951899,21.4824439 C145.821548,21.3512338 145.625506,21.2856288 145.375365,21.2856288 L144.352649,21.2856288 L144.352649,23.5051455 L145.408082,23.5051455 C145.908363,23.5051455 146.234756,23.2974048 146.234756,22.8928749 L146.234756,22.8819493 C146.223936,22.5976521 146.060868,22.4555165 145.81047,22.3571348 Z M144.809651,21.7229872 L145.288293,21.7229872 C145.495154,21.7229872 145.603866,21.8104433 145.603866,21.9525789 L145.603866,21.9635045 C145.603866,22.1275171 145.462438,22.2040477 145.255834,22.2040477 L144.809651,22.2040477 L144.809651,21.7229872 Z M145.734475,22.8491468 C145.734475,23.0131335 145.603866,23.08969 145.386185,23.08969 L144.809651,23.08969 L144.809651,22.5976521 L145.375365,22.5976521 C145.625506,22.5976521 145.734475,22.6851342 145.734475,22.8491468 Z" id="Shape" fill="#005B87" fill-rule="nonzero"></path>
                <path d="M147.921078,22.5648755 C147.921078,22.914726 147.736113,23.1006156 147.442437,23.1006156 C147.14876,23.1006156 146.963795,22.914726 146.963795,22.5539241 L146.963795,21.2965543 L146.474077,21.2965543 L146.474077,22.5648755 C146.474077,23.2208742 146.833186,23.5488995 147.431617,23.5488995 C148.030048,23.5488995 148.39972,23.2208742 148.39972,22.5429985 L148.39972,21.2856288 L147.910259,21.2856288 L147.910259,22.5648755 L147.921078,22.5648755 Z" id="Path" fill="#005B87" fill-rule="nonzero"></path>
                <path d="M149.672576,22.1821966 C149.291827,22.083789 149.193935,22.040061 149.193935,21.8869739 L149.193935,21.8760483 C149.193935,21.7667152 149.291827,21.6792332 149.476792,21.6792332 C149.661757,21.6792332 149.857541,21.7667152 150.053583,21.8979253 L150.303724,21.526172 C150.075222,21.3403083 149.803185,21.2419007 149.487869,21.2419007 C149.030867,21.2419007 148.715293,21.504295 148.715293,21.9088509 L148.715293,21.9197764 C148.715293,22.3571348 148.99815,22.4883449 149.444333,22.597678 C149.814005,22.6960597 149.890258,22.7616648 149.890258,22.8819493 L149.890258,22.8928749 C149.890258,23.024085 149.770726,23.1006156 149.574684,23.1006156 C149.324544,23.1006156 149.11794,22.9912824 148.911078,22.8272698 L148.628221,23.1771462 C148.889438,23.4176894 149.226651,23.5270225 149.563864,23.5270225 C150.042506,23.5270225 150.379719,23.2755537 150.379719,22.8381954 L150.379719,22.8272698 C150.368899,22.4664679 150.118759,22.3024553 149.672576,22.1821966 Z" id="Path" fill="#005B87" fill-rule="nonzero"></path>
                <polygon id="Path" fill="#005B87" fill-rule="nonzero" points="151.130398 21.2965543 150.640936 21.2965543 150.640936 23.516097 151.130398 23.516097"></polygon>
                <polygon id="Path" fill="#005B87" fill-rule="nonzero" points="153.045221 22.6632572 152.000866 21.2965543 151.554683 21.2965543 151.554683 23.516097 152.033582 23.516097 152.033582 22.105666 153.110397 23.516097 153.523863 23.516097 153.523863 21.2965543 153.045221 21.2965543"></polygon>
                <polygon id="Path" fill="#005B87" fill-rule="nonzero" points="154.426789 22.6086036 155.471403 22.6086036 155.471403 22.1821966 154.426789 22.1821966 154.426789 21.7229872 155.612831 21.7229872 155.612831 21.2965543 153.948148 21.2965543 153.948148 23.516097 155.623651 23.516097 155.623651 23.0787386 154.426789 23.0787386"></polygon>
                <path d="M156.863791,22.1821966 C156.483041,22.083789 156.385149,22.040061 156.385149,21.8869739 L156.385149,21.8760483 C156.385149,21.7667152 156.483041,21.6792332 156.668006,21.6792332 C156.852971,21.6792332 157.048755,21.7667152 157.24454,21.8979253 L157.494938,21.526172 C157.266437,21.3403083 156.9944,21.2419007 156.678826,21.2419007 C156.222081,21.2419007 155.906508,21.504295 155.906508,21.9088509 L155.906508,21.9197764 C155.906508,22.3571348 156.189365,22.4883449 156.63529,22.597678 C157.005219,22.6960597 157.081472,22.7616648 157.081472,22.8819493 L157.081472,22.8928749 C157.081472,23.024085 156.961683,23.1006156 156.765898,23.1006156 C156.515758,23.1006156 156.308896,22.9912824 156.102292,22.8272698 L155.819435,23.1771462 C156.080653,23.4176894 156.417866,23.5270225 156.755079,23.5270225 C157.23372,23.5270225 157.570933,23.2755537 157.570933,22.8381954 L157.570933,22.8272698 C157.560114,22.4664679 157.309973,22.3024553 156.863791,22.1821966 Z" id="Path" fill="#005B87" fill-rule="nonzero"></path>
                <path d="M158.778614,22.1821966 C158.397865,22.083789 158.299973,22.040061 158.299973,21.8869739 L158.299973,21.8760483 C158.299973,21.7667152 158.397865,21.6792332 158.58283,21.6792332 C158.767794,21.6792332 158.963579,21.7667152 159.159363,21.8979253 L159.409504,21.526172 C159.181003,21.3403083 158.909223,21.2419007 158.593649,21.2419007 C158.136647,21.2419007 157.821331,21.504295 157.821331,21.9088509 L157.821331,21.9197764 C157.821331,22.3571348 158.104188,22.4883449 158.550113,22.597678 C158.920043,22.6960597 158.996296,22.7616648 158.996296,22.8819493 L158.996296,22.8928749 C158.996296,23.024085 158.876506,23.1006156 158.680722,23.1006156 C158.430582,23.1006156 158.22372,22.9912824 158.017116,22.8272698 L157.734259,23.1771462 C157.995219,23.4176894 158.332432,23.5270225 158.669902,23.5270225 C159.148544,23.5270225 159.485757,23.2755537 159.485757,22.8381954 L159.485757,22.8272698 C159.474937,22.4664679 159.224539,22.3024553 158.778614,22.1821966 Z" id="Path" fill="#005B87" fill-rule="nonzero"></path>
                <polygon id="Path" fill="#005B87" fill-rule="nonzero" points="160.355967 21.7448382 161.019573 21.7448382 161.019573 23.516097 161.509292 23.516097 161.509292 21.7448382 162.183718 21.7448382 162.183718 21.2965543 160.355967 21.2965543"></polygon>
                <polygon id="Path" fill="#005B87" fill-rule="nonzero" points="162.880041 22.6086036 163.924396 22.6086036 163.924396 22.1821966 162.880041 22.1821966 162.880041 21.7229872 164.065825 21.7229872 164.065825 21.2965543 162.401399 21.2965543 162.401399 23.516097 164.076644 23.516097 164.076644 23.0787386 162.880041 23.0787386"></polygon>
                <polygon id="Path" fill="#005B87" fill-rule="nonzero" points="164.903576 21.2965543 164.424935 21.2965543 164.424935 23.516097 166.013365 23.516097 166.013365 23.067813 164.903576 23.067813"></polygon>
                <polygon id="Path" fill="#005B87" fill-rule="nonzero" points="166.69861 22.6086036 167.742966 22.6086036 167.742966 22.1821966 166.69861 22.1821966 166.69861 21.7229872 167.884394 21.7229872 167.884394 21.2965543 166.219969 21.2965543 166.219969 23.516097 167.906291 23.516097 167.906291 23.0787386 166.69861 23.0787386"></polygon>
                <path d="M169.244324,23.1006156 C168.863574,23.1006156 168.602614,22.7835417 168.602614,22.4008629 L168.602614,22.3899373 C168.602614,22.0072585 168.874394,21.7011102 169.244324,21.7011102 C169.462005,21.7011102 169.63615,21.7995178 169.810038,21.9525789 L170.114792,21.5917771 C169.90793,21.3840364 169.657789,21.2528263 169.244324,21.2528263 C168.569898,21.2528263 168.091256,21.7667152 168.091256,22.4008629 L168.091256,22.4117884 C168.091256,23.0459361 168.569898,23.559825 169.222684,23.559825 C169.64697,23.559825 169.89711,23.4067638 170.125611,23.1662206 L169.821115,22.8491468 C169.657789,23.002208 169.505541,23.1006156 169.244324,23.1006156 Z" id="Path" fill="#005B87" fill-rule="nonzero"></path>
                <path d="M171.398468,21.2528263 C170.712965,21.2528263 170.223503,21.7667152 170.223503,22.4008629 L170.223503,22.4117884 C170.223503,23.0459361 170.712965,23.559825 171.398468,23.559825 C172.083971,23.559825 172.573432,23.0459361 172.573432,22.4117884 L172.573432,22.4008629 C172.573432,21.7667152 172.083971,21.2528263 171.398468,21.2528263 Z M172.062074,22.4117884 C172.062074,22.7944673 171.790037,23.1006156 171.398468,23.1006156 C171.006899,23.1006156 170.724042,22.7835417 170.724042,22.4008629 L170.724042,22.3899373 C170.724042,22.0072585 170.995822,21.7011102 171.387648,21.7011102 C171.779217,21.7011102 172.062074,22.018184 172.062074,22.4117884 Z" id="Shape" fill="#005B87" fill-rule="nonzero"></path>
                <polygon id="Path" fill="#005B87" fill-rule="nonzero" points="173.987717 22.2368502 173.400364 21.2965543 172.877928 21.2965543 172.877928 23.516097 173.356827 23.516097 173.356827 22.0728635 173.966078 23.0131335 173.987717 23.0131335 174.607787 22.0619121 174.607787 23.516097 175.086429 23.516097 175.086429 21.2965543 174.564251 21.2965543"></polygon>
                <path d="M188.380966,13.8179927 C188.380966,13.8179927 193.592181,12.3528823 193.048106,14.550522 C192.504032,16.7591133 176.957716,21.8979253 176.957716,21.8979253 C176.957716,21.8979253 200,17.8524704 200,12.8886223 C200,7.92477433 187.923964,11.4125864 187.923964,11.4125864" id="Path" fill="#F0674A" fill-rule="nonzero"></path>
            </g>
        </g>
    </g>
</svg>