<?xml version="1.0" encoding="UTF-8"?>
<svg width="241px" height="33px" viewBox="0 0 241 33" version="1.1" xmlns="http://www.w3.org/2000/svg" xmlns:xlink="http://www.w3.org/1999/xlink">
    <title>spectrum_enterprise-gsp-logo-secondary copy 7</title>
    <g id="Page-1" stroke="none" stroke-width="1" fill="none" fill-rule="evenodd">
        <g id="spectrum_enterprise-gsp-logo-secondary-copy-7">
            <polygon id="Path" fill="#222222" points="110.884351 9.61652974e-08 110.884351 33 109.786486 33 109.786486 0"></polygon>
            <polygon id="Path" fill="#FF7A00" fill-rule="nonzero" points="241 7.49976768 238.332188 7.49976768 238.332188 24.5575002 241 24.5575002"></polygon>
            <path d="M231.637408,13.2189205 C229.174898,13.2189205 227.264613,14.4163805 226.942938,16.8609104 L229.56464,16.8609104 C229.750179,15.9391105 230.428659,15.3855905 231.637408,15.3855905 C233.04048,15.3855905 233.684926,16.1921104 233.684926,17.4596404 L233.684926,18.0357104 L230.992962,18.0357104 C228.511787,18.0357104 226.678353,19.1427504 226.678353,21.4020403 C226.678353,23.6613302 228.173645,24.8362402 230.336439,24.8362402 C232.016172,24.8362402 233.120624,24.1200302 233.71896,22.9677803 L233.834236,22.9677803 L233.834236,24.5492502 L236.363717,24.5492502 L236.363717,17.5454404 C236.352738,14.8432905 234.972722,13.2189205 231.637408,13.2189205 Z M231.096161,22.7847403 C230.060875,22.7847403 229.416428,22.2764303 229.416428,21.4292103 C229.416428,20.4600003 230.105887,19.9538903 231.34867,19.9538903 L233.671752,19.9538903 L233.684926,20.1142703 C233.684926,21.7906703 232.717708,22.7847403 231.096161,22.7847403 L231.096161,22.7847403 Z" id="Shape" fill="#FF7A00"></path>
            <path d="M221.949849,24.5577202 L221.949849,18.8190204 C221.949849,17.1132504 223.010386,16.0288705 224.687924,16.0288705 L225.738581,16.0288705 L225.738581,13.4939205 L224.656086,13.4939205 C223.391346,13.4939205 222.471335,13.9773705 221.896054,15.0618605 L221.803833,15.0618605 L221.803833,13.4939205 L219.29631,13.4939205 L219.29631,24.5644302 L221.949849,24.5577202 Z" id="Path" fill="#FF7A00"></path>
            <path d="M217.602304,22.1172603 L217.602304,24.5595902 L215.785338,24.5595902 C213.230606,24.5595902 211.827535,23.3734603 211.827535,20.8136503 L211.827535,15.6918305 L210.010569,15.6918305 L210.010569,13.4957905 L211.827535,13.4957905 L211.827535,10.5587136 L214.497542,10.5587136 L214.497542,13.4957905 L217.602304,13.4957905 L217.602304,15.6918305 L214.497542,15.6918305 L214.497542,20.5041103 C214.497542,21.5185303 215.094781,22.1172603 216.107012,22.1172603 L217.602304,22.1172603 Z" id="Path" fill="#FF7A00"></path>
            <path d="M201.268271,24.5582702 L201.268271,18.1509904 C201.268271,16.5830504 202.23549,15.5573005 203.798849,15.5573005 C205.293043,15.5573005 206.191097,16.4225604 206.191097,18.1171104 L206.191097,24.5582702 L208.8633,24.5582702 L208.8633,17.6900904 C208.8633,14.8998305 207.509633,13.2189205 204.745209,13.2189205 C203.06328,13.2189205 201.77768,13.9780305 201.203497,15.0150005 L201.107983,15.0150005 L201.107983,13.4945805 L198.607046,13.4945805 L198.607046,24.5650902 L201.268271,24.5582702 Z" id="Path" fill="#FF7A00"></path>
            <path d="M191.458848,22.6482303 C189.779115,22.6482303 188.651608,21.5186403 188.606595,19.7428004 L196.77471,19.7428004 L196.762633,18.8774304 C196.762633,15.1676805 194.370386,13.2292605 191.44787,13.2292605 C188.291508,13.2292605 185.984894,15.4885505 185.984894,19.0379204 C185.984894,22.5872903 188.124633,24.8465802 191.44787,24.8465802 C194.230957,24.8465802 196.047923,23.3712603 196.578192,21.2045903 L193.989427,21.2045903 C193.702884,22.0359703 192.999153,22.6482303 191.458848,22.6482303 Z M191.44787,15.4433405 C193.19567,15.4433405 194.230957,16.4352104 194.300123,17.8179104 L188.595617,17.8179104 C188.848126,16.4125504 189.697873,15.4433405 191.44787,15.4433405 L191.44787,15.4433405 Z" id="Shape" fill="#FF7A00"></path>
            <path d="M178.000123,24.8571402 C181.979883,24.8571402 184.234898,22.6453703 184.764068,19.3603304 L182.058929,19.3603304 C181.657111,20.8582003 180.568029,22.2409003 178.000123,22.2409003 C175.354269,22.2409003 173.237585,20.4334903 173.237585,16.4774504 C173.237585,12.5214105 175.354269,10.7184886 178.000123,10.7184886 C180.644879,10.7184886 181.704319,12.1012106 182.058929,13.5765305 L184.764068,13.5765305 C184.327118,10.2914796 182.106138,8.15417966 178.000123,8.15417966 C173.582315,8.15417966 170.385332,11.2426606 170.385332,16.5135304 C170.385332,21.7845103 173.582315,24.8729802 178.000123,24.8729802 L178.000123,24.8571402 Z" id="Path" fill="#FF7A00"></path>
            <path d="M166.048766,13.4983205 L166.048766,15.0165405 L165.922512,15.0165405 C165.325273,13.9569105 164.08249,13.2204605 162.314928,13.2204605 C159.726162,13.2204605 157.392102,15.2718505 157.392102,18.8912904 C157.392102,22.5106203 159.692129,24.5846702 162.314928,24.5846702 C164.017716,24.5846702 165.021165,23.8911202 165.78967,22.7162103 L165.911533,22.7162103 L165.911533,25.0478802 C165.911533,26.2927502 165.220976,26.8688202 164.094567,26.8688202 L158.682093,26.8688202 L158.682093,29.2501001 L164.041869,29.2501001 C167.009398,29.2501001 168.59691,27.5895401 168.59691,24.8693502 L168.59691,13.4983205 L166.048766,13.4983205 Z M163.048301,22.1650003 C161.27525,22.1650003 160.147743,21.0601603 160.147743,18.8934904 C160.147743,16.7268204 161.264271,15.6197805 163.048301,15.6197805 C164.773047,15.6197805 165.922512,16.7246204 165.922512,18.8934904 C165.922512,21.0624703 164.784026,22.1650003 163.048301,22.1650003 Z" id="Shape" fill="#0684BC"></path>
            <path d="M148.172233,24.5611302 L148.172233,18.1537404 C148.172233,16.5858004 149.139452,15.5600505 150.703909,15.5600505 C152.199201,15.5600505 153.097254,16.4254204 153.097254,18.1198604 L153.097254,24.5611302 L155.763968,24.5611302 L155.763968,17.6928404 C155.763968,14.9025805 154.411399,13.2216705 151.646975,13.2216705 C149.967242,13.2216705 148.668468,13.9807805 148.093186,15.0178605 L148.000966,15.0178605 L148.000966,13.4973305 L145.504421,13.4973305 L145.504421,24.5679502 L148.172233,24.5611302 Z" id="Path" fill="#0684BC"></path>
            <polygon id="Path" fill="#0684BC" fill-rule="nonzero" points="143.249407 13.4956805 140.581595 13.4956805 140.581595 24.5593702 143.249407 24.5593702"></polygon>
            <path d="M135.934333,16.9285604 L135.934333,16.8201004 C137.566858,16.3682204 138.672408,15.2702005 138.672408,12.8031205 C138.672408,10.2681486 136.784081,8.42230466 133.287381,8.42230466 L127.352324,8.42230466 L127.352324,24.5582702 L130.112356,24.5582702 L130.112356,18.1508804 L133.471822,18.1508804 C135.037378,18.1508804 135.819057,18.9348504 135.819057,20.5027903 L135.819057,24.5694902 L138.57909,24.5694902 L138.57909,20.5027903 C138.57909,18.2208404 137.611871,17.2990404 135.934333,16.9285604 Z M133.138071,15.6611405 L130.112356,15.6611405 L130.112356,10.9165766 L133.138071,10.9165766 C134.633363,10.9165766 135.783926,11.5401006 135.783926,13.2910805 C135.783926,15.0420605 134.622385,15.6611405 133.138071,15.6611405 L133.138071,15.6611405 Z" id="Shape" fill="#0684BC"></path>
            <path d="M141.914403,11.7210506 C142.26572,11.7214906 142.608254,11.6176506 142.900286,11.4227306 C143.192318,11.2278106 143.419576,10.9504346 143.553515,10.6258576 C143.688553,10.3012806 143.723684,9.94403362 143.655617,9.59935963 C143.587549,9.25467464 143.418478,8.93805064 143.17036,8.68956065 C142.922243,8.44107066 142.606058,8.27189066 142.262426,8.20344866 C141.917697,8.13499567 141.561988,8.17036066 141.238118,8.30504466 C140.91315,8.43972866 140.636488,8.66769265 140.442166,8.96006164 C140.247844,9.25244164 140.144645,9.59609263 140.144645,9.94749862 C140.141351,10.2992676 140.243453,10.6438536 140.438873,10.9366736 C140.633195,11.2294606 140.910955,11.4570506 141.235923,11.5900406 C141.451104,11.6795806 141.681656,11.7241306 141.914403,11.7210506 L141.914403,11.7210506 Z" id="Path" fill="#FF7A00"></path>
            <path d="M139.880059,5.02529575 C139.234515,5.29629174 138.647157,5.69158773 138.153118,6.18884272 L139.404684,7.44275468 C139.732946,7.11218269 140.122688,6.8496017 140.551953,6.6700047 C140.981218,6.49041871 141.442321,6.39733671 141.906718,6.39608271 C142.372213,6.39481771 142.833316,6.48541371 143.263679,6.6626677 C143.694042,6.8399327 144.084882,7.10040169 144.415339,7.42919168 L145.666905,6.17527972 C144.923651,5.43220774 143.977291,4.92640575 142.947494,4.72172876 C141.917697,4.51706276 140.850572,4.62269576 139.880059,5.02529575 L139.880059,5.02529575 Z" id="Path" fill="#FF7A00"></path>
            <path d="M1.71731315,18.8722604 C2.68938465,19.7162904 4.14748092,20.1059103 6.09161295,20.1059103 C7.97094899,20.1059103 9.42904527,19.7162904 10.4659237,18.9047104 C11.5027693,18.0605704 12.021181,16.8593704 12.021181,15.3011105 C12.021181,14.5868805 11.891633,13.9375505 11.5351563,13.3206705 C11.2435634,12.7688005 10.7251406,12.2493806 10.1095019,11.9571106 C9.72067111,11.7624106 9.46145424,11.6649506 8.97541849,11.5351506 C8.45698474,11.3727906 5.83240706,10.6585386 5.57319019,10.5936056 C4.11508293,10.2364906 3.20781839,9.74950962 3.1754204,8.90541364 C3.24021638,7.24969369 4.79552859,7.11982769 5.67039514,7.11982769 C6.54525071,7.11982769 7.25810534,7.31461569 7.77653908,7.67173068 C8.68380362,8.38597166 8.58658769,9.29498963 8.58658769,9.29498963 L11.5027693,9.29498963 C11.4379952,7.86651867 10.9195615,6.6977797 9.94748999,5.82122273 C9.00782746,5.00958775 7.67932315,4.62000076 5.92960103,4.62000076 C4.08267396,4.62000076 2.65698666,5.00958775 1.68491515,5.78875073 C0.712853533,6.60038571 0.226814488,7.70420268 0.226814488,9.10021264 C0.226814488,10.8857986 1.06927755,11.9571106 1.84692707,12.4440805 C2.30056483,12.7363505 3.36984129,13.1583105 4.7631306,13.4181305 L5.92960103,13.6778405 C7.93854002,14.1648105 9.07262344,14.7815805 9.04022545,15.7880805 C9.00781648,16.3724004 8.81340657,16.8593704 8.35976881,17.1516404 C7.93854002,17.4438004 7.22569637,17.6386104 6.3508408,17.6386104 C5.34637131,17.6386104 4.56870971,17.4438004 3.98546901,17.0541804 C3.43463727,16.6971204 3.11061344,16.1126905 3.01340848,15.2686605 L0,15.2686605 C0.0972067111,16.8269204 0.648041081,18.0281204 1.71731315,18.8722604 Z" id="Path" fill="#003057" fill-rule="nonzero"></path>
            <path d="M20.4134796,14.2297105 C20.4134796,13.0934105 20.2190477,10.7559326 17.9184719,10.7559326 C15.7475539,10.7559326 15.5207351,13.0609605 15.5207351,14.2297105 C15.5207351,17.2165404 17.2056283,17.5736004 18.0157427,17.5736004 C20.0894997,17.5736004 20.4134796,15.3660105 20.4134796,14.2297105 Z M15.5207351,22.6706703 C15.5207351,23.4498003 14.9375493,24.1315802 14.0626608,24.1315802 L12.6045864,24.1315802 L12.6045864,13.4181305 C12.7665215,10.5611446 13.8034549,8.28857766 18.1452908,8.12625067 C20.0246159,8.15871166 21.3855291,8.90541364 22.1631468,9.84690362 C23.0380353,10.9831926 23.394512,12.3467306 23.394512,14.0998005 C23.394512,15.9178805 22.9732613,17.3789004 22.0983728,18.4826404 C21.2235941,19.5864904 20.1218867,20.1059103 18.7933604,20.1059103 C16.7843775,20.1059103 15.779941,19.2618804 15.5207351,19.0995204 C15.5207351,19.2293204 15.5207351,22.6706703 15.5207351,22.6706703 Z" id="Shape" fill="#003057" fill-rule="nonzero"></path>
            <path d="M29.3887444,17.5413704 C28.6435137,17.5089204 27.2502134,17.3465604 27.1205556,14.8792605 L34.5406948,14.8792605 C34.5406948,14.8142505 34.5406948,14.0026705 34.5406948,14.0026705 C34.4759208,12.1521406 34.05467,10.7561306 33.1797815,9.71724662 C32.240119,8.67835165 30.9115927,8.15890966 29.1943125,8.15890966 C27.5741933,8.15890966 26.3105509,8.67836265 25.4032754,9.74970762 C24.5283869,10.7886026 24.0747491,12.2170406 24.0747491,14.0351205 C24.0747491,15.9505505 24.5283869,17.4114604 25.4356624,18.4504104 C26.3429379,19.5217004 27.6065804,20.0412303 29.2266995,20.0412303 C30.5552258,20.0412303 31.6893202,19.7165104 32.5640989,19.0671804 C33.4389874,18.4504104 34.05467,17.5089204 34.3786499,16.3077204 L31.8188682,16.3077204 C31.3977273,17.3790104 30.457955,17.6062704 29.3887444,17.5413704 Z M29.2590865,10.6587366 C31.1060246,10.6262646 31.3976175,12.2170406 31.4301143,12.9637205 L27.0557816,12.9637205 C27.0881686,12.9637205 27.0557816,10.6911976 29.2590865,10.6587366 Z" id="Shape" fill="#003057" fill-rule="nonzero"></path>
            <path d="M42.7061745,16.3073904 L45.5251621,16.3073904 C45.5251621,16.3073904 44.7475444,20.0409003 40.5028695,20.0409003 C36.2581946,20.0409003 35.2212612,16.6321104 35.2212612,14.3919605 C35.2212612,12.1518106 35.610125,8.32096166 40.3408246,8.19109566 C44.7151574,8.12616267 45.428001,11.9245506 45.428001,11.9245506 L42.4469686,11.9245506 C42.4469686,11.9245506 42.1553757,10.6259896 40.3732116,10.6909226 C38.5911574,10.7233946 38.1375196,12.4116306 38.1375196,14.0023405 C38.1375196,15.5931605 38.5263834,17.5736004 40.5028695,17.5736004 C42.3821945,17.6060504 42.5442394,16.5995504 42.7061745,16.3073904 Z" id="Path" fill="#003057" fill-rule="nonzero"></path>
            <path d="M49.1541543,11.4702506 L50.9039314,11.4702506 L50.9039314,8.45100366 L49.1541543,8.45100366 L49.1541543,6.53555171 C49.1541543,6.01609872 48.8625614,5.07460875 47.728467,5.07460875 L46.1731219,5.07460875 L46.1731219,17.6711704 C46.1731219,18.9697204 46.6915337,19.7814104 47.7932411,19.7814104 C47.7932411,19.7814104 49.0893803,19.7814104 49.1217673,19.7814104 L49.1541543,11.4702506 Z" id="Path" fill="#003057" fill-rule="nonzero"></path>
            <path d="M54.0470087,19.8137504 L54.0470087,13.9375505 C54.0470087,13.0935205 54.2413307,12.4441905 54.6301945,12.0545706 C55.0190582,11.6649506 55.634631,11.4702506 56.4771325,11.4702506 L57.4491821,11.4702506 L57.4491821,8.41847666 C57.4491821,8.41847666 55.8939467,8.38601566 54.7922393,8.71066965 C54.0793957,8.93791864 53.431326,9.23011164 52.8805272,9.65215962 C52.2972316,10.1066686 51.8759809,10.7235156 51.519614,11.4702506 C51.1955243,12.2169306 51.0335892,13.1584205 51.0335892,14.2622705 L51.0335892,19.7813004 L54.0470087,19.7813004 L54.0470087,19.8137504 Z" id="Path" fill="#003057" fill-rule="nonzero"></path>
            <path d="M58.2916836,8.41843266 L61.272716,8.41843266 L61.272716,15.6906205 C61.272716,15.6906205 61.1754452,17.6710604 63.2492021,17.6710604 C65.193411,17.6710604 65.258185,15.9178805 65.258185,15.7880805 L65.258185,9.84690362 C65.258185,9.84690362 65.3553461,8.41843266 66.6514853,8.41843266 L68.2068305,8.41843266 C68.2068305,8.41843266 68.2068305,15.1063005 68.2068305,15.1712005 C68.1743337,15.5283705 68.5955844,20.0085603 63.2492021,20.0085603 C57.9353166,20.0085603 58.3240706,15.4633605 58.2916836,15.2036505 L58.2916836,8.41843266 Z" id="Path" fill="#003057" fill-rule="nonzero"></path>
            <path d="M79.0289235,19.8462004 L76.0478911,19.8462004 L76.0478911,12.5090905 C76.0478911,11.6649506 75.6915241,10.5287056 74.0390179,10.5287056 C72.3865118,10.5287056 72.062422,11.8273106 72.062422,12.5090905 L72.062422,19.8462004 L69.0490026,19.8462004 L69.0490026,13.1259705 C69.0490026,11.1779806 69.6322982,9.97680262 70.5719607,9.19762864 C71.5116232,8.41846566 72.7104917,8.19121666 73.9417471,8.12628367 C74.5898167,8.12628367 75.2378864,8.19120566 75.885956,8.35353266 C76.5015288,8.48339866 77.0848244,8.77558065 77.6032362,9.23010064 C78.0244869,8.87298565 78.5428987,8.58079265 79.1261943,8.41846566 C79.7093801,8.25613866 80.3250628,8.12628367 80.9406356,8.12628367 C84.6021247,8.09382267 86.092586,9.78200362 86.1898568,10.3339176 L86.1898568,19.8462004 L84.5049636,19.8462004 C84.0837129,19.8462004 83.0467795,19.5540404 83.0467795,18.3852904 L83.0467795,12.5415405 C83.0467795,11.6974006 82.7551866,10.5611776 81.0379064,10.5611776 C79.3205164,10.5611776 79.0289235,11.8597606 79.0289235,12.5415405 L79.0289235,19.8462004 Z" id="Path" fill="#003057" fill-rule="nonzero"></path>
            <polygon id="Path" fill="#0099D8" fill-rule="nonzero" points="87.0648551 10.3337746 87.0648551 19.8136404 93.3185129 15.0737405"></polygon>
            <polygon id="Path" fill="#003057" fill-rule="nonzero" points="30.2961297 24.9755002 26.3430477 24.9755002 26.3430477 26.5663202 29.97204 26.5663202 29.97204 27.8648701 26.3430477 27.8648701 26.3430477 29.7803001 30.4581745 29.7803001 30.4581745 31.1114101 24.7877025 31.1114101 24.7877025 23.6443903 30.2637427 23.6443903 30.2637427 24.9755002"></polygon>
            <polygon id="Path" fill="#003057" fill-rule="nonzero" points="31.268289 23.6443903 32.8884082 23.6443903 35.8369438 28.8713701 35.8369438 23.6443903 37.2951279 23.6443903 37.2951279 31.1114101 35.7397828 31.1114101 32.6939763 25.8196402 32.6939763 31.1114101 31.235902 31.1114101 31.235902 23.6443903"></polygon>
            <polygon id="Path" fill="#003057" fill-rule="nonzero" points="43.9698169 23.6443903 43.9698169 24.9755002 41.7341249 24.9755002 41.7341249 31.14386 40.1787798 31.14386 40.1787798 24.9755002 37.910591 24.9755002 37.910591 23.6443903"></polygon>
            <polygon id="Path" fill="#003057" fill-rule="nonzero" points="50.0939267 24.9755002 46.1408447 24.9755002 46.1408447 26.5663202 49.769837 26.5663202 49.769837 27.8648701 46.1408447 27.8648701 46.1408447 29.7803001 50.2883585 29.7803001 50.2883585 31.1114101 44.6178865 31.1114101 44.6178865 23.6443903 50.0939267 23.6443903"></polygon>
            <path d="M55.8614499,23.8394202 C56.1206558,23.9693302 56.3799715,24.1316902 56.5742936,24.3588402 C56.7363384,24.5536502 56.8659963,24.7484602 56.9631573,24.9757202 C57.0603183,25.2029802 57.0928151,25.4626902 57.0928151,25.7548502 C57.0928151,26.1120202 56.9955443,26.4691902 56.8334995,26.7938002 C56.6391774,27.1508602 56.3474747,27.3781202 55.9587207,27.5080301 C56.3150877,27.6378301 56.5419065,27.8326401 56.7039514,28.0923501 C56.8334995,28.3521701 56.9307703,28.7416801 56.9307703,29.2611001 L56.9307703,29.7480701 C56.9307703,30.1052401 56.9307703,30.3325001 56.9631573,30.4298501 C56.9955443,30.6246601 57.0928151,30.7545701 57.2547502,30.8519201 L57.2547502,31.0467301 L55.53747,31.0467301 C55.505083,30.8843701 55.472696,30.7545701 55.440309,30.6571101 C55.4078122,30.4624101 55.3754251,30.2351501 55.3754251,30.0078901 L55.3754251,29.3261101 C55.3754251,28.8391401 55.2782641,28.5468701 55.1162192,28.3846201 C54.9541744,28.2222601 54.6625815,28.1573601 54.2413307,28.1573601 L52.7184824,28.1573601 L52.7184824,31.0791801 L51.1955243,31.0791801 L51.1955243,23.6121603 L54.7598523,23.6121603 C55.1809933,23.6771702 55.569857,23.7420702 55.8614499,23.8394202 Z M52.6212116,24.9432702 L52.6212116,26.9561602 L54.3062146,26.9561602 C54.6301945,26.9561602 54.8894004,26.9236002 55.0514452,26.8262502 C55.3430381,26.6963402 55.505083,26.4041802 55.505083,25.9821102 C55.505083,25.5275902 55.3754251,25.2354302 55.0838322,25.0730702 C54.9217874,24.9757202 54.6949685,24.9432702 54.3709886,24.9432702 L52.6212116,24.9432702 Z" id="Shape" fill="#003057" fill-rule="nonzero"></path>
            <path d="M62.9576092,27.8975401 C62.5363585,28.2547101 61.8882888,28.4494101 61.0782841,28.4494101 L59.522939,28.4494101 L59.522939,31.14408 L58.0000907,31.14408 L58.0000907,23.6770602 L61.207942,23.6770602 C61.9531726,23.6770602 62.5363585,23.8718702 62.9899962,24.2614902 C63.443634,24.6510002 63.6380658,25.2354302 63.6380658,26.0470102 C63.6380658,26.9236002 63.411247,27.5404801 62.9576092,27.8975401 Z M61.7911278,25.2029802 C61.5966959,25.0406202 61.305103,24.9431602 60.9486263,24.9431602 L59.555326,24.9431602 L59.555326,27.1508602 L60.9486263,27.1508602 C61.305103,27.1508602 61.5966959,27.0534002 61.7911278,26.8911502 C61.9855597,26.6963402 62.0827207,26.4366302 62.0827207,26.0470102 C62.0827207,25.6575002 61.9855597,25.3652302 61.7911278,25.2029802 Z" id="Shape" fill="#003057" fill-rule="nonzero"></path>
            <path d="M69.1786604,23.8394202 C69.4378663,23.9693302 69.6970722,24.1316902 69.8915041,24.3588402 C70.0535489,24.5536502 70.183097,24.7484602 70.2803678,24.9757202 C70.3775288,25.2029802 70.4099159,25.4626902 70.4099159,25.7548502 C70.4099159,26.1120202 70.3127548,26.4691902 70.15071,26.7938002 C69.9562781,27.1508602 69.6646852,27.3781202 69.2758215,27.5080301 C69.6322982,27.6378301 69.8591171,27.8326401 70.0211619,28.0923501 C70.15071,28.3521701 70.2479808,28.7416801 70.2479808,29.2611001 L70.2479808,29.7480701 C70.2479808,30.1052401 70.2479808,30.3325001 70.2803678,30.4298501 C70.3127548,30.6246601 70.4099159,30.7545701 70.5719607,30.8519201 L70.5719607,31.0467301 L68.8546805,31.0467301 C68.8222935,30.8843701 68.7897967,30.7545701 68.7574097,30.6571101 C68.7250227,30.4624101 68.6926357,30.2351501 68.6926357,30.0078901 L68.6926357,29.3261101 C68.6926357,28.8391401 68.5954746,28.5468701 68.4334298,28.3846201 C68.2713849,28.2222601 67.979792,28.1573601 67.5585413,28.1573601 L66.0356929,28.1573601 L66.0356929,31.0791801 L64.5127348,31.0791801 L64.5127348,23.6121603 L68.076953,23.6121603 C68.5305908,23.6771702 68.9194545,23.7420702 69.1786604,23.8394202 Z M65.9708091,24.9432702 L65.9708091,26.9561602 L67.6558121,26.9561602 C67.979792,26.9561602 68.2389979,26.9236002 68.4010427,26.8262502 C68.6926357,26.6963402 68.8546805,26.4041802 68.8546805,25.9821102 C68.8546805,25.5275902 68.7250227,25.2354302 68.4334298,25.0730702 C68.2713849,24.9757202 68.044566,24.9432702 67.7205861,24.9432702 L65.9708091,24.9432702 Z" id="Shape" fill="#003057" fill-rule="nonzero"></path>
            <polygon id="Path" fill="#003057" fill-rule="nonzero" points="72.8078723 31.14408 71.2850239 31.14408 71.2850239 23.6770602 72.8402593 23.6770602 72.8402593 31.14408"></polygon>
            <path d="M75.0760611,28.8390301 C75.1084481,29.1960901 75.2056091,29.4233501 75.367654,29.6181601 C75.6268599,29.9103201 76.0804976,30.0726801 76.6961803,30.0726801 C77.085044,30.0726801 77.3766369,30.0402301 77.6034558,29.9427701 C78.0570935,29.7805201 78.2839124,29.4883601 78.2839124,29.0662901 C78.2839124,28.8065801 78.1866416,28.6442201 77.9598227,28.4818601 C77.7330038,28.3520601 77.4090239,28.2221501 76.9229991,28.1248001 L76.1128847,27.9624401 C75.30288,27.8000801 74.7844682,27.6052701 74.4603785,27.3780102 C73.9419667,27.0209502 73.7151478,26.5015302 73.7151478,25.7548502 C73.7151478,25.0730702 73.9743537,24.5210902 74.4603785,24.0990202 C74.9464032,23.6446103 75.6592469,23.4498003 76.6314062,23.4498003 C77.4414109,23.4498003 78.1218676,23.6446103 78.6726664,24.0665702 C79.2235749,24.4886402 79.5151678,25.1055202 79.5475549,25.8846502 L78.0570935,25.8846502 C78.0245967,25.4301302 77.8302746,25.1055202 77.4414109,24.9107102 C77.182205,24.7808002 76.8906121,24.7159002 76.5017484,24.7159002 C76.0804976,24.7159002 75.7565177,24.7808002 75.5296988,24.9756102 C75.2704929,25.1379702 75.1732221,25.3652302 75.1732221,25.6573902 C75.1732221,25.9171002 75.30288,26.1119102 75.5296988,26.2418202 C75.6917437,26.3391702 76.0157236,26.4365202 76.5341354,26.5664302 L77.8302746,26.8910402 C78.4134605,27.0209502 78.8347112,27.2157602 79.1263041,27.4430201 C79.5799419,27.8000801 79.8067608,28.3195001 79.8067608,28.9688301 C79.8067608,29.6506101 79.5475549,30.2350401 79.0291431,30.6571101 C78.5107313,31.1115201 77.7653908,31.33878 76.7933413,31.33878 C75.8212917,31.33878 75.0436741,31.1115201 74.4603785,30.6571101 C73.9095797,30.2025901 73.6179868,29.5857101 73.6179868,28.8390301 L75.0760611,28.8390301 L75.0760611,28.8390301 Z" id="Path" fill="#003057" fill-rule="nonzero"></path>
            <polygon id="Path" fill="#003057" fill-rule="nonzero" points="86.0604186 24.9755002 82.1073366 24.9755002 82.1073366 26.5663202 85.7364386 26.5663202 85.7364386 27.8648701 82.1073366 27.8648701 82.1073366 29.7803001 86.2548504 29.7803001 86.2548504 31.1114101 80.5844882 31.1114101 80.5844882 23.6443903 86.0604186 23.6443903"></polygon>
        </g>
    </g>
</svg>