<svg width="2196" height="300" viewBox="0 0 2196 300" fill="none" xmlns="http://www.w3.org/2000/svg">
<path fill-rule="evenodd" clip-rule="evenodd" d="M1010 0L1010 300L1000 300L1000 -8.74228e-07L1010 0Z" fill="white"/>
<path d="M2195.17 68.1797H2170.87V223.25H2195.17V68.1797Z" fill="white"/>
<path fill-rule="evenodd" clip-rule="evenodd" d="M2109.89 120.172C2087.46 120.172 2070.07 131.058 2067.13 153.281H2091.01C2092.7 144.901 2098.88 139.869 2109.89 139.869C2122.67 139.869 2128.54 147.201 2128.54 158.724V163.961H2104.02C2081.42 163.961 2064.72 174.025 2064.72 194.564C2064.72 215.103 2078.34 225.784 2098.04 225.784C2113.34 225.784 2123.4 219.273 2128.85 208.798H2129.9V223.175H2152.94V159.504C2152.84 134.939 2140.27 120.172 2109.89 120.172ZM2104.96 207.134C2095.53 207.134 2089.66 202.513 2089.66 194.811C2089.66 186 2095.94 181.399 2107.26 181.399H2128.42L2128.54 182.857C2128.54 198.097 2119.73 207.134 2104.96 207.134Z" fill="white"/>
<path fill-rule="evenodd" clip-rule="evenodd" d="M2021.65 223.252V171.082C2021.65 155.575 2031.31 145.717 2046.59 145.717H2056.16V122.672H2046.3C2034.78 122.672 2026.4 127.067 2021.16 136.926H2020.32V122.672H1997.48V223.313L2021.65 223.252Z" fill="white"/>
<path fill-rule="evenodd" clip-rule="evenodd" d="M1982.05 201.066V223.269H1965.5C1942.23 223.269 1929.45 212.486 1929.45 189.215V142.653H1912.9V122.689H1929.45V95.9883H1953.77V122.689H1982.05V142.653H1953.77V186.401C1953.77 195.623 1959.21 201.066 1968.43 201.066H1982.05Z" fill="white"/>
<path fill-rule="evenodd" clip-rule="evenodd" d="M1833.27 223.257V165.009C1833.27 150.755 1842.08 141.43 1856.32 141.43C1869.93 141.43 1878.11 149.296 1878.11 164.701V223.257H1902.45V160.819C1902.45 135.453 1890.12 120.172 1864.94 120.172C1849.62 120.172 1837.91 127.073 1832.68 136.5H1831.81V122.678H1809.03V223.319L1833.27 223.257Z" fill="white"/>
<path fill-rule="evenodd" clip-rule="evenodd" d="M1743.92 205.893C1728.62 205.893 1718.35 195.624 1717.94 179.48H1792.34L1792.23 171.613C1792.23 137.888 1770.44 120.266 1743.82 120.266C1715.07 120.266 1694.06 140.805 1694.06 173.072C1694.06 205.339 1713.55 225.878 1743.82 225.878C1769.17 225.878 1785.72 212.466 1790.55 192.769H1766.97C1764.36 200.327 1757.95 205.893 1743.92 205.893ZM1743.82 140.394C1759.74 140.394 1769.17 149.411 1769.8 161.981H1717.84C1720.14 149.205 1727.88 140.394 1743.82 140.394Z" fill="white"/>
<path fill-rule="evenodd" clip-rule="evenodd" d="M1621.33 225.974C1657.58 225.974 1678.12 205.867 1682.94 176.003H1658.3C1654.64 189.62 1644.72 202.19 1621.33 202.19C1597.23 202.19 1577.95 185.759 1577.95 149.795C1577.95 113.831 1597.23 97.4408 1621.33 97.4408C1645.42 97.4408 1655.07 110.011 1658.3 123.423H1682.94C1678.96 93.5589 1658.73 74.1289 1621.33 74.1289C1581.09 74.1289 1551.97 102.206 1551.97 150.123C1551.97 198.041 1581.09 226.118 1621.33 226.118V225.974Z" fill="white"/>
<path fill-rule="evenodd" clip-rule="evenodd" d="M1512.47 122.712V136.514H1511.32C1505.88 126.881 1494.56 120.186 1478.46 120.186C1454.88 120.186 1433.62 138.835 1433.62 171.739C1433.62 204.642 1454.57 223.497 1478.46 223.497C1493.97 223.497 1503.11 217.192 1510.11 206.511H1511.22V227.708C1511.22 239.025 1504.93 244.262 1494.67 244.262H1445.37V265.91H1494.19C1521.22 265.91 1535.68 250.814 1535.68 226.085V122.712H1512.47ZM1485.14 201.5C1468.99 201.5 1458.72 191.456 1458.72 171.759C1458.72 152.062 1468.89 141.998 1485.14 141.998C1500.85 141.998 1511.32 152.042 1511.32 171.759C1511.32 191.477 1500.95 201.5 1485.14 201.5Z" fill="white"/>
<path fill-rule="evenodd" clip-rule="evenodd" d="M1349.64 223.283V165.034C1349.64 150.78 1358.45 141.455 1372.7 141.455C1386.32 141.455 1394.5 149.322 1394.5 164.726V223.283H1418.79V160.844C1418.79 135.478 1406.47 120.197 1381.29 120.197C1365.99 120.197 1354.16 127.098 1348.92 136.526H1348.08V122.703H1325.34V223.345L1349.64 223.283Z" fill="white"/>
<path d="M1304.8 122.688H1280.5V223.267H1304.8V122.688Z" fill="white"/>
<path fill-rule="evenodd" clip-rule="evenodd" d="M1238.17 153.896V152.91C1253.04 148.802 1263.11 138.82 1263.11 116.392C1263.11 93.3468 1245.91 76.5664 1214.06 76.5664H1160V223.257H1185.14V165.008H1215.74C1230 165.008 1237.12 172.135 1237.12 186.389V223.359H1262.26V186.389C1262.26 165.644 1253.45 157.264 1238.17 153.896ZM1212.7 142.374H1185.14V99.2416H1212.7C1226.32 99.2416 1236.8 104.91 1236.8 120.828C1236.8 136.746 1226.22 142.374 1212.7 142.374Z" fill="white"/>
<path fill-rule="evenodd" clip-rule="evenodd" d="M1292.64 106.555C1295.84 106.559 1298.96 105.615 1301.62 103.843C1304.28 102.071 1306.35 99.5494 1307.57 96.5987C1308.8 93.648 1309.12 90.4003 1308.5 87.2669C1307.88 84.1334 1306.34 81.255 1304.08 78.996C1301.82 76.737 1298.94 75.199 1295.81 74.5768C1292.67 73.9545 1289.43 74.276 1286.48 75.5004C1283.52 76.7248 1281 78.7972 1279.23 81.4551C1277.46 84.1131 1276.52 87.2372 1276.52 90.4318C1276.49 93.6297 1277.42 96.7623 1279.2 99.4243C1280.97 102.086 1283.5 104.155 1286.46 105.364C1288.42 106.178 1290.52 106.583 1292.64 106.555Z" fill="white"/>
<path fill-rule="evenodd" clip-rule="evenodd" d="M1274.11 45.6845C1268.23 48.1481 1262.88 51.7417 1258.38 56.2622L1269.78 67.6614C1272.77 64.6562 1276.32 62.2691 1280.23 60.6364C1284.14 59.0038 1288.34 58.1576 1292.57 58.1462C1296.81 58.1347 1301.01 58.9583 1304.93 60.5697C1308.85 62.1812 1312.41 64.5491 1315.42 67.5381L1326.82 56.1389C1320.05 49.3837 1311.43 44.7855 1302.05 42.9248C1292.67 41.0642 1282.95 42.0245 1274.11 45.6845Z" fill="white"/>
<path d="M15.6423 171.566C24.4965 179.239 37.7777 182.781 55.486 182.781C72.6041 182.781 85.8853 179.239 95.3298 171.861C104.774 164.187 109.496 153.267 109.496 139.101C109.496 132.608 108.316 126.705 105.069 121.097C102.413 116.08 97.6909 111.358 92.0833 108.701C88.5416 106.931 86.1805 106.045 81.7534 104.865C77.0312 103.389 53.125 96.8958 50.7639 96.3055C37.4826 93.059 29.2187 88.6319 28.9236 80.9583C29.5138 65.9063 43.6805 64.7257 51.6493 64.7257C59.618 64.7257 66.1111 66.4965 70.8333 69.743C79.0972 76.2361 78.2117 84.4999 78.2117 84.4999H104.774C104.184 71.5138 99.4618 60.8889 90.6076 52.9202C82.0486 45.5417 69.9478 42 54.0103 42C37.1874 42 24.2014 45.5417 15.3472 52.625C6.49309 60.0035 2.06596 70.0382 2.06596 82.7292C2.06596 98.9618 9.73961 108.701 16.8229 113.128C20.9549 115.785 30.6945 119.621 43.3854 121.983L54.0103 124.344C72.3089 128.771 82.6388 134.378 82.3437 143.528C82.0485 148.84 80.2777 153.267 76.1457 155.924C72.3089 158.58 65.8159 160.351 57.8472 160.351C48.6979 160.351 41.6145 158.58 36.302 155.038C31.2847 151.792 28.3333 146.479 27.4479 138.806H0C0.885416 152.972 5.90274 163.892 15.6423 171.566Z" fill="white"/>
<path d="M185.938 129.361C185.938 119.031 184.168 97.7812 163.213 97.7812C143.438 97.7812 141.373 118.736 141.373 129.361C141.373 156.514 156.72 159.76 164.098 159.76C182.987 159.76 185.938 139.691 185.938 129.361ZM141.373 206.097C141.373 213.18 136.06 219.378 128.091 219.378H114.81V121.983C116.286 96.0104 125.73 75.3507 165.279 73.875C182.397 74.1701 194.793 80.9583 201.876 89.5173C209.845 99.8472 213.091 112.243 213.091 128.18C213.091 144.708 209.254 157.99 201.286 168.024C193.317 178.059 183.282 182.781 171.182 182.781C152.883 182.781 143.734 175.108 141.373 173.632C141.373 174.812 141.373 206.097 141.373 206.097Z" fill="white"/>
<path d="M267.69 159.467C260.902 159.172 248.211 157.696 247.03 135.266H314.617C314.617 134.675 314.617 127.297 314.617 127.297C314.027 110.474 310.19 97.783 302.221 88.3386C293.662 78.8941 281.562 74.1719 265.919 74.1719C251.162 74.1719 239.652 78.8942 231.388 88.6337C223.419 98.0782 219.287 111.064 219.287 127.592C219.287 145.005 223.419 158.286 231.683 167.731C239.947 177.47 251.458 182.193 266.214 182.193C278.315 182.193 288.645 179.241 296.614 173.338C304.582 167.731 310.19 159.172 313.142 148.252H289.826C285.989 157.991 277.43 160.057 267.69 159.467ZM266.51 96.8976C283.332 96.6024 285.989 111.064 286.284 117.852H246.44C246.735 117.852 246.44 97.1927 266.51 96.8976Z" fill="white"/>
<path d="M388.993 148.249H414.67C414.67 148.249 407.587 182.19 368.924 182.19C330.261 182.19 320.816 151.201 320.816 130.836C320.816 110.471 324.358 75.6451 367.448 74.4645C407.292 73.8742 413.785 108.405 413.785 108.405H386.632C386.632 108.405 383.976 96.5999 367.743 97.1902C351.511 97.4854 347.379 112.833 347.379 127.294C347.379 141.756 350.92 159.76 368.924 159.76C386.042 160.055 387.517 150.905 388.993 148.249Z" fill="white"/>
<path d="M447.726 104.275H463.663V76.8273H447.726V59.4141C447.726 54.6918 445.069 46.1328 434.739 46.1328H420.573V160.647C420.573 172.452 425.295 179.831 435.33 179.831C435.33 179.831 447.135 179.831 447.43 179.831L447.726 104.275Z" fill="white"/>
<path d="M492.291 180.125V126.705C492.291 119.032 494.062 113.129 497.604 109.587C501.146 106.045 506.753 104.275 514.427 104.275H523.281V76.5316C523.281 76.5316 509.114 76.2365 499.08 79.1879C492.587 81.2538 486.684 83.9101 481.666 87.7469C476.354 91.8788 472.517 97.4865 469.271 104.275C466.319 111.063 464.844 119.622 464.844 129.657V179.83H492.291V180.125Z" fill="white"/>
<path d="M530.955 76.5312H558.108V142.642C558.108 142.642 557.223 160.646 576.112 160.646C593.82 160.646 594.41 144.708 594.41 143.528V89.5173C594.41 89.5173 595.296 76.5312 607.101 76.5312H621.268C621.268 76.5312 621.268 137.33 621.268 137.92C620.973 141.167 624.809 181.896 576.112 181.896C527.709 181.896 531.25 140.576 530.955 138.215V76.5312Z" fill="white"/>
<path d="M719.842 180.42H692.689V113.719C692.689 106.045 689.443 95.7155 674.391 95.7155C659.338 95.7155 656.387 107.521 656.387 113.719V180.42H628.939V119.327C628.939 101.618 634.252 90.6982 642.811 83.6148C651.37 76.5315 662.29 74.4656 673.505 73.8753C679.408 73.8753 685.311 74.4655 691.213 75.9412C696.821 77.1218 702.134 79.778 706.856 83.91C710.693 80.6635 715.415 78.0072 720.727 76.5315C726.04 75.0558 731.647 73.8753 737.255 73.8753C770.606 73.5802 784.182 88.9273 785.068 93.9447V180.42H769.72C765.883 180.42 756.439 177.764 756.439 167.139V114.014C756.439 106.34 753.783 96.0107 738.141 96.0107C722.498 96.0107 719.842 107.816 719.842 114.014V180.42Z" fill="white"/>
<path d="M793.038 93.9434V180.124L850 137.034L793.038 93.9434Z" fill="white"/>
<path d="M275.955 227.05H239.948V241.512H273.003V253.317H239.948V270.73H277.43V282.831H225.781V214.949H275.66V227.05H275.955Z" fill="white"/>
<path d="M284.81 214.949H299.567L326.425 262.467V214.949H339.706V282.831H325.539L297.796 234.724V282.831H284.515V214.949H284.81Z" fill="white"/>
<path d="M400.503 214.949V227.05H380.139V283.126H365.972V227.05H345.312V214.949H400.503Z" fill="white"/>
<path d="M456.285 227.05H420.278V241.512H453.333V253.317H420.278V270.73H458.056V282.831H406.406V214.949H456.285V227.05Z" fill="white"/>
<path d="M508.819 216.722C511.18 217.903 513.541 219.379 515.312 221.444C516.788 223.215 517.968 224.986 518.854 227.052C519.739 229.118 520.034 231.479 520.034 234.135C520.034 237.382 519.149 240.629 517.673 243.58C515.902 246.826 513.246 248.892 509.705 250.073C512.951 251.253 515.017 253.024 516.493 255.385C517.673 257.747 518.559 261.288 518.559 266.01V270.437C518.559 273.684 518.559 275.75 518.854 276.635C519.149 278.406 520.034 279.587 521.51 280.472V282.243H505.868C505.573 280.767 505.277 279.587 504.982 278.701C504.687 276.931 504.392 274.865 504.392 272.799V266.601C504.392 262.174 503.507 259.517 502.031 258.042C500.555 256.566 497.899 255.976 494.062 255.976H480.191V282.538H466.319V214.656H498.784C502.621 215.247 506.163 215.837 508.819 216.722ZM479.305 226.757V245.056H494.652C497.604 245.056 499.965 244.76 501.441 243.875C504.097 242.694 505.572 240.038 505.572 236.201C505.572 232.069 504.392 229.413 501.736 227.937C500.26 227.052 498.194 226.757 495.243 226.757H479.305Z" fill="white"/>
<path d="M573.455 253.614C569.618 256.861 563.715 258.631 556.337 258.631H542.17V283.128H528.298V215.246H557.517C564.305 215.246 569.618 217.017 573.75 220.559C577.882 224.1 579.652 229.413 579.652 236.791C579.652 244.76 577.586 250.368 573.455 253.614ZM562.83 229.118C561.059 227.642 558.403 226.756 555.156 226.756H542.465V246.826H555.156C558.403 246.826 561.059 245.94 562.83 244.465C564.6 242.694 565.486 240.333 565.486 236.791C565.486 233.25 564.6 230.593 562.83 229.118Z" fill="white"/>
<path d="M630.12 216.722C632.481 217.903 634.842 219.379 636.613 221.444C638.089 223.215 639.269 224.986 640.155 227.052C641.04 229.118 641.335 231.479 641.335 234.135C641.335 237.382 640.45 240.629 638.974 243.58C637.203 246.826 634.547 248.892 631.005 250.073C634.252 251.253 636.318 253.024 637.794 255.385C638.974 257.747 639.86 261.288 639.86 266.01V270.437C639.86 273.684 639.86 275.75 640.155 276.635C640.45 278.406 641.335 279.587 642.811 280.472V282.243H627.169C626.874 280.767 626.578 279.587 626.283 278.701C625.988 276.931 625.693 274.865 625.693 272.799V266.601C625.693 262.174 624.808 259.517 623.332 258.042C621.856 256.566 619.2 255.976 615.363 255.976H601.492V282.538H587.62V214.656H620.085C624.217 215.247 627.759 215.837 630.12 216.722ZM600.901 226.757V245.056H616.249C619.2 245.056 621.561 244.76 623.037 243.875C625.693 242.694 627.169 240.038 627.169 236.201C627.169 232.069 625.988 229.413 623.332 227.937C621.856 227.052 619.79 226.757 616.839 226.757H600.901Z" fill="white"/>
<path d="M663.177 283.128H649.305V215.246H663.472V283.128H663.177Z" fill="white"/>
<path d="M683.837 262.173C684.132 265.419 685.018 267.485 686.493 269.256C688.854 271.912 692.986 273.388 698.594 273.388C702.136 273.388 704.792 273.093 706.858 272.207C710.99 270.732 713.056 268.076 713.056 264.239C713.056 261.878 712.17 260.402 710.104 258.926C708.038 257.746 705.087 256.565 700.66 255.68L693.281 254.204C685.903 252.728 681.181 250.957 678.229 248.891C673.507 245.645 671.441 240.923 671.441 234.135C671.441 227.937 673.802 222.919 678.229 219.082C682.656 214.951 689.149 213.18 698.004 213.18C705.382 213.18 711.58 214.951 716.597 218.787C721.615 222.624 724.271 228.232 724.566 235.315H710.99C710.695 231.183 708.924 228.232 705.382 226.461C703.021 225.28 700.365 224.69 696.823 224.69C692.986 224.69 690.035 225.28 687.969 227.051C685.608 228.527 684.722 230.593 684.722 233.249C684.722 235.61 685.903 237.381 687.969 238.562C689.445 239.447 692.396 240.332 697.118 241.513L708.924 244.464C714.236 245.645 718.073 247.416 720.729 249.482C724.861 252.728 726.927 257.45 726.927 263.353C726.927 269.551 724.566 274.864 719.844 278.701C715.122 282.832 708.333 284.898 699.479 284.898C690.625 284.898 683.542 282.832 678.229 278.701C673.212 274.569 670.556 268.961 670.556 262.173H683.837V262.173Z" fill="white"/>
<path d="M783.889 227.05H747.882V241.512H780.938V253.317H747.882V270.73H785.66V282.831H734.011V214.949H783.889V227.05Z" fill="white"/>
</svg>
