<?xml version="1.0" encoding="utf-8"?>
<!-- Generator: Adobe Illustrator 26.0.1, SVG Export Plug-In . SVG Version: 6.00 Build 0)  -->
<svg version="1.1" id="Layer_1" xmlns="http://www.w3.org/2000/svg" xmlns:xlink="http://www.w3.org/1999/xlink" x="0px" y="0px"
	 viewBox="0 0 60 60" style="enable-background:new 0 0 60 60;" xml:space="preserve">
<style type="text/css">
	.st0{fill-rule:evenodd;clip-rule:evenodd;fill:#FFFFFF;}
</style>
<path class="st0" d="M60,30C60,13.4,46.6,0,30,0C13.4,0,0,13.4,0,30c0,16.6,13.4,30,30,30C46.6,60,60,46.6,60,30L60,30z M29.9,45.8
	L29.9,45.8c-8.1,0-16.6-6.9-16.6-17.9c0-7.3,4-14.4,9-18.5c5-4.1,11.8-6.7,17.9-6.7c0.8,0,1.6,0.1,2.1,0.2
	c-5.4,1.1-9.7,6.1-9.7,11.7c0,0.2,0,0.4,0,0.5c9,2.2,13.1,7.6,13.1,15C45.9,37.6,39.9,45.7,29.9,45.8z"/>
</svg>
