<?xml version="1.0" encoding="UTF-8"?>
<svg width="60px" height="60px" viewBox="0 0 60 60" version="1.1" xmlns="http://www.w3.org/2000/svg" xmlns:xlink="http://www.w3.org/1999/xlink">
    <title>icon_60</title>
    <g id="icon_60" stroke="none" stroke-width="1" fill="none" fill-rule="evenodd">
        <g id="Group-2">
            <path d="M17.7268625,-7.16186463e-16 L42.2731375,7.16186463e-16 C48.4371538,-4.1612496e-16 50.672375,0.641802077 52.9258472,1.84697221 C55.1793195,3.05214234 56.9478577,4.82068053 58.1530278,7.07415275 C59.3581979,9.32762497 60,11.5628462 60,17.7268625 L60,42.2731375 C60,48.4371538 59.3581979,50.672375 58.1530278,52.9258472 C56.9478577,55.1793195 55.1793195,56.9478577 52.9258472,58.1530278 C50.672375,59.3581979 48.4371538,60 42.2731375,60 L17.7268625,60 C11.5628462,60 9.32762497,59.3581979 7.07415275,58.1530278 C4.82068053,56.9478577 3.05214234,55.1793195 1.84697221,52.9258472 C0.641802077,50.672375 2.7741664e-16,48.4371538 -4.77457642e-16,42.2731375 L4.77457642e-16,17.7268625 C-2.7741664e-16,11.5628462 0.641802077,9.32762497 1.84697221,7.07415275 C3.05214234,4.82068053 4.82068053,3.05214234 7.07415275,1.84697221 C9.32762497,0.641802077 11.5628462,4.1612496e-16 17.7268625,-7.16186463e-16 Z" id="Rectangle" fill="#FFFFFF"></path>
            <g id="Group" transform="translate(9.199219, 15.117188)" fill="#5514B4" fill-rule="nonzero">
                <path d="M16.3294849,2.02770007e-05 C18.1107306,0.000497859139 19.8616513,0.45966069 21.4137077,1.33319741 C22.9657641,2.20673413 24.2666875,3.46524248 25.1909116,4.9873048 C26.7013664,4.43186098 28.33434,4.29658009 29.9156546,4.59593476 C31.4969692,4.89528942 32.9674988,5.61800623 34.170133,6.6871518 C35.3729195,7.75629738 36.2628566,9.13165306 36.7451598,10.6666646 C37.2274631,12.2016761 37.2839984,13.8387576 36.9088229,15.4034761 C38.515586,16.0369197 39.8504917,17.2114869 40.6831314,18.7242562 C41.5159236,20.2368733 41.7940289,21.9927826 41.4695981,23.6886687 C41.1453197,25.3847071 40.2386201,26.9140819 38.906305,28.0129345 C37.5741423,29.1116346 35.899872,29.7109534 34.1727235,29.7070119 L34.1727235,29.7070119 L8.91466321,29.7070119 C6.79496717,29.7082112 4.7443022,28.9538069 3.13083407,27.5793653 C1.51751833,26.2049237 0.44715564,24.3003272 0.112057754,22.2078914 C-0.223040132,20.1154556 0.199070438,17.9721372 1.30250099,16.1627553 C2.40593155,14.3535258 4.11860329,12.996756 6.13269549,12.3361953 C5.84133253,10.8343946 5.88628654,9.28658624 6.26405264,7.80413318 C6.64197113,6.32152779 7.34355852,4.94114477 8.31837488,3.76185496 C9.29303886,2.58256515 10.5170071,1.63361848 11.9022003,0.983112412 C13.2872411,0.332758687 14.7992198,-0.00300603772 16.3294849,2.02770007e-05 Z M16.3294849,1.48536512 C15.0178944,1.48249389 13.7219997,1.76996577 12.5347566,2.32723771 C11.3475135,2.884662 10.2984849,3.6980231 9.46310218,4.70882117 C8.62771945,5.71977159 8.02670715,6.90317466 7.70319063,8.17387047 C7.37982651,9.44456629 7.34188227,10.7711721 7.59240566,12.058321 L7.59240566,12.058321 L7.83591926,13.3369387 L6.60006485,13.7461329 C4.92107053,14.2956353 3.49305675,15.4257182 2.57279476,16.9333079 C1.65238037,18.44105 1.30006281,20.2272757 1.57893008,21.9713022 C1.85779736,23.7153288 2.74956308,25.3027464 4.09422145,26.4485207 C5.43872743,27.5941426 7.14804666,28.2228636 8.91466321,28.2216692 L8.91466321,28.2216692 L34.1727235,28.2216692 C35.5545642,28.2256058 36.8944986,27.7466383 37.9605944,26.8674649 C39.0265379,25.9884438 39.7518976,24.7646697 40.0109546,23.4075953 C40.2700117,22.0505208 40.0466131,20.6456105 39.3793126,19.435852 C38.7120122,18.2260935 37.6428686,17.2875062 36.3565743,16.7823357 L36.3565743,16.7823357 L35.1690264,16.3070244 L35.4628275,15.0623793 C35.7778104,13.7583203 35.7323992,12.393324 35.3314704,11.1130306 C34.9305415,9.83288946 34.1890289,8.6857441 33.1863258,7.79423087 C32.1834703,6.90286998 30.9573686,6.3005044 29.6387684,6.05188007 C28.3200157,5.80325574 26.9585948,5.91766559 25.7000348,6.38276981 L25.7000348,6.38276981 L24.5568314,6.79958119 L23.9227512,5.76136132 C23.1343035,4.45364607 22.0205107,3.37246538 20.6897195,2.62308848 C19.3590807,1.87386393 17.8568547,1.48188451 16.3294849,1.48536512 Z M26.062867,10.3753841 C27.0414931,10.3753841 27.9800414,10.764012 28.6720285,11.4558031 C29.3641679,12.1477465 29.7529058,13.0860292 29.7529058,14.0643781 C29.7529058,14.6237966 29.6257341,15.1735457 29.3836802,15.6729922 C30.2636573,16.0575882 31.0326862,16.6631653 31.6147639,17.4342128 C32.3053795,18.3490346 32.6997557,19.4529145 32.7450145,20.5982317 L32.7450145,21.023879 C32.7439478,21.348675 32.6142669,21.6599124 32.3841633,21.8891892 C32.1540597,22.1186182 31.8424294,22.2473484 31.5175414,22.2473484 L21.2369806,22.2494953 C21.1779314,22.2582337 21.1179851,22.2627067 21.0575805,22.262735 L10.1479271,22.262735 C9.82303906,22.2625827 9.51140869,22.1338526 9.2813051,21.9044235 C9.0512015,21.6751468 8.9215206,21.3639093 8.9204539,21.0391133 L8.9204539,20.613466 C8.96571268,19.4683011 9.36008891,18.3642689 10.0507045,17.4494472 C10.6330011,16.6781098 11.4023894,16.0723673 12.2823248,15.6870091 C12.1460979,15.407185 12.0454696,15.1087469 11.9838795,14.7994347 C11.8415505,14.0837257 11.914696,13.341966 12.193868,12.6678467 C12.4731925,11.9938798 12.9462001,11.4177172 13.5530031,11.0123316 C14.1598061,10.606946 14.8732796,10.3906184 15.6032109,10.3906184 C16.5818369,10.3906184 17.5203853,10.7792463 18.2125247,11.4710374 C18.9045118,12.1629809 19.2932497,13.1012635 19.2932497,14.0796125 C19.2932497,14.639068 19.1660612,15.1888528 18.923976,15.6883257 C19.6538049,16.0070828 20.307418,16.4781983 20.841318,17.0696463 C20.9733448,16.9295911 21.1145147,16.7954948 21.2622355,16.6686875 C21.7144813,16.2793672 22.2153953,15.9516761 22.7517392,15.6935133 C22.6109768,15.4073557 22.5067161,15.1014995 22.4435356,14.7842004 C22.3012066,14.0684914 22.3743521,13.3267317 22.6535242,12.6526124 C22.9328486,11.9786454 23.4058562,11.4024829 24.0126592,10.9970973 C24.6194622,10.5917116 25.3329358,10.3753841 26.062867,10.3753841 Z M17.9682395,16.9083646 L17.8498708,17.0061763 C17.595303,17.2015244 17.3150022,17.363881 17.0153765,17.48799 C16.3410663,17.767083 15.5990965,17.8402078 14.8831848,17.6979192 C14.2756017,17.577006 13.7099644,17.3055922 13.2372585,16.910701 L13.3299093,16.8775503 C12.5240896,17.1354675 11.8144257,17.6296693 11.2931115,18.2958668 C10.7717973,18.9619119 10.4627575,19.7694839 10.4062222,20.613466 L10.4062222,20.7773875 L20.155,20.777 L20.1551477,20.7620008 L20.799,20.762 L20.7992854,20.613466 C20.7429024,19.7694839 20.4338626,18.9619119 19.9125484,18.2957144 C19.4113016,17.6551614 18.7359265,17.1736174 17.9682395,16.9083646 Z M28.4271814,16.8928009 L28.3095008,16.990942 C28.0549121,17.18629 27.7745737,17.3486467 27.4748802,17.4727557 C26.8007224,17.7518487 26.0587526,17.8249735 25.3428409,17.6826848 C24.7376564,17.5622489 24.174087,17.2924984 23.7025172,16.9001376 L23.7897178,16.8623159 C23.2225353,17.081995 22.6966495,17.396127 22.2343089,17.7913056 C22.0406951,17.9574581 21.8622424,18.140249 21.7008243,18.3376084 C22.0544114,19.0443739 22.2537644,19.8189871 22.2850536,20.613466 L22.285,20.762 L31.2592463,20.7620008 L31.2592463,20.5982317 C31.2027109,19.7542496 30.8936711,18.9466775 30.3723569,18.2806324 C29.8708919,17.6398007 29.1951472,17.1581163 28.4271814,16.8928009 Z M15.6032109,11.875966 C15.0186564,11.8765754 14.4584836,12.1090513 14.0452115,12.5220541 C13.6319393,12.9352093 13.3993975,13.4953757 13.398788,14.0796125 C13.398788,14.5154668 13.5280117,14.9415711 13.7703063,15.3039959 C14.0124484,15.6664207 14.3566895,15.9488653 14.7594469,16.1156812 C15.1623568,16.2824972 15.6054967,16.3260674 16.0330932,16.2410598 C16.4606897,16.1560522 16.8535421,15.9462754 17.1618199,15.6380848 C17.4700978,15.3298943 17.6800864,14.9371531 17.765118,14.5096777 C17.8501497,14.0822023 17.8065671,13.6390355 17.6397039,13.2363921 C17.4728407,12.8337486 17.1903162,12.489605 16.8277887,12.2473791 C16.4652613,12.0053055 16.0391887,11.875966 15.6032109,11.875966 Z M26.062867,11.8607317 C25.4783125,11.8613411 24.9179874,12.0936647 24.5047152,12.5068198 C24.0915954,12.9199749 23.8590537,13.4801414 23.8584441,14.0643781 C23.8584441,14.5002324 23.9876679,14.9263367 24.2299624,15.2887616 C24.4721045,15.6511864 24.8163456,15.9336309 25.2191031,16.1004469 C25.6220129,16.2672628 26.0651528,16.310833 26.4927493,16.2258254 C26.9203458,16.1408179 27.3131982,15.9308887 27.621476,15.6226982 C27.9297539,15.3145076 28.1395901,14.9219188 28.2247741,14.4944434 C28.3098058,14.066968 28.2660709,13.6238012 28.0993601,13.2211577 C27.9324969,12.8185143 27.6499723,12.4742183 27.2874449,12.2321447 C26.9249174,11.9899188 26.4988448,11.8607317 26.062867,11.8607317 Z" id="Combined-Shape"></path>
            </g>
        </g>
        <rect id="Rectangle" stroke="#CED1D9" fill-rule="nonzero" x="0.5" y="0.5" width="59" height="59" rx="13.8375"></rect>
    </g>
</svg>