<?xml version="1.0" encoding="UTF-8"?>
<svg width="183px" height="49px" viewBox="0 0 183 49" version="1.1" xmlns="http://www.w3.org/2000/svg" xmlns:xlink="http://www.w3.org/1999/xlink">
    <title>Providedby-FullColor Copy</title>
    <g id="Page-1" stroke="none" stroke-width="1" fill="none" fill-rule="evenodd">
        <g id="Providedby-FullColor-Copy">
            <path d="M1.31452458,11.23925 L2.71311479,11.23925 L2.71311479,6.7766425 L5.83045625,6.7766425 C8.05471958,6.7766425 9.35220229,5.22734417 9.35220229,3.39176521 C9.35220229,1.55618625 8.08842208,0.00688791667 5.83045625,0.00688791667 L1.31452458,0.00688791667 L1.31452458,11.23925 Z M7.90305833,3.39176521 C7.90305833,4.65478292 6.99314167,5.53046333 5.66194375,5.53046333 L2.71311479,5.53046333 L2.71311479,1.25306708 L5.66194375,1.25306708 C6.99314167,1.25306708 7.90305833,2.1287475 7.90305833,3.39176521 Z" id="Shape" fill="#494949" fill-rule="nonzero"></path>
            <path d="M11.3349438,11.23925 L12.5987367,11.23925 L12.5987367,5.47994771 C12.9694896,4.82318104 14.0310167,4.18325292 14.8060979,4.18325292 C15.0084146,4.18325292 15.160025,4.20009146 15.3116354,4.23376854 L15.3116354,2.93707375 C14.1995292,2.93707375 13.2559354,3.56016333 12.5987367,4.41901792 L12.5987367,3.10548458 L11.3349438,3.10548458 L11.3349438,11.23925 Z" id="Path" fill="#494949" fill-rule="nonzero"></path>
            <path d="M20.6336313,11.4413125 C23.1106125,11.4413125 24.6609021,9.52159167 24.6609021,7.16396708 C24.6609021,4.8063425 23.1106125,2.90339667 20.6336313,2.90339667 C18.1565229,2.90339667 16.6063604,4.8063425 16.6063604,7.16396708 C16.6063604,9.52159167 18.1565229,11.4413125 20.6336313,11.4413125 Z M20.6336313,10.3130794 C18.8979271,10.3130794 17.9206563,8.83114792 17.9206563,7.16396708 C17.9206563,5.51362479 18.8979271,4.03169333 20.6336313,4.03169333 C22.3692083,4.03169333 23.3297042,5.51362479 23.3297042,7.16396708 C23.3297042,8.83114792 22.3692083,10.3130794 20.6336313,10.3130794 Z" id="Shape" fill="#494949" fill-rule="nonzero"></path>
            <polygon id="Path" fill="#494949" fill-rule="nonzero" points="29.0760312 11.23925 30.4576812 11.23925 33.8447062 3.10548458 32.4629292 3.10548458 29.7668562 9.77419521 27.0538812 3.10548458 25.6890062 3.10548458"></polygon>
            <path d="M35.9676333,1.79195125 C36.4393667,1.79195125 36.8269708,1.42146521 36.8269708,0.949935208 C36.8269708,0.478417917 36.4393667,0.0910933333 35.9676333,0.0910933333 C35.512675,0.0910933333 35.1250708,0.478417917 35.1250708,0.949935208 C35.1250708,1.42146521 35.512675,1.79195125 35.9676333,1.79195125 Z M35.3441625,11.23925 L36.6078792,11.23925 L36.6078792,3.10548458 L35.3441625,3.10548458 L35.3441625,11.23925 Z" id="Shape" fill="#494949" fill-rule="nonzero"></path>
            <path d="M45.2077354,11.23925 L46.4715792,11.23925 L46.4715792,0.00688791667 L45.2077354,0.00688791667 L45.2077354,4.3348125 C44.5505875,3.44228083 43.5564146,2.90339667 42.4612104,2.90339667 C40.3211271,2.90339667 38.8383187,4.58741604 38.8383187,7.18080562 C38.8383187,9.82471083 40.3380292,11.4413125 42.4612104,11.4413125 C43.6069937,11.4413125 44.6011667,10.8520271 45.2077354,10.0267988 L45.2077354,11.23925 Z M45.2077354,9.03322313 C44.7527771,9.74051813 43.7755062,10.3130794 42.7644312,10.3130794 C41.1300125,10.3130794 40.1526146,8.9827075 40.1526146,7.18080562 C40.1526146,5.37890375 41.1300125,4.03169333 42.7644312,4.03169333 C43.7755062,4.03169333 44.7527771,4.63793167 45.2077354,5.34522667 L45.2077354,9.03322313 Z" id="Shape" fill="#494949" fill-rule="nonzero"></path>
            <path d="M48.7118042,7.16396708 C48.7118042,9.70682833 50.4473813,11.4413125 52.8570083,11.4413125 C54.1882063,11.4413125 55.2835375,11.0035104 56.0922958,10.1951969 L55.4857271,9.37003208 C54.8453542,10.0267987 53.9017604,10.3972848 52.9749417,10.3972848 C51.2225896,10.3972848 50.1441604,9.11742854 50.0430021,7.58496875 L56.6315104,7.58496875 L56.6315104,7.26501104 C56.6315104,4.82318104 55.1823792,2.90339667 52.7221729,2.90339667 C50.3968021,2.90339667 48.7118042,4.8063425 48.7118042,7.16396708 Z M52.7053979,3.94748792 C54.5589083,3.94748792 55.3677938,5.44627062 55.3845688,6.65876 L50.0430021,6.65876 C50.1103563,5.41258083 50.9698208,3.94748792 52.7053979,3.94748792 Z" id="Shape" fill="#494949" fill-rule="nonzero"></path>
            <path d="M64.7573458,11.23925 L66.0211896,11.23925 L66.0211896,0.00688791667 L64.7573458,0.00688791667 L64.7573458,4.3348125 C64.1001979,3.44228083 63.106025,2.90339667 62.0106937,2.90339667 C59.8707375,2.90339667 58.3878021,4.58741604 58.3878021,7.18080562 C58.3878021,9.82471083 59.8875125,11.4413125 62.0106937,11.4413125 C63.1566042,11.4413125 64.1507771,10.8520271 64.7573458,10.0267988 L64.7573458,11.23925 Z M64.7573458,9.03322313 C64.3023875,9.74051813 63.3251167,10.3130794 62.3140417,10.3130794 C60.6794958,10.3130794 59.702225,8.9827075 59.702225,7.18080562 C59.702225,5.37890375 60.6794958,4.03169333 62.3140417,4.03169333 C63.3251167,4.03169333 64.3023875,4.63793167 64.7573458,5.34522667 L64.7573458,9.03322313 Z" id="Shape" fill="#494949" fill-rule="nonzero"></path>
            <path d="M73.2585854,11.23925 L74.5224292,11.23925 L74.5224292,10.0267988 C75.1289979,10.8520271 76.1231708,11.4413125 77.2690812,11.4413125 C79.3922625,11.4413125 80.8919729,9.82471083 80.8919729,7.18080562 C80.8919729,4.58741604 79.3922625,2.90339667 77.2690812,2.90339667 C76.156975,2.90339667 75.1795771,3.44228083 74.5224292,4.3348125 L74.5224292,0.00688791667 L73.2585854,0.00688791667 L73.2585854,11.23925 Z M74.5224292,9.03322313 L74.5224292,5.34522667 C74.9604854,4.63793167 75.9547854,4.03169333 76.9489583,4.03169333 C78.6002792,4.03169333 79.57755,5.37890375 79.57755,7.18080562 C79.57755,8.9827075 78.6002792,10.3130794 76.9489583,10.3130794 C75.9547854,10.3130794 74.9604854,9.74051813 74.5224292,9.03322313 Z" id="Shape" fill="#494949" fill-rule="nonzero"></path>
            <path d="M82.8794292,13.2769042 L82.6772396,14.4220521 C82.9131063,14.4894062 83.3343875,14.5399854 83.6039313,14.5399854 C84.6823604,14.5230833 85.5080208,14.0683792 85.9967833,12.8896812 L90.0745063,3.10548458 L88.6928563,3.10548458 L85.9967833,9.77419521 L83.2838083,3.10548458 L81.9189333,3.10548458 L85.3227333,11.3235062 L84.7835187,12.5527833 C84.4970729,13.2264521 84.1263708,13.4116125 83.5702542,13.4116125 C83.3680646,13.4116125 83.0647167,13.3611604 82.8794292,13.2769042 Z" id="Path" fill="#494949" fill-rule="nonzero"></path>
            <g id="Group" transform="translate(0.000000, 21.985417)">
                <path d="M8.38089167,14.2604021 L7.0892675,21.7777625 L0,21.7777625 L3.7550075,0.2135 L13.9681104,0.2135 C15.5483917,0.2135 16.8865792,0.308685417 17.9775896,0.496514583 C19.0686,0.689172917 19.9590729,0.977016667 20.6512958,1.3671625 C21.3412312,1.75502083 21.8427021,2.2379375 22.1508792,2.81845417 C22.4640125,3.39897083 22.6205792,4.08433125 22.6205792,4.88444792 C22.6205792,5.30153542 22.5692375,5.7942375 22.4689688,6.35276875 C22.2487333,7.58941667 21.7644188,8.69427917 21.0109417,9.66506875 C20.2600062,10.6310292 19.2251667,11.2870333 17.9041354,11.6236771 C18.3444792,11.7846917 18.7408521,11.9505354 19.0905854,12.1212083 C19.4428604,12.2895937 19.7437937,12.5042375 19.9932583,12.762725 C20.24285,13.0237542 20.4385583,13.3432417 20.5779688,13.7237292 C20.7173792,14.1018021 20.7882917,14.5920896 20.7882917,15.1896354 C20.7882917,15.8115812 20.7173792,16.5262979 20.5779688,17.3434437 C20.4385583,18.1044187 20.3285042,18.7337354 20.2476792,19.2336812 C20.1669813,19.7337542 20.1278396,20.1216125 20.1278396,20.4020854 C20.1278396,20.8801729 20.3089333,21.1190896 20.6660375,21.1190896 L20.5779688,21.7777625 L13.3981417,21.7777625 C13.3565854,21.5777333 13.3370146,21.348475 13.3370146,21.0898604 C13.3370146,20.7483875 13.3639563,20.3166854 13.4128833,19.7825542 C13.4618104,19.2580812 13.5474646,18.66295 13.6673042,18.0044042 C13.7895583,17.3434437 13.8482708,16.7873271 13.8482708,16.3286833 C13.8482708,15.5701229 13.6110062,15.0384062 13.1413062,14.7237479 C12.6691917,14.4164604 11.8032204,14.2628167 10.5433925,14.2628167 L8.38089167,14.2628167 L8.38089167,14.2604021 Z M9.22241208,9.52845417 L12.0135942,9.52845417 C13.1143646,9.52845417 13.9754813,9.377225 14.5943771,9.07972292 C15.2182292,8.77967917 15.5875333,8.25279167 15.7075,7.49181667 C15.7294854,7.39180208 15.7368563,7.24552917 15.7368563,7.04308542 C15.7368563,6.42596875 15.5068354,5.97228125 15.0469208,5.68202292 C14.5895479,5.39417917 13.9852667,5.24790625 13.2441167,5.24790625 L9.94161479,5.24790625 L9.22241208,9.52845417 Z" id="Shape" fill="#0684BD"></path>
                <path d="M32.5722208,6.08220833 L38.2818208,6.08220833 L37.8586333,8.538475 C38.7391938,7.57988542 39.6320812,6.86033958 40.5323396,6.36522292 C41.4350125,5.87735 42.4868812,5.6310625 43.6880729,5.6310625 C45.4493208,5.6310625 46.7409958,6.04319375 47.5628437,6.86033958 C48.3848188,7.67748542 48.7933917,8.86774792 48.7933917,10.4238833 C48.7933917,11.0434146 48.7346792,11.6897604 48.6148396,12.3678771 L46.992875,21.7730604 L40.7427896,21.7730604 L42.186075,13.4775687 C42.2447875,13.1166521 42.2765583,12.77035 42.2765583,12.42875 C42.2765583,11.887375 42.1493479,11.4409312 41.8997562,11.0824292 C41.6502917,10.7213854 41.1830062,10.5433417 40.5029833,10.5433417 C39.5440125,10.5433417 38.8395896,10.8287708 38.4016604,11.3970875 C37.9589021,11.9654042 37.6579688,12.7605646 37.5014021,13.7776125 L36.1192437,21.775475 L29.8715729,21.775475 L32.5722208,6.08220833 Z" id="Path" fill="#0684BD"></path>
                <path d="M54.6153333,22.29245 L54.6153333,22.3828062 C54.6153333,22.6022792 54.7058167,22.7998937 54.8869104,22.9827667 C55.1070188,23.2412542 55.5375771,23.3682104 56.1784583,23.3682104 C57.0787167,23.3682104 57.7587396,23.1413667 58.2211958,22.6827229 C58.6809833,22.2242062 59.0112729,21.4364167 59.2119375,20.3143979 L59.4516167,19.0265354 C58.9281604,19.4850521 58.2847375,19.887525 57.5142313,20.2265833 C56.7435979,20.5656417 55.7871687,20.7363146 54.6446896,20.7363146 C53.7052896,20.7363146 52.8760708,20.5826708 52.1666917,20.2851687 C51.4571854,19.9875396 50.8628167,19.5778229 50.3833313,19.0607208 C49.9014313,18.5386625 49.5393708,17.9216729 49.2995646,17.2021271 C49.0598854,16.4825812 48.9400458,15.71665 48.9400458,14.894675 C48.9400458,14.6361875 48.9572021,14.3751583 48.9865583,14.1165437 C49.0133729,13.8556417 49.0476854,13.5873687 49.0916563,13.3093104 C49.2506375,12.3507208 49.5369563,11.3921312 49.9479438,10.4335417 C50.3563896,9.47495208 50.9067875,8.62133333 51.5991375,7.87243125 C52.2889458,7.12124167 53.1207063,6.516325 54.0918771,6.04560833 C55.0630479,5.57730625 56.1980292,5.34309167 57.4994896,5.34309167 C58.4632896,5.34309167 59.31945,5.56993542 60.0680979,6.02362292 C60.8190333,6.47731042 61.4159438,7.08705625 61.8587021,7.8407875 L62.1865771,5.78953542 L67.6833125,5.78953542 L65.4913792,18.4314042 C65.2884271,19.6046375 65.0340063,20.7046708 64.7257021,21.7241333 C64.4151104,22.7413083 63.9184687,23.6315271 63.2360312,24.3900875 C62.5558812,25.1511896 61.6238521,25.7437792 60.4447729,26.1730667 C59.2632792,26.5999396 57.7000271,26.8145833 55.7578125,26.8145833 C54.3976396,26.8145833 53.2455021,26.695125 52.3036875,26.4560812 C51.3642875,26.2170375 50.601025,25.89755 50.0212708,25.4999062 C49.4391021,25.099975 49.0133729,24.6413312 48.7443375,24.1194 C48.4777167,23.6022979 48.3407208,23.0632104 48.3407208,22.5022646 L48.3407208,22.2949917 L54.6153333,22.2949917 L54.6153333,22.29245 Z M58.3410354,9.77258125 C57.8811208,9.77258125 57.4823333,9.86039583 57.1398438,10.0432687 C56.7998958,10.2262687 56.5087479,10.4749708 56.2665271,10.797 C56.0268479,11.1164875 55.8311396,11.4945604 55.6819438,11.9384625 C55.5302063,12.3823646 55.4127813,12.8506667 55.3370396,13.3507396 C55.3149271,13.4921833 55.3003125,13.6263833 55.2929417,13.7434271 C55.2807417,13.8654271 55.2757854,13.9873 55.2757854,14.1043437 C55.2783271,14.7288312 55.4323521,15.2629625 55.7406563,15.71665 C56.0512479,16.1727521 56.5552604,16.4069667 57.2598104,16.4264104 L57.4090063,16.4264104 C57.8517646,16.4264104 58.2431813,16.3337667 58.5978708,16.1507667 C58.9477313,15.9752646 59.2485375,15.7312646 59.4981292,15.4337625 C59.7475938,15.1313042 59.9530875,14.7874167 60.1120687,14.3946021 C60.27105,14.0044562 60.3934312,13.5970271 60.4741292,13.1751104 C60.5304271,12.8530812 60.5646125,12.5213937 60.5646125,12.1799208 C60.5646125,11.5165458 60.4008021,10.9506437 60.0802979,10.4823417 C59.7623354,10.011625 59.2021521,9.77499583 58.4021625,9.77499583 L58.3410354,9.77499583 L58.3410354,9.77258125 Z" id="Shape" fill="#0684BD"></path>
                <path d="M82.3287771,8.72617708 C82.3287771,8.65297708 82.3360208,8.58714792 82.3458063,8.52614792 C82.3555917,8.47251875 82.3629625,8.404275 82.3629625,8.32866042 C82.3629625,7.38468542 82.0913854,6.65535417 81.5507729,6.1480375 C81.012575,5.63830625 80.2494396,5.38464792 79.2660688,5.38464792 C78.0722479,5.38464792 77.0569792,5.87735 76.2253458,6.86999792 C75.3935854,7.86277292 74.8016312,9.3505375 74.4615563,11.3287167 C74.3881021,11.7092042 74.3319313,12.0726625 74.2927896,12.4213792 C74.2536479,12.7702229 74.2364917,13.1068667 74.2364917,13.4263542 C74.2364917,13.9190562 74.2878333,14.3727437 74.3906438,14.784875 C74.4957417,15.1995479 74.6768354,15.5654208 74.9312563,15.8776646 C75.1856771,16.1873667 75.5232104,16.4337812 75.9390271,16.611825 C76.3549708,16.794825 76.8857979,16.8800979 77.5292208,16.8800979 C78.6079042,16.8800979 79.4739771,16.550825 80.1296,15.8922792 C80.7826813,15.2313187 81.2597521,14.4117583 81.5631,13.4263542 L88.0088937,13.4263542 C87.6298042,14.7484021 87.08665,15.9288792 86.3772708,16.9679125 C85.6678917,18.0045312 84.8239313,18.8899208 83.8478042,19.6144229 C82.8742188,20.3387979 81.7832083,20.8973292 80.5821438,21.2851875 C79.3785375,21.6705042 78.1064333,21.8657042 76.7610021,21.8657042 C75.2835313,21.8657042 73.9772417,21.677875 72.8397188,21.2998021 C71.7046104,20.9217292 70.743225,20.3753979 69.9555625,19.6582667 C69.1727292,18.9411354 68.5734042,18.0655312 68.1673729,17.0386979 C67.7588,16.0093229 67.5581354,14.845875 67.5581354,13.5385687 C67.5581354,13.1629104 67.5752917,12.7702229 67.6144333,12.3653354 C67.6511604,11.9604479 67.7098729,11.5409458 67.7857417,11.1042875 C68.0719333,9.46275208 68.5880188,7.98223125 69.3488667,6.65535417 C70.1071729,5.33343333 71.0245875,4.21141458 72.1058125,3.28701042 C73.1846229,2.36006458 74.3906438,1.65030417 75.7262896,1.14781667 C77.06435,0.650285417 78.4415521,0.399041667 79.8604375,0.399041667 C82.8326625,0.399041667 85.053825,1.05034375 86.5216375,2.35282083 C87.9869083,3.65529792 88.7208146,5.49927708 88.7208146,7.87497292 L88.7208146,8.29930417 C88.7208146,8.43350417 88.7086146,8.57253333 88.6938729,8.7237625 L82.3287771,8.7237625 L82.3287771,8.72617708 Z" id="Path" fill="#FF8800"></path>
                <path d="M95.2278625,14.9799479 C95.2082917,15.0774208 95.19355,15.1774354 95.1837646,15.27745 C95.1715646,15.3774646 95.16915,15.4774792 95.16915,15.5774937 C95.16915,16.3384687 95.4186146,16.9385562 95.9176708,17.3897021 C96.4216833,17.840975 97.0405792,18.0629896 97.7793146,18.0629896 C98.2807854,18.0629896 98.7651,17.9482333 99.2226,17.7215167 C99.6825146,17.4897167 100.061604,17.1506583 100.362538,16.6873125 L106.341173,16.6873125 C105.900829,17.6653458 105.326031,18.4824917 104.61411,19.1434521 C103.899902,19.7995833 103.117069,20.3337146 102.253538,20.7459729 C101.392421,21.1508604 100.484919,21.4435333 99.5357333,21.6143333 C98.5817188,21.7825917 97.6496896,21.8679917 96.7274458,21.8679917 C95.6045375,21.8679917 94.5722396,21.7289625 93.6328396,21.4459479 C92.691025,21.1678896 91.8789625,20.7483875 91.1988125,20.1898562 C90.516375,19.6337396 89.9879625,18.9483792 89.6063313,18.1360625 C89.2247,17.3262875 89.0339479,16.3970542 89.0339479,15.33845 C89.0339479,15.0774208 89.0509771,14.8115625 89.0803333,14.540875 C89.107275,14.2726021 89.1440021,14.0017875 89.1831438,13.7189 C89.4032521,12.4432375 89.8338104,11.277375 90.4748188,10.2309708 C91.1157,9.18456667 91.9009479,8.29434792 92.8305625,7.56501667 C93.7625917,6.83568542 94.804675,6.272325 95.9543979,5.87226667 C97.1090771,5.47220833 98.3125563,5.27472083 99.5724604,5.27472083 C100.834652,5.27472083 101.952604,5.45276458 102.923775,5.81368125 C103.894946,6.17231042 104.711965,6.67225625 105.374958,7.31135833 C106.032996,7.95033333 106.536881,8.73087917 106.874542,9.64803958 C107.21449,10.5650729 107.385798,11.5724625 107.385798,12.6724958 C107.385798,13.3530271 107.3051,14.1188312 107.145992,14.9799479 L95.2278625,14.9799479 Z M101.446304,11.8017208 C101.465875,11.7017062 101.47566,11.5528917 101.47566,11.3529896 C101.47566,10.7114729 101.255425,10.1723854 100.817496,9.73585417 C100.374737,9.29678125 99.8243396,9.07730833 99.1638875,9.07730833 C98.2244875,9.07730833 97.4637667,9.31876667 96.8814708,9.80892708 C96.2993021,10.2992146 95.9298708,10.9627167 95.768475,11.8017208 L101.446304,11.8017208 Z" id="Shape" fill="#FF8800"></path>
                <path d="M109.421292,6.1724375 L115.125935,6.1724375 L114.70529,8.62870417 C115.588392,7.67011458 116.478737,6.95056875 117.38141,6.45545208 C118.281669,5.96757917 119.333538,5.72129167 120.532188,5.72129167 C122.295977,5.72129167 123.587652,6.13342292 124.409627,6.95056875 C125.22906,7.76771458 125.642463,8.95797708 125.642463,10.5141125 C125.642463,11.1336437 125.578921,11.7799896 125.458954,12.4581062 L123.842073,21.8632896 L117.59186,21.8632896 L119.035146,13.567925 C119.093858,13.2068812 119.123215,12.8605792 119.123215,12.5191063 C119.123215,11.9776042 118.998419,11.5312875 118.746413,11.1726583 C118.496948,10.8117417 118.032204,10.6335708 117.352054,10.6335708 C116.390669,10.6335708 115.686246,10.919 115.245902,11.4873167 C114.805558,12.0556333 114.50704,12.8507937 114.345644,13.8678417 L112.963485,21.8657042 L106.715688,21.8657042 L109.421292,6.1724375 Z" id="Path" fill="#FF8800"></path>
                <path d="M135.393313,21.7484062 C134.689271,21.7850062 134.042417,21.8167771 133.451479,21.8387625 C132.864354,21.8582062 132.315354,21.8655771 131.814646,21.8655771 C130.872958,21.8655771 130.0825,21.8216062 129.444542,21.7313771 C128.800229,21.6435625 128.291896,21.4801333 127.910646,21.250875 C127.530667,21.0240312 127.262521,20.7143292 127.101125,20.3362562 C126.939094,19.9605979 126.86081,19.4776812 126.86081,18.9019937 C126.86081,18.5434917 126.887625,18.1361896 126.936552,17.6873312 C126.988021,17.2386 127.058933,16.7409417 127.162125,16.2043958 L128.304604,9.64803958 L126.077977,9.64803958 L126.679717,6.05031042 L128.990854,6.05031042 L129.865188,1.16726042 L136.022375,1.16726042 L135.150583,6.05031042 L138.154833,6.05031042 L137.553729,9.64803958 L134.549479,9.64803958 L133.560771,15.36285 C133.520104,15.54585 133.492146,15.7043229 133.470542,15.8531375 C133.448937,16.0067812 133.438771,16.1409812 133.438771,16.2604396 C133.438771,16.6409271 133.560771,16.9117417 133.800958,17.0751708 C134.044958,17.2336437 134.493562,17.3116729 135.153125,17.3116729 L136.144375,17.3116729 L135.393313,21.7484062 Z" id="Path" fill="#FF8800"></path>
                <path d="M139.442187,6.1724375 L145.121542,6.1724375 L144.578896,9.34812292 L144.642437,9.34812292 C145.899292,6.93099792 147.722938,5.72357917 150.107021,5.72357917 C150.246813,5.72357917 150.381521,5.73577917 150.513688,5.75535 C150.640771,5.77479375 150.780563,5.79677917 150.919083,5.81635 L149.807104,12.0458479 C149.608854,12.0042917 149.400437,11.9652771 149.192021,11.9238479 C148.979792,11.8872479 148.765021,11.8652625 148.543896,11.8652625 C147.262896,11.8652625 146.2475,12.2067354 145.496438,12.8848521 C144.745375,13.5629687 144.21925,14.7556458 143.918062,16.4483958 L142.986542,21.8705333 L136.736583,21.8705333 L139.442187,6.1724375 Z" id="Path" fill="#FF8800"></path>
                <path d="M159.281167,21.8997625 L159.246854,19.741125 C158.226375,20.5753 157.218604,21.1412021 156.226083,21.4314604 C155.237375,21.7193042 154.150813,21.8655771 152.967667,21.8655771 C152.306833,21.8655771 151.675229,21.7923771 151.076667,21.6436896 C150.476833,21.4924604 149.95325,21.2606604 149.516083,20.9363437 C149.072563,20.6167292 148.723083,20.2264562 148.461292,19.7509104 C148.204583,19.2850229 148.072417,18.7191208 148.072417,18.0581604 C148.072417,17.7801021 148.101646,17.4726875 148.165188,17.1337562 C148.363438,15.9531521 148.799333,15.0311625 149.469063,14.3604167 C150.138792,13.6920854 150.921625,13.189725 151.812479,12.8506667 C152.69825,12.5091937 153.645021,12.2749792 154.635,12.1433208 C155.62625,12.0140771 156.548875,11.8944917 157.400333,11.7846917 C158.251792,11.6726042 158.974896,11.5262042 159.562021,11.3359604 C160.151688,11.1433021 160.492271,10.8018292 160.56725,10.3017562 C160.56725,10.2627417 160.574875,10.2261417 160.585042,10.1993271 C160.595208,10.1675562 160.599021,10.1359125 160.599021,10.0944833 C160.601562,9.853025 160.529125,9.66265417 160.389333,9.523625 C160.249542,9.3871375 160.083063,9.27975208 159.892438,9.20909375 C159.704354,9.13830833 159.501021,9.09192292 159.278625,9.06027917 C159.058771,9.02850833 158.877042,9.01630833 158.738521,9.01630833 C158.513583,9.01630833 158.283563,9.03092292 158.033208,9.06027917 C157.784125,9.09192292 157.546479,9.16270833 157.326625,9.27250833 C157.106771,9.38218125 156.903438,9.535825 156.712813,9.73585417 C156.522188,9.93829792 156.384938,10.2066979 156.306146,10.5456292 L150.298917,10.5456292 C150.437438,9.70421042 150.719563,8.96026458 151.140208,8.31150417 C151.560854,7.66261667 152.158146,7.11145625 152.925729,6.6650125 C153.698396,6.21628125 154.642625,5.86985208 155.7635,5.63080833 C156.885646,5.38693542 158.231458,5.27230625 159.7895,5.27230625 C161.214104,5.27230625 162.380729,5.36749167 163.288104,5.55773542 C164.203104,5.74556458 164.917313,6.02108125 165.438354,6.382125 C165.959396,6.7382125 166.321583,7.16991458 166.519833,7.66757292 C166.718083,8.16510417 166.822292,8.72859167 166.822292,9.34812292 C166.822292,9.72365417 166.795604,10.1163417 166.744771,10.5115708 C166.692667,10.9115021 166.626583,11.3310042 166.549062,11.7724917 L165.287125,19.1093937 C165.229938,19.4484521 165.198167,19.728925 165.198167,19.9459833 C165.198167,20.1679979 165.237562,20.3630708 165.318896,20.5314562 C165.398958,20.6997146 165.551458,20.8972021 165.768771,21.1168021 L165.747167,21.8973479 L159.281167,21.8973479 L159.281167,21.8997625 Z M156.392563,18.3288479 C156.930125,18.3288479 157.406688,18.2337896 157.818437,18.0337604 C158.228917,17.8337312 158.574583,17.5580875 158.850354,17.2068292 C159.13375,16.8581125 159.349792,16.4482687 159.513729,15.9775521 C159.675125,15.5116646 159.783146,15.0067625 159.844146,14.4678021 C159.283708,14.7068458 158.715646,14.8799333 158.146313,14.9945625 C157.575708,15.1043625 157.043229,15.2239479 156.553958,15.3531917 C156.062146,15.4824354 155.638958,15.6653083 155.29075,15.9068937 C154.938729,16.1458104 154.723958,16.514225 154.642625,17.0165854 L154.642625,17.1922146 C154.642625,17.5361021 154.7875,17.8093312 155.078521,18.0167312 C155.374625,18.2288333 155.80925,18.3288479 156.392563,18.3288479 Z" id="Shape" fill="#FF8800"></path>
                <polygon id="Path" fill="#FF8800" points="166.815938 21.8655771 170.567438 0.301441667 176.821208 0.301441667 173.068437 21.8655771"></polygon>
                <polygon id="Path" fill="#0684BD" points="21.744975 21.7778896 25.2651833 9.04083542 29.7907479 9.04083542 27.9658313 21.7778896"></polygon>
                <path d="M32.0704958,3.35525417 C32.0680812,3.35525417 32.0704958,3.35525417 32.0558812,3.33339583 C32.0411396,3.30645417 32.0117833,3.25778125 31.9678125,3.19919583 C31.8772021,3.07719583 31.7304208,2.90652292 31.5152687,2.71386458 C31.0773396,2.33579167 30.3679604,1.8917625 29.2156958,1.682075 C28.6481417,1.57964583 28.1638271,1.57468958 27.7454687,1.61866042 C26.7351562,1.72350417 26.1212167,2.13080625 25.9059375,2.29919167 C25.8300687,2.35040625 25.8202833,2.36502083 25.8202833,2.36502083 C25.5340917,2.65286458 25.0643917,2.65045 24.7782,2.36260625 C24.4895938,2.07717708 24.4895938,1.608875 24.7782,1.32357292 C24.8516542,1.2527875 25.7933417,0.3454125 27.5914437,0.157583333 C28.1442562,0.099125 28.7778938,0.108783333 29.4799021,0.2356125 C32.3371167,0.74305625 33.3376437,2.57725 33.3889854,2.69670833 C33.5724937,3.06016667 33.4257125,3.50165417 33.0612375,3.68948333 C32.9805396,3.72849792 32.8948854,3.75289792 32.8068167,3.76268333 C32.508425,3.78454167 32.2099062,3.63572708 32.0704958,3.35525417 Z" id="Path" fill="#FF8800"></path>
                <path d="M30.2333792,5.02856042 C30.2309646,5.030975 30.2333792,5.02614583 30.1894083,4.96018958 C30.1404813,4.90173125 30.0646125,4.80413125 29.9447729,4.70170208 C29.7075083,4.49684375 29.3160917,4.24801458 28.6628833,4.12601458 C28.3425062,4.06755625 28.0685146,4.06514167 27.8384938,4.08954167 C27.2758958,4.148 26.9431917,4.37242917 26.8305958,4.45782917 C26.798825,4.48222917 26.8012396,4.48464375 26.8012396,4.48464375 C26.5615604,4.7236875 26.1725583,4.7236875 25.9304646,4.48464375 C25.6906583,4.24318542 25.6906583,3.85774167 25.9304646,3.61628333 C25.9891771,3.55528333 26.5860875,2.98696667 27.7112833,2.86992292 C28.0561875,2.8357375 28.4476042,2.84310833 28.8805771,2.91872292 C30.6541521,3.23338125 31.2950333,4.37967292 31.3367167,4.47727292 C31.4883271,4.77731667 31.3660729,5.14801875 31.0601833,5.29924792 C30.9918125,5.33584792 30.9207729,5.35783333 30.8474458,5.3626625 C30.6003958,5.38947708 30.3483896,5.26264792 30.2333792,5.02856042 Z" id="Path" fill="#FF8800"></path>
                <path d="M29.7072785,6.53335417 C29.7022979,7.2895 28.9855479,7.89683125 28.1048604,7.89200208 C27.2217583,7.88717292 26.5099646,7.27247083 26.512373,6.52115417 C26.5147937,5.76513542 27.2315438,5.15780417 28.1171875,5.16021158 C28.9977479,5.16263333 29.7120833,5.78457917 29.7072785,6.53335417 Z" id="Path" fill="#FF8800"></path>
                <path d="M180.159688,0.330670833 C178.594021,0.330670833 177.321917,1.60137708 177.321917,3.16246875 C177.321917,4.72584792 178.594021,5.99668125 180.159688,5.99668125 C181.725354,5.99668125 183,4.72584792 183,3.16246875 C183,1.60137708 181.727896,0.330670833 180.159688,0.330670833 Z M180.159688,5.48440833 C178.876146,5.48440833 177.831521,4.44296042 177.831521,3.16246875 C177.831521,1.88439167 178.876146,0.840402083 180.159688,0.840402083 C181.4445,0.840402083 182.48913,1.88439167 182.48913,3.16246875 C182.491667,4.445375 181.4445,5.48440833 180.159688,5.48440833 Z M181.473729,4.09170208 C181.452125,3.96982917 181.439417,3.8308 181.439417,3.67461458 C181.439417,3.55274167 181.422896,3.44777083 181.391125,3.35995625 C181.359354,3.27709792 181.317417,3.20148333 181.262771,3.1453125 C181.238625,3.11849792 181.217021,3.0965125 181.190333,3.07706875 C181.211938,3.06003958 181.233542,3.03805417 181.253875,3.01606875 C181.314875,2.95265417 181.36825,2.87221042 181.415271,2.77219583 C181.461021,2.66976667 181.483896,2.54776667 181.483896,2.3965375 C181.483896,2.12826458 181.393667,1.91120625 181.211938,1.75502083 C181.037833,1.60379167 180.781125,1.52817708 180.446896,1.52817708 L179.135396,1.52817708 C179.064229,1.52817708 179.008313,1.58434792 179.008313,1.65500625 L179.008313,4.396575 C179.008313,4.46736042 179.064229,4.52340417 179.135396,4.52340417 L179.617042,4.52340417 C179.688208,4.52340417 179.744125,4.46494583 179.744125,4.396575 L179.744125,3.39414167 L180.326167,3.39414167 C180.418938,3.39414167 180.495188,3.40634167 180.548563,3.42832708 C180.595583,3.44535625 180.632438,3.47217083 180.659125,3.5136 C180.688354,3.55998542 180.709958,3.61857083 180.722667,3.69177083 C180.737917,3.77462917 180.744271,3.87947292 180.744271,3.99410208 C180.744271,4.06247292 180.746813,4.1380875 180.754437,4.2112875 C180.762063,4.30393125 180.791292,4.38933125 180.835771,4.46494583 C180.857375,4.50154583 180.899313,4.52594583 180.942521,4.52594583 L181.458479,4.52594583 C181.510583,4.52594583 181.556333,4.494175 181.576667,4.44778958 C181.598271,4.40153125 181.588104,4.347775 181.552521,4.31130208 C181.534729,4.29173125 181.497875,4.23314583 181.473729,4.09170208 Z M179.744125,2.17706458 L180.397333,2.17706458 C180.450708,2.17706458 180.505354,2.17947917 180.556188,2.18926458 C180.595583,2.19650833 180.629896,2.20870833 180.659125,2.22827917 C180.683271,2.24772292 180.706146,2.27212292 180.720125,2.30630833 C180.737917,2.34290833 180.746813,2.39895208 180.746813,2.46478125 C180.746813,2.57458125 180.722667,2.65261042 180.671833,2.69899583 C180.614646,2.74779583 180.526958,2.77461042 180.4075,2.77461042 L179.746667,2.77461042 L179.746667,2.17706458 L179.744125,2.17706458 Z" id="Shape" fill="#FF8800" fill-rule="nonzero"></path>
            </g>
        </g>
    </g>
</svg>