<?xml version="1.0" encoding="UTF-8"?>
<svg width="75px" height="75px" viewBox="0 0 75 75" version="1.1" xmlns="http://www.w3.org/2000/svg" xmlns:xlink="http://www.w3.org/1999/xlink">
    <title>MVP icon</title>
    <g id="mvp-icon" stroke="none" stroke-width="1" fill="none" fill-rule="evenodd">
        <g id="Group-2-Copy">
            <path d="M22.1585781,0.5 L52.8414219,0.5 C60.4048436,0.5 63.1545503,1.26983583 65.9215096,2.74962186 C68.6499268,4.20879536 70.7912046,6.35007315 72.2503781,9.07849037 C73.7301642,11.8454497 74.5,14.5951564 74.5,22.1585781 L74.5,22.1585781 L74.5,52.8414219 C74.5,60.4048436 73.7301642,63.1545503 72.2503781,65.9215096 C70.7912046,68.6499268 68.6499268,70.7912046 65.9215096,72.2503781 C63.1545503,73.7301642 60.4048436,74.5 52.8414219,74.5 L52.8414219,74.5 L22.1585781,74.5 C14.5951564,74.5 11.8454497,73.7301642 9.07849037,72.2503781 C6.35007315,70.7912046 4.20879536,68.6499268 2.74962186,65.9215096 C1.26983583,63.1545503 0.5,60.4048436 0.5,52.8414219 L0.5,52.8414219 L0.5,22.1585781 C0.5,14.5951564 1.26983583,11.8454497 2.74962186,9.07849037 C4.20879536,6.35007315 6.35007315,4.20879536 9.07849037,2.74962186 C11.8454497,1.26983583 14.5951564,0.5 22.1585781,0.5 L22.1585781,0.5 Z" id="Rectangle" stroke="#E2E2E2" fill="#FFFFFF"></path>
            <g id="Group" transform="translate(11.499023, 18.896484)" fill="#5514B4" fill-rule="nonzero">
                <path d="M20.4118562,2.53462514e-05 C22.6384132,0.000622323924 24.8270641,0.574575863 26.7671346,1.66649676 C28.7072051,2.75841766 30.3333594,4.33155309 31.4886395,6.234131 C33.376708,5.53982622 35.417925,5.37072511 37.3945683,5.74491844 C39.3712115,6.11911178 41.2093735,7.02250779 42.7126662,8.35893976 C44.2161494,9.69537172 45.3285707,11.4145663 45.9314498,13.3333307 C46.5343288,15.2520951 46.6049981,17.298447 46.1360286,19.2543451 C48.1444825,20.0461496 49.8131146,21.5143586 50.8539143,23.4053203 C51.8949045,25.2960916 52.2425362,27.4909783 51.8369976,29.6108359 C51.4316496,31.7308839 50.2982751,33.6426024 48.6328812,35.0161681 C46.9676779,36.3895433 44.87484,37.1386917 42.7159044,37.1337649 L42.7159044,37.1337649 L11.143329,37.1337649 C8.49370896,37.135264 5.93037775,36.1922587 3.91354259,34.4742066 C1.89689791,32.7561546 0.55894455,30.375409 0.140072192,27.7598643 C-0.278800165,25.1443196 0.248838048,22.4651715 1.62812624,20.2034441 C3.00741444,17.9419072 5.14825411,16.245945 7.66586937,15.4202441 C7.30166566,13.5429932 7.35785818,11.6082328 7.83006581,9.75516648 C8.30246392,7.90190973 9.17944815,6.17643096 10.3979686,4.7023187 C11.6162986,3.22820644 13.1462589,2.0420231 14.8777504,1.22889051 C16.6090514,0.415948359 18.4990248,-0.00375754714 20.4118562,2.53462514e-05 Z M20.4118562,1.8567064 C18.772368,1.85311736 17.1524997,2.21245721 15.6684458,2.90904714 C14.1843919,3.6058275 12.8731061,4.62252888 11.8288777,5.88602647 C10.7846493,7.14971448 10.0333839,8.62896833 9.62898829,10.2173381 C9.22478313,11.8057079 9.17735284,13.4639651 9.49050707,15.0729012 L9.49050707,15.0729012 L9.79489908,16.6711733 L8.25008106,17.1826661 C6.15133816,17.8695441 4.36632094,19.2821478 3.21599344,21.1666349 C2.06547546,23.0513125 1.62507851,25.2840946 1.9736626,27.4641278 C2.32224669,29.644161 3.43695385,31.628433 5.11777681,33.0606509 C6.79840928,34.4926783 8.93505832,35.2785795 11.143329,35.2770865 L11.143329,35.2770865 L42.7159044,35.2770865 C44.4432052,35.2820072 46.1181232,34.6832979 47.4507431,33.5843311 C48.7831724,32.4855548 49.689872,30.9558372 50.0136933,29.2594941 C50.3375146,27.563151 50.0582663,25.8070131 49.2241408,24.294815 C48.3900153,22.7826169 47.0535858,21.6093827 45.4457179,20.9779196 L45.4457179,20.9779196 L43.961283,20.3837806 L44.3285344,18.8279742 C44.722263,17.1979004 44.665499,15.491655 44.164338,13.8912882 C43.6631769,12.2911118 42.7362861,10.8571801 41.4829072,9.74278858 C40.2293379,8.62858747 38.6967108,7.87563051 37.0484605,7.56485009 C35.4000196,7.25406967 33.6982435,7.39708198 32.1250435,7.97846226 L32.1250435,7.97846226 L30.6960392,8.49947649 L29.903439,7.20170165 C28.9178794,5.56705759 27.5256384,4.21558173 25.8621494,3.2788606 C24.1988509,2.34232991 22.3210684,1.85235564 20.4118562,1.8567064 Z M32.5785838,12.9692301 C33.8018663,12.9692301 34.9750518,13.455015 35.8400356,14.3197539 C36.7052099,15.1846832 37.1911323,16.3575365 37.1911323,17.5804726 C37.1911323,18.279668 37.0322031,18.9667791 36.7297013,19.5910318 C37.8287068,20.0713043 38.7905305,20.8285231 39.5184549,21.792766 C40.3817244,22.9362932 40.8746947,24.3161431 40.9312682,25.7477896 L40.9312682,26.2798487 C40.9299348,26.6858437 40.7678336,27.0748905 40.4802042,27.3614865 C40.1925747,27.6482728 39.8030367,27.8091855 39.3969267,27.8091855 L26.5486015,27.8115156 C26.4740223,27.8226715 26.3982916,27.828383 26.3219756,27.8284188 L12.6849088,27.8284188 C12.2787988,27.8282284 11.8892609,27.6673157 11.6016314,27.3805294 C11.3140019,27.0939335 11.1519008,26.7048867 11.1505674,26.2988917 L11.1505674,25.7668325 C11.2071409,24.3353764 11.7001111,22.9553362 12.5633806,21.811809 C13.2915277,20.8472712 14.253717,20.0898841 15.3541589,19.6082129 C15.1826011,19.2589183 15.0568305,18.885901 14.9798493,18.4992934 C14.8019381,17.6046572 14.89337,16.6774575 15.242335,15.8348084 C15.5914906,14.9923497 16.1827502,14.2721466 16.9412539,13.7654145 C17.6997576,13.2586825 18.5915996,12.988273 19.5040137,12.988273 C20.7272962,12.988273 21.9004817,13.4740579 22.7656559,14.3387968 C23.6306397,15.2037261 24.1165621,16.3765794 24.1165621,17.5995156 C24.1165621,18.2987109 23.9576329,18.985822 23.6551311,19.6100748 C24.5657796,20.0079564 25.3828527,20.5965848 26.0503513,21.3356224 C26.2183748,21.1603803 26.3940295,20.9936078 26.5777944,20.8358594 C27.1435789,20.3487981 27.7703016,19.9389034 28.4413724,19.6160744 C28.2636967,19.2591234 28.1333877,18.8768374 28.0544195,18.4802505 C27.8765082,17.5856142 27.9679401,16.6584146 28.3169052,15.8157655 C28.6660607,14.9733068 29.2573203,14.2531036 30.0158241,13.7463716 C30.7743278,13.2396396 31.6661697,12.9692301 32.5785838,12.9692301 Z M16.5462109,21.1380737 L16.6623866,21.0969378 C15.6551119,21.4193344 14.7680321,22.0370867 14.1163894,22.8698335 C13.4647467,23.7023898 13.0784469,24.7118549 13.0077777,25.7668325 L13.0077777,25.9717343 L25.193,25.971 L25.1939346,25.952501 L25.999,25.952 L25.9991067,25.7668325 C25.928628,24.7118549 25.5423282,23.7023898 24.8906855,22.869643 C24.2645589,22.0695038 23.4210721,21.4678518 22.4622839,21.1361419 C22.1050702,21.4360795 21.703375,21.6801549 21.2692206,21.8599875 C20.4263329,22.2088538 19.4988706,22.3002598 18.603981,22.1223989 C17.844347,21.9712266 17.1371665,21.6318516 16.5462109,21.1380737 Z M35.5362118,21.1167738 L35.5046901,21.1451878 C35.1558679,21.4313791 34.7650442,21.6664163 34.3436003,21.8409446 C33.500903,22.1898109 32.5734408,22.2812169 31.6785511,22.103356 C30.9216956,21.9527366 30.2169105,21.6152887 29.6272701,21.1244427 L29.7371473,21.0778949 C29.0281691,21.3524938 28.3708119,21.7451587 27.7928862,22.239132 C27.5513129,22.4464416 27.3286216,22.6744729 27.1271412,22.9206529 C27.5674931,23.8034436 27.8171646,24.772696 27.856317,25.7668325 L27.856,25.952 L39.0740578,25.952501 L39.0740578,25.7477896 C39.0033886,24.692812 38.6170889,23.6833469 37.9654461,22.8507905 C37.3391015,22.0503726 36.4952451,21.4485802 35.5362118,21.1167738 Z M19.5040137,14.8449575 C18.7733204,14.8457192 18.0731045,15.1363142 17.5565143,15.6525677 C17.0399241,16.1690116 16.7492469,16.8692197 16.748485,17.5995156 C16.748485,18.1443334 16.9100147,18.6769638 17.2128828,19.1299949 C17.5155605,19.5830259 17.9458618,19.9360816 18.4493087,20.1446015 C18.952946,20.3531215 19.5068709,20.4075842 20.0413665,20.3013247 C20.5758621,20.1950652 21.0669276,19.9328443 21.4522749,19.547606 C21.8376222,19.1623678 22.100108,18.6714414 22.2063975,18.1370971 C22.3126871,17.6027529 22.2582089,17.0487944 22.0496299,16.5454901 C21.8410509,16.0421858 21.4878952,15.6120062 21.0347359,15.3092239 C20.5815766,15.0066319 20.0489858,14.8449575 19.5040137,14.8449575 Z M32.5785838,14.8259146 C31.8478906,14.8266763 31.1474842,15.1170808 30.630894,15.6335247 C30.1144943,16.1499687 29.8238171,16.8501768 29.8230551,17.5804726 C29.8230551,18.1252905 29.9845848,18.6579209 30.287453,19.1109519 C30.5901306,19.563983 31.020432,19.9170386 31.5238788,20.1255586 C32.0275162,20.3340785 32.5814411,20.3885413 33.1159367,20.2822818 C33.6504323,20.1760223 34.1414977,19.9136109 34.526845,19.5283727 C34.9121924,19.1431345 35.1744876,18.6523985 35.2809677,18.1180542 C35.3872573,17.5837099 35.3325886,17.0297515 35.1242001,16.5264472 C34.9156211,16.0231428 34.5624654,15.5927729 34.1093061,15.2901809 C33.6561468,14.9873985 33.123556,14.8259146 32.5785838,14.8259146 Z" id="Combined-Shape"></path>
            </g>
        </g>
    </g>
</svg>