<?xml version="1.0" encoding="UTF-8"?>
<svg width="218px" height="60px" viewBox="0 0 192 49" version="1.1" xmlns="http://www.w3.org/2000/svg" xmlns:xlink="http://www.w3.org/1999/xlink">
    <!-- Generator: Sketch 60.1 (88133) - https://sketch.com -->
    <title>logo</title>
    <desc>Created with Sketch.</desc>
    <g id="Page-1" stroke="none" stroke-width="1" fill="none" fill-rule="evenodd">
        <g id="logo" fill="#5514B4" fill-rule="nonzero">
            <path d="M20.1,21 C20.1,20 19.3,19.4 18.1,19.4 L16.1,19.4 L16.1,22.6 L18.1,22.6 C18.7,22.7 20.1,22.5 20.1,21 L20.1,21 Z M20.1,27.6 C20.1,26.6 19.3,26 18.1,26 L16.1,26 L16.1,29.2 L18.1,29.2 C18.7,29.2 20.1,29.1 20.1,27.6 L20.1,27.6 Z M24.5,27.9 C24.5,30.8 22.3,32.9 19.1,32.9 L12.3,32.9 L12.3,16.1 L18.7,16.1 C21.9,16.1 24.1,18 24.1,20.8 C24.1,22.1 23.5,23.4 22.5,24.1 C23.6,24.8 24.5,26.1 24.5,27.9 L24.5,27.9 Z M46,24.5 C46,12.6 36.4,3 24.5,3 C12.6,3 3,12.6 3,24.5 C3,36.4 12.6,46 24.5,46 C36.4,46 46,36.4 46,24.5 L46,24.5 Z M49,24.5 C49,38.1 38,49 24.5,49 C10.9,49 1.77635684e-14,38 1.77635684e-14,24.5 C1.77635684e-14,10.9 11,3.55271368e-15 24.5,3.55271368e-15 C38.1,3.55271368e-15 49,10.9 49,24.5 L49,24.5 Z M25.8,16.1 L37.5,16.1 L37.5,20 L33.6,20 L33.6,32.8 L29.5,32.8 L29.5,20 L25.7,20 L25.7,16.1 L25.8,16.1 Z" id="Shape"></path>
            <g id="Group" transform="translate(67.000000, 14.500000)">
                <path d="M12.14,3.57 C11.61,3.33 11.05,3.11 10.46,2.93 C9.87,2.74 9.18,2.65 8.39,2.65 C7.32,2.65 6.45,2.9 5.78,3.41 C5.11,3.91 4.59,4.56 4.22,5.34 C3.84,6.12 3.59,7 3.46,7.96 C3.33,8.92 3.26,9.86 3.26,10.77 C3.26,11.65 3.32,12.58 3.43,13.56 C3.54,14.54 3.78,15.44 4.15,16.25 C4.52,17.06 5.05,17.73 5.74,18.27 C6.43,18.8 7.36,19.07 8.53,19.07 C9.15,19.07 9.76,18.98 10.35,18.79 C10.94,18.6 11.54,18.38 12.14,18.12 L12.14,20.42 C10.96,20.96 9.65,21.23 8.19,21.23 C6.7,21.23 5.47,20.94 4.51,20.36 C3.55,19.78 2.79,19.02 2.23,18.06 C1.67,17.11 1.28,16.01 1.07,14.76 C0.86,13.51 0.75,12.21 0.75,10.87 C0.75,9.68 0.87,8.46 1.1,7.23 C1.33,6 1.73,4.88 2.3,3.88 C2.87,2.88 3.64,2.07 4.62,1.44 C5.6,0.81 6.84,0.5 8.33,0.5 C9.06,0.5 9.75,0.57 10.42,0.7 C11.08,0.83 11.66,1 12.14,1.2 L12.14,3.57 L12.14,3.57 Z" id="Path"></path>
                <polygon id="Path" points="17.29 20.9 14.97 20.9 14.97 0.71 17.29 0.71"></polygon>
                <path d="M32.27,13.98 C32.27,14.97 32.16,15.9 31.93,16.77 C31.71,17.64 31.35,18.4 30.87,19.07 C30.38,19.73 29.77,20.26 29.02,20.64 C28.27,21.02 27.37,21.21 26.3,21.21 C25.25,21.21 24.35,21.02 23.6,20.64 C22.84,20.26 22.22,19.73 21.74,19.07 C21.25,18.41 20.9,17.64 20.68,16.77 C20.46,15.9 20.34,14.97 20.34,13.98 C20.34,13.03 20.45,12.11 20.68,11.24 C20.9,10.36 21.25,9.59 21.73,8.92 C22.21,8.25 22.82,7.72 23.58,7.32 C24.34,6.93 25.25,6.73 26.31,6.73 C27.37,6.73 28.28,6.93 29.04,7.32 C29.8,7.71 30.41,8.24 30.89,8.92 C31.37,9.59 31.72,10.37 31.94,11.24 C32.16,12.12 32.27,13.03 32.27,13.98 Z M29.86,13.93 C29.86,13.29 29.82,12.66 29.73,12.03 C29.64,11.4 29.47,10.84 29.21,10.36 C28.95,9.87 28.58,9.47 28.12,9.16 C27.65,8.85 27.05,8.7 26.3,8.7 C25.53,8.7 24.92,8.86 24.47,9.16 C24.02,9.46 23.65,9.87 23.39,10.36 C23.13,10.85 22.96,11.41 22.87,12.03 C22.78,12.65 22.74,13.29 22.74,13.93 C22.74,14.61 22.79,15.26 22.88,15.9 C22.97,16.54 23.15,17.11 23.41,17.6 C23.67,18.1 24.03,18.5 24.49,18.8 C24.95,19.1 25.55,19.25 26.3,19.25 C27.05,19.25 27.65,19.1 28.12,18.8 C28.59,18.5 28.95,18.1 29.2,17.6 C29.45,17.1 29.62,16.54 29.72,15.9 C29.81,15.26 29.86,14.6 29.86,13.93 Z" id="Shape"></path>
                <path d="M35.21,7.07 L37.53,7.07 L37.53,16.41 C37.53,17.29 37.71,17.99 38.06,18.49 C38.41,19 39.04,19.25 39.94,19.25 C40.61,19.25 41.25,19.05 41.84,18.65 C42.44,18.25 42.95,17.81 43.38,17.32 L43.38,7.07 L45.7,7.07 L45.7,20.9 L43.71,20.9 L43.43,19.19 C43.19,19.43 42.93,19.68 42.66,19.92 C42.39,20.16 42.09,20.38 41.75,20.56 C41.41,20.75 41.04,20.9 40.63,21.02 C40.22,21.14 39.76,21.2 39.26,21.2 C37.97,21.2 36.97,20.85 36.26,20.14 C35.55,19.43 35.2,18.42 35.2,17.12 L35.2,7.07 L35.21,7.07 Z" id="Path"></path>
                <path d="M60.04,20.9 L58.08,20.9 L57.8,19.67 C57.43,20.04 56.95,20.39 56.36,20.72 C55.77,21.05 55.05,21.21 54.2,21.21 C53.23,21.21 52.4,21.03 51.72,20.68 C51.04,20.33 50.46,19.83 50.02,19.2 C49.57,18.57 49.25,17.82 49.04,16.96 C48.84,16.1 48.73,15.18 48.73,14.19 C48.73,13.16 48.84,12.2 49.06,11.29 C49.28,10.38 49.63,9.6 50.09,8.92 C50.55,8.25 51.15,7.72 51.88,7.32 C52.61,6.93 53.47,6.73 54.48,6.73 C55.19,6.73 55.81,6.86 56.36,7.11 C56.91,7.36 57.35,7.62 57.69,7.88 L57.69,0.71 L60.04,0.71 L60.04,20.9 L60.04,20.9 Z M57.72,9.73 C57.31,9.43 56.88,9.18 56.42,8.99 C55.96,8.79 55.45,8.7 54.87,8.7 C54.13,8.7 53.51,8.84 53.03,9.12 C52.55,9.4 52.17,9.79 51.89,10.27 C51.61,10.75 51.42,11.31 51.3,11.95 C51.19,12.59 51.13,13.28 51.13,14.02 C51.13,14.72 51.19,15.38 51.31,16.02 C51.43,16.65 51.63,17.21 51.92,17.69 C52.21,18.17 52.58,18.55 53.05,18.84 C53.51,19.12 54.09,19.26 54.78,19.26 C55.82,19.26 56.8,18.88 57.71,18.11 L57.71,9.73 L57.72,9.73 Z" id="Shape"></path>
                <polygon id="Path" points="74.31 17.04 77.66 4.16 80.01 4.16 83.64 17.29 87.35 0.71 89.79 0.71 84.92 20.9 82.48 20.9 78.84 7.38 75.28 20.9 72.84 20.9 68.02 0.71 70.46 0.71"></polygon>
                <path d="M102.18,13.98 C102.18,14.97 102.07,15.9 101.84,16.77 C101.62,17.64 101.26,18.4 100.78,19.07 C100.29,19.73 99.68,20.26 98.93,20.64 C98.18,21.02 97.28,21.21 96.21,21.21 C95.16,21.21 94.26,21.02 93.51,20.64 C92.75,20.26 92.13,19.73 91.65,19.07 C91.16,18.41 90.81,17.64 90.59,16.77 C90.37,15.9 90.25,14.97 90.25,13.98 C90.25,13.03 90.36,12.11 90.59,11.24 C90.81,10.36 91.16,9.59 91.64,8.92 C92.12,8.25 92.73,7.72 93.49,7.32 C94.25,6.92 95.16,6.73 96.22,6.73 C97.28,6.73 98.19,6.93 98.95,7.32 C99.71,7.71 100.32,8.24 100.8,8.92 C101.28,9.59 101.63,10.37 101.85,11.24 C102.07,12.12 102.18,13.03 102.18,13.98 Z M99.78,13.93 C99.78,13.29 99.74,12.66 99.65,12.03 C99.56,11.4 99.39,10.84 99.13,10.36 C98.87,9.87 98.5,9.47 98.04,9.16 C97.58,8.85 96.97,8.7 96.22,8.7 C95.45,8.7 94.84,8.86 94.39,9.16 C93.93,9.47 93.57,9.87 93.31,10.36 C93.05,10.85 92.88,11.41 92.79,12.03 C92.7,12.65 92.66,13.29 92.66,13.93 C92.66,14.61 92.71,15.26 92.8,15.9 C92.89,16.54 93.07,17.11 93.33,17.6 C93.59,18.1 93.95,18.5 94.41,18.8 C94.87,19.1 95.47,19.25 96.22,19.25 C96.97,19.25 97.57,19.1 98.04,18.8 C98.51,18.5 98.87,18.1 99.12,17.6 C99.37,17.1 99.54,16.54 99.64,15.9 C99.73,15.26 99.78,14.6 99.78,13.93 Z" id="Shape"></path>
                <path d="M107.5,9.31 C107.87,8.62 108.4,8.02 109.08,7.5 C109.76,6.99 110.51,6.73 111.33,6.73 C111.59,6.73 111.88,6.75 112.2,6.79 L112.2,8.69 C112.05,8.67 111.92,8.66 111.81,8.66 C111.7,8.66 111.57,8.66 111.42,8.66 C110.77,8.66 110.1,8.83 109.42,9.16 C108.74,9.49 108.11,9.96 107.53,10.56 L107.53,20.9 L105.21,20.9 L105.21,7.07 L107.23,7.07 L107.5,9.31 Z" id="Path"></path>
                <polygon id="Path" points="119.43 12.77 125 20.9 122.12 20.9 117 13.41 116.8 13.41 116.8 20.9 114.48 20.9 114.48 0.71 116.8 0.71 116.8 12.43 116.97 12.43 121.73 7.07 124.81 7.07"></polygon>
            </g>
        </g>
    </g>
</svg>