<?xml version="1.0" encoding="UTF-8"?>
<svg width="200px" height="50px" viewBox="0 0 200 50" version="1.1" xmlns="http://www.w3.org/2000/svg" xmlns:xlink="http://www.w3.org/1999/xlink">
    <title>Group 3 Copy 2</title>
    <defs>
        <filter id="filter-1">
            <feColorMatrix in="SourceGraphic" type="matrix" values="0 0 0 0 1.000000 0 0 0 0 1.000000 0 0 0 0 1.000000 0 0 0 1.000000 0"></feColorMatrix>
        </filter>
    </defs>
    <g id="BT" stroke="none" stroke-width="1" fill="none" fill-rule="evenodd">
        <g filter="url(#filter-1)" id="Group-3-Copy-2">
            <g transform="translate(0.287313, 0.000000)" id="CLW-BT-LOGO" fill="#5514B4" fill-rule="nonzero">
                <path d="M20.5879697,21.4285714 C20.5879697,20.4081633 19.768548,19.7959184 18.5394155,19.7959184 L16.4908613,19.7959184 L16.4908613,23.0612245 L18.5394155,23.0612245 C19.1539817,23.1632653 20.5879697,22.9591837 20.5879697,21.4285714 L20.5879697,21.4285714 Z M20.5879697,28.1632653 C20.5879697,27.1428571 19.768548,26.5306122 18.5394155,26.5306122 L16.4908613,26.5306122 L16.4908613,29.7959184 L18.5394155,29.7959184 C19.1539817,29.7959184 20.5879697,29.6938776 20.5879697,28.1632653 L20.5879697,28.1632653 Z M25.0947889,28.4693878 C25.0947889,31.4285714 22.8413793,33.5714286 19.5636926,33.5714286 L12.5986083,33.5714286 L12.5986083,16.4285714 L19.1539817,16.4285714 C22.4316684,16.4285714 24.685078,18.3673469 24.685078,21.2244898 C24.685078,22.5510204 24.0705118,23.877551 23.0462347,24.5918367 C24.1729395,25.3061224 25.0947889,26.6326531 25.0947889,28.4693878 L25.0947889,28.4693878 Z M47.1167465,25 C47.1167465,12.8571429 37.2836863,3.06122449 25.0947889,3.06122449 C12.9058914,3.06122449 3.07283129,12.8571429 3.07283129,25 C3.07283129,37.1428571 12.9058914,46.9387755 25.0947889,46.9387755 C37.2836863,46.9387755 47.1167465,37.1428571 47.1167465,25 L47.1167465,25 Z M50.1895778,25 C50.1895778,38.877551 38.9225297,50 25.0947889,50 C11.1646204,50 0,38.7755102 0,25 C0,11.122449 11.2670481,0 25.0947889,0 C39.0249574,0 50.1895778,11.122449 50.1895778,25 L50.1895778,25 Z M26.4263491,16.4285714 L38.4103911,16.4285714 L38.4103911,20.4081633 L34.4157105,20.4081633 L34.4157105,33.4693878 L30.2161744,33.4693878 L30.2161744,20.4081633 L26.3239214,20.4081633 L26.3239214,16.4285714 L26.4263491,16.4285714 Z" id="Shape"></path>
                <g id="Group" transform="translate(68.626566, 14.795918)">
                    <path d="M12.434724,3.64285714 C11.8918571,3.39795918 11.3182619,3.17346939 10.7139384,2.98979592 C10.1096149,2.79591837 9.40286375,2.70408163 8.59368485,2.70408163 C7.49770835,2.70408163 6.60658728,2.95918367 5.92032162,3.47959184 C5.23405597,3.98979592 4.70143188,4.65306122 4.32244935,5.44897959 C3.93322405,6.24489796 3.67715478,7.14285714 3.54399876,8.12244898 C3.41084273,9.10204082 3.33914334,10.0612245 3.33914334,10.9897959 C3.33914334,11.8877551 3.40059996,12.8367347 3.51327044,13.8367347 C3.62594092,14.8367347 3.87176743,15.755102 4.25074995,16.5816327 C4.62973248,17.4081633 5.17259934,18.0918367 5.87935054,18.6428571 C6.58610173,19.1836735 7.53867944,19.4591837 8.73708364,19.4591837 C9.37213544,19.4591837 9.99694447,19.3673469 10.601268,19.1734694 C11.2055914,18.9795918 11.8201577,18.755102 12.434724,18.4897959 L12.434724,20.8367347 C11.226077,21.3877551 9.88427399,21.6632653 8.38882943,21.6632653 C6.86265655,21.6632653 5.60279572,21.3673469 4.61948971,20.7755102 C3.63618369,20.1836735 2.8577331,19.4081633 2.28413793,18.4285714 C1.71054275,17.4591837 1.31107468,16.3367347 1.09597649,15.0612245 C0.880878304,13.7857143 0.768207823,12.4591837 0.768207823,11.0918367 C0.768207823,9.87755102 0.891121075,8.63265306 1.12670481,7.37755102 C1.36228854,6.12244898 1.77199938,4.97959184 2.35583732,3.95918367 C2.93967527,2.93877551 3.72836863,2.1122449 4.73216019,1.46938776 C5.73595174,0.826530612 7.00605534,0.510204082 8.53222822,0.510204082 C9.2799505,0.510204082 9.9867017,0.581632653 10.6729674,0.714285714 C11.3489902,0.846938776 11.943071,1.02040816 12.434724,1.2244898 L12.434724,3.64285714 L12.434724,3.64285714 Z" id="Path"></path>
                    <polygon id="Path" points="17.709751 21.3265306 15.3334281 21.3265306 15.3334281 0.724489796 17.709751 0.724489796"></polygon>
                    <path d="M33.0534219,14.2653061 C33.0534219,15.2755102 32.9407514,16.2244898 32.7051677,17.1122449 C32.4798268,18 32.111087,18.7755102 31.619434,19.4591837 C31.1175382,20.1326531 30.4927292,20.6734694 29.7245214,21.0612245 C28.9563135,21.4489796 28.0344641,21.6428571 26.9384877,21.6428571 C25.8629967,21.6428571 24.9411473,21.4489796 24.1729395,21.0612245 C23.3944889,20.6734694 22.7594371,20.1326531 22.2677841,19.4591837 C21.7658883,18.7857143 21.4073913,18 21.1820504,17.1122449 C20.9567094,16.2244898 20.8337962,15.2755102 20.8337962,14.2653061 C20.8337962,13.2959184 20.9464666,12.3571429 21.1820504,11.4693878 C21.4073913,10.5714286 21.7658883,9.78571429 22.2575413,9.10204082 C22.7491943,8.41836735 23.3740034,7.87755102 24.152454,7.46938776 C24.9309045,7.07142857 25.8629967,6.86734694 26.9487304,6.86734694 C28.0344641,6.86734694 28.9665563,7.07142857 29.7450069,7.46938776 C30.5234575,7.86734694 31.1482665,8.40816327 31.6399195,9.10204082 C32.1315725,9.78571429 32.4900695,10.5816327 32.7154105,11.4693878 C32.9407514,12.3673469 33.0534219,13.2959184 33.0534219,14.2653061 Z M30.5849141,14.2142857 C30.5849141,13.5612245 30.543943,12.9183673 30.4517581,12.2755102 C30.3595732,11.6326531 30.1854461,11.0612245 29.919134,10.5714286 C29.652822,10.0714286 29.2738394,9.66326531 28.802672,9.34693878 C28.3212617,9.03061224 27.7066955,8.87755102 26.9384877,8.87755102 C26.1497943,8.87755102 25.5249853,9.04081633 25.0640606,9.34693878 C24.6031359,9.65306122 24.2241533,10.0714286 23.9578413,10.5714286 C23.6915293,11.0714286 23.5174022,11.6428571 23.4252172,12.2755102 C23.3330323,12.9081633 23.2920612,13.5612245 23.2920612,14.2142857 C23.2920612,14.9081633 23.343275,15.5714286 23.43546,16.2244898 C23.5276449,16.877551 23.7120148,17.4591837 23.9783268,17.9591837 C24.2446389,18.4693878 24.6133786,18.877551 25.0845461,19.1836735 C25.5557136,19.4897959 26.1702798,19.6428571 26.9384877,19.6428571 C27.7066955,19.6428571 28.3212617,19.4897959 28.802672,19.1836735 C29.2840822,18.877551 29.652822,18.4693878 29.9088912,17.9591837 C30.1649605,17.4489796 30.3390876,16.877551 30.4415153,16.2244898 C30.5337003,15.5714286 30.5849141,14.8979592 30.5849141,14.2142857 Z" id="Shape"></path>
                    <path d="M36.0647966,7.21428571 L38.4411195,7.21428571 L38.4411195,16.744898 C38.4411195,17.6428571 38.6254893,18.3571429 38.9839863,18.8673469 C39.3424833,19.3877551 39.9877779,19.6428571 40.9096273,19.6428571 C41.5958929,19.6428571 42.2514303,19.4387755 42.8557537,19.0306122 C43.47032,18.622449 43.9927013,18.1734694 44.4331405,17.6734694 L44.4331405,7.21428571 L46.8094633,7.21428571 L46.8094633,21.3265306 L44.7711519,21.3265306 L44.4843543,19.5816327 C44.2385278,19.8265306 43.9722158,20.0816327 43.695661,20.3265306 C43.4191061,20.5714286 43.111823,20.7959184 42.7635688,20.9795918 C42.4153146,21.1734694 42.0363321,21.3265306 41.6163785,21.4489796 C41.1964248,21.5714286 40.7252574,21.6326531 40.2131188,21.6326531 C38.8918014,21.6326531 37.8675243,21.2755102 37.1402875,20.5510204 C36.4130508,19.8265306 36.0545538,18.7959184 36.0545538,17.4693878 L36.0545538,7.21428571 L36.0647966,7.21428571 Z" id="Path"></path>
                    <path d="M61.4975969,21.3265306 L59.4900138,21.3265306 L59.2032162,20.0714286 C58.8242337,20.4489796 58.3325807,20.8061224 57.7282572,21.1428571 C57.1239337,21.4795918 56.3864542,21.6428571 55.5158187,21.6428571 C54.5222699,21.6428571 53.6721199,21.4591837 52.9756115,21.1020408 C52.279103,20.744898 51.6850223,20.2346939 51.2343404,19.5918367 C50.7734157,18.9489796 50.445647,18.1836735 50.2305488,17.3061224 C50.0256934,16.4285714 49.9130229,15.4897959 49.9130229,14.4795918 C49.9130229,13.4285714 50.0256934,12.4489796 50.2510344,11.5204082 C50.4763753,10.5918367 50.8348723,9.79591837 51.3060398,9.10204082 C51.7772073,8.41836735 52.3917735,7.87755102 53.1394958,7.46938776 C53.8872181,7.07142857 54.7680964,6.86734694 55.8026163,6.86734694 C56.529853,6.86734694 57.1649048,7 57.7282572,7.25510204 C58.2916096,7.51020408 58.7422915,7.7755102 59.0905457,8.04081633 L59.0905457,0.724489796 L61.4975969,0.724489796 L61.4975969,21.3265306 L61.4975969,21.3265306 Z M59.121274,9.92857143 C58.7013204,9.62244898 58.2608813,9.36734694 57.7897138,9.17346939 C57.3185464,8.96938776 56.796165,8.87755102 56.2020843,8.87755102 C55.4441193,8.87755102 54.8090675,9.02040816 54.3174145,9.30612245 C53.8257615,9.59183673 53.4365362,9.98979592 53.1497386,10.4795918 C52.862941,10.9693878 52.6683283,11.5408163 52.5454151,12.1938776 C52.4327446,12.8469388 52.371288,13.5510204 52.371288,14.3061224 C52.371288,15.0204082 52.4327446,15.6938776 52.5556579,16.3469388 C52.6785711,16.9897959 52.8834265,17.5612245 53.1804669,18.0510204 C53.4775072,18.5408163 53.8564898,18.9285714 54.3379,19.2244898 C54.8090675,19.5102041 55.4031482,19.6530612 56.1098994,19.6530612 C57.1751476,19.6530612 58.1789391,19.2653061 59.1110313,18.4795918 L59.1110313,9.92857143 L59.121274,9.92857143 Z" id="Shape"></path>
                    <polygon id="Path" points="76.1140311 17.3877551 79.5453594 4.24489796 81.9524105 4.24489796 85.6705364 17.6428571 89.4706044 0.724489796 91.9698406 0.724489796 86.9816111 21.3265306 84.482375 21.3265306 80.7540063 7.53061224 77.1075799 21.3265306 74.6083438 21.3265306 69.6713281 0.724489796 72.1705643 0.724489796"></polygon>
                    <path d="M104.660634,14.2653061 C104.660634,15.2755102 104.547963,16.2244898 104.31238,17.1122449 C104.087039,18 103.718299,18.7755102 103.226646,19.4591837 C102.72475,20.1326531 102.099941,20.6734694 101.331733,21.0612245 C100.563525,21.4489796 99.641676,21.6428571 98.5456995,21.6428571 C97.4702086,21.6428571 96.5483592,21.4489796 95.7801514,21.0612245 C95.0017008,20.6734694 94.366649,20.1326531 93.874996,19.4591837 C93.3731002,18.7857143 93.0146032,18 92.7892622,17.1122449 C92.5639213,16.2244898 92.441008,15.2755102 92.441008,14.2653061 C92.441008,13.2959184 92.5536785,12.3571429 92.7892622,11.4693878 C93.0146032,10.5714286 93.3731002,9.78571429 93.8647532,9.10204082 C94.3564062,8.41836735 94.9812152,7.87755102 95.7596658,7.46938776 C96.5381164,7.06122449 97.4702086,6.86734694 98.5559423,6.86734694 C99.641676,6.86734694 100.573768,7.07142857 101.352219,7.46938776 C102.130669,7.86734694 102.755478,8.40816327 103.247131,9.10204082 C103.738784,9.78571429 104.097281,10.5816327 104.322622,11.4693878 C104.547963,12.3673469 104.660634,13.2959184 104.660634,14.2653061 Z M102.202369,14.2142857 C102.202369,13.5612245 102.161398,12.9183673 102.069213,12.2755102 C101.977028,11.6326531 101.802901,11.0612245 101.536589,10.5714286 C101.270277,10.0714286 100.891294,9.66326531 100.420127,9.34693878 C99.9489591,9.03061224 99.3241501,8.87755102 98.5559423,8.87755102 C97.7672489,8.87755102 97.1424399,9.04081633 96.6815152,9.34693878 C96.2103477,9.66326531 95.841608,10.0714286 95.5752959,10.5714286 C95.3089839,11.0714286 95.1348568,11.6428571 95.0426718,12.2755102 C94.9504869,12.9081633 94.9095158,13.5612245 94.9095158,14.2142857 C94.9095158,14.9081633 94.9607297,15.5714286 95.0529146,16.2244898 C95.1450996,16.877551 95.3294694,17.4591837 95.5957815,17.9591837 C95.8620935,18.4693878 96.2308333,18.877551 96.7020007,19.1836735 C97.1731682,19.4897959 97.7877345,19.6428571 98.5559423,19.6428571 C99.3241501,19.6428571 99.9387164,19.4897959 100.420127,19.1836735 C100.901537,18.877551 101.270277,18.4693878 101.526346,17.9591837 C101.782415,17.4489796 101.956542,16.877551 102.05897,16.2244898 C102.151155,15.5714286 102.202369,14.8979592 102.202369,14.2142857 Z" id="Shape"></path>
                    <path d="M110.109788,9.5 C110.48877,8.79591837 111.031637,8.18367347 111.728146,7.65306122 C112.424654,7.13265306 113.192862,6.86734694 114.032769,6.86734694 C114.299081,6.86734694 114.596122,6.8877551 114.92389,6.92857143 L114.92389,8.86734694 C114.770249,8.84693878 114.637093,8.83673469 114.524422,8.83673469 C114.411752,8.83673469 114.278596,8.83673469 114.124954,8.83673469 C113.459174,8.83673469 112.772908,9.01020408 112.0764,9.34693878 C111.379892,9.68367347 110.734597,10.1632653 110.140516,10.7755102 L110.140516,21.3265306 L107.764193,21.3265306 L107.764193,7.21428571 L109.833233,7.21428571 L110.109788,9.5 Z" id="Path"></path>
                    <polygon id="Path" points="122.329414 13.0306122 128.034637 21.3265306 125.084719 21.3265306 119.84042 13.6836735 119.635565 13.6836735 119.635565 21.3265306 117.259242 21.3265306 117.259242 0.724489796 119.635565 0.724489796 119.635565 12.6836735 119.809692 12.6836735 124.685251 7.21428571 127.840024 7.21428571"></polygon>
                </g>
            </g>
        </g>
    </g>
</svg>