<?xml version="1.0" encoding="UTF-8"?>
<svg width="201px" height="26px" viewBox="0 0 201 26" version="1.1" xmlns="http://www.w3.org/2000/svg" xmlns:xlink="http://www.w3.org/1999/xlink">
    <!-- Generator: Sketch 57.1 (83088) - https://sketch.com -->
    <title>Group 2</title>
    <desc>Created with Sketch.</desc>
    <g id="VxD" stroke="none" stroke-width="1" fill="none" fill-rule="evenodd">
        <g id="Meetings-Tab-Upd---3-Copy-35" transform="translate(-130.000000, -218.000000)" fill="#000000" fill-rule="nonzero">
            <g id="Group-2" transform="translate(129.000000, 218.000000)">
                <g id="ATT-logo-(1)" transform="translate(-0.000000, 0.037975)">
                    <path d="M6.72044636,13.0482608 L12.005362,13.0482608 L9.35072664,5.39789051 L6.72044636,13.0482608 Z M7.98687746,2.53203747 L10.8119939,2.53203747 L17.2415683,19.5328604 L14.2459715,19.5328604 L12.833413,15.4769498 L5.86804033,15.4769498 L4.47983683,19.5328604 L1.55730294,19.5328604 L7.98687746,2.53203747 Z" id="Fill-4"></path>
                    <polygon id="Fill-6" points="20.7261781 5.0821609 15.2810351 5.0821609 15.2810351 2.53203747 29.0047673 2.53203747 29.0047673 5.0821609 23.5596242 5.0821609 23.5596242 19.5328604 20.7261781 19.5328604"></polygon>
                    <path d="M32.5970913,6.54224648 C32.5970913,6.98239136 32.7082594,7.39419365 32.9322891,7.77709743 C33.1551896,8.16055706 33.630899,8.73463488 34.3594183,9.50099829 C35.3193015,8.94692698 36.0111406,8.43342463 36.4332414,7.96049117 C36.8553414,7.4881134 37.0663918,6.9985078 37.0663918,6.49334153 C37.0663918,5.93927022 36.8711423,5.49078927 36.4829,5.1484543 C36.0935294,4.8061194 35.5760605,4.63495195 34.9310592,4.63495195 C34.2352709,4.63495195 33.6726576,4.81000955 33.2426568,5.16068059 C32.8120917,5.51135156 32.5970913,5.9720588 32.5970913,6.54224648 M34.0371997,17.9860138 C35.3779893,17.9860138 36.5359445,17.3830375 37.5133219,16.1759735 L33.5654403,12.1174152 C32.7043094,12.6392536 32.071159,13.1649823 31.6659874,13.694601 C31.2602517,14.2247756 31.0571013,14.7994092 31.0571013,15.4185019 C31.0571013,16.1848653 31.3262754,16.8039579 31.8640586,17.2768915 C32.4018418,17.7498249 33.125846,17.9860138 34.0371997,17.9860138 M33.713852,20.1867383 C32.0914733,20.1867383 30.7924423,19.7710458 29.815629,18.939661 C28.8393807,18.1082762 28.3512562,17.007914 28.3512562,15.6385743 C28.3512562,14.6604746 28.6740389,13.7518421 29.3190402,12.9115655 C29.9651699,12.0729561 30.9244897,11.3265993 32.1998206,10.674718 C31.3883491,9.82721681 30.8296866,9.10975836 30.5232682,8.52289855 C30.2168505,7.93603866 30.064488,7.30027382 30.064488,6.61560394 C30.064488,5.40909566 30.5153681,4.42710577 31.4171285,3.66907843 C32.319453,2.9110511 33.4819223,2.53203747 34.9062299,2.53203747 C36.3294091,2.53203747 37.4676133,2.88270843 38.3202792,3.58349467 C39.1723809,4.28483668 39.5984309,5.2134757 39.5984309,6.37107903 C39.5984309,8.01773219 38.3073,9.5254508 35.7256022,10.8947905 L38.9534296,14.2447821 C39.2841132,13.7718487 39.6153602,13.2344496 39.9460438,12.6309175 L40.9640506,10.7480755 L43.5463134,10.7480755 L42.0819405,13.3889449 C41.7010341,14.0902869 41.2038804,14.8888831 40.5921734,15.7852893 L44.6890326,19.9177608 L41.3613221,19.9177608 L39.1018421,17.6436789 C38.3575236,18.5078522 37.5460521,19.1475073 36.6691211,19.5631996 C35.791061,19.9788921 34.8063476,20.1867383 33.713852,20.1867383" id="Fill-8"></path>
                    <polygon id="Fill-10" points="48.1734208 5.0821609 42.7284994 5.0821609 42.7284994 2.53203747 56.4522316 2.53203747 56.4522316 5.0821609 51.0073102 5.0821609 51.0073102 19.5328604 48.1734208 19.5328604"></polygon>
                    <path d="M72.1364969,3.73353794 C70.8378819,3.73353794 69.6950781,4.06456359 68.7086467,4.72661481 C67.7222144,5.3886661 66.9616538,6.29592155 66.4275234,7.44838122 C65.892832,8.60084082 65.6260474,9.90488124 65.6260474,11.3593879 C65.6260474,12.8796538 65.9096463,14.2199175 66.4768448,15.3807364 C67.0440433,16.5415553 67.8208579,17.4326496 68.8072901,18.0534619 C69.7937216,18.6753888 70.9034572,18.9852378 72.1364969,18.9852378 C73.4345515,18.9852378 74.5779156,18.6542121 75.5643479,17.9921609 C76.5507793,17.3301096 77.3107804,16.4228542 77.8454711,15.2703945 C78.3796014,14.1179349 78.6469472,12.8144517 78.6469472,11.3593879 C78.6469472,9.83912192 78.3633475,8.49885819 77.7961498,7.33803937 C77.2289513,6.17777778 76.4521359,5.28668347 75.4657044,4.66531383 C74.479273,4.04450142 73.3695366,3.73353794 72.1364969,3.73353794 M72.1364969,2.53203747 C73.6817201,2.53203747 75.0503939,2.92436409 76.2425198,3.7090175 C77.4340846,4.49367083 78.3549408,5.5525071 79.0045288,6.8844116 C79.6535557,8.21687342 79.9786296,9.70871789 79.9786296,11.3593879 C79.9786296,13.0925356 79.6288951,14.6328636 78.930546,15.9814866 C78.2316366,17.3301096 77.2906033,18.3683264 76.1068849,19.0955797 C74.9231666,19.822833 73.5993306,20.1867383 72.1364969,20.1867383 C70.5907133,20.1867383 69.2225999,19.7944116 68.0304748,19.0097582 C66.8383496,18.2251049 65.9174927,17.1668259 65.2684657,15.8343641 C64.6188777,14.5019023 64.2943642,13.0106151 64.2943642,11.3593879 C64.2943642,9.62679743 64.6435384,8.08591208 65.3424478,6.73728913 C66.0407968,5.3886661 66.9823912,4.35044931 68.1661088,3.62319601 C69.3498272,2.8959427 70.6731028,2.53203747 72.1364969,2.53203747" id="Fill-12"></path>
                    <g id="Fill-14-Clipped" transform="translate(81.285652, 0.570404)">
                        <path d="M18.3507511,18.9435585 L19.5852611,18.9435585 L19.5852611,6.31536706 L18.3507511,6.31536706 L18.3507511,18.9435585 Z M18.0297786,2.27783876 C18.0297786,2.01642012 18.1161943,1.80450407 18.2890256,1.64153455 C18.4618569,1.47856503 18.687997,1.39680218 18.9680061,1.39680218 C19.2480153,1.39680218 19.4741554,1.47856503 19.6469867,1.64153455 C19.819818,1.80450407 19.9062337,2.01642012 19.9062337,2.27783876 C19.9062337,2.53870125 19.819818,2.75117345 19.6469867,2.91414305 C19.4741554,3.07711258 19.2480153,3.15887542 18.9680061,3.15887542 C18.687997,3.15887542 18.4618569,3.07711258 18.2890256,2.91414305 C18.1161943,2.75117345 18.0297786,2.53870125 18.0297786,2.27783876 Z M11.7831577,6.31536706 L18.8198649,6.31536706 L18.8198649,7.34379929 L11.7831577,7.34379929 L11.7831577,18.9441147 L10.5486477,18.9441147 L10.5486477,7.34379929 L8.10431783,7.34379929 L8.10431783,6.31536706 L10.5486477,6.31536706 L10.5486477,4.9698951 C10.5486477,3.51763087 10.8943103,2.38407487 11.5856363,1.56755869 C12.2769615,0.752154831 13.2482967,0.344452864 14.49908,0.344452864 C15.2066785,0.344452864 15.8407678,0.475162226 16.4002251,0.736024711 L16.1286335,1.71495433 C15.5523411,1.53529845 15.0259914,1.44574863 14.5484601,1.44574863 C13.675886,1.44574863 12.9969055,1.74777065 12.5115184,2.35125854 C12.0261321,2.95474636 11.7831577,3.81130975 11.7831577,4.92094866 L11.7831577,6.31536706 Z M3.98105427,6.31536706 L11.0177615,6.31536706 L11.0177615,7.34379929 L3.98105427,7.34379929 L3.98105427,18.9441147 L2.74654429,18.9441147 L2.74654429,7.34379929 L0.302214403,7.34379929 L0.302214403,6.31536706 L2.74654429,6.31536706 L2.74654429,4.9698951 C2.74654429,3.51763087 3.09220768,2.38407487 3.78353289,1.56755869 C4.47485889,0.752154831 5.44563224,0.344452864 6.69697654,0.344452864 C7.40457506,0.344452864 8.03810336,0.475162226 8.59812166,0.736024711 L8.32653006,1.71495433 C7.75023845,1.53529845 7.22332699,1.44574863 6.74635669,1.44574863 C5.87378262,1.44574863 5.19480206,1.74777065 4.70941577,2.35125854 C4.2240287,2.95474636 3.98105427,3.81130975 3.98105427,4.92094866 L3.98105427,6.31536706 Z" id="Fill-14"></path>
                    </g>
                    <g id="Fill-16-Clipped" transform="translate(102.851516, 6.455304)">
                        <path d="M6.46406923,13.9499082 C5.19023083,13.9499082 4.07526413,13.658722 3.11974209,13.0774826 C2.16422005,12.4962432 1.42643361,11.6980303 0.906954125,10.6839771 C0.386903285,9.67049042 0.12744922,8.53237147 0.12744922,7.26962033 C0.12744922,5.94002097 0.404047914,4.7684779 0.957244508,3.75442475 C1.5104419,2.74150452 2.26480161,1.95972053 3.22032365,1.41190516 C4.17584569,0.86295687 5.25709448,0.589332417 6.46406923,0.589332417 C7.16813856,0.589332417 7.80934452,0.672609466 8.3876863,0.838030402 C8.96602888,1.00458442 9.56551637,1.28670644 10.1855766,1.68609616 L9.75810599,2.63273462 C9.17119149,2.30075967 8.63513953,2.06395842 8.14880579,1.92289733 C7.66247286,1.78183632 7.10070355,1.71102255 6.46406923,1.71102255 C5.45825681,1.71102255 4.57359871,1.95632144 3.81123843,2.44578623 C3.04773465,2.93638402 2.45739123,3.60146701 2.0384933,4.43990204 C1.61902402,5.27947007 1.40986034,6.22214307 1.40986034,7.26962033 C1.40986034,8.36638399 1.63216757,9.33794893 2.07621148,10.1854481 C2.5202546,11.0335139 3.12374237,11.6855671 3.886674,12.1427408 C4.64903507,12.599348 5.50854719,12.8282181 6.46406923,12.8282181 C7.11784818,12.8282181 7.72533623,12.7534387 8.28710554,12.6038801 C8.84887484,12.4537549 9.40607172,12.2214857 9.95926911,11.9059396 L10.3867397,12.852578 C9.29691824,13.5839426 7.98936193,13.9499082 6.46406923,13.9499082" id="Fill-16"></path>
                    </g>
                    <g id="Fill-17-Clipped" transform="translate(113.307693, 6.455304)">
                        <path d="M6.2927931,1.71073931 C5.48123118,1.71073931 4.74817136,1.9226141 4.09361285,2.34636374 C3.43905435,2.77011331 2.9132621,3.35191925 2.51566989,4.09121503 C2.11807847,4.83107735 1.87805432,5.65761564 1.79503515,6.57139654 L10.3432601,6.57139654 L10.3432601,6.37255149 C10.3432601,5.47519934 10.1693138,4.66055778 9.82142107,3.9291931 C9.4735276,3.19782851 8.99686944,2.64548105 8.39257509,2.27158434 C7.78715068,1.89768763 7.08797672,1.71073931 6.2927931,1.71073931 M6.7649334,13.9496249 C5.48913761,13.9496249 4.37938174,13.6590053 3.43510113,13.0771993 C2.49082053,12.4959599 1.76566715,11.7022791 1.26077104,10.6967236 C0.755309518,9.69173457 0.502861073,8.54908352 0.502861073,7.26990356 C0.502861073,5.95673303 0.767734593,4.78915559 1.2980447,3.76717126 C1.82835559,2.74518684 2.53204819,1.96000376 3.41025177,1.41162193 C4.28789071,0.863240101 5.24911424,0.589049186 6.2927931,0.589049186 C7.36922775,0.589049186 8.30955514,0.846811276 9.11320983,1.36176907 C9.91630068,1.87672679 10.5335847,2.583165 10.9639328,3.48051707 C11.3948454,4.37786922 11.610584,5.39192237 11.610584,6.52154368 C11.610584,6.88750921 11.5942057,7.25290828 11.5608853,7.61830734 L1.770185,7.61830734 C1.81988452,8.66521814 2.06837896,9.58353113 2.51566989,10.3726798 C2.96296083,11.1623949 3.55483089,11.7685608 4.29240856,12.1923105 C5.02942239,12.61606 5.85397323,12.8279348 6.7649334,12.8279348 C7.60981575,12.8279348 8.33045128,12.7491899 8.9268392,12.5911336 C9.52322711,12.4336438 10.1523708,12.1634184 10.8154004,11.7810241 L11.2626913,12.728229 C10.5832835,13.1604763 9.89145132,13.4720569 9.18775872,13.6629708 C8.48350148,13.8538848 7.67589278,13.9496249 6.7649334,13.9496249" id="Fill-17"></path>
                    </g>
                    <g id="Fill-18-Clipped" transform="translate(126.377914, 3.185915)">
                        <path d="M9.46047493,15.4052983 C10.0608582,15.4052983 10.7100902,15.2330011 11.410443,14.8884066 C12.1096592,14.5438122 12.7509393,14.0677572 13.3342823,13.460801 L14.8593809,8.04574519 C14.5094888,7.71793293 14.0800756,7.4589277 13.5717091,7.27040766 C13.0639113,7.0818877 12.551001,6.98734796 12.0346827,6.98734796 C11.1020147,6.98734796 10.2556848,7.24579383 9.49796359,7.76268549 C8.73967376,8.27957715 8.14837887,8.95645919 7.72350948,9.79333145 C7.29864087,10.6302036 7.08620617,11.5409176 7.08620617,12.5260326 C7.08620617,13.4283555 7.29466414,14.1343265 7.71101378,14.6422677 C8.12736263,15.1513277 8.71127352,15.4052983 9.46047493,15.4052983 M16.0584439,17.3005678 C15.175761,17.3005678 14.4844967,17.0790429 13.9846499,16.6359929 C13.4842361,16.1929428 13.225793,15.5775956 13.2098885,14.7899511 C12.6600582,15.3152339 12.0301381,15.7297541 11.3224021,16.0329526 C10.6140974,16.3367104 9.91033651,16.4888689 9.21112024,16.4888689 C8.16144323,16.4888689 7.33669741,16.143715 6.73631331,15.4545261 C6.13649867,14.7653372 5.83659095,13.8384005 5.83659095,12.6731565 C5.83659095,11.4267987 6.12797812,10.2733023 6.71132113,9.21546441 C7.29466414,8.15650775 8.06090585,7.34033349 9.01061336,6.76582292 C9.96088874,6.19187179 11.0105657,5.90433683 12.1596436,5.90433683 C12.7429874,5.90433683 13.3053142,6.00726758 13.8471926,6.21201044 C14.3879352,6.41731266 14.8423406,6.70037236 15.2087051,7.06118962 L15.5585972,6.12586179 L16.6082742,6.12586179 L14.6088897,13.2638899 C14.4754082,13.6912765 14.4095193,14.116985 14.4095193,14.5438122 C14.4095193,15.1021 14.5424329,15.5160608 14.8088279,15.7868136 C15.0757915,16.0575664 15.4921404,16.1929428 16.0584439,16.1929428 C16.9581663,16.1929428 17.7709843,15.8936603 18.4951935,15.2945359 C19.2205385,14.6954114 19.7828653,13.9004946 20.1821738,12.9069885 C20.582051,11.9146012 20.7825571,10.8192831 20.7825571,9.62103415 C20.7825571,7.98029463 20.4281212,6.55660488 19.7198165,5.35052426 C19.0115118,4.14444365 18.0288595,3.21750691 16.7707245,2.56915468 C15.5125888,1.92136182 14.0596273,1.59690603 12.4095669,1.59690603 C10.2937413,1.59690603 8.38580575,2.10149077 6.68632895,3.11066025 C4.98685216,4.11982974 3.67078016,5.445064 2.73754508,7.08580353 C1.80430921,8.72710241 1.337976,10.5155253 1.337976,12.4516316 C1.337976,14.2568366 1.71286025,15.811987 2.46319742,17.1159637 C3.21239883,18.4204999 4.27059559,19.4173625 5.63722061,20.1065513 C7.00270909,20.7957403 8.61130481,21.1403347 10.4607355,21.1403347 C11.3104735,21.1403347 12.1852044,21.0502702 13.0849276,20.8701414 C13.9846499,20.6888936 14.8338209,20.4343636 15.6335745,20.1065513 L15.9090579,21.1403347 C14.308982,21.8787514 12.4765916,22.2479598 10.4107503,22.2479598 C8.26141195,22.2479598 6.40743748,21.8457464 4.84996266,21.0418792 C3.29191997,20.2380119 2.10421692,19.1012977 1.28799085,17.6328554 C0.471765574,16.1644131 0.0633686009,14.4453566 0.0633686009,12.4762455 C0.0633686009,10.1625398 0.62967131,8.09105719 1.76284461,6.26123818 C2.89545081,4.43197861 4.40010109,3.01220469 6.27452392,2.0030352 C8.14837887,0.993865721 10.2022923,0.48928098 12.4345591,0.48928098 C14.3839593,0.48928098 16.087412,0.879187335 17.545486,1.65844077 C19.0035592,2.43825356 20.1202608,3.51678943 20.8950223,4.89516726 C21.6692159,6.27354518 22.0571645,7.84883414 22.0571645,9.62103415 C22.0571645,11.1308726 21.7856578,12.4684137 21.2443465,13.6330983 C20.703036,14.7983422 19.9782597,15.700665 19.070016,16.3406262 C18.1617731,16.9805873 17.1586731,17.3005678 16.0584439,17.3005678" id="Fill-18"></path>
                    </g>
                    <g id="Fill-19-Clipped" transform="translate(150.557824, 2.532037)">
                        <polygon id="Fill-19" points="0.127400827 0.246957252 1.39423816 0.246957252 1.39423816 8.2415487 11.4314837 8.2415487 11.4314837 0.246957252 12.6983203 0.246957252 12.6983203 17.626504 11.4314837 17.626504 11.4314837 9.43328903 1.39423816 9.43328903 1.39423816 17.626504 0.127400827 17.626504"></polygon>
                    </g>
                    <g id="Fill-20-Clipped" transform="translate(165.588578, 6.455304)">
                        <path d="M4.63632274,12.8279915 C5.40782709,12.8279915 6.19933284,12.6535063 7.01255565,12.3045361 C7.82577766,11.9555659 8.54241919,11.4910275 9.16305159,10.9086551 L9.16305159,7.46880527 L5.11465512,7.46880527 C2.8675779,7.46880527 1.74461064,8.400148 1.74461064,10.2605674 C1.74461064,11.0247896 2.01263741,11.6439852 2.54983288,12.1175877 C3.08588485,12.5911902 3.78195362,12.8279915 4.63632274,12.8279915 M4.51059599,13.9496816 C3.25333007,13.9496816 2.26466148,13.6216722 1.54401967,12.9650869 C0.822806502,12.3090682 0.462199521,11.4156817 0.462199521,10.2854938 C0.462199521,9.02274269 0.839379775,8.06307449 1.59431084,7.40648922 C2.34809841,6.74990387 3.4630651,6.42189455 4.93806663,6.42189455 L9.16305159,6.42189455 L9.16305159,5.79873331 C9.16305159,3.07381945 7.98122124,1.71079598 5.61756133,1.71079598 C4.91292144,1.71079598 4.23856973,1.80257059 3.59336349,1.98498689 C2.9475859,2.16796966 2.26466148,2.4585894 1.54401967,2.85741257 L1.09140384,1.91020757 C1.91205586,1.44510271 2.68813184,1.10859566 3.416775,0.900686426 C4.14656009,0.693343735 4.93806663,0.589105848 5.79300711,0.589105848 C8.87730962,0.589105848 10.4197462,2.28410428 10.4197462,5.67410113 L10.4197462,13.7004172 L9.38878775,13.7004172 L9.21334197,12.1051245 C8.55899246,12.6705016 7.81320546,13.1191778 6.97540882,13.4511527 C6.13646946,13.7836941 5.31524609,13.9496816 4.51059599,13.9496816" id="Fill-20"></path>
                    </g>
                    <g id="Fill-21-Clipped" transform="translate(178.005288, 6.455304)">
                        <path d="M0.587697731,13.7004172 L0.587697731,0.838370295 L1.6192267,0.838370295 L1.79467248,2.43366293 C3.35425444,1.20376936 4.95498192,0.589105848 6.59800002,0.589105848 C8.03928444,0.589105848 9.13310543,1.01682105 9.87946458,1.8728179 C10.6246802,2.72881476 10.9984316,3.99609799 10.9984316,5.67410113 L10.9984316,13.7004172 L9.74116483,13.7004172 L9.74116483,5.79873331 C9.74116483,3.10667702 8.59248103,1.76064883 6.29568478,1.76064883 C4.73724632,1.76064883 3.25310152,2.36738124 1.84496366,3.58027952 L1.84496366,13.7004172 L0.587697731,13.7004172 Z" id="Fill-21"></path>
                    </g>
                    <g id="Fill-22-Clipped" transform="translate(190.421998, 0.570404)">
                        <path d="M6.01858665,18.0873288 C6.78101369,18.0873288 7.49261273,17.9488326 8.1556423,17.6712838 C8.81810724,17.3942912 9.51389341,16.9454298 10.243,16.3252556 L10.243,8.78749793 C9.69687624,8.26577296 9.0835454,7.86585797 8.40470216,7.5883092 C7.72472966,7.31076044 7.02894428,7.17226417 6.31677983,7.17226417 C4.94215121,7.17226417 3.83634934,7.67396557 2.99937342,8.67736838 C2.16296135,9.68077118 1.74503842,10.9984326 1.74503842,12.6297965 C1.74503842,14.2450303 2.13811199,15.5582421 2.92482454,16.569988 C3.71153709,17.581734 4.74279087,18.0873288 6.01858665,18.0873288 Z M11.4860392,0.58896278 L11.4860392,18.9438922 L10.4666451,18.9438922 L10.2926987,17.4754979 C9.53083633,18.0962282 8.80229437,18.5367465 8.10594357,18.7970528 C7.41072283,19.0579153 6.64829501,19.1886246 5.81979016,19.1886246 C4.74279087,19.1886246 3.79851027,18.9032889 2.98751298,18.3320613 C2.17538643,17.7613898 1.55414915,16.9821396 1.1232365,15.9948669 C0.692323861,15.0081504 0.477149856,13.8862749 0.477149856,12.6297965 C0.477149856,11.3082416 0.725644298,10.1496562 1.22319938,9.15459652 C1.72018905,8.15953686 2.39903229,7.39697297 3.26029294,6.8663487 C4.12211822,6.33628059 5.09915541,6.07096841 6.19309763,6.07096841 C6.88831838,6.07096841 7.58410454,6.19333455 8.27988992,6.438067 C8.97567608,6.68279936 9.6302338,7.04211105 10.243,7.5148895 L10.243,0.58896278 L11.4860392,0.58896278 Z" id="Fill-22"></path>
                    </g>
                </g>
            </g>
        </g>
    </g>
</svg>