<?xml version="1.0" encoding="UTF-8"?>
<svg width="1024px" height="1024px" viewBox="0 0 1024 1024" version="1.1" xmlns="http://www.w3.org/2000/svg" xmlns:xlink="http://www.w3.org/1999/xlink">
    <!-- Generator: Sketch 56.2 (81672) - https://sketch.com -->
    <title>att_app_icon_1024@1x</title>
    <desc>Created with Sketch.</desc>
    <defs>
        <linearGradient x1="50%" y1="0%" x2="50%" y2="100%" id="linearGradient-1">
            <stop stop-color="#00C9FF" offset="0%"></stop>
            <stop stop-color="#009FDB" offset="49.9636097%"></stop>
            <stop stop-color="#0079B1" offset="100%"></stop>
        </linearGradient>
        <path d="M307.666224,-1.24300837e-14 L716.333776,1.24300837e-14 C823.316025,-7.22223659e-15 862.110373,11.1390733 901.221484,32.0559245 C940.332596,52.9727756 971.027224,83.6674045 991.944076,122.778516 C1012.86093,161.889627 1024,200.683975 1024,307.666224 L1024,716.333776 C1024,823.316025 1012.86093,862.110373 991.944076,901.221484 C971.027224,940.332596 940.332596,971.027224 901.221484,991.944076 C862.110373,1012.86093 823.316025,1024 716.333776,1024 L307.666224,1024 C200.683975,1024 161.889627,1012.86093 122.778516,991.944076 C83.6674045,971.027224 52.9727756,940.332596 32.0559245,901.221484 C11.1390733,862.110373 4.81482439e-15,823.316025 -8.28672246e-15,716.333776 L8.28672246e-15,307.666224 C-4.81482439e-15,200.683975 11.1390733,161.889627 32.0559245,122.778516 C52.9727756,83.6674045 83.6674045,52.9727756 122.778516,32.0559245 C161.889627,11.1390733 200.683975,7.22223659e-15 307.666224,-1.24300837e-14 Z" id="path-2"></path>
    </defs>
    <g id="VxD" stroke="none" stroke-width="1" fill="none" fill-rule="evenodd">
        <g id="att_app_icon" transform="translate(-78.000000, -100.000000)">
            <g id="att_app_icon_1024" transform="translate(78.000000, 100.000000)">
                <mask id="mask-3" fill="white">
                    <use xlink:href="#path-2"></use>
                </mask>
                <use id="Rectangle-Copy-5" fill="url(#linearGradient-1)" xlink:href="#path-2"></use>
                <path d="M252,318.658342 C252,292.153272 273.496087,270.666667 300.006182,270.666667 L721.993818,270.666667 C748.5069,270.666667 770,292.155553 770,318.658342 L770,624.674991 C770,651.180062 748.503913,672.666667 721.993818,672.666667 L300.006182,672.666667 C273.4931,672.666667 252,651.17778 252,624.674991 L252,318.658342 Z" id="Combined-Shape" fill="#FFFFFF" mask="url(#mask-3)"></path>
                <path d="M805.333333,369.556191 C805.333333,351.878551 816.514234,346.514733 830.303996,357.5737 L917.093206,427.175987 C920.539533,429.939836 923.333333,435.76085 923.333333,440.184066 L923.333333,495.150978 C923.333333,499.571293 920.532849,505.400569 917.093206,508.159057 L830.303996,577.761345 C816.51308,588.821237 805.333333,583.459713 805.333333,565.778853 L805.333333,369.556191 Z" id="Combined-Shape-Copy-3" fill="#FFFFFF" mask="url(#mask-3)" transform="translate(864.333333, 467.668116) scale(-1, 1) translate(-864.333333, -467.668116) "></path>
                <path d="M136.248758,717.253738 C105.005284,689.779167 86.3727599,649.911088 86.3727599,606.857143 C86.3727599,525.7592 151.887693,460 232.724014,460 C313.560788,460 379.077987,525.759654 379.077987,606.857143 C379.077987,648.928305 361.284255,687.943194 331.354376,715.324497 C347.423383,719.029367 363.460417,724.876243 378.547847,733.364714 C396.515413,743.473602 411.96208,756.720577 424.032069,773.480811 L424.031863,773.480526 C439.692994,795.225864 453.419656,835.794704 465.842415,890.48503 C472.250447,918.69594 477.882046,948.871511 482.697397,979.040104 C484.381948,989.593959 485.844649,999.395938 487.079683,1008.19751 C487.512604,1011.28276 487.886347,1014.02427 488.20017,1016.39092 C488.310403,1017.22223 488.405372,1017.94813 488.484984,1018.56472 C488.533297,1018.93891 488.566064,1019.19598 488.583189,1019.33206 L488.877597,1021.67145 L488.158522,1023.91697 C488.02899,1024.32147 487.816204,1024.92765 487.511265,1025.72202 C487.046717,1026.93217 486.472308,1028.30309 485.779117,1029.82119 C483.859489,1034.02519 481.358267,1038.65234 478.204375,1043.59205 C469.34132,1057.47362 457.023662,1071.266 440.713725,1084.05835 C419.970917,1100.32752 394.181267,1113.81952 362.859027,1123.65544 C326.209812,1135.16415 283.004067,1141.33333 232.724014,1141.33333 C182.480893,1141.33333 139.595161,1135.46165 103.501462,1124.50386 C72.6169985,1115.12755 47.419836,1102.25369 27.3879567,1086.71198 C11.5963884,1074.46011 -0.151529019,1061.22922 -8.42592596,1047.89604 C-11.3787828,1043.13787 -13.6894235,1038.67517 -15.4341375,1034.61427 C-16.0665678,1033.14225 -16.5861946,1031.81032 -17.0026232,1030.6315 C-17.2785423,1029.85042 -17.4703591,1029.24867 -17.5876625,1028.83913 L-18.1622792,1026.83296 L-17.938488,1024.75815 C-17.9225886,1024.61074 -17.8922204,1024.33446 -17.8472907,1023.93344 C-17.7734253,1023.27415 -17.6848159,1022.49844 -17.5813695,1021.61044 C-17.287086,1019.08426 -16.9323549,1016.1588 -16.5164263,1012.86716 C-15.3302444,1003.47979 -13.8904004,993.026651 -12.1907142,981.772195 C-7.33174016,949.598543 -1.36019186,917.416124 5.78295812,887.320404 C13.38298,855.299779 21.8853254,827.508806 31.381199,805.110514 C42.8520458,778.053774 55.5667047,759.214542 70.4425575,749.757351 C93.1978363,735.292183 115.360896,724.664235 136.248758,717.253738 Z" id="Stroke-3" stroke="#FFFFFF" stroke-width="21.3333333" fill="#FFB000" stroke-linejoin="round" mask="url(#mask-3)"></path>
                <path d="M576.537634,464.380952 C562.291312,444.619048 536.646151,443.428571 536.646151,443.428571 L536.377035,443.417659 C550.231556,434.644841 559.44185,419.167659 559.44185,401.52381 C559.44185,374.172619 537.327845,352 510.050179,352 C482.772513,352 460.659498,374.172619 460.659498,401.52381 C460.659498,418.97619 469.670923,434.308532 483.274138,443.128968 C476.397831,444.973214 465.54316,448.834325 453.060932,456.760913 C431.689964,470.333333 422.666667,553.90377 422.666667,553.90377 C422.666667,553.90377 433.589606,592 510.050179,592 C586.510753,592 599.333333,551.999008 599.333333,551.999008 C599.333333,551.999008 590.784946,484.142857 576.537634,464.380952 L576.537634,464.380952 Z" id="Stroke-3" fill="#009FDB" mask="url(#mask-3)"></path>
            </g>
        </g>
    </g>
</svg>