<svg width="141" height="20" xmlns="http://www.w3.org/2000/svg"><defs><filter x="-2.9%" y="-21.1%" width="105.8%" height="142.1%" filterUnits="objectBoundingBox" id="a"><feOffset dx="1" dy="1" in="SourceAlpha" result="shadowOffsetOuter1"/><feGaussianBlur stdDeviation=".5" in="shadowOffsetOuter1" result="shadowBlurOuter1"/><feColorMatrix values="0 0 0 0 0 0 0 0 0 0 0 0 0 0 0 0 0 0 0.2 0" in="shadowBlurOuter1" result="shadowMatrixOuter1"/><feMerge><feMergeNode in="shadowMatrixOuter1"/><feMergeNode in="SourceGraphic"/></feMerge></filter></defs><g filter="url(#a)" transform="translate(0 -1)" fill="#FFF" fill-rule="nonzero"><path d="M3.748 9.634h3.657L5.568 4.297l-1.82 5.337zm.877-7.336h1.954l4.45 11.86H8.955l-.978-2.83h-4.82l-.96 2.83H.176l4.449-11.86zM13.44 4.077H9.672V2.298h9.496v1.78H15.4v10.08h-1.96zM21.654 5.096c0 .307.077.594.232.861.154.268.483.668.987 1.203.664-.387 1.143-.745 1.435-1.075.292-.33.438-.671.438-1.023 0-.387-.135-.7-.404-.939-.269-.238-.627-.358-1.073-.358-.482 0-.871.122-1.169.367a1.186 1.186 0 00-.446.964m.996 7.983c.928 0 1.73-.42 2.405-1.263l-2.731-2.831c-.596.364-1.034.73-1.315 1.1-.28.37-.42.77-.42 1.203 0 .534.185.966.557 1.296.373.33.874.495 1.504.495m-.224 1.535c-1.122 0-2.021-.29-2.697-.87-.675-.58-1.013-1.347-1.013-2.303 0-.682.223-1.316.67-1.902.447-.585 1.11-1.106 1.993-1.56-.562-.592-.948-1.092-1.16-1.502a2.85 2.85 0 01-.318-1.33c0-.842.312-1.527.936-2.056.625-.528 1.429-.793 2.414-.793.985 0 1.773.245 2.363.734.59.489.884 1.137.884 1.944 0 1.149-.893 2.2-2.68 3.156l2.234 2.337c.229-.33.458-.705.687-1.126l.704-1.313h1.787l-1.013 1.842c-.264.49-.608 1.046-1.031 1.672l2.835 2.882h-2.303l-1.563-1.586c-.515.603-1.077 1.05-1.684 1.34-.607.289-1.289.434-2.045.434M32.432 4.077h-3.768V2.298h9.496v1.78h-3.767v10.08h-1.961zM49.013 3.136c-.899 0-1.69.231-2.372.693-.683.462-1.209 1.095-1.578 1.899-.37.804-.555 1.713-.555 2.728 0 1.06.196 1.996.589 2.805.392.81.93 1.432 1.612 1.865.683.434 1.45.65 2.304.65.898 0 1.69-.231 2.372-.693.682-.462 1.208-1.095 1.578-1.899.37-.804.555-1.713.555-2.728 0-1.06-.196-1.995-.589-2.805-.392-.81-.93-1.431-1.612-1.865-.683-.433-1.45-.65-2.304-.65m0-.838c1.07 0 2.016.274 2.841.821a5.449 5.449 0 011.911 2.215c.45.93.674 1.97.674 3.122 0 1.21-.242 2.284-.725 3.224-.484.941-1.135 1.666-1.954 2.173-.819.507-1.735.761-2.747.761-1.07 0-2.016-.274-2.841-.821a5.44 5.44 0 01-1.911-2.215c-.45-.93-.674-1.97-.674-3.122 0-1.209.241-2.283.725-3.224.483-.941 1.135-1.665 1.954-2.173.819-.507 1.734-.76 2.747-.76M68.041 14.145h.855v-8.81h-.855v8.81zM67.82 2.519c0-.183.06-.33.18-.444a.654.654 0 01.47-.17c.193 0 .35.056.47.17.119.114.179.261.179.444 0 .182-.06.33-.18.444a.654.654 0 01-.47.17.654.654 0 01-.47-.17.585.585 0 01-.179-.444zm-4.322 2.816h4.87v.718h-4.87v8.092h-.854V6.053H60.95v-.718h1.692v-.938c0-1.013.239-1.804.717-2.374.479-.568 1.15-.853 2.016-.853.49 0 .929.091 1.316.273l-.188.683a3.673 3.673 0 00-1.094-.188c-.603 0-1.073.211-1.409.632-.336.421-.504 1.019-.504 1.793v.972zm-5.399 0h4.87v.718h-4.87v8.092h-.854V6.053h-1.691v-.718h1.691v-.938c0-1.013.24-1.804.718-2.374.478-.568 1.15-.853 2.016-.853.49 0 .928.091 1.315.273l-.188.683a3.675 3.675 0 00-1.093-.188c-.604 0-1.074.211-1.41.632-.336.421-.504 1.019-.504 1.793v.972zM74.739 14.766c-.881 0-1.653-.203-2.314-.608a4.092 4.092 0 01-1.531-1.67c-.36-.707-.54-1.5-.54-2.382 0-.927.192-1.744.575-2.452a4.092 4.092 0 011.565-1.634c.662-.383 1.41-.574 2.245-.574.487 0 .93.058 1.331.174.4.116.815.313 1.244.591l-.296.66a5.29 5.29 0 00-1.113-.495 4.165 4.165 0 00-1.166-.147c-.696 0-1.308.17-1.836.512a3.442 3.442 0 00-1.226 1.391c-.29.586-.435 1.244-.435 1.974 0 .765.154 1.443.46 2.034a3.363 3.363 0 001.254 1.366 3.383 3.383 0 001.783.478c.452 0 .873-.052 1.261-.157a4.852 4.852 0 001.157-.486l.296.66c-.754.51-1.659.765-2.714.765M81.856 6.228c-.562 0-1.07.148-1.522.444a3.242 3.242 0 00-1.092 1.217 4.495 4.495 0 00-.499 1.73h5.915v-.138c0-.626-.12-1.195-.36-1.705-.242-.51-.571-.895-.99-1.156-.418-.261-.902-.392-1.452-.392m.326 8.538c-.883 0-1.65-.202-2.304-.608a4.026 4.026 0 01-1.504-1.661c-.35-.701-.525-1.498-.525-2.39 0-.917.184-1.731.55-2.444.367-.713.854-1.26 1.462-1.643a3.67 3.67 0 011.995-.574c.744 0 1.395.18 1.951.539.556.36.983.852 1.28 1.478.299.626.448 1.333.448 2.121 0 .256-.011.51-.034.766h-6.775c.035.73.207 1.37.516 1.921.31.55.72.974 1.23 1.27a3.35 3.35 0 001.71.443c.585 0 1.084-.055 1.496-.165.413-.11.848-.299 1.307-.566l.31.661a5.2 5.2 0 01-1.436.652c-.488.133-1.046.2-1.677.2M93.091 13.501c.416 0 .865-.12 1.35-.36a4.77 4.77 0 001.33-.996l1.056-3.778a2.611 2.611 0 00-.89-.54 3.016 3.016 0 00-1.064-.198c-.646 0-1.231.18-1.756.54-.524.361-.934.833-1.228 1.417a4.178 4.178 0 00-.44 1.906c0 .63.144 1.122.432 1.477.288.355.692.532 1.21.532m4.566 1.322c-.61 0-1.09-.154-1.435-.463-.346-.31-.525-.739-.536-1.288-.38.366-.817.655-1.306.867-.49.212-.977.318-1.461.318-.726 0-1.297-.24-1.713-.722-.415-.48-.622-1.127-.622-1.94 0-.87.201-1.674.605-2.412.404-.739.934-1.308 1.591-1.709a4.11 4.11 0 012.18-.6c.403 0 .792.071 1.167.214.374.143.688.34.942.592l.242-.652h.726l-1.383 4.98a3 3 0 00-.138.892c0 .39.092.678.276.867.185.189.473.283.865.283.622 0 1.185-.208 1.686-.626.502-.418.891-.973 1.167-1.666.277-.692.416-1.456.416-2.292 0-1.145-.246-2.138-.736-2.98a4.96 4.96 0 00-2.04-1.94c-.87-.451-1.876-.678-3.018-.678-1.464 0-2.784.352-3.96 1.056-1.176.704-2.087 1.629-2.733 2.773a7.49 7.49 0 00-.968 3.744c0 1.259.26 2.344.779 3.253a5.165 5.165 0 002.196 2.087c.945.48 2.058.72 3.338.72.587 0 1.193-.062 1.815-.188a9.617 9.617 0 001.764-.532l.19.72c-1.107.516-2.375.773-3.804.773-1.487 0-2.77-.28-3.848-.841-1.078-.56-1.9-1.354-2.465-2.378-.564-1.024-.847-2.224-.847-3.597 0-1.614.392-3.06 1.176-4.336a8.2 8.2 0 013.122-2.97c1.296-.704 2.718-1.056 4.262-1.056 1.35 0 2.528.272 3.537.815 1.009.544 1.781 1.297 2.318 2.258.535.962.804 2.06.804 3.297 0 1.053-.188 1.986-.563 2.799-.374.813-.876 1.442-1.504 1.888a3.517 3.517 0 01-2.084.67M103.365 2.47h.876v5.577h6.945V2.471h.877v12.123h-.877V8.88h-6.945v5.715h-.876zM116.885 13.984c.534 0 1.082-.122 1.644-.365a5.077 5.077 0 001.488-.974v-2.4h-2.8c-1.556 0-2.333.65-2.333 1.948 0 .533.186.965.557 1.295.371.33.853.496 1.444.496m-.087.782c-.87 0-1.554-.229-2.053-.687-.499-.457-.748-1.08-.748-1.869 0-.88.26-1.55.783-2.008.522-.458 1.293-.687 2.314-.687h2.923V9.08c0-1.9-.817-2.851-2.453-2.851-.488 0-.954.064-1.4.19-.447.128-.92.331-1.419.61l-.313-.661a7.41 7.41 0 011.61-.705 5.95 5.95 0 011.643-.217c2.135 0 3.202 1.182 3.202 3.547v5.6h-.713l-.122-1.113a5.37 5.37 0 01-1.548.939 4.575 4.575 0 01-1.706.347M122.675 14.592V5.62h.714l.122 1.113c1.079-.858 2.186-1.287 3.323-1.287.998 0 1.754.298 2.27.896.516.597.775 1.48.775 2.651v5.6h-.87V9.08c0-1.878-.795-2.817-2.384-2.817-1.078 0-2.105.424-3.08 1.27v7.06h-.87zM135.025 13.547c.528 0 1.02-.096 1.479-.29.458-.193.94-.506 1.444-.939V7.06a4.044 4.044 0 00-1.272-.837 3.763 3.763 0 00-1.445-.29c-.95 0-1.716.35-2.295 1.05-.579.7-.868 1.62-.868 2.757 0 1.127.272 2.043.816 2.749.545.706 1.258 1.058 2.141 1.058zm3.783-12.206v12.804h-.705l-.12-1.024c-.528.433-1.032.74-1.514.922a4.438 4.438 0 01-1.582.273c-.745 0-1.398-.2-1.96-.598-.561-.398-.991-.942-1.29-1.63-.297-.689-.446-1.471-.446-2.348 0-.922.172-1.73.516-2.424.344-.694.813-1.226 1.41-1.596.596-.37 1.272-.555 2.029-.555.48 0 .962.085 1.444.256.481.17.934.421 1.358.751V1.341h.86z"/></g></svg>
